<svg viewBox="0 0 16 16" fill="none" xmlns="http://www.w3.org/2000/svg">
<g clip-path="url(#clip0_2461_29500)">
<path opacity="0.2" d="M8 6H11V4.25C10.9999 4.15246 11.0284 4.05703 11.0819 3.97547C11.1354 3.89391 11.2116 3.82979 11.3011 3.79099C11.3906 3.75219 11.4895 3.74042 11.5856 3.75713C11.6817 3.77383 11.7708 3.81828 11.842 3.885L15.842 7.635C15.892 7.68177 15.9318 7.7383 15.959 7.80108C15.9862 7.86386 16.0003 7.93157 16.0003 8C16.0003 8.06843 15.9862 8.13614 15.959 8.19892C15.9318 8.2617 15.892 8.31823 15.842 8.365L11.842 12.115C11.7708 12.1817 11.6817 12.2262 11.5856 12.2429C11.4895 12.2596 11.3906 12.2478 11.3011 12.209C11.2116 12.1702 11.1354 12.1061 11.0819 12.0245C11.0284 11.943 10.9999 11.8475 11 11.75V10H8V14.5C8 14.6326 7.94732 14.7598 7.85355 14.8536C7.75979 14.9473 7.63261 15 7.5 15H0.5C0.367392 15 0.240215 14.9473 0.146447 14.8536C0.0526784 14.7598 0 14.6326 0 14.5V1.5C0 1.36739 0.0526784 1.24021 0.146447 1.14645C0.240215 1.05268 0.367392 1 0.5 1H7.5C7.63261 1 7.75979 1.05268 7.85355 1.14645C7.94732 1.24021 8 1.36739 8 1.5V6Z" fill="#4F87FE"/>
<path d="M8 6H11V4.25C10.9999 4.15246 11.0284 4.05703 11.0819 3.97547C11.1354 3.89391 11.2116 3.82979 11.3011 3.79099C11.3906 3.75219 11.4895 3.74042 11.5856 3.75713C11.6817 3.77383 11.7708 3.81828 11.842 3.885L15.842 7.635C15.892 7.68177 15.9318 7.7383 15.959 7.80108C15.9862 7.86386 16.0003 7.93157 16.0003 8C16.0003 8.06843 15.9862 8.13614 15.959 8.19892C15.9318 8.2617 15.892 8.31823 15.842 8.365L11.842 12.115C11.7708 12.1817 11.6817 12.2262 11.5856 12.2429C11.4895 12.2596 11.3906 12.2478 11.3011 12.209C11.2116 12.1702 11.1354 12.1061 11.0819 12.0245C11.0284 11.943 10.9999 11.8475 11 11.75V10H8V14.5C8 14.6326 7.94732 14.7598 7.85355 14.8536C7.75979 14.9473 7.63261 15 7.5 15H0.5C0.367392 15 0.240215 14.9473 0.146447 14.8536C0.0526784 14.7598 0 14.6326 0 14.5V1.5C0 1.36739 0.0526784 1.24021 0.146447 1.14645C0.240215 1.05268 0.367392 1 0.5 1H7.5C7.63261 1 7.75979 1.05268 7.85355 1.14645C7.94732 1.24021 8 1.36739 8 1.5V6ZM12 5.4V6.5C12 6.63261 11.9473 6.75979 11.8536 6.85355C11.7598 6.94732 11.6326 7 11.5 7H7.5C7.36739 7 7.24021 6.94732 7.14645 6.85355C7.05268 6.75979 7 6.63261 7 6.5V2H1V14H7V9.5C7 9.36739 7.05268 9.24021 7.14645 9.14645C7.24021 9.05268 7.36739 9 7.5 9H11.5C11.6326 9 11.7598 9.05268 11.8536 9.14645C11.9473 9.24021 12 9.36739 12 9.5V10.6L14.769 8L12 5.4Z" fill="#3B64FC"/>
</g>
<defs>
<clipPath id="clip0_2461_29500">
<rect width="16" height="16" fill="white"/>
</clipPath>
</defs>
</svg>
