<svg viewBox="0 0 16 16" fill="none" xmlns="http://www.w3.org/2000/svg">
<path opacity="0.2" d="M9 2C9.65661 2 10.3068 2.12933 10.9134 2.3806C11.52 2.63188 12.0712 3.00017 12.5355 3.46447C12.9998 3.92876 13.3681 4.47995 13.6194 5.08658C13.8707 5.69321 14 6.34339 14 7V9H15.5C15.5941 9.00013 15.6862 9.02681 15.7658 9.07697C15.8454 9.12712 15.9093 9.19872 15.95 9.28353C15.9907 9.36834 16.0067 9.46292 15.9961 9.5564C15.9855 9.64989 15.9487 9.73848 15.89 9.812L11.89 14.812C11.8432 14.8706 11.7837 14.9179 11.7161 14.9504C11.6485 14.9829 11.5745 14.9997 11.4995 14.9997C11.4245 14.9997 11.3505 14.9829 11.2829 14.9504C11.2153 14.9179 11.1558 14.8706 11.109 14.812L7.109 9.812C7.05024 9.73841 7.01345 9.64973 7.00288 9.55615C6.9923 9.46258 7.00836 9.36792 7.04922 9.28308C7.09007 9.19823 7.15406 9.12665 7.23381 9.07657C7.31356 9.02649 7.40583 8.99995 7.5 9H9V7C9.00016 6.2977 8.81541 5.60774 8.46433 4.99949C8.11324 4.39124 7.60821 3.88615 7 3.535C6.39179 3.88615 5.88675 4.39124 5.53567 4.99949C5.18459 5.60774 4.99984 6.2977 5 7V10.5C5 10.6326 4.94732 10.7598 4.85355 10.8536C4.75979 10.9473 4.63261 11 4.5 11H0.5C0.367392 11 0.240215 10.9473 0.146447 10.8536C0.0526784 10.7598 0 10.6326 0 10.5V7C0 5.67392 0.526784 4.40215 1.46447 3.46447C2.40215 2.52678 3.67392 2 5 2H9Z" fill="#4F87FE"/>
<path d="M9 2C9.65661 2 10.3068 2.12933 10.9134 2.3806C11.52 2.63188 12.0712 3.00017 12.5355 3.46447C12.9998 3.92876 13.3681 4.47995 13.6194 5.08658C13.8707 5.69321 14 6.34339 14 7V9H15.5C15.5941 9.00013 15.6862 9.02681 15.7658 9.07697C15.8454 9.12712 15.9093 9.19872 15.95 9.28353C15.9907 9.36834 16.0067 9.46292 15.9961 9.5564C15.9855 9.64989 15.9487 9.73848 15.89 9.812L11.89 14.812C11.8432 14.8706 11.7837 14.9179 11.7161 14.9504C11.6485 14.9829 11.5745 14.9997 11.4995 14.9997C11.4245 14.9997 11.3505 14.9829 11.2829 14.9504C11.2153 14.9179 11.1558 14.8706 11.109 14.812L7.109 9.812C7.05024 9.73841 7.01345 9.64973 7.00288 9.55615C6.9923 9.46258 7.00836 9.36792 7.04922 9.28308C7.09007 9.19823 7.15406 9.12665 7.23381 9.07657C7.31356 9.02649 7.40583 8.99995 7.5 9H9V7C9.00016 6.2977 8.81541 5.60774 8.46433 4.99949C8.11324 4.39124 7.60821 3.88615 7 3.535C6.39179 3.88615 5.88675 4.39124 5.53567 4.99949C5.18459 5.60774 4.99984 6.2977 5 7V10.5C5 10.6326 4.94732 10.7598 4.85355 10.8536C4.75979 10.9473 4.63261 11 4.5 11H0.5C0.367392 11 0.240215 10.9473 0.146447 10.8536C0.0526784 10.7598 0 10.6326 0 10.5V7C0 5.67392 0.526784 4.40215 1.46447 3.46447C2.40215 2.52678 3.67392 2 5 2H9ZM10 7V9.5C10 9.63261 9.94732 9.75979 9.85355 9.85355C9.75979 9.94732 9.63261 10 9.5 10H8.54L11.5 13.7L14.46 10H13.5C13.3674 10 13.2402 9.94732 13.1464 9.85355C13.0527 9.75979 13 9.63261 13 9.5V7C12.9995 6.40065 12.8644 5.80906 12.6045 5.26896C12.3447 4.72886 11.9668 4.25406 11.4988 3.87965C11.0308 3.50523 10.4846 3.24078 9.90063 3.10583C9.31666 2.97088 8.70984 2.96889 8.125 3.1C8.70968 3.56812 9.18173 4.16162 9.50626 4.83665C9.8308 5.51169 9.99953 6.25101 10 7ZM5 3C3.93913 3 2.92172 3.42143 2.17157 4.17157C1.42143 4.92172 1 5.93913 1 7V10H4V7C4.00047 6.25101 4.1692 5.51169 4.49374 4.83665C4.81827 4.16162 5.29032 3.56812 5.875 3.1C5.58788 3.0347 5.29445 3.00116 5 3Z" fill="#3B64FC"/>
</svg>
