<svg viewBox="0 0 16 16" fill="none" xmlns="http://www.w3.org/2000/svg">
<g clip-path="url(#clip0_2461_29492)">
<path opacity="0.2" d="M1 5.50013V11.5001C1 11.6327 0.947322 11.7599 0.853553 11.8537C0.759785 11.9475 0.632608 12.0001 0.5 12.0001C0.367392 12.0001 0.240215 11.9475 0.146447 11.8537C0.0526784 11.7599 0 11.6327 0 11.5001V5.50013C0 5.36752 0.0526784 5.24035 0.146447 5.14658C0.240215 5.05281 0.367392 5.00013 0.5 5.00013C0.632608 5.00013 0.759785 5.05281 0.853553 5.14658C0.947322 5.24035 1 5.36752 1 5.50013ZM8 12.0001H3.5C3.36739 12.0001 3.24021 11.9475 3.14645 11.8537C3.05268 11.7599 3 11.6327 3 11.5001V5.50013C3 5.36752 3.05268 5.24035 3.14645 5.14658C3.24021 5.05281 3.36739 5.00013 3.5 5.00013H8V3.37013C8.00002 3.19798 8.0494 3.02945 8.1423 2.88452C8.23521 2.73959 8.36772 2.62435 8.52414 2.55246C8.68056 2.48056 8.85431 2.45504 9.0248 2.47891C9.19528 2.50278 9.35534 2.57504 9.486 2.68713L15.826 8.12113C15.8807 8.16807 15.9246 8.22629 15.9548 8.29179C15.9849 8.3573 16.0005 8.42854 16.0005 8.50063C16.0005 8.57272 15.9849 8.64397 15.9548 8.70947C15.9246 8.77497 15.8807 8.83319 15.826 8.88013L9.486 14.3141C9.35528 14.4263 9.19512 14.4986 9.02455 14.5224C8.85397 14.5462 8.68014 14.5206 8.52368 14.4486C8.36723 14.3766 8.23473 14.2612 8.1419 14.1161C8.04907 13.971 7.99982 13.8024 8 13.6301V12.0001Z" fill="#4F87FE"/>
<path d="M1 5.50013V11.5001C1 11.6327 0.947322 11.7599 0.853553 11.8537C0.759785 11.9475 0.632608 12.0001 0.5 12.0001C0.367392 12.0001 0.240215 11.9475 0.146447 11.8537C0.0526784 11.7599 0 11.6327 0 11.5001V5.50013C0 5.36752 0.0526784 5.24035 0.146447 5.14658C0.240215 5.05281 0.367392 5.00013 0.5 5.00013C0.632608 5.00013 0.759785 5.05281 0.853553 5.14658C0.947322 5.24035 1 5.36752 1 5.50013ZM8 12.0001H3.5C3.36739 12.0001 3.24021 11.9475 3.14645 11.8537C3.05268 11.7599 3 11.6327 3 11.5001V5.50013C3 5.36752 3.05268 5.24035 3.14645 5.14658C3.24021 5.05281 3.36739 5.00013 3.5 5.00013H8V3.37013C8.00002 3.19798 8.0494 3.02945 8.1423 2.88452C8.23521 2.73959 8.36772 2.62435 8.52414 2.55246C8.68056 2.48056 8.85431 2.45504 9.0248 2.47891C9.19528 2.50278 9.35534 2.57504 9.486 2.68713L15.826 8.12113C15.8807 8.16807 15.9246 8.22629 15.9548 8.29179C15.9849 8.3573 16.0005 8.42854 16.0005 8.50063C16.0005 8.57272 15.9849 8.64397 15.9548 8.70947C15.9246 8.77497 15.8807 8.83319 15.826 8.88013L9.486 14.3141C9.35528 14.4263 9.19512 14.4986 9.02455 14.5224C8.85397 14.5462 8.68014 14.5206 8.52368 14.4486C8.36723 14.3766 8.23473 14.2612 8.1419 14.1161C8.04907 13.971 7.99982 13.8024 8 13.6301V12.0001ZM4 6.00013V11.0001H8.5C8.63261 11.0001 8.75979 11.0528 8.85355 11.1466C8.94732 11.2403 9 11.3675 9 11.5001V13.4131L14.732 8.50013L9 3.58713V5.50013C9 5.63274 8.94732 5.75992 8.85355 5.85368C8.75979 5.94745 8.63261 6.00013 8.5 6.00013H4Z" fill="#3B64FC"/>
</g>
<defs>
<clipPath id="clip0_2461_29492">
<rect width="16" height="16" fill="white"/>
</clipPath>
</defs>
</svg>
