<svg viewBox="0 0 16 16" fill="none" xmlns="http://www.w3.org/2000/svg">
<g clip-path="url(#clip0_2461_29504)">
<path opacity="0.2" d="M6 8.00011V5.00011H4.25C4.15246 5.00016 4.05703 4.97168 3.97547 4.91817C3.89391 4.86466 3.82979 4.78847 3.79099 4.69897C3.75219 4.60948 3.74042 4.51059 3.75713 4.41448C3.77383 4.31838 3.81828 4.22926 3.885 4.15811L7.635 0.158107C7.68082 0.109083 7.73603 0.0697834 7.79736 0.0425485C7.85868 0.0153137 7.92486 0.000701093 7.99195 -0.000418653C8.05905 -0.0015384 8.12568 0.0108576 8.18788 0.0360309C8.25008 0.0612041 8.30657 0.0986395 8.354 0.146107L12.354 4.14611C12.4241 4.21604 12.4719 4.30521 12.4912 4.40232C12.5106 4.49942 12.5007 4.6001 12.4628 4.69157C12.4249 4.78304 12.3606 4.8612 12.2783 4.91613C12.1959 4.97106 12.099 5.00028 12 5.00011H10V8.00011H14.5C14.6326 8.00011 14.7598 8.05278 14.8536 8.14655C14.9473 8.24032 15 8.3675 15 8.50011V15.5001C15 15.6327 14.9473 15.7599 14.8536 15.8537C14.7598 15.9474 14.6326 16.0001 14.5 16.0001H1.5C1.36739 16.0001 1.24021 15.9474 1.14645 15.8537C1.05268 15.7599 1 15.6327 1 15.5001V8.50011C1 8.3675 1.05268 8.24032 1.14645 8.14655C1.24021 8.05278 1.36739 8.00011 1.5 8.00011H6Z" fill="#4F87FE"/>
<path d="M6 8.00011V5.00011H4.25C4.15246 5.00016 4.05703 4.97168 3.97547 4.91817C3.89391 4.86466 3.82979 4.78847 3.79099 4.69897C3.75219 4.60948 3.74042 4.51059 3.75713 4.41448C3.77383 4.31838 3.81828 4.22926 3.885 4.15811L7.635 0.158107C7.68082 0.109083 7.73603 0.0697834 7.79736 0.0425485C7.85868 0.0153137 7.92486 0.000701093 7.99195 -0.000418653C8.05905 -0.0015384 8.12568 0.0108576 8.18788 0.0360309C8.25008 0.0612041 8.30657 0.0986395 8.354 0.146107L12.354 4.14611C12.4241 4.21604 12.4719 4.30521 12.4912 4.40232C12.5106 4.49942 12.5007 4.6001 12.4628 4.69157C12.4249 4.78304 12.3606 4.8612 12.2783 4.91613C12.1959 4.97106 12.099 5.00028 12 5.00011H10V8.00011H14.5C14.6326 8.00011 14.7598 8.05278 14.8536 8.14655C14.9473 8.24032 15 8.3675 15 8.50011V15.5001C15 15.6327 14.9473 15.7599 14.8536 15.8537C14.7598 15.9474 14.6326 16.0001 14.5 16.0001H1.5C1.36739 16.0001 1.24021 15.9474 1.14645 15.8537C1.05268 15.7599 1 15.6327 1 15.5001V8.50011C1 8.3675 1.05268 8.24032 1.14645 8.14655C1.24021 8.05278 1.36739 8.00011 1.5 8.00011H6ZM5.4 4.00011H6.5C6.63261 4.00011 6.75979 4.05279 6.85355 4.14655C6.94732 4.24032 7 4.3675 7 4.50011V8.50011C7 8.63272 6.94732 8.75989 6.85355 8.85366C6.75979 8.94743 6.63261 9.00011 6.5 9.00011H2V15.0001H14V9.00011H9.5C9.36739 9.00011 9.24021 8.94743 9.14645 8.85366C9.05268 8.75989 9 8.63272 9 8.50011V4.50011C9 4.3675 9.05268 4.24032 9.14645 4.14655C9.24021 4.05279 9.36739 4.00011 9.5 4.00011H10.793L8.012 1.21911L5.4 4.00011Z" fill="#3B64FC"/>
</g>
<defs>
<clipPath id="clip0_2461_29504">
<rect width="16" height="16" fill="white"/>
</clipPath>
</defs>
</svg>
