<svg viewBox="0 0 16 16" fill="none" xmlns="http://www.w3.org/2000/svg">
<g clip-path="url(#clip0_2461_29472)">
<path opacity="0.2" d="M6.00005 6.00005V4.00005H5.25005C5.15295 4.00016 5.05792 3.97199 4.97656 3.91898C4.8952 3.86597 4.83104 3.79042 4.7919 3.70155C4.75277 3.61268 4.74036 3.51434 4.75619 3.41854C4.77203 3.32273 4.81541 3.23361 4.88105 3.16205L7.63105 0.162054C7.67789 0.11098 7.73484 0.0702002 7.79827 0.0423029C7.86171 0.0144057 7.93025 0 7.99955 0C8.06885 0 8.1374 0.0144057 8.20083 0.0423029C8.26427 0.0702002 8.32121 0.11098 8.36805 0.162054L11.1181 3.16205C11.1836 3.23355 11.227 3.32258 11.2429 3.41829C11.2587 3.514 11.2464 3.61226 11.2074 3.70109C11.1684 3.78992 11.1044 3.86549 11.0232 3.91857C10.942 3.97165 10.8471 3.99997 10.7501 4.00005H10.0001V6.00005H12.0001V5.25005C11.9999 5.15295 12.0281 5.05792 12.0811 4.97656C12.1341 4.8952 12.2097 4.83104 12.2986 4.7919C12.3874 4.75277 12.4858 4.74036 12.5816 4.75619C12.6774 4.77203 12.7665 4.81541 12.8381 4.88105L15.8381 7.63105C15.8891 7.67789 15.9299 7.73484 15.9578 7.79827C15.9857 7.86171 16.0001 7.93025 16.0001 7.99955C16.0001 8.06885 15.9857 8.1374 15.9578 8.20083C15.9299 8.26427 15.8891 8.32121 15.8381 8.36805L12.8381 11.1181C12.7666 11.1836 12.6775 11.227 12.5818 11.2429C12.4861 11.2587 12.3878 11.2464 12.299 11.2074C12.2102 11.1684 12.1346 11.1044 12.0815 11.0232C12.0285 10.942 12.0001 10.8471 12.0001 10.7501V10.0001H10.0001V12.0001H10.7501C10.8472 11.9999 10.9422 12.0281 11.0236 12.0811C11.1049 12.1341 11.1691 12.2097 11.2082 12.2986C11.2473 12.3874 11.2597 12.4858 11.2439 12.5816C11.2281 12.6774 11.1847 12.7665 11.1191 12.8381L8.36905 15.8381C8.32221 15.8891 8.26527 15.9299 8.20183 15.9578C8.1384 15.9857 8.06985 16.0001 8.00055 16.0001C7.93125 16.0001 7.86271 15.9857 7.79927 15.9578C7.73584 15.9299 7.67889 15.8891 7.63205 15.8381L4.88205 12.8381C4.81647 12.7666 4.7731 12.6775 4.75724 12.5818C4.74137 12.4861 4.75369 12.3878 4.7927 12.299C4.83171 12.2102 4.89572 12.1346 4.97693 12.0815C5.05814 12.0285 5.15303 12.0001 5.25005 12.0001H6.00005V10.0001H4.00005V10.7501C4.00016 10.8472 3.97199 10.9422 3.91898 11.0236C3.86597 11.1049 3.79042 11.1691 3.70155 11.2082C3.61268 11.2473 3.51434 11.2597 3.41854 11.2439C3.32273 11.2281 3.23361 11.1847 3.16205 11.1191L0.162054 8.36905C0.11098 8.32221 0.0702002 8.26527 0.0423029 8.20183C0.0144057 8.1384 0 8.06985 0 8.00055C0 7.93125 0.0144057 7.86271 0.0423029 7.79927C0.0702002 7.73584 0.11098 7.67889 0.162054 7.63205L3.16205 4.88205C3.23355 4.81647 3.32258 4.7731 3.41829 4.75724C3.514 4.74137 3.61226 4.75369 3.70109 4.7927C3.78992 4.83171 3.86549 4.89572 3.91857 4.97693C3.97165 5.05814 3.99997 5.15303 4.00005 5.25005V6.00005H6.00005Z" fill="#4F87FE"/>
<path d="M6.00005 6.00005V4.00005H5.25005C5.15295 4.00016 5.05792 3.97199 4.97656 3.91898C4.8952 3.86597 4.83104 3.79042 4.7919 3.70155C4.75277 3.61268 4.74036 3.51434 4.75619 3.41854C4.77203 3.32273 4.81541 3.23361 4.88105 3.16205L7.63105 0.162054C7.67789 0.11098 7.73484 0.0702002 7.79827 0.0423029C7.86171 0.0144057 7.93025 0 7.99955 0C8.06885 0 8.1374 0.0144057 8.20083 0.0423029C8.26427 0.0702002 8.32121 0.11098 8.36805 0.162054L11.1181 3.16205C11.1836 3.23355 11.227 3.32258 11.2429 3.41829C11.2587 3.514 11.2464 3.61226 11.2074 3.70109C11.1684 3.78992 11.1044 3.86549 11.0232 3.91857C10.942 3.97165 10.8471 3.99997 10.7501 4.00005H10.0001V6.00005H12.0001V5.25005C11.9999 5.15295 12.0281 5.05792 12.0811 4.97656C12.1341 4.8952 12.2097 4.83104 12.2986 4.7919C12.3874 4.75277 12.4858 4.74036 12.5816 4.75619C12.6774 4.77203 12.7665 4.81541 12.8381 4.88105L15.8381 7.63105C15.8891 7.67789 15.9299 7.73484 15.9578 7.79827C15.9857 7.86171 16.0001 7.93025 16.0001 7.99955C16.0001 8.06885 15.9857 8.1374 15.9578 8.20083C15.9299 8.26427 15.8891 8.32121 15.8381 8.36805L12.8381 11.1181C12.7666 11.1836 12.6775 11.227 12.5818 11.2429C12.4861 11.2587 12.3878 11.2464 12.299 11.2074C12.2102 11.1684 12.1346 11.1044 12.0815 11.0232C12.0285 10.942 12.0001 10.8471 12.0001 10.7501V10.0001H10.0001V12.0001H10.7501C10.8472 11.9999 10.9422 12.0281 11.0236 12.0811C11.1049 12.1341 11.1691 12.2097 11.2082 12.2986C11.2473 12.3874 11.2597 12.4858 11.2439 12.5816C11.2281 12.6774 11.1847 12.7665 11.1191 12.8381L8.36905 15.8381C8.32221 15.8891 8.26527 15.9299 8.20183 15.9578C8.1384 15.9857 8.06985 16.0001 8.00055 16.0001C7.93125 16.0001 7.86271 15.9857 7.79927 15.9578C7.73584 15.9299 7.67889 15.8891 7.63205 15.8381L4.88205 12.8381C4.81647 12.7666 4.7731 12.6775 4.75724 12.5818C4.74137 12.4861 4.75369 12.3878 4.7927 12.299C4.83171 12.2102 4.89572 12.1346 4.97693 12.0815C5.05814 12.0285 5.15303 12.0001 5.25005 12.0001H6.00005V10.0001H4.00005V10.7501C4.00016 10.8472 3.97199 10.9422 3.91898 11.0236C3.86597 11.1049 3.79042 11.1691 3.70155 11.2082C3.61268 11.2473 3.51434 11.2597 3.41854 11.2439C3.32273 11.2281 3.23361 11.1847 3.16205 11.1191L0.162054 8.36905C0.11098 8.32221 0.0702002 8.26527 0.0423029 8.20183C0.0144057 8.1384 0 8.06985 0 8.00055C0 7.93125 0.0144057 7.86271 0.0423029 7.79927C0.0702002 7.73584 0.11098 7.67889 0.162054 7.63205L3.16205 4.88205C3.23355 4.81647 3.32258 4.7731 3.41829 4.75724C3.514 4.74137 3.61226 4.75369 3.70109 4.7927C3.78992 4.83171 3.86549 4.89572 3.91857 4.97693C3.97165 5.05814 3.99997 5.15303 4.00005 5.25005V6.00005H6.00005ZM6.38705 3.00005H6.50005C6.63266 3.00005 6.75984 3.05273 6.85361 3.1465C6.94737 3.24027 7.00005 3.36745 7.00005 3.50005V6.50005C7.00005 6.63266 6.94737 6.75984 6.85361 6.85361C6.75984 6.94737 6.63266 7.00005 6.50005 7.00005H3.50005C3.36745 7.00005 3.24027 6.94737 3.1465 6.85361C3.05273 6.75984 3.00005 6.63266 3.00005 6.50005V6.38705L1.24005 8.00005L3.00005 9.61305V9.50005C3.00005 9.36745 3.05273 9.24027 3.1465 9.1465C3.24027 9.05273 3.36745 9.00005 3.50005 9.00005H6.50005C6.63266 9.00005 6.75984 9.05273 6.85361 9.1465C6.94737 9.24027 7.00005 9.36745 7.00005 9.50005V12.5001C7.00005 12.6327 6.94737 12.7598 6.85361 12.8536C6.75984 12.9474 6.63266 13.0001 6.50005 13.0001H6.38705L8.00005 14.7601L9.61305 13.0001H9.50005C9.36745 13.0001 9.24027 12.9474 9.1465 12.8536C9.05273 12.7598 9.00005 12.6327 9.00005 12.5001V9.50005C9.00005 9.36745 9.05273 9.24027 9.1465 9.1465C9.24027 9.05273 9.36745 9.00005 9.50005 9.00005H12.5001C12.6327 9.00005 12.7598 9.05273 12.8536 9.1465C12.9474 9.24027 13.0001 9.36745 13.0001 9.50005V9.61305L14.7601 8.00005L13.0001 6.38705V6.50005C13.0001 6.63266 12.9474 6.75984 12.8536 6.85361C12.7598 6.94737 12.6327 7.00005 12.5001 7.00005H9.50005C9.36745 7.00005 9.24027 6.94737 9.1465 6.85361C9.05273 6.75984 9.00005 6.63266 9.00005 6.50005V3.50005C9.00005 3.36745 9.05273 3.24027 9.1465 3.1465C9.24027 3.05273 9.36745 3.00005 9.50005 3.00005H9.61305L8.00005 1.24005L6.38705 3.00005Z" fill="#3B64FC"/>
</g>
<defs>
<clipPath id="clip0_2461_29472">
<rect width="16" height="16" fill="white"/>
</clipPath>
</defs>
</svg>
