<svg viewBox="0 0 16 16" fill="none" xmlns="http://www.w3.org/2000/svg">
<g clip-path="url(#clip0_2461_29478)">
<path opacity="0.2" d="M8 9H6.354C6.183 9.0001 6.01558 9.04892 5.87132 9.14073C5.72706 9.23253 5.61194 9.36354 5.53944 9.51841C5.46694 9.67327 5.44005 9.84559 5.46194 10.0152C5.48382 10.1848 5.55356 10.3446 5.663 10.476L10.116 15.82C10.1629 15.8763 10.2216 15.9215 10.288 15.9526C10.3544 15.9837 10.4267 15.9998 10.5 15.9998C10.5733 15.9998 10.6456 15.9837 10.712 15.9526C10.7784 15.9215 10.8371 15.8763 10.884 15.82L15.337 10.476C15.4464 10.3446 15.5162 10.1848 15.5381 10.0152C15.5599 9.84559 15.5331 9.67327 15.4606 9.51841C15.3881 9.36354 15.2729 9.23253 15.1287 9.14073C14.9844 9.04892 14.817 9.0001 14.646 9H13V7.5C13 5.77609 12.3152 4.12279 11.0962 2.90381C9.87721 1.68482 8.22391 1 6.5 1C4.77609 1 3.12279 1.68482 1.90381 2.90381C0.684819 4.12279 0 5.77609 0 7.5L0 14.5C0 14.6326 0.0526784 14.7598 0.146447 14.8536C0.240215 14.9473 0.367392 15 0.5 15H4.5C4.63261 15 4.75979 14.9473 4.85355 14.8536C4.94732 14.7598 5 14.6326 5 14.5V7.5C5 7.10218 5.15804 6.72064 5.43934 6.43934C5.72064 6.15804 6.10218 6 6.5 6C6.89782 6 7.27936 6.15804 7.56066 6.43934C7.84196 6.72064 8 7.10218 8 7.5V9Z" fill="#4F87FE"/>
<path d="M8 9H6.354C6.183 9.0001 6.01558 9.04892 5.87132 9.14073C5.72706 9.23253 5.61194 9.36354 5.53944 9.51841C5.46694 9.67327 5.44005 9.84559 5.46194 10.0152C5.48382 10.1848 5.55356 10.3446 5.663 10.476L10.116 15.82C10.1629 15.8763 10.2216 15.9215 10.288 15.9526C10.3544 15.9837 10.4267 15.9998 10.5 15.9998C10.5733 15.9998 10.6456 15.9837 10.712 15.9526C10.7784 15.9215 10.8371 15.8763 10.884 15.82L15.337 10.476C15.4464 10.3446 15.5162 10.1848 15.5381 10.0152C15.5599 9.84559 15.5331 9.67327 15.4606 9.51841C15.3881 9.36354 15.2729 9.23253 15.1287 9.14073C14.9844 9.04892 14.817 9.0001 14.646 9H13V7.5C13 5.77609 12.3152 4.12279 11.0962 2.90381C9.87721 1.68482 8.22391 1 6.5 1C4.77609 1 3.12279 1.68482 1.90381 2.90381C0.684819 4.12279 0 5.77609 0 7.5L0 14.5C0 14.6326 0.0526784 14.7598 0.146447 14.8536C0.240215 14.9473 0.367392 15 0.5 15H4.5C4.63261 15 4.75979 14.9473 4.85355 14.8536C4.94732 14.7598 5 14.6326 5 14.5V7.5C5 7.10218 5.15804 6.72064 5.43934 6.43934C5.72064 6.15804 6.10218 6 6.5 6C6.89782 6 7.27936 6.15804 7.56066 6.43934C7.84196 6.72064 8 7.10218 8 7.5V9ZM4 14H1V7.5C1 6.04131 1.57946 4.64236 2.61091 3.61091C3.64236 2.57946 5.04131 2 6.5 2C7.95869 2 9.35764 2.57946 10.3891 3.61091C11.4205 4.64236 12 6.04131 12 7.5V9.5C12 9.63261 12.0527 9.75979 12.1464 9.85355C12.2402 9.94732 12.3674 10 12.5 10H14.432L10.5 14.719L6.568 10H8.5C8.63261 10 8.75979 9.94732 8.85355 9.85355C8.94732 9.75979 9 9.63261 9 9.5V7.5C9 6.83696 8.73661 6.20107 8.26777 5.73223C7.79893 5.26339 7.16304 5 6.5 5C5.83696 5 5.20107 5.26339 4.73223 5.73223C4.26339 6.20107 4 6.83696 4 7.5V14Z" fill="#3B64FC"/>
</g>
<defs>
<clipPath id="clip0_2461_29478">
<rect width="16" height="16" fill="white"/>
</clipPath>
</defs>
</svg>
