<svg viewBox="0 0 16 16" fill="none" xmlns="http://www.w3.org/2000/svg">
<g clip-path="url(#clip0_2461_29512)">
<path opacity="0.2" d="M8.466 10C8.28811 10.0002 8.11426 10.053 7.9664 10.1519C7.81854 10.2508 7.70331 10.3913 7.63526 10.5557C7.5672 10.72 7.54938 10.9009 7.58404 11.0754C7.6187 11.2498 7.70429 11.4101 7.83 11.536L11.147 14.853C11.2408 14.9467 11.3679 14.9994 11.5005 14.9994C11.6331 14.9994 11.7602 14.9467 11.854 14.853L15.171 11.536C15.2968 11.4101 15.3824 11.2497 15.417 11.0751C15.4516 10.9005 15.4337 10.7196 15.3656 10.5552C15.2974 10.3908 15.182 10.2503 15.034 10.1515C14.886 10.0527 14.712 9.99996 14.534 10H14V9C14 7.14348 13.2625 5.36301 11.9497 4.05025C10.637 2.7375 8.85652 2 7 2C5.14348 2 3.36301 2.7375 2.05025 4.05025C0.737498 5.36301 0 7.14348 0 9L0 10.5C0 10.6326 0.0526784 10.7598 0.146447 10.8536C0.240215 10.9473 0.367392 11 0.5 11H4.5C4.63261 11 4.75979 10.9473 4.85355 10.8536C4.94732 10.7598 5 10.6326 5 10.5V9C5 8.46957 5.21071 7.96086 5.58579 7.58579C5.96086 7.21071 6.46957 7 7 7C7.53043 7 8.03914 7.21071 8.41421 7.58579C8.78929 7.96086 9 8.46957 9 9V10H8.466Z" fill="#4F87FE"/>
<path d="M8.466 10C8.28811 10.0002 8.11426 10.053 7.9664 10.1519C7.81854 10.2508 7.70331 10.3913 7.63526 10.5557C7.5672 10.72 7.54938 10.9009 7.58404 11.0754C7.6187 11.2498 7.70429 11.4101 7.83 11.536L11.147 14.853C11.2408 14.9467 11.3679 14.9994 11.5005 14.9994C11.6331 14.9994 11.7602 14.9467 11.854 14.853L15.171 11.536C15.2968 11.4101 15.3824 11.2497 15.417 11.0751C15.4516 10.9005 15.4337 10.7196 15.3656 10.5552C15.2974 10.3908 15.182 10.2503 15.034 10.1515C14.886 10.0527 14.712 9.99996 14.534 10H14V9C14 7.14348 13.2625 5.36301 11.9497 4.05025C10.637 2.7375 8.85652 2 7 2C5.14348 2 3.36301 2.7375 2.05025 4.05025C0.737498 5.36301 0 7.14348 0 9L0 10.5C0 10.6326 0.0526784 10.7598 0.146447 10.8536C0.240215 10.9473 0.367392 11 0.5 11H4.5C4.63261 11 4.75979 10.9473 4.85355 10.8536C4.94732 10.7598 5 10.6326 5 10.5V9C5 8.46957 5.21071 7.96086 5.58579 7.58579C5.96086 7.21071 6.46957 7 7 7C7.53043 7 8.03914 7.21071 8.41421 7.58579C8.78929 7.96086 9 8.46957 9 9V10H8.466ZM4 10H1V9C1 7.4087 1.63214 5.88258 2.75736 4.75736C3.88258 3.63214 5.4087 3 7 3C8.5913 3 10.1174 3.63214 11.2426 4.75736C12.3679 5.88258 13 7.4087 13 9V10.5C13 10.6326 13.0527 10.7598 13.1464 10.8536C13.2402 10.9473 13.3674 11 13.5 11H14.293L11.5 13.793L8.707 11H9.5C9.63261 11 9.75979 10.9473 9.85355 10.8536C9.94732 10.7598 10 10.6326 10 10.5V9C10 8.20435 9.68393 7.44129 9.12132 6.87868C8.55871 6.31607 7.79565 6 7 6C6.20435 6 5.44129 6.31607 4.87868 6.87868C4.31607 7.44129 4 8.20435 4 9V10Z" fill="#3B64FC"/>
</g>
<defs>
<clipPath id="clip0_2461_29512">
<rect width="16" height="16" fill="white"/>
</clipPath>
</defs>
</svg>
