<svg viewBox="0 0 16 16" fill="none" xmlns="http://www.w3.org/2000/svg">
<path opacity="0.2" d="M8 11.0001H1.5C1.36739 11.0001 1.24021 10.9474 1.14645 10.8536C1.05268 10.7598 1 10.6327 1 10.5001V5.50006C1 5.36745 1.05268 5.24028 1.14645 5.14651C1.24021 5.05274 1.36739 5.00006 1.5 5.00006H8V3.36206C8.00007 3.19049 8.04917 3.02252 8.14152 2.87793C8.23388 2.73334 8.36564 2.61816 8.52128 2.54597C8.67691 2.47377 8.84994 2.44756 9.01998 2.47044C9.19002 2.49331 9.34997 2.5643 9.481 2.67506L15.323 7.61806C15.3784 7.665 15.4229 7.72344 15.4535 7.78932C15.484 7.85521 15.4998 7.92695 15.4998 7.99956C15.4998 8.07217 15.484 8.14392 15.4535 8.2098C15.4229 8.27568 15.3784 8.33412 15.323 8.38106L9.481 13.3251C9.34997 13.4358 9.19002 13.5068 9.01998 13.5297C8.84994 13.5526 8.67691 13.5264 8.52128 13.4542C8.36564 13.382 8.23388 13.2668 8.14152 13.1222C8.04917 12.9776 8.00007 12.8096 8 12.6381V11.0001Z" fill="#4F87FE"/>
<path d="M8 11.0001H1.5C1.36739 11.0001 1.24021 10.9474 1.14645 10.8536C1.05268 10.7598 1 10.6327 1 10.5001V5.50006C1 5.36745 1.05268 5.24028 1.14645 5.14651C1.24021 5.05274 1.36739 5.00006 1.5 5.00006H8V3.36206C8.00007 3.19049 8.04917 3.02252 8.14152 2.87793C8.23388 2.73334 8.36564 2.61816 8.52128 2.54597C8.67691 2.47377 8.84994 2.44756 9.01998 2.47044C9.19002 2.49331 9.34997 2.5643 9.481 2.67506L15.323 7.61806C15.3784 7.665 15.4229 7.72344 15.4535 7.78932C15.484 7.85521 15.4998 7.92695 15.4998 7.99956C15.4998 8.07217 15.484 8.14392 15.4535 8.2098C15.4229 8.27568 15.3784 8.33412 15.323 8.38106L9.481 13.3251C9.34997 13.4358 9.19002 13.5068 9.01998 13.5297C8.84994 13.5526 8.67691 13.5264 8.52128 13.4542C8.36564 13.382 8.23388 13.2668 8.14152 13.1222C8.04917 12.9776 8.00007 12.8096 8 12.6381V11.0001ZM2 6.00006V10.0001H8.5C8.63261 10.0001 8.75979 10.0527 8.85355 10.1465C8.94732 10.2403 9 10.3675 9 10.5001V12.4221L14.226 8.00006L9 3.57806V5.50006C9 5.63267 8.94732 5.75985 8.85355 5.85361C8.75979 5.94738 8.63261 6.00006 8.5 6.00006H2Z" fill="#3B64FC"/>
</svg>
