<svg viewBox="0 0 16 16" fill="none" xmlns="http://www.w3.org/2000/svg">
<path opacity="0.2" d="M5.02975 8L5.02975 1.5C5.02975 1.36739 5.08243 1.24021 5.17619 1.14645C5.26996 1.05268 5.39714 1 5.52975 1L10.5297 1C10.6624 1 10.7895 1.05268 10.8833 1.14645C10.9771 1.24021 11.0297 1.36739 11.0297 1.5L11.0297 8L12.6677 8C12.8393 8.00007 13.0073 8.04917 13.1519 8.14152C13.2965 8.23388 13.4116 8.36564 13.4838 8.52128C13.556 8.67691 13.5822 8.84994 13.5594 9.01998C13.5365 9.19002 13.4655 9.34997 13.3547 9.481L8.41175 15.323C8.36481 15.3784 8.30637 15.4229 8.24049 15.4535C8.1746 15.484 8.10286 15.4998 8.03025 15.4998C7.95763 15.4998 7.88589 15.484 7.82001 15.4535C7.75413 15.4229 7.69568 15.3784 7.64875 15.323L2.70475 9.481C2.59399 9.34997 2.52299 9.19002 2.50012 9.01998C2.47725 8.84994 2.50346 8.67691 2.57565 8.52128C2.64785 8.36564 2.76303 8.23388 2.90762 8.14152C3.05221 8.04917 3.22018 8.00007 3.39175 8L5.02975 8Z" fill="#4F87FE"/>
<path d="M5.00006 8H3.36206C3.19049 8.00007 3.02252 8.04917 2.87793 8.14152C2.73334 8.23388 2.61816 8.36564 2.54597 8.52128C2.47377 8.67691 2.44756 8.84994 2.47044 9.01998C2.49331 9.19002 2.5643 9.34997 2.67506 9.481L7.61806 15.323C7.665 15.3784 7.72344 15.4229 7.78932 15.4535C7.85521 15.484 7.92695 15.4998 7.99956 15.4998C8.07217 15.4998 8.14392 15.484 8.2098 15.4535C8.27568 15.4229 8.33412 15.3784 8.38106 15.323L13.3241 9.481C13.4348 9.35004 13.5057 9.19017 13.5287 9.02023C13.5516 8.85028 13.5254 8.67733 13.4534 8.52173C13.3813 8.36613 13.2663 8.23436 13.1218 8.14193C12.9774 8.0495 12.8095 8.00026 12.6381 8H11.0001V1.5C11.0001 1.36739 10.9474 1.24021 10.8536 1.14645C10.7598 1.05268 10.6327 1 10.5001 1H5.50006C5.36745 1 5.24028 1.05268 5.14651 1.14645C5.05274 1.24021 5.00006 1.36739 5.00006 1.5V8ZM6.00006 2H10.0001V8.5C10.0001 8.63261 10.0527 8.75979 10.1465 8.85355C10.2403 8.94732 10.3675 9 10.5001 9H12.4221L8.00006 14.226L3.57806 9H5.50006C5.63267 9 5.75985 8.94732 5.85361 8.85355C5.94738 8.75979 6.00006 8.63261 6.00006 8.5V2Z" fill="#3B64FC"/>
</svg>
