<svg viewBox="0 0 16 16" fill="none" xmlns="http://www.w3.org/2000/svg">
<g clip-path="url(#clip0_2461_29508)">
<path opacity="0.2" d="M4.00005 6H5.00005V1.5C5.00005 1.36739 5.05273 1.24021 5.1465 1.14645C5.24027 1.05268 5.36745 1 5.50005 1H10.5001C10.6327 1 10.7598 1.05268 10.8536 1.14645C10.9474 1.24021 11.0001 1.36739 11.0001 1.5V6H12.0001V5.25C11.9999 5.1529 12.0281 5.05786 12.0811 4.9765C12.1341 4.89514 12.2097 4.83098 12.2986 4.79185C12.3874 4.75272 12.4858 4.74031 12.5816 4.75614C12.6774 4.77197 12.7665 4.81536 12.8381 4.881L15.8381 7.631C15.8891 7.67784 15.9299 7.73478 15.9578 7.79822C15.9857 7.86166 16.0001 7.9302 16.0001 7.9995C16.0001 8.0688 15.9857 8.13734 15.9578 8.20078C15.9299 8.26422 15.8891 8.32116 15.8381 8.368L12.8381 11.118C12.7666 11.1836 12.6775 11.227 12.5818 11.2428C12.4861 11.2587 12.3878 11.2464 12.299 11.2074C12.2102 11.1683 12.1346 11.1043 12.0815 11.0231C12.0285 10.9419 12.0001 10.847 12.0001 10.75V10H11.0001V14.5C11.0001 14.6326 10.9474 14.7598 10.8536 14.8536C10.7598 14.9473 10.6327 15 10.5001 15H5.50005C5.36745 15 5.24027 14.9473 5.1465 14.8536C5.05273 14.7598 5.00005 14.6326 5.00005 14.5V10H4.00005V10.75C4.00016 10.8471 3.97199 10.9421 3.91898 11.0235C3.86597 11.1049 3.79042 11.169 3.70155 11.2082C3.61268 11.2473 3.51434 11.2597 3.41854 11.2439C3.32273 11.228 3.23361 11.1846 3.16205 11.119L0.162054 8.369C0.11098 8.32216 0.0702002 8.26522 0.0423029 8.20178C0.0144057 8.13834 0 8.0698 0 8.0005C0 7.9312 0.0144057 7.86266 0.0423029 7.79922C0.0702002 7.73578 0.11098 7.67884 0.162054 7.632L3.16205 4.882C3.23355 4.81642 3.32258 4.77305 3.41829 4.75718C3.514 4.74132 3.61226 4.75364 3.70109 4.79265C3.78992 4.83166 3.86549 4.89567 3.91857 4.97688C3.97165 5.05808 3.99997 5.15298 4.00005 5.25V6Z" fill="#4F87FE"/>
<path d="M4.00005 6H5.00005V1.5C5.00005 1.36739 5.05273 1.24021 5.1465 1.14645C5.24027 1.05268 5.36745 1 5.50005 1H10.5001C10.6327 1 10.7598 1.05268 10.8536 1.14645C10.9474 1.24021 11.0001 1.36739 11.0001 1.5V6H12.0001V5.25C11.9999 5.1529 12.0281 5.05786 12.0811 4.9765C12.1341 4.89514 12.2097 4.83098 12.2986 4.79185C12.3874 4.75272 12.4858 4.74031 12.5816 4.75614C12.6774 4.77197 12.7665 4.81536 12.8381 4.881L15.8381 7.631C15.8891 7.67784 15.9299 7.73478 15.9578 7.79822C15.9857 7.86166 16.0001 7.9302 16.0001 7.9995C16.0001 8.0688 15.9857 8.13734 15.9578 8.20078C15.9299 8.26422 15.8891 8.32116 15.8381 8.368L12.8381 11.118C12.7666 11.1836 12.6775 11.227 12.5818 11.2428C12.4861 11.2587 12.3878 11.2464 12.299 11.2074C12.2102 11.1683 12.1346 11.1043 12.0815 11.0231C12.0285 10.9419 12.0001 10.847 12.0001 10.75V10H11.0001V14.5C11.0001 14.6326 10.9474 14.7598 10.8536 14.8536C10.7598 14.9473 10.6327 15 10.5001 15H5.50005C5.36745 15 5.24027 14.9473 5.1465 14.8536C5.05273 14.7598 5.00005 14.6326 5.00005 14.5V10H4.00005V10.75C4.00016 10.8471 3.97199 10.9421 3.91898 11.0235C3.86597 11.1049 3.79042 11.169 3.70155 11.2082C3.61268 11.2473 3.51434 11.2597 3.41854 11.2439C3.32273 11.228 3.23361 11.1846 3.16205 11.119L0.162054 8.369C0.11098 8.32216 0.0702002 8.26522 0.0423029 8.20178C0.0144057 8.13834 0 8.0698 0 8.0005C0 7.9312 0.0144057 7.86266 0.0423029 7.79922C0.0702002 7.73578 0.11098 7.67884 0.162054 7.632L3.16205 4.882C3.23355 4.81642 3.32258 4.77305 3.41829 4.75718C3.514 4.74132 3.61226 4.75364 3.70109 4.79265C3.78992 4.83166 3.86549 4.89567 3.91857 4.97688C3.97165 5.05808 3.99997 5.15298 4.00005 5.25V6ZM6.00005 2V6.5C6.00005 6.63261 5.94737 6.75979 5.85361 6.85355C5.75984 6.94732 5.63266 7 5.50005 7H3.50005C3.36745 7 3.24027 6.94732 3.1465 6.85355C3.05273 6.75979 3.00005 6.63261 3.00005 6.5V6.387L1.24005 8L3.00005 9.613V9.5C3.00005 9.36739 3.05273 9.24021 3.1465 9.14645C3.24027 9.05268 3.36745 9 3.50005 9H5.50005C5.63266 9 5.75984 9.05268 5.85361 9.14645C5.94737 9.24021 6.00005 9.36739 6.00005 9.5V14H10.0001V9.5C10.0001 9.36739 10.0527 9.24021 10.1465 9.14645C10.2403 9.05268 10.3674 9 10.5001 9H12.5001C12.6327 9 12.7598 9.05268 12.8536 9.14645C12.9474 9.24021 13.0001 9.36739 13.0001 9.5V9.613L14.7601 8L13.0001 6.387V6.5C13.0001 6.63261 12.9474 6.75979 12.8536 6.85355C12.7598 6.94732 12.6327 7 12.5001 7H10.5001C10.3674 7 10.2403 6.94732 10.1465 6.85355C10.0527 6.75979 10.0001 6.63261 10.0001 6.5V2H6.00005Z" fill="#3B64FC"/>
</g>
<defs>
<clipPath id="clip0_2461_29508">
<rect width="16" height="16" fill="white"/>
</clipPath>
</defs>
</svg>
