<svg viewBox="0 0 16 16" fill="none" xmlns="http://www.w3.org/2000/svg">
<path opacity="0.2" d="M5.02975 8L5.02975 14.5C5.02975 14.6326 5.08243 14.7598 5.17619 14.8536C5.26996 14.9473 5.39714 15 5.52975 15L10.5297 15C10.6624 15 10.7895 14.9473 10.8833 14.8536C10.9771 14.7598 11.0297 14.6326 11.0297 14.5L11.0297 8L12.6677 8C12.8393 7.99993 13.0073 7.95083 13.1519 7.85848C13.2965 7.76612 13.4116 7.63436 13.4838 7.47872C13.556 7.32309 13.5822 7.15006 13.5594 6.98002C13.5365 6.80998 13.4655 6.65003 13.3547 6.519L8.41175 0.677C8.36481 0.621596 8.30637 0.57708 8.24049 0.546548C8.1746 0.516015 8.10286 0.500199 8.03025 0.500199C7.95763 0.500199 7.88589 0.516015 7.82001 0.546548C7.75413 0.57708 7.69568 0.621596 7.64875 0.677L2.70475 6.519C2.59399 6.65003 2.52299 6.80998 2.50012 6.98002C2.47725 7.15006 2.50346 7.32309 2.57565 7.47872C2.64785 7.63436 2.76303 7.76612 2.90762 7.85848C3.05221 7.95083 3.22018 7.99993 3.39175 8L5.02975 8Z" fill="#4F87FE"/>
<path d="M5.00006 7.9998H3.36206C3.19049 7.99974 3.02252 7.95063 2.87793 7.85828C2.73334 7.76592 2.61816 7.63416 2.54597 7.47853C2.47377 7.32289 2.44756 7.14986 2.47044 6.97982C2.49331 6.80979 2.5643 6.64983 2.67506 6.5188L7.61806 0.676801C7.665 0.621397 7.72344 0.576881 7.78932 0.546348C7.85521 0.515816 7.92695 0.5 7.99956 0.5C8.07217 0.5 8.14392 0.515816 8.2098 0.546348C8.27568 0.576881 8.33412 0.621397 8.38106 0.676801L13.3241 6.5188C13.4348 6.64976 13.5057 6.80963 13.5287 6.97957C13.5516 7.14952 13.5254 7.32247 13.4534 7.47807C13.3813 7.63367 13.2663 7.76544 13.1218 7.85787C12.9774 7.9503 12.8095 7.99955 12.6381 7.9998H11.0001V14.4998C11.0001 14.6324 10.9474 14.7596 10.8536 14.8534C10.7598 14.9471 10.6327 14.9998 10.5001 14.9998H5.50006C5.36745 14.9998 5.24028 14.9471 5.14651 14.8534C5.05274 14.7596 5.00006 14.6324 5.00006 14.4998V7.9998ZM3.57806 6.9998H5.50006C5.63267 6.9998 5.75985 7.05248 5.85361 7.14625C5.94738 7.24002 6.00006 7.36719 6.00006 7.4998V13.9998H10.0001V7.4998C10.0001 7.36719 10.0527 7.24002 10.1465 7.14625C10.2403 7.05248 10.3675 6.9998 10.5001 6.9998H12.4221L8.00006 1.7738L3.57806 6.9998Z" fill="#3B64FC"/>
</svg>
