<svg width="84" height="100" xmlns="http://www.w3.org/2000/svg"><g transform="translate(0 -.276)" fill="none" fill-rule="evenodd"><rect fill="#FFF" fill-rule="nonzero" y=".276" width="84" height="100" rx="2"/><path d="m10.137 49.363 1.68-1.68 1.638 1.637-1.68 1.68zM51.208 5.291l1.68-1.68 1.638 1.638-1.68 1.68zM7.137 94.361l1.68-1.68 1.638 1.638-1.68 1.68zM52.137 49.36l1.68-1.68 1.638 1.638-1.68 1.68z"/><path d="M55.115 85.413a.43.43 0 0 0 .093-.365.775.775 0 0 0-.246-.467 1.688 1.688 0 0 0-.844-.344 5.654 5.654 0 0 0-1.506-.055l-.008.161c.69.189 1.335.512 1.9.95.26.227.464.267.611.12ZM64.826 33.467c-1.409 1.409-2.78 1.887-4.115 1.434a.608.608 0 0 1 .085-.246c.05-.09.058-.15.027-.179-.031-.03-.098-.022-.2.021l-.9.441c.493.662.784 1.454.836 2.278a5.785 5.785 0 0 1-.7 2.321l.178.076a6.966 6.966 0 0 0 1.1-2.3c.07-.74-.06-1.487-.378-2.16.473.249.997.386 1.532.4a6.479 6.479 0 0 0 2.592-.785c.034-.034.031-.082-.008-.144a.966.966 0 0 1 .051-1.052l-.1-.105ZM46.531 94.014a.526.526 0 0 1 .4.165 1.9 1.9 0 0 1 .331.492c.076.167.177.321.3.458.21.21.407.22.594.034a.409.409 0 0 0 .144-.424 1.766 1.766 0 0 0-.441-.585 2.2 2.2 0 0 1-.5-.687 3.482 3.482 0 0 1-.2-.84l-.289-2.529-.17.017-.042 2.843a.86.86 0 0 1-.221.594 3.066 3.066 0 0 1-.636.45l.136.187c.185-.096.387-.155.594-.175ZM60.993 1.208l.17.068c.276-.32.536-.654.778-1h-.333a7.363 7.363 0 0 1-.615.932ZM51.768 44.818a1.175 1.175 0 0 1 0-.581c.045-.102.055-.166.03-.191-.025-.025-.095-.021-.208.013l-.967.322c.48.811.9 1.657 1.256 2.529l-2 2c-.237.24-.49.463-.755.67l.67.042a2.4 2.4 0 0 1 .492-.679l3.929-3.929c.073-.073.099-.121.076-.144a.259.259 0 0 0-.136-.051l-1.162-.11.093.993-.916.916c-.22-.915-.354-1.515-.402-1.8Z" fill-opacity=".26" fill="#000" fill-rule="nonzero"/><path d="M50.682 47.754a.3.3 0 0 0 .255-.11.417.417 0 0 0 .055-.42 1.26 1.26 0 0 0-.348-.56 1.414 1.414 0 0 0-.844-.344 3.732 3.732 0 0 0-1.336.115l.017.153c.3.047.59.14.861.276.293.147.568.328.819.539.151.147.328.266.521.351ZM45.228 91.99c.22.187.392.22.513.1a.529.529 0 0 0 .148-.462.787.787 0 0 0-.229-.475c-.34-.34-.922-.215-1.748.373l.042.161a1.7 1.7 0 0 1 1.274.303ZM58.893 33.901c-.029-.029-.102-.023-.221.017l-.882.373a8 8 0 0 1 .721 1.764c.157.719.265 1.447.322 2.181l.2-.059a8.777 8.777 0 0 0 0-2.63L61.68 32.9l.475 1.222.187-.051a7.771 7.771 0 0 1-.025-1.273.993.993 0 0 1 .271-.522c.155-.167.215-.267.178-.3-.037-.033-.123-.046-.259-.038l-1.188.085.085.713-2.452 2.452a8.488 8.488 0 0 1-.127-.747.707.707 0 0 1 .047-.344c.043-.102.05-.167.021-.196ZM17.151 79.121l.187-.051a7.771 7.771 0 0 1-.025-1.273.993.993 0 0 1 .275-.521c.155-.167.215-.268.178-.305-.037-.037-.123-.05-.259-.038l-1.188.085.085.713-2.452 2.452a8.488 8.488 0 0 1-.127-.747.707.707 0 0 1 .047-.344c.043-.099.05-.162.021-.191-.029-.029-.102-.023-.221.017l-.882.373a8 8 0 0 1 .721 1.765c.157.719.265 1.447.322 2.181l.2-.059a8.782 8.782 0 0 0 0-2.63l2.647-2.647.471 1.22ZM57.653 38.958a.86.86 0 0 1-.221.594 3.064 3.064 0 0 1-.636.45l.136.187c.187-.097.39-.156.6-.175a.526.526 0 0 1 .4.165 1.9 1.9 0 0 1 .331.492c.076.167.178.321.3.458.21.21.407.22.594.034a.409.409 0 0 0 .144-.424 1.767 1.767 0 0 0-.441-.585 2.2 2.2 0 0 1-.5-.687 3.482 3.482 0 0 1-.2-.84l-.289-2.529-.17.017-.048 2.843ZM48.051.624c.071.055.156.09.246.1a.3.3 0 0 0 .2-.106.536.536 0 0 0 .082-.342h-1.36c.295.067.577.185.832.348ZM25.591 29.851a10.887 10.887 0 0 1-.11-2.588c.05-.096.065-.155.042-.178-.023-.023-.08-.028-.17-.017l-.933.136c.413.87.753 1.774 1.018 2.7l.153-.053ZM27.331 28.485c.27.021.538.068.8.14.268.087.52.216.747.382.275.19.471.225.59.106a.544.544 0 0 0 .127-.356.551.551 0 0 0-.178-.441c-.345-.345-1.061-.331-2.147.042l.061.127Z" fill-opacity=".26" fill="#000" fill-rule="nonzero"/><path d="m25.125 30.912-1.078 1.078a6.39 6.39 0 0 1-.755.653l.679.068c.093-.202.216-.388.367-.552l.872-.873a15.089 15.089 0 0 1 1.332 4.76l.187-.017c.03-.697 0-1.395-.093-2.087a9.265 9.265 0 0 0-.416-1.935l1.409 1.409c.4.4.782.804 1.146 1.213l.849.933c.113.113.198.142.255.085.081-.138.144-.287.187-.441a.528.528 0 0 0-.051-.577 42.112 42.112 0 0 1-1.646-1.578l-1.819-1.817c.289-.01.578.003.865.042.233.023.462.073.683.148a.4.4 0 0 0 .445-.132c.147-.147.065-.376-.246-.687-.311-.31-.953-.16-1.926.45l-.467-.467 1.468-1.468c.08-.08.103-.134.072-.165a.375.375 0 0 0-.191-.072l-1.035-.085.085.933-.628.628-2.475-2.476.17-.356c.057-.113.068-.187.034-.221s-.1-.028-.2.017l-1.264.484c.39.333.874.789 1.451 1.366l1.734 1.739ZM24.161 70.812a2.36 2.36 0 0 0-.734.064 4.81 4.81 0 0 0-1 .335l.025.127a2.649 2.649 0 0 1 1.748.509c.226.159.41.167.552.025a.425.425 0 0 0 .1-.386.788.788 0 0 0-.233-.445.774.774 0 0 0-.458-.229ZM27.161 25.812a2.36 2.36 0 0 0-.734.064 4.81 4.81 0 0 0-1 .335l.025.127a2.65 2.65 0 0 1 1.748.509c.226.159.41.167.552.025a.425.425 0 0 0 .1-.386.788.788 0 0 0-.233-.445.774.774 0 0 0-.458-.229ZM47.058 2.276c-.237.24-.493.461-.764.662l.687.042c.124-.247.29-.47.493-.659L49.519.276h-.458l-2.003 2ZM55.663 2.821c.255.255.588.601 1 1.039.412.438.686.74.823.908.082.114.183.212.3.289a.136.136 0 0 0 .161-.034c.085-.11.153-.234.2-.365a.843.843 0 0 0 .1-.39.369.369 0 0 0-.106-.182 18.07 18.07 0 0 0-.45-.416 32.49 32.49 0 0 1-.92-.888L54.26.276h-1.143l2.546 2.545ZM19.824 78.467c-1.409 1.409-2.78 1.887-4.115 1.434a.608.608 0 0 1 .085-.246c.05-.09.06-.151.03-.182-.03-.03-.097-.024-.2.021l-.9.441c.493.662.784 1.454.836 2.278a5.784 5.784 0 0 1-.7 2.321l.178.076a6.967 6.967 0 0 0 1.1-2.3c.07-.74-.06-1.487-.378-2.16.473.249.997.386 1.532.4a4.652 4.652 0 0 0 1.6-.339c.35-.108.685-.258 1-.445.034-.034.031-.082-.008-.144a.966.966 0 0 1 .051-1.052l-.111-.103ZM24.331 73.485c.27.021.538.068.8.14.268.087.52.216.747.382.275.19.471.225.59.106a.544.544 0 0 0 .127-.356.551.551 0 0 0-.178-.441c-.345-.345-1.061-.331-2.147.042l.061.127ZM57.532.691c-.07.176-.18.332-.322.458a8.432 8.432 0 0 1-.9.73l.093.144a4.4 4.4 0 0 1 1.044-.39c.246-.01.489.052.7.178.119.062.202.069.25.021.087-.163.142-.342.161-.526a1.9 1.9 0 0 0-.008-.84 1.923 1.923 0 0 0-.091-.19h-1.095c.142.156.206.3.168.415ZM38.708 11.189c.323.289.631.58.925.874l3.784 3.784c.458.458.885.919 1.281 1.383.133.159.231.208.293.148.089-.108.159-.23.208-.361.06-.113.098-.235.115-.361a.286.286 0 0 0-.1-.182L40 11.257l2.1-2.1c.7.77 1.236 1.675 1.574 2.66.265.993.307 2.031.123 3.042l.2.042c.256-.85.366-1.738.328-2.625a5.392 5.392 0 0 0-.653-2.13 9.8 9.8 0 0 1 1.65.021c.428.027.852.101 1.264.221.177.068.36.12.547.157a.254.254 0 0 0 .221-.059.4.4 0 0 0 .068-.416 1.051 1.051 0 0 0-.271-.467c-.419-.419-1.615-.314-3.589.314a9.177 9.177 0 0 0-.9-1.324l2.24-2.24 4.378 4.378a.655.655 0 0 1 .229.373c.006.102-.085.246-.272.433s-.575.512-1.162.976l.119.17a3.91 3.91 0 0 1 1.2-.56.816.816 0 0 1 .687.17c.085.073.161.076.229.008.11-.167.186-.355.221-.552a1.231 1.231 0 0 0 0-.751c-.17-.326-.4-.618-.675-.861L45.6 5.876l.085-.441a.191.191 0 0 0-.03-.165.222.222 0 0 0-.182-.03l-1.044.144.093.874-2.079 2.079c-.267-.333-.5-.616-.7-.849a2.072 2.072 0 0 1-.378-.539.585.585 0 0 1-.025-.365c.031-.116.031-.19 0-.221s-.112-.016-.242.047l-1.213.466c.888.867 1.55 1.545 1.986 2.036l-1.926 1.926-1.237.351ZM56.523 81.085c-.023-.023-.08-.028-.17-.017l-.933.136c.413.87.753 1.774 1.018 2.7l.153-.051a10.88 10.88 0 0 1-.11-2.588c.05-.097.065-.157.042-.18ZM69.752 26.876a.425.425 0 0 0 .1-.386.788.788 0 0 0-.233-.445.774.774 0 0 0-.458-.229 2.36 2.36 0 0 0-.734.064c-.345.075-.68.187-1 .335l.025.127a2.649 2.649 0 0 1 1.748.509c.226.157.41.165.552.025ZM66.115 31.413a.43.43 0 0 0 .093-.365.775.775 0 0 0-.246-.467 1.688 1.688 0 0 0-.844-.344 5.659 5.659 0 0 0-1.506-.055l-.008.161c.69.189 1.335.512 1.9.95.26.227.464.267.611.12ZM67.523 27.085c-.023-.023-.08-.028-.17-.017l-.933.136c.413.87.753 1.774 1.018 2.7l.153-.053a10.887 10.887 0 0 1-.11-2.588c.05-.096.065-.155.042-.178ZM65.766 38.907c.089-.135.16-.28.212-.433.102-.249.116-.41.042-.484l-.365-.3a4.925 4.925 0 0 1-.441-.39l-.849-.849.11-.484c.028-.085.028-.141 0-.17-.028-.029-.082-.031-.161-.008l-1.112.229.1.611-2.97 2.97-1.069.339c.311.277.574.523.789.738l1.129 1.129c.17.17.326.331.467.484l.339.373c.096.096.168.12.216.072.08-.108.14-.228.178-.356.054-.116.088-.241.1-.369a.33.33 0 0 0-.11-.187l-1.9-1.9 3.1-3.1 2.029 2.042c.07.068.126.082.166.043Z" fill-opacity=".26" fill="#000" fill-rule="nonzero"/><path d="M63.071 38.351c-.037-.037-.109-.03-.216.021l-.933.373a4.6 4.6 0 0 1 1.5 3.029 7.383 7.383 0 0 1-1.5 3.5l.17.068a12.421 12.421 0 0 0 1.421-2.015 4.073 4.073 0 0 0 .552-1.969 4.462 4.462 0 0 0-.81-2.287c-.164-.267-.226-.445-.187-.535.04-.09.04-.152.003-.185ZM70.13 28.625c.268.087.52.216.747.382.276.19.473.225.592.106a.544.544 0 0 0 .127-.356.551.551 0 0 0-.178-.441c-.345-.345-1.061-.331-2.147.042l.059.127c.27.021.538.068.8.14ZM80.98 52.695c.071.055.156.09.246.1a.3.3 0 0 0 .2-.106.542.542 0 0 0 .081-.42.783.783 0 0 0-.221-.509c-.328-.328-.882-.228-1.663.3l.017.187c.479.026.942.18 1.34.448Z" fill-opacity=".26" fill="#000" fill-rule="nonzero"/><path d="m80.4 54.392 3.4-3.4c.08-.08.108-.13.085-.153a.327.327 0 0 0-.17-.051l-1.137-.1.085.984-2.681 2.681c-.237.24-.493.461-.764.662l.687.042c.124-.25.291-.475.495-.665ZM69.489 23.722l.085-.322c.028-.133.028-.214 0-.242-.028-.028-.095-.021-.2.021l-1.23.467c.51.467.987.922 1.434 1.366l3.41 3.414-1.909 2.724c-.153.22-.348.484-.586.789l.679-.068c.067-.271.185-.528.348-.755l1.714-2.44.687.687c.362.362.733.75 1.112 1.162l.84.942c.147.147.25.191.31.132a1.4 1.4 0 0 0 .2-.509c.077-.28.067-.468-.03-.564a40.609 40.609 0 0 1-1.646-1.582l-.976-.976.95-1.375c.09-.125.119-.204.085-.238-.034-.034-.127-.043-.28-.026l-.967.1.238.865-.28.416-3.988-3.988Z" fill-opacity=".26" fill="#000" fill-rule="nonzero"/><path d="M80.48 54.587c.3.047.59.14.861.276a4.2 4.2 0 0 1 .819.539c.151.148.328.267.522.352a.3.3 0 0 0 .255-.11.417.417 0 0 0 .055-.42 1.26 1.26 0 0 0-.348-.56 1.414 1.414 0 0 0-.844-.344 3.732 3.732 0 0 0-1.336.115l.016.152ZM57.245 45.951l.093.144a4.4 4.4 0 0 1 1.044-.39c.246-.01.489.052.7.178.119.062.202.069.25.021.087-.163.142-.342.161-.526.06-.277.057-.564-.008-.84a1.954 1.954 0 0 0-.556-.844c-.792-.792-1.952-.979-3.479-.56l-.942-2.6a1.186 1.186 0 0 1 0-.984c.067-.113.086-.184.059-.212-.027-.028-.104-.036-.229-.025l-1.1.034.034.882-.95.95-1.256.255c.515.467.998.928 1.451 1.383l4.083 4.081c.255.255.588.601 1 1.039.412.438.686.74.823.908.082.114.183.212.3.289a.136.136 0 0 0 .161-.034c.085-.11.153-.234.2-.365a.845.845 0 0 0 .1-.39.369.369 0 0 0-.106-.182 18.07 18.07 0 0 0-.45-.416 33.109 33.109 0 0 1-.921-.888L52.4 41.553l1.2-1.2 1.663 3.241a3.433 3.433 0 0 1 1.718.03c.485.112.933.347 1.3.683.175.175.242.328.2.458-.07.176-.18.332-.322.458a8.429 8.429 0 0 1-.914.728ZM58.161 79.812a2.36 2.36 0 0 0-.734.064c-.345.075-.68.187-1 .335l.025.127a2.649 2.649 0 0 1 1.748.509c.226.159.41.167.552.025a.425.425 0 0 0 .1-.386.788.788 0 0 0-.233-.445.775.775 0 0 0-.458-.229ZM49.226 44.797a.3.3 0 0 0 .2-.106.543.543 0 0 0 .081-.42.783.783 0 0 0-.221-.509c-.328-.328-.882-.228-1.663.3l.017.187c.479.023.942.176 1.341.441.07.058.155.095.245.107ZM49.753 3.683a.3.3 0 0 0 .255-.11.417.417 0 0 0 .055-.42 1.261 1.261 0 0 0-.348-.56 1.414 1.414 0 0 0-.844-.344 3.731 3.731 0 0 0-1.336.115l.017.153c.3.047.59.14.861.276.293.147.568.328.819.539.151.147.328.266.521.351ZM54.913 37.523l.042.161a1.7 1.7 0 0 1 1.273.3c.22.187.392.22.513.1a.529.529 0 0 0 .148-.462.787.787 0 0 0-.229-.475c-.339-.337-.921-.212-1.747.376ZM49.91 5.197c.345.311.705.654 1.078 1.027l1.043 1.044c.267.267.623.667 1.069 1.2.153.2.283.245.39.136.082-.098.146-.209.191-.328a.678.678 0 0 0 .085-.348.491.491 0 0 0-.148-.233l-.543-.543 1.68-1.68.619.619c.08.08.142.096.187.051.084-.141.142-.296.17-.458.067-.26.055-.435-.034-.526l-.441-.39c-.175-.153-.354-.32-.535-.5L53.66 3.212l.042-.382a.114.114 0 0 0-.034-.1.164.164 0 0 0-.136-.034l-1.061.08.093.7-1.492 1.5-1.162.221Zm2.978-1.586 1.638 1.638-1.68 1.68-1.638-1.638 1.68-1.68Z" fill-opacity=".26" fill="#000" fill-rule="nonzero"/><path d="M47.911 47.054c.123-.248.29-.473.492-.662l3.4-3.4c.08-.08.108-.13.085-.153a.329.329 0 0 0-.17-.051l-1.137-.1.085.984-2.681 2.681c-.237.24-.493.461-.764.662l.69.039ZM49.693.313c.48.811.9 1.657 1.256 2.529l-2 2c-.237.24-.49.463-.755.67l.67.042a2.4 2.4 0 0 1 .486-.678l3.928-3.93c.073-.073.099-.121.076-.144a.259.259 0 0 0-.136-.051l-1.162-.11.093.993-.916.916a49.213 49.213 0 0 1-.4-1.8 1.168 1.168 0 0 1-.008-.474H49.8l-.107.037ZM56.184 48.844c-.175-.153-.354-.32-.535-.5l-1.061-1.061.042-.382a.114.114 0 0 0-.034-.1.164.164 0 0 0-.136-.034l-1.061.076.093.7L52 49.039l-1.162.229c.345.311.705.654 1.078 1.027l1.044 1.044c.267.267.623.667 1.069 1.2.153.2.283.245.39.136.081-.098.146-.208.191-.327a.678.678 0 0 0 .085-.348.492.492 0 0 0-.148-.233L54 51.229l1.68-1.68.619.619c.08.08.142.096.187.051.084-.141.142-.296.17-.458.067-.26.055-.435-.034-.526l-.438-.391Zm-2.41 2.155-1.638-1.638 1.68-1.68 1.638 1.638-1.68 1.68ZM58.331 82.485c.27.021.538.068.8.14.268.087.52.216.747.382.275.19.471.225.59.106a.545.545 0 0 0 .127-.356.551.551 0 0 0-.178-.441c-.345-.345-1.061-.331-2.147.042l.061.127ZM39.637 55.26c.323.289.631.58.925.874l3.784 3.784c.458.458.885.919 1.281 1.383.133.159.231.208.293.148.089-.108.159-.23.208-.361.06-.113.098-.235.115-.361a.286.286 0 0 0-.1-.182l-5.218-5.218 2.1-2.1a7.64 7.64 0 0 1 1.574 2.66c.265.993.307 2.031.123 3.042l.2.042c.26-.851.374-1.74.339-2.63a5.39 5.39 0 0 0-.653-2.13 9.793 9.793 0 0 1 1.65.021c.428.027.852.101 1.264.221.177.068.36.12.547.157a.254.254 0 0 0 .221-.059.4.4 0 0 0 .068-.416 1.05 1.05 0 0 0-.272-.467c-.419-.419-1.615-.314-3.589.314a9.177 9.177 0 0 0-.9-1.324l2.24-2.24 4.378 4.378a.655.655 0 0 1 .229.373c.005.102-.085.246-.272.433s-.577.514-1.172.982l.119.17a3.913 3.913 0 0 1 1.2-.56.816.816 0 0 1 .687.17c.085.073.161.076.229.008.111-.167.186-.355.221-.552a1.23 1.23 0 0 0 0-.751c-.17-.326-.4-.618-.675-.861l-4.26-4.26.085-.441a.192.192 0 0 0-.03-.165.222.222 0 0 0-.182-.03l-1.044.144.093.874-2.073 2.079c-.267-.333-.5-.616-.7-.849a2.072 2.072 0 0 1-.378-.539.584.584 0 0 1-.025-.365c.031-.116.031-.19 0-.221s-.112-.016-.242.047l-1.213.467c.888.867 1.55 1.545 1.986 2.036l-1.926 1.926-1.235.349ZM53.824 87.467c-1.409 1.409-2.78 1.887-4.115 1.434a.61.61 0 0 1 .085-.246c.05-.09.06-.151.03-.182-.03-.03-.097-.024-.2.021l-.9.441c.493.662.784 1.454.836 2.278a5.784 5.784 0 0 1-.7 2.321l.178.076a6.967 6.967 0 0 0 1.1-2.3c.07-.74-.06-1.487-.378-2.16.473.249.997.386 1.532.4a6.48 6.48 0 0 0 2.592-.785c.034-.034.031-.082-.008-.144a.966.966 0 0 1 .051-1.052l-.103-.102Z" fill-opacity=".26" fill="#000" fill-rule="nonzero"/><path d="m51.151 88.121.187-.051a7.771 7.771 0 0 1-.025-1.273.993.993 0 0 1 .275-.521c.155-.167.215-.268.178-.305-.037-.037-.123-.05-.259-.038l-1.188.085.085.713-2.452 2.452a8.488 8.488 0 0 1-.127-.747.707.707 0 0 1 .047-.344c.043-.099.05-.162.021-.191-.029-.029-.102-.023-.221.017l-.882.373a8 8 0 0 1 .721 1.765c.157.719.265 1.447.322 2.181l.2-.059a8.782 8.782 0 0 0 0-2.63l2.647-2.647.471 1.22ZM8.682 47.754a.3.3 0 0 0 .255-.11.417.417 0 0 0 .055-.42 1.26 1.26 0 0 0-.348-.56 1.414 1.414 0 0 0-.844-.344 3.732 3.732 0 0 0-1.336.115l.017.153c.3.047.59.14.861.276.293.147.568.328.819.539.151.147.328.266.521.351ZM47.925 97.694c-.792-.792-1.952-.979-3.479-.56l-.942-2.6a1.186 1.186 0 0 1 0-.984c.067-.113.086-.184.059-.212-.027-.028-.104-.036-.229-.025l-1.1.034.034.882-.95.95-1.256.255c.515.467.998.928 1.451 1.383l3.462 3.459h1.138l-4.73-4.729 1.2-1.2 1.663 3.241a3.433 3.433 0 0 1 1.718.03c.485.112.933.347 1.3.683.175.175.242.328.2.458-.07.176-.18.332-.322.458a8.432 8.432 0 0 1-.9.73l.093.144a4.4 4.4 0 0 1 1.044-.39c.246-.01.489.052.7.178.119.062.202.069.25.021.088-.163.142-.342.161-.526a1.9 1.9 0 0 0-.008-.84 1.954 1.954 0 0 0-.557-.84ZM30.941 75.14c-.26-.237-.67-.637-1.23-1.2l-.976-.976.95-1.375c.09-.125.119-.204.085-.238-.034-.034-.127-.043-.28-.026l-.967.1.238.865-.28.416-3.988-3.988.085-.322c.028-.133.028-.214 0-.242-.028-.028-.095-.021-.2.021l-1.23.467c.51.467.987.922 1.434 1.366l3.411 3.411-1.909 2.724c-.153.22-.348.484-.586.789l.679-.068c.067-.271.185-.528.348-.755l1.709-2.433.687.687c.362.362.733.75 1.112 1.162l.84.942c.147.147.25.191.31.132a1.4 1.4 0 0 0 .2-.509c.077-.28.067-.468-.03-.564a9.43 9.43 0 0 0-.412-.386ZM40.891 96.837a.329.329 0 0 0-.17-.051l-1.137-.1.085.984-2.608 2.606h.458l3.287-3.287c.08-.075.108-.126.085-.152ZM33.941 30.14c-.26-.237-.67-.637-1.23-1.2l-.976-.976.95-1.375c.09-.125.119-.204.085-.238-.034-.034-.127-.043-.28-.026l-.967.1.238.865-.28.416-3.988-3.988.085-.322c.028-.133.028-.214 0-.242-.028-.028-.095-.021-.2.021l-1.23.467c.51.467.987.922 1.434 1.366l3.411 3.411-1.909 2.724c-.153.22-.348.484-.586.789l.679-.068c.067-.271.185-.528.348-.755l1.709-2.433.687.687c.362.362.733.75 1.112 1.162l.84.942c.147.147.25.191.31.132a1.4 1.4 0 0 0 .2-.509c.077-.28.067-.468-.03-.564a9.43 9.43 0 0 0-.412-.386ZM40.763 98.237c.045-.102.055-.166.03-.191-.025-.025-.095-.021-.208.013l-.967.322c.365.612.692 1.247.977 1.9h.488a31.779 31.779 0 0 1-.315-1.458 1.173 1.173 0 0 1-.005-.586ZM41.985 98.712l.093.993-.571.571h.441l1.259-1.259c.073-.073.099-.121.076-.144a.26.26 0 0 0-.136-.051l-1.162-.11Z" fill-opacity=".26" fill="#000" fill-rule="nonzero"/><path d="M38.226 98.797a.3.3 0 0 0 .2-.106.542.542 0 0 0 .081-.42.783.783 0 0 0-.221-.509c-.328-.328-.882-.228-1.663.3l.017.187c.479.023.942.176 1.341.441.07.058.155.095.245.107ZM11.184 93.844c-.175-.153-.354-.32-.535-.5l-1.061-1.061.042-.382a.114.114 0 0 0-.034-.1.164.164 0 0 0-.136-.034l-1.06.075.093.7L7 94.039l-1.162.229c.345.311.705.654 1.078 1.027l1.044 1.044c.267.267.623.667 1.069 1.2.153.2.283.245.39.136.081-.098.146-.208.191-.327A.678.678 0 0 0 9.695 97a.492.492 0 0 0-.148-.233L9 96.229l1.68-1.68.619.619c.08.08.142.096.187.051a1.35 1.35 0 0 0 .17-.458c.067-.26.055-.435-.034-.526l-.438-.391Zm-2.41 2.155-1.637-1.637 1.68-1.68 1.638 1.638-1.681 1.679ZM13.925 88.694c-.792-.792-1.952-.979-3.479-.56l-.942-2.6a1.186 1.186 0 0 1 0-.984c.067-.113.086-.184.059-.212-.027-.028-.104-.036-.229-.025l-1.1.034.034.882-.95.95-1.256.255c.515.467.998.928 1.451 1.383l4.081 4.081c.255.255.588.601 1 1.039.412.438.686.74.823.908.082.114.183.212.3.289a.136.136 0 0 0 .161-.034c.085-.11.153-.234.2-.365a.844.844 0 0 0 .1-.39.369.369 0 0 0-.106-.182 18.07 18.07 0 0 0-.45-.416 32.49 32.49 0 0 1-.92-.888l-5.319-5.312 1.2-1.2 1.663 3.241a3.432 3.432 0 0 1 1.718.03c.485.112.933.347 1.3.683.175.175.242.328.2.458-.07.176-.18.332-.322.458a8.432 8.432 0 0 1-.9.73l.093.144a4.4 4.4 0 0 1 1.044-.39c.246-.01.489.052.7.178.119.062.202.069.25.021.087-.163.142-.342.161-.526.06-.277.057-.564-.008-.84a1.955 1.955 0 0 0-.557-.84ZM17.206 87.738c.08-.107.14-.228.178-.356.054-.116.088-.241.1-.369a.33.33 0 0 0-.11-.187l-1.9-1.9 3.1-3.1 2.026 2.038c.067.067.12.08.161.042a1.9 1.9 0 0 0 .212-.433c.102-.249.116-.41.042-.484l-.365-.3a4.925 4.925 0 0 1-.441-.39l-.849-.849.11-.484c.028-.085.028-.141 0-.17-.028-.029-.082-.031-.161-.008l-1.112.229.1.611-2.97 2.97-1.069.339c.311.277.574.523.789.738l1.129 1.129c.17.17.326.331.467.484l.339.373c.101.1.176.125.224.077Z" fill-opacity=".26" fill="#000" fill-rule="nonzero"/><path d="M23 83.525c-.187-.187-.578-.157-1.175.089a11.5 11.5 0 0 0-2.38 1.515l.068.221a7.531 7.531 0 0 1 3.123-.95.7.7 0 0 0 .586-.178.285.285 0 0 0 .042-.288.937.937 0 0 0-.264-.409ZM18.067 83.542c.04-.09.04-.154 0-.191-.04-.037-.111-.03-.216.021l-.933.373a4.6 4.6 0 0 1 1.5 3.029 7.383 7.383 0 0 1-1.5 3.5l.17.068a12.419 12.419 0 0 0 1.421-2.015 4.073 4.073 0 0 0 .552-1.969 4.461 4.461 0 0 0-.81-2.287c-.162-.263-.223-.44-.184-.529ZM26.592 79.242c-.2-.183-.492-.464-.875-.843l-2.167-2.165c.289-.01.578.003.865.042.233.023.462.073.683.148a.4.4 0 0 0 .445-.132c.147-.147.065-.376-.246-.687-.311-.31-.953-.16-1.926.45l-.467-.467 1.468-1.468c.08-.08.103-.134.072-.165a.375.375 0 0 0-.191-.072l-1.035-.085.085.933-.628.628-2.475-2.476.17-.356c.057-.113.068-.187.034-.221s-.1-.028-.2.017l-1.264.484c.39.333.874.789 1.451 1.366l1.74 1.74-1.078 1.078a6.4 6.4 0 0 1-.755.653l.679.068c.116-.253.28-.48.484-.67l.755-.755a15.089 15.089 0 0 1 1.332 4.76l.187-.017c.03-.697 0-1.395-.093-2.087a9.269 9.269 0 0 0-.416-1.935l1.409 1.409c.4.4.782.804 1.146 1.213l.849.933c.113.113.198.142.255.085.081-.138.144-.287.187-.441a.528.528 0 0 0-.051-.577 24.252 24.252 0 0 1-.429-.388ZM71.876 35.647c.081-.138.144-.287.187-.441a.528.528 0 0 0-.051-.577 42.112 42.112 0 0 1-1.646-1.578l-1.816-1.817c.289-.01.578.003.865.042.233.023.462.073.683.148a.4.4 0 0 0 .445-.132c.147-.147.065-.376-.246-.687-.311-.31-.953-.16-1.926.45l-.467-.467 1.468-1.468c.08-.08.103-.134.072-.165a.375.375 0 0 0-.191-.072l-1.035-.085.085.933-.628.628-2.475-2.476.17-.356c.057-.113.068-.187.034-.221s-.1-.028-.2.017l-1.264.484c.39.333.874.789 1.451 1.366l1.74 1.74-1.078 1.078a6.4 6.4 0 0 1-.755.653l.679.068c.116-.253.28-.48.484-.67l.755-.755a15.088 15.088 0 0 1 1.332 4.76l.187-.017c.03-.697 0-1.395-.093-2.087a9.269 9.269 0 0 0-.416-1.935l1.409 1.409c.4.4.782.804 1.146 1.213l.849.933c.108.113.19.14.246.084ZM82.786 62.208l-4.26-4.26.085-.441a.192.192 0 0 0-.03-.165.222.222 0 0 0-.182-.03l-1.044.144.093.874-2.078 2.079c-.267-.333-.5-.616-.7-.849a2.072 2.072 0 0 1-.378-.539.584.584 0 0 1-.025-.365c.031-.116.031-.19 0-.221s-.112-.016-.242.047l-1.213.467c.888.867 1.55 1.545 1.986 2.036l-1.926 1.926-1.23.348c.323.289.631.58.925.874l3.784 3.784c.458.458.885.919 1.281 1.383.133.159.231.208.293.148.089-.108.159-.23.208-.361.06-.113.098-.235.115-.361a.286.286 0 0 0-.1-.182l-5.218-5.218 2.1-2.1a7.64 7.64 0 0 1 1.57 2.66c.265.993.307 2.031.123 3.042l.2.042a7.93 7.93 0 0 0 .339-2.63 5.392 5.392 0 0 0-.653-2.13 9.806 9.806 0 0 1 1.65.021c.428.027.852.101 1.264.221.177.068.36.12.547.157a.254.254 0 0 0 .221-.059.4.4 0 0 0 .068-.416 1.05 1.05 0 0 0-.272-.467c-.419-.419-1.615-.314-3.589.314a9.181 9.181 0 0 0-.9-1.324l2.24-2.24 4.378 4.378a.655.655 0 0 1 .229.373c.005.102-.085.246-.272.433s-.578.514-1.173.983l.119.17a3.915 3.915 0 0 1 1.2-.56.816.816 0 0 1 .687.17c.085.073.161.076.229.008.111-.167.186-.355.221-.552a1.23 1.23 0 0 0 0-.751 3.008 3.008 0 0 0-.67-.861ZM83.916 58.295l.084.081V57.04l-1.161.229c.345.31.704.653 1.077 1.026ZM8.279 48.946l3.929-3.929c.073-.073.099-.121.076-.144a.259.259 0 0 0-.136-.051l-1.162-.11.093.993-.916.916a49.213 49.213 0 0 1-.4-1.8 1.173 1.173 0 0 1 0-.581c.045-.102.055-.166.03-.191-.025-.025-.095-.021-.208.013l-.967.322c.48.811.9 1.657 1.256 2.529l-2 2c-.237.24-.49.463-.755.67l.67.042a2.4 2.4 0 0 1 .49-.679ZM83.059 49.428c.334.3.633.6.941.9v-1.091l-.941.191ZM60.592 88.242c-.2-.183-.492-.464-.875-.843l-2.167-2.165c.289-.01.578.003.865.042.233.023.462.073.683.148a.4.4 0 0 0 .445-.132c.147-.147.065-.376-.246-.687-.311-.31-.953-.16-1.926.45l-.467-.467 1.468-1.468c.08-.08.103-.134.072-.165a.375.375 0 0 0-.191-.072l-1.035-.085.085.933-.628.628-2.475-2.476.17-.356c.057-.113.068-.187.034-.221s-.1-.028-.2.017l-1.264.484c.39.333.874.789 1.451 1.366l1.74 1.74-1.078 1.078a6.4 6.4 0 0 1-.755.653l.679.068c.116-.253.28-.48.484-.67l.755-.755a15.087 15.087 0 0 1 1.332 4.76l.187-.017c.03-.697 0-1.395-.093-2.087a9.269 9.269 0 0 0-.416-1.935l1.409 1.409c.4.4.782.804 1.146 1.213l.849.933c.113.113.198.142.255.085.081-.138.144-.287.187-.441a.528.528 0 0 0-.051-.577 24.252 24.252 0 0 1-.429-.388ZM68 38.525c-.187-.187-.578-.157-1.175.089a11.5 11.5 0 0 0-2.38 1.515l.068.221a7.531 7.531 0 0 1 3.123-.95.7.7 0 0 0 .586-.178.285.285 0 0 0 .042-.288.938.938 0 0 0-.264-.409ZM52.067 92.542c.04-.09.04-.154 0-.191-.04-.037-.111-.03-.216.021l-.933.373a4.6 4.6 0 0 1 1.5 3.029 7.383 7.383 0 0 1-1.5 3.5l.17.068a12.419 12.419 0 0 0 1.421-2.015 4.073 4.073 0 0 0 .552-1.969 4.461 4.461 0 0 0-.81-2.287c-.162-.263-.223-.44-.184-.529ZM57 92.525c-.187-.187-.578-.157-1.175.089a11.5 11.5 0 0 0-2.38 1.515l.068.221a7.531 7.531 0 0 1 3.123-.95.7.7 0 0 0 .586-.178.285.285 0 0 0 .042-.288.937.937 0 0 0-.264-.409Z" fill-opacity=".26" fill="#000" fill-rule="nonzero"/><path d="M51.206 96.738c.08-.107.14-.228.178-.356.054-.116.088-.241.1-.369a.33.33 0 0 0-.11-.187l-1.9-1.9 3.1-3.1 2.026 2.038c.067.067.12.08.161.042.089-.135.16-.28.212-.433.102-.249.116-.41.042-.484l-.365-.3a4.925 4.925 0 0 1-.441-.39l-.849-.849.11-.484c.028-.085.028-.141 0-.17-.028-.029-.082-.031-.161-.008l-1.112.229.1.611-2.97 2.97-1.069.339c.311.277.574.523.789.738l1.129 1.129c.17.17.326.331.467.484l.339.373c.101.1.176.125.224.077ZM64.941 84.14c-.26-.237-.67-.637-1.23-1.2l-.976-.976.95-1.375c.09-.125.119-.204.085-.238-.034-.034-.127-.043-.28-.026l-.967.1.238.865-.28.416-3.988-3.988.085-.322c.028-.133.028-.214 0-.242-.028-.028-.095-.021-.2.021l-1.23.467c.51.467.987.922 1.434 1.366l3.411 3.411-1.909 2.724c-.153.22-.348.484-.586.789l.679-.068c.067-.271.185-.528.348-.755l1.709-2.433.687.687c.362.362.733.75 1.112 1.162l.84.942c.147.147.25.191.31.132a1.4 1.4 0 0 0 .2-.509c.077-.28.067-.468-.03-.564a9.43 9.43 0 0 0-.412-.386ZM83.763 52.237c.045-.102.055-.166.03-.191-.025-.025-.095-.021-.208.013l-.967.322c.48.811.9 1.657 1.256 2.529l-2 2c-.237.24-.49.463-.755.67l.67.042a2.4 2.4 0 0 1 .492-.679L84 55.225v-1.306c-.119-.525-.2-.9-.232-1.1-.05-.19-.052-.39-.005-.582ZM18.823 34.476c-.031-.031-.098-.024-.2.021l-.9.441c.493.662.784 1.454.836 2.278a5.785 5.785 0 0 1-.7 2.321l.178.076a6.966 6.966 0 0 0 1.1-2.3c.07-.74-.06-1.487-.378-2.16.473.249.997.386 1.532.4a4.652 4.652 0 0 0 1.6-.339c.35-.108.685-.258 1-.445.034-.034.031-.082-.008-.144a.966.966 0 0 1 .051-1.052l-.1-.1c-1.409 1.409-2.78 1.887-4.115 1.434a.608.608 0 0 1 .085-.246c.044-.094.05-.156.019-.185ZM22.591 74.851a10.88 10.88 0 0 1-.11-2.588c.05-.096.065-.155.042-.178-.023-.023-.08-.028-.17-.017l-.933.136c.413.87.753 1.774 1.018 2.7l.153-.053ZM21.513 43.332a4.073 4.073 0 0 0 .552-1.969 4.462 4.462 0 0 0-.81-2.287c-.164-.267-.226-.445-.187-.535.04-.09.04-.154 0-.191-.037-.037-.109-.03-.216.021l-.933.373a4.6 4.6 0 0 1 1.5 3.029 7.383 7.383 0 0 1-1.5 3.5l.17.068c.54-.62 1.017-1.294 1.424-2.009ZM26.218 39.22a.285.285 0 0 0 .042-.288.937.937 0 0 0-.26-.407c-.187-.187-.578-.157-1.175.089a11.5 11.5 0 0 0-2.38 1.515l.068.221a7.531 7.531 0 0 1 3.123-.95.7.7 0 0 0 .582-.18ZM24.115 31.413a.43.43 0 0 0 .093-.365.775.775 0 0 0-.246-.467 1.688 1.688 0 0 0-.844-.344 5.66 5.66 0 0 0-1.506-.055l-.008.161c.69.189 1.335.512 1.9.95.26.227.464.267.611.12ZM14.932 40.188c.187-.096.39-.155.6-.174a.526.526 0 0 1 .4.165 1.9 1.9 0 0 1 .331.492c.076.167.178.321.3.458.21.21.407.22.594.034a.409.409 0 0 0 .144-.424 1.767 1.767 0 0 0-.441-.585 2.2 2.2 0 0 1-.5-.687 3.482 3.482 0 0 1-.2-.84l-.289-2.529-.17.017-.042 2.843a.86.86 0 0 1-.221.594 3.063 3.063 0 0 1-.636.45l.13.186Z" fill-opacity=".26" fill="#000" fill-rule="nonzero"/><path d="m16.833 38.236.2-.059a8.778 8.778 0 0 0 0-2.63L19.68 32.9l.475 1.222.187-.051a7.771 7.771 0 0 1-.025-1.273.993.993 0 0 1 .271-.522c.155-.167.215-.267.178-.3-.037-.033-.123-.046-.259-.038l-1.188.085.085.713-2.452 2.452a8.488 8.488 0 0 1-.127-.747.707.707 0 0 1 .047-.344c.043-.099.05-.162.021-.191-.029-.029-.102-.023-.221.017l-.882.373a8 8 0 0 1 .721 1.765c.157.717.265 1.443.322 2.175ZM10.96 51.339c.267.267.623.667 1.069 1.2.153.2.283.245.39.136.081-.098.146-.208.191-.327a.678.678 0 0 0 .085-.348.492.492 0 0 0-.148-.233L12 51.229l1.68-1.68.619.619c.08.08.142.096.187.051a1.35 1.35 0 0 0 .17-.458c.067-.26.055-.435-.034-.526l-.441-.39c-.175-.153-.354-.32-.535-.5l-1.061-1.061.042-.382a.114.114 0 0 0-.034-.1.164.164 0 0 0-.136-.034l-1.061.076.093.7L10 49.039l-1.162.229c.345.311.705.654 1.078 1.027l1.044 1.044Zm.857-3.657 1.638 1.638-1.68 1.68-1.638-1.638 1.68-1.68ZM11.228 82.99c.22.187.392.22.513.1a.529.529 0 0 0 .148-.462.787.787 0 0 0-.229-.475c-.34-.34-.922-.215-1.748.373l.042.161a1.7 1.7 0 0 1 1.274.303ZM3.079 98.676c-.381-.381-1.412-.324-3.079.161v.37c.417-.015.835-.004 1.251.033.428.027.852.101 1.264.221.177.068.36.12.547.157a.254.254 0 0 0 .221-.059.4.4 0 0 0 .068-.416 1.05 1.05 0 0 0-.272-.467ZM19.65 42.292l.339.373c.096.096.168.12.216.072.08-.108.14-.228.178-.356.054-.116.088-.241.1-.369a.33.33 0 0 0-.11-.187l-1.9-1.9 3.1-3.1 2.027 2.039c.067.067.12.08.161.042a1.9 1.9 0 0 0 .212-.433c.102-.249.116-.41.042-.484l-.365-.3a4.926 4.926 0 0 1-.441-.39l-.849-.849.11-.484c.028-.085.028-.141 0-.17-.028-.029-.082-.031-.161-.008l-1.112.229.1.611-2.97 2.97-1.069.339c.311.277.574.523.789.738l1.129 1.129c.175.173.333.335.474.488ZM21.115 76.413a.43.43 0 0 0 .093-.365.775.775 0 0 0-.246-.467 1.688 1.688 0 0 0-.844-.344 5.659 5.659 0 0 0-1.506-.055l-.009.161c.69.189 1.335.512 1.9.95.26.227.465.267.612.12ZM12.531 85.014a.526.526 0 0 1 .4.165 1.9 1.9 0 0 1 .331.492c.076.167.177.321.3.458.21.21.407.22.594.034a.409.409 0 0 0 .144-.424 1.766 1.766 0 0 0-.441-.585 2.2 2.2 0 0 1-.5-.687 3.482 3.482 0 0 1-.2-.84l-.289-2.529-.17.017-.042 2.843a.86.86 0 0 1-.221.594 3.067 3.067 0 0 1-.636.45l.136.187c.185-.096.387-.155.594-.175ZM4.226 89.797a.3.3 0 0 0 .2-.106.542.542 0 0 0 .081-.42.783.783 0 0 0-.221-.509c-.328-.328-.882-.228-1.663.3l.017.187c.479.023.942.176 1.341.441.07.058.155.095.245.107ZM14.228 37.99c.22.187.392.22.513.1a.529.529 0 0 0 .148-.462.787.787 0 0 0-.229-.475c-.34-.34-.922-.215-1.748.373l.042.161a1.7 1.7 0 0 1 1.274.303ZM3.627 61.302c.133.159.231.208.293.148.089-.108.159-.23.208-.361.06-.113.098-.235.115-.361a.286.286 0 0 0-.1-.182L0 56.402v1.174l2.346 2.346c.458.456.885.916 1.281 1.38ZM5.786 99.208l-4.26-4.26.085-.441a.192.192 0 0 0-.03-.165.222.222 0 0 0-.182-.03l-1.044.144.093.874-.448.446v.475l.831-.831 4.378 4.378a.655.655 0 0 1 .229.373.332.332 0 0 1-.038.105h1.088a1.215 1.215 0 0 0-.032-.207 3.007 3.007 0 0 0-.67-.861ZM5.682 92.754a.3.3 0 0 0 .255-.11.417.417 0 0 0 .055-.42 1.26 1.26 0 0 0-.348-.56 1.414 1.414 0 0 0-.844-.344 3.732 3.732 0 0 0-1.336.115l.017.153c.3.047.59.14.861.276.293.147.568.328.819.539.151.147.328.266.521.351Z" fill-opacity=".26" fill="#000" fill-rule="nonzero"/><path d="m5.584 87.684.085.984-2.682 2.682c-.237.24-.493.461-.764.662l.687.042c.123-.248.29-.473.492-.662l3.4-3.4c.08-.08.108-.13.085-.153a.328.328 0 0 0-.17-.051l-1.133-.104ZM14.592 46.893c.255.255.588.601 1 1.039.412.438.686.74.823.908.082.114.183.212.3.289a.136.136 0 0 0 .161-.034c.085-.11.153-.234.2-.365a.846.846 0 0 0 .1-.39.369.369 0 0 0-.106-.182 18.07 18.07 0 0 0-.45-.416 32.49 32.49 0 0 1-.92-.888l-5.308-5.306 1.2-1.2 1.663 3.241a3.433 3.433 0 0 1 1.718.03c.485.112.933.347 1.3.683.175.175.242.328.2.458-.07.176-.18.332-.322.458a8.432 8.432 0 0 1-.9.73l.093.144a4.4 4.4 0 0 1 1.044-.39c.246-.01.489.052.7.178.119.062.202.069.25.021a1.42 1.42 0 0 0 .162-.525c.06-.277.057-.564-.008-.84a1.955 1.955 0 0 0-.556-.844c-.792-.792-1.952-.979-3.479-.56l-.942-2.6a1.186 1.186 0 0 1 0-.984c.067-.113.086-.184.059-.212-.027-.028-.104-.036-.229-.025l-1.1.034.034.882-.95.95-1.256.255c.515.467.998.928 1.451 1.383l4.068 4.078ZM6.98 44.695c.071.055.156.09.246.1a.3.3 0 0 0 .2-.106.543.543 0 0 0 .081-.42.783.783 0 0 0-.221-.509c-.328-.328-.882-.228-1.663.3l.017.187c.479.026.942.18 1.34.448ZM2.6 55.893a6.97 6.97 0 0 1 .123 3.042l.2.042c.26-.851.374-1.74.339-2.63a5.392 5.392 0 0 0-.653-2.13 9.794 9.794 0 0 1 1.65.021c.428.027.852.101 1.264.221.177.068.36.12.547.157a.254.254 0 0 0 .221-.059.4.4 0 0 0 .068-.416 1.05 1.05 0 0 0-.272-.467c-.419-.419-1.615-.314-3.589.314a9.185 9.185 0 0 0-.9-1.324l2.24-2.24 4.378 4.378a.655.655 0 0 1 .229.373c.005.102-.085.246-.272.433-.374.345-.766.67-1.173.976l.119.17a3.913 3.913 0 0 1 1.2-.56.816.816 0 0 1 .687.17c.085.073.161.076.229.008.111-.167.186-.355.221-.552a1.23 1.23 0 0 0 0-.751c-.17-.326-.4-.618-.675-.861l-4.26-4.26.085-.441a.192.192 0 0 0-.03-.165.222.222 0 0 0-.182-.03l-1.044.144.093.874-2.073 2.079c-.267-.333-.5-.616-.7-.849a2.075 2.075 0 0 1-.378-.539.584.584 0 0 1-.025-.365c.031-.116.031-.19 0-.221s-.112-.016-.242.047L0 50.491v1.648c.316.325.582.609.793.847l-.793.79v.475l1.022-1.022A7.64 7.64 0 0 1 2.6 55.893ZM6.768 89.818a1.173 1.173 0 0 1 0-.581c.045-.102.055-.166.03-.191-.025-.025-.095-.021-.208.013l-.967.322c.48.811.9 1.657 1.256 2.529l-2 2c-.237.24-.49.463-.755.67l.67.042a2.4 2.4 0 0 1 .492-.679l3.929-3.929c.073-.073.099-.121.076-.144a.259.259 0 0 0-.136-.051l-1.162-.11.093.993-.916.916c-.22-.915-.354-1.515-.402-1.8Z" fill-opacity=".26" fill="#000" fill-rule="nonzero"/><path d="m6.4 46.392 3.4-3.4c.08-.08.108-.13.085-.153a.327.327 0 0 0-.17-.051l-1.137-.1.085.984-2.676 2.678c-.237.24-.493.461-.764.662l.687.042c.122-.248.288-.472.49-.662Z" fill-opacity=".26" fill="#000" fill-rule="nonzero"/></g></svg>