<svg width="84" height="101" xmlns="http://www.w3.org/2000/svg"><g fill-rule="nonzero" fill="none"><rect fill="#FFF" width="84" height="100" rx="2"/><path d="M1.209 54.794a.444.444 0 0 0 .1-.42.892.892 0 0 0-.255-.475 1.273 1.273 0 0 0-.921-.284c-.042 0-.088.013-.131.014v.761c.249.08.488.188.712.323.23.153.396.18.495.081Z" fill-opacity=".26" fill="#000"/><path d="m2.588 54.162-1.256 1.256-1.069.356c.322.29.63.58.925.874l.628.628A11.122 11.122 0 0 1 3.6 59.419c.332.645.516 1.356.541 2.081l.144.008a5.355 5.355 0 0 0-.115-2.355 7.346 7.346 0 0 0-2.007-2.838l-.628-.628 6.033-6.033c.1-.1.137-.168.106-.2a.473.473 0 0 0-.25-.064l-1.145-.09.093 1.078-1.663 1.662L2.2 49.528l2.359-2.359c.079-.079.105-.133.076-.161a.289.289 0 0 0-.161-.059l-1.171-.1.085 1L0 51.234v.492l.076-.076 2.512 2.512Zm-.968-4.056 2.512 2.512-.967.967-2.512-2.512.967-.967ZM8.622 49.145l.17.051a6.992 6.992 0 0 0-.238-4.056l.747.747c.373.373.645.65.815.832l.416.45c.1.1.173.133.212.093.079-.123.137-.258.174-.4.076-.23.083-.375.021-.437a16.953 16.953 0 0 1-1.103-1.035l-.45-.45c.399-.054.804-.02 1.188.1.243.074.4.074.471 0a.281.281 0 0 0 .042-.305.957.957 0 0 0-.242-.378.57.57 0 0 0-.526-.119 5.04 5.04 0 0 0-1.163.467l-.356-.354 1.129-1.129c.073-.074.1-.123.072-.148a.385.385 0 0 0-.182-.064l-.967-.1.059.874-.339.339-.782-.78.059-.348c.011-.091.008-.144-.008-.161-.016-.017-.059-.008-.127.025l-1.044.45c.317.283.585.535.806.755l.577.577L6.8 45.9c-.215.218-.45.417-.7.594l.636.11c.102-.237.252-.451.441-.628l.7-.7a9.124 9.124 0 0 1 .74 3.878l.005-.009Z" fill-opacity=".26" fill="#000"/><path d="M3.776 48.46c.44.989.765 2.025.967 3.089l.187-.049v-2.531c0-.147.027-.292.081-.428.043-.082.048-.139.017-.17s-.1-.041-.2-.03l-1.052.119ZM29.121 24.429c-.025-.025-.092-.024-.2 0l-1.1.373c.333.3.61.56.832.781l2.447 2.448a29.814 29.814 0 0 1 1.153 1.205c.119.119.205.151.259.1.083-.12.14-.256.165-.4.056-.215.051-.356-.017-.424l-1.01-.976-2.6-2.6.076-.3c.022-.112.02-.181-.005-.207Z" fill-opacity=".26" fill="#000"/><path d="m35.082 28.269-5.914-5.914.093-.348c.028-.1.028-.158 0-.187-.028-.029-.11-.014-.246.042L27.9 22.3c.396.35.854.786 1.375 1.307l5.278 5.278a.588.588 0 0 1 .221.4.88.88 0 0 1-.305.467c-.2.2-.5.467-.9.8l.093.127c.296-.2.615-.366.95-.492a.828.828 0 0 1 .713.068c.119.062.2.068.255.017.086-.167.134-.351.14-.539.049-.246.026-.5-.064-.734a2.965 2.965 0 0 0-.574-.73ZM10.659 50.571c.1-.239.25-.453.441-.628l2.647-2.643 1.366 1.366c.119.119.164.223.136.314a.971.971 0 0 1-.25.344 7.05 7.05 0 0 1-.827.641l.136.187c.3-.198.626-.355.967-.467a.691.691 0 0 1 .56.11c.113.068.188.083.225.047.08-.144.14-.3.174-.462a.8.8 0 0 0-.246-1.027L14.342 46.7l3.165-3.165c.079-.079.106-.132.081-.157a.4.4 0 0 0-.208-.055l-1.2-.136.1 1.12-5.558 5.558a6.343 6.343 0 0 1-.687.6l.624.106Z" fill-opacity=".26" fill="#000"/><path d="M12.61 53.083c.249-.645.44-1.207.573-1.684.156-.616.26-1.245.31-1.879.006-.235.07-.466.187-.67.085-.1.113-.167.085-.195a.276.276 0 0 0-.17-.051l-.874.025c.183 1.47.065 2.963-.348 4.387l.237.067ZM10.226 48.2l.636.093c.107-.234.26-.445.45-.619l3.818-3.814c.107-.107.139-.184.093-.229a.315.315 0 0 0-.212-.076l-1.027-.025.076.925-3.16 3.157a6.2 6.2 0 0 1-.674.588ZM20.554 32.954l.068.679-3.352 3.352-.908.28c.317.283.588.538.815.764l.925.925a35.213 35.213 0 0 1 1.213 1.264c.124.124.214.16.267.106.082-.109.143-.233.178-.365a1.1 1.1 0 0 0 .085-.39.357.357 0 0 0-.115-.208l-.195-.195.492-.492a9.354 9.354 0 0 1-.051 5.142l.178.076c.516-1.252.784-2.592.789-3.946a5.625 5.625 0 0 0 2.457.154 14.165 14.165 0 0 1-2.512 4.8l.178.093a11.936 11.936 0 0 0 3.046-5.015c.365-.09.719-.225 1.052-.4.396-.2.912-.493 1.549-.878.637-.385.983-.607 1.039-.666.04-.04.034-.1-.017-.17a.951.951 0 0 1 .068-1.171l-.119-.119c-.181.2-.371.4-.569.6a9.062 9.062 0 0 1-2.877 2.028 9.874 9.874 0 0 0 0-1.918 1.742 1.742 0 0 1 .017-.518.94.94 0 0 1 .153-.305c.074-.1.088-.175.042-.221a.321.321 0 0 0-.255-.051l-1.069.085.076.552-2.333 2.333a10.109 10.109 0 0 0-.221-1.12l2.291-2.291.2.2c.079.079.143.1.191.047.087-.14.147-.296.178-.458.07-.257.06-.43-.03-.522l-.441-.373c-.17-.147-.348-.313-.535-.5l-.815-.815.101-.327c.023-.1.02-.167-.008-.195-.028-.028-.093-.031-.195-.008l-1.031.157Zm.382 6.644 2.464-2.461c.144.766.178 1.55.1 2.325a5.02 5.02 0 0 1-2.571.178l.007-.042Zm1.765-4.09-3.411 3.411-.747-.747 3.411-3.411.747.747Zm-.985-.984-3.411 3.411-.755-.755 3.411-3.411.755.755ZM18.758 46.137a1.622 1.622 0 0 0-.344-.454.967.967 0 0 0-.581-.293 2.159 2.159 0 0 0-.908.17c-.551.213-1.088.461-1.608.742l.042.212a6.081 6.081 0 0 1 2.724-.093c.159.039.32.064.484.076a.268.268 0 0 0 .2-.081c.053-.052.05-.146-.009-.279ZM24.161 27.87c-.028-.028-.1-.02-.229.025l-.866.289a8.962 8.962 0 0 1 1.544 3.106l.153-.085a12.907 12.907 0 0 0-.288-1.714l1.125-1.129 1.154 1.154-1.536 1.536a7.433 7.433 0 0 1-.738.653l.653.042c.112-.25.274-.476.475-.662l1.358-1.358 1.018 1.018-1.01 1.01-.823.28c.2.175.537.5 1.01.976l.586.586c.468.456.91.937 1.324 1.442.17.2.283.277.339.221.08-.098.14-.21.178-.331.05-.115.084-.237.1-.361a.355.355 0 0 0-.132-.25l-2.35-2.35 1-1 1.14 1.132c.447.447.83.84 1.146 1.18l.7.772c.133.133.235.167.305.1.098-.127.169-.273.208-.429a.454.454 0 0 0-.055-.488 26.218 26.218 0 0 0-.4-.369 44.697 44.697 0 0 1-.828-.8l-1.663-1.662 1-1 1.807 1.807c.081.06.118.165.093.263a.831.831 0 0 1-.212.3 5.013 5.013 0 0 1-.467.4l.085.119c.549-.243.942-.274 1.179-.093.096.062.161.076.195.042.058-.194.081-.398.068-.6a1.188 1.188 0 0 0-.348-.916l-1.79-1.79.076-.212c.028-.107.027-.177 0-.208a.164.164 0 0 0-.148-.03l-.967.085.11.721-.9.9-1.018-1.018 1.952-1.952c.1-.1.13-.158.1-.187a.231.231 0 0 0-.161-.042l-1.069-.051.1.882-1.137 1.137-1.143-1.161 1.612-1.612c.079-.079.106-.132.081-.157a.244.244 0 0 0-.148-.047l-1-.085.042.891-.8.8-1.078-1.078.085-.39c.034-.1.035-.168 0-.2s-.092-.024-.182.021l-1.154.492c.107.074.696.645 1.765 1.714l-1 1a5.559 5.559 0 0 0-.14-.437 3.669 3.669 0 0 1-.132-.429.4.4 0 0 1 .03-.25c.04-.08.045-.133.016-.163Z" fill-opacity=".26" fill="#000"/><path d="M16.218 40.073c.176-1.186.199-2.39.068-3.581l5.286-5.286c.085-.085.11-.144.076-.178a.3.3 0 0 0-.2-.051l-1.392-.051.178 1.1-4 4a9.255 9.255 0 0 1-.064-.649.6.6 0 0 1 .106-.327c.074-.119.093-.195.059-.229s-.1-.04-.187-.017l-1.095.246c.574 1.63.887 3.339.925 5.066l.24-.043ZM10.879 41.78l-.492.492c-.21.216-.44.412-.687.586l.628.1c.107-.23.257-.437.441-.611.248.624.44 1.269.577 1.926a9 9 0 0 1 .11 1.884l.153.017a5.913 5.913 0 0 0-.238-3.9l.7.7c.4.4.681.693.844.878.163.185.284.319.365.4.082.082.143.1.182.064.08-.123.14-.258.178-.4.08-.226.093-.365.042-.416l-.263-.238a24.94 24.94 0 0 1-.815-.789l-.976-.976.085-.085a5.8 5.8 0 0 0 1.18.526c.408.112.829.173 1.252.182.489.02.808.027.955.021a.618.618 0 0 0 .246-.034c.028-.028.025-.082-.008-.161-.096-.209.011-.548.322-1.018l-.1-.1a6.328 6.328 0 0 1-1.858.552 5.006 5.006 0 0 1-1.8-.153l1.616-1.627c.068-.068.089-.115.064-.14a.312.312 0 0 0-.182-.047l-1.1-.136.076 1.01-.976.976-.772-.772.076-.331c.023-.091.021-.148 0-.174-.021-.026-.078-.021-.157.013l-1.018.492c.317.272.584.515.8.73l.55.559ZM40.642 12.084l1.434-1.434 2.512 2.512-1.256 1.256-1.069.356c.322.29.63.58.925.874l.628.628a11.122 11.122 0 0 1 1.784 2.143c.331.646.515 1.357.539 2.083l.144.008a5.355 5.355 0 0 0-.115-2.355 7.346 7.346 0 0 0-2.007-2.838l-.628-.628 6.033-6.033c.1-.1.137-.168.106-.2a.473.473 0 0 0-.25-.064L48.279 8.3l.093 1.078-1.663 1.663L44.2 8.529l2.356-2.359c.079-.079.1-.133.076-.161a.281.281 0 0 0-.161-.06l-1.171-.1.085 1-5.168 5.168a6.24 6.24 0 0 1-.755.653l.7.085c.116-.252.279-.48.48-.671Zm2.978-2.978 2.512 2.512-.967.967-2.512-2.512.967-.967ZM48.1 5.49l.636.11c.102-.237.252-.451.441-.628l.7-.7a9.15 9.15 0 0 1 .738 3.878l.17.051a6.992 6.992 0 0 0-.238-4.056l.747.747c.373.373.645.65.815.832l.416.45c.1.1.173.133.212.093.079-.123.137-.258.174-.4.076-.23.083-.375.021-.437a17.436 17.436 0 0 1-1.102-1.036l-.45-.45c.399-.054.804-.02 1.188.1.243.074.4.074.471 0a.281.281 0 0 0 .042-.3.957.957 0 0 0-.242-.378.57.57 0 0 0-.526-.119 5.04 5.04 0 0 0-1.163.467l-.35-.363 1.129-1.129c.073-.074.1-.123.072-.148a.385.385 0 0 0-.182-.064l-.967-.1.059.874-.339.339-.782-.78.059-.348c.011-.091.008-.144-.008-.161-.016-.017-.059-.008-.127.025l-1.044.45c.317.283.586.534.806.755l.577.577L48.8 4.9a5.08 5.08 0 0 1-.7.59Z" fill-opacity=".26" fill="#000"/><path d="m46.743 10.548.187-.051V7.969c0-.147.027-.292.081-.428.043-.082.048-.139.017-.17s-.1-.041-.2-.03l-1.053.119c.44.989.765 2.025.968 3.088ZM52.031 9.469l.628.1c.1-.239.25-.453.441-.628L55.747 6.3l1.366 1.366c.119.119.164.223.136.314a.971.971 0 0 1-.249.34c-.26.234-.536.448-.827.641l.136.187c.3-.198.626-.355.967-.467a.691.691 0 0 1 .56.11c.113.068.188.083.225.047.08-.144.14-.3.174-.462.072-.188.094-.391.064-.59a1.17 1.17 0 0 0-.31-.437L56.342 5.7l3.165-3.165c.079-.079.106-.132.081-.157a.4.4 0 0 0-.208-.055l-1.205-.133.1 1.12-5.556 5.558a6.657 6.657 0 0 1-.688.601ZM62.893 3.9l.178.093A13.288 13.288 0 0 0 65.764 0h-.653a15.861 15.861 0 0 1-2.218 3.9Z" fill-opacity=".26" fill="#000"/><path d="m57.317 5.3.042.212a6.081 6.081 0 0 1 2.724-.093c.159.039.32.064.484.076a.268.268 0 0 0 .2-.081c.054-.054.051-.147-.008-.28a1.622 1.622 0 0 0-.344-.454.967.967 0 0 0-.581-.293 2.159 2.159 0 0 0-.908.17c-.552.213-1.09.461-1.609.743ZM62.155 2.892c.361-.93.608-1.902.735-2.892h-.537a10.35 10.35 0 0 1-.377 2.815l.179.077ZM52.879.78l-.492.492a5.01 5.01 0 0 1-.687.586l.628.1c.107-.23.257-.437.441-.611.248.624.44 1.269.577 1.926a9 9 0 0 1 .11 1.884l.153.017a5.913 5.913 0 0 0-.238-3.9l.7.7c.4.4.681.693.844.878.163.185.284.319.365.4.082.082.143.1.182.064.08-.124.14-.258.178-.4.08-.226.093-.365.042-.416l-.263-.238a24.94 24.94 0 0 1-.815-.789l-.976-.976.085-.085c.372.219.768.395 1.179.526.408.112.829.173 1.252.182.489.02.808.027.955.021a.618.618 0 0 0 .246-.034c.028-.028.025-.082-.008-.161-.09-.2.007-.513.278-.941h-.53a5.9 5.9 0 0 1-1.384.373 5.006 5.006 0 0 1-1.8-.153L54.117 0h-.458l-.263.263L53.134 0h-1.046c.079.075.162.151.231.22l.56.56ZM43.209 13.794a.444.444 0 0 0 .1-.42.892.892 0 0 0-.255-.475 1.273 1.273 0 0 0-.921-.284c-.498.004-.99.118-1.438.335l.008.161c.71.028 1.402.234 2.011.6.23.154.396.182.495.083Z" fill-opacity=".26" fill="#000"/><path d="m52.226 7.2.636.093c.107-.234.26-.445.45-.619L57.13 2.86c.107-.107.139-.184.093-.229a.315.315 0 0 0-.212-.076l-1.027-.025.076.925-3.155 3.155c-.212.213-.439.41-.679.59ZM54.61 12.083c.25-.645.44-1.207.573-1.684.156-.616.26-1.245.31-1.879.006-.235.07-.466.187-.67.085-.1.113-.167.085-.195A.276.276 0 0 0 55.6 7.6l-.875.024c.183 1.47.065 2.963-.348 4.387l.233.072ZM40.574 100.039c.243.074.4.074.471 0 .012-.012.012-.029.021-.043h-.676c.059.019.13.023.184.043ZM47.587 98.38a.4.4 0 0 0-.208-.055l-1.205-.136.1 1.12-.691.691h.458l1.463-1.463c.081-.08.108-.137.083-.157ZM41.371 97.272l.7.7c.4.4.681.693.844.878.163.185.284.319.365.4.082.082.143.1.182.064.08-.124.14-.258.178-.4.08-.226.093-.365.042-.416l-.263-.238c-.163-.148-.436-.41-.815-.789l-.976-.976.085-.085a5.8 5.8 0 0 0 1.18.526c.408.112.829.173 1.252.182.489.02.808.027.955.021a.618.618 0 0 0 .246-.034c.028-.028.025-.082-.008-.161-.096-.209.011-.548.322-1.018l-.1-.1a6.328 6.328 0 0 1-1.858.552 5.006 5.006 0 0 1-1.8-.153l1.616-1.625c.068-.068.089-.115.064-.14a.312.312 0 0 0-.182-.047l-1.1-.136.076 1.01-.976.976-.772-.772.076-.331c.023-.091.021-.148 0-.174-.021-.026-.078-.021-.157.013l-1.018.492c.317.272.584.515.8.73l.56.56-.492.492c-.21.216-.44.412-.687.586l.628.1c.107-.23.257-.437.441-.611.248.624.44 1.269.577 1.926.04.24.069.482.084.725h.36a5.853 5.853 0 0 0-.429-2.727Z" fill-opacity=".26" fill="#000"/><path d="M45.224 98.63a.315.315 0 0 0-.212-.076l-1.027-.025.076.925-.547.546h.475l1.141-1.141c.108-.107.139-.184.094-.229ZM65.082 83.269l-5.914-5.914.093-.348c.028-.1.028-.158 0-.187-.028-.029-.11-.014-.246.042l-1.112.433c.396.35.854.786 1.375 1.307l5.278 5.278a.588.588 0 0 1 .221.4.881.881 0 0 1-.305.467c-.2.2-.5.467-.9.8l.093.127c.296-.2.615-.366.95-.492a.828.828 0 0 1 .713.068c.119.062.2.068.255.017.086-.167.134-.351.14-.539.049-.246.026-.5-.064-.734a2.966 2.966 0 0 0-.578-.722l.001-.003ZM41.087 99.737a.939.939 0 0 0-.242-.378.57.57 0 0 0-.526-.119 5.04 5.04 0 0 0-1.163.467l-.356-.356 1.129-1.129c.073-.074.1-.123.072-.148a.385.385 0 0 0-.182-.064l-.967-.1.059.874-.339.339-.781-.781.059-.348c.011-.091.008-.144-.008-.161-.016-.017-.059-.008-.127.025l-1.044.45c.317.283.586.534.806.755l.577.577-.36.36h1.756l-.063-.063a2.946 2.946 0 0 1 1 .063h.676a.3.3 0 0 0 .024-.263ZM57.69 91.577c-.181.2-.37.4-.568.6a9.062 9.062 0 0 1-2.877 2.028 9.874 9.874 0 0 0 0-1.918 1.742 1.742 0 0 1 .017-.518.94.94 0 0 1 .153-.305c.074-.1.088-.175.042-.221a.321.321 0 0 0-.255-.051l-1.069.085.076.552-2.333 2.333a10.109 10.109 0 0 0-.221-1.12l2.291-2.291.2.2c.079.079.143.1.191.047.087-.14.147-.296.178-.458.071-.257.061-.431-.03-.522l-.441-.373c-.17-.147-.348-.314-.535-.5l-.815-.815.097-.33c.023-.1.02-.167-.008-.195-.028-.028-.093-.031-.195-.008l-1.035.153.068.679-3.352 3.352-.908.28c.317.283.589.537.815.764l.925.925a31.278 31.278 0 0 1 1.213 1.264c.124.125.214.16.267.106.082-.109.143-.233.178-.365.052-.124.08-.256.085-.39a.357.357 0 0 0-.115-.208l-.195-.195.492-.492a9.354 9.354 0 0 1-.051 5.142l.178.076c.516-1.252.784-2.592.789-3.946a5.609 5.609 0 0 0 2.458.158 14.165 14.165 0 0 1-2.512 4.8l.178.093a11.936 11.936 0 0 0 3.046-5.015c.365-.09.719-.225 1.052-.4.396-.2.912-.493 1.549-.878.637-.385.983-.607 1.039-.666.04-.04.034-.1-.017-.17a.951.951 0 0 1 .068-1.171l-.113-.116Zm-10.14.6 3.411-3.411.755.755-3.411 3.411-.755-.755Zm1.739 1.739-.747-.747 3.411-3.411.747.747-3.411 3.411Zm4.209.543a5.02 5.02 0 0 1-2.571.178l.008-.042 2.465-2.458c.144.766.178 1.55.1 2.325l-.002-.003Z" fill-opacity=".26" fill="#000"/><path d="M51.572 86.206c.085-.085.11-.144.076-.178a.3.3 0 0 0-.2-.051l-1.392-.051.178 1.1-4 4a9.255 9.255 0 0 1-.064-.649.6.6 0 0 1 .106-.327c.074-.119.093-.195.059-.229s-.1-.04-.187-.017l-1.1.246c.574 1.63.887 3.339.925 5.066l.238-.034c.176-1.186.199-2.39.068-3.581l5.293-5.295ZM61.645 82.531l-2.6-2.6.076-.3c.023-.113.021-.182 0-.208-.021-.026-.092-.024-.2 0l-1.1.373c.333.3.61.56.832.781l2.444 2.444a29.814 29.814 0 0 1 1.153 1.205c.119.119.205.151.259.1.083-.12.14-.256.165-.4.056-.215.051-.356-.017-.424l-1.012-.971ZM60.381 83.931l.076-.212c.028-.107.027-.177 0-.208a.164.164 0 0 0-.148-.03l-.967.085.11.721-.9.9-1.018-1.018 1.952-1.952c.1-.1.13-.158.1-.187a.231.231 0 0 0-.161-.042l-1.069-.051.1.882-1.136 1.136-1.154-1.155 1.612-1.612c.079-.079.106-.132.081-.157a.244.244 0 0 0-.148-.047l-1-.085.042.891-.8.8-1.078-1.078.085-.39c.034-.1.035-.168 0-.2s-.092-.024-.182.021l-1.154.492c.107.074.695.645 1.765 1.714l-1 1a5.559 5.559 0 0 0-.14-.437 3.669 3.669 0 0 1-.132-.429.4.4 0 0 1 .03-.25c.037-.082.041-.137.013-.165-.028-.028-.1-.02-.229.025l-.866.289a8.962 8.962 0 0 1 1.544 3.106l.153-.085a13.4 13.4 0 0 0-.291-1.713l1.129-1.128 1.154 1.154-1.536 1.536a7.434 7.434 0 0 1-.738.653l.653.042c.112-.25.274-.476.475-.662l1.358-1.358 1.018 1.018-1.01 1.01-.823.28c.2.175.537.5 1.01.976l.586.586c.468.456.91.937 1.324 1.442.17.2.283.277.339.221a1 1 0 0 0 .178-.331c.05-.115.084-.237.1-.361a.355.355 0 0 0-.132-.25l-2.35-2.35 1-1 1.14 1.132c.447.447.829.84 1.146 1.18l.7.772c.133.133.235.167.305.1.098-.127.169-.273.208-.429a.454.454 0 0 0-.055-.488 26.218 26.218 0 0 0-.4-.369 44.697 44.697 0 0 1-.828-.8l-1.663-1.662 1-1 1.807 1.807c.081.06.118.165.093.263a.831.831 0 0 1-.212.3 5.014 5.014 0 0 1-.467.4l.085.119c.549-.243.942-.274 1.179-.093.096.062.161.076.195.042.058-.194.081-.398.068-.6a1.188 1.188 0 0 0-.348-.916l-1.778-1.795ZM83.8 53.351l.2-.2v-1.227l-.149-.016.059.874-.339.339-.781-.781.059-.348c.011-.091.008-.144-.008-.161-.016-.017-.059-.008-.127.025l-1.044.45c.317.283.586.535.806.755l.577.577-1.253 1.256c-.215.218-.45.417-.7.594l.636.11c.102-.237.252-.451.441-.628l.7-.7a9.15 9.15 0 0 1 .738 3.878l.17.051a6.992 6.992 0 0 0-.238-4.056l.448.447v-1.039l-.195-.2ZM76.209 63.794a.444.444 0 0 0 .1-.42.892.892 0 0 0-.255-.475 1.273 1.273 0 0 0-.921-.284c-.498.004-.99.118-1.438.335l.008.161c.71.028 1.402.234 2.011.6.23.154.396.182.495.083ZM79.743 60.548l.187-.051v-2.529c0-.147.027-.293.081-.429.043-.083.048-.139.017-.17s-.1-.041-.2-.03l-1.052.119c.44.99.764 2.026.967 3.09Z" fill-opacity=".26" fill="#000"/><path d="m81.279 58.3.093 1.078-1.663 1.663-2.509-2.512 2.359-2.359c.079-.079.105-.133.076-.161a.289.289 0 0 0-.161-.059l-1.171-.1.085 1-5.168 5.168a6.241 6.241 0 0 1-.755.653l.7.085c.117-.252.282-.48.484-.67l1.434-1.434 2.512 2.512-1.256 1.256-1.069.356c.322.29.63.58.925.874l.628.628c.68.636 1.277 1.356 1.777 2.141.331.646.515 1.357.539 2.083l.144.008a5.355 5.355 0 0 0-.115-2.355 7.346 7.346 0 0 0-2.007-2.838l-.628-.628 6.033-6.033c.1-.1.137-.168.106-.2a.473.473 0 0 0-.25-.064l-1.143-.092Zm-3.114 4.285-2.512-2.512.967-.967 2.512 2.512-.967.967ZM7.226 92.7l.636.093c.107-.234.26-.445.45-.619l3.818-3.814c.107-.107.139-.184.093-.229a.315.315 0 0 0-.212-.076l-1.027-.025.076.925L7.9 92.11c-.21.213-.435.41-.674.59ZM24.69 81.077c-.181.2-.37.4-.568.6a9.062 9.062 0 0 1-2.877 2.028 9.874 9.874 0 0 0 0-1.918 1.742 1.742 0 0 1 .017-.518.94.94 0 0 1 .153-.305c.074-.1.088-.175.042-.221a.321.321 0 0 0-.255-.051l-1.069.085.076.552-2.333 2.333a10.11 10.11 0 0 0-.221-1.12l2.291-2.291.2.2c.079.079.143.1.191.047.087-.14.147-.296.178-.458.07-.257.06-.431-.03-.522l-.441-.373c-.17-.147-.348-.314-.535-.5l-.815-.815.093-.331c.023-.1.02-.167-.008-.195-.028-.028-.093-.031-.195-.008l-1.035.153.068.679-3.352 3.352-.908.28c.317.283.589.537.815.764l.925.925a33.163 33.163 0 0 1 1.213 1.264c.124.125.214.16.267.106.082-.109.143-.233.178-.365.052-.124.08-.256.085-.39a.357.357 0 0 0-.115-.208l-.195-.195.492-.492a9.354 9.354 0 0 1-.051 5.142l.178.076c.516-1.252.784-2.592.789-3.946.799.235 1.64.29 2.462.159a14.165 14.165 0 0 1-2.512 4.8l.178.093a11.936 11.936 0 0 0 3.046-5.015c.365-.09.719-.225 1.052-.4.396-.2.912-.493 1.549-.878.637-.385.983-.607 1.039-.666.04-.04.034-.1-.017-.17a.951.951 0 0 1 .068-1.171l-.113-.116Zm-10.14.6 3.411-3.411.755.755-3.411 3.411-.755-.755Zm1.739 1.739-.747-.747 3.411-3.411.747.747-3.411 3.411Zm4.209.543a5.02 5.02 0 0 1-2.571.178l.008-.042 2.465-2.458c.144.766.178 1.55.1 2.325l-.002-.003ZM1.556 91.67c.079-.079.105-.133.076-.161a.281.281 0 0 0-.161-.06l-1.171-.1.085 1-.385.385v.492l1.556-1.556ZM27.381 73.431l.076-.212c.028-.107.027-.177 0-.208a.164.164 0 0 0-.148-.03l-.967.085.11.721-.9.9-1.018-1.018 1.952-1.952c.1-.1.13-.158.1-.187a.231.231 0 0 0-.161-.042l-1.069-.051.1.882-1.136 1.136-1.154-1.155 1.612-1.612c.079-.079.106-.132.081-.157a.244.244 0 0 0-.148-.047l-1-.085.042.891-.8.8-1.078-1.078.085-.39c.034-.1.035-.168 0-.2s-.092-.024-.182.021l-1.154.492c.107.074.696.645 1.765 1.714l-1 1a5.559 5.559 0 0 0-.14-.437 3.669 3.669 0 0 1-.132-.429.4.4 0 0 1 .03-.25c.037-.082.041-.137.013-.165-.028-.028-.1-.02-.229.025l-.865.289a8.962 8.962 0 0 1 1.544 3.106l.153-.085a13.064 13.064 0 0 0-.289-1.714l1.129-1.129 1.154 1.154-1.536 1.536a7.434 7.434 0 0 1-.738.653l.653.042c.112-.25.274-.476.475-.662l1.358-1.358 1.018 1.018-1.01 1.01-.823.28c.2.175.537.5 1.01.976l.586.586c.468.456.91.937 1.324 1.442.17.2.283.277.339.221a1 1 0 0 0 .178-.331c.05-.115.084-.237.1-.361a.357.357 0 0 0-.131-.25l-2.35-2.35 1-1 1.14 1.134c.447.447.83.84 1.146 1.179l.7.772c.133.133.235.167.305.1.098-.127.169-.273.208-.429a.454.454 0 0 0-.055-.488 26.218 26.218 0 0 0-.4-.369 44.697 44.697 0 0 1-.828-.8l-1.663-1.662 1-1 1.807 1.807c.081.06.118.165.093.263a.831.831 0 0 1-.212.3 5.013 5.013 0 0 1-.467.4l.085.119c.549-.243.942-.274 1.179-.093.096.062.161.076.195.042.058-.194.081-.398.068-.6a1.188 1.188 0 0 0-.348-.916l-1.782-1.794ZM12.987 92.848 11.341 91.2l3.165-3.165c.079-.079.106-.132.081-.157a.4.4 0 0 0-.208-.055l-1.2-.136.1 1.12-5.561 5.56a6.342 6.342 0 0 1-.687.6l.628.1c.1-.239.25-.453.441-.628l2.647-2.639 1.366 1.366c.119.119.164.223.136.314a.971.971 0 0 1-.25.344c-.26.234-.536.448-.827.641l.136.187c.3-.198.626-.355.967-.467a.691.691 0 0 1 .56.11c.113.068.188.083.225.047.08-.144.14-.3.174-.462.072-.188.094-.391.064-.59a1.181 1.181 0 0 0-.311-.438v-.004ZM32.082 72.769l-5.914-5.914.093-.348c.028-.1.028-.158 0-.187-.028-.029-.11-.014-.246.042l-1.112.433c.396.35.854.786 1.375 1.307l5.278 5.278a.588.588 0 0 1 .221.4.881.881 0 0 1-.305.467c-.2.2-.5.467-.9.8l.093.127c.296-.2.615-.366.95-.492a.828.828 0 0 1 .713.068c.119.062.2.068.255.017.086-.167.134-.351.14-.539.049-.246.026-.5-.064-.734a2.966 2.966 0 0 0-.577-.725Z" fill-opacity=".26" fill="#000"/><path d="m28.645 72.031-2.6-2.6.076-.3c.023-.113.021-.182 0-.208-.021-.026-.092-.024-.2 0l-1.1.373c.333.3.61.56.832.781l2.447 2.455a29.814 29.814 0 0 1 1.153 1.205c.119.119.2.151.259.1.083-.12.14-.256.165-.4.056-.215.051-.356-.017-.424l-1.015-.982ZM15.414 90.183a.967.967 0 0 0-.581-.293 2.159 2.159 0 0 0-.908.17 14 14 0 0 0-1.608.742l.042.212a6.081 6.081 0 0 1 2.724-.093c.159.039.32.064.484.076a.268.268 0 0 0 .2-.081c.054-.054.051-.147-.008-.28a1.62 1.62 0 0 0-.344-.453h-.001ZM18.648 75.528a.3.3 0 0 0-.2-.051l-1.392-.051.178 1.1-4 4a9.255 9.255 0 0 1-.064-.649.6.6 0 0 1 .106-.327c.074-.119.093-.195.059-.229s-.1-.04-.187-.017l-1.1.246c.574 1.63.887 3.339.925 5.066l.238-.034c.176-1.186.199-2.39.068-3.581l5.286-5.286c.092-.094.117-.153.083-.187ZM7.879 86.28l-.492.492a5.01 5.01 0 0 1-.687.586l.628.1c.107-.23.257-.437.441-.611.247.624.44 1.269.577 1.926a9 9 0 0 1 .11 1.884l.153.017a5.913 5.913 0 0 0-.238-3.9l.7.7c.4.4.681.693.844.878.163.185.284.319.365.4.082.082.143.1.182.064.08-.124.14-.258.178-.4.08-.226.093-.365.042-.416l-.263-.238c-.163-.148-.436-.41-.815-.789l-.976-.976.085-.085c.372.219.768.395 1.179.526.408.112.829.173 1.252.182.489.02.808.027.955.021a.618.618 0 0 0 .246-.034c.028-.028.025-.082-.008-.161-.096-.209.011-.548.322-1.018l-.1-.1a6.328 6.328 0 0 1-1.858.552 5.006 5.006 0 0 1-1.8-.153l1.616-1.627c.068-.068.089-.115.064-.14a.312.312 0 0 0-.182-.047l-1.1-.136.076 1.01-.976.976-.771-.772.076-.331c.023-.091.021-.148 0-.174-.021-.026-.078-.021-.157.013l-1.019.492c.317.272.583.515.8.73l.551.559ZM9.72 93.128c.183 1.47.065 2.963-.348 4.387l.238.068c.249-.645.44-1.206.573-1.684.156-.616.26-1.245.31-1.879.006-.235.07-.466.187-.67.085-.1.113-.167.085-.195a.276.276 0 0 0-.17-.051l-.875.024ZM4.674 93.957a.473.473 0 0 0-.25-.064L3.279 93.8l.093 1.078-1.663 1.662L0 94.831v1.154l1.132 1.132-.967.967L0 97.92V98c.003.21.039.418.107.617l4.461-4.461c.102-.102.138-.168.106-.199Z" fill-opacity=".26" fill="#000"/><path d="M.776 92.96c.44.989.765 2.025.967 3.089L1.93 96v-2.531c0-.147.027-.292.081-.428.042-.082.048-.139.017-.17s-.1-.041-.2-.03l-1.052.119ZM7.115 91.219l.416.45c.1.1.173.133.212.093.079-.123.137-.258.174-.4.076-.229.083-.374.021-.437a17.436 17.436 0 0 1-1.102-1.035l-.45-.45c.399-.054.804-.02 1.188.1.243.074.4.074.471 0a.281.281 0 0 0 .042-.305.957.957 0 0 0-.242-.378.57.57 0 0 0-.526-.119 5.02 5.02 0 0 0-1.162.467l-.357-.354 1.129-1.129c.074-.074.1-.123.072-.148a.385.385 0 0 0-.182-.064l-.967-.1.059.874-.339.339-.782-.78.059-.348c.011-.091.008-.144-.008-.161-.016-.017-.059-.008-.127.025l-1.044.45c.317.283.585.534.806.755l.577.577L3.8 90.395c-.215.218-.45.417-.7.594l.636.11c.102-.237.252-.451.441-.628l.7-.7a9.15 9.15 0 0 1 .738 3.878l.17.051a6.992 6.992 0 0 0-.238-4.056l.747.747c.379.37.652.647.821.828ZM52.7 39.486c-.025-.025-.078-.021-.157.013l-1.018.492c.317.272.584.515.8.73l.56.56-.492.492c-.21.216-.44.412-.687.586l.628.1c.107-.23.257-.437.441-.611.248.624.44 1.269.577 1.926a9 9 0 0 1 .11 1.884l.153.017a5.913 5.913 0 0 0-.238-3.9l.7.7c.4.4.681.693.844.878.163.185.284.319.365.4.082.082.143.1.182.064.08-.124.14-.258.178-.4.08-.226.093-.365.042-.416l-.263-.238a24.94 24.94 0 0 1-.815-.789l-.976-.976.085-.085c.372.219.768.395 1.179.526.408.112.829.173 1.252.182.489.02.808.027.955.021a.618.618 0 0 0 .246-.034c.028-.028.025-.082-.008-.161-.096-.209.011-.548.322-1.018l-.1-.1a6.328 6.328 0 0 1-1.858.552 5.006 5.006 0 0 1-1.8-.153l1.611-1.628c.068-.068.089-.115.064-.14a.312.312 0 0 0-.182-.047l-1.1-.136.076 1.01-.976.976-.772-.772.076-.331c.023-.091.021-.149 0-.174H52.7ZM43.209 54.294a.444.444 0 0 0 .1-.42.892.892 0 0 0-.255-.475 1.273 1.273 0 0 0-.921-.284c-.498.004-.99.118-1.438.335l.008.161c.71.028 1.402.234 2.011.6.23.155.396.182.495.083Z" fill-opacity=".26" fill="#000"/><path d="m52.226 47.7.636.093c.107-.234.26-.445.45-.619l3.818-3.814c.107-.107.139-.184.093-.229a.315.315 0 0 0-.212-.076l-1.027-.025.076.925-3.16 3.157a6.2 6.2 0 0 1-.674.588ZM46.743 51.048 46.93 51v-2.532c0-.147.027-.292.081-.428.042-.082.048-.139.017-.17s-.1-.041-.2-.03l-1.052.119c.44.99.764 2.026.967 3.089ZM69.208 31.468l1-1 1.138 1.132c.447.447.829.84 1.146 1.179l.7.772c.133.133.235.167.305.1.098-.127.169-.273.208-.429a.454.454 0 0 0-.055-.488 44.697 44.697 0 0 1-1.223-1.169l-1.663-1.662 1-1 1.807 1.807c.081.06.118.165.093.263a.831.831 0 0 1-.212.3 5.013 5.013 0 0 1-.467.4l.085.119c.55-.243.942-.274 1.179-.093.096.062.161.076.195.042.058-.194.081-.398.068-.6a1.188 1.188 0 0 0-.348-.916l-1.79-1.79.076-.212c.028-.107.027-.177 0-.208a.164.164 0 0 0-.148-.03l-.967.085.11.721-.9.9-1.018-1.018 1.952-1.952c.1-.1.13-.158.1-.187a.231.231 0 0 0-.161-.042l-1.069-.051.1.882-1.137 1.137-1.148-1.16 1.612-1.612c.079-.079.106-.132.081-.157a.246.246 0 0 0-.148-.047l-1-.085.042.891-.8.8-1.078-1.078.085-.39c.034-.1.035-.168 0-.2s-.092-.024-.182.021l-1.154.492c.107.074.696.645 1.765 1.714l-1 1a5.559 5.559 0 0 0-.14-.437 3.671 3.671 0 0 1-.132-.429.4.4 0 0 1 .03-.25c.037-.082.041-.137.013-.165-.028-.028-.105-.02-.229.025l-.866.289a8.962 8.962 0 0 1 1.544 3.106l.153-.085a13.064 13.064 0 0 0-.289-1.714l1.129-1.128 1.154 1.154-1.536 1.536a7.434 7.434 0 0 1-.738.653l.653.042c.112-.25.274-.476.475-.662l1.358-1.358 1.018 1.018-1.01 1.01-.823.28c.2.175.537.5 1.01.976l.586.586c.468.456.91.937 1.324 1.442.17.2.283.277.339.221a1 1 0 0 0 .178-.331c.05-.115.084-.237.1-.361a.357.357 0 0 0-.131-.25l-2.349-2.349ZM69.69 36.077c-.181.2-.37.4-.568.6a9.061 9.061 0 0 1-2.877 2.028 9.875 9.875 0 0 0 0-1.918 1.742 1.742 0 0 1 .017-.518.94.94 0 0 1 .153-.305c.074-.1.088-.175.042-.221a.321.321 0 0 0-.255-.051l-1.069.085.076.552-2.333 2.333a10.108 10.108 0 0 0-.221-1.12l2.291-2.291.2.2c.079.079.143.1.191.047.087-.14.147-.296.178-.458.07-.257.06-.43-.03-.522l-.441-.373c-.17-.147-.348-.313-.535-.5l-.815-.815.093-.331c.023-.1.02-.167-.008-.195-.028-.028-.093-.031-.195-.008l-1.035.153.068.679-3.352 3.352-.908.28c.317.283.589.538.815.764l.925.925a33.096 33.096 0 0 1 1.213 1.264c.124.124.214.16.267.106.082-.109.143-.233.178-.365.052-.124.08-.256.085-.39a.357.357 0 0 0-.115-.208l-.195-.195.492-.492a9.354 9.354 0 0 1-.051 5.142l.178.076c.516-1.252.784-2.592.789-3.946.799.235 1.64.29 2.462.159a14.165 14.165 0 0 1-2.512 4.8l.178.093a11.936 11.936 0 0 0 3.046-5.015c.365-.09.719-.225 1.052-.4.396-.2.912-.493 1.549-.878.636-.388.983-.609 1.039-.666.04-.04.034-.1-.017-.17a.951.951 0 0 1 .068-1.171l-.113-.116Zm-10.14.6 3.411-3.411.755.755-3.411 3.411-.755-.755Zm1.739 1.739-.747-.747 3.411-3.411.747.747-3.411 3.411Zm4.209.543a5.02 5.02 0 0 1-2.571.178l.008-.042 2.465-2.458c.144.766.178 1.55.1 2.325l-.002-.003Z" fill-opacity=".26" fill="#000"/><path d="m46.14 61 .144.008a5.355 5.355 0 0 0-.115-2.355 7.346 7.346 0 0 0-2.007-2.838l-.628-.628 6.033-6.033c.1-.1.137-.168.106-.2a.473.473 0 0 0-.25-.064l-1.144-.09.093 1.078-1.663 1.663-2.509-2.512 2.359-2.359c.079-.079.1-.133.076-.161a.289.289 0 0 0-.161-.059l-1.171-.1.085 1-5.168 5.168a6.24 6.24 0 0 1-.755.653l.7.085c.117-.252.281-.48.484-.67l1.434-1.434 2.512 2.512-1.256 1.256-1.069.356c.322.29.63.58.925.874l.628.628c.68.636 1.277 1.356 1.777 2.141.331.645.516 1.356.54 2.081Zm-3.487-10.427.967-.967 2.512 2.512-.967.967-2.512-2.512ZM54.61 52.583c.25-.645.44-1.207.573-1.684.156-.616.26-1.245.31-1.879.006-.235.07-.466.187-.67.085-.1.113-.167.085-.195a.276.276 0 0 0-.17-.051l-.874.025c.183 1.47.065 2.963-.348 4.387l.237.067ZM73.094 27.531a29.814 29.814 0 0 1 1.153 1.205c.119.119.205.151.259.1.083-.12.14-.256.165-.4.056-.215.051-.356-.017-.424l-1.01-.976-2.6-2.6.076-.3c.023-.113.021-.182 0-.208-.021-.026-.092-.024-.2 0l-1.1.373c.333.3.61.56.832.781l2.442 2.449Z" fill-opacity=".26" fill="#000"/><path d="M76.556 28.38a.588.588 0 0 1 .221.4.88.88 0 0 1-.305.467c-.2.2-.5.467-.9.8l.093.127c.296-.2.615-.366.95-.492a.828.828 0 0 1 .713.068c.119.062.2.068.255.017.086-.167.134-.351.14-.539.049-.246.026-.5-.064-.734a2.955 2.955 0 0 0-.577-.721l-5.914-5.914.093-.348c.028-.1.028-.158 0-.187-.028-.029-.11-.014-.246.042L69.9 21.8c.396.35.854.786 1.375 1.307l5.281 5.273ZM58.171 34.868a.6.6 0 0 1 .106-.327c.074-.119.093-.195.059-.229s-.1-.04-.187-.017l-1.1.246c.574 1.63.887 3.339.925 5.066l.238-.034c.176-1.186.199-2.39.068-3.581l5.286-5.286c.085-.085.11-.144.076-.178a.3.3 0 0 0-.2-.051l-1.392-.051.178 1.095-4 4a14.414 14.414 0 0 1-.057-.653ZM57.317 45.8l.042.212a6.081 6.081 0 0 1 2.724-.093c.159.039.32.064.484.076a.268.268 0 0 0 .2-.081c.054-.054.051-.147-.008-.28a1.622 1.622 0 0 0-.344-.454.967.967 0 0 0-.581-.293 2.143 2.143 0 0 0-.908.17c-.552.213-1.09.461-1.609.743ZM52.115 46.219l.416.45c.1.1.173.133.212.093.079-.123.137-.258.174-.4.076-.23.083-.375.021-.437a16.953 16.953 0 0 1-1.103-1.035l-.45-.45c.399-.054.804-.02 1.188.1.243.074.4.074.471 0a.281.281 0 0 0 .042-.305.957.957 0 0 0-.242-.378.57.57 0 0 0-.526-.119 5.04 5.04 0 0 0-1.163.467l-.355-.357 1.129-1.129c.074-.074.1-.123.072-.148a.385.385 0 0 0-.182-.064l-.967-.1.059.874-.339.339-.781-.781.059-.348c.011-.091.008-.144-.008-.161-.016-.017-.059-.008-.127.025l-1.044.45c.317.283.586.535.806.755l.577.577-1.254 1.257c-.215.218-.45.417-.7.594l.636.11c.102-.237.252-.451.441-.628l.7-.7a9.15 9.15 0 0 1 .738 3.878l.17.051a6.992 6.992 0 0 0-.238-4.056l.747.747c.374.374.646.652.815.833l.006-.004Z" fill-opacity=".26" fill="#000"/><path d="m58.174 42.689.1 1.12-5.558 5.558a6.343 6.343 0 0 1-.687.6l.628.1c.1-.239.25-.453.441-.628l2.649-2.639 1.366 1.366c.119.119.164.223.136.314a.971.971 0 0 1-.25.344c-.26.234-.536.448-.827.641l.136.187c.3-.198.626-.355.967-.467a.691.691 0 0 1 .56.11c.113.068.188.083.225.047.08-.144.14-.3.174-.462a.8.8 0 0 0-.246-1.027L56.342 46.2l3.165-3.165c.079-.079.106-.132.081-.157a.405.405 0 0 0-.208-.055l-1.206-.134Z" fill-opacity=".26" fill="#000"/></g></svg>