<svg width="84" height="100" xmlns="http://www.w3.org/2000/svg"><g fill-rule="nonzero" fill="none"><rect fill="#FFF" width="84" height="100" rx="2"/><path d="M42.4 69.36a141.77 141.77 0 0 0 2.614-2.681c.758-.804 1.208-1.355 1.35-1.655.14-.3.186-.69.135-1.171-.051-.48-.13-.775-.238-.883-.107-.107-.294-.135-.56-.084-.266.05-.597-.054-.993-.314s-1.086-.86-2.07-1.8l-.272.306c1.618 1.844 2.39 2.996 2.317 3.454-.074.458-1.163 1.74-3.267 3.844l-.21.21c-1.101 1.094-1.806 1.743-2.115 1.945-.328.215-.616.198-.865-.051l-3.87-3.87 5.193-5.192.696.695c.147.148.266.176.357.085.09-.09.212-.359.364-.806.153-.447.116-.783-.11-1.01l-.814-.678a18.9 18.9 0 0 1-1.019-.95L37.19 56.92l.136-.475c.045-.226.037-.37-.025-.432-.062-.063-.201-.088-.416-.077l-1.765.272.136 1.256-1.952 1.951-.22-3.58c-.034-.668.056-1.138.271-1.41.215-.27.28-.449.195-.534-.085-.085-.24-.127-.466-.127l-1.935.068.017 1.578-2.681 2.681-.425-1.612a1.655 1.655 0 0 1 0-.814c.068-.272.063-.447-.017-.526-.079-.08-.243-.085-.492-.017l-2.002.44c1.99 4.006 3.241 8.017 3.75 12.033l.407-.136c0-1.244-.045-2.387-.135-3.428l7.874 7.874c.35.351.707.527 1.07.527.361 0 .746-.159 1.153-.476.407-.316 1.21-1.074 2.41-2.274l.322-.322Zm-13.627 5.278c.068-.068.119-.187.153-.357.124-.622 1.312-2.692 3.564-6.21l-.289-.255-3.682 4.395-.9-5.651c-.249-1.675-.387-2.684-.416-3.03-.028-.345-.003-.613.077-.806.079-.192.082-.325.008-.398-.073-.074-.218-.094-.433-.06l-1.968.204c.645 1.64 1.126 3.06 1.442 4.26l-2.528 2.63c-.645-2.817-1.038-4.704-1.18-5.66-.141-.956-.138-1.564.009-1.824.158-.317.2-.512.127-.586-.074-.073-.218-.093-.433-.059l-2.308.204c.589 1.199 1.16 2.613 1.714 4.242.555 1.63.871 2.75.95 3.36.08.611.023 1.149-.17 1.613l1.274.526c.147.056.254.05.322-.017.068-.068.136-.181.204-.34.35-.848 1.08-2.008 2.189-3.479.215.804.43 1.726.645 2.767.215 1.04.342 1.71.382 2.01.04.3.014.654-.077 1.061-.09.408-.232.741-.424 1.002l1.358.475c.192.056.322.05.39-.017Zm4.005-14.697-2.29 2.291-1.087.238a42.429 42.429 0 0 0-.73-3.683l2.953-2.953 1.154 4.107Zm3.275 4.124-2.12 2.121-3.293-3.292 2.121-2.121 3.292 3.292Zm3.072-3.072-2.104 2.105-3.293-3.293 2.105-2.104 3.292 3.292ZM31.802 78.6c.074-.073.142-.243.204-.509s.252-.75.568-1.45l2.682-6.008-.323-.187-5.26 7.773 1.764.44c.17.035.292.015.365-.059Zm15.44-40.455c.26-.26.383-.551.366-.874-.017-.322-.162-.619-.433-.89a1.113 1.113 0 0 0-.433-.28c-.153-.051-.348-.049-.585.008-.238.056-.538.175-.9.356a21.73 21.73 0 0 0-1.391.78l.084.323a3.187 3.187 0 0 1 1.18.094c.424.107.846.314 1.264.62.283.191.566.146.849-.137Zm-4.004 9.945c.362-.045.613-.206.755-.484.141-.277.161-.636.06-1.077-.091-.34-.264-.71-.518-1.112-.255-.401-.608-.806-1.061-1.213l10.827-10.827.832 2.46.34-.068c0-1.086.073-1.906.22-2.46.147-.555.39-.99.73-1.307.237-.215.322-.379.254-.492-.068-.113-.266-.164-.594-.153l-2.613.136.17 1.527L41.93 43.73a4.774 4.774 0 0 0-.406-.306c-.136-.09-.278-.186-.425-.288l-.237.271c.407.453.724.962.95 1.528.226.565.362 1.233.407 2.002.034.35.162.637.382.857.22.22.433.32.637.297Zm7.025-6.415a.73.73 0 0 0 .187-.373 1.52 1.52 0 0 0 .017-.51 1.957 1.957 0 0 0-.153-.542 1.535 1.535 0 0 0-.322-.475c-.226-.227-.566-.312-1.018-.255-.453.057-1.126.305-2.02.747l.051.356c.815 0 1.646.323 2.495.967.328.238.582.266.763.085Zm-2.257 12.847a28.58 28.58 0 0 0 1.536-2.877c.458-.99.897-2.124 1.315-3.402.25.068.51.034.781-.102.272-.136.577-.362.916-.679a44.917 44.917 0 0 0 2.198-2.214c.685-.742 1.4-1.553 2.147-2.436.577-.667.854-1.487.832-2.46 0-.227-.04-.368-.12-.425-.078-.056-.22-.062-.424-.017-.203.046-.393.071-.568.077a1.356 1.356 0 0 1-.543-.102 2.736 2.736 0 0 1-.62-.365c-.226-.17-.509-.413-.848-.73l-.238.272c.442.554.775 1.001 1.002 1.34.226.34.376.62.45.84.073.221.073.413 0 .577-.074.165-.19.36-.349.586-.192.26-.421.546-.687.857a185.2 185.2 0 0 1-.84.976 37.797 37.797 0 0 1-1.748 1.884c-.328.328-.577.463-.747.407.328-1.12.623-2.257.883-3.411s.475-2.325.645-3.513c.056-.419.144-.8.263-1.146.119-.345.229-.59.33-.738.136-.18.182-.311.136-.39-.045-.08-.198-.113-.458-.102l-1.578.05a25.274 25.274 0 0 1-.28 3.862c-.198 1.363-.5 2.87-.908 4.522l-2.002-2.002.101-.441c.102-.351-.017-.459-.356-.323l-2.19.866c.114.09.241.2.383.33a187.875 187.875 0 0 1 .908.84c.158.148.294.278.407.39l2.223 2.224a68.372 68.372 0 0 1-1.162 3.912 30.677 30.677 0 0 1-1.129 2.893l.34.17Zm-.638-4.118.078-.09c.17-.227.204-.617.102-1.172-.045-.407-.274-.857-.687-1.349-.413-.492-1.072-1.1-1.977-1.824l-.17.271c.419.51.707 1.007.866 1.494.158.486.215 1.046.17 1.68-.023.407.056.724.237.95.18.226.402.334.662.323.362-.023.628-.147.797-.374l-.078.091Zm12.365-12.157c.17-.17.204-.43.102-.78-.102-.351-.317-.69-.645-1.019a1.349 1.349 0 0 0-.467-.297c-.186-.073-.464-.09-.831-.05-.368.039-.843.146-1.426.322-.582.175-1.338.444-2.265.806l.05.322c.815-.09 1.601-.073 2.36.051.757.125 1.521.345 2.29.662.215.102.388.144.518.127a.525.525 0 0 0 .314-.144Zm5.1 9.58c.085-.006.184-.144.297-.416.135-.271.234-.489.297-.653.062-.164.096-.294.101-.39.006-.097-.014-.167-.059-.213l-.153-.152c-.226-.181-.509-.43-.848-.747-.34-.317-.758-.724-1.256-1.222l-1.68-1.68.136-.645c.056-.373-.08-.498-.408-.373l-2.29.9c.316.27.607.528.873.771.266.244.512.478.739.705l2.545 2.545-3.513 3.513-3.462-3.462-.034-.645c0-.203-.03-.325-.093-.365-.062-.04-.184-.014-.365.077l-1.935 1.12a39.461 39.461 0 0 1 1.596 1.493l3.037 3.038-3.156 3.157-2.648-2.648.085-.56c.034-.147.026-.257-.025-.33-.051-.074-.156-.088-.314-.043l-2.257.9c.317.27.585.511.806.72.22.21.444.428.67.654l1.63 1.629c.135.136.288.294.458.475l.517.552a19.516 19.516 0 0 1 .874.992c.238.283.41.428.518.433.107.006.229-.15.365-.466a5.52 5.52 0 0 0 .246-.62c.05-.164.073-.305.068-.424a.642.642 0 0 0-.11-.331 2.311 2.311 0 0 0-.29-.34l-.118-.118 7.925-7.926.815.815c.192.192.33.286.416.28Z" fill-opacity=".26" fill="#000"/></g></svg>