<svg width="84" height="101" xmlns="http://www.w3.org/2000/svg"><g transform="translate(0 .988)" fill-rule="nonzero" fill="none"><path fill="#FFF" d="m.609 88.512 2.452-2.453L1.4 84.392 0 85.79v2.109z"/><rect fill="#FFF" y=".012" width="84" height="100" rx="2"/><path d="M10.107 50.161c.075-.25.17-.492.284-.726l1.341-3-.161-.093-2.63 3.886.883.221c.062.022.13.01.182-.03a.588.588 0 0 0 .101-.258ZM7.676 46.169c.107.52.171.856.191 1.006.018.178.005.357-.038.53-.035.18-.107.35-.212.5l.679.238c.096.028.161.025.195-.009a.349.349 0 0 0 .076-.178 18.265 18.265 0 0 1 1.782-3.106l-.144-.127-1.841 2.2-.45-2.826a38.779 38.779 0 0 1-.208-1.515.906.906 0 0 1 .038-.4c.04-.1.041-.163 0-.2-.041-.037-.109-.047-.216-.03l-.984.1c.28.696.521 1.407.721 2.13L6 45.796c-.322-1.41-.519-2.353-.59-2.83a1.782 1.782 0 0 1 0-.912c.079-.158.1-.256.064-.293-.036-.037-.109-.047-.216-.03l-1.154.1c.33.688.616 1.397.857 2.121.204.546.363 1.108.475 1.68.043.271.014.55-.085.806l.649.265c.074.028.127.025.161-.008a.546.546 0 0 0 .1-.17 8.8 8.8 0 0 1 1.1-1.739c.102.402.207.863.315 1.383ZM21.23 29.891a4.328 4.328 0 0 1 1.179.025c.393.066.778.178 1.146.331a.5.5 0 0 0 .259.064.264.264 0 0 0 .157-.072c.09-.11.11-.26.051-.39a1.207 1.207 0 0 0-.322-.509.665.665 0 0 0-.233-.148.918.918 0 0 0-.416-.025c-.242.033-.48.087-.713.161-.291.088-.669.221-1.133.4l.025.163ZM16.669 29.947c.229.062.443.167.632.31a.3.3 0 0 0 .424-.068.558.558 0 0 0 .182-.437.671.671 0 0 0-.216-.445.474.474 0 0 0-.509-.136 2.212 2.212 0 0 0-.45.178c-.181.09-.413.221-.7.39l.042.161c.2-.022.401-.006.595.047ZM17.878 35.687a1.33 1.33 0 0 0-.344-.675 7.2 7.2 0 0 0-.989-.912l-.085.136c.19.22.336.473.433.747.082.272.11.557.085.84a.677.677 0 0 0 .119.475c.076.106.2.167.331.161a.509.509 0 0 0 .4-.187.769.769 0 0 0 .05-.585Z" fill-opacity=".26" fill="#000"/><path d="M19.923 35.186c.168-.091.322-.205.458-.339.39-.368.757-.737 1.1-1.107.343-.37.701-.776 1.073-1.218.291-.341.44-.782.416-1.23 0-.113-.02-.184-.059-.212a.28.28 0 0 0-.212-.008 1.535 1.535 0 0 1-.284.038.667.667 0 0 1-.271-.051 1.412 1.412 0 0 1-.31-.182 5.262 5.262 0 0 1-.424-.365l-.119.136c.221.277.388.5.5.67.092.13.168.271.225.42a.386.386 0 0 1 0 .288c-.05.103-.107.2-.174.293-.096.133-.21.276-.344.428l-.42.488a21.821 21.821 0 0 1-.874.941c-.164.164-.289.232-.373.2.164-.56.311-1.129.441-1.706s.237-1.163.322-1.756c.025-.195.069-.387.132-.573.04-.13.095-.253.165-.369.068-.09.091-.156.068-.195-.023-.039-.1-.057-.229-.051l-.789.025c.003.646-.044 1.291-.14 1.93-.1.682-.25 1.436-.454 2.261l-1-1 .051-.221c.051-.175-.008-.228-.178-.161l-1.095.433c.057.045.12.1.191.165l.221.2.233.216c.08.074.146.139.2.195l1.112 1.112a33.196 33.196 0 0 1-.581 1.956c-.163.492-.352.975-.564 1.447l.17.085c.283-.464.54-.944.768-1.438.252-.554.471-1.121.658-1.7.131.035.27.019.39-.045Z" fill-opacity=".26" fill="#000"/><path d="M15.214 34.584c.01.16.078.313.191.428a.4.4 0 0 0 .318.148c.16-.009.303-.1.378-.242a.785.785 0 0 0 .03-.539 2.047 2.047 0 0 0-.259-.556 2.983 2.983 0 0 0-.53-.607l5.414-5.414.416 1.23.17-.034a5.162 5.162 0 0 1 .11-1.23c.057-.248.184-.474.365-.653.119-.107.161-.19.127-.246-.034-.056-.133-.082-.3-.076l-1.307.068.085.764-5.354 5.354a2.464 2.464 0 0 0-.2-.153 10.16 10.16 0 0 1-.212-.144l-.119.136c.203.224.364.483.475.764.12.321.188.66.202 1.002Z" fill-opacity=".26" fill="#000"/><path d="M18.591 30.876a3.617 3.617 0 0 0-1.01.373l.025.178c.458.019.896.189 1.247.484.164.119.291.133.382.042a.364.364 0 0 0 .093-.187.744.744 0 0 0 .008-.255.991.991 0 0 0-.076-.272.77.77 0 0 0-.161-.238.584.584 0 0 0-.508-.125ZM8.957 44.845c0-.622-.023-1.193-.068-1.714l3.937 3.937a.766.766 0 0 0 .535.263.957.957 0 0 0 .577-.238c.204-.158.604-.537 1.2-1.137l.25-.251c.487-.49.893-.907 1.218-1.251a4.45 4.45 0 0 0 .675-.827c.075-.186.099-.388.068-.586a.864.864 0 0 0-.119-.441.3.3 0 0 0-.28-.042.707.707 0 0 1-.5-.157 9.35 9.35 0 0 1-1.035-.9l-.136.153c.81.922 1.195 1.498 1.158 1.727a7.586 7.586 0 0 1-1.633 1.922l-.148.148a9.81 9.81 0 0 1-1.014.93.313.313 0 0 1-.433-.025l-1.926-1.934 2.6-2.6.348.348c.073.073.133.088.178.042.082-.122.144-.258.182-.4a.462.462 0 0 0-.055-.505l-.407-.339a9.304 9.304 0 0 1-.509-.475l-.916-.916.068-.238c.023-.113.018-.185-.013-.216a.289.289 0 0 0-.208-.038l-.882.136.068.628-.976.976-.11-1.79c-.036-.242.012-.49.136-.7.107-.136.14-.225.1-.267a.33.33 0 0 0-.233-.064l-.967.034.008.789-1.347 1.338-.212-.806a.825.825 0 0 1 0-.407c.034-.135.031-.223-.008-.263-.039-.04-.122-.042-.246-.008l-1 .221a18.766 18.766 0 0 1 1.875 6.016l.2-.073Zm3.064-4.879 1.646 1.646-1.052 1.052-1.646-1.646 1.052-1.052Zm.11 3.182-1.061 1.064-1.646-1.646 1.061-1.061 1.646 1.643Zm-2.215-4.115.577 2.053-1.146 1.146-.543.119a21.117 21.117 0 0 0-.365-1.841l1.477-1.477ZM26.312 34.889c.1.1.165.143.208.14.043-.003.092-.072.148-.208.056-.136.117-.245.148-.327a.72.72 0 0 0 .051-.195.132.132 0 0 0-.03-.106l-.076-.076a7.88 7.88 0 0 1-.424-.373 26.83 26.83 0 0 1-.628-.611l-.84-.84.068-.322c.028-.187-.039-.25-.2-.187l-1.146.45c.158.136.3.264.437.386s.256.239.369.352l1.273 1.273-1.76 1.756-1.731-1.731-.017-.322c0-.1-.016-.163-.047-.182-.031-.019-.092-.007-.182.038l-.967.56c.317.283.583.532.8.747l1.519 1.519-1.58 1.582-1.324-1.324.042-.28a.2.2 0 0 0-.013-.165c-.025-.037-.078-.044-.157-.021l-1.129.45c.158.136.293.256.4.361.107.105.222.214.335.327l.815.815c.068.068.144.147.229.238l.259.276a12.895 12.895 0 0 1 .437.497c.119.141.2.214.259.216.059.002.115-.075.182-.233.048-.1.089-.204.123-.31a.639.639 0 0 0 .034-.212.319.319 0 0 0-.055-.165 1.268 1.268 0 0 0-.142-.17l-.059-.059 3.963-3.963.408.399ZM43.957 13.845c0-.622-.023-1.193-.068-1.714l3.937 3.937a.766.766 0 0 0 .535.263.957.957 0 0 0 .577-.238c.204-.158.606-.537 1.205-1.137l.25-.251c.487-.49.893-.907 1.218-1.251a4.45 4.45 0 0 0 .675-.827c.075-.186.099-.388.068-.586a.864.864 0 0 0-.119-.441.3.3 0 0 0-.28-.042.712.712 0 0 1-.5-.157 9.349 9.349 0 0 1-1.035-.9l-.136.153c.809.922 1.195 1.498 1.158 1.727a7.586 7.586 0 0 1-1.633 1.922l-.148.147a9.81 9.81 0 0 1-1.014.93.313.313 0 0 1-.433-.025l-1.935-1.935 2.6-2.6.348.348c.073.073.133.088.178.042.082-.122.144-.258.182-.4a.462.462 0 0 0-.055-.505l-.407-.339a9.304 9.304 0 0 1-.509-.475l-.916-.914.068-.238c.023-.113.018-.185-.013-.216a.289.289 0 0 0-.208-.038l-.882.136.068.628-.976.976-.11-1.79c-.036-.242.012-.49.136-.7.107-.136.14-.225.1-.267a.33.33 0 0 0-.233-.064l-.969.032.008.789-1.343 1.337-.212-.806a.825.825 0 0 1 0-.407c.034-.135.031-.223-.008-.263-.039-.04-.126-.042-.246-.008l-1 .221a18.766 18.766 0 0 1 1.874 6.013l.203-.067Zm3.064-4.879 1.646 1.646-1.052 1.052-1.646-1.646 1.052-1.052Zm.11 3.182-1.061 1.064-1.646-1.646 1.061-1.061 1.646 1.643Zm-2.215-4.115.577 2.053-1.146 1.146-.543.119a20.631 20.631 0 0 0-.365-1.841l1.477-1.477ZM51.979 4.823a.677.677 0 0 0 .119.475c.076.106.2.167.331.161a.509.509 0 0 0 .4-.187.769.769 0 0 0 .051-.585 1.332 1.332 0 0 0-.346-.675 7.2 7.2 0 0 0-.989-.912l-.085.136c.19.22.336.473.433.747.083.272.112.557.086.84Z" fill-opacity=".26" fill="#000"/><path d="M45.107 19.161c.075-.25.17-.492.284-.726l1.341-3-.161-.093-2.63 3.886.883.221c.062.022.13.01.182-.03a.588.588 0 0 0 .101-.258ZM54.346 2.947l-1-1 .051-.221c.05-.175-.009-.228-.178-.161l-1.1.433c.057.045.12.1.191.165l.221.2.233.216c.079.074.145.139.2.195l1.112 1.112a33.196 33.196 0 0 1-.581 1.956c-.163.492-.352.975-.564 1.447l.17.085c.283-.464.54-.944.768-1.438.252-.554.471-1.121.658-1.7a.535.535 0 0 0 .39-.051c.168-.091.322-.205.458-.339.39-.368.757-.737 1.1-1.107.343-.37.701-.776 1.073-1.218.291-.341.44-.782.416-1.23 0-.113-.02-.184-.059-.212a.28.28 0 0 0-.212-.008 1.535 1.535 0 0 1-.284.038.674.674 0 0 1-.272-.051c-.026-.011-.055-.036-.08-.048h-.492c.086.115.16.218.218.3.092.13.168.271.225.42a.386.386 0 0 1 0 .288c-.05.103-.107.2-.174.293-.096.13-.21.273-.344.428l-.42.488a21.821 21.821 0 0 1-.874.941c-.164.164-.289.232-.373.2.164-.56.311-1.129.441-1.706.123-.546.223-1.1.305-1.662h-.7c-.022.222-.041.443-.074.674-.096.692-.246 1.45-.449 2.273ZM40.444 14.634c.043.271.014.55-.085.806l.636.263c.074.028.127.025.161-.008a.546.546 0 0 0 .1-.17 8.8 8.8 0 0 1 1.1-1.739c.107.4.214.861.322 1.383.107.52.171.856.191 1.006.018.178.005.357-.038.53a1.31 1.31 0 0 1-.212.5l.679.238c.1.028.161.026.195-.008a.349.349 0 0 0 .076-.178 18.265 18.265 0 0 1 1.782-3.106l-.144-.127-1.841 2.2-.45-2.826a38.409 38.409 0 0 1-.208-1.515.906.906 0 0 1 .038-.4c.04-.1.041-.163 0-.2-.041-.037-.109-.047-.216-.03l-.984.1c.28.696.521 1.407.721 2.13L41 14.797c-.322-1.41-.519-2.353-.59-2.83a1.782 1.782 0 0 1 0-.912c.079-.158.1-.256.064-.293-.036-.037-.109-.047-.216-.03l-1.154.1c.33.688.616 1.397.857 2.121a10.6 10.6 0 0 1 .483 1.681ZM49.866 1.827a10.16 10.16 0 0 1-.212-.144l-.119.136c.203.224.364.483.475.764.12.32.187.658.2 1 .01.161.077.313.19.429a.4.4 0 0 0 .318.148c.16-.009.303-.1.378-.242a.785.785 0 0 0 .03-.539 2.047 2.047 0 0 0-.259-.556 2.983 2.983 0 0 0-.53-.607l2.2-2.2h-.509L50.07 1.98a2.464 2.464 0 0 0-.204-.153Z" fill-opacity=".26" fill="#000"/><path d="m54.864 6.554.815.815c.068.068.144.147.229.238l.259.276a12.895 12.895 0 0 1 .437.497c.119.141.205.214.259.216.054.002.115-.075.182-.233.048-.1.089-.204.123-.31a.639.639 0 0 0 .034-.212.319.319 0 0 0-.055-.165 1.267 1.267 0 0 0-.147-.17l-.059-.059 3.963-3.963.407.407c.1.1.165.143.208.14.043-.003.092-.072.148-.208.056-.136.117-.245.148-.327a.72.72 0 0 0 .051-.2.132.132 0 0 0-.03-.106l-.076-.076a7.88 7.88 0 0 1-.424-.373 26.83 26.83 0 0 1-.628-.611l-.84-.84.068-.322c.028-.187-.039-.25-.2-.187l-1.146.45c.158.136.3.264.437.386s.256.239.369.352l1.273 1.273-1.757 1.761L57.18 3.27l-.017-.322c0-.1-.016-.163-.047-.182-.031-.019-.092-.007-.182.038l-.967.56c.317.283.584.532.8.747l1.519 1.519-1.58 1.582-1.324-1.328.042-.28a.2.2 0 0 0-.013-.165c-.025-.037-.078-.044-.157-.021l-1.129.45c.158.136.293.256.4.361.107.105.226.211.339.325ZM52.607.427c.458.019.896.189 1.247.484.164.119.291.133.382.042a.364.364 0 0 0 .093-.187.744.744 0 0 0 .008-.255.991.991 0 0 0-.076-.272.775.775 0 0 0-.155-.227h-.987a6.49 6.49 0 0 0-.538.237l.026.178ZM56.23 79.891a4.328 4.328 0 0 1 1.179.025c.393.066.778.178 1.146.331a.5.5 0 0 0 .259.064.264.264 0 0 0 .157-.072c.09-.11.11-.26.051-.39a1.207 1.207 0 0 0-.322-.509.665.665 0 0 0-.233-.148.918.918 0 0 0-.416-.025c-.242.033-.48.087-.713.161-.291.088-.669.221-1.133.4l.025.163ZM49.866 82.827a10.16 10.16 0 0 1-.212-.144l-.119.136c.203.224.364.483.475.764.12.32.187.658.2 1 .01.161.078.313.19.429a.4.4 0 0 0 .318.148c.16-.009.303-.1.378-.242a.785.785 0 0 0 .03-.539 2.047 2.047 0 0 0-.259-.556 2.984 2.984 0 0 0-.53-.607l5.414-5.414.416 1.23.17-.034a5.162 5.162 0 0 1 .11-1.23c.057-.248.184-.474.365-.653.119-.107.161-.19.127-.246-.034-.056-.133-.082-.3-.076l-1.307.068.085.764-5.354 5.354a1.883 1.883 0 0 0-.197-.152Z" fill-opacity=".26" fill="#000"/><path d="M52.475 79.166a.549.549 0 0 0-.293 0 2.212 2.212 0 0 0-.45.178c-.181.09-.413.221-.7.39l.042.161c.198-.022.398-.006.59.047.229.062.443.167.632.31a.3.3 0 0 0 .424-.068.558.558 0 0 0 .182-.437.671.671 0 0 0-.216-.445.536.536 0 0 0-.211-.136ZM52.235 92.601a.3.3 0 0 0-.28-.042.712.712 0 0 1-.5-.157 9.349 9.349 0 0 1-1.035-.9l-.136.153c.809.922 1.195 1.498 1.158 1.727a7.586 7.586 0 0 1-1.633 1.922l-.148.147a9.81 9.81 0 0 1-1.014.93.313.313 0 0 1-.433-.025l-1.931-1.934 2.6-2.6.348.348c.073.073.133.088.178.042.082-.122.144-.258.182-.4a.462.462 0 0 0-.055-.5l-.407-.339a9.304 9.304 0 0 1-.509-.475l-.916-.916.068-.238c.023-.113.018-.185-.013-.216a.289.289 0 0 0-.208-.038l-.882.136.068.628-.976.976-.11-1.79c-.036-.242.012-.49.136-.7.107-.136.14-.225.1-.267a.33.33 0 0 0-.233-.064l-.967.034.008.789-1.341 1.341-.212-.806a.825.825 0 0 1 0-.407c.034-.136.031-.223-.008-.263-.039-.04-.122-.042-.246-.008l-1 .221a18.766 18.766 0 0 1 1.875 6.016l.2-.068c0-.622-.023-1.193-.068-1.714l3.937 3.937a.766.766 0 0 0 .535.263.957.957 0 0 0 .577-.238c.204-.158.606-.537 1.205-1.137l.25-.251c.487-.49.893-.907 1.218-1.251.257-.248.484-.525.675-.827.075-.186.099-.388.068-.586a.9.9 0 0 0-.125-.453Zm-5.214-2.635 1.646 1.646-1.052 1.052-1.646-1.646 1.052-1.052Zm-3.216 2.385a20.536 20.536 0 0 0-.365-1.841l1.476-1.476.577 2.053-1.146 1.146-.542.118Zm.619.212 1.061-1.061 1.646 1.646-1.061 1.064-1.646-1.649ZM52.534 85.012a7.2 7.2 0 0 0-.989-.912l-.085.136c.19.22.336.473.433.747.082.272.11.557.085.84a.677.677 0 0 0 .119.475c.076.106.2.167.331.161a.509.509 0 0 0 .4-.187.769.769 0 0 0 .051-.585 1.322 1.322 0 0 0-.345-.675Z" fill-opacity=".26" fill="#000"/><path d="m43.363 97.221-.45-2.826a38.409 38.409 0 0 1-.208-1.515.906.906 0 0 1 .038-.4c.04-.1.041-.163 0-.2-.041-.037-.109-.047-.216-.03l-.984.1c.28.696.521 1.407.721 2.13L41 95.795c-.322-1.409-.519-2.352-.59-2.83a1.782 1.782 0 0 1 0-.912c.079-.158.1-.256.064-.293-.036-.037-.109-.047-.216-.03l-1.154.1c.33.688.616 1.397.857 2.121.204.546.363 1.108.475 1.68.043.271.014.55-.085.806l.636.263c.074.028.127.025.161-.008a.546.546 0 0 0 .1-.17 8.8 8.8 0 0 1 1.1-1.739c.107.4.214.861.322 1.383.107.52.171.856.191 1.006.018.178.005.357-.038.53a1.31 1.31 0 0 1-.212.5l.679.238c.1.028.161.025.195-.008a.345.345 0 0 0 .076-.178 18.265 18.265 0 0 1 1.782-3.106l-.144-.127-1.836 2.2ZM53.591 80.876a3.617 3.617 0 0 0-1.01.373l.025.178c.458.019.896.189 1.247.484.164.12.291.133.382.042a.364.364 0 0 0 .093-.187.744.744 0 0 0 .008-.255.984.984 0 0 0-.076-.271.769.769 0 0 0-.161-.238.581.581 0 0 0-.508-.126Z" fill-opacity=".26" fill="#000"/><path d="M54.923 85.186c.168-.091.322-.205.458-.339.39-.368.757-.737 1.1-1.107.343-.37.701-.776 1.073-1.218.291-.341.44-.782.416-1.23 0-.113-.02-.184-.059-.212a.28.28 0 0 0-.212-.008 1.535 1.535 0 0 1-.284.038.667.667 0 0 1-.271-.051 1.412 1.412 0 0 1-.31-.182 5.263 5.263 0 0 1-.424-.365l-.119.136c.221.277.388.5.5.67.092.13.168.271.225.42a.386.386 0 0 1 0 .288c-.05.103-.107.2-.174.293-.096.13-.21.273-.344.428l-.42.488a21.821 21.821 0 0 1-.874.941c-.164.164-.289.232-.373.2.164-.56.311-1.129.441-1.706s.237-1.163.322-1.756c.025-.195.069-.387.132-.573.04-.13.095-.253.165-.369.068-.091.091-.156.068-.195-.023-.039-.1-.057-.229-.051l-.789.025c.003.646-.044 1.291-.14 1.93-.099.682-.25 1.436-.454 2.261l-1-1 .051-.221c.05-.175-.009-.229-.178-.161l-1.1.433c.057.045.12.1.191.165l.221.2.233.216c.079.074.145.139.2.195l1.112 1.112a33.196 33.196 0 0 1-.581 1.956c-.163.492-.352.975-.564 1.447l.17.085c.283-.464.54-.944.768-1.438.252-.554.471-1.121.658-1.7.133.036.274.02.395-.045Z" fill-opacity=".26" fill="#000"/><path d="M61.762 84.117a7.88 7.88 0 0 1-.424-.373 26.83 26.83 0 0 1-.628-.611l-.84-.84.068-.322c.028-.187-.039-.249-.2-.187l-1.146.45c.158.136.3.264.437.386s.256.239.369.352l1.273 1.273-1.756 1.756-1.735-1.731-.017-.322c0-.1-.016-.163-.047-.182-.031-.019-.092-.007-.182.038l-.967.56c.317.283.584.532.8.747l1.519 1.519-1.58 1.582-1.324-1.324.042-.28a.2.2 0 0 0-.013-.165c-.025-.037-.078-.044-.157-.021l-1.129.45c.158.136.293.256.4.361.107.105.222.214.335.327l.815.815c.068.068.144.147.229.238l.259.276a12.895 12.895 0 0 1 .437.497c.119.141.205.214.259.216.054.002.115-.075.182-.233.048-.1.089-.204.123-.31a.639.639 0 0 0 .034-.212.319.319 0 0 0-.055-.165 1.267 1.267 0 0 0-.143-.17l-.059-.059 3.963-3.963.407.407c.1.1.165.143.208.14.043-.003.092-.072.148-.208.056-.136.117-.245.148-.327a.72.72 0 0 0 .051-.195.132.132 0 0 0-.03-.106l-.074-.084ZM46.732 96.432l-.161-.093-2.487 3.673h1.073a6.62 6.62 0 0 1 .234-.576l1.341-3.004ZM83.607 50.427c.133.003.265.021.393.055v-.418c-.131.054-.26.106-.419.185l.026.178ZM83.314 52.162l.221.2.233.216c.08.074.146.139.2.195l.028.029V51.65l-.877.347c.061.045.124.1.195.165ZM76.205 64.023l-1.841 2.2-.45-2.826a38.779 38.779 0 0 1-.208-1.515.906.906 0 0 1 .038-.4c.04-.1.041-.163 0-.2-.041-.037-.109-.047-.216-.03l-.984.1c.28.696.521 1.407.721 2.13L72 64.795c-.322-1.409-.519-2.352-.59-2.83a1.782 1.782 0 0 1 0-.912c.079-.158.1-.256.064-.293-.036-.037-.109-.047-.216-.03l-1.154.1c.33.688.616 1.397.857 2.121.204.546.363 1.108.475 1.68.043.271.014.55-.085.806l.649.265c.073.028.127.025.161-.008a.546.546 0 0 0 .1-.17 8.8 8.8 0 0 1 1.1-1.739c.107.4.215.861.322 1.383.107.52.171.856.191 1.006.018.178.005.357-.038.53-.035.18-.107.35-.212.5l.679.238c.096.028.161.025.195-.009a.349.349 0 0 0 .076-.178 18.265 18.265 0 0 1 1.782-3.106l-.151-.126ZM83.534 54.012a7.2 7.2 0 0 0-.989-.912l-.085.136c.19.22.336.473.433.747.082.272.11.557.085.84a.677.677 0 0 0 .119.475c.076.106.2.167.331.161a.509.509 0 0 0 .4-.187.769.769 0 0 0 .051-.585 1.322 1.322 0 0 0-.345-.675ZM83.938 57.292l.062.031v-.18c-.021.048-.041.102-.062.149Z" fill-opacity=".26" fill="#000"/><path d="M83.235 61.601a.3.3 0 0 0-.28-.042.707.707 0 0 1-.5-.157 9.349 9.349 0 0 1-1.035-.9l-.136.153c.809.922 1.195 1.498 1.158 1.727a7.586 7.586 0 0 1-1.633 1.922l-.148.147a9.81 9.81 0 0 1-1.014.93.313.313 0 0 1-.433-.025l-1.931-1.934 2.6-2.6.348.348c.074.073.133.088.178.042.082-.122.144-.258.182-.4a.462.462 0 0 0-.055-.505l-.407-.339a9.304 9.304 0 0 1-.509-.475l-.916-.916.068-.238c.023-.113.018-.185-.013-.216a.289.289 0 0 0-.208-.038l-.882.136.068.628-.976.976-.11-1.79c-.036-.242.012-.49.136-.7.107-.136.14-.225.1-.267a.33.33 0 0 0-.233-.064l-.967.034.008.789-1.341 1.341-.212-.806a.825.825 0 0 1 0-.407c.034-.135.031-.223-.008-.263-.039-.04-.122-.042-.246-.008l-1 .221a18.766 18.766 0 0 1 1.875 6.016l.2-.068c0-.622-.023-1.193-.068-1.714l3.937 3.937a.766.766 0 0 0 .535.263.957.957 0 0 0 .577-.238c.204-.158.606-.537 1.205-1.137l.25-.251c.487-.49.893-.907 1.218-1.251a4.45 4.45 0 0 0 .675-.827 1.1 1.1 0 0 0 .068-.586.872.872 0 0 0-.122-.445l-.003-.003Zm-5.214-2.635 1.646 1.646-1.052 1.052-1.646-1.646 1.052-1.052Zm-3.216 2.385a21.117 21.117 0 0 0-.365-1.841l1.476-1.476.577 2.053-1.146 1.146-.542.118Zm.619.212 1.061-1.061 1.646 1.646-1.061 1.064-1.646-1.649ZM82.669 48.947c.229.062.443.167.632.31a.3.3 0 0 0 .424-.068.558.558 0 0 0 .182-.437.671.671 0 0 0-.216-.445.474.474 0 0 0-.509-.136 2.212 2.212 0 0 0-.45.178c-.181.09-.413.221-.7.39l.042.161c.2-.022.401-.006.595.047ZM80.866 51.827a10.16 10.16 0 0 1-.212-.144l-.119.136c.203.224.364.483.475.764.12.32.187.658.2 1 .01.161.078.313.19.429a.4.4 0 0 0 .318.148c.16-.009.303-.1.378-.242a.785.785 0 0 0 .03-.539 2.047 2.047 0 0 0-.259-.556 2.983 2.983 0 0 0-.53-.607L84 49.559v-.509l-2.93 2.93a2.466 2.466 0 0 0-.204-.153Z" fill-opacity=".26" fill="#000"/><path d="m74.94 69.225.883.221c.062.022.13.01.182-.03a.584.584 0 0 0 .1-.255c.075-.25.17-.492.284-.726l1.341-3-.161-.093-2.629 3.883ZM10.59 76.932a3.617 3.617 0 0 0-1.01.373l.025.178c.458.019.896.189 1.247.484.164.12.291.133.382.042a.364.364 0 0 0 .093-.187.744.744 0 0 0 .008-.255.991.991 0 0 0-.076-.272.753.753 0 0 0-.161-.238.586.586 0 0 0-.508-.125ZM.957 90.902c0-.622-.023-1.193-.068-1.714l3.937 3.937a.766.766 0 0 0 .535.263.957.957 0 0 0 .577-.238c.204-.159.606-.538 1.205-1.138l.25-.251c.487-.49.893-.907 1.218-1.251a4.45 4.45 0 0 0 .675-.827 1.1 1.1 0 0 0 .068-.585.85.85 0 0 0-.119-.441.3.3 0 0 0-.28-.042.707.707 0 0 1-.5-.157 9.349 9.349 0 0 1-1.035-.9l-.136.153c.81.923 1.198 1.5 1.162 1.729a7.586 7.586 0 0 1-1.633 1.922l-.148.148a9.81 9.81 0 0 1-1.014.93.313.313 0 0 1-.433-.025L3.283 90.48l2.6-2.6.348.348c.074.074.133.088.178.042.082-.122.144-.258.182-.4a.462.462 0 0 0-.055-.5l-.407-.339a9.304 9.304 0 0 1-.509-.475l-.92-.924.068-.238c.023-.113.018-.185-.013-.216a.289.289 0 0 0-.208-.038l-.883.136.068.628-.976.976-.11-1.79c-.036-.242.012-.49.136-.7.107-.136.14-.225.1-.267a.33.33 0 0 0-.233-.064l-.967.034.008.789-1.344 1.337-.212-.807a.825.825 0 0 1 0-.407c.034-.136.031-.223-.008-.263a.167.167 0 0 0-.126-.03v2.984c.355 1.064.607 2.16.753 3.271l.204-.065Zm3.063-4.879 1.646 1.646-1.052 1.052-1.646-1.646 1.052-1.052Zm.11 3.182-1.06 1.06-1.646-1.646 1.061-1.061 1.645 1.647Zm-2.214-4.116.577 2.053-1.146 1.146-.547.124a20.631 20.631 0 0 0-.365-1.841l1.481-1.482ZM9.534 81.069a7.2 7.2 0 0 0-.989-.912l-.084.135c.19.22.336.473.433.747.082.272.11.557.085.84a.677.677 0 0 0 .119.475c.076.106.2.167.331.161a.509.509 0 0 0 .4-.187.771.771 0 0 0 .051-.586 1.343 1.343 0 0 0-.346-.673Z" fill-opacity=".26" fill="#000"/><path d="M.49 94.491a.349.349 0 0 0 .076-.178 18.265 18.265 0 0 1 1.782-3.106L2.2 91.08l-1.841 2.2L0 90.998v3.4l.295.1c.096.03.161.027.195-.007ZM11.923 81.243c.168-.091.322-.205.458-.339.39-.368.757-.737 1.1-1.107.343-.37.701-.776 1.073-1.218.291-.341.44-.782.416-1.23 0-.113-.02-.184-.059-.212a.28.28 0 0 0-.212-.008 1.535 1.535 0 0 1-.284.038.674.674 0 0 1-.272-.051 1.412 1.412 0 0 1-.31-.182 5.065 5.065 0 0 1-.424-.365l-.119.136c.221.277.388.5.5.67.092.13.168.271.225.42a.388.388 0 0 1 0 .289c-.049.103-.107.2-.174.293-.096.13-.21.273-.344.429l-.42.488a21.821 21.821 0 0 1-.874.941c-.164.164-.289.232-.373.2.164-.56.311-1.129.441-1.706s.237-1.163.322-1.756c.025-.195.069-.387.131-.573.04-.13.095-.253.165-.369.068-.091.091-.156.068-.195-.023-.039-.1-.057-.229-.051l-.788.022c.003.646-.044 1.291-.14 1.93-.099.68-.25 1.434-.454 2.261l-1-1 .051-.221c.05-.175-.009-.229-.178-.161l-1.1.433c.057.045.12.1.191.165l.221.2.233.216c.08.074.146.139.2.195l1.112 1.112a28.037 28.037 0 0 1-.576 1.964c-.163.492-.352.975-.564 1.447l.17.085c.283-.464.54-.944.768-1.438.252-.554.471-1.121.658-1.7a.531.531 0 0 0 .391-.052Z" fill-opacity=".26" fill="#000"/><path d="M18.762 80.174a7.88 7.88 0 0 1-.424-.373 26.83 26.83 0 0 1-.628-.611l-.84-.84.068-.322c.028-.187-.039-.249-.2-.187l-1.146.45c.158.136.3.264.437.386s.256.239.369.352l1.273 1.273-1.756 1.756-1.735-1.731-.017-.322c0-.1-.016-.163-.047-.182-.031-.019-.092-.007-.182.038l-.967.56c.317.283.584.532.8.747l1.519 1.519-1.578 1.578-1.324-1.324.042-.28a.2.2 0 0 0-.013-.165c-.025-.037-.078-.044-.157-.021l-1.129.45c.158.136.293.256.4.361.107.105.222.214.335.327l.815.815c.068.068.144.147.229.238l.259.276a12.895 12.895 0 0 1 .437.497c.119.141.2.214.259.216.059.002.115-.075.182-.233.048-.1.089-.204.123-.31a.639.639 0 0 0 .034-.212.319.319 0 0 0-.055-.165 1.267 1.267 0 0 0-.144-.17l-.059-.059 3.963-3.963.407.407c.1.1.165.143.208.14.043-.003.092-.072.148-.208.056-.136.117-.245.148-.327a.72.72 0 0 0 .051-.195.132.132 0 0 0-.03-.106l-.075-.08ZM.94 96.282l.882.221c.06.02.127.009.178-.03a.584.584 0 0 0 .1-.255c.075-.25.17-.492.284-.726l1.341-3-.161-.093L.94 96.282ZM15.465 75.248a.918.918 0 0 0-.416-.025c-.242.033-.48.087-.713.161-.291.088-.669.221-1.133.4l.025.161c.393-.045.79-.037 1.18.025a5.2 5.2 0 0 1 1.146.331.5.5 0 0 0 .259.064.264.264 0 0 0 .157-.072c.09-.11.11-.26.051-.39a1.207 1.207 0 0 0-.322-.509.672.672 0 0 0-.234-.146ZM9.475 75.222a.549.549 0 0 0-.293 0 2.212 2.212 0 0 0-.45.178c-.181.09-.413.221-.7.39l.042.161c.198-.022.398-.006.59.047.229.062.443.167.632.31a.3.3 0 0 0 .424-.068.558.558 0 0 0 .182-.437.671.671 0 0 0-.216-.445.565.565 0 0 0-.211-.136Z" fill-opacity=".26" fill="#000"/><path d="m13.17 75.091.17-.034a5.162 5.162 0 0 1 .11-1.23c.057-.248.184-.474.365-.653.119-.107.161-.19.127-.246-.034-.056-.133-.082-.3-.076l-1.307.068.085.764-5.351 5.354a2.463 2.463 0 0 0-.2-.153 10.16 10.16 0 0 1-.212-.144l-.119.136c.203.224.364.483.475.764.12.32.187.658.2 1 .01.161.079.313.191.429a.394.394 0 0 0 .318.148c.16-.009.303-.1.378-.242a.785.785 0 0 0 .03-.539 2.047 2.047 0 0 0-.259-.556 2.984 2.984 0 0 0-.53-.607l5.414-5.414.415 1.231ZM48.312 53.946c.1.1.165.143.208.14.043-.003.092-.072.148-.208.056-.136.117-.245.148-.327a.72.72 0 0 0 .051-.195.132.132 0 0 0-.03-.106l-.076-.076a7.88 7.88 0 0 1-.424-.373 26.83 26.83 0 0 1-.628-.611l-.84-.84.068-.322c.028-.187-.039-.25-.2-.187l-1.146.45c.158.136.3.264.437.386s.256.239.369.352l1.273 1.273-1.76 1.756-1.731-1.731-.017-.322c0-.1-.016-.163-.047-.182-.031-.019-.092-.007-.182.038l-.967.56c.317.283.584.532.8.747l1.519 1.519-1.578 1.578-1.324-1.324.042-.28a.2.2 0 0 0-.013-.165c-.025-.037-.078-.044-.157-.021l-1.129.45c.158.136.293.256.4.361.107.105.222.214.335.327l.815.815c.068.068.144.147.229.238l.259.276a12.895 12.895 0 0 1 .437.497c.119.141.205.214.259.216.054.002.115-.075.182-.233.048-.1.089-.204.123-.31a.639.639 0 0 0 .034-.212.319.319 0 0 0-.055-.165 1.268 1.268 0 0 0-.144-.17l-.059-.059 3.959-3.963.412.403Z" fill-opacity=".26" fill="#000"/><path d="m39.937 57.348.17.085c.283-.464.54-.944.768-1.438.252-.554.471-1.121.658-1.7a.535.535 0 0 0 .39-.051c.168-.091.322-.205.458-.339.39-.368.757-.737 1.1-1.107.343-.37.701-.776 1.073-1.218.291-.341.44-.782.416-1.23 0-.113-.02-.184-.059-.212a.28.28 0 0 0-.212-.008 1.535 1.535 0 0 1-.284.038.674.674 0 0 1-.272-.051 1.412 1.412 0 0 1-.31-.182 5.064 5.064 0 0 1-.424-.365l-.119.136c.221.277.388.5.5.67.092.13.168.271.225.42a.388.388 0 0 1 0 .289c-.05.103-.107.2-.174.293-.096.133-.21.276-.344.429l-.42.488a21.821 21.821 0 0 1-.874.941c-.164.164-.289.232-.373.2.164-.56.311-1.129.441-1.706s.237-1.163.322-1.756c.025-.195.069-.387.131-.573.04-.13.095-.253.165-.369.068-.091.091-.156.068-.195-.023-.039-.1-.057-.229-.051l-.788.022c.003.646-.044 1.291-.14 1.93-.099.68-.25 1.434-.454 2.261l-1-1 .051-.221c.05-.175-.009-.228-.178-.161l-1.1.433c.057.045.12.1.191.165l.221.2.233.216c.079.074.145.139.2.195l1.112 1.112a33.196 33.196 0 0 1-.581 1.956 17.862 17.862 0 0 1-.558 1.454ZM38.669 49.003c.229.062.443.167.632.31a.306.306 0 0 0 .424-.068.558.558 0 0 0 .182-.437.671.671 0 0 0-.216-.445.474.474 0 0 0-.509-.136 2.212 2.212 0 0 0-.45.178c-.181.09-.413.221-.7.39l.042.161c.2-.022.401-.006.595.047Z" fill-opacity=".26" fill="#000"/><path d="M37.213 53.64c.01.161.079.313.191.429a.394.394 0 0 0 .318.148c.16-.009.303-.1.378-.242a.785.785 0 0 0 .03-.539 2.047 2.047 0 0 0-.259-.556 2.983 2.983 0 0 0-.53-.607l5.414-5.414.416 1.23.17-.034a5.162 5.162 0 0 1 .11-1.23c.057-.248.184-.474.365-.653.119-.107.161-.19.127-.246-.034-.056-.133-.082-.3-.076l-1.307.068.085.764-5.351 5.354a2.465 2.465 0 0 0-.2-.153 10.16 10.16 0 0 1-.212-.144l-.119.136c.203.224.364.483.475.764.12.32.187.659.199 1.001Z" fill-opacity=".26" fill="#000"/><path d="M39.878 54.743a1.333 1.333 0 0 0-.344-.675 7.2 7.2 0 0 0-.989-.912l-.085.136c.19.22.336.473.433.747.082.272.11.557.085.84a.677.677 0 0 0 .119.475c.076.106.2.167.331.161a.509.509 0 0 0 .4-.187.768.768 0 0 0 .05-.585ZM43.229 48.948a4.328 4.328 0 0 1 1.179.025 5.2 5.2 0 0 1 1.146.331.5.5 0 0 0 .259.064.264.264 0 0 0 .157-.072c.09-.11.11-.26.051-.39a1.207 1.207 0 0 0-.322-.509.665.665 0 0 0-.233-.148.918.918 0 0 0-.416-.025c-.242.033-.48.087-.713.161-.291.088-.669.221-1.133.4l.025.163ZM41.235 51.012a.364.364 0 0 0 .093-.187.744.744 0 0 0 .008-.255.991.991 0 0 0-.076-.272.753.753 0 0 0-.161-.238.581.581 0 0 0-.509-.127 3.617 3.617 0 0 0-1.01.373l.026.178c.458.019.896.189 1.247.484.165.118.292.132.382.044ZM30.94 69.282l.882.221c.062.022.13.01.182-.03a.584.584 0 0 0 .1-.255c.075-.249.17-.491.284-.725l1.341-3-.161-.093-2.628 3.882Z" fill-opacity=".26" fill="#000"/><path d="M39.353 62.099a.85.85 0 0 0-.119-.441.3.3 0 0 0-.28-.042.712.712 0 0 1-.5-.157 9.35 9.35 0 0 1-1.035-.9l-.136.153c.809.922 1.195 1.498 1.158 1.727a7.586 7.586 0 0 1-1.633 1.922l-.148.148a9.81 9.81 0 0 1-1.014.93.313.313 0 0 1-.433-.025l-1.935-1.935 2.6-2.6.348.348c.074.074.133.088.178.042.082-.122.144-.258.182-.4a.462.462 0 0 0-.055-.505l-.407-.339a9.304 9.304 0 0 1-.509-.475l-.916-.916.068-.238c.023-.113.018-.185-.013-.216a.289.289 0 0 0-.208-.038l-.883.136.068.628-.976.976-.11-1.79c-.036-.242.012-.49.136-.7.107-.136.14-.225.1-.267a.33.33 0 0 0-.233-.064l-.967.034.008.789-1.341 1.341-.212-.811a.825.825 0 0 1 0-.407c.034-.136.031-.223-.008-.263-.039-.04-.122-.042-.246-.008l-1 .221a18.766 18.766 0 0 1 1.875 6.016l.2-.068c0-.622-.023-1.193-.068-1.714l3.937 3.937a.766.766 0 0 0 .535.263.957.957 0 0 0 .577-.238c.205-.16.607-.541 1.206-1.141l.25-.251c.487-.49.893-.907 1.218-1.251.257-.248.484-.525.675-.827a1.13 1.13 0 0 0 .066-.584Zm-5.333-3.076 1.646 1.646-1.052 1.052-1.646-1.646 1.052-1.052Zm-3.22 2.389a21.117 21.117 0 0 0-.365-1.841l1.476-1.476.577 2.053-1.146 1.146-.542.118Zm.62.212 1.061-1.061 1.646 1.646-1.057 1.056-1.65-1.641Z" fill-opacity=".26" fill="#000"/><path d="m32.2 64.08-1.841 2.2-.45-2.826a38.779 38.779 0 0 1-.208-1.515.908.908 0 0 1 .038-.4c.04-.1.041-.163 0-.2-.041-.037-.109-.047-.216-.03l-.984.1c.28.696.521 1.407.721 2.13L28 64.852c-.322-1.409-.519-2.352-.59-2.83a1.782 1.782 0 0 1 0-.912c.079-.158.1-.256.064-.293-.036-.037-.109-.047-.216-.03l-1.154.1c.333.69.622 1.4.865 2.125.204.546.363 1.108.475 1.68.043.271.014.55-.085.806l.636.263c.074.028.127.025.161-.008a.546.546 0 0 0 .1-.17 8.832 8.832 0 0 1 1.095-1.74c.107.4.215.861.322 1.383.107.52.171.856.191 1 .018.178.005.357-.038.53a1.31 1.31 0 0 1-.212.5l.679.238c.1.028.161.025.195-.008a.345.345 0 0 0 .076-.178 18.265 18.265 0 0 1 1.782-3.106l-.146-.122ZM62.94 38.225l.883.221a.192.192 0 0 0 .177-.034.584.584 0 0 0 .1-.255c.075-.25.17-.492.284-.726l1.341-3-.161-.093-2.624 3.887ZM78.026 20.619c.133.122.256.24.369.352l1.273 1.273L77.912 24l-1.731-1.731-.017-.322c0-.1-.016-.163-.047-.182-.031-.019-.092-.007-.182.038l-.967.56c.317.283.584.532.8.747l1.519 1.519-1.578 1.578-1.324-1.324.042-.28a.2.2 0 0 0-.013-.165c-.025-.037-.078-.044-.157-.021l-1.129.45c.158.136.293.256.4.361.107.105.222.214.335.327l.815.815c.068.068.144.147.229.238l.259.276a12.895 12.895 0 0 1 .437.497c.119.141.205.214.259.216.054.002.115-.075.182-.233.048-.1.089-.204.123-.31a.639.639 0 0 0 .034-.212.319.319 0 0 0-.055-.165 1.267 1.267 0 0 0-.144-.17l-.059-.059 3.963-3.963.407.407c.1.1.165.143.208.14.043-.003.092-.072.148-.208.056-.136.117-.245.148-.327a.72.72 0 0 0 .051-.195.132.132 0 0 0-.03-.106l-.076-.076a7.88 7.88 0 0 1-.424-.373 26.83 26.83 0 0 1-.628-.611l-.84-.84.068-.322c.028-.187-.039-.25-.2-.187l-1.146.45c.158.132.3.261.437.382h-.003ZM64.205 33.023l-1.841 2.2-.45-2.826a38.779 38.779 0 0 1-.208-1.515.906.906 0 0 1 .038-.4c.04-.1.041-.163 0-.2-.041-.037-.109-.047-.216-.03l-.984.1c.28.696.521 1.407.721 2.13l-1.264 1.315c-.322-1.41-.519-2.353-.59-2.83a1.782 1.782 0 0 1 0-.912c.079-.158.1-.256.064-.293-.036-.037-.109-.047-.216-.03l-1.154.1c.33.688.616 1.397.857 2.121.204.546.363 1.108.475 1.68.043.271.014.55-.085.806l.648.263c.073.028.127.025.161-.008a.546.546 0 0 0 .1-.17 8.8 8.8 0 0 1 1.1-1.739c.107.4.214.861.322 1.383.107.52.171.856.191 1.006.018.178.005.357-.038.53a1.31 1.31 0 0 1-.212.5l.679.238c.1.028.161.025.195-.008a.345.345 0 0 0 .076-.178 18.265 18.265 0 0 1 1.782-3.106l-.151-.127ZM71.878 23.687a1.33 1.33 0 0 0-.344-.675 7.2 7.2 0 0 0-.989-.912l-.085.136c.19.22.336.473.433.747.082.272.11.557.085.84a.677.677 0 0 0 .119.475c.076.106.2.167.331.161a.509.509 0 0 0 .4-.187.769.769 0 0 0 .05-.585Z" fill-opacity=".26" fill="#000"/><path d="M71.286 31.628c.075-.186.099-.388.068-.586a.85.85 0 0 0-.119-.441.3.3 0 0 0-.28-.042.707.707 0 0 1-.5-.157 9.349 9.349 0 0 1-1.035-.9l-.136.153c.809.922 1.195 1.498 1.158 1.727a7.587 7.587 0 0 1-1.633 1.922l-.148.147a9.81 9.81 0 0 1-1.014.93.313.313 0 0 1-.433-.025l-1.931-1.934 2.6-2.6.348.348c.074.074.133.088.178.042.082-.122.144-.258.182-.4a.462.462 0 0 0-.055-.5l-.407-.339a9.304 9.304 0 0 1-.509-.475l-.916-.916.068-.238c.023-.113.018-.185-.013-.216a.289.289 0 0 0-.208-.038l-.882.136.068.628-.976.976-.11-1.79c-.036-.242.012-.49.136-.7.107-.136.14-.225.1-.267a.33.33 0 0 0-.233-.064l-.967.034.008.789-1.341 1.341-.212-.806a.825.825 0 0 1 0-.407c.034-.135.031-.223-.008-.263-.039-.04-.122-.042-.246-.008l-1 .221a18.766 18.766 0 0 1 1.875 6.016l.2-.068c0-.622-.023-1.193-.068-1.714l3.937 3.937a.766.766 0 0 0 .535.263.957.957 0 0 0 .577-.238c.204-.16.606-.538 1.205-1.137l.25-.251c.487-.49.893-.907 1.218-1.251.255-.253.48-.534.669-.839Zm-5.265-3.662 1.646 1.646-1.052 1.052-1.646-1.646 1.052-1.052Zm-3.216 2.385a20.536 20.536 0 0 0-.365-1.841l1.476-1.476.577 2.053-1.146 1.146-.542.118Zm.619.212 1.061-1.061 1.646 1.646-1.061 1.064-1.646-1.649ZM73.236 19.953a.364.364 0 0 0 .093-.187.744.744 0 0 0 .008-.255.984.984 0 0 0-.076-.271.77.77 0 0 0-.161-.238.581.581 0 0 0-.509-.127 3.617 3.617 0 0 0-1.01.373l.025.178c.458.019.896.189 1.247.484.165.12.292.134.383.043Z" fill-opacity=".26" fill="#000"/><path d="m71.938 26.292.17.085c.283-.464.54-.944.768-1.438.252-.554.471-1.121.658-1.7a.535.535 0 0 0 .39-.051c.168-.091.322-.205.458-.339.39-.368.757-.737 1.1-1.107.343-.37.701-.776 1.073-1.218.29-.342.44-.782.416-1.23 0-.113-.02-.184-.059-.212a.28.28 0 0 0-.212-.008 1.535 1.535 0 0 1-.284.038.674.674 0 0 1-.272-.051 1.412 1.412 0 0 1-.31-.182 5.263 5.263 0 0 1-.424-.365l-.119.136c.221.277.388.5.5.67.092.13.168.271.225.42a.386.386 0 0 1 0 .288c-.05.103-.107.2-.174.293-.096.13-.21.273-.344.428l-.42.488a21.821 21.821 0 0 1-.874.941c-.164.164-.289.232-.373.2.164-.56.311-1.129.441-1.706s.237-1.163.322-1.756c.025-.195.069-.387.132-.573.04-.13.095-.253.165-.369.068-.091.091-.156.068-.195-.023-.039-.1-.057-.229-.051l-.789.025c.003.646-.044 1.291-.14 1.93-.099.682-.25 1.436-.454 2.261l-1-1 .051-.221c.051-.175-.008-.228-.178-.161l-1.1.433c.057.045.12.1.191.165l.221.2.233.216c.08.074.146.139.2.195l1.112 1.112a33.506 33.506 0 0 1-.581 1.956c-.179.53-.365 1.014-.558 1.453Z" fill-opacity=".26" fill="#000"/><path d="M69.214 22.584c.01.16.075.312.186.428a.4.4 0 0 0 .318.148c.16-.009.303-.1.378-.242a.785.785 0 0 0 .03-.539 2.047 2.047 0 0 0-.259-.556 2.983 2.983 0 0 0-.53-.607l5.414-5.414.416 1.23.17-.034a5.162 5.162 0 0 1 .11-1.23 1.33 1.33 0 0 1 .365-.653c.119-.107.161-.19.127-.246-.034-.056-.133-.082-.3-.076l-1.307.068.085.764-5.354 5.354a2.464 2.464 0 0 0-.2-.153c-.068-.046-.139-.093-.212-.144l-.119.136c.203.224.364.483.475.764.121.321.191.66.207 1.002Z" fill-opacity=".26" fill="#000"/><path d="M70.669 17.947c.229.062.443.167.632.31a.3.3 0 0 0 .424-.068.558.558 0 0 0 .182-.437.671.671 0 0 0-.216-.445.474.474 0 0 0-.509-.136 2.212 2.212 0 0 0-.45.178c-.181.09-.413.221-.7.39l.042.161c.2-.022.401-.006.595.047ZM75.23 17.891a4.328 4.328 0 0 1 1.179.025c.393.066.778.178 1.146.331a.5.5 0 0 0 .259.064.264.264 0 0 0 .157-.072c.09-.11.11-.26.051-.39a1.207 1.207 0 0 0-.322-.509.665.665 0 0 0-.233-.148.918.918 0 0 0-.416-.025c-.242.033-.48.087-.713.161-.291.088-.669.221-1.133.4l.025.163Z" fill-opacity=".26" fill="#000"/></g></svg>