<svg width="84" height="100" xmlns="http://www.w3.org/2000/svg"><g fill-rule="nonzero" fill="none"><rect fill="#FFF" width="84" height="100" rx="2"/><path d="M31.632 75.323c.113-.113.236-.42.368-.919.132-.5.134-.917.007-1.251-.127-.335-.502-.814-1.124-1.436l-7.1-7.1.142-.735c.019-.132.002-.224-.05-.275-.052-.052-.153-.069-.304-.05l-1.74.24.156 1.457-3.465 3.465a39.142 39.142 0 0 0-1.173-1.414c-.34-.387-.55-.686-.63-.898a.974.974 0 0 1-.042-.608c.052-.194.052-.316 0-.368-.052-.052-.186-.026-.403.078l-2.022.778c1.48 1.442 2.583 2.573 3.309 3.394l-3.21 3.21-2.051.58c.537.48 1.051.966 1.541 1.456l6.308 6.308a39.907 39.907 0 0 1 2.135 2.305c.227.264.39.346.488.247.1-.099.215-.299.347-.6.132-.302.195-.503.19-.602-.004-.099-.058-.2-.162-.304l-8.697-8.697 3.493-3.493c1.32 1.546 2.194 3.024 2.623 4.433.429 1.41.497 3.1.205 5.07l.325.071c.472-1.735.66-3.196.566-4.384-.094-1.188-.457-2.371-1.089-3.55a16.345 16.345 0 0 1 2.75.036c.958.09 1.66.212 2.108.367.448.156.752.243.912.262.16.019.283-.014.368-.099.16-.16.198-.391.113-.693a1.751 1.751 0 0 0-.453-.778c-.697-.697-2.691-.523-5.982.523-.349-.65-.848-1.385-1.499-2.206l3.734-3.733 7.297 7.297c.245.245.372.453.382.622.01.17-.142.41-.453.722-.31.31-.957.853-1.937 1.626l.198.283c.886-.547 1.55-.858 1.994-.934.443-.075.825.02 1.145.283.142.123.27.128.382.014Zm-3.017-19.469c.118-.117.163-.35.135-.7-.029-.348-.151-.631-.368-.848-.547-.547-1.47-.377-2.772.509l.028.311c.764.028 1.509.273 2.235.735.17.114.306.17.41.17.104 0 .214-.059.332-.177Zm15.74 7.34c.08-.08.189-.283.326-.608.136-.325.193-.542.17-.65a.616.616 0 0 0-.177-.305 30.165 30.165 0 0 0-.75-.693c-.405-.367-1.103-1.046-2.093-2.036l-8.287-8.287 1.994-1.994 2.772 5.402a5.721 5.721 0 0 1 2.863.05c.948.259 1.672.638 2.171 1.138.293.292.406.547.34.764-.066.216-.245.471-.538.763-.292.293-.792.698-1.499 1.217l.156.24c.848-.396 1.428-.613 1.74-.65.31-.038.697.06 1.159.296.198.104.337.116.417.036.08-.08.17-.373.269-.877a3.173 3.173 0 0 0-.014-1.4c-.109-.43-.418-.898-.927-1.407-1.32-1.32-3.252-1.631-5.798-.934l-1.57-4.341c-.235-.65-.235-1.198 0-1.64.113-.19.146-.307.1-.354-.048-.048-.175-.062-.383-.043l-1.838.057.057 1.47-1.584 1.584-2.093.425c.858.782 1.664 1.55 2.418 2.305l6.802 6.802c.425.425.978 1.002 1.662 1.733.684.73 1.14 1.235 1.372 1.513.23.278.396.438.495.48.099.043.188.024.268-.056Zm-18.264-3.401c.15-.34.424-.707.82-1.103l5.671-5.671c.132-.132.18-.217.142-.255-.038-.037-.132-.066-.283-.085l-1.895-.17.141 1.641-4.469 4.47c-.424.423-.848.791-1.273 1.102l1.146.071Zm5.042.983c.146-.146.176-.38.091-.7-.084-.32-.278-.632-.58-.934-.301-.301-.77-.492-1.406-.572-.637-.08-1.38-.017-2.228.19l.028.255c.49.076.97.229 1.436.46.467.23.921.53 1.365.898.443.368.733.563.87.587.136.023.277-.038.424-.184Zm-1.917 3.302c.18-.387.453-.764.82-1.131l6.548-6.548c.123-.123.165-.203.128-.24-.038-.038-.114-.067-.227-.085l-1.937-.184.155 1.654-1.527 1.528c-.358-1.528-.577-2.53-.658-3.005-.08-.477-.082-.8-.007-.97.076-.169.092-.275.05-.317-.043-.043-.158-.036-.347.02l-1.612.538c.641 1.037 1.339 2.442 2.093 4.215l-3.337 3.337a12.94 12.94 0 0 1-1.259 1.117l1.117.071Zm7.722 5.091c.094-.094.2-.276.318-.544.118-.269.165-.462.142-.58-.024-.118-.107-.248-.248-.389l-.905-.905 2.8-2.8 1.032 1.032c.132.132.236.16.312.085.075-.075.17-.33.282-.764.114-.433.095-.726-.056-.876l-.736-.651c-.292-.255-.589-.533-.89-.834l-1.768-1.768.07-.637a.19.19 0 0 0-.056-.17c-.047-.046-.123-.065-.226-.056l-1.768.127.155 1.174-2.489 2.49-1.937.381a48.148 48.148 0 0 1 1.796 1.711l1.74 1.74c.443.443 1.037 1.112 1.781 2.008.255.33.472.405.65.226Zm1.725-5.6-2.8 2.8-2.73-2.73 2.8-2.8 2.73 2.73Zm5.956-18.571c.217-1.82.217-3.281 0-4.384l4.413-4.412.792 2.036.31-.085c-.075-1.112-.089-1.82-.042-2.121.048-.302.2-.592.46-.87s.358-.448.297-.509-.205-.083-.431-.064l-1.98.142.141 1.188-4.087 4.087c-.122-.613-.193-1.028-.212-1.245a1.178 1.178 0 0 1 .078-.572c.07-.165.082-.272.035-.319-.047-.047-.17-.037-.368.029l-1.47.622c.594 1.122.994 2.102 1.202 2.941.207.84.386 2.051.537 3.635l.325-.1Zm-3.81-.149c.202-.202.284-.46.247-.77a1.312 1.312 0 0 0-.382-.792c-.566-.566-1.537-.359-2.914.622l.071.269c.924-.076 1.631.094 2.122.509.367.31.652.365.855.162Zm4.008 5.127c.236-.236.316-.471.24-.707-.075-.236-.32-.561-.735-.976-.414-.415-.693-.797-.834-1.145-.141-.35-.25-.816-.325-1.4l-.481-4.215-.283.028-.07 4.738c-.02.434-.142.764-.368.99-.227.226-.58.476-1.06.75l.225.31c.415-.188.748-.285.997-.29a.877.877 0 0 1 .658.276c.189.19.372.462.551.82.18.359.345.614.495.764.35.35.68.368.99.057Zm9.56-10.663c.057-.057.052-.137-.014-.24-.32-.453-.292-1.038.085-1.754l-.17-.17c-2.347 2.348-4.633 3.144-6.858 2.39.009-.122.056-.26.141-.41.085-.15.101-.252.05-.304-.052-.052-.163-.04-.333.035l-1.499.736c.952 1.48 1.417 2.746 1.393 3.797-.023 1.051-.412 2.34-1.167 3.868l.297.127c1.056-1.622 1.667-2.897 1.832-3.825.165-.93-.045-2.129-.63-3.6.915.443 1.766.663 2.553.658.787-.005 1.674-.193 2.659-.566.985-.372 1.539-.62 1.662-.742Zm-4.461 13.286c.08-.08.179-.278.297-.594.117-.315.172-.52.162-.615-.01-.094-.07-.198-.184-.31l-3.167-3.169 5.161-5.162 3.395 3.394c.113.114.202.137.268.071.066-.066.184-.306.354-.721.17-.415.193-.684.07-.806l-.608-.495a8.222 8.222 0 0 1-.735-.65l-1.414-1.415.184-.806c.047-.141.047-.236 0-.283-.047-.047-.137-.052-.269-.014l-1.853.382.17 1.018-4.95 4.95-1.782.566c.519.461.957.872 1.316 1.23l1.88 1.88c.283.284.543.552.778.807l.566.622c.16.16.28.2.36.12Zm-.191 4.35c.97-1.142 1.76-2.261 2.369-3.36.608-1.098.914-2.192.919-3.28.005-1.09-.446-2.36-1.35-3.812-.274-.443-.378-.74-.312-.89.066-.152.068-.258.007-.32-.061-.06-.181-.049-.36.036l-1.556.622c1.716 1.886 2.55 3.569 2.503 5.05-.047 1.48-.881 3.426-2.503 5.84l.283.113Zm10.21-10.212c.104-.103.128-.264.071-.48-.056-.217-.203-.444-.438-.68-.311-.31-.964-.26-1.959.15-.995.41-2.317 1.25-3.967 2.524l.113.367c2.461-1.14 4.196-1.668 5.205-1.584.414.038.74-.06.975-.297Zm6.098-5.956c.057-.056.16-.301.311-.735s.123-.754-.085-.962a55.542 55.542 0 0 0-.7-.643 70.333 70.333 0 0 1-2.043-1.987l-3.027-3.027c.453-.019.934.005 1.443.071.509.066.888.149 1.138.248.25.099.498.025.743-.22s.108-.627-.41-1.145c-.519-.519-1.59-.269-3.21.75l-.779-.778 2.447-2.447c.132-.132.172-.224.12-.276-.052-.052-.158-.092-.318-.12l-1.725-.141.141 1.555-1.046 1.047-4.13-4.13.283-.594c.094-.188.113-.31.057-.367-.057-.057-.17-.048-.34.028l-2.107.806c.65.556 1.457 1.315 2.418 2.277l2.9 2.899-1.797 1.796c-.424.424-.843.787-1.258 1.089l1.131.113c.141-.349.41-.721.806-1.117l1.259-1.259a25.148 25.148 0 0 1 2.22 7.934l.311-.028c.057-1.019.005-2.178-.155-3.48-.16-1.3-.392-2.375-.693-3.224l2.347 2.348c.67.67 1.306 1.343 1.91 2.022l1.414 1.556c.188.188.33.236.424.141Zm7.177-6.753c.1-.099.212-.381.34-.848.127-.467.11-.78-.05-.94-.028-.029-.26-.241-.693-.637a71.145 71.145 0 0 1-2.05-1.994l-1.627-1.626 1.584-2.291c.15-.208.198-.34.141-.396-.056-.057-.212-.071-.466-.043l-1.612.17.396 1.442-.467.693-6.647-6.646.141-.538c.048-.217.045-.351-.007-.403-.051-.052-.162-.04-.332.035l-2.05.778a71.117 71.117 0 0 1 2.39 2.277l5.685 5.685-3.182 4.54c-.255.368-.58.806-.976 1.315l1.131-.113c.066-.349.26-.768.58-1.259l2.857-4.073 1.145 1.146c.604.603 1.221 1.25 1.853 1.937l1.4 1.57c.245.245.417.318.516.22Zm-14.319-2.906c-.254-2.593-.316-4.03-.184-4.313.085-.16.109-.26.071-.297-.038-.038-.132-.047-.283-.028l-1.555.226c.773 1.678 1.338 3.177 1.697 4.497l.254-.085Zm3.606-4.964c.151-.15.206-.365.163-.643a1.314 1.314 0 0 0-.389-.743 1.29 1.29 0 0 0-.764-.382c-.292-.037-.7-.002-1.223.107a8.015 8.015 0 0 0-1.661.558l.042.212c1.15-.037 2.121.245 2.913.849.377.264.684.278.92.042Zm-6.067 7.566c.132-.132.184-.334.156-.608-.028-.273-.165-.532-.41-.778-.245-.245-.714-.436-1.407-.572-.693-.137-1.53-.168-2.51-.092l-.015.268c1.254.368 2.31.896 3.168 1.584.434.377.773.443 1.018.198Zm8.924-3.832c.123-.123.193-.32.212-.594.02-.274-.08-.519-.297-.736-.575-.575-1.767-.551-3.578.071l.1.212c.518.047.963.125 1.336.234.372.108.787.32 1.244.636.458.316.785.375.983.177Z" fill-opacity=".26" fill="#000"/></g></svg>