<svg width="100" height="100" viewBox="0 0 100 100" fill="none" xmlns="http://www.w3.org/2000/svg">
<path d="M13.9004 19.6C13.9004 15.4026 17.303 12 21.5004 12H66.9504V26.25H13.9004V19.6Z" fill="#B4C0CF" fill-opacity="0.4"/>
<path fill-rule="evenodd" clip-rule="evenodd" d="M86.1004 26.25H13.9004V80.4C13.9004 84.5974 17.303 88 21.5004 88H78.5004C82.6978 88 86.1004 84.5974 86.1004 80.4V26.25ZM52.597 40H47.6461C46.1198 40 44.9101 40.8724 45.0053 41.9044L47.3205 61.413C47.4077 62.3578 48.5641 63.0938 49.9614 63.0938H50.2818C51.679 63.0938 52.8355 62.3578 52.9226 61.413L55.2379 41.9044C55.3331 40.8724 54.1233 40 52.597 40ZM54.1261 69.8683C54.1261 72.1311 52.2917 73.9656 50.0289 73.9656C47.766 73.9656 45.9316 72.1311 45.9316 69.8683C45.9316 67.6054 47.766 65.771 50.0289 65.771C52.2917 65.771 54.1261 67.6054 54.1261 69.8683Z" fill="#8399B5" fill-opacity="0.4"/>
<path d="M66.9502 12H78.5002C82.6976 12 86.1002 15.4026 86.1002 19.6V26.25H66.9502V12Z" fill="#6682A3" fill-opacity="0.43"/>
<path opacity="0.5" fill-rule="evenodd" clip-rule="evenodd" d="M47.6461 40H52.597C54.1233 40 55.3331 40.8724 55.2379 41.9044L52.9226 61.413C52.8355 62.3578 51.679 63.0938 50.2818 63.0938H49.9614C48.5641 63.0938 47.4077 62.3578 47.3205 61.413L45.0053 41.9044C44.9101 40.8724 46.1198 40 47.6461 40ZM50.0289 73.9656C52.2917 73.9656 54.1261 72.1311 54.1261 69.8683C54.1261 67.6054 52.2917 65.771 50.0289 65.771C47.766 65.771 45.9316 67.6054 45.9316 69.8683C45.9316 72.1311 47.766 73.9656 50.0289 73.9656Z" fill="white" fill-opacity="0.8"/>
</svg>
