<svg width="100" height="100" viewBox="0 0 100 100" fill="none" xmlns="http://www.w3.org/2000/svg">
<path fill-rule="evenodd" clip-rule="evenodd" d="M96.7836 42.4116C98.9017 40.2934 99.131 36.9075 97.1039 34.702C96.4888 34.0328 95.8569 33.3736 95.2081 32.7248C70.2417 7.7584 29.7633 7.7584 4.79688 32.7248C4.2154 33.3063 3.64746 33.8962 3.09306 34.4941C1.05007 36.6975 1.27305 40.0964 3.39774 42.221L12.589 51.4123C21.7785 42.7042 33.2147 37.7364 44.9677 36.5089L44.1867 29.9282C44.0769 28.7374 45.4728 27.7307 47.234 27.7307H52.9468C54.708 27.7307 56.1039 28.7374 55.9941 29.9282L55.2278 36.3848C67.1941 37.3425 78.9093 42.1635 88.3473 50.8477L96.7836 42.4116Z" fill="#B4C0CF" fill-opacity="0.4"/>
<path opacity="0.5" fill-rule="evenodd" clip-rule="evenodd" d="M47.234 27.7307H52.9468C54.708 27.7307 56.1039 28.7374 55.9941 29.9282L53.3225 52.4391C53.2219 53.5292 51.8875 54.3785 50.2753 54.3785H49.9055C48.2933 54.3785 46.9589 53.5292 46.8583 52.4391L44.1867 29.9282C44.0769 28.7374 45.4728 27.7307 47.234 27.7307ZM49.9835 66.9233C52.5946 66.9233 54.7113 64.8066 54.7113 62.1955C54.7113 59.5844 52.5946 57.4677 49.9835 57.4677C47.3724 57.4677 45.2557 59.5844 45.2557 62.1955C45.2557 64.8066 47.3724 66.9233 49.9835 66.9233Z" fill="white" fill-opacity="0.8"/>
<path fill-rule="evenodd" clip-rule="evenodd" d="M54.7113 62.1954C54.7113 64.8065 52.5946 66.9232 49.9835 66.9232C47.3724 66.9232 45.2557 64.8065 45.2557 62.1954C45.2557 60.1115 46.6039 58.3426 48.4756 57.7131C40.8883 58.0727 33.3948 60.8636 27.2627 66.0858L45.9882 84.8113C48.3065 87.1296 52.0652 87.1296 54.3835 84.8113L73.0852 66.1097C66.8392 60.7793 59.1768 57.9749 51.4403 57.6963C53.3385 58.3105 54.7113 60.0926 54.7113 62.1954Z" fill="#6682A3" fill-opacity="0.43"/>
<path fill-rule="evenodd" clip-rule="evenodd" d="M44.9677 36.5089C33.2147 37.7364 21.7783 42.7042 12.5889 51.4124L27.2627 66.0858C33.3948 60.8637 40.8883 58.0728 48.4756 57.7132C48.9491 57.5539 49.4562 57.4676 49.9835 57.4676C50.4918 57.4676 50.9814 57.5478 51.4403 57.6963C59.1768 57.9749 66.8392 60.7794 73.0852 66.1097L88.3473 50.8476C78.9093 42.1634 67.1941 37.3424 55.2278 36.3848L53.3225 52.439C53.2219 53.5291 51.8875 54.3784 50.2753 54.3784H49.9055C48.2933 54.3784 46.9589 53.5291 46.8583 52.439L44.9677 36.5089Z" fill="#8399B5" fill-opacity="0.4"/>
</svg>
