<svg viewBox="0 0 16 16" fill="none" xmlns="http://www.w3.org/2000/svg">
<g clip-path="url(#clip0_2461_29651)">
<path opacity="0.2" d="M15.5 0H9.5C9.22386 0 9 0.223858 9 0.5V12.5C9 12.7761 9.22386 13 9.5 13H15.5C15.7761 13 16 12.7761 16 12.5V0.5C16 0.223858 15.7761 0 15.5 0Z" fill="#4F87FE"/>
<path d="M6 6V0.5C6 0.367392 6.05268 0.240215 6.14645 0.146447C6.24021 0.0526784 6.36739 0 6.5 0C6.63261 0 6.75979 0.0526784 6.85355 0.146447C6.94732 0.240215 7 0.367392 7 0.5V12.5C7 12.6326 6.94732 12.7598 6.85355 12.8536C6.75979 12.9473 6.63261 13 6.5 13C6.36739 13 6.24021 12.9473 6.14645 12.8536C6.05268 12.7598 6 12.6326 6 12.5V7H1V11.293L4.854 15.147C4.94508 15.2413 4.99548 15.3676 4.99434 15.4987C4.9932 15.6298 4.94061 15.7552 4.84791 15.8479C4.75521 15.9406 4.6298 15.9932 4.4987 15.9943C4.3676 15.9955 4.2413 15.9451 4.147 15.854L0.147 11.854C0.100418 11.8076 0.0634551 11.7524 0.0382303 11.6916C0.0130055 11.6309 1.39347e-05 11.5658 0 11.5L0 6.5C0 6.36739 0.0526784 6.24021 0.146447 6.14645C0.240215 6.05268 0.367392 6 0.5 6H6ZM9 0.5C9 0.367392 9.05268 0.240215 9.14645 0.146447C9.24021 0.0526784 9.36739 0 9.5 0L15.5 0C15.6326 0 15.7598 0.0526784 15.8536 0.146447C15.9473 0.240215 16 0.367392 16 0.5V12.5C16 12.6326 15.9473 12.7598 15.8536 12.8536C15.7598 12.9473 15.6326 13 15.5 13H9.5C9.36739 13 9.24021 12.9473 9.14645 12.8536C9.05268 12.7598 9 12.6326 9 12.5V0.5ZM10 1V12H15V1H10Z" fill="#3B64FC"/>
</g>
<defs>
<clipPath id="clip0_2461_29651">
<rect width="16" height="16" fill="white"/>
</clipPath>
</defs>
</svg>
