<svg viewBox="0 0 16 16" fill="none" xmlns="http://www.w3.org/2000/svg">
<g clip-path="url(#clip0_2461_29645)">
<path opacity="0.2" d="M15.5 1H9.5C9.22386 1 9 1.22386 9 1.5V13.5C9 13.7761 9.22386 14 9.5 14H15.5C15.7761 14 16 13.7761 16 13.5V1.5C16 1.22386 15.7761 1 15.5 1Z" fill="#4F87FE"/>
<path d="M7 7.506V13.5C7 13.6326 6.94732 13.7598 6.85356 13.8536C6.75979 13.9473 6.63261 14 6.5 14C6.36739 14 6.24022 13.9473 6.14645 13.8536C6.05268 13.7598 6 13.6326 6 13.5V9L0.900002 15.8C0.820437 15.9061 0.701988 15.9762 0.570713 15.995C0.439437 16.0137 0.306089 15.9796 0.200002 15.9C0.0939154 15.8204 0.0237809 15.702 0.0050273 15.5707C-0.0137263 15.4394 0.0204371 15.3061 0.100002 15.2L6 7.333V1.5C6 1.36739 6.05268 1.24021 6.14645 1.14645C6.24022 1.05268 6.36739 1 6.5 1C6.63261 1 6.75979 1.05268 6.85356 1.14645C6.94732 1.24021 7 1.36739 7 1.5V7.506ZM9 1.5C9 1.36739 9.05268 1.24021 9.14645 1.14645C9.24022 1.05268 9.36739 1 9.5 1H15.5C15.6326 1 15.7598 1.05268 15.8536 1.14645C15.9473 1.24021 16 1.36739 16 1.5V13.5C16 13.6326 15.9473 13.7598 15.8536 13.8536C15.7598 13.9473 15.6326 14 15.5 14H9.5C9.36739 14 9.24022 13.9473 9.14645 13.8536C9.05268 13.7598 9 13.6326 9 13.5V1.5ZM10 13H15V2H10V13Z" fill="#3B64FC"/>
</g>
<defs>
<clipPath id="clip0_2461_29645">
<rect width="16" height="16" fill="white"/>
</clipPath>
</defs>
</svg>
