<svg viewBox="0 0 16 16" fill="none" xmlns="http://www.w3.org/2000/svg">
<path opacity="0.2" d="M8.707 13L5.878 14.829C5.72416 14.9829 5.52813 15.0877 5.3147 15.1302C5.10127 15.1727 4.88004 15.1509 4.679 15.0676C4.47796 14.9843 4.30613 14.8433 4.18527 14.6623C4.0644 14.4814 3.99993 14.2686 4 14.051V13H1.5C1.10218 13 0.720644 12.842 0.43934 12.5607C0.158035 12.2794 0 11.8978 0 11.5L0 3.5C0 3.10218 0.158035 2.72064 0.43934 2.43934C0.720644 2.15804 1.10218 2 1.5 2H13.5C13.8978 2 14.2794 2.15804 14.5607 2.43934C14.842 2.72064 15 3.10218 15 3.5V11.5C15 11.8978 14.842 12.2794 14.5607 12.5607C14.2794 12.842 13.8978 13 13.5 13H8.707Z" fill="#4F87FE"/>
<path fill-rule="evenodd" clip-rule="evenodd" d="M8.41189 12H13.5C13.6326 12 13.7598 11.9473 13.8536 11.8536C13.9473 11.7598 14 11.6326 14 11.5V3.5C14 3.36739 13.9473 3.24021 13.8536 3.14645C13.7598 3.05268 13.6326 3 13.5 3H1.5C1.36739 3 1.24021 3.05268 1.14645 3.14645C1.05268 3.24021 1 3.36739 1 3.5V11.5C1 11.6326 1.05268 11.7598 1.14645 11.8536C1.24021 11.9473 1.36739 12 1.5 12H5V14.051C4.99999 14.0708 5.00586 14.0905 5.01684 14.1069C5.02783 14.1234 5.04345 14.1362 5.06173 14.1438C5.08001 14.1513 5.10012 14.1533 5.11952 14.1494C5.13892 14.1456 5.15674 14.1361 5.17073 14.1221L5.24584 14.0469L8.41189 12ZM4 14.051C3.99993 14.2686 4.0644 14.4814 4.18527 14.6623C4.30613 14.8433 4.47796 14.9843 4.679 15.0676C4.88004 15.1509 5.10127 15.1727 5.3147 15.1302C5.52813 15.0877 5.72416 14.9829 5.878 14.829L8.707 13H13.5C13.8978 13 14.2794 12.842 14.5607 12.5607C14.842 12.2794 15 11.8978 15 11.5V3.5C15 3.10218 14.842 2.72064 14.5607 2.43934C14.2794 2.15804 13.8978 2 13.5 2H1.5C1.10218 2 0.720644 2.15804 0.43934 2.43934C0.158035 2.72064 0 3.10218 0 3.5V11.5C0 11.8978 0.158035 12.2794 0.43934 12.5607C0.720644 12.842 1.10218 13 1.5 13H4V14.051Z" fill="#3B64FC"/>
</svg>
