<svg viewBox="0 0 16 16" fill="none" xmlns="http://www.w3.org/2000/svg">
<g clip-path="url(#clip0_2461_29625)">
<path opacity="0.2" d="M6 6H1V11.293L4.854 15.147C4.94508 15.2413 4.99548 15.3676 4.99434 15.4987C4.9932 15.6298 4.94061 15.7552 4.84791 15.8479C4.75521 15.9406 4.6298 15.9932 4.4987 15.9943C4.3676 15.9955 4.2413 15.9451 4.147 15.854L0.147 11.854C0.100418 11.8076 0.0634551 11.7524 0.0382303 11.6916C0.0130055 11.6309 1.39347e-05 11.5658 0 11.5L0 5.5C0 5.36739 0.0526784 5.24021 0.146447 5.14645C0.240215 5.05268 0.367392 5 0.5 5H6V0.5C6 0.367392 6.05268 0.240215 6.14645 0.146447C6.24021 0.0526784 6.36739 0 6.5 0L15.5 0C15.6326 0 15.7598 0.0526784 15.8536 0.146447C15.9473 0.240215 16 0.367392 16 0.5V12.5C16 12.6326 15.9473 12.7598 15.8536 12.8536C15.7598 12.9473 15.6326 13 15.5 13H6.5C6.36739 13 6.24021 12.9473 6.14645 12.8536C6.05268 12.7598 6 12.6326 6 12.5V6Z" fill="#4F87FE"/>
<path fill-rule="evenodd" clip-rule="evenodd" d="M7 12H15V1H7V12ZM1 6H6V12.5C6 12.6326 6.05268 12.7598 6.14645 12.8536C6.24021 12.9473 6.36739 13 6.5 13H15.5C15.6326 13 15.7598 12.9473 15.8536 12.8536C15.9473 12.7598 16 12.6326 16 12.5V0.5C16 0.367392 15.9473 0.240215 15.8536 0.146447C15.7598 0.0526784 15.6326 0 15.5 0H6.5C6.36739 0 6.24021 0.0526784 6.14645 0.146447C6.05268 0.240215 6 0.367392 6 0.5V5H0.5C0.367392 5 0.240215 5.05268 0.146447 5.14645C0.0526784 5.24021 0 5.36739 0 5.5V11.5C1.39347e-05 11.5658 0.0130055 11.6309 0.0382303 11.6916C0.0634551 11.7524 0.100418 11.8076 0.147 11.854L4.147 15.854C4.2413 15.9451 4.3676 15.9955 4.4987 15.9943C4.6298 15.9932 4.75521 15.9406 4.84791 15.8479C4.94061 15.7552 4.9932 15.6298 4.99434 15.4987C4.99548 15.3676 4.94508 15.2413 4.854 15.147L1 11.2928V6Z" fill="#3B64FC"/>
</g>
<defs>
<clipPath id="clip0_2461_29625">
<rect width="16" height="16" fill="white"/>
</clipPath>
</defs>
</svg>
