<svg viewBox="0 0 16 16" fill="none" xmlns="http://www.w3.org/2000/svg">
<path opacity="0.2" d="M7.711 14L6 14.8985C6 14.8985 5.59578 15.1018 5.3147 15.1302C5.0665 15.1553 4.88004 15.1509 4.679 15.0676C4.47796 14.9843 4.30613 14.8433 4.18527 14.6623C4.0644 14.4814 3.99993 14.2686 4 14.051V13.132C2.8638 12.6751 1.88279 11.9013 1.17366 10.9029C0.464541 9.90444 0.0571645 8.72331 0 7.5C0 3.883 3.6 1 8 1C12.4 1 16 3.883 16 7.5C16 11.117 12.4 14 8 14C7.90333 14 7.711 14 7.711 14Z" fill="#4F87FE"/>
<path fill-rule="evenodd" clip-rule="evenodd" d="M7.46441 13H7.99943C12.0557 13 15 10.377 15 7.5C15 4.62297 12.0563 2 8 2C3.95458 2 1.01577 4.60895 1.00006 7.4769C1.05238 8.50042 1.39533 9.48801 1.98896 10.3238C2.58714 11.1661 3.41468 11.8188 4.37313 12.2042L5 12.4563V14.051C4.99999 14.0708 5.00586 14.0905 5.01684 14.1069C5.02736 14.1227 5.04213 14.1351 5.05941 14.1428C5.0597 14.1428 5.05908 14.1427 5.05941 14.1428C5.07494 14.144 5.11609 14.1452 5.21429 14.1353C5.21296 14.1354 5.21447 14.135 5.21876 14.1339C5.23556 14.1294 5.2949 14.1138 5.3919 14.075C5.44018 14.0557 5.4831 14.0367 5.51355 14.0227C5.52851 14.0158 5.53977 14.0104 5.54638 14.0072L7.46441 13ZM6 14.8985C6 14.8985 5.59578 15.1018 5.3147 15.1302C5.0665 15.1553 4.88004 15.1509 4.679 15.0676C4.47796 14.9843 4.30613 14.8433 4.18527 14.6623C4.0644 14.4814 3.99993 14.2686 4 14.051V13.132C2.8638 12.6751 1.88279 11.9013 1.17366 10.9029C0.464541 9.90444 0.0571645 8.72331 0 7.5C0 3.883 3.6 1 8 1C12.4 1 16 3.883 16 7.5C16 11.117 12.4 14 8 14H7.711L6 14.8985Z" fill="#3B64FC"/>
</svg>
