<svg viewBox="0 0 16 16" fill="none" xmlns="http://www.w3.org/2000/svg">
<path opacity="0.45" d="M15.5 1H6.5C6.22386 1 6 1.22386 6 1.5V13.5C6 13.7761 6.22386 14 6.5 14H15.5C15.7761 14 16 13.7761 16 13.5V1.5C16 1.22386 15.7761 1 15.5 1Z" fill="#4F87FE"/>
<path d="M6.49998 8C6.63259 8 6.75977 7.94732 6.85354 7.85355C6.94731 7.75979 6.99998 7.63261 6.99998 7.5C6.99998 7.36739 6.94731 7.24021 6.85354 7.14645C6.75977 7.05268 6.63259 7 6.49998 7H3.49998C3.39828 7 3.299 7.03101 3.21538 7.0889C3.13176 7.14679 3.06778 7.22881 3.03198 7.324L0.031984 15.324C-0.0105205 15.4472 -0.003253 15.5821 0.0522388 15.7C0.107731 15.8179 0.207062 15.9095 0.329077 15.9553C0.451093 16.001 0.586151 15.9973 0.705487 15.945C0.824824 15.8926 0.919009 15.7958 0.967984 15.675L3.84698 8H6.49998Z" fill="#3B64FC"/>
</svg>
