<svg viewBox="0 0 16 16" fill="none" xmlns="http://www.w3.org/2000/svg">
<path opacity="0.2" d="M15.5 1H9.5C9.22386 1 9 1.22386 9 1.5V13.5C9 13.7761 9.22386 14 9.5 14H15.5C15.7761 14 16 13.7761 16 13.5V1.5C16 1.22386 15.7761 1 15.5 1Z" fill="#4F87FE"/>
<path d="M5.99998 7V1.5C5.99998 1.36739 6.05266 1.24021 6.14643 1.14645C6.2402 1.05268 6.36738 1 6.49998 1C6.63259 1 6.75977 1.05268 6.85354 1.14645C6.94731 1.24021 6.99998 1.36739 6.99998 1.5V13.5C6.99998 13.6326 6.94731 13.7598 6.85354 13.8536C6.75977 13.9473 6.63259 14 6.49998 14C6.36738 14 6.2402 13.9473 6.14643 13.8536C6.05266 13.7598 5.99998 13.6326 5.99998 13.5V8H3.84698L0.967984 15.676C0.919009 15.7968 0.824824 15.8936 0.705487 15.946C0.586151 15.9983 0.451093 16.002 0.329077 15.9563C0.207062 15.9105 0.107731 15.8189 0.0522388 15.701C-0.003253 15.5831 -0.0105205 15.4482 0.031984 15.325L3.03198 7.325C3.06762 7.22962 3.13153 7.14739 3.21516 7.08931C3.29879 7.03124 3.39816 7.00008 3.49998 7H5.99998ZM8.99998 1.5C8.99998 1.36739 9.05266 1.24021 9.14643 1.14645C9.2402 1.05268 9.36738 1 9.49998 1H15.5C15.6326 1 15.7598 1.05268 15.8535 1.14645C15.9473 1.24021 16 1.36739 16 1.5V13.5C16 13.6326 15.9473 13.7598 15.8535 13.8536C15.7598 13.9473 15.6326 14 15.5 14H9.49998C9.36738 14 9.2402 13.9473 9.14643 13.8536C9.05266 13.7598 8.99998 13.6326 8.99998 13.5V1.5ZM9.99998 13H15V2H9.99998V13Z" fill="#3B64FC"/>
</svg>
