<svg viewBox="0 0 16 16" fill="none" xmlns="http://www.w3.org/2000/svg">
<path opacity="0.2" d="M1 6.83137C1 6.6192 1.08429 6.41571 1.23431 6.26569L6.26569 1.23431C6.41571 1.08429 6.6192 1 6.83137 1H14.2C14.6418 1 15 1.35817 15 1.8V14.2C15 14.6418 14.6418 15 14.2 15H1.8C1.35817 15 1 14.6418 1 14.2V6.83137Z" fill="#4F87FE"/>
<path fill-rule="evenodd" clip-rule="evenodd" d="M14 2H6.91421L2 6.91421V14H14V2ZM1.23431 6.26569C1.08429 6.41571 1 6.6192 1 6.83137V14.2C1 14.6418 1.35817 15 1.8 15H14.2C14.6418 15 15 14.6418 15 14.2V1.8C15 1.35817 14.6418 1 14.2 1H6.83137C6.6192 1 6.41571 1.08429 6.26569 1.23431L1.23431 6.26569Z" fill="#3B64FC"/>
</svg>
