<svg viewBox="0 0 16 16" fill="none" xmlns="http://www.w3.org/2000/svg">
<circle opacity="0.2" cx="7.5" cy="7.5" r="7.5" fill="#4F87FE"/>
<path d="M11.646 12.354L7.5 8.207L3.354 12.354C3.32606 12.3823 3.29484 12.4071 3.261 12.428C4.44038 13.4428 5.94464 14.0009 7.5005 14.0009C9.05637 14.0009 10.5606 13.4428 11.74 12.428C11.7058 12.4072 11.6743 12.3823 11.646 12.354ZM14 7.5C14.0023 5.94355 13.4439 4.43834 12.427 3.26C12.4061 3.29384 12.3813 3.32506 12.353 3.353L8.207 7.5L12.353 11.646C12.3813 11.674 12.4061 11.7052 12.427 11.739C13.4437 10.5609 14.0021 9.05611 14 7.5ZM1 7.5C0.99769 9.05646 1.55611 10.5617 2.573 11.74C2.59388 11.7062 2.61873 11.675 2.647 11.647L6.793 7.5L2.646 3.354C2.61773 3.32606 2.59288 3.29484 2.572 3.261C1.55569 4.43922 0.997653 5.94402 1 7.5ZM3.354 2.646L7.5 6.793L11.646 2.647C11.674 2.61873 11.7052 2.59388 11.739 2.573C10.5596 1.55822 9.05537 1.00014 7.4995 1.00014C5.94364 1.00014 4.43938 1.55822 3.26 2.573C3.29413 2.59351 3.32569 2.61801 3.354 2.646ZM7.5 15C6.01664 15 4.5666 14.5601 3.33323 13.736C2.09986 12.9119 1.13856 11.7406 0.570907 10.3701C0.00324965 8.99968 -0.145275 7.49168 0.144114 6.03683C0.433503 4.58197 1.14781 3.2456 2.1967 2.1967C3.2456 1.14781 4.58197 0.433503 6.03683 0.144114C7.49168 -0.145275 8.99968 0.00324965 10.3701 0.570907C11.7406 1.13856 12.9119 2.09986 13.736 3.33323C14.5601 4.5666 15 6.01664 15 7.5C15 9.48913 14.2098 11.3968 12.8033 12.8033C11.3968 14.2098 9.48913 15 7.5 15Z" fill="#3B64FC"/>
</svg>
