<svg viewBox="0 0 16 16" fill="none" xmlns="http://www.w3.org/2000/svg">
<path opacity="0.2" d="M1.2 11.4C1.1379 11.3534 1.0875 11.293 1.05279 11.2236C1.01807 11.1542 1 11.0776 1 11V4.5C1 3.57174 1.36875 2.6815 2.02513 2.02513C2.6815 1.36875 3.57174 1 4.5 1H10.5C11.4283 1 12.3185 1.36875 12.9749 2.02513C13.6313 2.6815 14 3.57174 14 4.5V11C14 11.0776 13.9819 11.1542 13.9472 11.2236C13.9125 11.293 13.8621 11.3534 13.8 11.4L7.8 15.9C7.71345 15.9649 7.60819 16 7.5 16C7.39181 16 7.28655 15.9649 7.2 15.9L1.2 11.4Z" fill="#4F87FE"/>
<path fill-rule="evenodd" clip-rule="evenodd" d="M2 10.75L7.5 14.875L13 10.75V4.5C13 3.83696 12.7366 3.20107 12.2678 2.73223C11.7989 2.26339 11.163 2 10.5 2H4.5C3.83696 2 3.20107 2.26339 2.73223 2.73223C2.26339 3.20107 2 3.83696 2 4.5V10.75ZM1.05279 11.2236C1.0875 11.293 1.1379 11.3534 1.2 11.4L7.2 15.9C7.28655 15.9649 7.39181 16 7.5 16C7.60819 16 7.71345 15.9649 7.8 15.9L13.8 11.4C13.8621 11.3534 13.9125 11.293 13.9472 11.2236C13.9819 11.1542 14 11.0776 14 11V4.5C14 3.57174 13.6313 2.6815 12.9749 2.02513C12.3185 1.36875 11.4283 1 10.5 1H4.5C3.57174 1 2.6815 1.36875 2.02513 2.02513C1.36875 2.6815 1 3.57174 1 4.5V11C1 11.0776 1.01807 11.1542 1.05279 11.2236Z" fill="#3B64FC"/>
</svg>
