<svg viewBox="0 0 16 16" fill="none" xmlns="http://www.w3.org/2000/svg">
<path opacity="0.2" d="M8.60806 8L12.9081 14.215C12.96 14.2898 12.9904 14.3774 12.9962 14.4682C13.002 14.5591 12.9829 14.6498 12.9409 14.7306C12.8989 14.8114 12.8357 14.8792 12.758 14.9266C12.6803 14.9741 12.5911 14.9995 12.5001 15H3.50006C3.40876 15 3.31919 14.9751 3.24107 14.9278C3.16295 14.8805 3.09927 14.8128 3.05692 14.7319C3.01457 14.651 2.99518 14.5601 3.00084 14.469C3.00651 14.3778 3.03701 14.29 3.08906 14.215L7.39206 8L3.09206 1.785C3.04016 1.71019 3.00967 1.62264 3.00388 1.53177C2.9981 1.44091 3.01723 1.35019 3.05922 1.2694C3.10121 1.18862 3.16446 1.12083 3.24215 1.07335C3.31983 1.02588 3.40901 1.00051 3.50006 1H12.5001C12.5914 0.999968 12.6809 1.02493 12.759 1.07219C12.8372 1.11945 12.9008 1.1872 12.9432 1.26808C12.9855 1.34897 13.0049 1.4399 12.9993 1.53103C12.9936 1.62215 12.9631 1.70998 12.9111 1.785L8.60806 8Z" fill="#4F87FE"/>
<path d="M8.60806 8L12.9081 14.215C12.96 14.2898 12.9904 14.3774 12.9962 14.4682C13.002 14.5591 12.9829 14.6498 12.9409 14.7306C12.8989 14.8114 12.8357 14.8792 12.758 14.9266C12.6803 14.9741 12.5911 14.9995 12.5001 15H3.50006C3.40876 15 3.31919 14.9751 3.24107 14.9278C3.16295 14.8805 3.09927 14.8128 3.05692 14.7319C3.01457 14.651 2.99518 14.5601 3.00084 14.469C3.00651 14.3778 3.03701 14.29 3.08906 14.215L7.39206 8L3.09206 1.785C3.04016 1.71019 3.00967 1.62264 3.00388 1.53177C2.9981 1.44091 3.01723 1.35019 3.05922 1.2694C3.10121 1.18862 3.16446 1.12083 3.24215 1.07335C3.31983 1.02588 3.40901 1.00051 3.50006 1H12.5001C12.5914 0.999968 12.6809 1.02493 12.759 1.07219C12.8372 1.11945 12.9008 1.1872 12.9432 1.26808C12.9855 1.34897 13.0049 1.4399 12.9993 1.53103C12.9936 1.62215 12.9631 1.70998 12.9111 1.785L8.60806 8ZM4.45406 14H11.5451L8.00006 8.878L4.45406 14ZM11.5461 2H4.45406L8.00006 7.122L11.5461 2Z" fill="#3B64FC"/>
</svg>
