<svg viewBox="0 0 16 16" fill="none" xmlns="http://www.w3.org/2000/svg">
<g clip-path="url(#clip0_2461_29708)">
<path opacity="0.2" d="M0.0839528 7.777C0.0291333 7.69483 -0.00012207 7.59827 -0.00012207 7.4995C-0.00012207 7.40073 0.0291333 7.30417 0.0839528 7.222L4.08395 1.222C4.12968 1.15363 4.19157 1.09761 4.26414 1.05888C4.3367 1.02016 4.4177 0.999933 4.49995 1H11.5C12.4282 1 13.3184 1.36875 13.9748 2.02513C14.6312 2.6815 15 3.57174 15 4.5V10.5C15 11.4283 14.6312 12.3185 13.9748 12.9749C13.3184 13.6313 12.4282 14 11.5 14H4.49995C4.41761 14 4.33655 13.9796 4.26398 13.9407C4.19141 13.9018 4.12957 13.8456 4.08395 13.777L0.0839528 7.777Z" fill="#4F87FE"/>
<path fill-rule="evenodd" clip-rule="evenodd" d="M4.49995 1C4.4177 0.999933 4.3367 1.02016 4.26414 1.05888C4.19158 1.09761 4.12968 1.15363 4.08395 1.222L0.0839528 7.222C0.0291333 7.30417 -0.00012207 7.40073 -0.00012207 7.4995C-0.00012207 7.59827 0.0291333 7.69483 0.0839528 7.777L4.08395 13.777C4.12957 13.8456 4.19141 13.9018 4.26398 13.9407C4.33655 13.9796 4.41761 14 4.49995 14H11.5C12.4282 14 13.3184 13.6313 13.9748 12.9749C14.6312 12.3185 15 11.4283 15 10.5V4.5C15 3.57174 14.6312 2.6815 13.9748 2.02513C13.3184 1.36875 12.4282 1 11.5 1H4.49995ZM4.7678 13H11.5C12.163 13 12.7989 12.7366 13.2677 12.2678C13.7366 11.7989 14 11.163 14 10.5V4.5C14 3.83696 13.7366 3.20107 13.2677 2.73223C12.7989 2.26339 12.163 2 11.5 2H4.76714L1.1008 7.4995L4.7678 13Z" fill="#3B64FC"/>
</g>
<defs>
<clipPath id="clip0_2461_29708">
<rect width="16" height="16" fill="white"/>
</clipPath>
</defs>
</svg>
