<svg viewBox="0 0 16 16" fill="none" xmlns="http://www.w3.org/2000/svg">
<path opacity="0.2" d="M13 14H2.5C0.981 14 0 11.3 0 8C0 4.7 0.981 2 2.5 2H13C13.0795 1.99992 13.1587 2.00932 13.236 2.028C13.3228 2.00934 13.4113 1.99996 13.5 2C15.018 2 16 4.7 16 8C16 11.3 15.018 14 13.5 14C13.4113 14 13.3228 13.9907 13.236 13.972C13.1587 13.9907 13.0795 14.0001 13 14Z" fill="#4F87FE"/>
<path d="M13.5 13C14.191 13 15 10.774 15 8C15 5.226 14.191 3 13.5 3C13.4765 2.99989 13.453 3.00223 13.43 3.007L13.4 3.02C13.049 3.154 12.7 3.739 12.446 4.604C12.1873 5.52427 12.0412 6.47253 12.011 7.428C12.0037 7.61533 12 7.806 12 8C12 8.194 12.0037 8.385 12.011 8.573C12.0412 9.52846 12.1873 10.4767 12.446 11.397C12.705 12.261 13.046 12.847 13.4 12.981L13.429 12.993C13.4524 12.9978 13.4762 13.0002 13.5 13ZM13 14H2.5C0.981 14 0 11.3 0 8C0 4.7 0.981 2 2.5 2H13C13.0795 1.99992 13.1587 2.00932 13.236 2.028C13.3228 2.00934 13.4113 1.99996 13.5 2C15.018 2 16 4.7 16 8C16 11.3 15.018 14 13.5 14C13.4113 14 13.3228 13.9907 13.236 13.972C13.1587 13.9907 13.0795 14.0001 13 14ZM11 8C10.9189 6.27014 11.2836 4.54845 12.059 3H2.5C1.809 3 1 5.226 1 8C1 10.774 1.809 13 2.5 13H12.059C11.2836 11.4516 10.9189 9.72986 11 8Z" fill="#3B64FC"/>
</svg>
