<svg viewBox="0 0 16 16" fill="none" xmlns="http://www.w3.org/2000/svg">
<g opacity="0.2">
<path d="M7.7814 0.0502464C7.71332 0.0833123 7.65364 0.131401 7.60685 0.190887L2.25684 7H13.7429L8.39285 0.190887C8.34606 0.131401 8.28638 0.0833123 8.21831 0.0502464C8.15023 0.0171805 8.07553 0 7.99985 0C7.92417 0 7.84948 0.0171805 7.7814 0.0502464Z" fill="#4F87FE"/>
<path d="M13.7427 8H2.25701L7.60685 14.8089C7.65364 14.8684 7.71332 14.9165 7.7814 14.9495C7.84948 14.9826 7.92417 14.9998 7.99985 14.9998C8.07553 14.9998 8.15023 14.9826 8.21831 14.9495C8.28638 14.9165 8.34606 14.8684 8.39285 14.8089L13.7427 8Z" fill="#4F87FE"/>
</g>
<path d="M12.471 6.99989L8.00003 1.30889L3.52903 6.99989H12.471ZM3.52903 7.99989L8.00003 13.6909L12.471 7.99989H3.52903ZM7.60703 0.190887C7.65382 0.131401 7.7135 0.0833123 7.78158 0.0502464C7.84966 0.0171805 7.92435 0 8.00003 0C8.07572 0 8.15041 0.0171805 8.21849 0.0502464C8.28656 0.0833123 8.34624 0.131401 8.39303 0.190887L13.893 7.19089C13.9623 7.27899 13.9999 7.38782 13.9999 7.49989C13.9999 7.61196 13.9623 7.72078 13.893 7.80889L8.39303 14.8089C8.34624 14.8684 8.28656 14.9165 8.21849 14.9495C8.15041 14.9826 8.07572 14.9998 8.00003 14.9998C7.92435 14.9998 7.84966 14.9826 7.78158 14.9495C7.7135 14.9165 7.65382 14.8684 7.60703 14.8089L2.10703 7.80889C2.03777 7.72078 2.00012 7.61196 2.00012 7.49989C2.00012 7.38782 2.03777 7.27899 2.10703 7.19089L7.60703 0.190887Z" fill="#3B64FC"/>
</svg>
