<svg viewBox="0 0 16 16" fill="none" xmlns="http://www.w3.org/2000/svg">
<path opacity="0.2" d="M14 2.5V13.5C14 15.018 11.3 16 8 16C4.7 16 2 15.019 2 13.5V2.5C2 0.982 4.7 0 8 0C11.3 0 14 0.982 14 2.5Z" fill="#4F87FE"/>
<path d="M14 2.5V13.5C14 15.018 11.3 16 8 16C4.7 16 2 15.019 2 13.5V2.5C2 0.982 4.7 0 8 0C11.3 0 14 0.982 14 2.5ZM3 2.5C3 3.191 5.226 4 8 4C10.774 4 13 3.191 13 2.5C13 1.809 10.774 1 8 1C5.226 1 3 1.809 3 2.5ZM8 5C6.27014 5.0811 4.54845 4.71645 3 3.941V13.5C3 14.191 5.226 15 8 15C10.774 15 13 14.191 13 13.5V3.941C11.4516 4.71645 9.72986 5.0811 8 5Z" fill="#3B64FC"/>
</svg>
