<svg viewBox="0 0 16 16" fill="none" xmlns="http://www.w3.org/2000/svg">
<path opacity="0.2" d="M3.5 2H12.5C13.4283 2 14.3185 2.36875 14.9749 3.02513C15.6313 3.6815 16 4.57174 16 5.5V10.5C16 11.4283 15.6313 12.3185 14.9749 12.9749C14.3185 13.6313 13.4283 14 12.5 14H3.5C2.57174 14 1.6815 13.6313 1.02513 12.9749C0.368749 12.3185 0 11.4283 0 10.5L0 5.5C0 4.57174 0.368749 3.6815 1.02513 3.02513C1.6815 2.36875 2.57174 2 3.5 2Z" fill="#4F87FE"/>
<path fill-rule="evenodd" clip-rule="evenodd" d="M12.5 3H3.5C2.83696 3 2.20107 3.26339 1.73223 3.73223C1.26339 4.20107 1 4.83696 1 5.5V10.5C1 11.163 1.26339 11.7989 1.73223 12.2678C2.20107 12.7366 2.83696 13 3.5 13H12.5C13.163 13 13.7989 12.7366 14.2678 12.2678C14.7366 11.7989 15 11.163 15 10.5V5.5C15 4.83696 14.7366 4.20107 14.2678 3.73223C13.7989 3.26339 13.163 3 12.5 3ZM12.5 2H3.5C2.57174 2 1.6815 2.36875 1.02513 3.02513C0.368749 3.6815 0 4.57174 0 5.5V10.5C0 11.4283 0.368749 12.3185 1.02513 12.9749C1.6815 13.6313 2.57174 14 3.5 14H12.5C13.4283 14 14.3185 13.6313 14.9749 12.9749C15.6313 12.3185 16 11.4283 16 10.5V5.5C16 4.57174 15.6313 3.6815 14.9749 3.02513C14.3185 2.36875 13.4283 2 12.5 2Z" fill="#3B64FC"/>
</svg>
