<svg viewBox="0 0 16 16" fill="none" xmlns="http://www.w3.org/2000/svg">
<g clip-path="url(#clip0_2461_29658)">
<path opacity="0.2" d="M7.72298 3.08407C7.80514 3.02926 7.9017 3 8.00048 3C8.09925 3 8.19581 3.02926 8.27798 3.08407L15.778 8.08407C15.8465 8.12974 15.9026 8.1916 15.9414 8.26417C15.9803 8.33674 16.0006 8.41777 16.0006 8.50007C16.0006 8.58238 15.9803 8.66341 15.9414 8.73598C15.9026 8.80855 15.8465 8.87041 15.778 8.91608L8.27798 13.9161C8.19581 13.9709 8.09925 14.0001 8.00048 14.0001C7.9017 14.0001 7.80514 13.9709 7.72298 13.9161L0.222978 8.91608C0.1545 8.87041 0.0983518 8.80855 0.0595182 8.73598C0.0206846 8.66341 0.000366211 8.58238 0.000366211 8.50007C0.000366211 8.41777 0.0206846 8.33674 0.0595182 8.26417C0.0983518 8.1916 0.1545 8.12974 0.222978 8.08407L7.72298 3.08407Z" fill="#4F87FE"/>
<path fill-rule="evenodd" clip-rule="evenodd" d="M8.27798 13.9161L15.778 8.91608C15.8465 8.87041 15.9026 8.80855 15.9414 8.73598C15.9803 8.66341 16.0006 8.58238 16.0006 8.50007C16.0006 8.41777 15.9803 8.33674 15.9414 8.26417C15.9026 8.1916 15.8465 8.12974 15.778 8.08407L8.27798 3.08407C8.19581 3.02926 8.09925 3 8.00048 3C7.9017 3 7.80514 3.02926 7.72298 3.08407L0.222978 8.08407C0.1545 8.12974 0.0983518 8.1916 0.0595182 8.26417C0.0206846 8.33674 0.000366211 8.41777 0.000366211 8.50007C0.000366211 8.58238 0.0206846 8.66341 0.0595182 8.73598C0.0983518 8.80855 0.1545 8.87041 0.222978 8.91608L7.72298 13.9161C7.80514 13.9709 7.9017 14.0001 8.00048 14.0001C8.09925 14.0001 8.19581 13.9709 8.27798 13.9161ZM1.40175 8.50007L8.00048 12.8992L14.5992 8.50007L8.00048 4.10093L1.40175 8.50007ZM7.72298 3.91593L7.72328 3.91613Z" fill="#3B64FC"/>
</g>
<defs>
<clipPath id="clip0_2461_29658">
<rect width="16" height="16" fill="white"/>
</clipPath>
</defs>
</svg>
