<svg viewBox="0 0 16 16" fill="none" xmlns="http://www.w3.org/2000/svg">
<g opacity="0.2">
<path d="M1 1.5C1 1.36739 1.05268 1.24021 1.14645 1.14645C1.24021 1.05268 1.36739 1 1.5 1H5V5H1L1 1.5Z" fill="#4F87FE"/>
<path d="M1 6V14.5C1 14.6326 1.05268 14.7598 1.14645 14.8536C1.24021 14.9473 1.36739 15 1.5 15H5V6H1Z" fill="#4F87FE"/>
<path d="M6 6V15H14.5C14.6326 15 14.7598 14.9473 14.8536 14.8536C14.9473 14.7598 15 14.6326 15 14.5V6L6 6Z" fill="#4F87FE"/>
<path d="M15 5L15 1.5C15 1.36739 14.9473 1.24021 14.8536 1.14645C14.7598 1.05268 14.6326 1 14.5 1H6V5L15 5Z" fill="#4F87FE"/>
</g>
<path d="M2 5H5V2H2V5ZM2 6V14H5V6H2ZM14 5V2H6V5H14ZM14 6H6V14H14V6ZM1 1.5C1 1.36739 1.05268 1.24021 1.14645 1.14645C1.24021 1.05268 1.36739 1 1.5 1H14.5C14.6326 1 14.7598 1.05268 14.8536 1.14645C14.9473 1.24021 15 1.36739 15 1.5V14.5C15 14.6326 14.9473 14.7598 14.8536 14.8536C14.7598 14.9473 14.6326 15 14.5 15H1.5C1.36739 15 1.24021 14.9473 1.14645 14.8536C1.05268 14.7598 1 14.6326 1 14.5V1.5Z" fill="#3B64FC"/>
</svg>
