<svg viewBox="0 0 16 16" fill="none" xmlns="http://www.w3.org/2000/svg">
<path opacity="0.2" d="M0 2.5C0 2.36739 0.0526784 2.24021 0.146447 2.14645C0.240215 2.05268 0.367392 2 0.5 2H15.5C15.6326 2 15.7598 2.05268 15.8536 2.14645C15.9473 2.24021 16 2.36739 16 2.5V11.5C16 11.5904 15.9754 11.6792 15.9289 11.7568C15.8824 11.8343 15.8157 11.8979 15.736 11.9405C15.6563 11.9832 15.5664 12.0035 15.4761 11.9992C15.3858 11.9948 15.2983 11.9661 15.223 11.916C14.2656 11.2926 13.1421 10.9733 12 11C10.5 11 9.768 11.439 8.354 12.854C6.768 14.439 5.833 15 4 15C2.66062 15.0268 1.3443 14.649 0.223 13.916C0.154449 13.8704 0.0982257 13.8085 0.059323 13.736C0.0204202 13.6634 4.25504e-05 13.5823 0 13.5L0 2.5Z" fill="#4F87FE"/>
<path d="M0 2.5C0 2.36739 0.0526784 2.24021 0.146447 2.14645C0.240215 2.05268 0.367392 2 0.5 2H15.5C15.6326 2 15.7598 2.05268 15.8536 2.14645C15.9473 2.24021 16 2.36739 16 2.5V11.5C16 11.5904 15.9754 11.6792 15.9289 11.7568C15.8824 11.8343 15.8157 11.8979 15.736 11.9405C15.6563 11.9832 15.5664 12.0035 15.4761 11.9992C15.3858 11.9948 15.2983 11.9661 15.223 11.916C14.2656 11.2926 13.1421 10.9733 12 11C10.5 11 9.768 11.439 8.354 12.854C6.768 14.439 5.833 15 4 15C2.66062 15.0268 1.3443 14.649 0.223 13.916C0.154449 13.8704 0.0982257 13.8085 0.059323 13.736C0.0204202 13.6634 4.25504e-05 13.5823 0 13.5L0 2.5ZM1 3V13.225C1.90985 13.7539 2.9478 14.0221 4 14C5.5 14 6.232 13.561 7.646 12.146C9.232 10.561 10.167 10 12 10C13.0356 9.98564 14.061 10.2051 15 10.642V3H1Z" fill="#3B64FC"/>
</svg>
