<svg viewBox="0 0 16 16" fill="none" xmlns="http://www.w3.org/2000/svg">
<g clip-path="url(#clip0_2461_29668)">
<path opacity="0.2" d="M14 8.146V10.5C14.0002 10.599 13.9709 10.6959 13.916 10.7783C13.8611 10.8606 13.7829 10.9249 13.6915 10.9628C13.6 11.0007 13.4993 11.0106 13.4022 10.9912C13.3051 10.9719 13.2159 10.9241 13.146 10.854C12.8272 10.5284 12.4338 10.2854 12 10.146V12.5C12.0002 12.599 11.9709 12.6959 11.916 12.7783C11.8611 12.8606 11.7829 12.9249 11.6915 12.9628C11.6 13.0007 11.4993 13.0106 11.4022 12.9912C11.3051 12.9719 11.2159 12.9241 11.146 12.854C10.8661 12.5719 10.5311 12.3505 10.1619 12.2035C9.79271 12.0566 9.39718 11.9873 9 12C8.48447 11.956 7.96685 12.0562 7.50492 12.2892C7.04299 12.5223 6.65492 12.8792 6.384 13.32C6.02076 13.8761 5.51553 14.3251 4.92058 14.6204C4.32563 14.9158 3.66258 15.0468 3 15C2.47138 15.0129 1.94567 14.918 1.45497 14.7209C0.964272 14.5239 0.518883 14.2289 0.146001 13.854C0.099599 13.8075 0.0628209 13.7523 0.0377692 13.6915C0.0127175 13.6308 -0.00011655 13.5657 7.97493e-07 13.5V5.5C7.97493e-07 5.36739 0.0526792 5.24021 0.146447 5.14645C0.240216 5.05268 0.367393 5 0.500001 5H2V3.5C2 3.36739 2.05268 3.24021 2.14645 3.14645C2.24022 3.05268 2.36739 3 2.5 3H4V1.5C4 1.36739 4.05268 1.24021 4.14645 1.14645C4.24022 1.05268 4.36739 1 4.5 1H15.5C15.6326 1 15.7598 1.05268 15.8536 1.14645C15.9473 1.24021 16 1.36739 16 1.5V8.5C16.0002 8.59902 15.9709 8.69586 15.916 8.77825C15.8611 8.86064 15.7829 8.92487 15.6915 8.96278C15.6 9.0007 15.4993 9.01061 15.4022 8.99124C15.3051 8.97187 15.2159 8.92411 15.146 8.854C14.8272 8.52845 14.4338 8.28545 14 8.146Z" fill="#4F87FE"/>
<path d="M13 7.5V4H3V5H11.5C11.6326 5 11.7598 5.05268 11.8536 5.14645C11.9473 5.24021 12 5.36739 12 5.5V9.11C12.3502 9.19178 12.6869 9.32311 13 9.5V7.5ZM15 7.5V2H5V3H13.5C13.6326 3 13.7598 3.05268 13.8536 3.14645C13.9473 3.24021 14 3.36739 14 3.5V7.11C14.3502 7.19178 14.6869 7.32311 15 7.5ZM11 9.5V6H1V13.284C1.55211 13.767 2.26677 14.0229 3 14C3.51553 14.044 4.03315 13.9438 4.49508 13.7108C4.95701 13.4777 5.34509 13.1208 5.616 12.68C5.97925 12.1239 6.48447 11.6749 7.07942 11.3796C7.67437 11.0842 8.33742 10.9532 9 11C9.69877 10.9902 10.388 11.1625 11 11.5V9.5ZM14 8.146V10.5C14.0002 10.599 13.9709 10.6959 13.916 10.7783C13.8611 10.8606 13.7829 10.9249 13.6915 10.9628C13.6 11.0007 13.4993 11.0106 13.4022 10.9912C13.3051 10.9719 13.2159 10.9241 13.146 10.854C12.8272 10.5284 12.4338 10.2854 12 10.146V12.5C12.0002 12.599 11.9709 12.6959 11.916 12.7783C11.8611 12.8606 11.7829 12.9249 11.6915 12.9628C11.6 13.0007 11.4993 13.0106 11.4022 12.9912C11.3051 12.9719 11.2159 12.9241 11.146 12.854C10.8661 12.5719 10.5311 12.3505 10.1619 12.2035C9.79271 12.0566 9.39718 11.9873 9 12C8.48447 11.956 7.96685 12.0562 7.50492 12.2892C7.04299 12.5223 6.65492 12.8792 6.384 13.32C6.02076 13.8761 5.51553 14.3251 4.92058 14.6204C4.32563 14.9158 3.66258 15.0468 3 15C2.47138 15.0129 1.94567 14.918 1.45497 14.7209C0.964272 14.5239 0.518883 14.2289 0.146001 13.854C0.099599 13.8075 0.0628209 13.7523 0.0377692 13.6915C0.0127175 13.6308 -0.00011655 13.5657 7.97493e-07 13.5V5.5C7.97493e-07 5.36739 0.0526792 5.24021 0.146447 5.14645C0.240216 5.05268 0.367393 5 0.500001 5H2V3.5C2 3.36739 2.05268 3.24021 2.14645 3.14645C2.24022 3.05268 2.36739 3 2.5 3H4V1.5C4 1.36739 4.05268 1.24021 4.14645 1.14645C4.24022 1.05268 4.36739 1 4.5 1H15.5C15.6326 1 15.7598 1.05268 15.8536 1.14645C15.9473 1.24021 16 1.36739 16 1.5V8.5C16.0002 8.59902 15.9709 8.69586 15.916 8.77825C15.8611 8.86064 15.7829 8.92487 15.6915 8.96278C15.6 9.0007 15.4993 9.01061 15.4022 8.99124C15.3051 8.97187 15.2159 8.92411 15.146 8.854C14.8272 8.52845 14.4338 8.28545 14 8.146Z" fill="#3B64FC"/>
</g>
<defs>
<clipPath id="clip0_2461_29668">
<rect width="16" height="16" fill="white"/>
</clipPath>
</defs>
</svg>
