<svg viewBox="0 0 16 16" fill="none" xmlns="http://www.w3.org/2000/svg">
<g clip-path="url(#clip0_2461_29734)">
<path d="M0.5 2H5.75C9.306 2 10.278 5.4 7.209 7.593C3.367 10.338 4.7 15 9.25 15H14.5C14.6326 15 14.7598 14.9473 14.8536 14.8536C14.9473 14.7598 15 14.6326 15 14.5C15 14.3674 14.9473 14.2402 14.8536 14.1464C14.7598 14.0527 14.6326 14 14.5 14H9.25C5.694 14 4.722 10.6 7.791 8.407C11.633 5.662 10.3 1 5.75 1H0.5C0.367392 1 0.240215 1.05268 0.146447 1.14645C0.0526784 1.24021 0 1.36739 0 1.5C0 1.63261 0.0526784 1.75979 0.146447 1.85355C0.240215 1.94732 0.367392 2 0.5 2Z" fill="#3B64FC"/>
</g>
<defs>
<clipPath id="clip0_2461_29734">
<rect width="16" height="16" fill="white"/>
</clipPath>
</defs>
</svg>
