<svg viewBox="0 0 16 16" fill="none" xmlns="http://www.w3.org/2000/svg">
<g clip-path="url(#clip0_2461_29732)">
<path d="M1.70688 1.99981H7.49988C7.63249 1.99981 7.75967 2.05249 7.85344 2.14625C7.9472 2.24002 7.99988 2.3672 7.99988 2.49981V12.9998H13.2929L12.1469 11.8538C12.0558 11.7595 12.0054 11.6332 12.0065 11.5021C12.0077 11.371 12.0603 11.2456 12.153 11.1529C12.2457 11.0602 12.3711 11.0076 12.5022 11.0065C12.6333 11.0053 12.7596 11.0557 12.8539 11.1468L14.8539 13.1468C14.9476 13.2406 15.0003 13.3677 15.0003 13.5003C15.0003 13.6329 14.9476 13.76 14.8539 13.8538L12.8539 15.8538C12.7596 15.9449 12.6333 15.9953 12.5022 15.9941C12.3711 15.993 12.2457 15.9404 12.153 15.8477C12.0603 15.755 12.0077 15.6296 12.0065 15.4985C12.0054 15.3674 12.0558 15.2411 12.1469 15.1468L13.2929 13.9998H7.49988C7.36727 13.9998 7.2401 13.9471 7.14633 13.8534C7.05256 13.7596 6.99988 13.6324 6.99988 13.4998V2.99981H1.70688L2.85388 4.14581C2.94496 4.24011 2.99536 4.36641 2.99422 4.49751C2.99308 4.62861 2.94049 4.75401 2.84779 4.84672C2.75509 4.93942 2.62968 4.99201 2.49858 4.99315C2.36748 4.99428 2.24118 4.94389 2.14688 4.85281L0.146882 2.85281C0.053146 2.75904 0.000488281 2.63189 0.000488281 2.49931C0.000488281 2.36673 0.053146 2.23957 0.146882 2.14581L2.14688 0.145808C2.193 0.0980531 2.24818 0.059962 2.30918 0.0337575C2.37018 0.00755296 2.43579 -0.00624015 2.50218 -0.00681706C2.56857 -0.00739397 2.63441 0.00525689 2.69586 0.0303973C2.75731 0.0555378 2.81313 0.0926643 2.86008 0.139611C2.90703 0.186557 2.94415 0.242383 2.96929 0.303831C2.99443 0.365279 3.00708 0.431119 3.00651 0.497509C3.00593 0.563898 2.99214 0.629508 2.96593 0.69051C2.93973 0.751512 2.90164 0.806685 2.85388 0.852808L1.70688 1.99981Z" fill="#3B64FC"/>
</g>
<defs>
<clipPath id="clip0_2461_29732">
<rect width="16" height="16" fill="white"/>
</clipPath>
</defs>
</svg>
