<svg viewBox="0 0 16 16" fill="none" xmlns="http://www.w3.org/2000/svg">
<path d="M1.5 15H14.5C14.6326 15 14.7598 14.9473 14.8536 14.8536C14.9473 14.7598 15 14.6326 15 14.5V5.5C14.9998 5.38653 14.961 5.27651 14.89 5.188L10.89 0.188C10.8432 0.12944 10.7839 0.0821404 10.7164 0.049599C10.6489 0.0170576 10.5749 0.000106801 10.5 0L5.5 0C5.39143 -4.09697e-07 5.28581 0.0353378 5.1991 0.100675C5.11239 0.166011 5.0493 0.257796 5.01937 0.362159C4.98944 0.466521 4.99429 0.57779 5.0332 0.679152C5.0721 0.780513 5.14293 0.866458 5.235 0.924C7.771 2.509 9 4.045 9 5.5C9.01301 5.9956 8.84951 6.4797 8.53866 6.86592C8.22782 7.25214 7.78986 7.51535 7.30293 7.60858C6.816 7.70181 6.31179 7.61899 5.88026 7.37491C5.44874 7.13083 5.11798 6.74136 4.947 6.276C4.69008 5.74778 4.27794 5.31063 3.76574 5.02308C3.25355 4.73553 2.66574 4.6113 2.081 4.667C0.83 4.827 0 5.882 0 7.5C0.0501762 9.90589 0.390981 12.2969 1.015 14.621C1.04199 14.7292 1.10439 14.8253 1.19227 14.894C1.28015 14.9626 1.38847 15 1.5 15ZM1 7.5C1 6.363 1.481 5.752 2.207 5.659C2.58622 5.62954 2.96549 5.7155 3.29495 5.90558C3.62442 6.09566 3.88868 6.38096 4.053 6.724C4.32513 7.3916 4.82227 7.94294 5.45824 8.28246C6.09422 8.62199 6.82894 8.7283 7.53507 8.58296C8.2412 8.43763 8.87422 8.04981 9.32442 7.48673C9.77463 6.92365 10.0136 6.2208 10 5.5C10 3.95 9.022 2.457 7.11 1H10.26L14 5.675V14H1.892C1.34311 11.8754 1.04375 9.69397 1 7.5Z" fill="#3B64FC"/>
</svg>
