<svg viewBox="0 0 16 16" fill="none" xmlns="http://www.w3.org/2000/svg">
<path d="M12.146 11.854C12.0549 11.7597 12.0045 11.6334 12.0057 11.5023C12.0068 11.3712 12.0594 11.2458 12.1521 11.1531C12.2448 11.0604 12.3702 11.0078 12.5013 11.0067C12.6324 11.0055 12.7587 11.0559 12.853 11.147L14.853 13.147C14.9467 13.2408 14.9994 13.3679 14.9994 13.5005C14.9994 13.6331 14.9467 13.7602 14.853 13.854L12.853 15.854C12.7587 15.9451 12.6324 15.9955 12.5013 15.9943C12.3702 15.9932 12.2448 15.9406 12.1521 15.8479C12.0594 15.7552 12.0068 15.6298 12.0057 15.4987C12.0045 15.3676 12.0549 15.2413 12.146 15.147L13.293 14H6.5C6.36739 14 6.24021 13.9473 6.14645 13.8536C6.05268 13.7598 6 13.6326 6 13.5V2H0.5C0.367392 2 0.240215 1.94732 0.146447 1.85355C0.0526784 1.75979 0 1.63261 0 1.5C0 1.36739 0.0526784 1.24021 0.146447 1.14645C0.240215 1.05268 0.367392 1 0.5 1H6.5C6.63261 1 6.75979 1.05268 6.85355 1.14645C6.94732 1.24021 7 1.36739 7 1.5V13H13.293L12.146 11.854Z" fill="#3B64FC"/>
</svg>
