<svg viewBox="0 0 16 16" fill="none" xmlns="http://www.w3.org/2000/svg">
<g clip-path="url(#clip0_2461_29736)">
<path d="M13.146 11.854C13.0549 11.7597 13.0045 11.6334 13.0057 11.5023C13.0068 11.3712 13.0594 11.2458 13.1521 11.1531C13.2448 11.0604 13.3702 11.0078 13.5013 11.0067C13.6324 11.0055 13.7587 11.0559 13.853 11.147L15.853 13.147C15.9467 13.2408 15.9994 13.3679 15.9994 13.5005C15.9994 13.6331 15.9467 13.7602 15.853 13.854L13.853 15.854C13.7587 15.9451 13.6324 15.9955 13.5013 15.9943C13.3702 15.9932 13.2448 15.9406 13.1521 15.8479C13.0594 15.7552 13.0068 15.6298 13.0057 15.4987C13.0045 15.3676 13.0549 15.2413 13.146 15.147L14.293 14H9.25C4.7 14 3.367 9.338 7.209 6.593C10.278 4.4 9.306 1 5.75 1H0.5C0.367392 1 0.240215 0.947322 0.146447 0.853553C0.0526784 0.759785 0 0.632608 0 0.5C0 0.367392 0.0526784 0.240215 0.146447 0.146447C0.240215 0.0526784 0.367392 0 0.5 0L5.75 0C10.3 0 11.633 4.662 7.791 7.407C4.722 9.6 5.694 13 9.25 13H14.293L13.146 11.854Z" fill="#3B64FC"/>
</g>
<defs>
<clipPath id="clip0_2461_29736">
<rect width="16" height="16" fill="white"/>
</clipPath>
</defs>
</svg>
