<svg viewBox="0 0 86 102" xmlns="http://www.w3.org/2000/svg"><g fill="none" fill-rule="evenodd"><path d="m83 0h-80c-1.65685425 0-3 1.34314575-3 3v96c0 1.656854 1.34314575 3 3 3h80c1.6568542 0 3-1.343146 3-3v-96c0-1.65685425-1.3431458-3-3-3zm0 1c1.1045695 0 2 .8954305 2 2v96c0 1.104569-.8954305 2-2 2h-80c-1.1045695 0-2-.895431-2-2v-96c0-1.1045695.8954305-2 2-2z" fill="#000" fill-opacity=".2" fill-rule="nonzero"/><rect fill="#fff" height="100" rx="2" width="84" x=".999" y="1"/><path d="m20.8175916 66.8895916c.144 0 .472-.136.984-.408s.768-.56.768-.864c0-.048-.016-.444-.048-1.188s-.048-1.852-.048-3.324v-8.376l.312-.168c.176-.112.264-.208.264-.288s-.12-.16-.36-.24l-.936-.312c.864-1.424 1.576-2.816 2.136-4.176.272-.704.648-1.144 1.128-1.32.288-.096.432-.192.432-.288s-.104-.224-.312-.384l-1.992-1.488c-1.232 4.656-3.096 8.936-5.592 12.84l.288.216c.976-1.104 1.952-2.384 2.928-3.84v7.272c0 .928-.028 2.112-.084 3.552s-.084 2.168-.084 2.184c0 .4.072.6.216.6zm9.912 0c.112 0 .42-.112.924-.336s.756-.424.756-.6c0-.032-.012-.276-.036-.732s-.036-1.22-.036-2.292v-6.144h.264c.416 1.632.952 2.992 1.608 4.08s1.44 2.008 2.352 2.76 1.472 1.128 1.68 1.128c.08 0 .152-.048.216-.144.256-.672.856-1.088 1.8-1.248v-.288c-3.2-.752-5.6-2.848-7.2-6.288h6.648c.24 0 .36-.052.36-.156s-.064-.228-.192-.372l-1.536-1.848-1.44 1.728h-4.56v-3.576h2.712v1.32c0 .224.076.336.228.336s.452-.136.9-.408.672-.536.672-.792l-.096-1.152c-.032-.464-.048-.952-.048-1.464v-2.616l.672-.552c.144-.096.216-.188.216-.276s-.088-.204-.264-.348l-1.56-1.296-.84 1.176h-6.768l-1.8-1.128c.064.912.096 1.888.096 2.928v2.136c0 .928-.072 1.92-.216 2.976-.016.208-.024.404-.024.588s.068.276.204.276.452-.104.948-.312.744-.512.744-.912v-.48h2.544v3.576h-5.376c-.72 0-1.384-.048-1.992-.144l.864 1.032c.432-.16.976-.24 1.632-.24h3.192c-1.376 3.152-3.336 5.992-5.88 8.52l.24.288c3.36-2.48 5.76-5.416 7.2-8.808h.12v6.072c0 1.04-.008 1.816-.024 2.328l-.072 1.248c0 .304.056.456.168.456zm4.32-15.024h-6.936v-4.704h6.936zm23.36-4.464c.368 0 .66-.12.876-.36s.324-.552.324-.936c0-.192-.036-.36-.108-.504s-.212-.28-.42-.408-.504-.256-.888-.384-.896-.272-1.536-.432l-.168.288c.288.224.544.524.768.9s.376.82.456 1.332c.064.336.296.504.696.504zm-9.864 4.2c.288.224.58.288.876.192s.564-.336.804-.72c.176-.304.316-.688.42-1.152s.14-1 .108-1.608h15.312l-1.152 2.328.288.192c.768-.768 1.4-1.296 1.896-1.584s.976-.424 1.44-.408c.32.016.496-.04.528-.168s-.072-.304-.312-.528l-1.944-1.752-.96 1.2h-15.144c-.016-.176-.04-.344-.072-.504s-.064-.328-.096-.504l-.36.024c-.032.608-.168 1.192-.408 1.752s-.616 1.128-1.128 1.704c-.224.272-.336.564-.336.876s.08.532.24.66zm9.504.432c.128 0 .26-.044.396-.132s.26-.204.372-.348.204-.308.276-.492.108-.372.108-.564c0-.32-.18-.62-.54-.9s-1.012-.58-1.956-.9l-.216.288c.576.576.936 1.392 1.08 2.448.064.4.224.6.48.6zm-10.68 7.488c1.056-.256 2.096-.572 3.12-.948s2.136-.868 3.336-1.476c.128.224.336.384.624.48s.664.152 1.128.168c1.072.032 2.112.028 3.12-.012s2.088-.108 3.24-.204c.88-.064 1.656-.448 2.328-1.152.16-.16.232-.288.216-.384s-.112-.2-.288-.312-.328-.228-.456-.348-.232-.272-.312-.456-.14-.416-.18-.696-.068-.652-.084-1.116l-.36.024c-.08.704-.16 1.256-.24 1.656s-.172.704-.276.912-.24.344-.408.408-.388.12-.66.168c-.32.048-.684.088-1.092.12s-.836.064-1.284.096-.896.056-1.344.072-.856.024-1.224.024c-.464 0-.736-.08-.816-.24 1.024-.56 2.036-1.156 3.036-1.788s1.98-1.308 2.94-2.028c.336-.256.668-.464.996-.624s.58-.256.756-.288c.224-.032.348-.092.372-.18s-.06-.22-.252-.396l-1.152-1.08c-.848.864-1.824 1.708-2.928 2.532s-2.384 1.676-3.84 2.556v-2.832l.384-.24c.32-.176.312-.336-.024-.48l-2.16-.936c.016.144.028.312.036.504s.016.392.024.6.016.42.024.636.012.404.012.564v3.144c-1.392.8-2.588 1.448-3.588 1.944s-1.948.912-2.844 1.248zm2.4602449-3.3634286.1197551-.0085714c.28-.04.58-.292.9-.756.256-.32.412-.8.468-1.44s.02-1.536-.108-2.688l-.312.072c-.064.656-.212 1.212-.444 1.668s-.588.892-1.068 1.308c-.304.272-.472.552-.504.84s.048.52.24.696c.272.24.548.34.828.3zm17.3397551.1474286c.24 0 .448-.16.624-.48s.264-.712.264-1.176c0-.176-.04-.356-.12-.54s-.264-.392-.552-.624-.7-.492-1.236-.78-1.26-.632-2.172-1.032l-.192.264c.64.512 1.184 1.08 1.632 1.704s.832 1.32 1.152 2.088c.08.224.172.376.276.456s.212.12.324.12zm-3.168 10.38c.064.056.232.028.504-.084.288-.096.512-.18.672-.252s.276-.14.348-.204.108-.128.108-.192v-.216c-.032-.288-.056-.664-.072-1.128s-.024-1.048-.024-1.752v-2.376l.552-.36c.304-.224.296-.408-.024-.552l-2.256-.984c.032.416.056.804.072 1.164s.024.7.024 1.02v3.6h-4.968v-4.896l.432-.48c.144-.144.208-.252.192-.324s-.12-.14-.312-.204l-2.16-.576c.048.848.072 1.576.072 2.184v4.296h-4.464v-3.744l.456-.336c.128-.08.2-.164.216-.252s-.048-.172-.192-.252l-2.232-.96c.032.416.052.776.06 1.08s.012.616.012.936v2.304c0 .192-.004.412-.012.66s-.016.5-.024.756-.02.5-.036.732-.032.428-.048.588c-.032.368-.012.592.06.672s.268.056.588-.072c.256-.096.46-.184.612-.264s.268-.164.348-.252.132-.192.156-.312.036-.268.036-.444v-.168h11.208v1.152c0 .272.032.436.096.492z" fill="#000" fill-opacity=".26" fill-rule="nonzero" transform="matrix(.70710678 -.70710678 .70710678 .70710678 -26.543079 46.875339)"/><path d="m1 12 11-11h23l-34 34z" fill="#f9c563"/><path d="m13.1923882 8.19238816c.5522847 0 1 .44771525 1 1v6.00000004c0 .5522847-.4477153 1-1 1-.5522848 0-1-.4477153-1-1v-6.00000004c0-.55228475.4477152-1 1-1zm6 0c1.6568542 0 3 1.34314575 3 3.00000004 0 1.6568542-1.3431458 3-3 3h-1v1c0 .5522847-.4477153 1-1 1-.5522848 0-1-.4477153-1-1v-7.00000004zm-10.00000004 0c.55228475 0 1.00000004.44771525 1.00000004 1v4.00000004c0 .0898558-.0118514.1769436-.0340763.2597856-.0417112.1726014-.1304741.3359205-.2657835.4700316l-1.97951546 1.961984c-.18047275.1788744-.41200932.2748925-.64730401.2881597h-.13693799c-.2352947-.0132672-.46683126-.1092853-.64730402-.2881597l-1.97951545-1.961984c-.04044955-.0400913-.07673943-.0827928-.10886726-.1275677-.1256883-.1676574-.20069605-.376194-.20069605-.6022495v-4.00000004c0-.55228475.44771525-1 1-1s1 .44771525 1 1v3.58900004l1.005.996.995-.987v-3.59800004c0-.55228475.44771525-1 1-1zm10.00000004 2.00000004h-1v2h1c.5522847 0 1-.4477153 1-1 0-.5522848-.4477153-1-1-1z" fill="#fff" transform="matrix(.70710678 -.70710678 .70710678 .70710678 -4.757199 12.899107)"/></g></svg>