<svg id="图层_1" data-name="图层 1" xmlns="http://www.w3.org/2000/svg" viewBox="0 0 86 102"><defs><style>.cls-1{fill-opacity:0.2;}.cls-2{fill:#fff;}.cls-3{fill:#f9c563;}.cls-4{fill:none;}.cls-5{fill-opacity:0.26;}</style></defs><title>PDF-优化添加3</title><path class="cls-1" d="M83,0H3A3,3,0,0,0,0,3V99a3,3,0,0,0,3,3H83a3,3,0,0,0,3-3V3A3,3,0,0,0,83,0Zm0,1a2,2,0,0,1,2,2V99a2,2,0,0,1-2,2H3a2,2,0,0,1-2-2V3A2,2,0,0,1,3,1Z"/><rect class="cls-2" x="1" y="1" width="84" height="100" rx="2" ry="2"/><path class="cls-3" d="M1,12,12,1H35L1,35Z"/><path class="cls-2" d="M10.364,9.364a1,1,0,0,1,1.414,0l4.243,4.243a1,1,0,0,1-1.414,1.414l-4.243-4.243A1,1,0,0,1,10.364,9.364Zm4.243-4.243A3,3,0,1,1,18.85,9.364l-.707.707.707.707a1,1,0,0,1-1.414,1.414l-4.95-4.95ZM7.536,12.192a1,1,0,0,1,1.414,0l2.828,2.828a1.049,1.049,0,0,1,.3.728l-.012,2.787a.993.993,0,0,1-.254.661l-.1.1a1,1,0,0,1-.661.254l-2.787.013A1.019,1.019,0,0,1,8.1,19.55a1,1,0,0,1-.568-.284L4.708,16.435a1,1,0,1,1,1.414-1.414L8.66,17.559l1.415-.006.006-1.4L7.537,13.608a1,1,0,0,1,0-1.416Zm8.485-5.657-.707.707,1.414,1.414.707-.707a1,1,0,0,0-1.414-1.414Z"/><rect class="cls-4" x="11.608" y="48.907" width="2.376" height="2.316" transform="translate(-31.653 23.712) rotate(-45)"/><rect class="cls-4" x="52.679" y="4.836" width="2.376" height="2.316" transform="translate(11.539 39.845) rotate(-45)"/><rect class="cls-4" x="8.608" y="93.907" width="2.376" height="2.316" transform="translate(-64.352 34.77) rotate(-45)"/><rect class="cls-4" x="53.607" y="48.906" width="2.376" height="2.316" transform="translate(-19.351 53.409) rotate(-45)"/><path class="cls-5" d="M56.115,86.137a.43.43,0,0,0,.093-.365.775.775,0,0,0-.246-.467,1.688,1.688,0,0,0-.844-.344,5.654,5.654,0,0,0-1.506-.055l-.008.161a5.452,5.452,0,0,1,1.9.95Q55.894,86.357,56.115,86.137Z"/><path class="cls-5" d="M65.826,34.191q-2.113,2.113-4.115,1.434a.608.608,0,0,1,.085-.246q.074-.135.027-.179t-.2.021l-.9.441a4.268,4.268,0,0,1,.836,2.278,5.785,5.785,0,0,1-.7,2.321l.178.076a6.966,6.966,0,0,0,1.1-2.3,4.139,4.139,0,0,0-.378-2.16,3.487,3.487,0,0,0,1.532.4,6.479,6.479,0,0,0,2.592-.785q.051-.051-.008-.144a.966.966,0,0,1,.051-1.052Z"/><path class="cls-5" d="M47.531,94.738a.526.526,0,0,1,.4.165,1.9,1.9,0,0,1,.331.492,1.821,1.821,0,0,0,.3.458q.314.314.594.034a.409.409,0,0,0,.144-.424,1.766,1.766,0,0,0-.441-.585,2.2,2.2,0,0,1-.5-.687,3.482,3.482,0,0,1-.2-.84l-.289-2.529-.17.017-.042,2.843a.86.86,0,0,1-.221.594,3.066,3.066,0,0,1-.636.45l.136.187A1.629,1.629,0,0,1,47.531,94.738Z"/><path class="cls-5" d="M61.993,1.932l.17.068a12.407,12.407,0,0,0,.778-1h-.333A7.363,7.363,0,0,1,61.993,1.932Z"/><path class="cls-5" d="M52.768,45.542a1.175,1.175,0,0,1,0-.581q.068-.153.03-.191t-.208.013l-.967.322a19.38,19.38,0,0,1,1.256,2.529l-2,2a7.763,7.763,0,0,1-.755.67l.67.042a2.4,2.4,0,0,1,.492-.679l3.929-3.929q.11-.11.076-.144a.259.259,0,0,0-.136-.051l-1.162-.11.093.993-.916.916Q52.84,45.97,52.768,45.542Z"/><path class="cls-5" d="M51.682,48.478a.3.3,0,0,0,.255-.11.417.417,0,0,0,.055-.42,1.26,1.26,0,0,0-.348-.56,1.414,1.414,0,0,0-.844-.344,3.732,3.732,0,0,0-1.336.115l.017.153a2.944,2.944,0,0,1,.861.276,4.21,4.21,0,0,1,.819.539A1.752,1.752,0,0,0,51.682,48.478Z"/><path class="cls-5" d="M46.228,92.714q.331.28.513.1a.529.529,0,0,0,.148-.462.787.787,0,0,0-.229-.475q-.509-.509-1.748.373l.042.161A1.7,1.7,0,0,1,46.228,92.714Z"/><path class="cls-5" d="M59.893,34.625q-.043-.043-.221.017l-.882.373a8,8,0,0,1,.721,1.764,16.021,16.021,0,0,1,.322,2.181l.2-.059a8.777,8.777,0,0,0,0-2.63l2.647-2.647.475,1.222.187-.051a7.771,7.771,0,0,1-.025-1.273A.993.993,0,0,1,63.588,33q.233-.25.178-.3t-.259-.038l-1.188.085.085.713-2.452,2.452q-.11-.552-.127-.747a.707.707,0,0,1,.047-.344Q59.936,34.668,59.893,34.625Z"/><path class="cls-5" d="M18.151,79.845l.187-.051a7.771,7.771,0,0,1-.025-1.273A.993.993,0,0,1,18.588,78q.233-.25.178-.305t-.259-.038l-1.188.085.085.713-2.452,2.452q-.11-.552-.127-.747a.707.707,0,0,1,.047-.344q.064-.148.021-.191t-.221.017l-.882.373a8,8,0,0,1,.721,1.765,16.022,16.022,0,0,1,.322,2.181l.2-.059a8.782,8.782,0,0,0,0-2.63l2.647-2.647Z"/><path class="cls-5" d="M58.653,39.682a.86.86,0,0,1-.221.594,3.064,3.064,0,0,1-.636.45l.136.187a1.629,1.629,0,0,1,.6-.175.526.526,0,0,1,.4.165,1.9,1.9,0,0,1,.331.492,1.822,1.822,0,0,0,.3.458q.314.314.594.034a.409.409,0,0,0,.144-.424,1.767,1.767,0,0,0-.441-.585,2.2,2.2,0,0,1-.5-.687,3.482,3.482,0,0,1-.2-.84l-.289-2.529-.17.017Z"/><path class="cls-5" d="M49.051,1.348a.489.489,0,0,0,.246.1.3.3,0,0,0,.2-.106A.536.536,0,0,0,49.579,1h-1.36A2.637,2.637,0,0,1,49.051,1.348Z"/><path class="cls-5" d="M26.591,30.575a10.887,10.887,0,0,1-.11-2.588q.076-.144.042-.178t-.17-.017l-.933.136a17.589,17.589,0,0,1,1.018,2.7Z"/><path class="cls-5" d="M28.331,29.209a4.289,4.289,0,0,1,.8.14,2.671,2.671,0,0,1,.747.382q.412.284.59.106a.544.544,0,0,0,.127-.356.551.551,0,0,0-.178-.441q-.518-.518-2.147.042Z"/><path class="cls-5" d="M26.125,31.636l-1.078,1.078a6.39,6.39,0,0,1-.755.653l.679.068a2.118,2.118,0,0,1,.367-.552l.872-.873a15.089,15.089,0,0,1,1.332,4.76l.187-.017a11.858,11.858,0,0,0-.093-2.087,9.265,9.265,0,0,0-.416-1.935l1.409,1.409q.6.6,1.146,1.213l.849.933q.17.17.255.085a1.857,1.857,0,0,0,.187-.441.528.528,0,0,0-.051-.577q-.034-.034-.42-.386t-1.226-1.192L27.55,31.958a5.092,5.092,0,0,1,.865.042,3.045,3.045,0,0,1,.683.148.4.4,0,0,0,.445-.132q.221-.221-.246-.687t-1.926.45l-.467-.467,1.468-1.468q.119-.119.072-.165a.375.375,0,0,0-.191-.072l-1.035-.085.085.933-.628.628L24.2,28.607l.17-.356q.085-.17.034-.221t-.2.017l-1.264.484q.585.5,1.451,1.366Z"/><path class="cls-5" d="M25.161,71.536a2.36,2.36,0,0,0-.734.064,4.81,4.81,0,0,0-1,.335l.025.127a2.649,2.649,0,0,1,1.748.509q.339.238.552.025a.425.425,0,0,0,.1-.386.788.788,0,0,0-.233-.445A.774.774,0,0,0,25.161,71.536Z"/><path class="cls-5" d="M28.161,26.536a2.36,2.36,0,0,0-.734.064,4.81,4.81,0,0,0-1,.335l.025.127a2.65,2.65,0,0,1,1.748.509q.339.238.552.025a.425.425,0,0,0,.1-.386.788.788,0,0,0-.233-.445A.774.774,0,0,0,28.161,26.536Z"/><path class="cls-5" d="M48.058,3a6.631,6.631,0,0,1-.764.662l.687.042a2.313,2.313,0,0,1,.493-.659L50.519,1h-.458Z"/><path class="cls-5" d="M56.663,3.545q.382.382,1,1.039t.823.908a1.147,1.147,0,0,0,.3.289.136.136,0,0,0,.161-.034,1.356,1.356,0,0,0,.2-.365.843.843,0,0,0,.1-.39.369.369,0,0,0-.106-.182q-.085-.085-.45-.416-.292-.265-.92-.888L55.26,1H54.117Z"/><path class="cls-5" d="M20.824,79.191q-2.113,2.113-4.115,1.434a.608.608,0,0,1,.085-.246q.076-.136.03-.182t-.2.021l-.9.441a4.267,4.267,0,0,1,.836,2.278,5.784,5.784,0,0,1-.7,2.321l.178.076a6.967,6.967,0,0,0,1.1-2.3,4.139,4.139,0,0,0-.378-2.16,3.488,3.488,0,0,0,1.532.4,4.652,4.652,0,0,0,1.6-.339,4.651,4.651,0,0,0,1-.445q.051-.051-.008-.144a.966.966,0,0,1,.051-1.052Z"/><path class="cls-5" d="M25.331,74.209a4.29,4.29,0,0,1,.8.14,2.671,2.671,0,0,1,.747.382q.412.284.59.106a.544.544,0,0,0,.127-.356.551.551,0,0,0-.178-.441q-.518-.518-2.147.042Z"/><path class="cls-5" d="M58.532,1.415a1.219,1.219,0,0,1-.322.458,8.432,8.432,0,0,1-.9.73l.093.144a4.4,4.4,0,0,1,1.044-.39,1.264,1.264,0,0,1,.7.178q.178.093.25.021a1.418,1.418,0,0,0,.161-.526,1.9,1.9,0,0,0-.008-.84A1.923,1.923,0,0,0,59.459,1H58.364C58.506,1.156,58.57,1.3,58.532,1.415Z"/><path class="cls-5" d="M39.708,11.913q.484.433.925.874l3.784,3.784q.687.687,1.281,1.383.2.238.293.148a1.275,1.275,0,0,0,.208-.361,1.074,1.074,0,0,0,.115-.361.286.286,0,0,0-.1-.182L41,11.981l2.1-2.1a7.639,7.639,0,0,1,1.574,2.66,6.968,6.968,0,0,1,.123,3.042l.2.042A7.928,7.928,0,0,0,45.325,13a5.392,5.392,0,0,0-.653-2.13,9.8,9.8,0,0,1,1.65.021,5.837,5.837,0,0,1,1.264.221,3.244,3.244,0,0,0,.547.157.254.254,0,0,0,.221-.059.4.4,0,0,0,.068-.416,1.051,1.051,0,0,0-.271-.467q-.628-.628-3.589.314a9.177,9.177,0,0,0-.9-1.324l2.24-2.24,4.378,4.378a.655.655,0,0,1,.229.373q.009.153-.272.433t-1.162.976l.119.17a3.91,3.91,0,0,1,1.2-.56.816.816,0,0,1,.687.17q.127.11.229.008a1.453,1.453,0,0,0,.221-.552,1.231,1.231,0,0,0,0-.751,3.007,3.007,0,0,0-.675-.861L46.6,6.6l.085-.441a.191.191,0,0,0-.03-.165.222.222,0,0,0-.182-.03l-1.044.144.093.874L43.443,9.061q-.4-.5-.7-.849a2.072,2.072,0,0,1-.378-.539.585.585,0,0,1-.025-.365q.047-.174,0-.221t-.242.047L40.885,7.6q1.332,1.3,1.986,2.036l-1.926,1.926Z"/><path class="cls-5" d="M57.523,81.809q-.034-.034-.17-.017l-.933.136a17.589,17.589,0,0,1,1.018,2.7l.153-.051a10.88,10.88,0,0,1-.11-2.588Q57.557,81.843,57.523,81.809Z"/><path class="cls-5" d="M70.752,27.6a.425.425,0,0,0,.1-.386.788.788,0,0,0-.233-.445.774.774,0,0,0-.458-.229,2.36,2.36,0,0,0-.734.064,4.811,4.811,0,0,0-1,.335l.025.127a2.649,2.649,0,0,1,1.748.509Q70.539,27.81,70.752,27.6Z"/><path class="cls-5" d="M67.115,32.137a.43.43,0,0,0,.093-.365.775.775,0,0,0-.246-.467,1.688,1.688,0,0,0-.844-.344,5.659,5.659,0,0,0-1.506-.055l-.008.161a5.451,5.451,0,0,1,1.9.95Q66.894,32.357,67.115,32.137Z"/><path class="cls-5" d="M68.523,27.809q-.034-.034-.17-.017l-.933.136a17.589,17.589,0,0,1,1.018,2.7l.153-.053a10.887,10.887,0,0,1-.11-2.588Q68.557,27.843,68.523,27.809Z"/><path class="cls-5" d="M66.766,39.631a1.905,1.905,0,0,0,.212-.433q.153-.373.042-.484l-.365-.3a4.925,4.925,0,0,1-.441-.39l-.849-.849.11-.484q.042-.127,0-.17t-.161-.008l-1.112.229.1.611-2.97,2.97-1.069.339q.467.416.789.738l1.129,1.129q.255.255.467.484l.339.373q.144.144.216.072a1.158,1.158,0,0,0,.178-.356,1.125,1.125,0,0,0,.1-.369.33.33,0,0,0-.11-.187l-1.9-1.9,3.1-3.1L66.6,39.588Q66.706,39.69,66.766,39.631Z"/><path class="cls-5" d="M64.071,39.075q-.055-.055-.216.021l-.933.373a4.6,4.6,0,0,1,1.5,3.029,7.383,7.383,0,0,1-1.5,3.5l.17.068a12.421,12.421,0,0,0,1.421-2.015,4.073,4.073,0,0,0,.552-1.969,4.462,4.462,0,0,0-.81-2.287q-.246-.4-.187-.535T64.071,39.075Z"/><path class="cls-5" d="M71.13,29.349a2.671,2.671,0,0,1,.747.382q.414.284.592.106a.544.544,0,0,0,.127-.356.551.551,0,0,0-.178-.441q-.518-.518-2.147.042l.059.127A4.29,4.29,0,0,1,71.13,29.349Z"/><path class="cls-5" d="M81.98,53.419a.491.491,0,0,0,.246.1.3.3,0,0,0,.2-.106.542.542,0,0,0,.081-.42.783.783,0,0,0-.221-.509q-.492-.492-1.663.3l.017.187A2.657,2.657,0,0,1,81.98,53.419Z"/><path class="cls-5" d="M81.4,55.116l3.4-3.4q.119-.119.085-.153a.327.327,0,0,0-.17-.051l-1.137-.1.085.984-2.681,2.681a6.642,6.642,0,0,1-.764.662l.687.042A2.311,2.311,0,0,1,81.4,55.116Z"/><path class="cls-5" d="M70.489,24.446l.085-.322q.042-.2,0-.242t-.2.021l-1.23.467q.764.7,1.434,1.366l3.41,3.414-1.909,2.724q-.229.331-.586.789l.679-.068a2.217,2.217,0,0,1,.348-.755l1.714-2.44.687.687q.543.543,1.112,1.162l.84.942q.221.221.31.132a1.4,1.4,0,0,0,.2-.509q.115-.42-.03-.564-.025-.025-.416-.382t-1.23-1.2l-.976-.976.95-1.375q.136-.187.085-.238t-.28-.026l-.967.1.238.865-.28.416Z"/><path class="cls-5" d="M81.48,55.311a2.942,2.942,0,0,1,.861.276,4.2,4.2,0,0,1,.819.539,1.752,1.752,0,0,0,.522.352.3.3,0,0,0,.255-.11.417.417,0,0,0,.055-.42,1.26,1.26,0,0,0-.348-.56,1.414,1.414,0,0,0-.844-.344,3.732,3.732,0,0,0-1.336.115Z"/><path class="cls-5" d="M58.245,46.675l.093.144a4.4,4.4,0,0,1,1.044-.39,1.264,1.264,0,0,1,.7.178q.178.093.25.021a1.419,1.419,0,0,0,.161-.526,1.905,1.905,0,0,0-.008-.84,1.954,1.954,0,0,0-.556-.844q-1.188-1.188-3.479-.56l-.942-2.6a1.186,1.186,0,0,1,0-.984q.1-.17.059-.212t-.229-.025l-1.1.034.034.882-.95.95-1.256.255q.772.7,1.451,1.383L57.6,47.622q.382.382,1,1.039t.823.908a1.147,1.147,0,0,0,.3.289.136.136,0,0,0,.161-.034,1.355,1.355,0,0,0,.2-.365.845.845,0,0,0,.1-.39.369.369,0,0,0-.106-.182q-.085-.085-.45-.416-.292-.265-.921-.888L53.4,42.277l1.2-1.2,1.663,3.241a3.433,3.433,0,0,1,1.718.03,2.882,2.882,0,0,1,1.3.683q.263.263.2.458a1.217,1.217,0,0,1-.322.458A8.429,8.429,0,0,1,58.245,46.675Z"/><path class="cls-5" d="M59.161,80.536a2.36,2.36,0,0,0-.734.064,4.807,4.807,0,0,0-1,.335l.025.127a2.649,2.649,0,0,1,1.748.509q.339.238.552.025a.425.425,0,0,0,.1-.386.788.788,0,0,0-.233-.445A.775.775,0,0,0,59.161,80.536Z"/><path class="cls-5" d="M50.226,45.521a.3.3,0,0,0,.2-.106.543.543,0,0,0,.081-.42.783.783,0,0,0-.221-.509q-.492-.492-1.663.3l.017.187a2.657,2.657,0,0,1,1.341.441A.491.491,0,0,0,50.226,45.521Z"/><path class="cls-5" d="M50.753,4.407a.3.3,0,0,0,.255-.11.417.417,0,0,0,.055-.42,1.261,1.261,0,0,0-.348-.56,1.414,1.414,0,0,0-.844-.344,3.731,3.731,0,0,0-1.336.115l.017.153a2.944,2.944,0,0,1,.861.276,4.207,4.207,0,0,1,.819.539A1.755,1.755,0,0,0,50.753,4.407Z"/><path class="cls-5" d="M55.913,38.247l.042.161a1.7,1.7,0,0,1,1.273.3q.331.28.513.1a.529.529,0,0,0,.148-.462.787.787,0,0,0-.229-.475Q57.152,37.365,55.913,38.247Z"/><path class="cls-5" d="M50.91,5.921q.518.467,1.078,1.027l1.043,1.044q.4.4,1.069,1.2.229.3.39.136A1.141,1.141,0,0,0,54.681,9a.678.678,0,0,0,.085-.348.491.491,0,0,0-.148-.233l-.543-.543,1.68-1.68.619.619q.119.119.187.051a1.346,1.346,0,0,0,.17-.458q.1-.39-.034-.526l-.441-.39q-.263-.229-.535-.5L54.66,3.936l.042-.382a.114.114,0,0,0-.034-.1.164.164,0,0,0-.136-.034L53.471,3.5l.093.7-1.492,1.5Zm2.978-1.586,1.638,1.638-1.68,1.68L52.208,6.015Z"/><path class="cls-5" d="M48.911,47.778a2.312,2.312,0,0,1,.492-.662l3.4-3.4q.119-.119.085-.153a.329.329,0,0,0-.17-.051l-1.137-.1.085.984-2.681,2.681a6.642,6.642,0,0,1-.764.662Z"/><path class="cls-5" d="M50.693,1.037a19.388,19.388,0,0,1,1.256,2.529l-2,2a7.771,7.771,0,0,1-.755.67l.67.042A2.4,2.4,0,0,1,50.35,5.6l3.928-3.93q.11-.11.076-.144a.259.259,0,0,0-.136-.051l-1.162-.11.093.993-.916.916q-.322-1.375-.4-1.8A1.168,1.168,0,0,1,51.825,1H50.8Z"/><path class="cls-5" d="M57.184,49.568q-.263-.229-.535-.5l-1.061-1.061.042-.382a.114.114,0,0,0-.034-.1.164.164,0,0,0-.136-.034l-1.061.076.093.7L53,49.763l-1.162.229q.518.467,1.078,1.027l1.044,1.044q.4.4,1.069,1.2.229.3.39.136a1.139,1.139,0,0,0,.191-.327.678.678,0,0,0,.085-.348.492.492,0,0,0-.148-.233L55,51.953l1.68-1.68.619.619q.119.119.187.051a1.347,1.347,0,0,0,.17-.458q.1-.39-.034-.526Zm-2.41,2.155-1.638-1.638,1.68-1.68,1.638,1.638Z"/><path class="cls-5" d="M59.331,83.209a4.294,4.294,0,0,1,.8.14,2.67,2.67,0,0,1,.747.382q.412.284.59.106a.545.545,0,0,0,.127-.356.551.551,0,0,0-.178-.441q-.518-.518-2.147.042Z"/><path class="cls-5" d="M40.637,55.984q.484.433.925.874l3.784,3.784q.687.687,1.281,1.383.2.238.293.148a1.278,1.278,0,0,0,.208-.361,1.075,1.075,0,0,0,.115-.361.286.286,0,0,0-.1-.182l-5.218-5.218,2.1-2.1a7.64,7.64,0,0,1,1.574,2.66,6.968,6.968,0,0,1,.123,3.042l.2.042a7.928,7.928,0,0,0,.339-2.63,5.39,5.39,0,0,0-.653-2.13,9.793,9.793,0,0,1,1.65.021,5.839,5.839,0,0,1,1.264.221,3.25,3.25,0,0,0,.547.157.254.254,0,0,0,.221-.059.4.4,0,0,0,.068-.416,1.05,1.05,0,0,0-.272-.467q-.628-.628-3.589.314a9.177,9.177,0,0,0-.9-1.324l2.24-2.24,4.378,4.378a.655.655,0,0,1,.229.373q.008.153-.272.433T50,57.308l.119.17a3.913,3.913,0,0,1,1.2-.56.816.816,0,0,1,.687.17q.127.11.229.008a1.452,1.452,0,0,0,.221-.552,1.23,1.23,0,0,0,0-.751,3.008,3.008,0,0,0-.675-.861l-4.26-4.26.085-.441a.192.192,0,0,0-.03-.165.222.222,0,0,0-.182-.03l-1.044.144.093.874L44.37,53.133q-.4-.5-.7-.849a2.072,2.072,0,0,1-.378-.539.584.584,0,0,1-.025-.365q.047-.174,0-.221t-.242.047l-1.213.467q1.332,1.3,1.986,2.036l-1.926,1.926Z"/><path class="cls-5" d="M54.824,88.191q-2.113,2.113-4.115,1.434a.61.61,0,0,1,.085-.246q.076-.136.03-.182t-.2.021l-.9.441a4.268,4.268,0,0,1,.836,2.278,5.784,5.784,0,0,1-.7,2.321l.178.076a6.967,6.967,0,0,0,1.1-2.3,4.139,4.139,0,0,0-.378-2.16,3.487,3.487,0,0,0,1.532.4,6.48,6.48,0,0,0,2.592-.785q.051-.051-.008-.144a.966.966,0,0,1,.051-1.052Z"/><path class="cls-5" d="M52.151,88.845l.187-.051a7.771,7.771,0,0,1-.025-1.273A.993.993,0,0,1,52.588,87q.233-.25.178-.305t-.259-.038l-1.188.085.085.713-2.452,2.452q-.11-.552-.127-.747a.707.707,0,0,1,.047-.344q.064-.148.021-.191t-.221.017l-.882.373a8,8,0,0,1,.721,1.765,16.03,16.03,0,0,1,.322,2.181l.2-.059a8.782,8.782,0,0,0,0-2.63l2.647-2.647Z"/><path class="cls-5" d="M9.682,48.478a.3.3,0,0,0,.255-.11.417.417,0,0,0,.055-.42,1.26,1.26,0,0,0-.348-.56,1.414,1.414,0,0,0-.844-.344,3.732,3.732,0,0,0-1.336.115l.017.153a2.943,2.943,0,0,1,.861.276,4.209,4.209,0,0,1,.819.539A1.752,1.752,0,0,0,9.682,48.478Z"/><path class="cls-5" d="M48.925,98.418q-1.188-1.188-3.479-.56l-.942-2.6a1.186,1.186,0,0,1,0-.984q.1-.17.059-.212t-.229-.025l-1.1.034.034.882-.95.95-1.256.255q.772.7,1.451,1.383L45.975,101h1.138l-4.73-4.729,1.2-1.2,1.663,3.241a3.433,3.433,0,0,1,1.718.03,2.881,2.881,0,0,1,1.3.683q.263.263.2.458a1.217,1.217,0,0,1-.322.458,8.432,8.432,0,0,1-.9.73l.093.144a4.4,4.4,0,0,1,1.044-.39,1.263,1.263,0,0,1,.7.178q.178.093.25.021a1.417,1.417,0,0,0,.161-.526,1.9,1.9,0,0,0-.008-.84A1.954,1.954,0,0,0,48.925,98.418Z"/><path class="cls-5" d="M31.941,75.864q-.39-.356-1.23-1.2l-.976-.976.95-1.375q.136-.187.085-.238t-.28-.026l-.967.1.238.865-.28.416-3.988-3.988.085-.322q.042-.2,0-.242t-.2.021l-1.23.467q.764.7,1.434,1.366l3.411,3.411-1.909,2.724q-.229.331-.586.789l.679-.068a2.217,2.217,0,0,1,.348-.755L29.234,74.4l.687.687q.543.543,1.112,1.162l.84.942q.221.221.31.132a1.4,1.4,0,0,0,.2-.509q.115-.42-.03-.564Q32.331,76.22,31.941,75.864Z"/><path class="cls-5" d="M41.891,97.561a.329.329,0,0,0-.17-.051l-1.137-.1.085.984L38.061,101h.458l3.287-3.287Q41.925,97.6,41.891,97.561Z"/><path class="cls-5" d="M34.941,30.864q-.39-.356-1.23-1.2l-.976-.976.95-1.375q.136-.187.085-.238t-.28-.026l-.967.1.238.865-.28.416-3.988-3.988.085-.322q.042-.2,0-.242t-.2.021l-1.23.467q.764.7,1.434,1.366l3.411,3.411-1.909,2.724q-.229.331-.586.789l.679-.068a2.217,2.217,0,0,1,.348-.755L32.234,29.4l.687.687q.543.543,1.112,1.162l.84.942q.221.221.31.132a1.4,1.4,0,0,0,.2-.509q.115-.42-.03-.564Q35.331,31.22,34.941,30.864Z"/><path class="cls-5" d="M41.763,98.961q.068-.153.03-.191t-.208.013l-.967.322a16.964,16.964,0,0,1,.977,1.9h.488c-.166-.716-.273-1.212-.315-1.458A1.173,1.173,0,0,1,41.763,98.961Z"/><path class="cls-5" d="M42.985,99.436l.093.993-.571.571h.441l1.259-1.259q.11-.11.076-.144a.26.26,0,0,0-.136-.051Z"/><path class="cls-5" d="M39.226,99.521a.3.3,0,0,0,.2-.106.542.542,0,0,0,.081-.42.783.783,0,0,0-.221-.509q-.492-.492-1.663.3l.017.187a2.657,2.657,0,0,1,1.341.441A.491.491,0,0,0,39.226,99.521Z"/><path class="cls-5" d="M12.184,94.568q-.263-.229-.535-.5l-1.061-1.061.042-.382a.114.114,0,0,0-.034-.1.164.164,0,0,0-.136-.034l-1.06.075.093.7L8,94.763l-1.162.229q.518.467,1.078,1.027L8.96,97.063q.4.4,1.069,1.2.229.3.39.136a1.139,1.139,0,0,0,.191-.327.678.678,0,0,0,.085-.348.492.492,0,0,0-.148-.233L10,96.953l1.68-1.68.619.619q.119.119.187.051a1.35,1.35,0,0,0,.17-.458q.1-.39-.034-.526Zm-2.41,2.155L8.137,95.086l1.68-1.68,1.638,1.638Z"/><path class="cls-5" d="M14.925,89.418q-1.188-1.188-3.479-.56l-.942-2.6a1.186,1.186,0,0,1,0-.984q.1-.17.059-.212t-.229-.025l-1.1.034.034.882-.95.95-1.256.255q.772.7,1.451,1.383l4.081,4.081q.382.382,1,1.039t.823.908a1.148,1.148,0,0,0,.3.289.136.136,0,0,0,.161-.034,1.355,1.355,0,0,0,.2-.365.844.844,0,0,0,.1-.39.369.369,0,0,0-.106-.182q-.085-.085-.45-.416-.292-.265-.92-.888L8.383,87.271l1.2-1.2,1.663,3.241a3.432,3.432,0,0,1,1.718.03,2.881,2.881,0,0,1,1.3.683q.263.263.2.458a1.218,1.218,0,0,1-.322.458,8.432,8.432,0,0,1-.9.73l.093.144a4.4,4.4,0,0,1,1.044-.39,1.264,1.264,0,0,1,.7.178q.178.093.25.021a1.418,1.418,0,0,0,.161-.526,1.905,1.905,0,0,0-.008-.84A1.955,1.955,0,0,0,14.925,89.418Z"/><path class="cls-5" d="M18.206,88.462a1.157,1.157,0,0,0,.178-.356,1.123,1.123,0,0,0,.1-.369.33.33,0,0,0-.11-.187l-1.9-1.9,3.1-3.1L21.6,84.588q.1.1.161.042a1.9,1.9,0,0,0,.212-.433q.153-.373.042-.484l-.365-.3a4.925,4.925,0,0,1-.441-.39l-.849-.849.11-.484q.042-.127,0-.17t-.161-.008l-1.112.229.1.611-2.97,2.97-1.069.339q.467.416.789.738l1.129,1.129q.255.255.467.484l.339.373Q18.134,88.534,18.206,88.462Z"/><path class="cls-5" d="M24,84.249q-.28-.28-1.175.089a11.5,11.5,0,0,0-2.38,1.515l.068.221a7.531,7.531,0,0,1,3.123-.95.7.7,0,0,0,.586-.178.285.285,0,0,0,.042-.288A.937.937,0,0,0,24,84.249Z"/><path class="cls-5" d="M19.067,84.266q.059-.136,0-.191t-.216.021l-.933.373a4.6,4.6,0,0,1,1.5,3.029,7.383,7.383,0,0,1-1.5,3.5l.17.068a12.419,12.419,0,0,0,1.421-2.015,4.073,4.073,0,0,0,.552-1.969,4.461,4.461,0,0,0-.81-2.287Q19.008,84.4,19.067,84.266Z"/><path class="cls-5" d="M27.592,79.966q-.3-.274-.875-.843L24.55,76.958a5.085,5.085,0,0,1,.865.042,3.039,3.039,0,0,1,.683.148.4.4,0,0,0,.445-.132q.221-.221-.246-.687t-1.926.45l-.467-.467,1.468-1.468q.119-.119.072-.165a.375.375,0,0,0-.191-.072l-1.035-.085.085.933-.628.628L21.2,73.607l.17-.356q.085-.17.034-.221t-.2.017l-1.264.484q.585.5,1.451,1.366l1.74,1.74-1.078,1.078a6.4,6.4,0,0,1-.755.653l.679.068a2.122,2.122,0,0,1,.484-.67l.755-.755a15.089,15.089,0,0,1,1.332,4.76l.187-.017a11.863,11.863,0,0,0-.093-2.087,9.269,9.269,0,0,0-.416-1.935l1.409,1.409q.6.6,1.146,1.213l.849.933q.17.17.255.085a1.856,1.856,0,0,0,.187-.441.528.528,0,0,0-.051-.577Q27.978,80.319,27.592,79.966Z"/><path class="cls-5" d="M72.876,36.371a1.857,1.857,0,0,0,.187-.441.528.528,0,0,0-.051-.577q-.034-.034-.42-.386t-1.226-1.192L69.55,31.958a5.091,5.091,0,0,1,.865.042,3.045,3.045,0,0,1,.683.148.4.4,0,0,0,.445-.132q.221-.221-.246-.687t-1.926.45l-.467-.467,1.468-1.468q.119-.119.072-.165a.375.375,0,0,0-.191-.072l-1.035-.085.085.933-.628.628L66.2,28.607l.17-.356q.085-.17.034-.221t-.2.017l-1.264.484q.585.5,1.451,1.366l1.74,1.74-1.078,1.078a6.4,6.4,0,0,1-.755.653l.679.068a2.119,2.119,0,0,1,.484-.67l.755-.755a15.088,15.088,0,0,1,1.332,4.76l.187-.017a11.869,11.869,0,0,0-.093-2.087,9.269,9.269,0,0,0-.416-1.935l1.409,1.409q.6.6,1.146,1.213l.849.933Q72.792,36.456,72.876,36.371Z"/><path class="cls-5" d="M83.786,62.932l-4.26-4.26.085-.441a.192.192,0,0,0-.03-.165.222.222,0,0,0-.182-.03l-1.044.144.093.874L76.37,61.133q-.4-.5-.7-.849a2.072,2.072,0,0,1-.378-.539.584.584,0,0,1-.025-.365q.047-.174,0-.221t-.242.047l-1.213.467q1.332,1.3,1.986,2.036l-1.926,1.926-1.23.348q.484.433.925.874l3.784,3.784q.687.687,1.281,1.383.2.238.293.148a1.278,1.278,0,0,0,.208-.361,1.076,1.076,0,0,0,.115-.361.286.286,0,0,0-.1-.182L73.93,64.05l2.1-2.1A7.64,7.64,0,0,1,77.6,64.61a6.969,6.969,0,0,1,.123,3.042l.2.042a7.93,7.93,0,0,0,.339-2.63,5.392,5.392,0,0,0-.653-2.13,9.806,9.806,0,0,1,1.65.021,5.841,5.841,0,0,1,1.264.221,3.244,3.244,0,0,0,.547.157.254.254,0,0,0,.221-.059.4.4,0,0,0,.068-.416,1.05,1.05,0,0,0-.272-.467q-.628-.628-3.589.314a9.181,9.181,0,0,0-.9-1.324l2.24-2.24,4.378,4.378a.655.655,0,0,1,.229.373q.008.153-.272.433T82,65.308l.119.17a3.915,3.915,0,0,1,1.2-.56.816.816,0,0,1,.687.17q.127.11.229.008a1.451,1.451,0,0,0,.221-.552,1.23,1.23,0,0,0,0-.751A3.008,3.008,0,0,0,83.786,62.932Z"/><path class="cls-5" d="M84.916,59.019,85,59.1V57.764l-1.161.229Q84.356,58.459,84.916,59.019Z"/><path class="cls-5" d="M9.279,49.67l3.929-3.929q.11-.11.076-.144a.259.259,0,0,0-.136-.051l-1.162-.11.093.993-.916.916q-.322-1.375-.4-1.8a1.173,1.173,0,0,1,0-.581q.068-.153.03-.191t-.208.013l-.967.322a19.391,19.391,0,0,1,1.256,2.529l-2,2a7.755,7.755,0,0,1-.755.67l.67.042A2.4,2.4,0,0,1,9.279,49.67Z"/><path class="cls-5" d="M84.059,50.152c.334.3.633.6.941.9V49.961Z"/><path class="cls-5" d="M61.592,88.966q-.3-.274-.875-.843L58.55,85.958a5.085,5.085,0,0,1,.865.042,3.039,3.039,0,0,1,.683.148.4.4,0,0,0,.445-.132q.221-.221-.246-.687t-1.926.45l-.467-.467,1.468-1.468q.119-.119.072-.165a.375.375,0,0,0-.191-.072l-1.035-.085.085.933-.628.628L55.2,82.607l.17-.356q.085-.17.034-.221t-.2.017l-1.264.484q.585.5,1.451,1.366l1.74,1.74-1.078,1.078a6.4,6.4,0,0,1-.755.653l.679.068a2.12,2.12,0,0,1,.484-.67l.755-.755a15.087,15.087,0,0,1,1.332,4.76l.187-.017a11.863,11.863,0,0,0-.093-2.087,9.269,9.269,0,0,0-.416-1.935l1.409,1.409q.6.6,1.146,1.213l.849.933q.17.17.255.085a1.856,1.856,0,0,0,.187-.441.528.528,0,0,0-.051-.577Q61.978,89.319,61.592,88.966Z"/><path class="cls-5" d="M69,39.249q-.28-.28-1.175.089a11.5,11.5,0,0,0-2.38,1.515l.068.221a7.531,7.531,0,0,1,3.123-.95.7.7,0,0,0,.586-.178.285.285,0,0,0,.042-.288A.938.938,0,0,0,69,39.249Z"/><path class="cls-5" d="M53.067,93.266q.059-.136,0-.191t-.216.021l-.933.373a4.6,4.6,0,0,1,1.5,3.029,7.383,7.383,0,0,1-1.5,3.5l.17.068a12.419,12.419,0,0,0,1.421-2.015,4.073,4.073,0,0,0,.552-1.969,4.461,4.461,0,0,0-.81-2.287Q53.008,93.4,53.067,93.266Z"/><path class="cls-5" d="M58,93.249q-.28-.28-1.175.089a11.5,11.5,0,0,0-2.38,1.515l.068.221a7.531,7.531,0,0,1,3.123-.95.7.7,0,0,0,.586-.178.285.285,0,0,0,.042-.288A.937.937,0,0,0,58,93.249Z"/><path class="cls-5" d="M52.206,97.462a1.156,1.156,0,0,0,.178-.356,1.124,1.124,0,0,0,.1-.369.33.33,0,0,0-.11-.187l-1.9-1.9,3.1-3.1L55.6,93.588q.1.1.161.042a1.907,1.907,0,0,0,.212-.433q.153-.373.042-.484l-.365-.3a4.925,4.925,0,0,1-.441-.39l-.849-.849.11-.484q.042-.127,0-.17t-.161-.008l-1.112.229.1.611-2.97,2.97-1.069.339q.467.416.789.738l1.129,1.129q.255.255.467.484l.339.373Q52.134,97.534,52.206,97.462Z"/><path class="cls-5" d="M65.941,84.864q-.39-.356-1.23-1.2l-.976-.976.95-1.375q.136-.187.085-.238t-.28-.026l-.967.1.238.865-.28.416-3.988-3.988.085-.322q.042-.2,0-.242t-.2.021l-1.23.467q.764.7,1.434,1.366l3.411,3.411-1.909,2.724q-.229.331-.586.789l.679-.068a2.217,2.217,0,0,1,.348-.755L63.234,83.4l.687.687q.543.543,1.112,1.162l.84.942q.221.221.31.132a1.4,1.4,0,0,0,.2-.509q.115-.42-.03-.564Q66.331,85.22,65.941,84.864Z"/><path class="cls-5" d="M84.763,52.961q.068-.153.03-.191t-.208.013l-.967.322a19.388,19.388,0,0,1,1.256,2.529l-2,2a7.771,7.771,0,0,1-.755.67l.67.042a2.4,2.4,0,0,1,.492-.679L85,55.949V54.643c-.119-.525-.2-.9-.232-1.1A1.175,1.175,0,0,1,84.763,52.961Z"/><path class="cls-5" d="M19.823,35.2q-.047-.047-.2.021l-.9.441a4.268,4.268,0,0,1,.836,2.278,5.785,5.785,0,0,1-.7,2.321l.178.076a6.966,6.966,0,0,0,1.1-2.3,4.139,4.139,0,0,0-.378-2.16,3.487,3.487,0,0,0,1.532.4,4.652,4.652,0,0,0,1.6-.339,4.649,4.649,0,0,0,1-.445q.051-.051-.008-.144a.966.966,0,0,1,.051-1.052l-.1-.1q-2.113,2.113-4.115,1.434a.608.608,0,0,1,.085-.246Q19.87,35.244,19.823,35.2Z"/><path class="cls-5" d="M23.591,75.575a10.88,10.88,0,0,1-.11-2.588q.076-.144.042-.178t-.17-.017l-.933.136a17.589,17.589,0,0,1,1.018,2.7Z"/><path class="cls-5" d="M22.513,44.056a4.073,4.073,0,0,0,.552-1.969,4.462,4.462,0,0,0-.81-2.287q-.246-.4-.187-.535t0-.191q-.055-.055-.216.021l-.933.373a4.6,4.6,0,0,1,1.5,3.029,7.383,7.383,0,0,1-1.5,3.5l.17.068A12.412,12.412,0,0,0,22.513,44.056Z"/><path class="cls-5" d="M27.218,39.944a.285.285,0,0,0,.042-.288.937.937,0,0,0-.26-.407q-.28-.28-1.175.089a11.5,11.5,0,0,0-2.38,1.515l.068.221a7.531,7.531,0,0,1,3.123-.95A.7.7,0,0,0,27.218,39.944Z"/><path class="cls-5" d="M25.115,32.137a.43.43,0,0,0,.093-.365.775.775,0,0,0-.246-.467,1.688,1.688,0,0,0-.844-.344,5.66,5.66,0,0,0-1.506-.055l-.008.161a5.452,5.452,0,0,1,1.9.95Q24.894,32.357,25.115,32.137Z"/><path class="cls-5" d="M15.932,40.912a1.628,1.628,0,0,1,.6-.174.526.526,0,0,1,.4.165,1.9,1.9,0,0,1,.331.492,1.825,1.825,0,0,0,.3.458q.314.314.594.034a.409.409,0,0,0,.144-.424,1.767,1.767,0,0,0-.441-.585,2.2,2.2,0,0,1-.5-.687,3.482,3.482,0,0,1-.2-.84l-.289-2.529-.17.017-.042,2.843a.86.86,0,0,1-.221.594,3.063,3.063,0,0,1-.636.45Z"/><path class="cls-5" d="M17.833,38.96l.2-.059a8.778,8.778,0,0,0,0-2.63l2.647-2.647.475,1.222.187-.051a7.771,7.771,0,0,1-.025-1.273A.993.993,0,0,1,21.588,33q.233-.25.178-.3t-.259-.038l-1.188.085.085.713-2.452,2.452q-.11-.552-.127-.747a.707.707,0,0,1,.047-.344q.064-.148.021-.191t-.221.017l-.882.373a8,8,0,0,1,.721,1.765A16.025,16.025,0,0,1,17.833,38.96Z"/><path class="cls-5" d="M11.96,52.063q.4.4,1.069,1.2.229.3.39.136a1.139,1.139,0,0,0,.191-.327.678.678,0,0,0,.085-.348.492.492,0,0,0-.148-.233L13,51.953l1.68-1.68.619.619q.119.119.187.051a1.35,1.35,0,0,0,.17-.458q.1-.39-.034-.526l-.441-.39q-.263-.229-.535-.5l-1.061-1.061.042-.382a.114.114,0,0,0-.034-.1.164.164,0,0,0-.136-.034l-1.061.076.093.7L11,49.763l-1.162.229q.518.467,1.078,1.027Zm.857-3.657,1.638,1.638-1.68,1.68-1.638-1.638Z"/><path class="cls-5" d="M12.228,83.714q.331.28.513.1a.529.529,0,0,0,.148-.462.787.787,0,0,0-.229-.475q-.509-.509-1.748.373l.042.161A1.7,1.7,0,0,1,12.228,83.714Z"/><path class="cls-5" d="M4.079,99.4c-.381-.381-1.412-.324-3.079.161v.37a10.021,10.021,0,0,1,1.251.033,5.837,5.837,0,0,1,1.264.221,3.255,3.255,0,0,0,.547.157.254.254,0,0,0,.221-.059.4.4,0,0,0,.068-.416A1.05,1.05,0,0,0,4.079,99.4Z"/><path class="cls-5" d="M20.65,43.016l.339.373q.144.144.216.072a1.158,1.158,0,0,0,.178-.356,1.126,1.126,0,0,0,.1-.369.33.33,0,0,0-.11-.187l-1.9-1.9,3.1-3.1L24.6,39.588q.1.1.161.042a1.9,1.9,0,0,0,.212-.433q.153-.373.042-.484l-.365-.3a4.926,4.926,0,0,1-.441-.39l-.849-.849.11-.484q.042-.127,0-.17t-.161-.008l-1.112.229.1.611-2.97,2.97-1.069.339q.467.416.789.738l1.129,1.129Q20.438,42.787,20.65,43.016Z"/><path class="cls-5" d="M22.115,77.137a.43.43,0,0,0,.093-.365.775.775,0,0,0-.246-.467,1.688,1.688,0,0,0-.844-.344,5.659,5.659,0,0,0-1.506-.055l-.009.161a5.451,5.451,0,0,1,1.9.95Q21.894,77.357,22.115,77.137Z"/><path class="cls-5" d="M13.531,85.738a.526.526,0,0,1,.4.165,1.9,1.9,0,0,1,.331.492,1.821,1.821,0,0,0,.3.458q.314.314.594.034a.409.409,0,0,0,.144-.424,1.766,1.766,0,0,0-.441-.585,2.2,2.2,0,0,1-.5-.687,3.482,3.482,0,0,1-.2-.84l-.289-2.529-.17.017-.042,2.843a.86.86,0,0,1-.221.594,3.067,3.067,0,0,1-.636.45l.136.187A1.629,1.629,0,0,1,13.531,85.738Z"/><path class="cls-5" d="M5.226,90.521a.3.3,0,0,0,.2-.106.542.542,0,0,0,.081-.42.783.783,0,0,0-.221-.509q-.492-.492-1.663.3l.017.187a2.657,2.657,0,0,1,1.341.441A.491.491,0,0,0,5.226,90.521Z"/><path class="cls-5" d="M15.228,38.714q.331.28.513.1a.529.529,0,0,0,.148-.462.787.787,0,0,0-.229-.475q-.509-.509-1.748.373l.042.161A1.7,1.7,0,0,1,15.228,38.714Z"/><path class="cls-5" d="M4.627,62.026q.2.238.293.148a1.279,1.279,0,0,0,.208-.361,1.073,1.073,0,0,0,.115-.361.286.286,0,0,0-.1-.182L1,57.126V58.3l2.346,2.346Q4.033,61.33,4.627,62.026Z"/><path class="cls-5" d="M6.786,99.932l-4.26-4.26.085-.441a.192.192,0,0,0-.03-.165.222.222,0,0,0-.182-.03l-1.044.144.093.874L1,96.5v.475l.831-.831,4.378,4.378a.655.655,0,0,1,.229.373A.332.332,0,0,1,6.4,101H7.488a1.215,1.215,0,0,0-.032-.207A3.007,3.007,0,0,0,6.786,99.932Z"/><path class="cls-5" d="M6.682,93.478a.3.3,0,0,0,.255-.11.417.417,0,0,0,.055-.42,1.26,1.26,0,0,0-.348-.56,1.414,1.414,0,0,0-.844-.344,3.732,3.732,0,0,0-1.336.115l.017.153a2.943,2.943,0,0,1,.861.276,4.206,4.206,0,0,1,.819.539A1.753,1.753,0,0,0,6.682,93.478Z"/><path class="cls-5" d="M6.584,88.408l.085.984L3.987,92.074a6.642,6.642,0,0,1-.764.662l.687.042a2.314,2.314,0,0,1,.492-.662l3.4-3.4q.119-.119.085-.153a.328.328,0,0,0-.17-.051Z"/><path class="cls-5" d="M15.592,47.617q.382.382,1,1.039t.823.908a1.147,1.147,0,0,0,.3.289.136.136,0,0,0,.161-.034,1.354,1.354,0,0,0,.2-.365.846.846,0,0,0,.1-.39.369.369,0,0,0-.106-.182q-.085-.085-.45-.416-.292-.265-.92-.888l-5.308-5.306,1.2-1.2,1.663,3.241a3.433,3.433,0,0,1,1.718.03,2.883,2.883,0,0,1,1.3.683q.263.263.2.458a1.217,1.217,0,0,1-.322.458,8.432,8.432,0,0,1-.9.73l.093.144a4.4,4.4,0,0,1,1.044-.39,1.265,1.265,0,0,1,.7.178q.178.093.25.021A1.42,1.42,0,0,0,18.5,46.1a1.905,1.905,0,0,0-.008-.84,1.955,1.955,0,0,0-.556-.844q-1.188-1.188-3.479-.56l-.942-2.6a1.186,1.186,0,0,1,0-.984q.1-.17.059-.212t-.229-.025l-1.1.034.034.882-.95.95-1.256.255q.772.7,1.451,1.383Z"/><path class="cls-5" d="M7.98,45.419a.491.491,0,0,0,.246.1.3.3,0,0,0,.2-.106.543.543,0,0,0,.081-.42.783.783,0,0,0-.221-.509q-.492-.492-1.663.3l.017.187A2.657,2.657,0,0,1,7.98,45.419Z"/><path class="cls-5" d="M3.6,56.617a6.97,6.97,0,0,1,.123,3.042l.2.042a7.932,7.932,0,0,0,.339-2.63,5.392,5.392,0,0,0-.653-2.13,9.794,9.794,0,0,1,1.65.021,5.837,5.837,0,0,1,1.264.221,3.25,3.25,0,0,0,.547.157.254.254,0,0,0,.221-.059.4.4,0,0,0,.068-.416,1.05,1.05,0,0,0-.272-.467q-.628-.628-3.589.314a9.185,9.185,0,0,0-.9-1.324l2.24-2.24,4.378,4.378a.655.655,0,0,1,.229.373q.008.153-.272.433A15.186,15.186,0,0,1,8,57.308l.119.17a3.913,3.913,0,0,1,1.2-.56.816.816,0,0,1,.687.17q.127.11.229.008a1.452,1.452,0,0,0,.221-.552,1.23,1.23,0,0,0,0-.751,3.008,3.008,0,0,0-.675-.861l-4.26-4.26.085-.441a.192.192,0,0,0-.03-.165.222.222,0,0,0-.182-.03L4.35,50.18l.093.874L2.37,53.133q-.4-.5-.7-.849a2.075,2.075,0,0,1-.378-.539.584.584,0,0,1-.025-.365q.047-.174,0-.221t-.242.047L1,51.215v1.648c.316.325.582.609.793.847L1,54.5v.475l1.022-1.022A7.64,7.64,0,0,1,3.6,56.617Z"/><path class="cls-5" d="M7.768,90.542a1.173,1.173,0,0,1,0-.581q.068-.153.03-.191t-.208.013l-.967.322a19.391,19.391,0,0,1,1.256,2.529l-2,2a7.763,7.763,0,0,1-.755.67l.67.042a2.4,2.4,0,0,1,.492-.679l3.929-3.929q.11-.11.076-.144a.259.259,0,0,0-.136-.051l-1.162-.11.093.993-.916.916Q7.84,90.97,7.768,90.542Z"/><path class="cls-5" d="M7.4,47.116l3.4-3.4q.119-.119.085-.153a.327.327,0,0,0-.17-.051l-1.137-.1.085.984L6.987,47.074a6.642,6.642,0,0,1-.764.662l.687.042A2.311,2.311,0,0,1,7.4,47.116Z"/></svg>