<svg id="图层_1" data-name="图层 1" 
    xmlns="http://www.w3.org/2000/svg" viewBox="0 0 86 102">
    <defs>
        <style>.cls-1{fill-opacity:0.2;}.cls-2{fill:#fff;}.cls-3{fill-opacity:0.26;}.cls-4{fill:#f9c563;}</style>
    </defs>
    <title>PDF-优化添加3</title>
    <path class="cls-1" d="M83,0H3A3,3,0,0,0,0,3V99a3,3,0,0,0,3,3H83a3,3,0,0,0,3-3V3A3,3,0,0,0,83,0Zm0,1a2,2,0,0,1,2,2V99a2,2,0,0,1-2,2H3a2,2,0,0,1-2-2V3A2,2,0,0,1,3,1Z"/>
    <rect class="cls-2" x="1" y="1" width="84" height="100" rx="2" ry="2"/>
    <path class="cls-3" d="M17.686,30.908a1.845,1.845,0,0,1,.632.31.3.3,0,0,0,.424-.068.558.558,0,0,0,.182-.437.671.671,0,0,0-.216-.445.553.553,0,0,0-.216-.14.539.539,0,0,0-.293,0,2.212,2.212,0,0,0-.45.178c-.181.09-.413.221-.7.39l.042.161A1.586,1.586,0,0,1,17.686,30.908Z"/>
    <path class="cls-3" d="M20.94,36.147a2.041,2.041,0,0,0,.458-.339q.585-.552,1.1-1.107t1.073-1.218a1.749,1.749,0,0,0,.416-1.23c0-.113-.02-.184-.059-.212a.28.28,0,0,0-.212-.008,1.535,1.535,0,0,1-.284.038.667.667,0,0,1-.271-.051,1.412,1.412,0,0,1-.31-.182,5.262,5.262,0,0,1-.424-.365l-.119.136c.221.277.387.5.5.67a1.927,1.927,0,0,1,.225.42.388.388,0,0,1,0,.289,1.891,1.891,0,0,1-.174.293q-.144.2-.344.429c-.133.156-.273.318-.42.488s-.3.337-.45.5-.294.311-.424.441c-.164.164-.289.232-.373.2q.246-.84.441-1.706t.322-1.756a2.939,2.939,0,0,1,.132-.573,1.625,1.625,0,0,1,.165-.369c.068-.091.091-.156.068-.195s-.1-.057-.229-.051l-.789.025a12.585,12.585,0,0,1-.14,1.93q-.148,1.021-.454,2.261l-1-1,.051-.221q.077-.262-.178-.161l-1.095.433c.057.045.12.1.191.165l.221.2.233.216q.119.111.2.195l1.11,1.11q-.313,1.163-.581,1.956a15.327,15.327,0,0,1-.564,1.447l.17.085a14.246,14.246,0,0,0,.768-1.438,15.883,15.883,0,0,0,.658-1.7A.539.539,0,0,0,20.94,36.147Z"/>
    <path class="cls-3" d="M27.33,35.85c.1.1.165.143.208.14s.092-.072.148-.208.117-.245.148-.327a.72.72,0,0,0,.051-.195.132.132,0,0,0-.03-.106l-.076-.076c-.113-.091-.255-.215-.424-.373s-.379-.362-.628-.611l-.84-.84.068-.322q.042-.281-.2-.187l-1.146.45c.158.136.3.264.437.386s.256.239.369.352l1.273,1.273-1.756,1.756L23.2,35.231l-.017-.322c0-.1-.016-.163-.047-.182s-.092-.007-.182.038l-.967.56q.475.425.8.747L24.3,37.59l-1.578,1.578L21.4,37.844l.042-.28a.2.2,0,0,0-.013-.165c-.026-.036-.078-.044-.157-.021l-1.129.45c.158.136.293.256.4.361s.222.214.335.327l.815.815c.068.068.144.147.229.238l.259.276c.088.093.17.184.246.271s.14.163.191.225c.119.141.2.214.259.216s.115-.075.182-.233a2.57,2.57,0,0,0,.123-.31.639.639,0,0,0,.034-.212.319.319,0,0,0-.055-.165,1.208,1.208,0,0,0-.144-.17l-.059-.059,3.963-3.963Z"/>
    <path class="cls-3" d="M7.836,48.929a18.28,18.28,0,0,0-.322-2.393l2.571,2.571q.492.492,1.226,1.286l.742.8c.141.141.238.187.289.136a1.56,1.56,0,0,0,.2-.492q.128-.416-.034-.577-.026-.025-.437-.4T10.883,48.7L7.922,45.74l.051-.17c.023-.1.02-.167-.008-.195s-.1-.014-.212.042l-.443.22a15.183,15.183,0,0,0-.721-2.232,1.037,1.037,0,0,1-.068-.865q.1-.2.051-.255c-.034-.034-.116-.042-.246-.025l-1.23.178a22.534,22.534,0,0,1,2.563,6.517Z"/>
    <path class="cls-3" d="M22.247,30.852a4.328,4.328,0,0,1,1.179.025,5.252,5.252,0,0,1,1.146.331.5.5,0,0,0,.259.064.264.264,0,0,0,.157-.072.374.374,0,0,0,.051-.39,1.207,1.207,0,0,0-.322-.509.665.665,0,0,0-.233-.148.918.918,0,0,0-.416-.025,4.131,4.131,0,0,0-.713.161q-.437.132-1.133.4Z"/>
    <path class="cls-3" d="M18.9,36.648a1.33,1.33,0,0,0-.344-.675,7.2,7.2,0,0,0-.989-.912l-.085.136a2.334,2.334,0,0,1,.433.747,2.215,2.215,0,0,1,.085.84.677.677,0,0,0,.119.475.387.387,0,0,0,.331.161.509.509,0,0,0,.4-.187A.769.769,0,0,0,18.9,36.648Z"/>
    <path class="cls-3" d="M16.231,35.545a.677.677,0,0,0,.191.428.4.4,0,0,0,.318.148.456.456,0,0,0,.378-.242.785.785,0,0,0,.03-.539,2.047,2.047,0,0,0-.259-.556,2.983,2.983,0,0,0-.53-.607l5.414-5.414.416,1.23.17-.034a5.162,5.162,0,0,1,.11-1.23,1.337,1.337,0,0,1,.365-.653c.119-.107.161-.189.127-.246s-.133-.082-.3-.076l-1.307.068.085.764L16.088,33.94a2.464,2.464,0,0,0-.2-.153c-.068-.045-.139-.093-.212-.144l-.119.136a2.533,2.533,0,0,1,.475.764A3.25,3.25,0,0,1,16.231,35.545Z"/>
    <path class="cls-3" d="M8.515,43.515a11.043,11.043,0,0,1,.976,1.129c.068.079.134.151.2.216s.122.073.17.025a1.8,1.8,0,0,0,.225-.445.5.5,0,0,0-.059-.586l-.17-.17.9-.9,1.264,1.264-1.9,1.9a6.381,6.381,0,0,1-.755.653l.67.059A2.375,2.375,0,0,1,10.525,46l1.129-1.129a13.688,13.688,0,0,1,.933,5.091l.187.017a10.628,10.628,0,0,0-.569-5.66l.042-.042,2.147,2.147q.552.552.815.832l.416.467c.107.107.181.141.221.1a1.84,1.84,0,0,0,.208-.445q.148-.385.055-.479c-.011-.011-.1-.093-.272-.246s-.444-.419-.823-.8l-2.172-2.172.093-.093a7.583,7.583,0,0,0,2.011.874,5.328,5.328,0,0,0,1.807.144,2.593,2.593,0,0,0,.993-.195.132.132,0,0,0,.025-.127,1.054,1.054,0,0,1,.195-1.078l-.1-.1a5.227,5.227,0,0,1-4.769.322l2.35-2.35c.085-.085.109-.146.072-.182a.307.307,0,0,0-.2-.064l-1.2-.11.1,1.12-1.612,1.612-1.264-1.264.959-.959.467.467c.079.079.146.092.2.038a1.2,1.2,0,0,0,.174-.462c.062-.255.048-.427-.042-.518l-.441-.373c-.175-.153-.354-.32-.535-.5l-.925-.925.042-.433q.026-.127-.021-.174t-.216-.03L10,38.416l.119.713L7.726,41.522l-1.036.237q.517.45,1.069,1ZM10.4,39.324l1.663,1.663L9.61,43.439,7.947,41.776Z"/>
    <path class="cls-3" d="M19.608,31.837a3.617,3.617,0,0,0-1.01.373l.025.178a2.067,2.067,0,0,1,1.247.484q.246.178.382.042a.364.364,0,0,0,.093-.187.745.745,0,0,0,.008-.255.975.975,0,0,0-.076-.271.764.764,0,0,0-.161-.238A.581.581,0,0,0,19.608,31.837Z"/>
    <path class="cls-3" d="M53,5.784a.677.677,0,0,0,.119.475.387.387,0,0,0,.331.161.509.509,0,0,0,.4-.187.769.769,0,0,0,.051-.585,1.33,1.33,0,0,0-.344-.675,7.2,7.2,0,0,0-.989-.912l-.085.136a2.334,2.334,0,0,1,.433.747A2.215,2.215,0,0,1,53,5.784Z"/>
    <path class="cls-3" d="M55.881,7.515l.815.815c.068.068.144.147.229.238l.259.276c.088.093.17.184.246.271s.14.163.191.225c.119.141.205.214.259.216s.115-.075.182-.233a2.57,2.57,0,0,0,.123-.31.64.64,0,0,0,.033-.213.319.319,0,0,0-.055-.165,1.208,1.208,0,0,0-.144-.17l-.059-.059,3.963-3.963.407.407c.1.1.165.143.208.14s.092-.072.148-.208.117-.245.148-.327a.72.72,0,0,0,.051-.2.132.132,0,0,0-.03-.106l-.076-.076c-.113-.091-.255-.215-.424-.373s-.379-.362-.628-.611l-.84-.84.068-.322q.042-.281-.2-.187l-1.146.45c.158.136.3.264.437.386s.256.239.369.352l1.273,1.273L59.928,5.962,58.2,4.231l-.017-.323c0-.1-.016-.163-.047-.182s-.092-.007-.182.038l-.967.56q.476.424.8.747L59.3,6.59,57.722,8.168,56.4,6.844l.042-.28a.2.2,0,0,0-.013-.165c-.026-.036-.078-.044-.157-.021l-1.129.45c.158.136.293.256.4.361S55.768,7.4,55.881,7.515Z"/>
    <path class="cls-3" d="M50.883,2.788c-.068-.045-.139-.093-.212-.144l-.119.136a2.533,2.533,0,0,1,.475.764,3.22,3.22,0,0,1,.2,1,.677.677,0,0,0,.191.428.4.4,0,0,0,.318.148.456.456,0,0,0,.378-.242.785.785,0,0,0,.03-.539,2.047,2.047,0,0,0-.259-.556,2.983,2.983,0,0,0-.53-.607L53.537,1h-.509L51.087,2.941Q50.985,2.857,50.883,2.788Z"/>
    <path class="cls-3" d="M42.836,17.929a18.28,18.28,0,0,0-.322-2.393l2.571,2.571q.492.492,1.226,1.286l.742.8c.141.141.238.187.289.136a1.56,1.56,0,0,0,.2-.492q.127-.416-.034-.577-.025-.026-.437-.4T45.883,17.7L42.922,14.74l.051-.17c.023-.1.02-.167-.008-.195s-.1-.014-.212.042l-.441.221a15.184,15.184,0,0,0-.721-2.232,1.037,1.037,0,0,1-.068-.865q.1-.2.051-.255c-.034-.034-.116-.042-.246-.025l-1.23.178a22.534,22.534,0,0,1,2.563,6.517Z"/>
    <path class="cls-3" d="M55.363,3.908l-1-1,.051-.221q.076-.262-.178-.161l-1.1.433c.057.045.12.1.191.165l.221.2.233.216q.118.111.2.195L55.1,4.85q-.313,1.163-.581,1.956a15.329,15.329,0,0,1-.564,1.447l.17.085A14.246,14.246,0,0,0,54.893,6.9a15.883,15.883,0,0,0,.658-1.7.535.535,0,0,0,.39-.051,2.063,2.063,0,0,0,.458-.339q.585-.552,1.1-1.107t1.073-1.218a1.749,1.749,0,0,0,.416-1.23c0-.113-.02-.184-.059-.212a.28.28,0,0,0-.212-.008,1.535,1.535,0,0,1-.284.038.667.667,0,0,1-.271-.051C58.149,1.015,58.136,1,58.126,1h-.518c.077.1.145.2.2.278a1.927,1.927,0,0,1,.225.42.388.388,0,0,1,0,.289,1.891,1.891,0,0,1-.174.293q-.144.2-.344.429c-.133.156-.273.318-.42.488s-.3.337-.45.5-.293.309-.423.44c-.164.164-.289.232-.373.2q.246-.84.441-1.706c.121-.537.218-1.084.3-1.636h-.7c-.021.214-.039.425-.071.647Q55.668,2.67,55.363,3.908Z"/>
    <path class="cls-3" d="M53.624,1.388a2.067,2.067,0,0,1,1.247.484q.246.178.382.042a.364.364,0,0,0,.093-.187.745.745,0,0,0,.008-.255.975.975,0,0,0-.076-.271.769.769,0,0,0-.137-.2H54.075c-.145.058-.3.121-.477.21Z"/>
    <path class="cls-3" d="M43.515,12.515a11.044,11.044,0,0,1,.976,1.129c.068.079.134.151.2.216s.122.074.17.026a1.8,1.8,0,0,0,.225-.445.5.5,0,0,0-.059-.586l-.17-.17.9-.9,1.264,1.264-1.9,1.9a6.382,6.382,0,0,1-.755.653l.67.059A2.375,2.375,0,0,1,45.525,15l1.129-1.129a13.688,13.688,0,0,1,.933,5.091l.187.017a10.628,10.628,0,0,0-.569-5.66l.042-.042,2.147,2.147q.552.552.815.832l.416.467c.107.107.181.141.221.1a1.84,1.84,0,0,0,.208-.445q.148-.385.055-.479c-.011-.011-.1-.093-.272-.246s-.444-.419-.823-.8l-2.172-2.172.093-.093a7.583,7.583,0,0,0,2.011.874,5.328,5.328,0,0,0,1.807.144,2.593,2.593,0,0,0,.993-.195.132.132,0,0,0,.025-.127,1.054,1.054,0,0,1,.195-1.078l-.1-.1a5.227,5.227,0,0,1-4.769.322l2.35-2.35c.085-.085.109-.146.072-.182a.307.307,0,0,0-.2-.064l-1.2-.11.1,1.12-1.612,1.612-1.264-1.264.959-.959.467.467c.079.079.146.092.2.038a1.2,1.2,0,0,0,.174-.462c.062-.255.048-.427-.042-.518l-.441-.373c-.175-.153-.354-.32-.535-.5L46.2,7.96l.042-.433q.025-.128-.021-.174t-.216-.03L45,7.416l.119.713-2.393,2.393-1.035.238q.518.45,1.069,1ZM45.4,8.324l1.663,1.663L44.61,12.439l-1.663-1.663Z"/>
    <path class="cls-3" d="M50.883,83.788c-.068-.045-.139-.093-.212-.144l-.119.136a2.533,2.533,0,0,1,.475.764,3.22,3.22,0,0,1,.2,1,.677.677,0,0,0,.191.428.4.4,0,0,0,.318.148.456.456,0,0,0,.378-.242.785.785,0,0,0,.03-.539,2.047,2.047,0,0,0-.259-.556,2.984,2.984,0,0,0-.53-.607l5.414-5.414.416,1.23.17-.034a5.162,5.162,0,0,1,.11-1.23,1.337,1.337,0,0,1,.365-.653c.119-.107.161-.189.127-.246s-.133-.082-.3-.076l-1.307.068.085.764L51.088,83.94c-.069-.055-.137-.106-.205-.152Z"/>
    <path class="cls-3" d="M57.247,80.852a4.337,4.337,0,0,1,1.18.025,5.251,5.251,0,0,1,1.146.331.5.5,0,0,0,.259.064.264.264,0,0,0,.157-.072.374.374,0,0,0,.051-.39,1.207,1.207,0,0,0-.322-.509.665.665,0,0,0-.233-.148.918.918,0,0,0-.416-.025,4.227,4.227,0,0,0-.713.161q-.437.132-1.133.4Z"/>
    <path class="cls-3" d="M47.511,100.261q-.025-.025-.437-.4T45.882,98.7l-2.961-2.961.051-.17c.023-.1.02-.167-.008-.195s-.1-.014-.212.042l-.441.221a15.184,15.184,0,0,0-.721-2.232,1.037,1.037,0,0,1-.068-.865q.1-.2.051-.255c-.034-.034-.116-.042-.246-.025l-1.23.178a22.534,22.534,0,0,1,2.563,6.517l.178-.025a18.28,18.28,0,0,0-.322-2.393l2.571,2.571q.492.492,1.226,1.286l.562.607h.617c.019-.054.035-.094.056-.162C47.63,100.561,47.619,100.369,47.511,100.261Z"/>
    <path class="cls-3" d="M52.866,93.108a5.227,5.227,0,0,1-4.769.322l2.35-2.35c.085-.085.109-.146.072-.182a.307.307,0,0,0-.2-.064l-1.2-.11.1,1.12-1.612,1.612L46.35,92.192l.959-.959.467.467c.079.079.146.092.2.038a1.2,1.2,0,0,0,.174-.462c.062-.255.048-.427-.042-.518l-.441-.373c-.175-.153-.354-.32-.535-.5l-.925-.925.042-.433q.025-.127-.021-.174t-.216-.03L45,88.416l.119.713-2.393,2.393-1.035.238q.518.45,1.069,1l.755.755a11.045,11.045,0,0,1,.976,1.129c.068.079.134.151.2.216s.122.074.17.026a1.8,1.8,0,0,0,.225-.445.5.5,0,0,0-.059-.586l-.17-.17.9-.9,1.264,1.264-1.9,1.9a6.382,6.382,0,0,1-.755.653l.67.059A2.375,2.375,0,0,1,45.525,96l1.129-1.129a13.688,13.688,0,0,1,.933,5.091l.187.017a10.628,10.628,0,0,0-.569-5.66l.042-.042,2.147,2.147q.552.552.815.832l.416.467c.107.107.181.141.221.1a1.84,1.84,0,0,0,.208-.445q.148-.385.055-.479c-.011-.011-.1-.093-.272-.246s-.444-.419-.823-.8l-2.172-2.172.093-.093a7.583,7.583,0,0,0,2.011.874,5.328,5.328,0,0,0,1.807.144,2.593,2.593,0,0,0,.993-.195.132.132,0,0,0,.025-.127,1.054,1.054,0,0,1,.195-1.078Zm-8.257.331-1.663-1.663L45.4,89.324l1.663,1.663Z"/>
    <path class="cls-3" d="M62.779,85.078c-.113-.091-.255-.215-.424-.373s-.379-.362-.628-.611l-.84-.84.068-.322q.042-.28-.2-.187l-1.146.45c.158.136.3.264.437.386s.256.239.369.352l1.273,1.273-1.756,1.756L58.2,85.231l-.017-.322c0-.1-.016-.163-.047-.182s-.092-.007-.182.038l-.967.56q.476.424.8.747L59.3,87.59l-1.578,1.578L56.4,87.844l.042-.28a.2.2,0,0,0-.013-.165c-.026-.036-.078-.044-.157-.021l-1.129.45c.158.136.293.256.4.361s.222.214.335.327l.815.815c.068.068.144.147.229.238l.259.276c.088.093.17.184.246.271s.14.163.191.225c.119.141.205.214.259.216s.115-.075.182-.233a2.57,2.57,0,0,0,.123-.31.614.614,0,0,0,.034-.212.319.319,0,0,0-.055-.165,1.208,1.208,0,0,0-.144-.17l-.059-.059,3.963-3.963.407.407c.1.1.165.143.208.14s.092-.072.148-.208.117-.245.148-.327a.72.72,0,0,0,.051-.195.132.132,0,0,0-.03-.106Z"/>
    <path class="cls-3" d="M53.492,80.127a.549.549,0,0,0-.293,0,2.212,2.212,0,0,0-.45.178q-.271.137-.7.39l.042.161a1.582,1.582,0,0,1,.59.047,1.845,1.845,0,0,1,.632.31.3.3,0,0,0,.424-.068.558.558,0,0,0,.182-.437.676.676,0,0,0-.216-.445A.536.536,0,0,0,53.492,80.127Z"/>
    <path class="cls-3" d="M54.608,81.837a3.617,3.617,0,0,0-1.01.373l.025.178a2.067,2.067,0,0,1,1.247.484q.246.179.382.042a.364.364,0,0,0,.093-.187.744.744,0,0,0,.008-.255.991.991,0,0,0-.076-.272.782.782,0,0,0-.161-.238A.584.584,0,0,0,54.608,81.837Z"/>
    <path class="cls-3" d="M55.94,86.147a2.041,2.041,0,0,0,.458-.339q.585-.552,1.1-1.107t1.073-1.218a1.749,1.749,0,0,0,.416-1.23c0-.113-.02-.184-.059-.212a.279.279,0,0,0-.212-.008,1.535,1.535,0,0,1-.284.038.674.674,0,0,1-.272-.051,1.412,1.412,0,0,1-.31-.182,5.263,5.263,0,0,1-.424-.365l-.119.136c.221.277.387.5.5.67a1.927,1.927,0,0,1,.225.42.388.388,0,0,1,0,.289,1.845,1.845,0,0,1-.174.293q-.144.195-.344.429c-.133.156-.273.318-.42.488s-.3.337-.45.5-.294.311-.424.441c-.164.164-.289.232-.373.2q.246-.84.441-1.706t.322-1.756a2.939,2.939,0,0,1,.132-.573,1.625,1.625,0,0,1,.165-.369c.068-.091.09-.156.068-.195s-.1-.057-.229-.051l-.789.025a12.585,12.585,0,0,1-.14,1.93q-.148,1.021-.454,2.261l-1-1,.051-.221q.076-.263-.178-.161l-1.1.433c.057.045.12.1.191.165l.221.2.233.216q.118.111.2.195L55.1,85.85q-.313,1.163-.581,1.956a15.328,15.328,0,0,1-.564,1.447l.17.085a14.245,14.245,0,0,0,.768-1.438,15.884,15.884,0,0,0,.658-1.7A.539.539,0,0,0,55.94,86.147Z"/>
    <path class="cls-3" d="M53.552,85.973a7.2,7.2,0,0,0-.989-.912l-.085.136a2.334,2.334,0,0,1,.433.747,2.215,2.215,0,0,1,.085.84.677.677,0,0,0,.119.475.387.387,0,0,0,.331.161.509.509,0,0,0,.4-.187.771.771,0,0,0,.051-.586A1.339,1.339,0,0,0,53.552,85.973Z"/>
    <path class="cls-3" d="M84.955,58.253l.045.023v-.131C84.985,58.18,84.97,58.219,84.955,58.253Z"/>
    <path class="cls-3" d="M84.331,53.124l.221.2.233.216q.119.111.2.195L85,53.75V52.618l-.86.34C84.2,53,84.26,53.058,84.331,53.124Z"/>
    <path class="cls-3" d="M78.074,68.858q-.411-.378-1.192-1.158l-2.961-2.961.051-.17c.023-.1.02-.167-.008-.195s-.1-.014-.212.042l-.441.221a15.183,15.183,0,0,0-.721-2.232,1.037,1.037,0,0,1-.068-.865q.1-.2.051-.255c-.034-.034-.116-.042-.246-.025l-1.23.178a22.534,22.534,0,0,1,2.563,6.517l.178-.025a18.28,18.28,0,0,0-.322-2.393l2.571,2.571q.492.492,1.226,1.286l.742.8c.141.141.238.187.289.136a1.56,1.56,0,0,0,.2-.492c.085-.277.074-.47-.034-.577-.02-.019-.165-.153-.44-.4Z"/>
    <path class="cls-3" d="M84.624,51.388a1.625,1.625,0,0,1,.376.05v-.406c-.127.053-.249.1-.4.177Z"/>
    <path class="cls-3" d="M84.552,54.973a7.2,7.2,0,0,0-.989-.912l-.085.136a2.334,2.334,0,0,1,.433.747,2.215,2.215,0,0,1,.085.84.677.677,0,0,0,.119.475.387.387,0,0,0,.331.161.509.509,0,0,0,.4-.187.769.769,0,0,0,.051-.585A1.338,1.338,0,0,0,84.552,54.973Z"/>
    <path class="cls-3" d="M81.883,52.788c-.068-.045-.139-.093-.212-.144l-.119.136a2.532,2.532,0,0,1,.475.764,3.22,3.22,0,0,1,.2,1,.677.677,0,0,0,.191.428.4.4,0,0,0,.318.148.456.456,0,0,0,.378-.242.785.785,0,0,0,.03-.539,2.047,2.047,0,0,0-.259-.556,2.983,2.983,0,0,0-.53-.607L85,50.537v-.509l-2.913,2.913Q81.985,52.857,81.883,52.788Z"/>
    <path class="cls-3" d="M83.686,49.908a1.845,1.845,0,0,1,.632.31.3.3,0,0,0,.424-.068.558.558,0,0,0,.182-.437.676.676,0,0,0-.216-.445.552.552,0,0,0-.216-.14.539.539,0,0,0-.293,0,2.212,2.212,0,0,0-.45.178c-.181.09-.413.221-.7.39l.042.161A1.586,1.586,0,0,1,83.686,49.908Z"/>
    <path class="cls-3" d="M83.866,62.108a5.227,5.227,0,0,1-4.769.322l2.35-2.35c.085-.085.109-.146.072-.182a.307.307,0,0,0-.2-.064l-1.2-.11.1,1.12-1.612,1.612L77.35,61.192l.959-.959.467.467c.079.079.146.092.2.038a1.2,1.2,0,0,0,.174-.462c.062-.255.048-.427-.042-.518l-.441-.373c-.175-.153-.354-.32-.535-.5l-.925-.925.042-.433q.025-.127-.021-.174t-.216-.03L76,57.416l.119.713-2.393,2.393-1.035.238q.518.45,1.069,1l.755.755a11.042,11.042,0,0,1,.976,1.129c.068.079.134.151.2.216s.122.073.17.025a1.8,1.8,0,0,0,.225-.445.5.5,0,0,0-.059-.586l-.17-.17.9-.9,1.264,1.264-1.9,1.9a6.382,6.382,0,0,1-.755.653l.67.059A2.375,2.375,0,0,1,76.525,65l1.129-1.129a13.688,13.688,0,0,1,.933,5.091l.187.017a10.628,10.628,0,0,0-.569-5.66l.042-.042,2.147,2.147q.552.552.815.832l.416.467c.107.107.181.141.221.1a1.84,1.84,0,0,0,.208-.445q.148-.385.055-.479c-.011-.011-.1-.093-.272-.246s-.444-.419-.823-.8l-2.172-2.172.093-.093a7.583,7.583,0,0,0,2.011.874,5.328,5.328,0,0,0,1.807.144,2.593,2.593,0,0,0,.993-.195.132.132,0,0,0,.025-.127,1.054,1.054,0,0,1,.195-1.078Zm-8.257.331-1.663-1.663L76.4,58.324l1.663,1.663Z"/>
    <path class="cls-3" d="M3.31,96.449l.742.8c.141.141.238.187.289.136a1.56,1.56,0,0,0,.2-.492c.085-.277.073-.469-.034-.577q-.026-.025-.437-.4T2.882,94.757L1,92.875V94.08l1.084,1.084Q2.576,95.656,3.31,96.449Z"/>
    <path class="cls-3" d="M1.69,90.917c.065.065.122.074.17.025a1.818,1.818,0,0,0,.225-.445.5.5,0,0,0-.059-.585l-.17-.17.9-.9,1.264,1.264-1.9,1.9a6.382,6.382,0,0,1-.755.653l.67.059a2.375,2.375,0,0,1,.492-.662l1.129-1.129a13.688,13.688,0,0,1,.933,5.091l.187.017a10.638,10.638,0,0,0-.568-5.66l.042-.042,2.147,2.147q.552.552.815.832l.416.467c.107.107.181.141.221.1a1.862,1.862,0,0,0,.208-.445q.148-.385.055-.479c-.011-.011-.1-.093-.272-.246s-.444-.419-.823-.8L4.843,89.743l.093-.093a7.583,7.583,0,0,0,2.011.874,5.328,5.328,0,0,0,1.807.144,2.593,2.593,0,0,0,.993-.195.132.132,0,0,0,.025-.127,1.054,1.054,0,0,1,.195-1.078l-.1-.1a5.23,5.23,0,0,1-4.769.322l2.35-2.35c.085-.085.109-.146.072-.182a.307.307,0,0,0-.2-.064l-1.2-.11.1,1.12L4.613,89.514,3.349,88.25l.959-.959.467.467c.079.079.146.092.2.038a1.2,1.2,0,0,0,.174-.462c.062-.255.048-.427-.042-.518l-.441-.373c-.175-.153-.354-.32-.535-.5L3.2,85.017l.042-.433q.025-.127-.021-.174t-.216-.03L2,84.473l.119.713L1,86.3v.475l1.4-1.4,1.663,1.663L1.609,89.5,1,88.887V90.1c.164.19.328.391.49.605.068.079.135.151.2.216Z"/>
    <path class="cls-3" d="M16.482,76.209a.918.918,0,0,0-.416-.025,4.227,4.227,0,0,0-.713.161q-.437.132-1.133.4l.025.161a4.328,4.328,0,0,1,1.179.025,5.252,5.252,0,0,1,1.146.331.5.5,0,0,0,.259.064.264.264,0,0,0,.157-.072.374.374,0,0,0,.051-.39,1.207,1.207,0,0,0-.322-.509A.658.658,0,0,0,16.482,76.209Z"/>
    <path class="cls-3" d="M8.888,80.842a2.984,2.984,0,0,0-.53-.607l5.414-5.414.416,1.23.17-.034a5.162,5.162,0,0,1,.11-1.23,1.337,1.337,0,0,1,.365-.653c.119-.107.161-.19.127-.246s-.133-.082-.3-.076l-1.307.068.085.764L8.087,80a2.463,2.463,0,0,0-.2-.153L7.67,79.7l-.119.136a2.533,2.533,0,0,1,.475.764,3.22,3.22,0,0,1,.2,1,.682.682,0,0,0,.191.429.4.4,0,0,0,.318.148.456.456,0,0,0,.378-.242.785.785,0,0,0,.03-.539A2.047,2.047,0,0,0,8.888,80.842Z"/>
    <path class="cls-3" d="M10.2,76.188a2.212,2.212,0,0,0-.45.178c-.181.09-.413.221-.7.39l.042.161a1.582,1.582,0,0,1,.59.047,1.845,1.845,0,0,1,.632.31.3.3,0,0,0,.424-.068.558.558,0,0,0,.182-.437.671.671,0,0,0-.216-.445.553.553,0,0,0-.216-.14A.526.526,0,0,0,10.2,76.188Z"/>
    <path class="cls-3" d="M11.607,77.893a3.617,3.617,0,0,0-1.01.373l.025.178a2.067,2.067,0,0,1,1.247.484q.246.179.382.042a.364.364,0,0,0,.093-.187.744.744,0,0,0,.008-.255,1.027,1.027,0,0,0-.076-.272.753.753,0,0,0-.161-.238A.586.586,0,0,0,11.607,77.893Z"/>
    <path class="cls-3" d="M12.94,82.2a2.063,2.063,0,0,0,.458-.339q.585-.552,1.1-1.107T15.57,79.54a1.754,1.754,0,0,0,.416-1.23c0-.113-.02-.184-.059-.212a.28.28,0,0,0-.212-.008,1.535,1.535,0,0,1-.284.038.674.674,0,0,1-.272-.051,1.39,1.39,0,0,1-.31-.182,5.263,5.263,0,0,1-.424-.365l-.119.136c.221.277.388.5.5.67a1.927,1.927,0,0,1,.225.42.388.388,0,0,1,0,.289,1.891,1.891,0,0,1-.174.293q-.144.195-.344.429c-.133.156-.273.318-.42.488s-.3.337-.45.5-.294.311-.424.441q-.246.246-.373.2.246-.84.441-1.706t.322-1.756a2.939,2.939,0,0,1,.132-.573A1.671,1.671,0,0,1,13.907,77c.068-.091.091-.156.068-.195s-.1-.057-.229-.051l-.789.025a12.585,12.585,0,0,1-.14,1.93q-.148,1.021-.454,2.261l-1-1,.051-.221q.076-.263-.178-.161l-1.1.433c.057.045.12.1.191.165l.221.2.233.216q.119.111.2.195L12.1,81.909q-.313,1.163-.581,1.956a15.328,15.328,0,0,1-.564,1.447l.17.085a14.245,14.245,0,0,0,.768-1.438,15.884,15.884,0,0,0,.658-1.7A.549.549,0,0,0,12.94,82.2Z"/>
    <path class="cls-3" d="M10.551,82.03a7.2,7.2,0,0,0-.989-.912l-.085.136A2.312,2.312,0,0,1,9.91,82a2.215,2.215,0,0,1,.085.84.677.677,0,0,0,.119.475.387.387,0,0,0,.331.161.509.509,0,0,0,.4-.187.769.769,0,0,0,.051-.585A1.331,1.331,0,0,0,10.551,82.03Z"/>
    <path class="cls-3" d="M19.779,81.135c-.113-.091-.255-.215-.424-.373s-.379-.362-.628-.611l-.84-.84.068-.322q.042-.28-.2-.187l-1.146.45c.158.136.3.264.437.386s.256.239.369.352l1.273,1.273-1.756,1.756L15.2,81.288l-.017-.322c0-.1-.016-.163-.047-.182s-.092-.007-.182.038l-.967.56q.476.424.8.747L16.3,83.648l-1.578,1.578L13.4,83.9l.042-.28a.2.2,0,0,0-.013-.165c-.025-.037-.078-.044-.157-.021l-1.129.45c.158.136.293.256.4.361s.222.214.335.327l.815.815c.068.068.144.147.229.238l.259.276c.088.093.17.184.246.272s.14.163.191.225c.119.141.2.214.259.216s.115-.075.182-.233a2.57,2.57,0,0,0,.123-.31.639.639,0,0,0,.034-.212.319.319,0,0,0-.055-.165,1.208,1.208,0,0,0-.144-.17l-.059-.059L18.923,81.5l.407.407c.1.1.165.143.208.14s.092-.072.148-.208.117-.245.148-.327a.72.72,0,0,0,.051-.195.132.132,0,0,0-.03-.106Z"/>
    <path class="cls-3" d="M39.865,62.165a5.23,5.23,0,0,1-4.769.322l2.35-2.35c.085-.085.109-.146.072-.182a.307.307,0,0,0-.2-.064l-1.2-.11.1,1.12-1.612,1.612-1.264-1.264.959-.959.467.467c.079.079.146.092.2.038a1.2,1.2,0,0,0,.174-.462c.062-.255.048-.427-.042-.518l-.441-.373c-.175-.153-.354-.32-.535-.5l-.925-.925.042-.433q.025-.127-.021-.174t-.216-.03L32,57.472l.119.713-2.393,2.393-1.035.238q.517.45,1.069,1l.755.755a11.043,11.043,0,0,1,.976,1.129c.068.079.134.151.2.216s.122.074.17.025a1.818,1.818,0,0,0,.225-.445.5.5,0,0,0-.059-.585l-.17-.17.9-.9,1.264,1.264-1.9,1.9a6.382,6.382,0,0,1-.755.653l.67.059a2.375,2.375,0,0,1,.492-.662l1.129-1.129a13.688,13.688,0,0,1,.933,5.091l.187.017a10.638,10.638,0,0,0-.568-5.66l.042-.042L36.4,65.482q.552.552.815.832l.416.467c.107.107.181.141.221.1a1.862,1.862,0,0,0,.208-.445q.148-.385.055-.479c-.011-.011-.1-.093-.272-.246s-.444-.419-.823-.8l-2.172-2.172.093-.093a7.583,7.583,0,0,0,2.011.874,5.328,5.328,0,0,0,1.807.144,2.593,2.593,0,0,0,.993-.195.132.132,0,0,0,.025-.127,1.054,1.054,0,0,1,.195-1.078Zm-8.256.331-1.663-1.663L32.4,58.381l1.663,1.663Z"/>
    <path class="cls-3" d="M49.329,54.907c.1.1.165.143.208.14s.092-.072.148-.208.117-.245.148-.327a.72.72,0,0,0,.051-.195.132.132,0,0,0-.03-.106l-.076-.076c-.113-.091-.255-.215-.424-.373s-.379-.362-.628-.611l-.84-.84.068-.322q.042-.281-.2-.187l-1.146.45c.158.136.3.264.437.386s.256.239.369.352l1.273,1.273-1.756,1.756L45.2,54.288l-.017-.322c0-.1-.016-.163-.047-.182s-.092-.007-.182.038l-.967.56q.476.425.8.747L46.3,56.648l-1.578,1.578L43.4,56.9l.042-.28a.2.2,0,0,0-.013-.165c-.025-.037-.078-.044-.157-.021l-1.129.45c.158.136.293.256.4.361s.222.214.335.327l.815.815c.068.068.144.147.229.238l.259.276c.088.093.17.184.246.272s.14.163.191.225c.119.141.205.214.259.216s.115-.075.182-.233a2.57,2.57,0,0,0,.123-.31.639.639,0,0,0,.034-.212.319.319,0,0,0-.055-.165,1.208,1.208,0,0,0-.144-.17l-.059-.059L48.922,54.5Z"/>
    <path class="cls-3" d="M40.551,55.03a7.2,7.2,0,0,0-.989-.912l-.085.136A2.334,2.334,0,0,1,39.91,55a2.215,2.215,0,0,1,.085.84.677.677,0,0,0,.119.475.387.387,0,0,0,.331.161.509.509,0,0,0,.4-.187.771.771,0,0,0,.051-.586A1.331,1.331,0,0,0,40.551,55.03Z"/>
    <path class="cls-3" d="M42.549,55.255a.535.535,0,0,0,.39-.051,2.063,2.063,0,0,0,.458-.339q.585-.552,1.1-1.107t1.073-1.218a1.754,1.754,0,0,0,.416-1.23c0-.113-.02-.184-.059-.212a.28.28,0,0,0-.212-.008,1.535,1.535,0,0,1-.284.038.674.674,0,0,1-.272-.051,1.39,1.39,0,0,1-.31-.182,5.262,5.262,0,0,1-.424-.365l-.119.136c.221.277.388.5.5.67a1.927,1.927,0,0,1,.225.42.388.388,0,0,1,0,.289,1.891,1.891,0,0,1-.174.293q-.144.2-.344.429c-.133.156-.273.318-.42.488s-.3.337-.45.5-.294.311-.424.441q-.246.246-.373.2.246-.84.441-1.706t.322-1.756a2.939,2.939,0,0,1,.132-.573A1.671,1.671,0,0,1,43.906,50c.068-.091.091-.156.068-.195s-.1-.057-.229-.051l-.789.025a12.585,12.585,0,0,1-.14,1.93q-.148,1.023-.454,2.261l-1-1,.051-.221q.076-.262-.178-.161l-1.1.433c.057.045.12.1.191.165l.221.2.233.216q.118.111.2.195L42.1,54.909q-.313,1.163-.581,1.956a15.328,15.328,0,0,1-.564,1.447l.17.085a14.246,14.246,0,0,0,.768-1.438A16.221,16.221,0,0,0,42.549,55.255Z"/>
    <path class="cls-3" d="M34.074,68.915q-.411-.378-1.192-1.158L29.921,64.8l.051-.17c.023-.1.02-.167-.008-.195s-.1-.014-.212.042l-.441.221a15.183,15.183,0,0,0-.721-2.232,1.037,1.037,0,0,1-.068-.865q.1-.2.051-.255c-.034-.034-.116-.042-.246-.025L27.1,61.5a22.5,22.5,0,0,1,2.562,6.517l.178-.025a18.28,18.28,0,0,0-.322-2.393l2.571,2.571q.492.492,1.226,1.286l.742.8c.141.141.238.187.289.136a1.56,1.56,0,0,0,.2-.492c.085-.277.073-.469-.034-.577q-.029-.028-.439-.4Z"/>
    <path class="cls-3" d="M41.607,50.893a3.617,3.617,0,0,0-1.01.373l.025.178a2.067,2.067,0,0,1,1.247.484q.246.178.382.042a.364.364,0,0,0,.093-.187.744.744,0,0,0,.008-.255,1.027,1.027,0,0,0-.076-.272.753.753,0,0,0-.161-.238A.586.586,0,0,0,41.607,50.893Z"/>
    <path class="cls-3" d="M46.987,50.257a.374.374,0,0,0,.051-.39,1.207,1.207,0,0,0-.322-.509.665.665,0,0,0-.233-.148.918.918,0,0,0-.416-.025,4.227,4.227,0,0,0-.713.161q-.437.132-1.133.4l.025.161a4.328,4.328,0,0,1,1.179.025,5.252,5.252,0,0,1,1.146.331.5.5,0,0,0,.259.064A.263.263,0,0,0,46.987,50.257Z"/>
    <path class="cls-3" d="M39.686,49.964a1.845,1.845,0,0,1,.632.31.3.3,0,0,0,.424-.068.558.558,0,0,0,.182-.437.671.671,0,0,0-.216-.445.474.474,0,0,0-.509-.136,2.212,2.212,0,0,0-.45.178c-.181.09-.413.221-.7.39l.042.161A1.609,1.609,0,0,1,39.686,49.964Z"/>
    <path class="cls-3" d="M38.23,54.6a.682.682,0,0,0,.191.429.4.4,0,0,0,.318.148.456.456,0,0,0,.378-.242.785.785,0,0,0,.03-.539,2.047,2.047,0,0,0-.259-.556,2.983,2.983,0,0,0-.53-.607l5.414-5.414.416,1.23.17-.034a5.162,5.162,0,0,1,.11-1.23,1.337,1.337,0,0,1,.365-.653c.119-.107.161-.19.127-.246s-.133-.082-.3-.076l-1.307.068.085.764L38.087,53a2.465,2.465,0,0,0-.2-.153c-.068-.045-.139-.093-.212-.144l-.119.136a2.533,2.533,0,0,1,.475.764A3.192,3.192,0,0,1,38.23,54.6Z"/>
    <path class="cls-3" d="M68.947,32.466a5.328,5.328,0,0,0,1.807.144,2.593,2.593,0,0,0,.993-.195.132.132,0,0,0,.025-.127,1.054,1.054,0,0,1,.195-1.078l-.1-.1a5.227,5.227,0,0,1-4.769.322l2.35-2.35c.085-.085.109-.146.072-.182a.307.307,0,0,0-.2-.064l-1.2-.11.1,1.12-1.612,1.612-1.264-1.264.959-.959.467.467c.079.079.146.092.2.038a1.2,1.2,0,0,0,.174-.462c.062-.255.048-.427-.042-.518l-.441-.373c-.175-.153-.354-.32-.535-.5l-.925-.925.042-.433q.025-.127-.021-.174t-.216-.03L64,26.416l.119.713-2.393,2.393-1.035.238q.518.45,1.069,1l.755.755a11.044,11.044,0,0,1,.976,1.129c.068.079.134.151.2.216s.122.074.17.025a1.8,1.8,0,0,0,.225-.445.5.5,0,0,0-.059-.586l-.17-.17.9-.9,1.264,1.264-1.9,1.9a6.382,6.382,0,0,1-.755.653l.67.059A2.375,2.375,0,0,1,64.525,34l1.129-1.129a13.688,13.688,0,0,1,.933,5.091l.187.017a10.628,10.628,0,0,0-.569-5.66l.042-.042,2.147,2.147q.552.552.815.832l.416.467c.107.107.181.141.221.1a1.84,1.84,0,0,0,.208-.445q.148-.385.055-.479c-.011-.011-.1-.093-.272-.246s-.444-.419-.823-.8l-2.172-2.172.093-.093A7.629,7.629,0,0,0,68.947,32.466Zm-5.338-1.027-1.663-1.663L64.4,27.324l1.663,1.663Z"/>
    <path class="cls-3" d="M66.074,37.858q-.411-.378-1.192-1.158l-2.961-2.961.051-.17c.023-.1.02-.167-.008-.195s-.1-.014-.212.042l-.441.221a15.183,15.183,0,0,0-.721-2.232,1.037,1.037,0,0,1-.068-.865q.1-.2.051-.255c-.034-.034-.116-.042-.246-.025l-1.23.178a22.534,22.534,0,0,1,2.563,6.517l.178-.025a18.28,18.28,0,0,0-.322-2.393l2.571,2.571q.492.492,1.226,1.285l.742.8c.141.141.238.187.289.136a1.56,1.56,0,0,0,.2-.492q.127-.416-.034-.577Z"/>
    <path class="cls-3" d="M79.043,21.581q.2.183.369.352l1.273,1.273-1.756,1.756L77.2,23.231l-.017-.322c0-.1-.016-.163-.047-.182s-.092-.007-.182.038l-.967.56q.476.424.8.747L78.3,25.59l-1.578,1.578L75.4,25.844l.042-.28a.2.2,0,0,0-.013-.165c-.025-.037-.078-.044-.157-.021l-1.129.45c.158.136.293.256.4.361s.222.214.335.327l.815.815c.068.068.144.147.229.238l.259.276c.088.093.17.184.246.272s.14.163.191.225c.119.141.205.214.259.216s.115-.075.182-.233a2.57,2.57,0,0,0,.123-.31.639.639,0,0,0,.034-.212.319.319,0,0,0-.055-.165,1.267,1.267,0,0,0-.144-.17l-.059-.059,3.963-3.963.407.407c.1.1.165.143.208.14s.092-.072.148-.208.117-.245.148-.327a.72.72,0,0,0,.051-.195.132.132,0,0,0-.03-.106l-.076-.076c-.113-.09-.255-.215-.424-.373s-.379-.362-.628-.611l-.84-.84.068-.322q.042-.281-.2-.187L78.6,21.2c.16.132.306.261.439.383Z"/>
    <path class="cls-3" d="M72.895,24.648a1.33,1.33,0,0,0-.344-.675,7.2,7.2,0,0,0-.989-.912l-.085.136a2.334,2.334,0,0,1,.433.747,2.215,2.215,0,0,1,.085.84.677.677,0,0,0,.119.475.387.387,0,0,0,.331.161.509.509,0,0,0,.4-.187A.769.769,0,0,0,72.895,24.648Z"/>
    <path class="cls-3" d="M70.231,23.545a.677.677,0,0,0,.191.428.4.4,0,0,0,.318.148.456.456,0,0,0,.378-.242.785.785,0,0,0,.03-.539,2.047,2.047,0,0,0-.259-.556,2.983,2.983,0,0,0-.53-.607l5.414-5.414.416,1.23.17-.034a5.162,5.162,0,0,1,.11-1.23,1.337,1.337,0,0,1,.365-.653c.119-.107.161-.19.127-.246s-.133-.082-.3-.076l-1.307.068.085.764L70.088,21.94a2.464,2.464,0,0,0-.2-.153c-.068-.045-.139-.093-.212-.144l-.119.136a2.532,2.532,0,0,1,.475.764A3.25,3.25,0,0,1,70.231,23.545Z"/>
    <path class="cls-3" d="M74.253,20.914a.364.364,0,0,0,.093-.187.744.744,0,0,0,.008-.255.975.975,0,0,0-.076-.271.764.764,0,0,0-.161-.238.581.581,0,0,0-.509-.127,3.617,3.617,0,0,0-1.01.373l.025.178a2.067,2.067,0,0,1,1.247.484C74.035,20.991,74.162,21,74.253,20.914Z"/>
    <path class="cls-3" d="M72.955,27.253l.17.085a14.246,14.246,0,0,0,.768-1.438,15.884,15.884,0,0,0,.658-1.7.535.535,0,0,0,.39-.051,2.063,2.063,0,0,0,.458-.339q.585-.552,1.1-1.107t1.073-1.218a1.749,1.749,0,0,0,.416-1.23c0-.113-.02-.184-.059-.212a.28.28,0,0,0-.212-.008,1.535,1.535,0,0,1-.284.038.667.667,0,0,1-.271-.051,1.412,1.412,0,0,1-.31-.182,5.263,5.263,0,0,1-.424-.365l-.119.136c.221.277.387.5.5.67a1.927,1.927,0,0,1,.225.42.386.386,0,0,1,0,.288,1.891,1.891,0,0,1-.174.293q-.144.195-.344.428c-.133.156-.273.318-.42.488s-.3.337-.45.5-.294.311-.424.441c-.164.164-.289.232-.373.2q.246-.84.441-1.706t.322-1.756a2.939,2.939,0,0,1,.132-.573,1.671,1.671,0,0,1,.165-.369c.068-.091.091-.156.068-.195s-.1-.057-.229-.051l-.789.025a12.585,12.585,0,0,1-.14,1.93q-.148,1.023-.454,2.261l-1-1,.051-.221q.077-.262-.178-.161l-1.1.433c.057.045.12.1.191.165l.221.2.233.216q.119.111.2.195L74.1,23.85q-.313,1.162-.581,1.956A15.329,15.329,0,0,1,72.955,27.253Z"/>
    <path class="cls-3" d="M71.686,18.908a1.845,1.845,0,0,1,.632.31.3.3,0,0,0,.424-.068.558.558,0,0,0,.182-.437.671.671,0,0,0-.216-.445.474.474,0,0,0-.509-.136,2.212,2.212,0,0,0-.45.178q-.271.136-.7.39l.042.161A1.586,1.586,0,0,1,71.686,18.908Z"/>
    <path class="cls-3" d="M76.247,18.852a4.328,4.328,0,0,1,1.179.025,5.252,5.252,0,0,1,1.146.331.5.5,0,0,0,.259.064.264.264,0,0,0,.157-.072.374.374,0,0,0,.051-.39,1.207,1.207,0,0,0-.322-.509.665.665,0,0,0-.233-.148.918.918,0,0,0-.416-.025,4.131,4.131,0,0,0-.713.161q-.438.132-1.133.4Z"/>
    <path class="cls-4" d="M1,12,12,1H35L1,35Z"/>
    <path class="cls-2" d="M10.364,9.364a1,1,0,0,1,1.414,0l4.243,4.243a1,1,0,0,1-1.414,1.414l-4.243-4.243A1,1,0,0,1,10.364,9.364Zm4.243-4.243A3,3,0,1,1,18.85,9.364l-.707.707.707.707a1,1,0,0,1-1.414,1.414l-4.95-4.95ZM7.536,12.192a1,1,0,0,1,1.414,0l2.828,2.828a1.049,1.049,0,0,1,.3.728l-.012,2.787a.993.993,0,0,1-.254.661l-.1.1a1,1,0,0,1-.661.254l-2.787.013a1.017,1.017,0,0,1-.167-.013,1,1,0,0,1-.568-.284L4.708,16.435a1,1,0,1,1,1.414-1.414L8.66,17.559l1.415-.006.006-1.4L7.537,13.608A1,1,0,0,1,7.536,12.192Zm8.485-5.657-.707.707,1.414,1.414.707-.707a1,1,0,0,0-1.414-1.414Z"/>
</svg>