<svg viewBox="0 0 16 16" fill="none" xmlns="http://www.w3.org/2000/svg">
<g clip-path="url(#clip0_2461_29672)">
<path opacity="0.2" d="M0.0120109 8.316C-0.0605071 8.22684 -0.100098 8.11543 -0.100098 8.0005C-0.100098 7.88557 -0.0605071 7.77416 0.0120109 7.685L2.86201 4.185C2.90886 4.12725 2.968 4.08068 3.03512 4.04868C3.10224 4.01667 3.17565 4.00004 3.25001 4H12.75C12.8243 3.99992 12.8977 4.0164 12.9648 4.04823C13.0319 4.08005 13.0911 4.12644 13.138 4.184L15.988 7.684C16.0605 7.77316 16.1001 7.88457 16.1001 7.9995C16.1001 8.11443 16.0605 8.22584 15.988 8.315L13.138 11.815C13.0912 11.8727 13.032 11.9193 12.9649 11.9513C12.8978 11.9833 12.8244 12 12.75 12H3.25001C3.17573 12.0001 3.10237 11.9836 3.03525 11.9518C2.96814 11.9199 2.90896 11.8736 2.86201 11.816L0.0120109 8.316Z" fill="#4F87FE"/>
<path fill-rule="evenodd" clip-rule="evenodd" d="M2.86201 4.185L0.0120109 7.685C-0.0605071 7.77416 -0.100098 7.88558 -0.100098 8.0005C-0.100098 8.11543 -0.0605071 8.22684 0.0120109 8.316L2.86201 11.816C2.90896 11.8736 2.96814 11.9199 3.03525 11.9518C3.10237 11.9836 3.17573 12.0001 3.25001 12H12.75C12.8244 12 12.8978 11.9833 12.9649 11.9513C13.032 11.9193 13.0912 11.8727 13.138 11.815L15.988 8.315C16.0605 8.22584 16.1001 8.11443 16.1001 7.9995C16.1001 7.88457 16.0605 7.77316 15.988 7.684L13.138 4.184C13.0911 4.12644 13.0319 4.08005 12.9648 4.04823C12.8977 4.0164 12.8243 3.99992 12.75 4H3.25001C3.17565 4.00004 3.10224 4.01667 3.03512 4.04868C2.968 4.08068 2.90886 4.12725 2.86201 4.185ZM3.48797 5L1.0447 8.0005L3.48715 11H12.5121L14.9553 7.9995L12.5129 5H3.48797ZM12.751 5C12.7507 5 12.7504 5 12.75 5L12.751 5Z" fill="#3B64FC"/>
</g>
<defs>
<clipPath id="clip0_2461_29672">
<rect width="16" height="16" fill="white"/>
</clipPath>
</defs>
</svg>
