<svg viewBox="0 0 16 16" fill="none" xmlns="http://www.w3.org/2000/svg">
<circle opacity="0.2" cx="7.5" cy="7.5" r="7.5" fill="#4F87FE"/>
<path d="M7 13.981V8H1.019C1.13827 9.54661 1.80671 10.9996 2.90357 12.0964C4.00043 13.1933 5.4534 13.8617 7 13.981ZM7 7V1.019C5.4534 1.13827 4.00043 1.80671 2.90357 2.90357C1.80671 4.00043 1.13827 5.4534 1.019 7H7ZM8 1.019V7H13.981C13.8617 5.4534 13.1933 4.00043 12.0964 2.90357C10.9996 1.80671 9.54661 1.13827 8 1.019ZM8 8V13.981C9.54661 13.8617 10.9996 13.1933 12.0964 12.0964C13.1933 10.9996 13.8617 9.54661 13.981 8H8ZM7.5 15C6.01664 15 4.5666 14.5601 3.33323 13.736C2.09986 12.9119 1.13856 11.7406 0.570907 10.3701C0.00324965 8.99968 -0.145275 7.49168 0.144114 6.03683C0.433503 4.58197 1.14781 3.2456 2.1967 2.1967C3.2456 1.14781 4.58197 0.433503 6.03683 0.144114C7.49168 -0.145275 8.99968 0.00324965 10.3701 0.570907C11.7406 1.13856 12.9119 2.09986 13.736 3.33323C14.5601 4.5666 15 6.01664 15 7.5C15 9.48913 14.2098 11.3968 12.8033 12.8033C11.3968 14.2098 9.48913 15 7.5 15Z" fill="#3B64FC"/>
</svg>
