<svg viewBox="0 0 16 16" fill="none" xmlns="http://www.w3.org/2000/svg">
<g clip-path="url(#clip0_2461_29684)">
<path opacity="0.2" d="M0 1.5C0 1.39506 0.0330187 1.29278 0.0943789 1.20764C0.155739 1.12251 0.24233 1.05884 0.341886 1.02566C0.441442 0.992472 0.548916 0.991452 0.649084 1.02274C0.749252 1.05403 0.837035 1.11605 0.9 1.2C1.23108 1.72978 1.68655 2.17068 2.22681 2.48438C2.76707 2.79808 3.37577 2.97508 4 3C5.3226 3.04499 6.63116 2.71681 7.776 2.053C9.05959 1.31829 10.5217 0.953798 12 0.999999C12.7796 1.02339 13.5419 1.23584 14.2213 1.61907C14.9007 2.0023 15.4767 2.54483 15.9 3.2C15.9649 3.28655 16 3.39181 16 3.5V14.5C16 14.6049 15.967 14.7072 15.9056 14.7924C15.8443 14.8775 15.7577 14.9412 15.6581 14.9743C15.5586 15.0075 15.4511 15.0085 15.3509 14.9773C15.2507 14.946 15.163 14.884 15.1 14.8C14.7689 14.2702 14.3134 13.8293 13.7732 13.5156C13.2329 13.2019 12.6242 13.0249 12 13C10.6774 12.955 9.36884 13.2832 8.224 13.947C6.94041 14.6817 5.47827 15.0462 4 15C3.22036 14.9766 2.45807 14.7642 1.77871 14.3809C1.09935 13.9977 0.52326 13.4552 0.1 12.8C0.0350889 12.7135 0 12.6082 0 12.5L0 1.5Z" fill="#4F87FE"/>
<path fill-rule="evenodd" clip-rule="evenodd" d="M4 3C3.37577 2.97508 2.76707 2.79808 2.22681 2.48438C1.68655 2.17068 1.23108 1.72978 0.9 1.2C0.837035 1.11605 0.749252 1.05403 0.649084 1.02274C0.548916 0.991452 0.441442 0.992472 0.341886 1.02566C0.24233 1.05884 0.155739 1.12251 0.0943789 1.20764C0.0330187 1.29278 0 1.39506 0 1.5V12.5C0 12.6082 0.0350889 12.7135 0.1 12.8C0.52326 13.4552 1.09935 13.9977 1.77871 14.3809C2.45807 14.7642 3.22036 14.9766 4 15C5.47827 15.0462 6.9404 14.6817 8.224 13.947C9.36884 13.2832 10.6774 12.955 12 13C12.6242 13.0249 13.2329 13.2019 13.7732 13.5156C14.3134 13.8293 14.7689 14.2702 15.1 14.8C15.163 14.884 15.2507 14.946 15.3509 14.9773C15.4511 15.0085 15.5586 15.0075 15.6581 14.9743C15.7577 14.9412 15.8443 14.8775 15.9056 14.7924C15.967 14.7072 16 14.6049 16 14.5V3.5C16 3.39181 15.9649 3.28655 15.9 3.2C15.4767 2.54483 14.9007 2.0023 14.2213 1.61907C13.5419 1.23584 12.7796 1.02339 12 0.999999C10.5217 0.953798 9.0596 1.31829 7.776 2.053C6.63116 2.71681 5.3226 3.04499 4 3ZM8.27508 2.91956C6.96846 3.67654 5.47524 4.05076 3.966 3.99942L3.96011 3.99922L3.96011 3.9992C3.17315 3.96779 2.40577 3.74465 1.72467 3.34917C1.4669 3.1995 1.22444 3.02685 1 2.83386V12.3475C1.32896 12.8263 1.76322 13.2241 2.27003 13.5099C2.8083 13.8136 3.41227 13.9819 4.02999 14.0004L4.03124 14.0005C5.32381 14.0409 6.60228 13.7224 7.72486 13.0805C9.0315 12.3235 10.5247 11.9492 12.034 12.0006L12.0399 12.0008L12.0399 12.0008C12.8268 12.0322 13.5942 12.2554 14.2753 12.6508C14.5331 12.8005 14.7756 12.9731 15 13.1661V3.65254C14.671 3.17373 14.2368 2.77594 13.73 2.49005C13.1917 2.18641 12.5877 2.01809 11.97 1.99955L11.9688 1.99951C10.6762 1.95911 9.39767 2.27758 8.27508 2.91956Z" fill="#3B64FC"/>
</g>
<defs>
<clipPath id="clip0_2461_29684">
<rect width="16" height="16" fill="white"/>
</clipPath>
</defs>
</svg>
