<svg viewBox="0 0 16 16" fill="none" xmlns="http://www.w3.org/2000/svg">
<g clip-path="url(#clip0_2461_29676)">
<path opacity="0.2" d="M-0.071966 2.665C-0.0983138 2.58963 -0.106229 2.50905 -0.0950502 2.42999C-0.0838712 2.35094 -0.0539228 2.27571 -0.0077104 2.2106C0.038502 2.14549 0.0996345 2.0924 0.170573 2.05576C0.241511 2.01912 0.320192 2 0.400034 2H15.6C15.6799 2 15.7586 2.01912 15.8295 2.05576C15.9004 2.0924 15.9616 2.14549 16.0078 2.2106C16.054 2.27571 16.0839 2.35094 16.0951 2.42999C16.1063 2.50905 16.0984 2.58963 16.072 2.665L12.222 13.665C12.1878 13.7629 12.124 13.8477 12.0394 13.9077C11.9549 13.9678 11.8537 14 11.75 14H4.25003C4.14633 14 4.0452 13.9678 3.96063 13.9077C3.87607 13.8477 3.81226 13.7629 3.77803 13.665L-0.071966 2.665Z" fill="#4F87FE"/>
<path fill-rule="evenodd" clip-rule="evenodd" d="M0.400034 2C0.320192 2 0.241511 2.01912 0.170573 2.05576C0.0996345 2.0924 0.038502 2.14549 -0.0077104 2.2106C-0.0539228 2.27571 -0.0838712 2.35094 -0.0950502 2.42999C-0.106229 2.50905 -0.0983138 2.58963 -0.071966 2.665L3.77803 13.665C3.81226 13.7629 3.87607 13.8477 3.96063 13.9077C4.0452 13.9678 4.14633 14 4.25003 14H11.75C11.8537 14 11.9549 13.9678 12.0394 13.9077C12.124 13.8477 12.1878 13.7629 12.222 13.665L16.072 2.665C16.0984 2.58963 16.1063 2.50905 16.0951 2.42999C16.0839 2.35094 16.054 2.27571 16.0078 2.2106C15.9616 2.14549 15.9004 2.0924 15.8295 2.05576C15.7586 2.01912 15.6799 2 15.6 2H0.400034ZM1.10477 3H14.8953L11.3953 13H4.60476L1.10477 3ZM4.72202 13.335L4.72189 13.3346ZM11.2782 13.3346C11.2782 13.3346 11.2782 13.3345 11.2783 13.3344Z" fill="#3B64FC"/>
</g>
<defs>
<clipPath id="clip0_2461_29676">
<rect width="16" height="16" fill="white"/>
</clipPath>
</defs>
</svg>
