<svg viewBox="0 0 16 16" fill="none" xmlns="http://www.w3.org/2000/svg">
<path opacity="0.2" d="M8 15C9.38447 15 10.7378 14.5895 11.889 13.8203C13.0401 13.0511 13.9373 11.9579 14.4672 10.6788C14.997 9.3997 15.1356 7.99224 14.8655 6.63437C14.5954 5.2765 13.9287 4.02922 12.9497 3.05026C11.9708 2.07129 10.7235 1.4046 9.36563 1.13451C8.00777 0.86441 6.6003 1.00303 5.32122 1.53285C4.04213 2.06266 2.94888 2.95987 2.17971 4.11101C1.41054 5.26216 1 6.61553 1 8C1 9.85652 1.7375 11.637 3.05025 12.9497C4.36301 14.2625 6.14348 15 8 15Z" fill="#4F87FE"/>
<path fill-rule="evenodd" clip-rule="evenodd" d="M8 14C9.18669 14 10.3467 13.6481 11.3334 12.9888C12.3201 12.3295 13.0892 11.3925 13.5433 10.2961C13.9974 9.19975 14.1162 7.99335 13.8847 6.82946C13.6532 5.66558 13.0818 4.59648 12.2426 3.75736C11.4035 2.91825 10.3344 2.3468 9.17054 2.11529C8.00666 1.88378 6.80026 2.0026 5.7039 2.45673C4.60754 2.91085 3.67047 3.67989 3.01118 4.66658C2.35189 5.65328 2 6.81332 2 8C2 9.5913 2.63214 11.1174 3.75736 12.2426C4.88258 13.3679 6.4087 14 8 14ZM11.889 13.8203C10.7378 14.5895 9.38447 15 8 15C6.14348 15 4.36301 14.2625 3.05025 12.9497C1.7375 11.637 1 9.85652 1 8C1 6.61553 1.41054 5.26216 2.17971 4.11101C2.94888 2.95987 4.04213 2.06266 5.32122 1.53285C6.6003 1.00303 8.00776 0.86441 9.36563 1.13451C10.7235 1.4046 11.9708 2.07129 12.9497 3.05026C13.9287 4.02922 14.5954 5.2765 14.8655 6.63437C15.1356 7.99224 14.997 9.3997 14.4672 10.6788C13.9373 11.9579 13.0401 13.0511 11.889 13.8203Z" fill="#3B64FC"/>
</svg>
