<svg viewBox="0 0 16 16" fill="none" xmlns="http://www.w3.org/2000/svg">
<path opacity="0.2" d="M0.900022 6.9879C0.902129 6.89382 0.930743 6.80224 0.982575 6.7237C1.03441 6.64515 1.10735 6.58283 1.19302 6.5439L14.393 0.543897C14.4688 0.509432 14.552 0.494428 14.635 0.500247C14.718 0.506065 14.7983 0.532522 14.8685 0.577217C14.9387 0.621913 14.9967 0.683432 15.0371 0.756195C15.0775 0.828958 15.0992 0.910663 15.1 0.993897L15.25 13.4939C15.2508 13.5601 15.2385 13.6257 15.2137 13.6871C15.1889 13.7484 15.1522 13.8043 15.1057 13.8513C15.0592 13.8984 15.0038 13.9358 14.9428 13.9613C14.8817 13.9868 14.8162 13.9999 14.75 13.9999H1.25002C1.18334 13.9999 1.11733 13.9866 1.05587 13.9607C0.994409 13.9348 0.938747 13.8969 0.892157 13.8492C0.845568 13.8015 0.808992 13.745 0.784582 13.6829C0.760172 13.6209 0.748422 13.5546 0.750022 13.4879L0.900022 6.9879Z" fill="#4F87FE"/>
<path fill-rule="evenodd" clip-rule="evenodd" d="M1.89252 7.3244L14.1093 1.77133L14.244 12.9999H1.76155L1.89252 7.3244ZM1.19302 6.5439C1.10735 6.58283 1.03441 6.64515 0.982575 6.7237C0.930743 6.80224 0.902129 6.89382 0.900022 6.9879L0.750022 13.4879C0.748422 13.5546 0.760172 13.6209 0.784582 13.6829C0.808992 13.745 0.845568 13.8015 0.892157 13.8492C0.938747 13.8969 0.994409 13.9348 1.05587 13.9607C1.11733 13.9866 1.18334 13.9999 1.25002 13.9999H14.75C14.8162 13.9999 14.8817 13.9868 14.9428 13.9613C15.0038 13.9358 15.0592 13.8984 15.1057 13.8513C15.1522 13.8043 15.1889 13.7484 15.2137 13.6871C15.2385 13.6257 15.2508 13.5601 15.25 13.4939L15.1 0.993897C15.0992 0.910663 15.0775 0.828958 15.0371 0.756195C14.9967 0.683432 14.9387 0.621913 14.8685 0.577217C14.7983 0.532522 14.718 0.506065 14.635 0.500247C14.552 0.494428 14.4688 0.509432 14.393 0.543897L1.19302 6.5439Z" fill="#3B64FC"/>
</svg>
