<svg viewBox="0 0 16 16" fill="none" xmlns="http://www.w3.org/2000/svg">
<path opacity="0.2" d="M1 2.5C1 2.36739 1.05268 2.24021 1.14645 2.14645C1.24021 2.05268 1.36739 2 1.5 2H10C11.5913 2 13.1174 2.63214 14.2426 3.75736C15.3679 4.88258 16 6.4087 16 8C16 9.5913 15.3679 11.1174 14.2426 12.2426C13.1174 13.3679 11.5913 14 10 14H1.5C1.36739 14 1.24021 13.9473 1.14645 13.8536C1.05268 13.7598 1 13.6326 1 13.5V2.5Z" fill="#4F87FE"/>
<path fill-rule="evenodd" clip-rule="evenodd" d="M2 3V13H10C11.3261 13 12.5979 12.4732 13.5355 11.5355C14.4732 10.5979 15 9.32608 15 8C15 6.67392 14.4732 5.40215 13.5355 4.46447C12.5979 3.52678 11.3261 3 10 3H2ZM1.14645 2.14645C1.05268 2.24021 1 2.36739 1 2.5V13.5C1 13.6326 1.05268 13.7598 1.14645 13.8536C1.24021 13.9473 1.36739 14 1.5 14H10C11.5913 14 13.1174 13.3679 14.2426 12.2426C15.3679 11.1174 16 9.5913 16 8C16 6.4087 15.3679 4.88258 14.2426 3.75736C13.1174 2.63214 11.5913 2 10 2H1.5C1.36739 2 1.24021 2.05268 1.14645 2.14645Z" fill="#3B64FC"/>
</svg>
