<svg viewBox="0 0 16 16" fill="none" xmlns="http://www.w3.org/2000/svg">
<path opacity="0.2" d="M8.44698 14.724L14.947 1.724C14.9852 1.64777 15.0033 1.56304 14.9995 1.47786C14.9957 1.39268 14.9702 1.30988 14.9254 1.23733C14.8806 1.16478 14.818 1.10489 14.7436 1.06335C14.6691 1.02181 14.5852 1 14.5 1H1.49998C1.41472 1 1.33087 1.02181 1.25641 1.06335C1.18195 1.10489 1.11935 1.16478 1.07455 1.23733C1.02976 1.30988 1.00427 1.39268 1.00049 1.47786C0.996715 1.56304 1.01478 1.64777 1.05298 1.724L7.55298 14.724C7.59455 14.8069 7.65838 14.8767 7.73732 14.9254C7.81626 14.9742 7.90721 15 7.99998 15C8.09276 15 8.1837 14.9742 8.26265 14.9254C8.34159 14.8767 8.40541 14.8069 8.44698 14.724Z" fill="#4F87FE"/>
<path fill-rule="evenodd" clip-rule="evenodd" d="M14.947 1.724C14.9852 1.64777 15.0033 1.56304 14.9995 1.47786C14.9957 1.39268 14.9702 1.30988 14.9254 1.23733C14.8806 1.16478 14.818 1.10489 14.7436 1.06335C14.6691 1.02181 14.5852 1 14.5 1H1.49998C1.41472 1 1.33087 1.02181 1.25641 1.06335C1.18195 1.10489 1.11935 1.16478 1.07455 1.23733C1.02976 1.30988 1.00427 1.39268 1.00049 1.47786C0.996715 1.56304 1.01478 1.64777 1.05298 1.724L7.55298 14.724C7.59455 14.8069 7.65838 14.8767 7.73732 14.9254C7.81626 14.9742 7.90721 15 7.99998 15C8.09276 15 8.1837 14.9742 8.26265 14.9254C8.34159 14.8767 8.40541 14.8069 8.44698 14.724L14.947 1.724ZM7.99998 13.3819L13.6909 2H2.30902L7.99998 13.3819Z" fill="#3B64FC"/>
</svg>
