<svg viewBox="0 0 16 16" fill="none" xmlns="http://www.w3.org/2000/svg">
<path opacity="0.2" d="M15.4 12.9801C15.4909 13.0146 15.5697 13.0749 15.6268 13.1535C15.6839 13.2322 15.7169 13.3258 15.7217 13.4228C15.7264 13.5199 15.7028 13.6163 15.6537 13.7002C15.6045 13.784 15.532 13.8518 15.445 13.8951C15.3068 13.9639 15.1545 13.9999 15 14.0001H2.5C0.981 14.0001 0 11.3001 0 8.00005C0 4.70005 0.981 2.00005 2.5 2.00005H15C15.1544 1.99851 15.307 2.03273 15.446 2.10005C15.533 2.14335 15.6055 2.21107 15.6547 2.29494C15.7038 2.37881 15.7274 2.47518 15.7227 2.57226C15.7179 2.66935 15.6849 2.76294 15.6278 2.84158C15.5707 2.92022 15.4919 2.9805 15.401 3.01505C14.686 3.29205 14 5.44005 14 8.00005C14 10.5601 14.686 12.7081 15.4 12.9801Z" fill="#4F87FE"/>
<path fill-rule="evenodd" clip-rule="evenodd" d="M15.401 3.01505C15.4919 2.9805 15.5707 2.92022 15.6278 2.84158C15.6849 2.76294 15.7179 2.66935 15.7227 2.57226C15.7274 2.47518 15.7038 2.37881 15.6547 2.29494C15.6055 2.21107 15.533 2.14335 15.446 2.10005C15.307 2.03273 15.1544 1.99851 15 2.00005H2.5C0.981 2.00005 0 4.70005 0 8.00005C0 11.3 0.981 14.0001 2.5 14.0001H15C15.1545 13.9999 15.3068 13.9639 15.445 13.8951C15.532 13.8518 15.6045 13.784 15.6537 13.7002C15.7028 13.6163 15.7264 13.5199 15.7217 13.4228C15.7169 13.3258 15.6839 13.2322 15.6268 13.1535C15.5697 13.0749 15.4909 13.0146 15.4 12.9801C14.686 12.708 14 10.5601 14 8.00005C14 5.44005 14.686 3.29205 15.401 3.01505ZM14.0455 13.0001C14.0363 12.9848 14.0272 12.9697 14.0184 12.9547C13.7984 12.5812 13.6173 12.1237 13.4725 11.6289C13.1815 10.6346 13 9.36159 13 8.00005C13 6.63847 13.1815 5.36553 13.4726 4.37061C13.6175 3.87552 13.7986 3.41783 14.0185 3.04389C14.027 3.02943 14.0357 3.01481 14.0446 3.00005H2.5C2.40934 3.00005 2.02004 3.10626 1.60881 4.13403C1.23506 5.06814 1 6.43285 1 8.00005C1 9.56725 1.23506 10.932 1.60881 11.8661C2.02004 12.8938 2.40934 13.0001 2.5 13.0001H14.0455Z" fill="#3B64FC"/>
</svg>
