<svg viewBox="0 0 16 16" fill="none" xmlns="http://www.w3.org/2000/svg">
<g clip-path="url(#clip0_2461_29702)">
<path opacity="0.2" d="M14.135 11H15.5C15.6326 11 15.7597 11.0527 15.8535 11.1465C15.9473 11.2402 16 11.3674 16 11.5V14.5C16 14.6326 15.9473 14.7598 15.8535 14.8536C15.7597 14.9473 15.6326 15 15.5 15H7.49996C5.86125 14.9996 4.26776 14.4625 2.96316 13.4709C1.65855 12.4792 0.714626 11.0876 0.275723 9.50877C-0.163179 7.92993 -0.0729057 6.25079 0.53274 4.72811C1.13839 3.20542 2.22607 1.923 3.62948 1.07694C5.03288 0.230879 6.67477 -0.13226 8.30407 0.0430519C9.93338 0.218364 11.4604 0.922477 12.6517 2.04773C13.843 3.17298 14.633 4.65743 14.9008 6.2741C15.1687 7.89077 14.8997 9.55068 14.135 11Z" fill="#4F87FE"/>
<path fill-rule="evenodd" clip-rule="evenodd" d="M12.4766 12L13.2505 10.5333C13.9133 9.27726 14.1464 7.83867 13.9143 6.43756C13.6822 5.03644 12.9975 3.74991 11.9651 2.7747C10.9326 1.79948 9.60916 1.18925 8.19709 1.03731C6.78503 0.885376 5.36206 1.2001 4.14577 1.93335C2.92949 2.6666 1.98683 3.77803 1.46194 5.09769C0.937043 6.41735 0.858806 7.87261 1.23919 9.24093C1.61957 10.6093 2.43764 11.8154 3.5683 12.6748C4.69889 13.5342 6.07983 13.9996 7.49996 14C7.50004 14 7.49988 14 7.49996 14H15V12H12.4766ZM7.49996 15C5.86125 14.9996 4.26776 14.4625 2.96316 13.4709C1.65855 12.4792 0.714626 11.0876 0.275723 9.50877C-0.163179 7.92993 -0.0729057 6.25079 0.53274 4.72811C1.13839 3.20542 2.22607 1.923 3.62948 1.07694C5.03288 0.230879 6.67477 -0.13226 8.30407 0.0430519C9.93338 0.218364 11.4604 0.922477 12.6517 2.04773C13.843 3.17298 14.633 4.65743 14.9008 6.2741C15.1089 7.52962 14.9931 8.81122 14.5728 10C14.4519 10.342 14.3058 10.6762 14.135 11H15.5C15.6326 11 15.7597 11.0527 15.8535 11.1465C15.9473 11.2402 16 11.3674 16 11.5V14.5C16 14.6326 15.9473 14.7598 15.8535 14.8536C15.7597 14.9473 15.6326 15 15.5 15H7.49996Z" fill="#3B64FC"/>
</g>
<defs>
<clipPath id="clip0_2461_29702">
<rect width="16" height="16" fill="white"/>
</clipPath>
</defs>
</svg>
