<svg viewBox="0 0 16 16" fill="none" xmlns="http://www.w3.org/2000/svg">
<path opacity="0.2" d="M7.55298 1.27597C7.59455 1.19303 7.65838 1.12329 7.73732 1.07455C7.81626 1.02581 7.90721 1 7.99998 1C8.09276 1 8.1837 1.02581 8.26265 1.07455C8.34159 1.12329 8.40541 1.19303 8.44698 1.27597L14.947 14.276C14.9852 14.3522 15.0033 14.4369 14.9995 14.5221C14.9957 14.6073 14.9702 14.6901 14.9254 14.7626C14.8806 14.8352 14.818 14.8951 14.7436 14.9366C14.6691 14.9782 14.5852 15 14.5 15H1.49998C1.41472 15 1.33087 14.9782 1.25641 14.9366C1.18195 14.8951 1.11935 14.8352 1.07455 14.7626C1.02976 14.6901 1.00427 14.6073 1.00049 14.5221C0.996715 14.4369 1.01478 14.3522 1.05298 14.276L7.55298 1.27597Z" fill="#4F87FE"/>
<path fill-rule="evenodd" clip-rule="evenodd" d="M14.947 14.276L8.44698 1.27597C8.40541 1.19303 8.34159 1.12329 8.26265 1.07455C8.1837 1.02581 8.09276 1 7.99998 1C7.90721 1 7.81626 1.02581 7.73732 1.07455C7.65838 1.12329 7.59455 1.19303 7.55298 1.27597L1.05298 14.276C1.01478 14.3522 0.996715 14.4369 1.00049 14.5221C1.00427 14.6073 1.02976 14.6901 1.07455 14.7626C1.11935 14.8352 1.18195 14.8951 1.25641 14.9366C1.33087 14.9782 1.41472 15 1.49998 15H14.5C14.5852 15 14.6691 14.9782 14.7436 14.9366C14.818 14.8951 14.8806 14.8352 14.9254 14.7626C14.9702 14.6901 14.9957 14.6073 14.9995 14.5221C15.0033 14.4369 14.9852 14.3522 14.947 14.276ZM13.6909 14L7.99998 2.61804L2.30902 14H13.6909Z" fill="#3B64FC"/>
</svg>
