<svg viewBox="0 0 16 16" fill="none" xmlns="http://www.w3.org/2000/svg">
<path opacity="0.2" d="M2.00798 2.411C2.02884 2.2957 2.08953 2.19139 2.17945 2.11627C2.26937 2.04116 2.38282 2 2.49998 2H15.5C15.5732 2 15.6455 2.01608 15.7118 2.04708C15.7781 2.07809 15.8368 2.12328 15.8837 2.17946C15.9306 2.23564 15.9646 2.30143 15.9834 2.3722C16.0021 2.44296 16.005 2.51697 15.992 2.589L13.992 13.589C13.9711 13.7043 13.9104 13.8086 13.8205 13.8837C13.7306 13.9588 13.6172 14 13.5 14H0.499985C0.426788 14 0.354484 13.9839 0.28818 13.9529C0.221876 13.9219 0.163189 13.8767 0.116263 13.8205C0.0693382 13.7644 0.0353194 13.6986 0.0166097 13.6278C-0.0021 13.557 -0.0050443 13.483 0.00798477 13.411L2.00798 2.411Z" fill="#4F87FE"/>
<path fill-rule="evenodd" clip-rule="evenodd" d="M13.992 13.589L15.992 2.589C16.005 2.51697 16.0021 2.44296 15.9834 2.3722C15.9647 2.30143 15.9306 2.23564 15.8837 2.17946C15.8368 2.12328 15.7781 2.07809 15.7118 2.04708C15.6455 2.01608 15.5732 2 15.5 2H2.49999C2.38282 2 2.26937 2.04116 2.17945 2.11627C2.08953 2.19139 2.02884 2.2957 2.00798 2.411L0.00798477 13.411C-0.0050443 13.483 -0.0021 13.557 0.0166097 13.6278C0.0353194 13.6986 0.0693382 13.7644 0.116263 13.8205C0.163189 13.8767 0.221876 13.9219 0.28818 13.9529C0.354484 13.9839 0.426788 14 0.499985 14H13.5C13.6172 14 13.7306 13.9588 13.8205 13.8837C13.9104 13.8086 13.9711 13.7043 13.992 13.589ZM13.0827 13L14.9009 3H2.91729L1.09911 13H13.0827ZM13.0081 13.4101C13.0081 13.41 13.0081 13.41 13.0082 13.4099Z" fill="#3B64FC"/>
</svg>
