<svg viewBox="0 0 16 16" fill="none" xmlns="http://www.w3.org/2000/svg">
<path opacity="0.2" d="M0 8C0 6.93913 0.421427 5.92172 1.17157 5.17157C1.92172 4.42143 2.93913 4 4 4H12C13.0609 4 14.0783 4.42143 14.8284 5.17157C15.5786 5.92172 16 6.93913 16 8C16 9.06087 15.5786 10.0783 14.8284 10.8284C14.0783 11.5786 13.0609 12 12 12H4C2.93913 12 1.92172 11.5786 1.17157 10.8284C0.421427 10.0783 0 9.06087 0 8Z" fill="#4F87FE"/>
<path fill-rule="evenodd" clip-rule="evenodd" d="M1.87868 5.87868C1.31607 6.44129 1 7.20435 1 8C1 8.79565 1.31607 9.55871 1.87868 10.1213C2.44129 10.6839 3.20435 11 4 11H12C12.7956 11 13.5587 10.6839 14.1213 10.1213C14.6839 9.55871 15 8.79565 15 8C15 7.20435 14.6839 6.44129 14.1213 5.87868C13.5587 5.31607 12.7956 5 12 5H4C3.20435 5 2.44129 5.31607 1.87868 5.87868ZM1.17157 5.17157C0.421427 5.92172 0 6.93913 0 8C0 9.06087 0.421427 10.0783 1.17157 10.8284C1.92172 11.5786 2.93913 12 4 12H12C13.0609 12 14.0783 11.5786 14.8284 10.8284C15.5786 10.0783 16 9.06087 16 8C16 6.93913 15.5786 5.92172 14.8284 5.17157C14.0783 4.42143 13.0609 4 12 4H4C2.93913 4 1.92172 4.42143 1.17157 5.17157Z" fill="#3B64FC"/>
</svg>
