<svg viewBox="0 0 16 16" fill="none" xmlns="http://www.w3.org/2000/svg">
<path opacity="0.2" d="M0 1.5C0 1.22386 0.223858 1 0.5 1H9.79289C9.9255 1 10.0527 1.05268 10.1464 1.14645L15.8536 6.85355C15.9473 6.94732 16 7.0745 16 7.20711V14.5C16 14.7761 15.7761 15 15.5 15H0.5C0.223858 15 0 14.7761 0 14.5V1.5Z" fill="#4F87FE"/>
<path fill-rule="evenodd" clip-rule="evenodd" d="M1 2V14H15V7.41421L9.58579 2H1ZM0.5 1C0.223858 1 0 1.22386 0 1.5V14.5C0 14.7761 0.223858 15 0.5 15H15.5C15.7761 15 16 14.7761 16 14.5V7.20711C16 7.0745 15.9473 6.94732 15.8536 6.85355L10.1464 1.14645C10.0527 1.05268 9.9255 1 9.79289 1H0.5Z" fill="#3B64FC"/>
</svg>
