<svg viewBox="0 0 16 16" fill="none" xmlns="http://www.w3.org/2000/svg">
<path opacity="0.2" d="M0 5C0 2.79086 1.79086 1 4 1H12C14.2091 1 16 2.79086 16 5V11C16 13.2091 14.2091 15 12 15H4C1.79086 15 0 13.2091 0 11V5Z" fill="#4F87FE"/>
<path fill-rule="evenodd" clip-rule="evenodd" d="M12 2H4C2.34315 2 1 3.34315 1 5V11C1 12.6569 2.34315 14 4 14H12C13.6569 14 15 12.6569 15 11V5C15 3.34315 13.6569 2 12 2ZM4 1C1.79086 1 0 2.79086 0 5V11C0 13.2091 1.79086 15 4 15H12C14.2091 15 16 13.2091 16 11V5C16 2.79086 14.2091 1 12 1H4Z" fill="#3B64FC"/>
</svg>
