<svg id="图层_1" data-name="图层 1" xmlns="http://www.w3.org/2000/svg" viewBox="0 0 86 102"><defs><style type="text/css">.skinbaseLight{opacity:0.4;isolation:isolate;}</style></defs><title>PDF-优化添加2</title><path class="skinbaseLight" d="M56.208,36.291A.994.994,0,0,0,55.5,36h-12V24a.993.993,0,0,0-.3-.709c-.312-.308-.706-.271-1.2-.124l-.121.036-.09.09A.991.991,0,0,0,41.5,24V36h-12a1,1,0,0,0-1,1,.983.983,0,0,0,.293.707A1,1,0,0,0,29.5,38h12V50a.983.983,0,0,0,.293.707A1,1,0,0,0,43.5,50V38h12a1,1,0,0,0,.7-1.709Z"/><path class="skinbaseLight" d="M25.136,73.461a23.357,23.357,0,0,1,.838,2.314l.9-.275q-.587-1.535-.9-2.227ZM46,66.676q-.949-.826-1.772-1.476l-.592.639q.961.8,1.711,1.541ZM23.329,73.361l-.85.17c.008.027.02.07.035.129q.463,1.559.615,2.209l.9-.193q-.147-.544-.621-2.068C23.368,73.49,23.343,73.408,23.329,73.361Zm5.437-.164-.838.311q.692,1.266,1.207,2.361l.85-.369q-.187-.4-1-1.9l-.217-.4Zm8.42-5.379h4.163v-.873H37.188V65.023h-.959v1.922h-4.15v.873h4.15v2.069h-4.9v.884h4.9v3.821H33.222V71.9h-.909v3.557h7.864v.65h.914V71.885h-.914v2.707H37.188V70.771h4.875v-.884H37.188ZM19.329,75.652l.838.393q.8-1.5,1.277-2.525l-.85-.281A21.864,21.864,0,0,1,19.329,75.652Zm42.252-9.234v9.416h.873V74.7H64.78v1.131h.891V66.418Zm3.2,7.435H62.454V67.279H64.78ZM28.921,68.58H24.978V67.168h4.951v-.861H24.978V65h-.909v3.58h-3.44V72.5H28.92Zm-.926,3.07H21.556V69.43H28Zm22.313.592q.381,1.049.9,2.807l.744-.275q-.427-1.359-.938-2.754Zm.873-3.228h2.713v-.785H49.8a9.424,9.424,0,0,0,.457-1.752H53.3v-.785H46.763v.785h2.6a7.181,7.181,0,0,1-.439,1.752h-2.74v.785H48.51a5.479,5.479,0,0,1-1.081,1.242A11.03,11.03,0,0,1,45.768,71.4a6.624,6.624,0,0,1,.516.75,12.388,12.388,0,0,0,1.963-1.523A6.6,6.6,0,0,0,49.46,69.01h.85A5.918,5.918,0,0,0,51.617,70.7a8.294,8.294,0,0,0,2.1,1.271c.023-.043.061-.117.111-.223q.194-.375.293-.586a6.711,6.711,0,0,1-1.711-.855A4.96,4.96,0,0,1,51.181,69.014Zm.691,3.006q.6,1.183,1.365,2.818l.727-.357q-.568-1.184-1.4-2.748ZM57.9,65.047h-.885q0,1.4-.018,2.033H55.51v.861h1.465c0,.051,0,.123-.006.217s-.006.158-.006.2a30.97,30.97,0,0,1-.246,3.088,8.913,8.913,0,0,1-.539,2.08,12.516,12.516,0,0,1-1.025,1.9q.421.393.691.662a10.866,10.866,0,0,0,1.137-2.045,10.432,10.432,0,0,0,.6-2.332,32.708,32.708,0,0,0,.268-3.311c0-.043,0-.113.006-.211s.012-.191.012-.246H59.5q0,3.938-.123,5.959a1.247,1.247,0,0,1-.226.773.917.917,0,0,1-.688.211c-.332,0-.688-.012-1.066-.035q.093.4.17.984.815,0,1.23-.023a1.429,1.429,0,0,0,1.075-.425,2.136,2.136,0,0,0,.39-1.286q.111-2.935.146-7.02H57.879Zm-8.888,9.545a.647.647,0,0,1-.138.46.6.6,0,0,1-.448.144q-.316,0-.949-.018c-.1,0-.172-.006-.223-.006q.135.457.223.861.827,0,1.207-.023a1.214,1.214,0,0,0,.908-.346,1.435,1.435,0,0,0,.258-.949v-4.1h-.838ZM43.5,75.758l.926.287q.335-1.6.961-4.271a7.327,7.327,0,0,1-.867-.3Q44.09,73.655,43.5,75.758Zm.369-7.571-.58.68q.814.627,1.752,1.488l.615-.738q-.117-.093-.34-.275Q44.367,68.568,43.868,68.187Zm3.486,3.7A15.751,15.751,0,0,1,46.071,74.5a5.847,5.847,0,0,1,.738.434,27.778,27.778,0,0,0,1.318-2.76Z"/><path class="skinbaseLight" d="M83.562,102H80.523v-1h2.988v.5l.109.484Zm-5.03,0H75.543v-1h2.988Zm-4.98,0H70.563v-1h2.988Zm-4.98,0H65.582v-1H68.57Zm-4.98,0H60.6v-1H63.59Zm-4.98,0H55.621v-1h2.988Zm-4.98,0H50.641v-1h2.988Zm-4.979,0H45.661v-1h2.988Zm-4.98,0H40.681v-1h2.988Zm-4.98,0H35.7v-1h2.988Zm-4.98,0H30.72v-1h2.988Zm-4.98,0H25.739v-1h2.988Zm-4.98,0H20.759v-1h2.988Zm-4.98,0H15.778v-1h2.988Zm-4.98,0H10.8v-1h2.988Zm-4.98,0H5.817v-1H8.806Zm-4.98,0H2.5a2.5,2.5,0,0,1-1.847-.815l.738-.674A1.506,1.506,0,0,0,2.5,101H3.825Zm81.781-1.152-.842-.539A1.491,1.491,0,0,0,85,99.5V97.65h1V99.5A2.487,2.487,0,0,1,85.606,100.848ZM1,98.988H0V96H1Zm85-3.33H85V92.67h1ZM1,94.008H0V91.02H1Zm85-3.329H85V87.69h1ZM1,89.027H0V86.039H1ZM86,85.7H85V82.71h1ZM1,84.047H0V81.059H1Zm85-3.329H85V77.729h1ZM1,79.066H0V76.078H1Zm85-3.329H85V72.749h1ZM1,74.086H0V71.1H1Zm85-3.329H85V67.769h1ZM1,69.105H0V66.117H1Zm85-3.329H85V62.788h1ZM1,64.125H0V61.137H1ZM86,60.8H85V57.808h1ZM1,59.145H0V56.157H1Zm85-3.329H85V52.827h1ZM1,54.165H0V51.177H1Zm85-3.33H85V47.847h1ZM1,49.185H0V46.2H1Zm85-3.33H85V42.866h1ZM1,44.2H0V41.216H1Zm85-3.33H85V37.887h1ZM1,39.224H0V36.235H1Zm85-3.329H85V32.906h1ZM1,34.243H0V31.255H1Zm85-3.329H85V27.926h1ZM1,29.263H0V26.274H1Zm85-3.329H85V22.945h1ZM1,24.282H0V21.294H1Zm85-3.329H85V17.965h1ZM1,19.3H0V16.313H1Zm85-3.329H85V12.984h1ZM1,14.321H0V11.333H1Zm85-3.329H85V8h1ZM1,9.341H0V6.353H1ZM86,6.012H85V3.023h1ZM1,4.36H0V2.5A2.5,2.5,0,0,1,.386,1.165l.846.533A1.5,1.5,0,0,0,1,2.5ZM84.613,1.5A1.5,1.5,0,0,0,83.5,1H82.186V0H83.5a2.505,2.505,0,0,1,1.855.825ZM80.194,1H77.206V0h2.988Zm-4.98,0H72.226V0h2.988Zm-4.98,0H67.245V0h2.988Zm-4.98,0H62.265V0h2.988Zm-4.98,0H57.284V0h2.988Zm-4.98,0H52.3V0h2.988Zm-4.98,0H47.323V0h2.988Zm-4.98,0H42.343V0h2.988Zm-4.98,0H37.362V0h2.988ZM35.37,1H32.382V0H35.37ZM30.39,1H27.4V0H30.39ZM25.41,1H22.422V0H25.41ZM20.43,1H17.441V0H20.43Zm-4.98,0H12.461V0h2.988Zm-4.98,0H7.48V0h2.988ZM5.488,1H2.5L2.478,0H5.488Z"/></svg>