<svg viewBox="0 0 16 16" fill="none" xmlns="http://www.w3.org/2000/svg">
<path opacity="0.2" d="M4 1C1.79086 1 0 2.79086 0 5V14.5C0 14.7761 0.223858 15 0.5 15H15.5C15.7761 15 16 14.7761 16 14.5V5C16 2.79086 14.2091 1 12 1H4Z" fill="#4F87FE"/>
<path fill-rule="evenodd" clip-rule="evenodd" d="M1 14V5C1 3.34315 2.34315 2 4 2H12C13.6569 2 15 3.34315 15 5V14H1ZM0 5C0 2.79086 1.79086 1 4 1H12C14.2091 1 16 2.79086 16 5V14.5C16 14.7761 15.7761 15 15.5 15H0.5C0.223858 15 0 14.7761 0 14.5V5Z" fill="#3B64FC"/>
</svg>
