<svg viewBox="0 0 16 16" fill="none" xmlns="http://www.w3.org/2000/svg">
<path opacity="0.2" d="M0 1.5C0 1.22386 0.223858 1 0.5 1H9.79289C9.9255 1 10.0527 1.05268 10.1464 1.14645L15.8536 6.85355C15.9473 6.94732 16 7.0745 16 7.20711V15.5C16 15.7761 15.7761 16 15.5 16H6.20711C6.0745 16 5.94732 15.9473 5.85355 15.8536L0.146446 10.1464C0.0526783 10.0527 0 9.9255 0 9.79289V1.5Z" fill="#4F87FE"/>
<path fill-rule="evenodd" clip-rule="evenodd" d="M1 2V9.58579L6.41421 15H15V7.41421L9.58579 2H1ZM0.5 1C0.223858 1 0 1.22386 0 1.5V9.79289C0 9.9255 0.0526783 10.0527 0.146446 10.1464L5.85355 15.8536C5.94732 15.9473 6.0745 16 6.20711 16H15.5C15.7761 16 16 15.7761 16 15.5V7.20711C16 7.0745 15.9473 6.94732 15.8536 6.85355L10.1464 1.14645C10.0527 1.05268 9.9255 1 9.79289 1H0.5Z" fill="#3B64FC"/>
</svg>
