<svg viewBox="0 0 16 16" fill="none" xmlns="http://www.w3.org/2000/svg">
<path opacity="0.2" d="M10.7929 1C10.9255 1 11.0527 1.05268 11.1464 1.14645L15.8536 5.85355C15.9473 5.94732 16 6.0745 16 6.20711V14.5C16 14.7761 15.7761 15 15.5 15H0.5C0.223858 15 0 14.7761 0 14.5V5C0 2.79086 1.79086 1 4 1H10.7929Z" fill="#4F87FE"/>
<path fill-rule="evenodd" clip-rule="evenodd" d="M15 14V6.41421L10.5858 2H4C2.34315 2 1 3.34315 1 5V14H15ZM11.1464 1.14645C11.0527 1.05268 10.9255 1 10.7929 1H4C1.79086 1 0 2.79086 0 5V14.5C0 14.7761 0.223858 15 0.5 15H15.5C15.7761 15 16 14.7761 16 14.5V6.20711C16 6.0745 15.9473 5.94732 15.8536 5.85355L11.1464 1.14645Z" fill="#3B64FC"/>
</svg>
