<svg viewBox="0 0 16 16" fill="none" xmlns="http://www.w3.org/2000/svg">
<path opacity="0.2" fill-rule="evenodd" clip-rule="evenodd" d="M0.0690504 8.255C0.0238508 8.17781 0 8.08973 0 8C0 7.91027 0.0238508 7.82219 0.0690504 7.745L3.87156 1.245C3.91527 1.17036 3.97741 1.10852 4.05187 1.06557C4.12633 1.02261 4.21056 1.00002 4.29626 1H11.7037C11.7894 1.00002 11.8737 1.02261 11.9481 1.06557C12.0226 1.10852 12.0847 1.17036 12.1284 1.245L15.931 7.745C15.9762 7.82219 16 7.91027 16 8C16 8.08973 15.9762 8.17781 15.931 8.255L12.1284 14.755C12.0847 14.8296 12.0226 14.8915 11.9481 14.9344C11.8737 14.9774 11.7894 15 11.7037 15H4.29626C4.21056 15 4.12633 14.9774 4.05187 14.9344C3.97741 14.8915 3.91527 14.8296 3.87156 14.755L0.0690504 8.255Z" fill="#4F87FE"/>
<path fill-rule="evenodd" clip-rule="evenodd" d="M0.0690504 8.255L3.87156 14.755C3.91527 14.8296 3.97741 14.8915 4.05187 14.9344C4.12633 14.9774 4.21056 15 4.29626 15H11.7037C11.7894 15 11.8737 14.9774 11.9481 14.9344C12.0226 14.8915 12.0847 14.8296 12.1284 14.755L15.931 8.255C15.9762 8.17781 16 8.08973 16 8C16 7.91027 15.9762 7.82219 15.931 7.745L12.1284 1.245C12.0847 1.17036 12.0226 1.10852 11.9481 1.06557C11.8737 1.02261 11.7894 1.00002 11.7037 1H4.29626C4.21056 1.00002 4.12633 1.02261 4.05187 1.06557C3.97741 1.10852 3.91527 1.17036 3.87156 1.245L0.0690504 7.745C0.0238508 7.82219 0 7.91027 0 8C0 8.08973 0.0238508 8.17781 0.0690504 8.255ZM4.58843 2L1.07842 8L4.58843 14H11.4116L14.9216 8L11.4116 2H4.58843ZM0.931981 8.25032L0.932202 8.24994Z" fill="#3B64FC"/>
<path fill-rule="evenodd" clip-rule="evenodd" d="M7.50603 10H7.0122V5.5C7.01217 5.40119 6.98324 5.30459 6.92903 5.22242C6.87483 5.14024 6.79779 5.07617 6.70765 5.0383C6.61751 5.00042 6.51831 4.99044 6.42256 5.0096C6.32682 5.02877 6.23884 5.07624 6.16972 5.146L5.18205 6.146C5.0921 6.2403 5.04232 6.3666 5.04345 6.4977C5.04457 6.6288 5.09651 6.75421 5.18807 6.84691C5.27963 6.93961 5.40349 6.9922 5.53297 6.99334C5.66245 6.99448 5.78719 6.94408 5.88033 6.853L6.02453 6.707V10H5.5307C5.39973 10 5.27412 10.0527 5.18151 10.1464C5.08889 10.2402 5.03687 10.3674 5.03687 10.5C5.03687 10.6326 5.08889 10.7598 5.18151 10.8536C5.27412 10.9473 5.39973 11 5.5307 11H7.50603C7.637 11 7.76261 10.9473 7.85522 10.8536C7.94783 10.7598 7.99986 10.6326 7.99986 10.5C7.99986 10.6326 8.05189 10.7598 8.1445 10.8536C8.23711 10.9473 8.36272 11 8.49369 11H10.469C10.6 11 10.7256 10.9473 10.8182 10.8536C10.9108 10.7598 10.9629 10.6326 10.9629 10.5C10.9629 10.3674 10.9108 10.2402 10.8182 10.1464C10.7256 10.0527 10.6 10 10.469 10H9.15444L10.3396 8.651C10.7413 8.19328 10.963 7.60225 10.9629 6.99V6.5C10.9629 6.10218 10.8068 5.72064 10.5289 5.43934C10.2511 5.15804 9.87428 5 9.48136 5C9.08844 5 8.71161 5.15804 8.43378 5.43934C8.15595 5.72064 7.99986 6.10218 7.99986 6.5V6.75C7.99986 6.88261 8.05189 7.00979 8.1445 7.10355C8.23711 7.19732 8.36272 7.25 8.49369 7.25C8.62467 7.25 8.75027 7.19732 8.84289 7.10355C8.9355 7.00979 8.98753 6.88261 8.98753 6.75V6.5C8.98753 6.36739 9.03955 6.24021 9.13217 6.14645C9.22478 6.05268 9.35039 6 9.48136 6C9.61233 6 9.73794 6.05268 9.83055 6.14645C9.92316 6.24021 9.97519 6.36739 9.97519 6.5V6.98C9.976 7.34858 9.84275 7.70455 9.60087 7.98L8.37419 9.38C8.1323 9.65545 7.99905 10.0114 7.99986 10.38V10.5C7.99986 10.3674 7.94783 10.2402 7.85522 10.1464C7.76261 10.0527 7.637 10 7.50603 10Z" fill="#2453DE"/>
</svg>
