<svg viewBox="0 0 16 16" fill="none" xmlns="http://www.w3.org/2000/svg">
<g clip-path="url(#clip0_2461_29536)">
<path opacity="0.2" d="M-0.0299407 8.255C-0.0757048 8.17781 -0.0998535 8.08973 -0.0998535 8C-0.0998535 7.91027 -0.0757048 7.82219 -0.0299407 7.745L3.82006 1.245C3.86431 1.17036 3.92723 1.10852 4.00262 1.06557C4.07801 1.02261 4.16329 1.00002 4.25006 1H11.7501C11.8368 1.00002 11.9221 1.02261 11.9975 1.06557C12.0729 1.10852 12.1358 1.17036 12.1801 1.245L16.0301 7.745C16.0758 7.82219 16.1 7.91027 16.1 8C16.1 8.08973 16.0758 8.17781 16.0301 8.255L12.1801 14.755C12.1358 14.8296 12.0729 14.8915 11.9975 14.9344C11.9221 14.9774 11.8368 15 11.7501 15H4.25006C4.16329 15 4.07801 14.9774 4.00262 14.9344C3.92723 14.8915 3.86431 14.8296 3.82006 14.755L-0.0299407 8.255Z" fill="#4F87FE"/>
<path d="M-0.0299407 8.255C-0.0757048 8.17781 -0.0998535 8.08973 -0.0998535 8C-0.0998535 7.91027 -0.0757048 7.82219 -0.0299407 7.745L3.82006 1.245C3.86431 1.17036 3.92723 1.10852 4.00262 1.06557C4.07801 1.02261 4.16329 1.00002 4.25006 1H11.7501C11.8368 1.00002 11.9221 1.02261 11.9975 1.06557C12.0729 1.10852 12.1358 1.17036 12.1801 1.245L16.0301 7.745C16.0758 7.82219 16.1 7.91027 16.1 8C16.1 8.08973 16.0758 8.17781 16.0301 8.255L12.1801 14.755C12.1358 14.8296 12.0729 14.8915 11.9975 14.9344C11.9221 14.9774 11.8368 15 11.7501 15H4.25006C4.16329 15 4.07801 14.9774 4.00262 14.9344C3.92723 14.8915 3.86431 14.8296 3.82006 14.755L-0.0299407 8.255ZM0.981059 8L4.53506 14H11.4651L15.0191 8L11.4651 2H4.53506L0.981059 8Z" fill="#3B64FC"/>
</g>
<defs>
<clipPath id="clip0_2461_29536">
<rect width="16" height="16" fill="white"/>
</clipPath>
</defs>
</svg>
