<svg viewBox="0 0 16 16" fill="none" xmlns="http://www.w3.org/2000/svg">
<path opacity="0.2" fill-rule="evenodd" clip-rule="evenodd" d="M0.0690504 8.255C0.0238508 8.17781 0 8.08973 0 8C0 7.91027 0.0238508 7.82219 0.0690504 7.745L3.87156 1.245C3.91527 1.17036 3.97741 1.10852 4.05187 1.06557C4.12633 1.02261 4.21056 1.00002 4.29626 1H11.7037C11.7894 1.00002 11.8737 1.02261 11.9481 1.06557C12.0226 1.10852 12.0847 1.17036 12.1284 1.245L15.931 7.745C15.9762 7.82219 16 7.91027 16 8C16 8.08973 15.9762 8.17781 15.931 8.255L12.1284 14.755C12.0847 14.8296 12.0226 14.8915 11.9481 14.9344C11.8737 14.9774 11.7894 15 11.7037 15H4.29626C4.21056 15 4.12633 14.9774 4.05187 14.9344C3.97741 14.8915 3.91527 14.8296 3.87156 14.755L0.0690504 8.255Z" fill="#4F87FE"/>
<path fill-rule="evenodd" clip-rule="evenodd" d="M0.0690504 8.255L3.87156 14.755C3.91527 14.8296 3.97741 14.8915 4.05187 14.9344C4.12633 14.9774 4.21056 15 4.29626 15H11.7037C11.7894 15 11.8737 14.9774 11.9481 14.9344C12.0226 14.8915 12.0847 14.8296 12.1284 14.755L15.931 8.255C15.9762 8.17781 16 8.08973 16 8C16 7.91027 15.9762 7.82219 15.931 7.745L12.1284 1.245C12.0847 1.17036 12.0226 1.10852 11.9481 1.06557C11.8737 1.02261 11.7894 1.00002 11.7037 1H4.29626C4.21056 1.00002 4.12633 1.02261 4.05187 1.06557C3.97741 1.10852 3.91527 1.17036 3.87156 1.245L0.0690504 7.745C0.0238508 7.82219 0 7.91027 0 8C0 8.08973 0.0238508 8.17781 0.0690504 8.255ZM4.58843 2L1.07842 8L4.58843 14H11.4116L14.9216 8L11.4116 2H4.58843ZM0.931981 8.25032L0.932202 8.24994Z" fill="#3B64FC"/>
<path fill-rule="evenodd" clip-rule="evenodd" d="M7.0122 10H7.50603C7.637 10 7.76261 10.0527 7.85522 10.1464C7.94783 10.2402 7.99986 10.3674 7.99986 10.5C7.99986 10.6326 7.94783 10.7598 7.85522 10.8536C7.76261 10.9473 7.637 11 7.50603 11H5.5307C5.39973 11 5.27412 10.9473 5.18151 10.8536C5.08889 10.7598 5.03687 10.6326 5.03687 10.5C5.03687 10.3674 5.08889 10.2402 5.18151 10.1464C5.27412 10.0527 5.39973 10 5.5307 10H6.02453V6.707L5.88033 6.853C5.78719 6.94408 5.66245 6.99448 5.53297 6.99334C5.40349 6.9922 5.27963 6.93961 5.18807 6.84691C5.09651 6.75421 5.04457 6.6288 5.04345 6.4977C5.04232 6.3666 5.0921 6.2403 5.18205 6.146L6.16972 5.146C6.23884 5.07624 6.32682 5.02877 6.42256 5.0096C6.51831 4.99044 6.61751 5.00042 6.70765 5.0383C6.79779 5.07617 6.87483 5.14024 6.92903 5.22242C6.98324 5.30459 7.01217 5.40119 7.0122 5.5V10ZM9.48136 5C9.87428 5 10.2511 5.15804 10.5289 5.43934C10.8068 5.72064 10.9629 6.10218 10.9629 6.5V9.5C10.9629 9.89782 10.8068 10.2794 10.5289 10.5607C10.2511 10.842 9.87428 11 9.48136 11C9.08844 11 8.71161 10.842 8.43378 10.5607C8.15595 10.2794 7.99986 9.89782 7.99986 9.5V6.5C7.99986 6.10218 8.15595 5.72064 8.43378 5.43934C8.71161 5.15804 9.08844 5 9.48136 5ZM9.48138 6C9.35041 6 9.2248 6.05268 9.13219 6.14645C9.03958 6.24021 8.98755 6.36739 8.98755 6.5V9.5C8.98755 9.63261 9.03958 9.75979 9.13219 9.85355C9.2248 9.94732 9.35041 10 9.48138 10C9.61235 10 9.73796 9.94732 9.83057 9.85355C9.92319 9.75979 9.97521 9.63261 9.97521 9.5V6.5C9.97521 6.36739 9.92319 6.24021 9.83057 6.14645C9.73796 6.05268 9.61235 6 9.48138 6Z" fill="#2453DE"/>
</svg>
