<svg viewBox="0 0 16 16" fill="none" xmlns="http://www.w3.org/2000/svg">
<path opacity="0.2" d="M3 1.5C3 1.36739 3.05268 1.24021 3.14645 1.14645C3.24021 1.05268 3.36739 1 3.5 1H12.5C12.6326 1 12.7598 1.05268 12.8536 1.14645C12.9473 1.24021 13 1.36739 13 1.5V2.5C13 2.89782 13.158 3.27936 13.4393 3.56066C13.7206 3.84196 14.1022 4 14.5 4H15.5C15.6326 4 15.7598 4.05268 15.8536 4.14645C15.9473 4.24021 16 4.36739 16 4.5V11.5C16 11.6326 15.9473 11.7598 15.8536 11.8536C15.7598 11.9473 15.6326 12 15.5 12H14.5C14.1022 12 13.7206 12.158 13.4393 12.4393C13.158 12.7206 13 13.1022 13 13.5V14.5C13 14.6326 12.9473 14.7598 12.8536 14.8536C12.7598 14.9473 12.6326 15 12.5 15H3.5C3.36739 15 3.24021 14.9473 3.14645 14.8536C3.05268 14.7598 3 14.6326 3 14.5V13.5C3 13.1022 2.84196 12.7206 2.56066 12.4393C2.27936 12.158 1.89782 12 1.5 12H0.5C0.367392 12 0.240215 11.9473 0.146447 11.8536C0.0526784 11.7598 0 11.6326 0 11.5V4.5C0 4.36739 0.0526784 4.24021 0.146447 4.14645C0.240215 4.05268 0.367392 4 0.5 4H1.5C1.89782 4 2.27936 3.84196 2.56066 3.56066C2.84196 3.27936 3 2.89782 3 2.5V1.5Z" fill="#4F87FE"/>
<path d="M3 1.5C3 1.36739 3.05268 1.24021 3.14645 1.14645C3.24021 1.05268 3.36739 1 3.5 1H12.5C12.6326 1 12.7598 1.05268 12.8536 1.14645C12.9473 1.24021 13 1.36739 13 1.5V2.5C13 2.89782 13.158 3.27936 13.4393 3.56066C13.7206 3.84196 14.1022 4 14.5 4H15.5C15.6326 4 15.7598 4.05268 15.8536 4.14645C15.9473 4.24021 16 4.36739 16 4.5V11.5C16 11.6326 15.9473 11.7598 15.8536 11.8536C15.7598 11.9473 15.6326 12 15.5 12H14.5C14.1022 12 13.7206 12.158 13.4393 12.4393C13.158 12.7206 13 13.1022 13 13.5V14.5C13 14.6326 12.9473 14.7598 12.8536 14.8536C12.7598 14.9473 12.6326 15 12.5 15H3.5C3.36739 15 3.24021 14.9473 3.14645 14.8536C3.05268 14.7598 3 14.6326 3 14.5V13.5C3 13.1022 2.84196 12.7206 2.56066 12.4393C2.27936 12.158 1.89782 12 1.5 12H0.5C0.367392 12 0.240215 11.9473 0.146447 11.8536C0.0526784 11.7598 0 11.6326 0 11.5V4.5C0 4.36739 0.0526784 4.24021 0.146447 4.14645C0.240215 4.05268 0.367392 4 0.5 4H1.5C1.89782 4 2.27936 3.84196 2.56066 3.56066C2.84196 3.27936 3 2.89782 3 2.5V1.5ZM4 2V2.5C4 3.16304 3.73661 3.79893 3.26777 4.26777C2.79893 4.73661 2.16304 5 1.5 5H1V11H1.5C2.16304 11 2.79893 11.2634 3.26777 11.7322C3.73661 12.2011 4 12.837 4 13.5V14H12V13.5C12 12.837 12.2634 12.2011 12.7322 11.7322C13.2011 11.2634 13.837 11 14.5 11H15V5H14.5C13.837 5 13.2011 4.73661 12.7322 4.26777C12.2634 3.79893 12 3.16304 12 2.5V2H4Z" fill="#3B64FC"/>
</svg>
