<svg viewBox="0 0 16 16" fill="none" xmlns="http://www.w3.org/2000/svg">
<g clip-path="url(#clip0_2461_29595)">
<path opacity="0.2" d="M13.308 1.2579C13.3902 1.31055 13.4552 1.3861 13.4949 1.47524C13.5347 1.56438 13.5475 1.66321 13.5318 1.75954C13.516 1.85587 13.4724 1.94549 13.4064 2.01735C13.3403 2.0892 13.2547 2.14014 13.16 2.1639C11.8875 2.48255 10.7707 3.24554 10.0113 4.31518C9.25189 5.38483 8.8998 6.69069 9.01856 7.99712C9.13733 9.30355 9.71913 10.5245 10.659 11.4397C11.5989 12.3548 12.8349 12.9039 14.144 12.9879C14.2415 12.9941 14.3351 13.0287 14.4132 13.0875C14.4912 13.1463 14.5503 13.2267 14.5832 13.3187C14.6161 13.4107 14.6213 13.5104 14.5981 13.6053C14.575 13.7002 14.5245 13.7863 14.453 13.8529C13.3577 14.872 11.9986 15.5636 10.53 15.8491C9.06145 16.1346 7.54224 16.0025 6.14493 15.468C4.74761 14.9334 3.5282 14.0177 2.62516 12.8249C1.72212 11.6321 1.17165 10.21 1.03625 8.72009C0.900855 7.23016 1.18597 5.73211 1.8592 4.39608C2.53244 3.06004 3.56682 1.93956 4.84489 1.16187C6.12295 0.384187 7.59348 -0.019534 9.08946 -0.00344339C10.5855 0.0126472 12.047 0.447905 13.308 1.2529V1.2579Z" fill="#4F87FE"/>
<path d="M13.308 1.2579C13.3902 1.31055 13.4552 1.3861 13.4949 1.47524C13.5347 1.56438 13.5475 1.66321 13.5318 1.75954C13.516 1.85587 13.4724 1.94549 13.4064 2.01735C13.3403 2.0892 13.2547 2.14014 13.16 2.1639C11.8875 2.48255 10.7707 3.24554 10.0113 4.31518C9.25189 5.38483 8.8998 6.69069 9.01856 7.99712C9.13733 9.30355 9.71913 10.5245 10.659 11.4397C11.5989 12.3548 12.8349 12.9039 14.144 12.9879C14.2415 12.9941 14.3351 13.0287 14.4132 13.0875C14.4912 13.1463 14.5503 13.2267 14.5832 13.3187C14.6161 13.4107 14.6213 13.5104 14.5981 13.6053C14.575 13.7002 14.5245 13.7863 14.453 13.8529C13.3577 14.872 11.9986 15.5636 10.53 15.8491C9.06145 16.1346 7.54224 16.0025 6.14493 15.468C4.74761 14.9334 3.5282 14.0177 2.62516 12.8249C1.72212 11.6321 1.17165 10.21 1.03625 8.72009C0.900855 7.23016 1.18597 5.73211 1.8592 4.39608C2.53244 3.06004 3.56682 1.93956 4.84489 1.16187C6.12295 0.384187 7.59348 -0.019534 9.08946 -0.00344339C10.5855 0.0126472 12.047 0.447905 13.308 1.2529V1.2579ZM8.99999 0.9999C7.90583 1.00009 6.82694 1.25678 5.84992 1.74936C4.8729 2.24193 4.02495 2.95669 3.37414 3.83625C2.72332 4.71582 2.28775 5.73571 2.10239 6.81406C1.91704 7.89241 1.98705 8.9992 2.30681 10.0456C2.62657 11.092 3.18718 12.0489 3.94365 12.8394C4.70011 13.63 5.63136 14.2322 6.66266 14.5977C7.69397 14.9633 8.7966 15.0819 9.88207 14.9443C10.9675 14.8066 12.0056 14.4163 12.913 13.8049C11.6054 13.4772 10.432 12.7511 9.55529 11.7271C8.67859 10.7031 8.14195 9.43185 8.01969 8.08936C7.89743 6.74688 8.19558 5.3996 8.87287 4.23405C9.55017 3.06851 10.5731 2.14238 11.8 1.5839C10.917 1.19796 9.96364 0.999112 8.99999 0.9999Z" fill="#3B64FC"/>
</g>
<defs>
<clipPath id="clip0_2461_29595">
<rect width="16" height="16" fill="white"/>
</clipPath>
</defs>
</svg>
