<svg viewBox="0 0 16 16" fill="none" xmlns="http://www.w3.org/2000/svg">
<path d="M1.5 2C4.81521 2 7.99463 3.31696 10.3388 5.66117C12.683 8.00537 14 11.1848 14 14.5C14 14.6326 14.0527 14.7598 14.1464 14.8536C14.2402 14.9473 14.3674 15 14.5 15C14.6326 15 14.7598 14.9473 14.8536 14.8536C14.9473 14.7598 15 14.6326 15 14.5C15 12.7272 14.6508 10.9717 13.9724 9.33377C13.2939 7.69588 12.2995 6.20765 11.0459 4.95406C9.79235 3.70047 8.30412 2.70606 6.66623 2.02763C5.02833 1.34919 3.27285 1 1.5 1C1.36739 1 1.24021 1.05268 1.14645 1.14645C1.05268 1.24021 1 1.36739 1 1.5C1 1.63261 1.05268 1.75979 1.14645 1.85355C1.24021 1.94732 1.36739 2 1.5 2Z" fill="#3B64FC"/>
</svg>
