<svg viewBox="0 0 16 16" fill="none" xmlns="http://www.w3.org/2000/svg">
<g clip-path="url(#clip0_2461_29526)">
<path opacity="0.2" d="M1 0.499918C0.999824 0.400898 1.02905 0.304054 1.08398 0.221665C1.13891 0.139276 1.21706 0.0750515 1.30854 0.0371339C1.40001 -0.000783589 1.50068 -0.0106867 1.59779 0.00868009C1.6949 0.0280469 1.78407 0.0758114 1.854 0.145918L15.854 14.1459C15.9241 14.2158 15.9719 14.305 15.9912 14.4021C16.0106 14.4992 16.0007 14.5999 15.9628 14.6914C15.9249 14.7829 15.8606 14.861 15.7783 14.9159C15.6959 14.9709 15.599 15.0001 15.5 14.9999H1.5C1.36739 14.9999 1.24022 14.9472 1.14645 14.8535C1.05268 14.7597 1 14.6325 1 14.4999V0.499918Z" fill="#4F87FE"/>
<path d="M1 0.499918C0.999824 0.400898 1.02905 0.304054 1.08398 0.221665C1.13891 0.139276 1.21706 0.0750515 1.30854 0.0371339C1.40001 -0.000783589 1.50068 -0.0106867 1.59779 0.00868009C1.6949 0.0280469 1.78407 0.0758114 1.854 0.145918L15.854 14.1459C15.9241 14.2158 15.9719 14.305 15.9912 14.4021C16.0106 14.4992 16.0007 14.5999 15.9628 14.6914C15.9249 14.7829 15.8606 14.861 15.7783 14.9159C15.6959 14.9709 15.599 15.0001 15.5 14.9999H1.5C1.36739 14.9999 1.24022 14.9472 1.14645 14.8535C1.05268 14.7597 1 14.6325 1 14.4999V0.499918ZM2 1.70692V13.9999H14.293L2 1.70692Z" fill="#3B64FC"/>
</g>
<defs>
<clipPath id="clip0_2461_29526">
<rect width="16" height="16" fill="white"/>
</clipPath>
</defs>
</svg>
