<svg viewBox="0 0 16 16" fill="none" xmlns="http://www.w3.org/2000/svg">
<g clip-path="url(#clip0_2461_29528)">
<path opacity="0.2" d="M4.02991 2.329C4.06501 2.23255 4.12894 2.14924 4.21303 2.09038C4.29711 2.03153 4.39727 1.99997 4.49991 2H15.4999C15.5803 1.99998 15.6595 2.01934 15.7308 2.05644C15.8021 2.09355 15.8635 2.1473 15.9096 2.21315C15.9557 2.27899 15.9853 2.35499 15.9958 2.43469C16.0063 2.5144 15.9974 2.59546 15.9699 2.671L11.9699 13.671C11.9348 13.7674 11.8709 13.8508 11.7868 13.9096C11.7027 13.9685 11.6025 14 11.4999 14H0.499906C0.419514 14 0.340301 13.9807 0.268984 13.9436C0.197667 13.9065 0.136348 13.8527 0.090226 13.7869C0.0441044 13.721 0.01454 13.645 0.00403947 13.5653C-0.00646107 13.4856 0.00241186 13.4045 0.029906 13.329L4.02991 2.329Z" fill="#4F87FE"/>
<path d="M4.02991 2.329C4.06501 2.23255 4.12894 2.14924 4.21303 2.09038C4.29711 2.03153 4.39727 1.99997 4.49991 2H15.4999C15.5803 1.99998 15.6595 2.01934 15.7308 2.05644C15.8021 2.09355 15.8635 2.1473 15.9096 2.21315C15.9557 2.27899 15.9853 2.35499 15.9958 2.43469C16.0063 2.5144 15.9974 2.59546 15.9699 2.671L11.9699 13.671C11.9348 13.7674 11.8709 13.8508 11.7868 13.9096C11.7027 13.9685 11.6025 14 11.4999 14H0.499906C0.419514 14 0.340301 13.9807 0.268984 13.9436C0.197667 13.9065 0.136348 13.8527 0.090226 13.7869C0.0441044 13.721 0.01454 13.645 0.00403947 13.5653C-0.00646107 13.4856 0.00241186 13.4045 0.029906 13.329L4.02991 2.329ZM4.84991 3L1.21391 13H11.1499L14.7859 3H4.84991Z" fill="#3B64FC"/>
</g>
<defs>
<clipPath id="clip0_2461_29528">
<rect width="16" height="16" fill="white"/>
</clipPath>
</defs>
</svg>
