<svg viewBox="0 0 16 16" fill="none" xmlns="http://www.w3.org/2000/svg">
<g clip-path="url(#clip0_2461_29532)">
<path opacity="0.2" d="M7.14591 1.1459C7.23967 1.05217 7.36682 0.999512 7.4994 0.999512C7.63199 0.999512 7.75914 1.05217 7.85291 1.1459L14.8529 8.14591C14.9466 8.23967 14.9993 8.36682 14.9993 8.49941C14.9993 8.63199 14.9466 8.75914 14.8529 8.8529L7.85291 15.8529C7.75914 15.9466 7.63199 15.9993 7.4994 15.9993C7.36682 15.9993 7.23967 15.9466 7.14591 15.8529L0.145905 8.8529C0.0521694 8.75914 -0.000488281 8.63199 -0.000488281 8.49941C-0.000488281 8.36682 0.0521694 8.23967 0.145905 8.14591L7.14591 1.1459Z" fill="#4F87FE"/>
<path d="M7.14591 1.1459C7.23967 1.05217 7.36682 0.999512 7.4994 0.999512C7.63199 0.999512 7.75914 1.05217 7.85291 1.1459L14.8529 8.14591C14.9466 8.23967 14.9993 8.36682 14.9993 8.49941C14.9993 8.63199 14.9466 8.75914 14.8529 8.8529L7.85291 15.8529C7.75914 15.9466 7.63199 15.9993 7.4994 15.9993C7.36682 15.9993 7.23967 15.9466 7.14591 15.8529L0.145905 8.8529C0.0521694 8.75914 -0.000488281 8.63199 -0.000488281 8.49941C-0.000488281 8.36682 0.0521694 8.23967 0.145905 8.14591L7.14591 1.1459ZM7.49991 2.2069L1.20691 8.49991L7.49991 14.7929L13.7929 8.49991L7.49991 2.2069Z" fill="#3B64FC"/>
</g>
<defs>
<clipPath id="clip0_2461_29532">
<rect width="16" height="16" fill="white"/>
</clipPath>
</defs>
</svg>
