<svg viewBox="0 0 16 16" fill="none" xmlns="http://www.w3.org/2000/svg">
<g clip-path="url(#clip0_2461_29744)">
<path d="M8.49999 15.9998C12.74 15.9998 16 14.3698 16 11.9998C16 9.68576 12.5 8.55276 8.44499 8.99976C6.41753 9.20172 4.49601 10.0024 2.92499 11.2998C2.91571 10.7431 3.01559 10.19 3.21899 9.67176C3.85299 7.98176 5.54499 6.99976 8.58199 6.49276C11.637 5.98376 13 4.89376 13 2.99976C13 1.19976 11.281 -0.000243593 8.99999 -0.000243593C8.06595 -0.0592929 7.13159 0.110186 6.2778 0.493522C5.424 0.876858 4.6765 1.4625 4.09999 2.19976C4.06059 2.25229 4.03192 2.31206 4.01563 2.37567C3.99933 2.43927 3.99572 2.50547 4.00501 2.57047C4.0143 2.63547 4.03629 2.698 4.06975 2.7545C4.1032 2.811 4.14746 2.86036 4.19999 2.89976C4.25251 2.93915 4.31229 2.96782 4.37589 2.98411C4.4395 3.00041 4.50569 3.00402 4.5707 2.99473C4.6357 2.98545 4.69823 2.96345 4.75473 2.92999C4.81123 2.89654 4.86059 2.85229 4.89999 2.79976C5.38413 2.18738 6.01107 1.70306 6.72586 1.38925C7.44066 1.07544 8.2215 0.941703 8.99999 0.999756C10.79 0.999756 12 1.84676 12 2.99976C12 4.30576 11.047 5.06876 8.41799 5.50676C5.06599 6.06576 3.06899 7.22476 2.28199 9.32476C1.91672 10.2246 1.82556 11.2123 2.01999 12.1638C1.17102 13.0832 0.498486 14.1509 0.0359854 15.3138C-0.00798493 15.4357 -0.00286793 15.57 0.0502571 15.6882C0.103382 15.8065 0.200361 15.8995 0.320739 15.9476C0.441116 15.9957 0.575479 15.9952 0.695487 15.9462C0.815494 15.8971 0.911762 15.8034 0.963985 15.6848C1.31923 14.7922 1.81148 13.9606 2.42299 13.2198C3.36399 14.9188 5.55499 15.9998 8.49999 15.9998ZM8.55499 9.99976C12.077 9.60576 15 10.5508 15 11.9998C15 13.6288 12.259 14.9998 8.49999 14.9998C5.71699 14.9998 3.80599 13.9908 3.16199 12.4308C4.64342 11.0494 6.53891 10.195 8.55499 9.99976Z" fill="#3B64FC"/>
</g>
<defs>
<clipPath id="clip0_2461_29744">
<rect width="16" height="16" fill="white"/>
</clipPath>
</defs>
</svg>
