<svg viewBox="0 0 16 16" fill="none" xmlns="http://www.w3.org/2000/svg">
<path d="M14 11.5002C14 11.3676 14.0526 11.2404 14.1464 11.1466C14.2402 11.0529 14.3674 11.0002 14.5 11.0002C14.6326 11.0002 14.7598 11.0529 14.8535 11.1466C14.9473 11.2404 15 11.3676 15 11.5002V14.5002C15 14.6328 14.9473 14.76 14.8535 14.8537C14.7598 14.9475 14.6326 15.0002 14.5 15.0002H11.5C11.3674 15.0002 11.2402 14.9475 11.1464 14.8537C11.0526 14.76 11 14.6328 11 14.5002C11 14.3676 11.0526 14.2404 11.1464 14.1466C11.2402 14.0529 11.3674 14.0002 11.5 14.0002H13.293L1.14597 1.85419C1.05489 1.75989 1.00449 1.63359 1.00563 1.50249C1.00677 1.37139 1.05936 1.24599 1.15206 1.15328C1.24477 1.06058 1.37017 1.00799 1.50127 1.00685C1.63237 1.00572 1.75867 1.05611 1.85297 1.14719L14 13.2932V11.5002Z" fill="#3B64FC"/>
</svg>
