<svg viewBox="0 0 16 16" fill="none" xmlns="http://www.w3.org/2000/svg">
<path d="M2.707 2L14 13.293V11.5C14 11.3674 14.0527 11.2402 14.1464 11.1464C14.2402 11.0527 14.3674 11 14.5 11C14.6326 11 14.7598 11.0527 14.8536 11.1464C14.9473 11.2402 15 11.3674 15 11.5V14.5C15 14.6326 14.9473 14.7598 14.8536 14.8536C14.7598 14.9473 14.6326 15 14.5 15H11.5C11.3674 15 11.2402 14.9473 11.1464 14.8536C11.0527 14.7598 11 14.6326 11 14.5C11 14.3674 11.0527 14.2402 11.1464 14.1464C11.2402 14.0527 11.3674 14 11.5 14H13.293L2 2.707V4.5C2 4.63261 1.94732 4.75979 1.85355 4.85355C1.75979 4.94732 1.63261 5 1.5 5C1.36739 5 1.24021 4.94732 1.14645 4.85355C1.05268 4.75979 1 4.63261 1 4.5V1.5C1 1.36739 1.05268 1.24021 1.14645 1.14645C1.24021 1.05268 1.36739 1 1.5 1H4.5C4.63261 1 4.75979 1.05268 4.85355 1.14645C4.94732 1.24021 5 1.36739 5 1.5C5 1.63261 4.94732 1.75979 4.85355 1.85355C4.75979 1.94732 4.63261 2 4.5 2H2.707Z" fill="#3B64FC"/>
</svg>
