<svg viewBox="0 0 16 16" fill="none" xmlns="http://www.w3.org/2000/svg">
<g clip-path="url(#clip0_2461_29740)">
<path d="M13.8891 3.18583C12.5852 1.49381 10.6892 0.358049 8.58211 0.00683163C5.33811 -0.534168 3.20011 1.75683 4.01911 4.63683C4.48411 6.26283 5.38911 7.05483 7.74811 8.43183C9.88911 9.68083 10.6481 10.3468 11.0191 11.6368C11.6191 13.7368 10.0771 15.4218 7.58211 15.0058C5.71664 14.6946 4.03911 13.6863 2.88911 12.1848C2.84833 12.1324 2.79752 12.0886 2.73963 12.056C2.68174 12.0234 2.61794 12.0027 2.55195 11.9951C2.48597 11.9874 2.41912 11.993 2.35531 12.0115C2.29151 12.0299 2.23202 12.061 2.18033 12.1027C2.12864 12.1444 2.08579 12.196 2.05426 12.2545C2.02274 12.313 2.00319 12.3771 1.99674 12.4432C1.9903 12.5093 1.99709 12.5761 2.01673 12.6395C2.03636 12.703 2.06845 12.7619 2.11111 12.8128C3.41494 14.5049 5.311 15.6407 7.41811 15.9918C10.6311 16.5268 12.7851 14.1748 11.9811 11.3608C11.5161 9.73483 10.6111 8.94283 8.25211 7.56583C6.11111 6.31683 5.35211 5.65083 4.98111 4.36083C4.36311 2.19983 5.88711 0.570832 8.41811 0.992832C10.2836 1.30402 11.9611 2.3124 13.1111 3.81383C13.1953 3.91427 13.3155 3.97767 13.4459 3.99038C13.5763 4.0031 13.7065 3.96411 13.8084 3.88181C13.9104 3.79951 13.976 3.68047 13.9911 3.55031C14.0061 3.42015 13.9695 3.28927 13.8891 3.18583Z" fill="#3B64FC"/>
</g>
<defs>
<clipPath id="clip0_2461_29740">
<rect width="16" height="16" fill="white"/>
</clipPath>
</defs>
</svg>
