<svg viewBox="0 0 16 16" fill="none" xmlns="http://www.w3.org/2000/svg">
<path opacity="0.2" d="M1.5 1H14.5C14.8978 1 15.2794 1.15804 15.5607 1.43934C15.842 1.72064 16 2.10218 16 2.5V13.5C16 13.8978 15.842 14.2794 15.5607 14.5607C15.2794 14.842 14.8978 15 14.5 15H1.5C1.10218 15 0.720644 14.842 0.43934 14.5607C0.158035 14.2794 0 13.8978 0 13.5V2.5C0 2.10218 0.158035 1.72064 0.43934 1.43934C0.720644 1.15804 1.10218 1 1.5 1Z" fill="#4F87FE"/>
<path d="M1.5 1H14.5C14.8978 1 15.2794 1.15804 15.5607 1.43934C15.842 1.72064 16 2.10218 16 2.5V13.5C16 13.8978 15.842 14.2794 15.5607 14.5607C15.2794 14.842 14.8978 15 14.5 15H1.5C1.10218 15 0.720644 14.842 0.43934 14.5607C0.158035 14.2794 0 13.8978 0 13.5L0 2.5C0 2.10218 0.158035 1.72064 0.43934 1.43934C0.720644 1.15804 1.10218 1 1.5 1ZM1.5 2C1.36739 2 1.24021 2.05268 1.14645 2.14645C1.05268 2.24021 1 2.36739 1 2.5V13.5C1 13.6326 1.05268 13.7598 1.14645 13.8536C1.24021 13.9473 1.36739 14 1.5 14H14.5C14.6326 14 14.7598 13.9473 14.8536 13.8536C14.9473 13.7598 15 13.6326 15 13.5V2.5C15 2.36739 14.9473 2.24021 14.8536 2.14645C14.7598 2.05268 14.6326 2 14.5 2H1.5ZM5.645 6L8.157 3.636C8.22805 3.56901 8.31717 3.52429 8.41335 3.50737C8.50952 3.49044 8.60855 3.50205 8.69821 3.54077C8.78786 3.57948 8.86422 3.6436 8.91785 3.72521C8.97148 3.80682 9.00004 3.90234 9 4V12C9.00004 12.0977 8.97148 12.1932 8.91785 12.2748C8.86422 12.3564 8.78786 12.4205 8.69821 12.4592C8.60855 12.4979 8.50952 12.5096 8.41335 12.4926C8.31717 12.4757 8.22805 12.431 8.157 12.364L5.645 10H4C3.73478 10 3.48043 9.89464 3.29289 9.70711C3.10536 9.51957 3 9.26522 3 9V7C3 6.73478 3.10536 6.48043 3.29289 6.29289C3.48043 6.10536 3.73478 6 4 6H5.645ZM8 5.157L6.186 6.864C6.09344 6.95117 5.97115 6.9998 5.844 7H4V9H5.844C5.97149 8.99995 6.09419 9.04859 6.187 9.136L8 10.843V5.157ZM10.168 9.743C10.0405 9.71782 9.92775 9.64395 9.85376 9.53706C9.77976 9.43018 9.75031 9.29867 9.77164 9.17043C9.79297 9.0422 9.8634 8.92731 9.96801 8.85013C10.0726 8.77295 10.2032 8.73954 10.332 8.757L11.832 9.007C11.8983 9.01599 11.9622 9.0382 12.0197 9.07232C12.0773 9.10643 12.1275 9.15177 12.1672 9.20562C12.2069 9.25948 12.2355 9.32077 12.2511 9.38585C12.2667 9.45093 12.2691 9.51849 12.2581 9.58451C12.2471 9.65053 12.223 9.71368 12.1871 9.7702C12.1513 9.82673 12.1045 9.87548 12.0495 9.91358C11.9944 9.95167 11.9323 9.97833 11.8668 9.99197C11.8013 10.0056 11.7337 10.006 11.668 9.993L10.168 9.743ZM10.332 7.243C10.2032 7.26046 10.0726 7.22705 9.96801 7.14987C9.8634 7.07269 9.79297 6.9578 9.77164 6.82957C9.75031 6.70133 9.77976 6.56982 9.85376 6.46294C9.92775 6.35605 10.0405 6.28218 10.168 6.257L11.668 6.007C11.7337 5.99403 11.8013 5.99438 11.8668 6.00803C11.9323 6.02167 11.9944 6.04833 12.0495 6.08642C12.1045 6.12452 12.1513 6.17327 12.1871 6.2298C12.223 6.28632 12.2471 6.34947 12.2581 6.41549C12.2691 6.48151 12.2667 6.54907 12.2511 6.61415C12.2355 6.67923 12.2069 6.74052 12.1672 6.79438C12.1275 6.84823 12.0773 6.89357 12.0197 6.92768C11.9622 6.9618 11.8983 6.98401 11.832 6.993L10.332 7.243ZM9.972 11.916C9.91737 11.8796 9.87045 11.8327 9.83393 11.7781C9.7974 11.7236 9.77198 11.6623 9.75912 11.5979C9.74626 11.5335 9.74621 11.4672 9.75897 11.4028C9.77173 11.3384 9.79706 11.2771 9.8335 11.2225C9.86994 11.1679 9.91679 11.121 9.97136 11.0844C10.0259 11.0479 10.0872 11.0225 10.1516 11.0096C10.216 10.9968 10.2823 10.9967 10.3467 11.0095C10.4111 11.0222 10.4724 11.0476 10.527 11.084L12.027 12.084C12.0816 12.1204 12.1285 12.1673 12.1651 12.2219C12.2016 12.2764 12.227 12.3377 12.2399 12.4021C12.2527 12.4665 12.2528 12.5328 12.24 12.5972C12.2273 12.6616 12.2019 12.7229 12.1655 12.7775C12.1291 12.8321 12.0822 12.879 12.0276 12.9156C11.9731 12.9521 11.9118 12.9775 11.8474 12.9904C11.783 13.0032 11.7167 13.0033 11.6523 12.9905C11.5879 12.9778 11.5266 12.9524 11.472 12.916L9.972 11.916ZM10.527 4.916C10.4167 4.9896 10.2816 5.01635 10.1516 4.99038C10.0215 4.9644 9.9071 4.88783 9.8335 4.7775C9.7599 4.66717 9.73315 4.53212 9.75912 4.40207C9.7851 4.27201 9.86167 4.1576 9.972 4.084L11.472 3.084C11.5266 3.04756 11.5879 3.02223 11.6523 3.00947C11.7167 2.99671 11.783 2.99676 11.8474 3.00962C11.9118 3.02248 11.9731 3.0479 12.0276 3.08443C12.0822 3.12095 12.1291 3.16787 12.1655 3.2225C12.2019 3.27713 12.2273 3.3384 12.24 3.40282C12.2528 3.46724 12.2527 3.53354 12.2399 3.59793C12.227 3.66233 12.2016 3.72357 12.1651 3.77814C12.1285 3.83271 12.0816 3.87956 12.027 3.916L10.527 4.916Z" fill="#3B64FC"/>
</svg>
