<svg viewBox="0 0 16 16" fill="none" xmlns="http://www.w3.org/2000/svg">
<path opacity="0.2" d="M1.5 1H14.5C14.8978 1 15.2794 1.15804 15.5607 1.43934C15.842 1.72064 16 2.10218 16 2.5V13.5C16 13.8978 15.842 14.2794 15.5607 14.5607C15.2794 14.842 14.8978 15 14.5 15H1.5C1.10218 15 0.720644 14.842 0.43934 14.5607C0.158035 14.2794 0 13.8978 0 13.5V2.5C0 2.10218 0.158035 1.72064 0.43934 1.43934C0.720644 1.15804 1.10218 1 1.5 1Z" fill="#4F87FE"/>
<path d="M1.5 1H14.5C14.8978 1 15.2794 1.15804 15.5607 1.43934C15.842 1.72064 16 2.10218 16 2.5V13.5C16 13.8978 15.842 14.2794 15.5607 14.5607C15.2794 14.842 14.8978 15 14.5 15H1.5C1.10218 15 0.720644 14.842 0.43934 14.5607C0.158035 14.2794 0 13.8978 0 13.5L0 2.5C0 2.10218 0.158035 1.72064 0.43934 1.43934C0.720644 1.15804 1.10218 1 1.5 1ZM1.5 2C1.36739 2 1.24021 2.05268 1.14645 2.14645C1.05268 2.24021 1 2.36739 1 2.5V13.5C1 13.6326 1.05268 13.7598 1.14645 13.8536C1.24021 13.9473 1.36739 14 1.5 14H14.5C14.6326 14 14.7598 13.9473 14.8536 13.8536C14.9473 13.7598 15 13.6326 15 13.5V2.5C15 2.36739 14.9473 2.24021 14.8536 2.14645C14.7598 2.05268 14.6326 2 14.5 2H1.5ZM7 6.5C7 6.63261 6.94732 6.75979 6.85355 6.85355C6.75979 6.94732 6.63261 7 6.5 7H5.75C5.61739 7 5.49021 6.94732 5.39645 6.85355C5.30268 6.75979 5.25 6.63261 5.25 6.5V5.75C5.25 5.02065 5.53973 4.32118 6.05546 3.80546C6.57118 3.28973 7.27065 3 8 3C8.72935 3 9.42882 3.28973 9.94454 3.80546C10.4603 4.32118 10.75 5.02065 10.75 5.75V6.209C10.7501 6.84418 10.5084 7.45557 10.074 7.919L9.01 9.053C8.9232 9.14572 8.87493 9.26799 8.875 9.395V9.495C8.875 9.62761 8.82232 9.75479 8.72855 9.84855C8.63479 9.94232 8.50761 9.995 8.375 9.995H7.625C7.49239 9.995 7.36521 9.94232 7.27145 9.84855C7.17768 9.75479 7.125 9.62761 7.125 9.495V9.4C7.12404 9.01746 7.26928 8.649 7.531 8.37L8.594 7.235C8.85478 6.95701 8.99994 6.59016 9 6.209V5.75C9 5.48478 8.89464 5.23043 8.70711 5.04289C8.51957 4.85536 8.26522 4.75 8 4.75C7.73478 4.75 7.48043 4.85536 7.29289 5.04289C7.10536 5.23043 7 5.48478 7 5.75V6.5ZM7 12V11.75C7 11.4848 7.10536 11.2304 7.29289 11.0429C7.48043 10.8554 7.73478 10.75 8 10.75C8.26522 10.75 8.51957 10.8554 8.70711 11.0429C8.89464 11.2304 9 11.4848 9 11.75V12C9 12.2652 8.89464 12.5196 8.70711 12.7071C8.51957 12.8946 8.26522 13 8 13C7.73478 13 7.48043 12.8946 7.29289 12.7071C7.10536 12.5196 7 12.2652 7 12Z" fill="#3B64FC"/>
</svg>
