<svg viewBox="0 0 16 16" fill="none" xmlns="http://www.w3.org/2000/svg">
<path opacity="0.2" d="M1.5 1H14.5C14.8978 1 15.2794 1.15804 15.5607 1.43934C15.842 1.72064 16 2.10218 16 2.5V13.5C16 13.8978 15.842 14.2794 15.5607 14.5607C15.2794 14.842 14.8978 15 14.5 15H1.5C1.10218 15 0.720644 14.842 0.43934 14.5607C0.158035 14.2794 0 13.8978 0 13.5V2.5C0 2.10218 0.158035 1.72064 0.43934 1.43934C0.720644 1.15804 1.10218 1 1.5 1Z" fill="#4F87FE"/>
<path fill-rule="evenodd" clip-rule="evenodd" d="M14.5 2H1.5C1.36739 2 1.24021 2.05268 1.14645 2.14645C1.05268 2.24021 1 2.36739 1 2.5V13.5C1 13.6326 1.05268 13.7598 1.14645 13.8536C1.24021 13.9473 1.36739 14 1.5 14H14.5C14.6326 14 14.7598 13.9473 14.8536 13.8536C14.9473 13.7598 15 13.6326 15 13.5V2.5C15 2.36739 14.9473 2.24021 14.8536 2.14645C14.7598 2.05268 14.6326 2 14.5 2ZM14.5 1H1.5C1.10218 1 0.720644 1.15804 0.43934 1.43934C0.158035 1.72064 0 2.10218 0 2.5V13.5C0 13.8978 0.158035 14.2794 0.43934 14.5607C0.720644 14.842 1.10218 15 1.5 15H14.5C14.8978 15 15.2794 14.842 15.5607 14.5607C15.842 14.2794 16 13.8978 16 13.5V2.5C16 2.10218 15.842 1.72064 15.5607 1.43934C15.2794 1.15804 14.8978 1 14.5 1Z" fill="#3B64FC"/>
<path d="M6 10.5C6 10.6326 5.94732 10.7598 5.85355 10.8536C5.75979 10.9473 5.63261 11 5.5 11C5.36739 11 5.24021 10.9473 5.14645 10.8536C5.05268 10.7598 5 10.6326 5 10.5V5.5C5 5.36739 5.05268 5.24021 5.14645 5.14645C5.24021 5.05268 5.36739 5 5.5 5C5.63261 5 5.75979 5.05268 5.85355 5.14645C5.94732 5.24021 6 5.36739 6 5.5V10.5ZM10.3 5.189C10.4857 5.189 10.6637 5.26275 10.795 5.39403C10.9262 5.5253 11 5.70335 11 5.889V10.112C11.0001 10.2407 10.9647 10.3669 10.8978 10.4768C10.8308 10.5866 10.7348 10.6759 10.6204 10.7348C10.5061 10.7937 10.3776 10.82 10.2493 10.8106C10.121 10.8013 9.99769 10.7568 9.893 10.682L6.937 8.57C6.84638 8.50523 6.77252 8.41977 6.72156 8.32072C6.67061 8.22167 6.64403 8.11189 6.64403 8.0005C6.64403 7.88911 6.67061 7.77933 6.72156 7.68028C6.77252 7.58123 6.84638 7.49577 6.937 7.431L9.893 5.319C10.0118 5.23431 10.1541 5.18886 10.3 5.189Z" fill="#3B64FC"/>
</svg>
