<svg viewBox="0 0 16 16" fill="none" xmlns="http://www.w3.org/2000/svg">
<path opacity="0.2" d="M1.5 1H14.5C14.8978 1 15.2794 1.15804 15.5607 1.43934C15.842 1.72064 16 2.10218 16 2.5V13.5C16 13.8978 15.842 14.2794 15.5607 14.5607C15.2794 14.842 14.8978 15 14.5 15H1.5C1.10218 15 0.720644 14.842 0.43934 14.5607C0.158035 14.2794 0 13.8978 0 13.5V2.5C0 2.10218 0.158035 1.72064 0.43934 1.43934C0.720644 1.15804 1.10218 1 1.5 1Z" fill="#4F87FE"/>
<path d="M9.72397 12.053C9.82462 12.1034 9.90531 12.1864 9.95295 12.2884C10.0006 12.3904 10.0124 12.5055 9.98651 12.6151C9.96059 12.7247 9.89845 12.8223 9.81015 12.8921C9.72185 12.962 9.61256 13 9.49997 13H6.49997C6.38738 13 6.27808 12.962 6.18978 12.8921C6.10148 12.8223 6.03934 12.7247 6.01343 12.6151C5.98751 12.5055 5.99933 12.3904 6.04698 12.2884C6.09463 12.1864 6.17531 12.1034 6.27597 12.053L6.99997 11.691V8.809L6.27597 8.447C6.17531 8.39655 6.09463 8.31361 6.04698 8.2116C5.99933 8.10958 5.98751 7.99448 6.01343 7.88491C6.03934 7.77534 6.10148 7.67773 6.18978 7.60787C6.27808 7.53802 6.38738 7.50001 6.49997 7.5H8.49997C8.63258 7.5 8.75975 7.55268 8.85352 7.64645C8.94729 7.74021 8.99997 7.86739 8.99997 8V11.691L9.72397 12.053ZM6.99997 5V4.75C6.99997 4.48478 7.10532 4.23043 7.29286 4.04289C7.4804 3.85536 7.73475 3.75 7.99997 3.75C8.26518 3.75 8.51954 3.85536 8.70707 4.04289C8.89461 4.23043 8.99997 4.48478 8.99997 4.75V5C8.99997 5.26522 8.89461 5.51957 8.70707 5.70711C8.51954 5.89464 8.26518 6 7.99997 6C7.73475 6 7.4804 5.89464 7.29286 5.70711C7.10532 5.51957 6.99997 5.26522 6.99997 5Z" fill="#A8C8FE"/>
<path d="M1.5 1H14.5C14.8978 1 15.2794 1.15804 15.5607 1.43934C15.842 1.72064 16 2.10218 16 2.5V13.5C16 13.8978 15.842 14.2794 15.5607 14.5607C15.2794 14.842 14.8978 15 14.5 15H1.5C1.10218 15 0.720644 14.842 0.43934 14.5607C0.158035 14.2794 0 13.8978 0 13.5L0 2.5C0 2.10218 0.158035 1.72064 0.43934 1.43934C0.720644 1.15804 1.10218 1 1.5 1ZM1.5 2C1.36739 2 1.24021 2.05268 1.14645 2.14645C1.05268 2.24021 1 2.36739 1 2.5V13.5C1 13.6326 1.05268 13.7598 1.14645 13.8536C1.24021 13.9473 1.36739 14 1.5 14H14.5C14.6326 14 14.7598 13.9473 14.8536 13.8536C14.9473 13.7598 15 13.6326 15 13.5V2.5C15 2.36739 14.9473 2.24021 14.8536 2.14645C14.7598 2.05268 14.6326 2 14.5 2H1.5ZM9.724 12.053C9.82466 12.1034 9.90534 12.1864 9.95299 12.2884C10.0006 12.3904 10.0125 12.5055 9.98654 12.6151C9.96062 12.7247 9.89848 12.8223 9.81018 12.8921C9.72188 12.962 9.61259 13 9.5 13H6.5C6.38741 13 6.27812 12.962 6.18982 12.8921C6.10152 12.8223 6.03938 12.7247 6.01346 12.6151C5.98754 12.5055 5.99937 12.3904 6.04701 12.2884C6.09466 12.1864 6.17534 12.1034 6.276 12.053L7 11.691V8.809L6.276 8.447C6.17534 8.39655 6.09466 8.31361 6.04701 8.2116C5.99937 8.10958 5.98754 7.99448 6.01346 7.88491C6.03938 7.77534 6.10152 7.67773 6.18982 7.60787C6.27812 7.53802 6.38741 7.50001 6.5 7.5H8.5C8.63261 7.5 8.75979 7.55268 8.85355 7.64645C8.94732 7.74021 9 7.86739 9 8V11.691L9.724 12.053ZM7 5V4.75C7 4.48478 7.10536 4.23043 7.29289 4.04289C7.48043 3.85536 7.73478 3.75 8 3.75C8.26522 3.75 8.51957 3.85536 8.70711 4.04289C8.89464 4.23043 9 4.48478 9 4.75V5C9 5.26522 8.89464 5.51957 8.70711 5.70711C8.51957 5.89464 8.26522 6 8 6C7.73478 6 7.48043 5.89464 7.29289 5.70711C7.10536 5.51957 7 5.26522 7 5Z" fill="#3B64FC"/>
</svg>
