<svg viewBox="0 0 16 16" fill="none" xmlns="http://www.w3.org/2000/svg">
<path opacity="0.2" d="M1.5 1H14.5C14.8978 1 15.2794 1.15804 15.5607 1.43934C15.842 1.72064 16 2.10218 16 2.5V13.5C16 13.8978 15.842 14.2794 15.5607 14.5607C15.2794 14.842 14.8978 15 14.5 15H1.5C1.10218 15 0.720644 14.842 0.43934 14.5607C0.158035 14.2794 0 13.8978 0 13.5V2.5C0 2.10218 0.158035 1.72064 0.43934 1.43934C0.720644 1.15804 1.10218 1 1.5 1Z" fill="#4F87FE"/>
<path d="M14.5 15H1.5C1.10218 15 0.720644 14.842 0.43934 14.5607C0.158035 14.2794 0 13.8978 0 13.5L0 2.5C0 2.10218 0.158035 1.72064 0.43934 1.43934C0.720644 1.15804 1.10218 1 1.5 1H14.5C14.8978 1 15.2794 1.15804 15.5607 1.43934C15.842 1.72064 16 2.10218 16 2.5V13.5C16 13.8978 15.842 14.2794 15.5607 14.5607C15.2794 14.842 14.8978 15 14.5 15ZM1.5 2C1.36739 2 1.24021 2.05268 1.14645 2.14645C1.05268 2.24021 1 2.36739 1 2.5V13.5C1 13.6326 1.05268 13.7598 1.14645 13.8536C1.24021 13.9473 1.36739 14 1.5 14H14.5C14.6326 14 14.7598 13.9473 14.8536 13.8536C14.9473 13.7598 15 13.6326 15 13.5V2.5C15 2.36739 14.9473 2.24021 14.8536 2.14645C14.7598 2.05268 14.6326 2 14.5 2H1.5ZM8.5 12H6.5C5.83696 12 5.20107 11.7366 4.73223 11.2678C4.26339 10.7989 4 10.163 4 9.5V7.5C4 7.36739 4.05268 7.24021 4.14645 7.14645C4.24021 7.05268 4.36739 7 4.5 7H6.5C6.63261 7 6.75979 7.05268 6.85355 7.14645C6.94732 7.24021 7 7.36739 7 7.5V9H8V6H7.5C7.40098 6.00018 7.30414 5.97095 7.22175 5.91602C7.13936 5.86109 7.07513 5.78294 7.03722 5.69146C6.9993 5.59999 6.9894 5.49932 7.00876 5.40221C7.02813 5.3051 7.07589 5.21593 7.146 5.146L9.146 3.146C9.23976 3.05226 9.36692 2.99961 9.4995 2.99961C9.63208 2.99961 9.75924 3.05226 9.853 3.146L11.853 5.146C11.923 5.21587 11.9708 5.30495 11.9902 5.40196C12.0096 5.49898 11.9998 5.59957 11.962 5.691C11.9242 5.78243 11.8601 5.8606 11.7779 5.9156C11.6956 5.97061 11.5989 5.99998 11.5 6H11V9.5C11 9.8283 10.9353 10.1534 10.8097 10.4567C10.6841 10.76 10.4999 11.0356 10.2678 11.2678C10.0356 11.4999 9.76002 11.6841 9.45671 11.8097C9.15339 11.9353 8.8283 12 8.5 12ZM5 8V9.5C5 9.89782 5.15804 10.2794 5.43934 10.5607C5.72064 10.842 6.10218 11 6.5 11H8.5C8.89782 11 9.27936 10.842 9.56066 10.5607C9.84196 10.2794 10 9.89782 10 9.5V5.5C10 5.3983 10.031 5.29901 10.0889 5.21539C10.1468 5.13178 10.2288 5.0678 10.324 5.032L9.5 4.207L8.675 5.032C8.77038 5.06764 8.85261 5.13154 8.91069 5.21518C8.96876 5.29881 8.99992 5.39818 9 5.5V9.5C9 9.63261 8.94732 9.75979 8.85355 9.85355C8.75979 9.94732 8.63261 10 8.5 10H6.5C6.36739 10 6.24021 9.94732 6.14645 9.85355C6.05268 9.75979 6 9.63261 6 9.5V8H5Z" fill="#3B64FC"/>
</svg>
