<svg viewBox="0 0 16 16" fill="none" xmlns="http://www.w3.org/2000/svg">
<g clip-path="url(#clip0_2461_29793)">
<path opacity="0.2" fill-rule="evenodd" clip-rule="evenodd" d="M8.35369 0.853478C8.15843 0.658218 7.84186 0.658215 7.64659 0.853473L5.50019 2.99982H3.50005C3.22391 2.99982 3.00005 3.22368 3.00005 3.49982V5.4999L0.853727 7.64617C0.658462 7.84143 0.658458 8.15801 0.853716 8.35328L3.00005 10.4997V12.4998C3.00005 12.776 3.22391 12.9998 3.50005 12.9998H5.50012L7.64648 15.1463C7.84174 15.3415 8.15833 15.3415 8.35359 15.1463L10.5 12.9998H12.5C12.7762 12.9998 13 12.776 13 12.4998V10.4998L15.1465 8.35338C15.3417 8.15812 15.3417 7.84154 15.1465 7.64627L13 5.49983V3.49982C13 3.22368 12.7762 2.99982 12.5 2.99982H10.5L8.35369 0.853478Z" fill="#4F87FE"/>
<path fill-rule="evenodd" clip-rule="evenodd" d="M5.91439 3.99982H4.00005V5.91412L1.91438 7.99974L4.00005 10.0855V11.9998H5.91434L8.00005 14.0856L10.0858 11.9998H12V10.0856L14.0858 7.99983L12 5.91404V3.99982H10.0858L8.00014 1.91413L5.91439 3.99982ZM7.64659 1.56059C7.64671 1.56071 7.64647 1.56047 7.64659 1.56059ZM7.64659 0.853473C7.84186 0.658215 8.15843 0.658218 8.35369 0.853478L10.5 2.99982H12.5C12.7762 2.99982 13 3.22368 13 3.49982V5.49983L15.1465 7.64627C15.3417 7.84154 15.3417 8.15812 15.1465 8.35338L13 10.4998V12.4998C13 12.776 12.7762 12.9998 12.5 12.9998H10.5L8.35359 15.1463C8.15833 15.3415 7.84174 15.3415 7.64648 15.1463L5.50012 12.9998H3.50005C3.22391 12.9998 3.00005 12.776 3.00005 12.4998V10.4997L0.853716 8.35328C0.658458 8.15801 0.658462 7.84143 0.853727 7.64617L3.00005 5.4999V3.49982C3.00005 3.22368 3.22391 2.99982 3.50005 2.99982H5.50019L7.64659 0.853473Z" fill="#3B64FC"/>
<path d="M10 6H9.877L9.02 9H10V6ZM8.5 10C8.3674 10 8.24022 9.94732 8.14645 9.85355C8.05268 9.75979 8 9.63261 8 9.5V9L8.019 8.863L9.019 5.363C9.0488 5.25842 9.11188 5.1664 9.19868 5.1009C9.28547 5.03539 9.39126 4.99997 9.5 5H10.5C10.6326 5 10.7598 5.05268 10.8536 5.14645C10.9473 5.24021 11 5.36739 11 5.5V9C11.1326 9 11.2598 9.05268 11.3536 9.14645C11.4473 9.24021 11.5 9.36739 11.5 9.5C11.5 9.63261 11.4473 9.75979 11.3536 9.85355C11.2598 9.94732 11.1326 10 11 10V10.5C11 10.6326 10.9473 10.7598 10.8536 10.8536C10.7598 10.9473 10.6326 11 10.5 11C10.3674 11 10.2402 10.9473 10.1465 10.8536C10.0527 10.7598 10 10.6326 10 10.5V10H8.5ZM7.5 10C7.63261 10 7.75979 10.0527 7.85356 10.1464C7.94733 10.2402 8 10.3674 8 10.5C8 10.6326 7.94733 10.7598 7.85356 10.8536C7.75979 10.9473 7.63261 11 7.5 11H5.5C5.3674 11 5.24022 10.9473 5.14645 10.8536C5.05268 10.7598 5 10.6326 5 10.5V10.38C4.99919 10.0114 5.1341 9.65545 5.379 9.38L6.621 7.98C6.86362 7.70713 6.99837 7.35513 7 6.99V6.5C7 6.36739 6.94733 6.24021 6.85356 6.14645C6.75979 6.05268 6.63261 6 6.5 6C6.3674 6 6.24022 6.05268 6.14645 6.14645C6.05268 6.24021 6 6.36739 6 6.5V6.75C6 6.88261 5.94733 7.00979 5.85356 7.10355C5.75979 7.19732 5.63261 7.25 5.5 7.25C5.3674 7.25 5.24022 7.19732 5.14645 7.10355C5.05268 7.00979 5 6.88261 5 6.75V6.5C5 6.10218 5.15804 5.72064 5.43934 5.43934C5.72065 5.15804 6.10218 5 6.5 5C6.89783 5 7.27936 5.15804 7.56066 5.43934C7.84197 5.72064 8 6.10218 8 6.5V6.99C8.00016 7.60225 7.77563 8.19328 7.369 8.651L6.169 10H7.5Z" fill="#2453DE"/>
</g>
<defs>
<clipPath id="clip0_2461_29793">
<rect width="16" height="16" fill="white"/>
</clipPath>
</defs>
</svg>
