<svg viewBox="0 0 16 16" fill="none" xmlns="http://www.w3.org/2000/svg">
<g clip-path="url(#clip0_2461_29797)">
<path opacity="0.2" fill-rule="evenodd" clip-rule="evenodd" d="M8.35369 0.853478C8.15843 0.658218 7.84186 0.658215 7.64659 0.853473L5.50019 2.99982H3.50005C3.22391 2.99982 3.00005 3.22368 3.00005 3.49982V5.4999L0.853727 7.64617C0.658462 7.84143 0.658458 8.15801 0.853716 8.35328L3.00005 10.4997V12.4998C3.00005 12.776 3.22391 12.9998 3.50005 12.9998H5.50012L7.64648 15.1463C7.84174 15.3415 8.15833 15.3415 8.35359 15.1463L10.5 12.9998H12.5C12.7762 12.9998 13 12.776 13 12.4998V10.4998L15.1465 8.35338C15.3417 8.15812 15.3417 7.84154 15.1465 7.64627L13 5.49983V3.49982C13 3.22368 12.7762 2.99982 12.5 2.99982H10.5L8.35369 0.853478Z" fill="#4F87FE"/>
<path fill-rule="evenodd" clip-rule="evenodd" d="M5.91439 3.99982H4.00005V5.91412L1.91438 7.99974L4.00005 10.0855V11.9998H5.91434L8.00005 14.0856L10.0858 11.9998H12V10.0856L14.0858 7.99983L12 5.91404V3.99982H10.0858L8.00014 1.91413L5.91439 3.99982ZM7.64659 0.853473C7.84186 0.658215 8.15843 0.658218 8.35369 0.853478L10.5 2.99982H12.5C12.7762 2.99982 13 3.22368 13 3.49982V5.49983L15.1465 7.64627C15.3417 7.84154 15.3417 8.15812 15.1465 8.35338L13 10.4998V12.4998C13 12.776 12.7762 12.9998 12.5 12.9998H10.5L8.35359 15.1463C8.15833 15.3415 7.84174 15.3415 7.64648 15.1463L5.50012 12.9998H3.50005C3.22391 12.9998 3.00005 12.776 3.00005 12.4998V10.4997L0.853716 8.35328C0.658458 8.15801 0.658462 7.84143 0.853727 7.64617L3.00005 5.4999V3.49982C3.00005 3.22368 3.22391 2.99982 3.50005 2.99982H5.50019L7.64659 0.853473Z" fill="#3B64FC"/>
<path d="M6 8H5.75C5.61739 8 5.49021 7.94732 5.39645 7.85355C5.30268 7.75979 5.25 7.63261 5.25 7.5C5.25 7.36739 5.30268 7.24021 5.39645 7.14645C5.49021 7.05268 5.61739 7 5.75 7H6.5C6.63261 7 6.75979 6.94732 6.85355 6.85355C6.94732 6.75979 7 6.63261 7 6.5C7 6.36739 6.94732 6.24021 6.85355 6.14645C6.75979 6.05268 6.63261 6 6.5 6H5.5C5.36739 6 5.24021 5.94732 5.14645 5.85355C5.05268 5.75979 5 5.63261 5 5.5C5 5.36739 5.05268 5.24021 5.14645 5.14645C5.24021 5.05268 5.36739 5 5.5 5H6.5C6.80714 5.00004 7.10687 5.09436 7.35868 5.27023C7.61049 5.44609 7.80225 5.69502 7.90804 5.98337C8.01382 6.27172 8.02854 6.58559 7.9502 6.88258C7.87187 7.17956 7.70425 7.44534 7.47 7.644C7.73352 7.9297 7.90809 8.286 7.97235 8.66934C8.03661 9.05267 7.98779 9.44642 7.83184 9.80244C7.67589 10.1585 7.41959 10.4613 7.09426 10.674C6.76893 10.8867 6.38868 11 6 11H5.5C5.36739 11 5.24021 10.9473 5.14645 10.8536C5.05268 10.7598 5 10.6326 5 10.5C5 10.3674 5.05268 10.2402 5.14645 10.1464C5.24021 10.0527 5.36739 10 5.5 10H6C6.26522 10 6.51957 9.89464 6.70711 9.70711C6.89464 9.51957 7 9.26522 7 9C7 8.73478 6.89464 8.48043 6.70711 8.29289C6.51957 8.10536 6.26522 8 6 8ZM9.169 10H10.5C10.6326 10 10.7598 10.0527 10.8536 10.1464C10.9473 10.2402 11 10.3674 11 10.5C11 10.6326 10.9473 10.7598 10.8536 10.8536C10.7598 10.9473 10.6326 11 10.5 11H8.5C8.36739 11 8.24021 10.9473 8.14645 10.8536C8.05268 10.7598 8 10.6326 8 10.5V10.38C7.99918 10.0114 8.1341 9.65545 8.379 9.38L9.621 7.98C9.8659 7.70455 10.0008 7.34858 10 6.98V6.5C10 6.36739 9.94732 6.24021 9.85355 6.14645C9.75979 6.05268 9.63261 6 9.5 6C9.36739 6 9.24021 6.05268 9.14645 6.14645C9.05268 6.24021 9 6.36739 9 6.5V6.75C9 6.88261 8.94732 7.00979 8.85355 7.10355C8.75979 7.19732 8.63261 7.25 8.5 7.25C8.36739 7.25 8.24021 7.19732 8.14645 7.10355C8.05268 7.00979 8 6.88261 8 6.75V6.5C8 6.10218 8.15804 5.72064 8.43934 5.43934C8.72064 5.15804 9.10218 5 9.5 5C9.89782 5 10.2794 5.15804 10.5607 5.43934C10.842 5.72064 11 6.10218 11 6.5V6.99C11.0002 7.60225 10.7756 8.19328 10.369 8.651L9.169 10Z" fill="#2453DE"/>
</g>
<defs>
<clipPath id="clip0_2461_29797">
<rect width="16" height="16" fill="white"/>
</clipPath>
</defs>
</svg>
