<svg viewBox="0 0 16 16" fill="none" xmlns="http://www.w3.org/2000/svg">
<g clip-path="url(#clip0_2461_29805)">
<path opacity="0.2" d="M14.8 9.5282C15 9.1742 15.374 8.5862 15.913 7.7772C15.9772 7.68107 16.0061 7.56566 15.9948 7.45062C15.9835 7.33557 15.9326 7.228 15.851 7.1462C15.0038 6.35608 14.0427 5.69773 13 5.1932V3.5002C13 3.40742 12.9741 3.31648 12.9254 3.23753C12.8767 3.15859 12.8069 3.09477 12.724 3.0532C11.2538 2.33633 9.63544 1.9756 7.99996 2.0002C6.36447 1.9756 4.74617 2.33633 3.27596 3.0532C3.19301 3.09477 3.12327 3.15859 3.07452 3.23753C3.02578 3.31648 2.99996 3.40742 2.99996 3.5002V5.1932C1.95611 5.69747 0.994022 6.35583 0.145959 7.1462C0.0642747 7.228 0.0134568 7.33557 0.0021529 7.45062C-0.00915104 7.56566 0.0197574 7.68107 0.083959 7.7772C0.622959 8.5862 0.999959 9.1742 1.19996 9.5282C0.590429 10.7796 0.185296 12.1206 -4.10135e-05 13.5002C-3.81524e-05 13.5855 0.0217689 13.6693 0.0633078 13.7438C0.104847 13.8182 0.164737 13.8808 0.237288 13.9256C0.309838 13.9704 0.392638 13.9959 0.477819 13.9997C0.562999 14.0035 0.64773 13.9854 0.723959 13.9472C2.32131 13.1761 3.97028 12.5169 5.65896 11.9742C5.66496 11.9742 5.66696 11.9672 5.67296 11.9652C5.74553 11.9391 5.81095 11.8962 5.86396 11.8402C5.87599 11.8246 5.88701 11.8082 5.89696 11.7912C5.92997 11.7475 5.95533 11.6984 5.97196 11.6462C5.9794 11.621 5.98475 11.5953 5.98796 11.5692C5.99367 11.5465 5.99768 11.5235 5.99996 11.5002V9.1872C7.3216 8.93745 8.67832 8.93745 9.99996 9.1872V11.5002C10.0029 11.5235 10.0076 11.5466 10.014 11.5692C10.0172 11.5953 10.0225 11.621 10.03 11.6462C10.0467 11.6981 10.072 11.7468 10.105 11.7902C10.1149 11.8076 10.1259 11.8243 10.138 11.8402C10.1907 11.8961 10.2558 11.9389 10.328 11.9652C10.333 11.9652 10.336 11.9722 10.342 11.9742C12.0306 12.5169 13.6796 13.1761 15.277 13.9472C15.3532 13.9852 15.4378 14.0031 15.5228 13.9992C15.6079 13.9953 15.6905 13.9697 15.7629 13.925C15.8353 13.8802 15.8951 13.8177 15.9366 13.7434C15.9781 13.669 15.9999 13.5853 16 13.5002C15.8146 12.1206 15.4095 10.7796 14.8 9.5282Z" fill="#4F87FE"/>
<path d="M14.8 9.5282C15 9.1742 15.374 8.5862 15.913 7.7772C15.9772 7.68107 16.0061 7.56566 15.9948 7.45062C15.9835 7.33557 15.9326 7.228 15.851 7.1462C15.0038 6.35608 14.0427 5.69773 13 5.1932V3.5002C13 3.40742 12.9741 3.31648 12.9254 3.23753C12.8767 3.15859 12.8069 3.09477 12.724 3.0532C11.2538 2.33633 9.63544 1.9756 7.99996 2.0002C6.36447 1.9756 4.74617 2.33633 3.27596 3.0532C3.19301 3.09477 3.12327 3.15859 3.07452 3.23753C3.02578 3.31648 2.99996 3.40742 2.99996 3.5002V5.1932C1.95611 5.69747 0.994022 6.35583 0.145959 7.1462C0.0642747 7.228 0.0134568 7.33557 0.0021529 7.45062C-0.00915104 7.56566 0.0197574 7.68107 0.083959 7.7772C0.622959 8.5862 0.999959 9.1742 1.19996 9.5282C0.590429 10.7796 0.185296 12.1206 -4.10135e-05 13.5002C-3.81524e-05 13.5855 0.0217689 13.6693 0.0633078 13.7438C0.104847 13.8182 0.164737 13.8808 0.237288 13.9256C0.309838 13.9704 0.392638 13.9959 0.477819 13.9997C0.562999 14.0035 0.64773 13.9854 0.723959 13.9472C2.32131 13.1761 3.97028 12.5169 5.65896 11.9742C5.66496 11.9742 5.66696 11.9672 5.67296 11.9652C5.74553 11.9391 5.81095 11.8962 5.86396 11.8402C5.87599 11.8246 5.88701 11.8082 5.89696 11.7912C5.92997 11.7475 5.95533 11.6984 5.97196 11.6462C5.9794 11.621 5.98475 11.5953 5.98796 11.5692C5.99367 11.5465 5.99768 11.5235 5.99996 11.5002V9.1872C7.3216 8.93745 8.67832 8.93745 9.99996 9.1872V11.5002C10.0029 11.5235 10.0076 11.5466 10.014 11.5692C10.0172 11.5953 10.0225 11.621 10.03 11.6462C10.0467 11.6981 10.072 11.7468 10.105 11.7902C10.1149 11.8076 10.1259 11.8243 10.138 11.8402C10.1907 11.8961 10.2558 11.9389 10.328 11.9652C10.333 11.9652 10.336 11.9722 10.342 11.9742C12.0306 12.5169 13.6796 13.1761 15.277 13.9472C15.3532 13.9852 15.4378 14.0031 15.5228 13.9992C15.6079 13.9953 15.6905 13.9697 15.7629 13.925C15.8353 13.8802 15.8951 13.8177 15.9366 13.7434C15.9781 13.669 15.9999 13.5853 16 13.5002C15.8146 12.1206 15.4095 10.7796 14.8 9.5282ZM1.14696 12.6382C1.43919 11.6346 1.79491 10.6506 2.21196 9.6922C2.23995 9.62607 2.25337 9.55468 2.2513 9.48289C2.24923 9.41111 2.23172 9.34061 2.19996 9.2762C2.04196 8.9612 1.69996 8.3992 1.15396 7.5762C1.72496 7.09841 2.34354 6.68055 2.99996 6.3292V9.5002C3.00311 9.53037 3.00914 9.56018 3.01796 9.5892C3.02106 9.61561 3.02641 9.64171 3.03396 9.6672C3.05735 9.7363 3.09558 9.79944 3.14596 9.8522L4.57796 11.2842C3.28663 11.7355 2.14296 12.1869 1.14696 12.6382ZM4.99996 10.2932L4.36596 9.6592C4.57196 9.5772 4.78596 9.5102 4.99996 9.4432V10.2932ZM7.99996 8.0002C6.63109 7.98971 5.27302 8.24299 3.99996 8.7462V3.8152C5.25883 3.25799 6.62343 2.97995 7.99996 3.0002C9.37649 2.97995 10.7411 3.25799 12 3.8152V8.7452C10.7268 8.24233 9.36876 7.98939 7.99996 8.0002ZM11 9.4422C11.214 9.5092 11.428 9.5762 11.634 9.6582L11 10.2932V9.4422ZM11.421 11.2852L12.853 9.8532C12.9033 9.80044 12.9416 9.7373 12.965 9.6682C12.9725 9.64271 12.9779 9.61661 12.981 9.5902C12.9902 9.56089 12.9965 9.53075 13 9.5002V6.3292C13.6575 6.68069 14.2771 7.09889 14.849 7.5772C14.307 8.4002 13.96 8.9612 13.803 9.2772C13.7709 9.34147 13.753 9.41189 13.7506 9.48368C13.7482 9.55546 13.7613 9.62692 13.789 9.6932C14.2057 10.6517 14.5611 11.6357 14.853 12.6392C13.857 12.1865 12.713 11.7355 11.421 11.2862V11.2852Z" fill="#3B64FC"/>
</g>
<defs>
<clipPath id="clip0_2461_29805">
<rect width="16" height="16" fill="white"/>
</clipPath>
</defs>
</svg>
