<svg viewBox="0 0 16 16" fill="none" xmlns="http://www.w3.org/2000/svg">
<path opacity="0.2" d="M15.0271 8.5L15.9741 5.658C15.9991 5.58287 16.006 5.50288 15.994 5.4246C15.9821 5.34632 15.9517 5.272 15.9054 5.20775C15.8591 5.1435 15.7983 5.09116 15.7278 5.05504C15.6573 5.01893 15.5793 5.00006 15.5001 5H13.0001V3.5C13.0001 3.36739 12.9474 3.24021 12.8537 3.14645C12.7599 3.05268 12.6327 3 12.5001 3H3.50011C3.3675 3 3.24032 3.05268 3.14656 3.14645C3.05279 3.24021 3.00011 3.36739 3.00011 3.5V5H0.500109C0.420925 5.00006 0.342888 5.01893 0.272421 5.05504C0.201955 5.09116 0.141074 5.1435 0.0947914 5.20775C0.0485085 5.272 0.0181469 5.34632 0.00620611 5.4246C-0.0057347 5.50288 0.00108672 5.58287 0.0261088 5.658L0.973109 8.5L0.0261088 11.342C0.00108672 11.4171 -0.0057347 11.4971 0.00620611 11.5754C0.0181469 11.6537 0.0485085 11.728 0.0947914 11.7922C0.141074 11.8565 0.201955 11.9088 0.272421 11.945C0.342888 11.9811 0.420925 11.9999 0.500109 12H5.50011C5.58969 11.9977 5.67691 11.9707 5.75211 11.922C5.77207 11.9105 5.79113 11.8974 5.80911 11.883C5.87499 11.8331 5.92725 11.7674 5.96111 11.692V11.685C5.98576 11.6264 5.99899 11.5636 6.00011 11.5V10H10.0001V11.5C10.0006 11.5635 10.0131 11.6262 10.0371 11.685V11.692C10.071 11.7674 10.1233 11.8331 10.1891 11.883C10.2071 11.8974 10.2262 11.9104 10.2461 11.922C10.3219 11.9711 10.4098 11.9981 10.5001 12H15.5001C15.5793 11.9999 15.6573 11.9811 15.7278 11.945C15.7983 11.9088 15.8591 11.8565 15.9054 11.7922C15.9517 11.728 15.9821 11.6537 15.994 11.5754C16.006 11.4971 15.9991 11.4171 15.9741 11.342L15.0271 8.5Z" fill="#4F87FE"/>
<path d="M15.0271 8.5L15.9741 5.658C15.9991 5.58287 16.006 5.50288 15.994 5.4246C15.9821 5.34632 15.9517 5.272 15.9054 5.20775C15.8591 5.1435 15.7983 5.09116 15.7278 5.05504C15.6573 5.01893 15.5793 5.00006 15.5001 5H13.0001V3.5C13.0001 3.36739 12.9474 3.24021 12.8537 3.14645C12.7599 3.05268 12.6327 3 12.5001 3H3.50011C3.3675 3 3.24032 3.05268 3.14656 3.14645C3.05279 3.24021 3.00011 3.36739 3.00011 3.5V5H0.500109C0.420925 5.00006 0.342888 5.01893 0.272421 5.05504C0.201955 5.09116 0.141074 5.1435 0.0947914 5.20775C0.0485085 5.272 0.0181469 5.34632 0.00620611 5.4246C-0.0057347 5.50288 0.00108672 5.58287 0.0261088 5.658L0.973109 8.5L0.0261088 11.342C0.00108672 11.4171 -0.0057347 11.4971 0.00620611 11.5754C0.0181469 11.6537 0.0485085 11.728 0.0947914 11.7922C0.141074 11.8565 0.201955 11.9088 0.272421 11.945C0.342888 11.9811 0.420925 11.9999 0.500109 12H5.50011C5.58969 11.9977 5.67691 11.9707 5.75211 11.922C5.77207 11.9105 5.79113 11.8974 5.80911 11.883C5.87499 11.8331 5.92725 11.7674 5.96111 11.692V11.685C5.98576 11.6264 5.99899 11.5636 6.00011 11.5V10H10.0001V11.5C10.0006 11.5635 10.0131 11.6262 10.0371 11.685V11.692C10.071 11.7674 10.1233 11.8331 10.1891 11.883C10.2071 11.8974 10.2262 11.9104 10.2461 11.922C10.3219 11.9711 10.4098 11.9981 10.5001 12H15.5001C15.5793 11.9999 15.6573 11.9811 15.7278 11.945C15.7983 11.9088 15.8591 11.8565 15.9054 11.7922C15.9517 11.728 15.9821 11.6537 15.994 11.5754C16.006 11.4971 15.9991 11.4171 15.9741 11.342L15.0271 8.5ZM4.00011 4H12.0001V9H4.00011V4ZM1.19411 11L1.97511 8.658C2.00927 8.55544 2.00927 8.44456 1.97511 8.342L1.19411 6H3.00011V9.5C3.00249 9.51717 3.00583 9.5342 3.01011 9.551C3.01285 9.57533 3.01753 9.59941 3.02411 9.623C3.04346 9.70899 3.08521 9.78834 3.14511 9.853L4.29311 11H1.19411ZM5.00011 10.293L4.70711 10H5.00011V10.293ZM11.0001 10.293V10H11.2931L11.0001 10.293ZM14.8061 11H11.7061L12.8521 9.854C12.9125 9.78917 12.9546 9.70945 12.9741 9.623C12.9807 9.59941 12.9854 9.57533 12.9881 9.551C12.9931 9.53424 12.9971 9.51721 13.0001 9.5V6H14.8061L14.0251 8.342C13.9909 8.44456 13.9909 8.55544 14.0251 8.658L14.8061 11Z" fill="#3B64FC"/>
</svg>
