<svg viewBox="0 0 16 16" fill="none" xmlns="http://www.w3.org/2000/svg">
<g clip-path="url(#clip0_2461_29807)">
<path opacity="0.2" d="M15.005 6.56498C15.5124 5.25912 15.8469 3.89255 16 2.49998C16 2.41472 15.9782 2.33087 15.9367 2.25641C15.8951 2.18195 15.8352 2.11935 15.7627 2.07455C15.6901 2.02976 15.6073 2.00427 15.5221 2.00049C15.437 1.99671 15.3522 2.01479 15.276 2.05298C13.6786 2.82408 12.0297 3.48333 10.341 4.02598C10.335 4.02598 10.333 4.03298 10.327 4.03498C10.2544 4.06113 10.189 4.10395 10.136 4.15998C10.124 4.17559 10.1129 4.19196 10.103 4.20898C10.07 4.25271 10.0446 4.30174 10.028 4.35398C10.0206 4.37917 10.0152 4.40492 10.012 4.43098C10.0063 4.45365 10.0023 4.47672 10 4.49998V6.81298C9.34079 6.93872 8.67109 7.00134 8 6.99998C7.32891 7.00134 6.65921 6.93872 6 6.81298V4.49998C5.99707 4.47667 5.99239 4.4536 5.986 4.43098C5.98279 4.40492 5.97744 4.37917 5.97 4.35398C5.95491 4.30209 5.93125 4.25308 5.9 4.20898C5.89003 4.19198 5.87901 4.17561 5.867 4.15998C5.81399 4.10395 5.74857 4.06113 5.676 4.03498C5.671 4.03498 5.668 4.02798 5.662 4.02598C3.9723 3.48346 2.32233 2.82421 0.724 2.05298C0.647771 2.01479 0.56304 1.99671 0.47786 2.00049C0.392679 2.00427 0.309879 2.02976 0.237329 2.07455C0.164778 2.11935 0.104888 2.18195 0.0633488 2.25641C0.0218099 2.33087 2.86113e-06 2.41472 0 2.49998C0.153137 3.89255 0.487637 5.25912 0.995 6.56498C0.746947 7.50508 0.426318 8.4245 0.036 9.31498C-0.000249054 9.40583 -0.00905383 9.50532 0.010676 9.60113C0.0304059 9.69693 0.0778037 9.78485 0.147 9.85398C0.925279 10.5709 1.94189 10.9736 3 10.984V12.5C3 12.5928 3.02582 12.6837 3.07456 12.7627C3.12331 12.8416 3.19305 12.9054 3.276 12.947C4.74621 13.6639 6.36452 14.0246 8 14C9.63548 14.0246 11.2538 13.6639 12.724 12.947C12.8069 12.9054 12.8767 12.8416 12.9254 12.7627C12.9742 12.6837 13 12.5928 13 12.5V10.984C14.0586 10.9735 15.0756 10.5705 15.854 9.85298C15.9232 9.78385 15.9706 9.69593 15.9903 9.60013C16.0101 9.50432 16.0012 9.40483 15.965 9.31398C15.5744 8.42386 15.2534 7.50476 15.005 6.56498Z" fill="#4F87FE"/>
<path d="M15.005 6.56498C15.5124 5.25912 15.8469 3.89255 16 2.49998C16 2.41472 15.9782 2.33087 15.9367 2.25641C15.8951 2.18195 15.8352 2.11935 15.7627 2.07455C15.6901 2.02976 15.6073 2.00427 15.5221 2.00049C15.437 1.99671 15.3522 2.01479 15.276 2.05298C13.6786 2.82408 12.0297 3.48333 10.341 4.02598C10.335 4.02598 10.333 4.03298 10.327 4.03498C10.2544 4.06113 10.189 4.10395 10.136 4.15998C10.124 4.17559 10.1129 4.19196 10.103 4.20898C10.07 4.25271 10.0446 4.30174 10.028 4.35398C10.0206 4.37917 10.0152 4.40492 10.012 4.43098C10.0063 4.45365 10.0023 4.47672 10 4.49998V6.81298C9.34079 6.93872 8.67109 7.00134 8 6.99998C7.32891 7.00134 6.65921 6.93872 6 6.81298V4.49998C5.99707 4.47667 5.99239 4.4536 5.986 4.43098C5.98279 4.40492 5.97744 4.37917 5.97 4.35398C5.95491 4.30209 5.93125 4.25308 5.9 4.20898C5.89003 4.19198 5.87901 4.17561 5.867 4.15998C5.81399 4.10395 5.74857 4.06113 5.676 4.03498C5.671 4.03498 5.668 4.02798 5.662 4.02598C3.9723 3.48346 2.32233 2.82421 0.724 2.05298C0.647771 2.01479 0.56304 1.99671 0.47786 2.00049C0.392679 2.00427 0.309879 2.02976 0.237329 2.07455C0.164778 2.11935 0.104888 2.18195 0.0633488 2.25641C0.0218099 2.33087 2.86113e-06 2.41472 0 2.49998C0.153137 3.89255 0.487637 5.25912 0.995 6.56498C0.746947 7.50508 0.426318 8.4245 0.036 9.31498C-0.000249054 9.40583 -0.00905383 9.50532 0.010676 9.60113C0.0304059 9.69693 0.0778037 9.78485 0.147 9.85398C0.925279 10.5709 1.94189 10.9736 3 10.984V12.5C3 12.5928 3.02582 12.6837 3.07456 12.7627C3.12331 12.8416 3.19305 12.9054 3.276 12.947C4.74621 13.6639 6.36452 14.0246 8 14C9.63548 14.0246 11.2538 13.6639 12.724 12.947C12.8069 12.9054 12.8767 12.8416 12.9254 12.7627C12.9742 12.6837 13 12.5928 13 12.5V10.984C14.0586 10.9735 15.0756 10.5705 15.854 9.85298C15.9232 9.78385 15.9706 9.69593 15.9903 9.60013C16.0101 9.50432 16.0012 9.40483 15.965 9.31398C15.5744 8.42386 15.2534 7.50476 15.005 6.56498ZM11 5.70698L11.634 6.34098C11.428 6.42298 11.214 6.48998 11 6.55698V5.70698ZM3.146 6.14598C3.09562 6.19874 3.05739 6.26188 3.034 6.33098C3.02645 6.35648 3.0211 6.38257 3.018 6.40898C3.00905 6.43866 3.00302 6.46914 3 6.49998V9.97198C2.31908 9.95351 1.65782 9.73968 1.095 9.35598C1.52059 8.44778 1.82487 7.48755 2 6.49998L1.974 6.34198C1.63198 5.35851 1.34421 4.35701 1.112 3.34198C2.116 3.79932 3.27133 4.25565 4.578 4.71098L3.146 6.14598ZM5 5.70698V6.55798C4.786 6.49098 4.572 6.42398 4.366 6.34198L5 5.70698ZM12 12.185C10.7411 12.7422 9.37653 13.0202 8 13C6.62347 13.0202 5.25887 12.7422 4 12.185V7.25398C5.27306 7.7572 6.63113 8.01048 8 7.99998C9.36887 8.01048 10.7269 7.7572 12 7.25398V12.185ZM13 9.97298V6.49998C12.9968 6.46981 12.9908 6.44001 12.982 6.41098C12.9789 6.38457 12.9735 6.35848 12.966 6.33298C12.9424 6.26344 12.9039 6.19993 12.853 6.14698L11.421 4.71398C12.7283 4.25865 13.8837 3.80232 14.887 3.34498C14.6548 4.36001 14.367 5.36151 14.025 6.34498L14 6.49998C14.175 7.48789 14.4793 8.44847 14.905 9.35698C14.3421 9.74033 13.6808 9.9548 13 9.97298Z" fill="#3B64FC"/>
</g>
<defs>
<clipPath id="clip0_2461_29807">
<rect width="16" height="16" fill="white"/>
</clipPath>
</defs>
</svg>
