<svg viewBox="0 0 16 16" fill="none" xmlns="http://www.w3.org/2000/svg">
<path opacity="0.2" d="M0 13C8.91842e-06 12.6489 0.0924279 12.304 0.267968 12C0.443509 11.696 0.695985 11.4435 1.00002 11.268C1.30406 11.0925 1.64894 11 2.00001 11.0001C2.35108 11.0001 2.69597 11.0925 3 11.268V3C3 2.46957 3.21071 1.96086 3.58579 1.58579C3.96086 1.21071 4.46957 1 5 1H14C14.5304 1 15.0391 1.21071 15.4142 1.58579C15.7893 1.96086 16 2.46957 16 3C16 3.53043 15.7893 4.03914 15.4142 4.41421C15.0391 4.78929 14.5304 5 14 5V12.5C14 13.163 13.7366 13.7989 13.2678 14.2678C12.7989 14.7366 12.163 15 11.5 15H2C1.46957 15 0.960859 14.7893 0.585786 14.4142C0.210714 14.0391 0 13.5304 0 13Z" fill="#4F87FE"/>
<path d="M0 13C8.91842e-06 12.6489 0.0924279 12.304 0.267968 12C0.443509 11.696 0.695985 11.4435 1.00002 11.268C1.30406 11.0925 1.64894 11 2.00001 11.0001C2.35108 11.0001 2.69597 11.0925 3 11.268V3C3 2.46957 3.21071 1.96086 3.58579 1.58579C3.96086 1.21071 4.46957 1 5 1H14C14.5304 1 15.0391 1.21071 15.4142 1.58579C15.7893 1.96086 16 2.46957 16 3C16 3.53043 15.7893 4.03914 15.4142 4.41421C15.0391 4.78929 14.5304 5 14 5V12.5C14 13.163 13.7366 13.7989 13.2678 14.2678C12.7989 14.7366 12.163 15 11.5 15H2C1.46957 15 0.960859 14.7893 0.585786 14.4142C0.210714 14.0391 0 13.5304 0 13ZM11.5 14C11.8978 14 12.2794 13.842 12.5607 13.5607C12.842 13.2794 13 12.8978 13 12.5V5H5C4.64887 5.00041 4.30387 4.90795 4 4.732V13C4.00041 13.3511 3.90795 13.6961 3.732 14H11.5ZM7 3C7.00041 3.35113 6.90795 3.69613 6.732 4H14C14.2652 4 14.5196 3.89464 14.7071 3.70711C14.8946 3.51957 15 3.26522 15 3C15 2.73478 14.8946 2.48043 14.7071 2.29289C14.5196 2.10536 14.2652 2 14 2H6.732C6.90795 2.30387 7.00041 2.64887 7 3ZM5 4C5.19778 4 5.39112 3.94135 5.55557 3.83147C5.72002 3.72159 5.84819 3.56541 5.92388 3.38268C5.99957 3.19996 6.01937 2.99889 5.98079 2.80491C5.9422 2.61093 5.84696 2.43275 5.70711 2.29289C5.56725 2.15304 5.38907 2.0578 5.19509 2.01921C5.00111 1.98063 4.80004 2.00043 4.61732 2.07612C4.43459 2.15181 4.27841 2.27998 4.16853 2.44443C4.05865 2.60888 4 2.80222 4 3C4 3.26522 4.10536 3.51957 4.29289 3.70711C4.48043 3.89464 4.73478 4 5 4ZM2 14C2.19778 14 2.39112 13.9414 2.55557 13.8315C2.72002 13.7216 2.84819 13.5654 2.92388 13.3827C2.99957 13.2 3.01937 12.9989 2.98079 12.8049C2.9422 12.6109 2.84696 12.4327 2.70711 12.2929C2.56725 12.153 2.38907 12.0578 2.19509 12.0192C2.00111 11.9806 1.80004 12.0004 1.61732 12.0761C1.43459 12.1518 1.27841 12.28 1.16853 12.4444C1.05865 12.6089 1 12.8022 1 13C1 13.2652 1.10536 13.5196 1.29289 13.7071C1.48043 13.8946 1.73478 14 2 14Z" fill="#3B64FC"/>
</svg>
