<svg viewBox="0 0 16 16" fill="none" xmlns="http://www.w3.org/2000/svg">
<path opacity="0.2" d="M0 4.50004C5.20794e-06 4.42227 0.0181527 4.34557 0.053 4.27604C0.8 2.78904 1.783 2.00004 3 2.00004C3.834 2.00004 4.249 2.33204 4.9 3.20004C5.374 3.83204 5.584 4.00004 6 4.00004C6.368 4.00004 6.591 3.85304 7 3.38404L7.185 3.17104C7.44578 2.80152 7.79317 2.50156 8.19676 2.29742C8.60034 2.09327 9.04781 1.99117 9.5 2.00004C9.95202 1.99133 10.3993 2.09352 10.8027 2.29765C11.2061 2.50179 11.5533 2.80167 11.814 3.17104L12 3.38404C12.41 3.85304 12.633 4.00004 13 4.00004C13.783 4.00004 14.463 3.45604 15.053 2.27604C15.1034 2.17539 15.1864 2.09471 15.2884 2.04706C15.3904 1.99941 15.5055 1.98759 15.6151 2.0135C15.7247 2.03942 15.8223 2.10156 15.8921 2.18986C15.962 2.27816 16 2.38745 16 2.50004V11.5C16 11.5778 15.9818 11.6545 15.947 11.724C15.2 13.211 14.217 14 13 14C12.6519 13.9946 12.3103 13.9046 12.0047 13.7377C11.6991 13.5708 11.4387 13.332 11.246 13.042L11.061 12.829C10.8885 12.5737 10.6559 12.3646 10.3838 12.2201C10.1116 12.0755 9.80816 11.9999 9.5 11.9999C9.19184 11.9999 8.88838 12.0755 8.61623 12.2201C8.34408 12.3646 8.11154 12.5737 7.939 12.829L7.754 13.042C7.56129 13.332 7.30091 13.5708 6.99533 13.7377C6.68975 13.9046 6.34815 13.9946 6 14C5.65153 14.0059 5.30934 13.907 5.0178 13.716C4.72626 13.525 4.49883 13.2508 4.365 12.929L4.265 12.765C4.16213 12.5202 3.98426 12.3142 3.75697 12.1767C3.52968 12.0393 3.26466 11.9774 3 12C2.52004 11.9589 2.0427 12.1044 1.66736 12.4064C1.29202 12.7083 1.0476 13.1434 0.985 13.621C0.955352 13.7393 0.883491 13.8427 0.78294 13.9117C0.682389 13.9807 0.560082 14.0106 0.439037 13.9958C0.317991 13.9809 0.206553 13.9223 0.125695 13.831C0.044837 13.7397 0.000134455 13.622 0 13.5V4.50004Z" fill="#4F87FE"/>
<path fill-rule="evenodd" clip-rule="evenodd" d="M7.75367 4.0413C7.53907 4.28738 7.30016 4.53778 7.01394 4.71635C6.68184 4.92353 6.34549 5.00004 6 5.00004C5.61798 5.00004 5.24281 4.91127 4.87746 4.6413C4.58194 4.42292 4.33326 4.11105 4.1 3.80004C3.78373 3.37835 3.60314 3.19873 3.46675 3.10847C3.37402 3.0471 3.26439 3.00004 3 3.00004C2.33571 3.00004 1.64585 3.38717 1 4.62077V11.6604C1.0134 11.6493 1.02692 11.6382 1.04055 11.6272C1.59513 11.1811 2.29483 10.9574 3.00349 10.9979C3.44912 10.9774 3.89158 11.0895 4.27445 11.321C4.65816 11.5531 4.96344 11.8938 5.15218 12.2992L5.25882 12.4741L5.28834 12.5451C5.34521 12.6818 5.44186 12.7983 5.56575 12.8795C5.68964 12.9606 5.83506 13.0027 5.98314 13.0002L5.98446 13.0002C6.17038 12.9973 6.3528 12.9492 6.51599 12.8601C6.67917 12.7709 6.81822 12.6434 6.92113 12.4886L6.95678 12.4349L7.14855 12.2141C7.40839 11.8482 7.75024 11.5477 8.14714 11.3369C8.56375 11.1156 9.02827 10.9999 9.5 10.9999C9.97173 10.9999 10.4363 11.1156 10.8529 11.3369C11.2498 11.5477 11.5916 11.8482 11.8515 12.2141L12.0432 12.4349L12.0789 12.4886C12.1818 12.6434 12.3208 12.7709 12.484 12.8601C12.645 12.948 12.8247 12.996 13.0081 13C13.6699 12.9969 14.3568 12.6079 15 11.3793V4.10664C14.4616 4.65731 13.8034 5.00004 13 5.00004C12.6544 5.00004 12.3185 4.92326 11.9868 4.71635C11.7011 4.53808 11.4621 4.28813 11.2471 4.04221L11.0268 3.78988L10.997 3.74766C10.8305 3.51177 10.6088 3.32027 10.3512 3.18991C10.0936 3.05955 9.80793 2.9943 9.51927 2.99986L9.49982 3.00023L9.48038 2.99985C9.19161 2.99418 8.90586 3.05939 8.64813 3.18975C8.3904 3.32012 8.16856 3.51168 8.00202 3.74765L7.973 3.78878L7.75367 4.0413ZM16 2.50004V11.5C16 11.5778 15.9818 11.6545 15.947 11.724C15.2 13.211 14.217 14 13 14C12.6519 13.9946 12.3103 13.9046 12.0047 13.7377C11.6991 13.5708 11.4387 13.332 11.246 13.042L11.061 12.829C10.8885 12.5737 10.6559 12.3646 10.3838 12.2201C10.1116 12.0755 9.80816 11.9999 9.5 11.9999C9.19184 11.9999 8.88838 12.0755 8.61623 12.2201C8.34408 12.3646 8.11154 12.5737 7.939 12.829L7.754 13.042C7.56129 13.332 7.30091 13.5708 6.99533 13.7377C6.68975 13.9046 6.34815 13.9946 6 14C5.65153 14.0059 5.30934 13.907 5.0178 13.716C4.72626 13.525 4.49883 13.2508 4.365 12.929L4.265 12.765C4.16213 12.5202 3.98426 12.3142 3.75697 12.1767C3.52968 12.0393 3.26466 11.9774 3 12C2.52004 11.9589 2.0427 12.1044 1.66736 12.4064C1.29202 12.7083 1.0476 13.1434 0.985 13.621C0.955352 13.7393 0.883491 13.8427 0.78294 13.9117C0.682389 13.9808 0.560082 14.0106 0.439037 13.9958C0.317991 13.9809 0.206553 13.9223 0.125695 13.831C0.044837 13.7397 0.000134455 13.622 0 13.5V4.50004C5.20794e-06 4.42227 0.0181527 4.34557 0.053 4.27604C0.8 2.78904 1.783 2.00004 3 2.00004C3.834 2.00004 4.249 2.33204 4.9 3.20004C5.374 3.83204 5.584 4.00004 6 4.00004C6.368 4.00004 6.591 3.85304 7 3.38404L7.185 3.17104C7.44579 2.80152 7.79317 2.50156 8.19676 2.29742C8.60034 2.09327 9.04781 1.99117 9.5 2.00004C9.95202 1.99133 10.3993 2.09352 10.8027 2.29765C11.2061 2.50179 11.5533 2.80167 11.814 3.17104L12 3.38404C12.41 3.85304 12.633 4.00004 13 4.00004C13.783 4.00004 14.463 3.45604 15.053 2.27604C15.1034 2.17539 15.1864 2.09471 15.2884 2.04706C15.3904 1.99941 15.5055 1.98759 15.6151 2.0135C15.7247 2.03942 15.8223 2.10156 15.8921 2.18986C15.962 2.27816 16 2.38745 16 2.50004Z" fill="#3B64FC"/>
</svg>
