<svg viewBox="0 0 16 16" fill="none" xmlns="http://www.w3.org/2000/svg">
<g clip-path="url(#clip0_2461_29771)">
<path opacity="0.2" d="M3.22802 9.93496L0.146019 6.85396C0.0825707 6.79062 0.0373193 6.71139 0.015004 6.62456C-0.00731125 6.53773 -0.00586951 6.44649 0.0191783 6.36041C0.0442261 6.27433 0.0919584 6.19656 0.157377 6.13526C0.222795 6.07396 0.303493 6.03137 0.391019 6.01196L4.67902 5.05896L7.06902 0.999964C7.11317 0.924892 7.17616 0.862653 7.25175 0.819409C7.32735 0.776166 7.41293 0.753418 7.50002 0.753418C7.58711 0.753418 7.67269 0.776166 7.74829 0.819409C7.82388 0.862653 7.88687 0.924892 7.93102 0.999964L10.321 5.06296L14.609 6.01596C14.6965 6.03537 14.7772 6.07796 14.8427 6.13926C14.9081 6.20057 14.9558 6.27833 14.9809 6.36441C15.0059 6.45049 15.0073 6.54173 14.985 6.62856C14.9627 6.71539 14.9175 6.79462 14.854 6.85796L11.772 9.93496L12.247 14.448C12.2564 14.5381 12.2412 14.6291 12.2029 14.7112C12.1646 14.7933 12.1048 14.8635 12.0297 14.9142C11.9546 14.965 11.8672 14.9943 11.7767 14.9992C11.6862 15.0041 11.5961 14.9843 11.516 14.942L7.50002 12.816L3.48402 14.942C3.40392 14.9843 3.31382 15.0041 3.22334 14.9992C3.13287 14.9943 3.04542 14.965 2.97035 14.9142C2.89528 14.8635 2.8354 14.7933 2.79712 14.7112C2.75884 14.6291 2.7436 14.5381 2.75302 14.448L3.22802 9.93496Z" fill="#4F87FE"/>
<path fill-rule="evenodd" clip-rule="evenodd" d="M4.27247 9.56509L3.8458 13.619L7.50002 11.6845L11.1542 13.619L10.7275 9.5647L13.5023 6.7944L9.67957 5.9448L7.49981 2.23921L5.32022 5.94086L1.49703 6.79055L4.27247 9.56509ZM14.3921 6.99215C14.3922 6.99217 14.3919 6.99212 14.3921 6.99215ZM11.516 14.942L7.50002 12.816L3.48402 14.942C3.40392 14.9843 3.31382 15.0041 3.22334 14.9992C3.13287 14.9943 3.04542 14.965 2.97035 14.9142C2.89528 14.8635 2.8354 14.7933 2.79712 14.7112C2.75884 14.6291 2.7436 14.5381 2.75302 14.448L3.22802 9.93496L0.146019 6.85396C0.0825707 6.79062 0.0373193 6.71139 0.015004 6.62456C-0.00731125 6.53773 -0.00586951 6.44649 0.0191783 6.36041C0.0442261 6.27433 0.0919584 6.19656 0.157377 6.13526C0.222795 6.07396 0.303493 6.03137 0.391019 6.01196L4.67902 5.05896L7.06902 0.999964C7.11317 0.924892 7.17616 0.862653 7.25175 0.819409C7.32735 0.776166 7.41293 0.753418 7.50002 0.753418C7.58711 0.753418 7.67269 0.776166 7.74829 0.819409C7.82388 0.862653 7.88687 0.924892 7.93102 0.999964L10.321 5.06296L14.609 6.01596C14.6965 6.03537 14.7772 6.07796 14.8427 6.13926C14.9081 6.20056 14.9558 6.27833 14.9809 6.36441C15.0059 6.45049 15.0073 6.54173 14.985 6.62856C14.9627 6.71539 14.9175 6.79462 14.854 6.85796L11.772 9.93496L12.247 14.448C12.2564 14.5381 12.2412 14.6291 12.2029 14.7112C12.1646 14.7933 12.1048 14.8635 12.0297 14.9142C11.9546 14.965 11.8672 14.9943 11.7767 14.9992C11.6862 15.0041 11.5961 14.9843 11.516 14.942Z" fill="#3B64FC"/>
</g>
<defs>
<clipPath id="clip0_2461_29771">
<rect width="16" height="16" fill="white"/>
</clipPath>
</defs>
</svg>
