<svg viewBox="0 0 16 16" fill="none" xmlns="http://www.w3.org/2000/svg">
<path opacity="0.2" d="M2.969 7.99984L1.069 4.75284C1.02445 4.6769 1.00075 4.59055 1.00027 4.50251C0.999805 4.41447 1.02259 4.32787 1.06632 4.25146C1.11006 4.17505 1.17319 4.11154 1.24934 4.06736C1.32549 4.02318 1.41196 3.99989 1.5 3.99984H5.311L7.068 0.999839C7.11208 0.924536 7.17511 0.86208 7.25081 0.818678C7.3265 0.775277 7.41224 0.752441 7.4995 0.752441C7.58676 0.752441 7.6725 0.775277 7.7482 0.818678C7.8239 0.86208 7.88692 0.924536 7.931 0.999839L9.689 3.99984H13.5C13.5881 3.99971 13.6747 4.02287 13.751 4.06699C13.8273 4.1111 13.8906 4.17459 13.9344 4.25103C13.9783 4.32746 14.0012 4.41414 14.0007 4.50226C14.0003 4.59038 13.9766 4.67683 13.932 4.75284L12.031 7.99984L13.931 11.2468C13.9755 11.3228 13.9993 11.4091 13.9997 11.4972C14.0002 11.5852 13.9774 11.6718 13.9337 11.7482C13.8899 11.8246 13.8268 11.8881 13.7507 11.9323C13.6745 11.9765 13.588 11.9998 13.5 11.9998H9.689L7.932 14.9998C7.88792 15.0751 7.8249 15.1376 7.7492 15.181C7.6735 15.2244 7.58776 15.2472 7.5005 15.2472C7.41324 15.2472 7.3275 15.2244 7.25181 15.181C7.17611 15.1376 7.11308 15.0751 7.069 14.9998L5.311 11.9998H1.5C1.41188 12 1.32528 11.9768 1.24899 11.9327C1.1727 11.8886 1.10943 11.8251 1.06557 11.7487C1.02172 11.6722 0.998847 11.5855 0.999273 11.4974C0.9997 11.4093 1.02341 11.3229 1.068 11.2468L2.969 7.99984Z" fill="#4F87FE"/>
<path fill-rule="evenodd" clip-rule="evenodd" d="M4.1277 7.99997L2.37139 10.9998H5.88405L7.50038 13.7581L9.11579 10.9998H12.6278L10.8723 7.99971L12.6286 4.99984H9.11595L7.49962 2.2416L5.88422 4.99984H2.37216L4.1277 7.99997ZM1.5 3.99984C1.41196 3.99989 1.32549 4.02318 1.24934 4.06736C1.17319 4.11154 1.11006 4.17505 1.06632 4.25146C1.02259 4.32787 0.999805 4.41447 1.00027 4.50251C1.00075 4.59055 1.02445 4.6769 1.069 4.75284L2.969 7.99984L1.068 11.2468C1.02341 11.3229 0.9997 11.4093 0.999273 11.4974C0.998847 11.5855 1.02172 11.6722 1.06557 11.7487C1.10943 11.8251 1.1727 11.8886 1.24899 11.9327C1.32528 11.9768 1.41188 12 1.5 11.9998H5.311L7.069 14.9998C7.11308 15.0751 7.17611 15.1376 7.25181 15.181C7.3275 15.2244 7.41324 15.2472 7.5005 15.2472C7.58776 15.2472 7.6735 15.2244 7.7492 15.181C7.8249 15.1376 7.88792 15.0751 7.932 14.9998L9.689 11.9998H13.5C13.588 11.9998 13.6745 11.9765 13.7507 11.9323C13.8268 11.8881 13.8899 11.8246 13.9337 11.7482C13.9774 11.6718 14.0002 11.5852 13.9997 11.4972C13.9993 11.4091 13.9755 11.3228 13.931 11.2468L12.031 7.99984L13.932 4.75284C13.9766 4.67683 14.0003 4.59038 14.0007 4.50226C14.0012 4.41414 13.9783 4.32746 13.9344 4.25103C13.8906 4.17459 13.8273 4.1111 13.751 4.06699C13.6747 4.02287 13.5881 3.99971 13.5 3.99984H9.689L7.931 0.999839C7.88692 0.924536 7.8239 0.86208 7.7482 0.818678C7.6725 0.775277 7.58676 0.752441 7.4995 0.752441C7.41224 0.752441 7.3265 0.775277 7.25081 0.818678C7.17511 0.86208 7.11208 0.924536 7.068 0.999839L5.311 3.99984H1.5ZM7.069 14.4946C7.06888 14.4948 7.06912 14.4944 7.069 14.4946Z" fill="#3B64FC"/>
</svg>
