<svg viewBox="0 0 16 16" fill="none" xmlns="http://www.w3.org/2000/svg">
<g clip-path="url(#clip0_2461_29775)">
<path opacity="0.2" d="M5.26577 2.99978L7.61577 0.179775C7.66269 0.123505 7.72141 0.0782346 7.78777 0.0471686C7.85412 0.0161027 7.9265 0 7.99977 0C8.07304 0 8.14541 0.0161027 8.21177 0.0471686C8.27812 0.0782346 8.33684 0.123505 8.38377 0.179775L10.7338 2.99978H14.4998C14.5771 2.99975 14.6535 3.01769 14.7227 3.05217C14.792 3.08665 14.8523 3.13673 14.8989 3.19847C14.9455 3.26022 14.9772 3.33194 14.9914 3.408C15.0056 3.48405 15.002 3.56237 14.9808 3.63678L14.0448 6.91477L15.9168 9.72277C15.9562 9.78175 15.9826 9.84844 15.9943 9.91841C16.0059 9.98838 16.0026 10.06 15.9844 10.1286C15.9662 10.1972 15.9337 10.2611 15.8889 10.3161C15.8442 10.3712 15.7882 10.416 15.7248 10.4478L12.9308 11.8478L11.9868 15.6248C11.9681 15.6997 11.9322 15.7692 11.8821 15.828C11.8321 15.8867 11.769 15.9331 11.698 15.9634C11.627 15.9937 11.55 16.0072 11.4729 16.0027C11.3958 15.9983 11.3208 15.9761 11.2538 15.9378L7.99977 14.0758L4.74777 15.9338C4.68072 15.9721 4.60572 15.9943 4.52864 15.9987C4.45156 16.0032 4.3745 15.9897 4.3035 15.9594C4.2325 15.9291 4.16948 15.8827 4.11938 15.824C4.06929 15.7652 4.03348 15.6957 4.01477 15.6208L3.07077 11.8438L0.276767 10.4438C0.210001 10.4105 0.151536 10.3626 0.105661 10.3038C0.0597867 10.2449 0.0276647 10.1766 0.0116508 10.1037C-0.00436311 10.0308 -0.00386287 9.95527 0.0131148 9.88261C0.0300925 9.80995 0.0631172 9.74201 0.109767 9.68377L1.95477 7.38077L1.01477 3.62078C0.996388 3.54708 0.995037 3.47017 1.01082 3.39588C1.0266 3.32159 1.0591 3.25187 1.10585 3.19201C1.15259 3.13216 1.21236 3.08374 1.28062 3.05043C1.34887 3.01712 1.42382 2.9998 1.49977 2.99978H5.26577Z" fill="#4F87FE"/>
<path fill-rule="evenodd" clip-rule="evenodd" d="M5.73414 3.99978H2.14029L3.04514 7.61914L1.27685 9.82638L3.92952 11.1556L4.82489 14.738L8.00015 12.9239L11.1768 14.7416L12.072 11.1596L14.7711 9.8071L12.9563 7.08478L13.8371 3.99978H10.2654L7.99977 1.28103L5.73414 3.99978ZM8.38377 0.179775L10.7338 2.99978H14.4998C14.5771 2.99975 14.6535 3.01769 14.7227 3.05217C14.792 3.08665 14.8523 3.13673 14.8989 3.19847C14.9455 3.26022 14.9772 3.33194 14.9914 3.408C15.0056 3.48405 15.002 3.56237 14.9808 3.63678L14.0448 6.91477L15.9168 9.72277C15.9562 9.78175 15.9826 9.84844 15.9943 9.91841C16.0059 9.98839 16.0026 10.06 15.9844 10.1286C15.9662 10.1972 15.9337 10.2611 15.8889 10.3161C15.8442 10.3712 15.7882 10.416 15.7248 10.4478L12.9308 11.8478L11.9868 15.6248C11.9681 15.6997 11.9322 15.7692 11.8821 15.828C11.8321 15.8867 11.769 15.9331 11.698 15.9634C11.627 15.9937 11.55 16.0072 11.4729 16.0027C11.3958 15.9983 11.3208 15.9761 11.2538 15.9378L7.99977 14.0758L4.74777 15.9338C4.68072 15.9721 4.60572 15.9943 4.52864 15.9987C4.45156 16.0032 4.3745 15.9897 4.3035 15.9594C4.2325 15.9291 4.16948 15.8827 4.11938 15.824C4.06929 15.7652 4.03348 15.6957 4.01477 15.6208L3.07077 11.8438L0.276767 10.4438C0.210001 10.4105 0.151536 10.3626 0.105661 10.3038C0.0597867 10.2449 0.0276647 10.1766 0.0116508 10.1037C-0.00436311 10.0308 -0.00386287 9.95527 0.0131148 9.88261C0.0300925 9.80995 0.0631172 9.74201 0.109767 9.68377L1.95477 7.38077L1.01477 3.62078C0.996388 3.54708 0.995037 3.47017 1.01082 3.39588C1.0266 3.32159 1.0591 3.25187 1.10585 3.19201C1.15259 3.13216 1.21236 3.08374 1.28062 3.05043C1.34887 3.01712 1.42382 2.9998 1.49977 2.99978H5.26577L7.61577 0.179775C7.66269 0.123505 7.72141 0.0782346 7.78777 0.0471686C7.85413 0.0161027 7.9265 0 7.99977 0C8.07304 0 8.14541 0.0161027 8.21177 0.0471686C8.27812 0.0782346 8.33684 0.123505 8.38377 0.179775Z" fill="#3B64FC"/>
</g>
<defs>
<clipPath id="clip0_2461_29775">
<rect width="16" height="16" fill="white"/>
</clipPath>
</defs>
</svg>
