<svg viewBox="0 0 16 16" fill="none" xmlns="http://www.w3.org/2000/svg">
<g clip-path="url(#clip0_2461_29777)">
<path opacity="0.2" fill-rule="evenodd" clip-rule="evenodd" d="M8.35369 0.853478C8.15843 0.658218 7.84186 0.658215 7.64659 0.853473L5.50019 2.99982H3.50005C3.22391 2.99982 3.00005 3.22368 3.00005 3.49982V5.4999L0.853727 7.64617C0.658462 7.84143 0.658458 8.15801 0.853716 8.35328L3.00005 10.4997V12.4998C3.00005 12.776 3.22391 12.9998 3.50005 12.9998H5.50012L7.64648 15.1463C7.84174 15.3415 8.15833 15.3415 8.35359 15.1463L10.5 12.9998H12.5C12.7762 12.9998 13 12.776 13 12.4998V10.4998L15.1465 8.35338C15.3417 8.15812 15.3417 7.84154 15.1465 7.64627L13 5.49983V3.49982C13 3.22368 12.7762 2.99982 12.5 2.99982H10.5L8.35369 0.853478Z" fill="#4F87FE"/>
<path fill-rule="evenodd" clip-rule="evenodd" d="M5.91439 3.99982H4.00005V5.91412L1.91438 7.99974L4.00005 10.0855V11.9998H5.91434L8.00005 14.0856L10.0858 11.9998H12V10.0856L14.0858 7.99983L12 5.91404V3.99982H10.0858L8.00014 1.91413L5.91439 3.99982ZM7.64659 0.853473C7.84186 0.658215 8.15843 0.658218 8.35369 0.853478L10.5 2.99982H12.5C12.7762 2.99982 13 3.22368 13 3.49982V5.49983L15.1465 7.64627C15.3417 7.84154 15.3417 8.15812 15.1465 8.35338L13 10.4998V12.4998C13 12.776 12.7762 12.9998 12.5 12.9998H10.5L8.35359 15.1463C8.15833 15.3415 7.84174 15.3415 7.64648 15.1463L5.50012 12.9998H3.50005C3.22391 12.9998 3.00005 12.776 3.00005 12.4998V10.4997L0.853716 8.35328C0.658458 8.15801 0.658462 7.84143 0.853727 7.64617L3.00005 5.4999V3.49982C3.00005 3.22368 3.22391 2.99982 3.50005 2.99982H5.50019L7.64659 0.853473Z" fill="#3B64FC"/>
<path d="M7.75 6C7.55109 6 7.36032 6.07902 7.21967 6.21967C7.07902 6.36032 7 6.55109 7 6.75C7 6.94891 7.07902 7.13968 7.21967 7.28033C7.36032 7.42098 7.55109 7.5 7.75 7.5H8.5C8.96413 7.5 9.40925 7.68437 9.73744 8.01256C10.0656 8.34075 10.25 8.78587 10.25 9.25C10.25 9.71413 10.0656 10.1592 9.73744 10.4874C9.40925 10.8156 8.96413 11 8.5 11H7.5C7.03587 11 6.59075 10.8156 6.26256 10.4874C5.93437 10.1592 5.75 9.71413 5.75 9.25C5.75 8.78587 5.93437 8.34075 6.26256 8.01256C6.59075 7.68437 7.03587 7.5 7.5 7.5H8.25C8.44891 7.5 8.63968 7.42098 8.78033 7.28033C8.92098 7.13968 9 6.94891 9 6.75C9 6.55109 8.92098 6.36032 8.78033 6.21967C8.63968 6.07902 8.44891 6 8.25 6H7.75ZM7.5 8.5C7.30109 8.5 7.11032 8.57902 6.96967 8.71967C6.82902 8.86032 6.75 9.05109 6.75 9.25C6.75 9.44891 6.82902 9.63968 6.96967 9.78033C7.11032 9.92098 7.30109 10 7.5 10H8.5C8.69891 10 8.88968 9.92098 9.03033 9.78033C9.17098 9.63968 9.25 9.44891 9.25 9.25C9.25 9.05109 9.17098 8.86032 9.03033 8.71967C8.88968 8.57902 8.69891 8.5 8.5 8.5H7.5ZM7.75 8.5C7.28587 8.5 6.84075 8.31563 6.51256 7.98744C6.18437 7.65925 6 7.21413 6 6.75C6 6.28587 6.18437 5.84075 6.51256 5.51256C6.84075 5.18437 7.28587 5 7.75 5H8.25C8.71413 5 9.15925 5.18437 9.48744 5.51256C9.81563 5.84075 10 6.28587 10 6.75C10 7.21413 9.81563 7.65925 9.48744 7.98744C9.15925 8.31563 8.71413 8.5 8.25 8.5H7.75Z" fill="#2453DE"/>
</g>
<defs>
<clipPath id="clip0_2461_29777">
<rect width="16" height="16" fill="white"/>
</clipPath>
</defs>
</svg>
