<svg viewBox="0 0 16 16" fill="none" xmlns="http://www.w3.org/2000/svg">
<g clip-path="url(#clip0_2461_29781)">
<path opacity="0.2" fill-rule="evenodd" clip-rule="evenodd" d="M8.35369 0.853478C8.15843 0.658218 7.84186 0.658215 7.64659 0.853473L5.50019 2.99982H3.50005C3.22391 2.99982 3.00005 3.22368 3.00005 3.49982V5.4999L0.853727 7.64617C0.658462 7.84143 0.658458 8.15801 0.853716 8.35328L3.00005 10.4997V12.4998C3.00005 12.776 3.22391 12.9998 3.50005 12.9998H5.50012L7.64648 15.1463C7.84174 15.3415 8.15833 15.3415 8.35359 15.1463L10.5 12.9998H12.5C12.7762 12.9998 13 12.776 13 12.4998V10.4998L15.1465 8.35338C15.3417 8.15812 15.3417 7.84154 15.1465 7.64627L13 5.49983V3.49982C13 3.22368 12.7762 2.99982 12.5 2.99982H10.5L8.35369 0.853478Z" fill="#4F87FE"/>
<path fill-rule="evenodd" clip-rule="evenodd" d="M5.91439 3.99982H4.00005V5.91412L1.91438 7.99974L4.00005 10.0855V11.9998H5.91434L8.00005 14.0856L10.0858 11.9998H12V10.0856L14.0858 7.99983L12 5.91404V3.99982H10.0858L8.00014 1.91413L5.91439 3.99982ZM7.64659 0.853473C7.84186 0.658215 8.15843 0.658218 8.35369 0.853478L10.5 2.99982H12.5C12.7762 2.99982 13 3.22368 13 3.49982V5.49983L15.1465 7.64627C15.3417 7.84154 15.3417 8.15812 15.1465 8.35338L13 10.4998V12.4998C13 12.776 12.7762 12.9998 12.5 12.9998H10.5L8.35359 15.1463C8.15833 15.3415 7.84174 15.3415 7.64648 15.1463L5.50012 12.9998H3.50005C3.22391 12.9998 3.00005 12.776 3.00005 12.4998V10.4997L0.853716 8.35328C0.658458 8.15801 0.658462 7.84143 0.853727 7.64617L3.00005 5.4999V3.49982C3.00005 3.22368 3.22391 2.99982 3.50005 2.99982H5.50019L7.64659 0.853473Z" fill="#3B64FC"/>
<path d="M7 10H7.5C7.63261 10 7.75979 10.0527 7.85355 10.1464C7.94732 10.2402 8 10.3674 8 10.5C8 10.6326 7.94732 10.7598 7.85355 10.8536C7.75979 10.9473 7.63261 11 7.5 11H5.5C5.36739 11 5.24021 10.9473 5.14645 10.8536C5.05268 10.7598 5 10.6326 5 10.5C5 10.3674 5.05268 10.2402 5.14645 10.1464C5.24021 10.0527 5.36739 10 5.5 10H6V6.707L5.854 6.853C5.7597 6.94408 5.6334 6.99448 5.5023 6.99334C5.3712 6.9922 5.24579 6.93961 5.15309 6.84691C5.06039 6.75421 5.0078 6.6288 5.00666 6.4977C5.00552 6.3666 5.05592 6.2403 5.147 6.146L6.147 5.146C6.21698 5.07624 6.30607 5.02877 6.403 5.0096C6.49994 4.99044 6.60039 5.00042 6.69165 5.0383C6.78292 5.07617 6.86092 5.14024 6.9158 5.22242C6.97068 5.30459 6.99998 5.40118 7 5.5V10ZM9.5 5C9.89782 5 10.2794 5.15804 10.5607 5.43934C10.842 5.72064 11 6.10218 11 6.5V9.5C11 9.89782 10.842 10.2794 10.5607 10.5607C10.2794 10.842 9.89782 11 9.5 11C9.10218 11 8.72064 10.842 8.43934 10.5607C8.15804 10.2794 8 9.89782 8 9.5V6.5C8 6.10218 8.15804 5.72064 8.43934 5.43934C8.72064 5.15804 9.10218 5 9.5 5ZM9.5 6C9.36739 6 9.24021 6.05268 9.14645 6.14645C9.05268 6.24021 9 6.36739 9 6.5V9.5C9 9.63261 9.05268 9.75979 9.14645 9.85355C9.24021 9.94732 9.36739 10 9.5 10C9.63261 10 9.75979 9.94732 9.85355 9.85355C9.94732 9.75979 10 9.63261 10 9.5V6.5C10 6.36739 9.94732 6.24021 9.85355 6.14645C9.75979 6.05268 9.63261 6 9.5 6Z" fill="#2453DE"/>
</g>
<defs>
<clipPath id="clip0_2461_29781">
<rect width="16" height="16" fill="white"/>
</clipPath>
</defs>
</svg>
