<svg id="图层_1" data-name="图层 1" 
    xmlns="http://www.w3.org/2000/svg" viewBox="0 0 86 102">
    <defs>
        <style>.cls-1{fill:#fff;}.cls-2{fill-opacity:0.2;}.cls-3{fill-opacity:0.26;}.cls-4{fill:#f9c563;}</style>
    </defs>
    <title>PDF-优化添加3</title>
    <path class="cls-1" d="M1.609,89.5l2.452-2.453L2.4,85.38,1,86.778v2.109Z"/>
    <path class="cls-2" d="M83,0H3A3,3,0,0,0,0,3V99a3,3,0,0,0,3,3H83a3,3,0,0,0,3-3V3A3,3,0,0,0,83,0Zm0,1a2,2,0,0,1,2,2V99a2,2,0,0,1-2,2H3a2,2,0,0,1-2-2V3A2,2,0,0,1,3,1Z"/>
    <rect class="cls-1" x="1" y="1" width="84" height="100" rx="2" ry="2"/>
    <path class="cls-3" d="M11.107,51.149a4.922,4.922,0,0,1,.284-.726l1.341-3-.161-.093-2.63,3.886.883.221a.192.192,0,0,0,.182-.03A.588.588,0,0,0,11.107,51.149Z"/>
    <path class="cls-3" d="M8.676,47.157c.107.52.171.856.191,1.006a1.543,1.543,0,0,1-.038.53,1.317,1.317,0,0,1-.212.5l.679.238q.144.042.195-.009a.349.349,0,0,0,.076-.178,18.265,18.265,0,0,1,1.782-3.106l-.144-.127-1.841,2.2-.45-2.826q-.186-1.256-.208-1.515a.906.906,0,0,1,.038-.4c.04-.1.041-.163,0-.2s-.109-.047-.216-.03l-.984.1a19.742,19.742,0,0,1,.721,2.13L7,46.784q-.483-2.114-.59-2.83a1.782,1.782,0,0,1,0-.912c.079-.158.1-.256.064-.293s-.109-.047-.216-.03l-1.154.1a18.129,18.129,0,0,1,.857,2.121,10.634,10.634,0,0,1,.475,1.68,1.565,1.565,0,0,1-.085.806L7,47.691c.074.028.127.025.161-.008a.546.546,0,0,0,.1-.17,8.8,8.8,0,0,1,1.1-1.739Q8.514,46.377,8.676,47.157Z"/>
    <path class="cls-3" d="M22.23,30.879a4.328,4.328,0,0,1,1.179.025,5.252,5.252,0,0,1,1.146.331.5.5,0,0,0,.259.064.264.264,0,0,0,.157-.072.374.374,0,0,0,.051-.39,1.207,1.207,0,0,0-.322-.509.665.665,0,0,0-.233-.148.918.918,0,0,0-.416-.025,4.228,4.228,0,0,0-.713.161q-.437.132-1.133.4Z"/>
    <path class="cls-3" d="M17.669,30.935a1.845,1.845,0,0,1,.632.31.3.3,0,0,0,.424-.068.558.558,0,0,0,.182-.437.671.671,0,0,0-.216-.445.474.474,0,0,0-.509-.136,2.212,2.212,0,0,0-.45.178c-.181.09-.413.221-.7.39l.042.161A1.586,1.586,0,0,1,17.669,30.935Z"/>
    <path class="cls-3" d="M18.878,36.675A1.33,1.33,0,0,0,18.534,36a7.2,7.2,0,0,0-.989-.912l-.085.136a2.334,2.334,0,0,1,.433.747,2.215,2.215,0,0,1,.085.84.677.677,0,0,0,.119.475.387.387,0,0,0,.331.161.509.509,0,0,0,.4-.187A.769.769,0,0,0,18.878,36.675Z"/>
    <path class="cls-3" d="M20.923,36.174a2.041,2.041,0,0,0,.458-.339q.585-.552,1.1-1.107t1.073-1.218a1.749,1.749,0,0,0,.416-1.23c0-.113-.02-.184-.059-.212a.28.28,0,0,0-.212-.008,1.535,1.535,0,0,1-.284.038.667.667,0,0,1-.271-.051,1.412,1.412,0,0,1-.31-.182,5.262,5.262,0,0,1-.424-.365l-.119.136c.221.277.388.5.5.67a1.927,1.927,0,0,1,.225.42.386.386,0,0,1,0,.288,1.891,1.891,0,0,1-.174.293q-.144.2-.344.428c-.133.156-.273.318-.42.488s-.3.337-.45.5-.294.311-.424.441c-.164.164-.289.232-.373.2q.246-.84.441-1.706t.322-1.756a2.939,2.939,0,0,1,.132-.573,1.671,1.671,0,0,1,.165-.369c.068-.09.091-.156.068-.195s-.1-.057-.229-.051l-.789.025a12.585,12.585,0,0,1-.14,1.93q-.149,1.023-.454,2.261l-1-1,.051-.221q.077-.262-.178-.161l-1.095.433c.057.045.12.1.191.165l.221.2.233.216q.119.111.2.195l1.112,1.112q-.313,1.163-.581,1.956a15.327,15.327,0,0,1-.564,1.447l.17.085a14.246,14.246,0,0,0,.768-1.438,15.883,15.883,0,0,0,.658-1.7A.535.535,0,0,0,20.923,36.174Z"/>
    <path class="cls-3" d="M16.214,35.572a.677.677,0,0,0,.191.428.4.4,0,0,0,.318.148.456.456,0,0,0,.378-.242.785.785,0,0,0,.03-.539,2.047,2.047,0,0,0-.259-.556,2.983,2.983,0,0,0-.53-.607l5.414-5.414.416,1.23.17-.034a5.162,5.162,0,0,1,.11-1.23,1.337,1.337,0,0,1,.365-.653c.119-.107.161-.19.127-.246s-.133-.082-.3-.076l-1.307.068.085.764-5.354,5.354a2.464,2.464,0,0,0-.2-.153c-.068-.045-.139-.093-.212-.144l-.119.136a2.533,2.533,0,0,1,.475.764A3.221,3.221,0,0,1,16.214,35.572Z"/>
    <path class="cls-3" d="M19.591,31.864a3.617,3.617,0,0,0-1.01.373l.025.178a2.067,2.067,0,0,1,1.247.484q.246.178.382.042a.364.364,0,0,0,.093-.187.744.744,0,0,0,.008-.255.991.991,0,0,0-.076-.272.77.77,0,0,0-.161-.238A.584.584,0,0,0,19.591,31.864Z"/>
    <path class="cls-3" d="M9.957,45.833q0-.933-.068-1.714l3.937,3.937a.766.766,0,0,0,.535.263.957.957,0,0,0,.577-.238q.306-.237,1.2-1.137l.25-.251q.73-.735,1.218-1.251a4.45,4.45,0,0,0,.675-.827,1.105,1.105,0,0,0,.068-.586.864.864,0,0,0-.119-.441.3.3,0,0,0-.28-.042.707.707,0,0,1-.5-.157,9.35,9.35,0,0,1-1.035-.9l-.136.153q1.214,1.383,1.158,1.727a7.586,7.586,0,0,1-1.633,1.922l-.148.148a9.81,9.81,0,0,1-1.014.93.313.313,0,0,1-.433-.025L12.283,45.41l2.6-2.6.348.348c.073.073.133.088.178.042a1.331,1.331,0,0,0,.182-.4.462.462,0,0,0-.055-.505l-.407-.339c-.164-.141-.334-.3-.509-.475l-.916-.916.068-.238c.023-.113.018-.185-.013-.216a.289.289,0,0,0-.208-.038l-.882.136.068.628-.976.976-.11-1.79a1.067,1.067,0,0,1,.136-.7c.107-.136.14-.225.1-.267a.33.33,0,0,0-.233-.064l-.967.034.008.789L9.348,41.153l-.212-.806a.825.825,0,0,1,0-.407c.034-.135.031-.223-.008-.263s-.122-.042-.246-.008l-1,.221a18.766,18.766,0,0,1,1.875,6.016Zm3.064-4.879L14.667,42.6l-1.052,1.052-1.646-1.646Zm.11,3.182L12.07,45.2l-1.646-1.646,1.061-1.061Zm-2.215-4.115.577,2.053L10.347,43.22l-.543.119q-.161-1.026-.365-1.841Z"/>
    <path class="cls-3" d="M27.312,35.877c.1.1.165.143.208.14s.092-.072.148-.208.117-.245.148-.327a.72.72,0,0,0,.051-.195.132.132,0,0,0-.03-.106l-.076-.076c-.113-.091-.255-.215-.424-.373s-.379-.362-.628-.611l-.84-.84.068-.322q.042-.281-.2-.187l-1.146.45c.158.136.3.264.437.386s.256.239.369.352l1.273,1.273L24.91,36.989l-1.731-1.731-.017-.322c0-.1-.016-.163-.047-.182s-.092-.007-.182.038l-.967.56q.475.425.8.747l1.519,1.519L22.705,39.2l-1.324-1.324.042-.28a.2.2,0,0,0-.013-.165c-.025-.037-.078-.044-.157-.021l-1.129.45c.158.136.293.256.4.361s.222.214.335.327l.815.815c.068.068.144.147.229.238l.259.276c.088.093.17.184.246.272s.14.163.191.225c.119.141.2.214.259.216s.115-.075.182-.233a2.57,2.57,0,0,0,.123-.31.639.639,0,0,0,.034-.212.319.319,0,0,0-.055-.165A1.268,1.268,0,0,0,23,39.5l-.059-.059,3.963-3.963Z"/>
    <path class="cls-3" d="M44.957,14.833q0-.933-.068-1.714l3.937,3.937a.766.766,0,0,0,.535.263.957.957,0,0,0,.577-.238q.306-.237,1.205-1.137l.25-.251q.73-.735,1.218-1.251a4.45,4.45,0,0,0,.675-.827,1.105,1.105,0,0,0,.068-.586.864.864,0,0,0-.119-.441.3.3,0,0,0-.28-.042.712.712,0,0,1-.5-.157,9.349,9.349,0,0,1-1.035-.9l-.136.153q1.213,1.383,1.158,1.727a7.586,7.586,0,0,1-1.633,1.922l-.148.147a9.81,9.81,0,0,1-1.014.93.313.313,0,0,1-.433-.025l-1.935-1.935,2.6-2.6.348.348c.073.073.133.088.178.042a1.331,1.331,0,0,0,.182-.4.462.462,0,0,0-.055-.505l-.407-.339c-.164-.141-.334-.3-.509-.475L48.7,9.565l.068-.238c.023-.113.018-.185-.013-.216a.289.289,0,0,0-.208-.038l-.882.136.068.628-.976.976-.11-1.79a1.067,1.067,0,0,1,.136-.7c.107-.136.14-.225.1-.267a.33.33,0,0,0-.233-.064l-.969.032.008.789L44.346,10.15l-.212-.806a.825.825,0,0,1,0-.407c.034-.135.031-.223-.008-.263S44,8.632,43.88,8.666l-1,.221A18.766,18.766,0,0,1,44.754,14.9Zm3.064-4.879L49.667,11.6l-1.052,1.052-1.646-1.646Zm.11,3.182L47.07,14.2l-1.646-1.646,1.061-1.061ZM45.916,9.021l.577,2.053L45.347,12.22l-.543.119q-.16-1.026-.365-1.841Z"/>
    <path class="cls-3" d="M52.979,5.811a.677.677,0,0,0,.119.475.387.387,0,0,0,.331.161.509.509,0,0,0,.4-.187.769.769,0,0,0,.051-.585A1.332,1.332,0,0,0,53.534,5a7.2,7.2,0,0,0-.989-.912l-.085.136a2.334,2.334,0,0,1,.433.747A2.194,2.194,0,0,1,52.979,5.811Z"/>
    <path class="cls-3" d="M46.107,20.149a4.922,4.922,0,0,1,.284-.726l1.341-3-.161-.093-2.63,3.886.883.221a.192.192,0,0,0,.182-.03A.588.588,0,0,0,46.107,20.149Z"/>
    <path class="cls-3" d="M55.346,3.935l-1-1,.051-.221q.076-.262-.178-.161l-1.1.433c.057.045.12.1.191.165l.221.2.233.216q.118.111.2.195l1.112,1.112q-.313,1.163-.581,1.956a15.329,15.329,0,0,1-.564,1.447l.17.085a14.246,14.246,0,0,0,.768-1.438,15.883,15.883,0,0,0,.658-1.7.535.535,0,0,0,.39-.051,2.041,2.041,0,0,0,.458-.339q.585-.552,1.1-1.107t1.073-1.218a1.749,1.749,0,0,0,.416-1.23c0-.113-.02-.184-.059-.212a.28.28,0,0,0-.212-.008,1.535,1.535,0,0,1-.284.038.674.674,0,0,1-.272-.051c-.026-.011-.055-.036-.08-.048h-.492c.086.115.16.218.218.3a1.927,1.927,0,0,1,.225.42.386.386,0,0,1,0,.288,1.891,1.891,0,0,1-.174.293q-.144.195-.344.428c-.133.156-.273.318-.42.488s-.3.337-.45.5-.294.311-.424.441c-.164.164-.289.232-.373.2q.246-.84.441-1.706c.123-.546.223-1.1.305-1.662h-.7c-.022.222-.041.443-.074.674Q55.651,2.7,55.346,3.935Z"/>
    <path class="cls-3" d="M41.444,15.622a1.555,1.555,0,0,1-.085.806l.636.263c.074.028.127.025.161-.008a.546.546,0,0,0,.1-.17,8.8,8.8,0,0,1,1.1-1.739q.16.6.322,1.383c.107.52.171.856.191,1.006a1.543,1.543,0,0,1-.038.53,1.31,1.31,0,0,1-.212.5l.679.238c.1.028.161.026.195-.008a.349.349,0,0,0,.076-.178,18.265,18.265,0,0,1,1.782-3.106l-.144-.127-1.841,2.2-.45-2.826q-.186-1.255-.208-1.515a.906.906,0,0,1,.038-.4c.04-.1.041-.163,0-.2s-.109-.047-.216-.03l-.984.1a19.742,19.742,0,0,1,.721,2.13L42,15.785q-.483-2.114-.59-2.83a1.782,1.782,0,0,1,0-.912c.079-.158.1-.256.064-.293s-.109-.047-.216-.03l-1.154.1a18.129,18.129,0,0,1,.857,2.121A10.6,10.6,0,0,1,41.444,15.622Z"/>
    <path class="cls-3" d="M50.866,2.815c-.068-.045-.139-.093-.212-.144l-.119.136a2.533,2.533,0,0,1,.475.764,3.22,3.22,0,0,1,.2,1A.672.672,0,0,0,51.4,5a.4.4,0,0,0,.318.148.456.456,0,0,0,.378-.242.785.785,0,0,0,.03-.539,2.047,2.047,0,0,0-.259-.556,2.983,2.983,0,0,0-.53-.607l2.2-2.2h-.509L51.07,2.968A2.464,2.464,0,0,0,50.866,2.815Z"/>
    <path class="cls-3" d="M55.864,7.542l.815.815c.068.068.144.147.229.238l.259.276c.088.093.17.184.246.272s.14.163.191.225c.119.141.205.214.259.216s.115-.075.182-.233a2.57,2.57,0,0,0,.123-.31.639.639,0,0,0,.034-.212.319.319,0,0,0-.055-.165A1.267,1.267,0,0,0,58,8.494l-.059-.059,3.963-3.963.407.407c.1.1.165.143.208.14s.092-.072.148-.208.117-.245.148-.327a.72.72,0,0,0,.051-.2.132.132,0,0,0-.03-.106l-.076-.076c-.113-.091-.255-.215-.424-.373s-.379-.362-.628-.611l-.84-.84.068-.322q.042-.281-.2-.187l-1.146.45c.158.136.3.264.437.386s.256.239.369.352l1.273,1.273L59.912,5.991,58.18,4.258l-.017-.322c0-.1-.016-.163-.047-.182s-.092-.007-.182.038l-.967.56q.476.424.8.747l1.519,1.519L57.706,8.2,56.382,6.872l.042-.28a.2.2,0,0,0-.013-.165c-.025-.037-.078-.044-.157-.021l-1.129.45c.158.136.293.256.4.361S55.751,7.428,55.864,7.542Z"/>
    <path class="cls-3" d="M53.607,1.415a2.067,2.067,0,0,1,1.247.484q.246.178.382.042a.364.364,0,0,0,.093-.187.744.744,0,0,0,.008-.255.991.991,0,0,0-.076-.272A.775.775,0,0,0,55.106,1h-.987c-.158.061-.333.136-.538.237Z"/>
    <path class="cls-3" d="M57.23,80.879a4.328,4.328,0,0,1,1.179.025,5.252,5.252,0,0,1,1.146.331.5.5,0,0,0,.259.064.264.264,0,0,0,.157-.072.374.374,0,0,0,.051-.39,1.207,1.207,0,0,0-.322-.509.665.665,0,0,0-.233-.148.918.918,0,0,0-.416-.025,4.227,4.227,0,0,0-.713.161q-.437.132-1.133.4Z"/>
    <path class="cls-3" d="M50.866,83.815c-.068-.045-.139-.093-.212-.144l-.119.136a2.533,2.533,0,0,1,.475.764,3.22,3.22,0,0,1,.2,1A.677.677,0,0,0,51.4,86a.4.4,0,0,0,.318.148.456.456,0,0,0,.378-.242.785.785,0,0,0,.03-.539,2.047,2.047,0,0,0-.259-.556,2.984,2.984,0,0,0-.53-.607l5.414-5.414.416,1.23.17-.034a5.162,5.162,0,0,1,.11-1.23,1.337,1.337,0,0,1,.365-.653c.119-.107.161-.19.127-.246s-.133-.082-.3-.076l-1.307.068.085.764-5.354,5.354C51,83.911,50.934,83.861,50.866,83.815Z"/>
    <path class="cls-3" d="M53.475,80.154a.549.549,0,0,0-.293,0,2.212,2.212,0,0,0-.45.178c-.181.09-.413.221-.7.39l.042.161a1.582,1.582,0,0,1,.59.047,1.845,1.845,0,0,1,.632.31.3.3,0,0,0,.424-.068.558.558,0,0,0,.182-.437.671.671,0,0,0-.216-.445A.536.536,0,0,0,53.475,80.154Z"/>
    <path class="cls-3" d="M53.235,93.589a.3.3,0,0,0-.28-.042.712.712,0,0,1-.5-.157,9.349,9.349,0,0,1-1.035-.9l-.136.153q1.213,1.383,1.158,1.727a7.586,7.586,0,0,1-1.633,1.922l-.148.147a9.81,9.81,0,0,1-1.014.93.313.313,0,0,1-.433-.025L47.283,95.41l2.6-2.6.348.348c.073.073.133.088.178.042a1.331,1.331,0,0,0,.182-.4.462.462,0,0,0-.055-.5l-.407-.339c-.164-.141-.334-.3-.509-.475l-.916-.916.068-.238c.023-.113.018-.185-.013-.216a.289.289,0,0,0-.208-.038l-.882.136.068.628-.976.976-.11-1.79a1.067,1.067,0,0,1,.136-.7c.107-.136.14-.225.1-.267a.33.33,0,0,0-.233-.064l-.967.034.008.789-1.341,1.341-.212-.806a.825.825,0,0,1,0-.407c.034-.136.031-.223-.008-.263s-.122-.042-.246-.008l-1,.221a18.766,18.766,0,0,1,1.875,6.016l.2-.068q0-.933-.068-1.714l3.937,3.937a.766.766,0,0,0,.535.263.957.957,0,0,0,.577-.238q.306-.237,1.205-1.137l.25-.251q.73-.735,1.218-1.251a4.449,4.449,0,0,0,.675-.827,1.105,1.105,0,0,0,.068-.586A.9.9,0,0,0,53.235,93.589Zm-5.214-2.635L49.667,92.6l-1.052,1.052-1.646-1.646Zm-3.216,2.385q-.16-1.027-.365-1.841l1.476-1.476.577,2.053-1.146,1.146Zm.619.212,1.061-1.061,1.646,1.646L47.07,95.2Z"/>
    <path class="cls-3" d="M53.534,86a7.2,7.2,0,0,0-.989-.912l-.085.136a2.334,2.334,0,0,1,.433.747,2.215,2.215,0,0,1,.085.84.677.677,0,0,0,.119.475.387.387,0,0,0,.331.161.509.509,0,0,0,.4-.187.769.769,0,0,0,.051-.585A1.322,1.322,0,0,0,53.534,86Z"/>
    <path class="cls-3" d="M44.363,98.209l-.45-2.826q-.186-1.255-.208-1.515a.906.906,0,0,1,.038-.4c.04-.1.041-.163,0-.2s-.109-.047-.216-.03l-.984.1a19.742,19.742,0,0,1,.721,2.13L42,96.783q-.483-2.113-.59-2.83a1.782,1.782,0,0,1,0-.912c.079-.158.1-.256.064-.293s-.109-.047-.216-.03l-1.154.1a18.129,18.129,0,0,1,.857,2.121,10.633,10.633,0,0,1,.475,1.68,1.565,1.565,0,0,1-.085.806l.636.263c.074.028.127.025.161-.008a.546.546,0,0,0,.1-.17,8.8,8.8,0,0,1,1.1-1.739q.16.6.322,1.383c.107.52.171.856.191,1.006a1.543,1.543,0,0,1-.038.53,1.31,1.31,0,0,1-.212.5l.679.238c.1.028.161.025.195-.008a.345.345,0,0,0,.076-.178,18.265,18.265,0,0,1,1.782-3.106l-.144-.127Z"/>
    <path class="cls-3" d="M54.591,81.864a3.617,3.617,0,0,0-1.01.373l.025.178a2.067,2.067,0,0,1,1.247.484q.246.179.382.042a.364.364,0,0,0,.093-.187.744.744,0,0,0,.008-.255.984.984,0,0,0-.076-.271.769.769,0,0,0-.161-.238A.581.581,0,0,0,54.591,81.864Z"/>
    <path class="cls-3" d="M55.923,86.174a2.041,2.041,0,0,0,.458-.339q.585-.552,1.1-1.107t1.073-1.218a1.749,1.749,0,0,0,.416-1.23c0-.113-.02-.184-.059-.212a.28.28,0,0,0-.212-.008,1.535,1.535,0,0,1-.284.038.667.667,0,0,1-.271-.051,1.412,1.412,0,0,1-.31-.182,5.263,5.263,0,0,1-.424-.365l-.119.136c.221.277.388.5.5.67a1.927,1.927,0,0,1,.225.42.386.386,0,0,1,0,.288,1.891,1.891,0,0,1-.174.293q-.144.195-.344.428c-.133.156-.273.318-.42.488s-.3.337-.45.5-.294.311-.424.441c-.164.164-.289.232-.373.2q.246-.84.441-1.706t.322-1.756a2.939,2.939,0,0,1,.132-.573,1.671,1.671,0,0,1,.165-.369c.068-.091.091-.156.068-.195s-.1-.057-.229-.051l-.789.025a12.585,12.585,0,0,1-.14,1.93q-.148,1.023-.454,2.261l-1-1,.051-.221q.076-.263-.178-.161l-1.1.433c.057.045.12.1.191.165l.221.2.233.216q.118.111.2.195l1.112,1.112q-.313,1.163-.581,1.956a15.328,15.328,0,0,1-.564,1.447l.17.085a14.245,14.245,0,0,0,.768-1.438,15.884,15.884,0,0,0,.658-1.7A.535.535,0,0,0,55.923,86.174Z"/>
    <path class="cls-3" d="M62.762,85.105c-.113-.091-.255-.215-.424-.373s-.379-.362-.628-.611l-.84-.84.068-.322q.042-.28-.2-.187l-1.146.45c.158.136.3.264.437.386s.256.239.369.352l1.273,1.273-1.756,1.756L58.18,85.258l-.017-.322c0-.1-.016-.163-.047-.182s-.092-.007-.182.038l-.967.56q.476.424.8.747l1.519,1.519L57.706,89.2l-1.324-1.324.042-.28a.2.2,0,0,0-.013-.165c-.025-.037-.078-.044-.157-.021l-1.129.45c.158.136.293.256.4.361s.222.214.335.327l.815.815c.068.068.144.147.229.238l.259.276c.088.093.17.184.246.272s.14.163.191.225c.119.141.205.214.259.216s.115-.075.182-.233a2.57,2.57,0,0,0,.123-.31.639.639,0,0,0,.034-.212.319.319,0,0,0-.055-.165A1.267,1.267,0,0,0,58,89.5l-.059-.059,3.963-3.963.407.407c.1.1.165.143.208.14s.092-.072.148-.208.117-.245.148-.327a.72.72,0,0,0,.051-.195.132.132,0,0,0-.03-.106Z"/>
    <path class="cls-3" d="M47.732,97.42l-.161-.093L45.084,101h1.073c.048-.14.118-.319.234-.576Z"/>
    <path class="cls-3" d="M84.607,51.415A1.676,1.676,0,0,1,85,51.47v-.418c-.131.054-.26.106-.419.185Z"/>
    <path class="cls-3" d="M84.314,53.15l.221.2.233.216q.119.111.2.195l.028.029V52.638l-.877.347C84.18,53.03,84.243,53.085,84.314,53.15Z"/>
    <path class="cls-3" d="M77.205,65.011l-1.841,2.2-.45-2.826q-.186-1.256-.208-1.515a.906.906,0,0,1,.038-.4c.04-.1.041-.163,0-.2s-.109-.047-.216-.03l-.984.1a19.742,19.742,0,0,1,.721,2.13L73,65.783q-.483-2.113-.59-2.83a1.782,1.782,0,0,1,0-.912c.079-.158.1-.256.064-.293s-.109-.047-.216-.03l-1.154.1a18.129,18.129,0,0,1,.857,2.121,10.634,10.634,0,0,1,.475,1.68,1.565,1.565,0,0,1-.085.806L73,66.69c.073.028.127.025.161-.008a.546.546,0,0,0,.1-.17,8.8,8.8,0,0,1,1.1-1.739q.161.6.322,1.383c.107.52.171.856.191,1.006a1.543,1.543,0,0,1-.038.53,1.317,1.317,0,0,1-.212.5l.679.238q.144.042.195-.009a.349.349,0,0,0,.076-.178,18.265,18.265,0,0,1,1.782-3.106Z"/>
    <path class="cls-3" d="M84.534,55a7.2,7.2,0,0,0-.989-.912l-.085.136a2.334,2.334,0,0,1,.433.747,2.215,2.215,0,0,1,.085.84.677.677,0,0,0,.119.475.387.387,0,0,0,.331.161.509.509,0,0,0,.4-.187.769.769,0,0,0,.051-.585A1.322,1.322,0,0,0,84.534,55Z"/>
    <path class="cls-3" d="M84.938,58.28l.062.031v-.18C84.979,58.179,84.959,58.233,84.938,58.28Z"/>
    <path class="cls-3" d="M84.235,62.589a.3.3,0,0,0-.28-.042.707.707,0,0,1-.5-.157,9.349,9.349,0,0,1-1.035-.9l-.136.153q1.213,1.383,1.158,1.727a7.586,7.586,0,0,1-1.633,1.922l-.148.147a9.81,9.81,0,0,1-1.014.93.313.313,0,0,1-.433-.025L78.283,64.41l2.6-2.6.348.348c.074.073.133.088.178.042a1.331,1.331,0,0,0,.182-.4.462.462,0,0,0-.055-.505l-.407-.339c-.164-.141-.334-.3-.509-.475l-.916-.916.068-.238c.023-.113.018-.185-.013-.216a.289.289,0,0,0-.208-.038l-.882.136.068.628-.976.976-.11-1.79a1.067,1.067,0,0,1,.136-.7c.107-.136.14-.225.1-.267a.33.33,0,0,0-.233-.064l-.967.034.008.789-1.341,1.341-.212-.806a.825.825,0,0,1,0-.407c.034-.135.031-.223-.008-.263s-.122-.042-.246-.008l-1,.221a18.766,18.766,0,0,1,1.875,6.016l.2-.068q0-.933-.068-1.714l3.937,3.937a.766.766,0,0,0,.535.263.957.957,0,0,0,.577-.238q.306-.237,1.205-1.137l.25-.251q.73-.735,1.218-1.251a4.45,4.45,0,0,0,.675-.827,1.1,1.1,0,0,0,.068-.586.872.872,0,0,0-.122-.445Zm-5.214-2.635L80.667,61.6l-1.052,1.052-1.646-1.646Zm-3.216,2.385q-.161-1.026-.365-1.841l1.476-1.476.577,2.053-1.146,1.146Zm.619.212,1.061-1.061,1.646,1.646L78.07,64.2Z"/>
    <path class="cls-3" d="M83.669,49.935a1.845,1.845,0,0,1,.632.31.3.3,0,0,0,.424-.068.558.558,0,0,0,.182-.437.671.671,0,0,0-.216-.445.474.474,0,0,0-.509-.136,2.212,2.212,0,0,0-.45.178c-.181.09-.413.221-.7.39l.042.161A1.586,1.586,0,0,1,83.669,49.935Z"/>
    <path class="cls-3" d="M81.866,52.815c-.068-.045-.139-.093-.212-.144l-.119.136a2.532,2.532,0,0,1,.475.764,3.22,3.22,0,0,1,.2,1A.677.677,0,0,0,82.4,55a.4.4,0,0,0,.318.148.456.456,0,0,0,.378-.242.785.785,0,0,0,.03-.539,2.047,2.047,0,0,0-.259-.556,2.983,2.983,0,0,0-.53-.607L85,50.547v-.509l-2.93,2.93A2.466,2.466,0,0,0,81.866,52.815Z"/>
    <path class="cls-3" d="M75.94,70.213l.883.221a.192.192,0,0,0,.182-.03.584.584,0,0,0,.1-.255,4.922,4.922,0,0,1,.284-.726l1.341-3-.161-.093Z"/>
    <path class="cls-3" d="M11.59,77.92a3.617,3.617,0,0,0-1.01.373l.025.178a2.067,2.067,0,0,1,1.247.484q.246.179.382.042a.364.364,0,0,0,.093-.187.744.744,0,0,0,.008-.255.991.991,0,0,0-.076-.272.753.753,0,0,0-.161-.238A.586.586,0,0,0,11.59,77.92Z"/>
    <path class="cls-3" d="M1.957,91.89q0-.933-.068-1.714l3.937,3.937a.766.766,0,0,0,.535.263.957.957,0,0,0,.577-.238Q7.244,93.9,8.143,93l.25-.251q.731-.735,1.218-1.251a4.45,4.45,0,0,0,.675-.827,1.1,1.1,0,0,0,.068-.585.85.85,0,0,0-.119-.441.3.3,0,0,0-.28-.042.707.707,0,0,1-.5-.157,9.349,9.349,0,0,1-1.035-.9l-.136.153Q9.5,90.084,9.446,90.428A7.586,7.586,0,0,1,7.813,92.35l-.148.148a9.81,9.81,0,0,1-1.014.93.313.313,0,0,1-.433-.025L4.283,91.468l2.6-2.6.348.348c.074.074.133.088.178.042a1.331,1.331,0,0,0,.182-.4.462.462,0,0,0-.055-.5l-.407-.339c-.164-.141-.334-.3-.509-.475L5.7,86.62l.068-.238c.023-.113.018-.185-.013-.216a.289.289,0,0,0-.208-.038l-.883.136.068.628-.976.976-.11-1.79a1.067,1.067,0,0,1,.136-.7c.107-.136.14-.225.1-.267a.33.33,0,0,0-.233-.064l-.967.034.008.789L1.346,87.207,1.134,86.4a.825.825,0,0,1,0-.407c.034-.136.031-.223-.008-.263A.167.167,0,0,0,1,85.7v2.984a17.616,17.616,0,0,1,.753,3.271ZM5.02,87.011l1.646,1.646L5.614,89.709,3.968,88.063Zm.11,3.182-1.06,1.06L2.424,89.607l1.061-1.061ZM2.916,86.077l.577,2.053L2.347,89.276,1.8,89.4q-.16-1.026-.365-1.841Z"/>
    <path class="cls-3" d="M10.534,82.057a7.2,7.2,0,0,0-.989-.912l-.084.135a2.334,2.334,0,0,1,.433.747,2.215,2.215,0,0,1,.085.84.677.677,0,0,0,.119.475.387.387,0,0,0,.331.161.509.509,0,0,0,.4-.187.771.771,0,0,0,.051-.586A1.343,1.343,0,0,0,10.534,82.057Z"/>
    <path class="cls-3" d="M1.49,95.479a.349.349,0,0,0,.076-.178,18.265,18.265,0,0,1,1.782-3.106L3.2,92.068l-1.841,2.2L1,91.986v3.4l.295.1C1.391,95.516,1.456,95.513,1.49,95.479Z"/>
    <path class="cls-3" d="M12.923,82.231a2.041,2.041,0,0,0,.458-.339q.585-.552,1.1-1.107t1.073-1.218a1.749,1.749,0,0,0,.416-1.23c0-.113-.02-.184-.059-.212a.28.28,0,0,0-.212-.008,1.535,1.535,0,0,1-.284.038.674.674,0,0,1-.272-.051,1.412,1.412,0,0,1-.31-.182,5.065,5.065,0,0,1-.424-.365l-.119.136c.221.277.388.5.5.67a1.927,1.927,0,0,1,.225.42.388.388,0,0,1,0,.289,1.845,1.845,0,0,1-.174.293q-.144.195-.344.429c-.133.156-.273.318-.42.488s-.3.337-.45.5-.294.311-.424.441c-.164.164-.289.232-.373.2q.246-.84.441-1.706t.322-1.756a3.015,3.015,0,0,1,.131-.573,1.625,1.625,0,0,1,.165-.369c.068-.091.091-.156.068-.195s-.1-.057-.229-.051l-.788.022a12.585,12.585,0,0,1-.14,1.93q-.148,1.021-.454,2.261l-1-1,.051-.221q.076-.263-.178-.161l-1.1.433c.057.045.12.1.191.165l.221.2.233.216q.119.111.2.195l1.112,1.112Q11.77,83.1,11.5,83.889a15.328,15.328,0,0,1-.564,1.447l.17.085a14.245,14.245,0,0,0,.768-1.438,15.884,15.884,0,0,0,.658-1.7A.531.531,0,0,0,12.923,82.231Z"/>
    <path class="cls-3" d="M19.762,81.162c-.113-.091-.255-.215-.424-.373s-.379-.362-.628-.611l-.84-.84.068-.322q.042-.28-.2-.187l-1.146.45c.158.136.3.264.437.386s.256.239.369.352l1.273,1.273-1.756,1.756L15.18,81.315l-.017-.322c0-.1-.016-.163-.047-.182s-.092-.007-.182.038l-.967.56q.476.424.8.747l1.519,1.519-1.578,1.578-1.324-1.324.042-.28a.2.2,0,0,0-.013-.165c-.025-.037-.078-.044-.157-.021l-1.129.45c.158.136.293.256.4.361s.222.214.335.327l.815.815c.068.068.144.147.229.238l.259.276c.088.093.17.184.246.272s.14.163.191.225c.119.141.2.214.259.216s.115-.075.182-.233a2.57,2.57,0,0,0,.123-.31.639.639,0,0,0,.034-.212.319.319,0,0,0-.055-.165,1.267,1.267,0,0,0-.144-.17l-.059-.059,3.963-3.963.407.407c.1.1.165.143.208.14s.092-.072.148-.208.117-.245.148-.327a.72.72,0,0,0,.051-.195.132.132,0,0,0-.03-.106Z"/>
    <path class="cls-3" d="M1.94,97.27l.882.221A.192.192,0,0,0,3,97.461a.584.584,0,0,0,.1-.255,4.922,4.922,0,0,1,.284-.726l1.341-3-.161-.093Z"/>
    <path class="cls-3" d="M16.465,76.236a.918.918,0,0,0-.416-.025,4.227,4.227,0,0,0-.713.161q-.437.132-1.133.4l.025.161a4.337,4.337,0,0,1,1.18.025,5.2,5.2,0,0,1,1.146.331.5.5,0,0,0,.259.064.264.264,0,0,0,.157-.072.374.374,0,0,0,.051-.39,1.207,1.207,0,0,0-.322-.509A.672.672,0,0,0,16.465,76.236Z"/>
    <path class="cls-3" d="M10.475,76.21a.549.549,0,0,0-.293,0,2.212,2.212,0,0,0-.45.178c-.181.09-.413.221-.7.39l.042.161a1.582,1.582,0,0,1,.59.047,1.845,1.845,0,0,1,.632.31.3.3,0,0,0,.424-.068.558.558,0,0,0,.182-.437.671.671,0,0,0-.216-.445A.565.565,0,0,0,10.475,76.21Z"/>
    <path class="cls-3" d="M14.17,76.079l.17-.034a5.162,5.162,0,0,1,.11-1.23,1.337,1.337,0,0,1,.365-.653c.119-.107.161-.19.127-.246s-.133-.082-.3-.076l-1.307.068.085.764L8.069,80.026a2.463,2.463,0,0,0-.2-.153c-.068-.045-.139-.093-.212-.144l-.119.136a2.533,2.533,0,0,1,.475.764,3.22,3.22,0,0,1,.2,1,.682.682,0,0,0,.191.429.394.394,0,0,0,.318.148.456.456,0,0,0,.378-.242.785.785,0,0,0,.03-.539,2.047,2.047,0,0,0-.259-.556,2.984,2.984,0,0,0-.53-.607l5.414-5.414Z"/>
    <path class="cls-3" d="M49.312,54.934c.1.1.165.143.208.14s.092-.072.148-.208.117-.245.148-.327a.72.72,0,0,0,.051-.195.132.132,0,0,0-.03-.106l-.076-.076c-.113-.091-.255-.215-.424-.373s-.379-.362-.628-.611l-.84-.84.068-.322q.042-.281-.2-.187l-1.146.45c.158.136.3.264.437.386s.256.239.369.352l1.273,1.273L46.91,56.046l-1.731-1.731-.017-.322c0-.1-.016-.163-.047-.182s-.092-.007-.182.038l-.967.56q.476.425.8.747l1.519,1.519-1.578,1.578-1.324-1.324.042-.28a.2.2,0,0,0-.013-.165c-.025-.037-.078-.044-.157-.021l-1.129.45c.158.136.293.256.4.361s.222.214.335.327l.815.815c.068.068.144.147.229.238l.259.276c.088.093.17.184.246.272s.14.163.191.225c.119.141.205.214.259.216s.115-.075.182-.233a2.57,2.57,0,0,0,.123-.31.639.639,0,0,0,.034-.212.319.319,0,0,0-.055-.165,1.268,1.268,0,0,0-.144-.17l-.059-.059L48.9,54.531Z"/>
    <path class="cls-3" d="M40.937,58.336l.17.085a14.246,14.246,0,0,0,.768-1.438,15.883,15.883,0,0,0,.658-1.7.535.535,0,0,0,.39-.051,2.041,2.041,0,0,0,.458-.339q.585-.552,1.1-1.107t1.073-1.218a1.749,1.749,0,0,0,.416-1.23c0-.113-.02-.184-.059-.212a.28.28,0,0,0-.212-.008,1.535,1.535,0,0,1-.284.038.674.674,0,0,1-.272-.051,1.412,1.412,0,0,1-.31-.182,5.064,5.064,0,0,1-.424-.365l-.119.136c.221.277.388.5.5.67a1.927,1.927,0,0,1,.225.42.388.388,0,0,1,0,.289,1.891,1.891,0,0,1-.174.293q-.144.2-.344.429c-.133.156-.273.318-.42.488s-.3.337-.45.5-.294.311-.424.441c-.164.164-.289.232-.373.2q.246-.84.441-1.706t.322-1.756a3.014,3.014,0,0,1,.131-.573,1.646,1.646,0,0,1,.165-.369c.068-.091.091-.156.068-.195s-.1-.057-.229-.051l-.788.022a12.585,12.585,0,0,1-.14,1.93q-.148,1.021-.454,2.261l-1-1,.051-.221q.076-.262-.178-.161l-1.1.433c.057.045.12.1.191.165l.221.2.233.216q.118.111.2.195l1.112,1.112q-.313,1.163-.581,1.956T40.937,58.336Z"/>
    <path class="cls-3" d="M39.669,49.991a1.845,1.845,0,0,1,.632.31.306.306,0,0,0,.424-.068.558.558,0,0,0,.182-.437.671.671,0,0,0-.216-.445.474.474,0,0,0-.509-.136,2.212,2.212,0,0,0-.45.178c-.181.09-.413.221-.7.39l.042.161A1.609,1.609,0,0,1,39.669,49.991Z"/>
    <path class="cls-3" d="M38.213,54.628a.682.682,0,0,0,.191.429.394.394,0,0,0,.318.148.456.456,0,0,0,.378-.242.785.785,0,0,0,.03-.539,2.047,2.047,0,0,0-.259-.556,2.983,2.983,0,0,0-.53-.607l5.414-5.414.416,1.23.17-.034a5.162,5.162,0,0,1,.11-1.23,1.337,1.337,0,0,1,.365-.653c.119-.107.161-.19.127-.246s-.133-.082-.3-.076l-1.307.068.085.764L38.07,53.024a2.465,2.465,0,0,0-.2-.153c-.068-.045-.139-.093-.212-.144l-.119.136a2.533,2.533,0,0,1,.475.764A3.192,3.192,0,0,1,38.213,54.628Z"/>
    <path class="cls-3" d="M40.878,55.731a1.333,1.333,0,0,0-.344-.675,7.2,7.2,0,0,0-.989-.912l-.085.136a2.334,2.334,0,0,1,.433.747,2.215,2.215,0,0,1,.085.84.677.677,0,0,0,.119.475.387.387,0,0,0,.331.161.509.509,0,0,0,.4-.187A.768.768,0,0,0,40.878,55.731Z"/>
    <path class="cls-3" d="M44.229,49.936a4.328,4.328,0,0,1,1.179.025,5.2,5.2,0,0,1,1.146.331.5.5,0,0,0,.259.064.264.264,0,0,0,.157-.072.374.374,0,0,0,.051-.39,1.207,1.207,0,0,0-.322-.509.665.665,0,0,0-.233-.148.918.918,0,0,0-.416-.025,4.227,4.227,0,0,0-.713.161q-.437.132-1.133.4Z"/>
    <path class="cls-3" d="M42.235,52a.364.364,0,0,0,.093-.187.744.744,0,0,0,.008-.255.991.991,0,0,0-.076-.272.753.753,0,0,0-.161-.238.581.581,0,0,0-.509-.127,3.617,3.617,0,0,0-1.01.373l.026.178a2.067,2.067,0,0,1,1.247.484C42.018,52.074,42.145,52.088,42.235,52Z"/>
    <path class="cls-3" d="M31.94,70.27l.882.221a.192.192,0,0,0,.182-.03.584.584,0,0,0,.1-.255,4.881,4.881,0,0,1,.284-.725l1.341-3-.161-.093Z"/>
    <path class="cls-3" d="M40.353,63.087a.85.85,0,0,0-.119-.441.3.3,0,0,0-.28-.042.712.712,0,0,1-.5-.157,9.35,9.35,0,0,1-1.035-.9l-.136.153q1.213,1.383,1.158,1.727a7.586,7.586,0,0,1-1.633,1.922l-.148.148a9.81,9.81,0,0,1-1.014.93.313.313,0,0,1-.433-.025l-1.935-1.935,2.6-2.6.348.348c.074.074.133.088.178.042a1.331,1.331,0,0,0,.182-.4.462.462,0,0,0-.055-.505l-.407-.339c-.164-.141-.334-.3-.509-.475l-.916-.916.068-.238c.023-.113.018-.185-.013-.216a.289.289,0,0,0-.208-.038l-.883.136.068.628-.976.976-.11-1.79a1.065,1.065,0,0,1,.136-.7c.107-.136.14-.225.1-.267a.33.33,0,0,0-.233-.064l-.967.034.008.789-1.341,1.341-.212-.811a.825.825,0,0,1,0-.407c.034-.136.031-.223-.008-.263s-.122-.042-.246-.008l-1,.221a18.766,18.766,0,0,1,1.875,6.016l.2-.068q0-.933-.068-1.714l3.937,3.937a.766.766,0,0,0,.535.263.957.957,0,0,0,.577-.238Q37.245,66.9,38.144,66l.25-.251q.73-.735,1.218-1.251a4.449,4.449,0,0,0,.675-.827A1.13,1.13,0,0,0,40.353,63.087ZM35.02,60.011l1.646,1.646-1.052,1.052-1.646-1.646ZM31.8,62.4q-.161-1.026-.365-1.841l1.476-1.476.577,2.053-1.146,1.146Zm.62.212,1.061-1.061,1.646,1.646L34.07,64.253Z"/>
    <path class="cls-3" d="M33.2,65.068l-1.841,2.2-.45-2.826q-.186-1.256-.208-1.515a.908.908,0,0,1,.038-.4c.04-.1.041-.163,0-.2s-.109-.047-.216-.03l-.984.1a19.742,19.742,0,0,1,.721,2.13L29,65.84q-.483-2.113-.59-2.83a1.782,1.782,0,0,1,0-.912c.079-.158.1-.256.064-.293s-.109-.047-.216-.03l-1.154.1A18.129,18.129,0,0,1,27.969,64a10.634,10.634,0,0,1,.475,1.68,1.555,1.555,0,0,1-.085.806l.636.263c.074.028.127.025.161-.008a.546.546,0,0,0,.1-.17,8.832,8.832,0,0,1,1.095-1.74q.161.6.322,1.383c.107.52.171.856.191,1a1.543,1.543,0,0,1-.038.53,1.31,1.31,0,0,1-.212.5l.679.238c.1.028.161.025.195-.008a.345.345,0,0,0,.076-.178,18.265,18.265,0,0,1,1.782-3.106Z"/>
    <path class="cls-3" d="M63.94,39.213l.883.221A.192.192,0,0,0,65,39.4a.584.584,0,0,0,.1-.255,4.922,4.922,0,0,1,.284-.726l1.341-3-.161-.093Z"/>
    <path class="cls-3" d="M79.026,21.607q.2.183.369.352l1.273,1.273-1.756,1.756-1.731-1.731-.017-.322c0-.1-.016-.163-.047-.182s-.092-.007-.182.038l-.967.56q.476.424.8.747l1.519,1.519-1.578,1.578-1.324-1.324.042-.28a.2.2,0,0,0-.013-.165c-.025-.037-.078-.044-.157-.021l-1.129.45c.158.136.293.256.4.361s.222.214.335.327l.815.815c.068.068.144.147.229.238l.259.276c.088.093.17.184.246.272s.14.163.191.225c.119.141.205.214.259.216s.115-.075.182-.233a2.57,2.57,0,0,0,.123-.31.639.639,0,0,0,.034-.212.319.319,0,0,0-.055-.165,1.267,1.267,0,0,0-.144-.17l-.059-.059,3.963-3.963.407.407c.1.1.165.143.208.14s.092-.072.148-.208.117-.245.148-.327a.72.72,0,0,0,.051-.195.132.132,0,0,0-.03-.106l-.076-.076c-.113-.091-.255-.215-.424-.373s-.379-.362-.628-.611l-.84-.84.068-.322q.042-.281-.2-.187l-1.146.45c.158.132.3.261.437.382Z"/>
    <path class="cls-3" d="M65.205,34.011l-1.841,2.2-.45-2.826q-.186-1.256-.208-1.515a.906.906,0,0,1,.038-.4c.04-.1.041-.163,0-.2s-.109-.047-.216-.03l-.984.1a19.743,19.743,0,0,1,.721,2.13l-1.264,1.315q-.483-2.114-.59-2.83a1.782,1.782,0,0,1,0-.912c.079-.158.1-.256.064-.293s-.109-.047-.216-.03l-1.154.1a18.129,18.129,0,0,1,.857,2.121,10.633,10.633,0,0,1,.475,1.68,1.565,1.565,0,0,1-.085.806L61,35.69c.073.028.127.025.161-.008a.546.546,0,0,0,.1-.17,8.8,8.8,0,0,1,1.1-1.739q.16.6.322,1.383c.107.52.171.856.191,1.006a1.543,1.543,0,0,1-.038.53,1.31,1.31,0,0,1-.212.5l.679.238c.1.028.161.025.195-.008a.345.345,0,0,0,.076-.178,18.265,18.265,0,0,1,1.782-3.106Z"/>
    <path class="cls-3" d="M72.878,24.675A1.33,1.33,0,0,0,72.534,24a7.2,7.2,0,0,0-.989-.912l-.085.136a2.334,2.334,0,0,1,.433.747,2.215,2.215,0,0,1,.085.84.677.677,0,0,0,.119.475.387.387,0,0,0,.331.161.509.509,0,0,0,.4-.187A.769.769,0,0,0,72.878,24.675Z"/>
    <path class="cls-3" d="M72.286,32.616a1.105,1.105,0,0,0,.068-.586.85.85,0,0,0-.119-.441.3.3,0,0,0-.28-.042.707.707,0,0,1-.5-.157,9.349,9.349,0,0,1-1.035-.9l-.136.153q1.213,1.383,1.158,1.727a7.587,7.587,0,0,1-1.633,1.922l-.148.147a9.81,9.81,0,0,1-1.014.93.313.313,0,0,1-.433-.025L66.283,33.41l2.6-2.6.348.348c.074.074.133.088.178.042a1.331,1.331,0,0,0,.182-.4.462.462,0,0,0-.055-.5l-.407-.339c-.164-.141-.334-.3-.509-.475l-.916-.916.068-.238c.023-.113.018-.185-.013-.216a.289.289,0,0,0-.208-.038l-.882.136.068.628-.976.976-.11-1.79a1.065,1.065,0,0,1,.136-.7c.107-.136.14-.225.1-.267a.33.33,0,0,0-.233-.064l-.967.034.008.789-1.341,1.341-.212-.806a.825.825,0,0,1,0-.407c.034-.135.031-.223-.008-.263s-.122-.042-.246-.008l-1,.221a18.766,18.766,0,0,1,1.875,6.016l.2-.068q0-.933-.068-1.714l3.937,3.937a.766.766,0,0,0,.535.263.957.957,0,0,0,.577-.238q.306-.239,1.205-1.137l.25-.251q.73-.735,1.218-1.251A4.638,4.638,0,0,0,72.286,32.616Zm-5.265-3.662L68.667,30.6l-1.052,1.052-1.646-1.646Zm-3.216,2.385q-.16-1.027-.365-1.841l1.476-1.476.577,2.053-1.146,1.146Zm.619.212,1.061-1.061,1.646,1.646L66.07,33.2Z"/>
    <path class="cls-3" d="M74.236,20.941a.364.364,0,0,0,.093-.187.744.744,0,0,0,.008-.255.984.984,0,0,0-.076-.271.77.77,0,0,0-.161-.238.581.581,0,0,0-.509-.127,3.617,3.617,0,0,0-1.01.373l.025.178a2.067,2.067,0,0,1,1.247.484C74.018,21.018,74.145,21.032,74.236,20.941Z"/>
    <path class="cls-3" d="M72.938,27.28l.17.085a14.246,14.246,0,0,0,.768-1.438,15.884,15.884,0,0,0,.658-1.7.535.535,0,0,0,.39-.051,2.041,2.041,0,0,0,.458-.339q.585-.552,1.1-1.107t1.073-1.218a1.754,1.754,0,0,0,.416-1.23c0-.113-.02-.184-.059-.212a.28.28,0,0,0-.212-.008,1.535,1.535,0,0,1-.284.038.674.674,0,0,1-.272-.051,1.412,1.412,0,0,1-.31-.182,5.263,5.263,0,0,1-.424-.365l-.119.136c.221.277.388.5.5.67a1.927,1.927,0,0,1,.225.42.386.386,0,0,1,0,.288,1.891,1.891,0,0,1-.174.293q-.144.195-.344.428c-.133.156-.273.318-.42.488s-.3.337-.45.5-.294.311-.424.441c-.164.164-.289.232-.373.2q.246-.84.441-1.706t.322-1.756a2.939,2.939,0,0,1,.132-.573,1.671,1.671,0,0,1,.165-.369c.068-.091.091-.156.068-.195s-.1-.057-.229-.051l-.789.025a12.585,12.585,0,0,1-.14,1.93q-.148,1.023-.454,2.261l-1-1,.051-.221q.077-.262-.178-.161l-1.1.433c.057.045.12.1.191.165l.221.2.233.216q.119.111.2.195l1.112,1.112q-.313,1.162-.581,1.956T72.938,27.28Z"/>
    <path class="cls-3" d="M70.214,23.572A.677.677,0,0,0,70.4,24a.4.4,0,0,0,.318.148.456.456,0,0,0,.378-.242.785.785,0,0,0,.03-.539,2.047,2.047,0,0,0-.259-.556,2.983,2.983,0,0,0-.53-.607l5.414-5.414.416,1.23.17-.034a5.162,5.162,0,0,1,.11-1.23,1.33,1.33,0,0,1,.365-.653c.119-.107.161-.19.127-.246s-.133-.082-.3-.076l-1.307.068.085.764-5.354,5.354a2.464,2.464,0,0,0-.2-.153c-.068-.046-.139-.093-.212-.144l-.119.136a2.532,2.532,0,0,1,.475.764A3.25,3.25,0,0,1,70.214,23.572Z"/>
    <path class="cls-3" d="M71.669,18.935a1.845,1.845,0,0,1,.632.31.3.3,0,0,0,.424-.068.558.558,0,0,0,.182-.437.671.671,0,0,0-.216-.445.474.474,0,0,0-.509-.136,2.212,2.212,0,0,0-.45.178c-.181.09-.413.221-.7.39l.042.161A1.586,1.586,0,0,1,71.669,18.935Z"/>
    <path class="cls-3" d="M76.23,18.879a4.328,4.328,0,0,1,1.179.025,5.252,5.252,0,0,1,1.146.331.5.5,0,0,0,.259.064.264.264,0,0,0,.157-.072.374.374,0,0,0,.051-.39,1.207,1.207,0,0,0-.322-.509.665.665,0,0,0-.233-.148.918.918,0,0,0-.416-.025,4.228,4.228,0,0,0-.713.161q-.437.132-1.133.4Z"/>
    <path class="cls-4" d="M1,12,12,1H35L1,35Z"/>
    <path class="cls-1" d="M10.364,9.364a1,1,0,0,1,1.414,0l4.243,4.243a1,1,0,0,1-1.414,1.414l-4.243-4.243A1,1,0,0,1,10.364,9.364Zm4.243-4.243A3,3,0,1,1,18.85,9.364l-.707.707.707.707a1,1,0,0,1-1.414,1.414l-4.95-4.95ZM7.536,12.192a1,1,0,0,1,1.414,0l2.828,2.828a1.049,1.049,0,0,1,.3.728l-.012,2.787a.993.993,0,0,1-.254.661l-.1.1a1,1,0,0,1-.661.254l-2.787.013a1.017,1.017,0,0,1-.167-.013,1,1,0,0,1-.568-.284L4.708,16.435a1,1,0,1,1,1.414-1.414L8.66,17.559l1.415-.006.006-1.4L7.537,13.608A1,1,0,0,1,7.536,12.192Zm8.485-5.657-.707.707,1.414,1.414.707-.707a1,1,0,0,0-1.414-1.414Z"/>
</svg>