<svg viewBox="0 0 86 102" xmlns="http://www.w3.org/2000/svg"><g fill="none" fill-rule="evenodd"><path d="m83 0h-80c-1.65685425 0-3 1.34314575-3 3v96c0 1.656854 1.34314575 3 3 3h80c1.6568542 0 3-1.343146 3-3v-96c0-1.65685425-1.3431458-3-3-3zm0 1c1.1045695 0 2 .8954305 2 2v96c0 1.104569-.8954305 2-2 2h-80c-1.1045695 0-2-.895431-2-2v-96c0-1.1045695.8954305-2 2-2z" fill="#000" fill-opacity=".2" fill-rule="nonzero"/><rect fill="#fff" height="100" rx="2" width="84" x="1" y="1"/><path d="m5.31021279 60.9302128c1.10666667-.7866667 1.98666667-1.7566667 2.64-2.91.65333334-1.1533333.98-3.0566667.98-5.71v-1.48h14.22000001c.24 0 .36-.0366667.36-.11s-.0733333-.1966667-.22-.37l-1.24-1.46-1.16 1.38h-3.92v-5.92h5.56c.1866667 0 .28-.0333333.28-.1s-.04-.1533333-.12-.26l-1.26-1.5-1.08 1.28h-12.18000001c-.61333333 0-1.16666666-.04-1.66-.12l.72.92c.36-.1466667.81333334-.22 1.36-.22h3.38000001v5.92h-2.96000001l-1.68-.84c.04.72.06 1.4266667.06 2.12v1.48c0 2.0933333-.14 3.6366667-.42 4.63s-.88666666 2.0233333-1.82 3.09zm10.30000001-10.66h-2.28v-5.92h2.28zm2.26-.38 2.98-2.98c.2533333-.2266667.4533333-.3633333.6-.41s.22-.1066667.22-.18-.0666667-.1633333-.2-.27l-1.38-1.1c-.52 1.44-1.3533333 3.0333333-2.5 4.78zm-8.27000001-.5c.23333334 0 .43666671-.1266667.61000001-.38s.26-.54.26-.86c.0133333-.4133333-.2366667-.8866667-.75000001-1.42-.51333333-.5333333-1.21-.9666667-2.09-1.3l-.18.2c.89333334 1.04 1.44666667 2.0666667 1.66 3.08.09333334.4533333.25666667.68.49.68zm20.11333331 2.36c.0933333 0 .32-.09.68-.27s.54-.3433333.54-.49c0-.0266667-.0133333-.23-.04-.61s-.04-1.0166667-.04-1.91v-1.06c.6266667.52 1.0533333 1.0266667 1.28 1.52.2.3733333.3833333.56.55.56s.3033333-.1033333.41-.31.16-.45.16-.73-.16-.5333333-.48-.76-.96-.5-1.92-.82v-.84h2.66c.1733333 0 .26-.03.26-.09s-.0466667-.1566667-.14-.29l-1.02-1.26-.96 1.1h-.8v-1.84l.48-.34c.12-.0933333.18-.16.18-.2s-.06-.08-.18-.12l-1.76-.7c.04.7066667.06 1.32.06 1.84v1.36h-2.96c-.5733333 0-1.08-.04-1.52-.12l.62.88c.3333333-.1466667.7533333-.22 1.26-.22h1.66c-.8266667 2.0666667-2.06 3.88-3.7 5.44l.14.26c2-1.24 3.5-2.9266667 4.5-5.06l-.0002469 2.0446914c-.0013169.7361316-.0079013 1.2879012-.0197531 1.6553086l-.04 1.02c0 .24.0466667.36.14.36zm2.3-.26c2.0133333-1.16 3.4533333-2.7866667 4.32-4.88v1.64c0 .9466667-.0133333 1.6233333-.04 2.03s-.04.7066667-.04.9.0466667.29.14.29.32-.0866667.68-.26.54-.32.54-.44c0-.0266667-.01-.2233333-.03-.59s-.03-.9966667-.03-1.89v-2.3h.2c.2266667.8133333.4833333 1.4833333.77 2.01s.7066667 1.09 1.26 1.69.92.9833333 1.1 1.15.29.25.33.25c.0666667 0 .1266667-.0666667.18-.2.1333333-.36.66-.6333333 1.58-.82v-.24c-1.16-.44-2.1066667-.9533333-2.84-1.54s-1.38-1.3533333-1.94-2.3h3.82c.16 0 .24-.03.24-.09s-.0533333-.15-.16-.27l-1.14-1.46-1.1 1.28h-2.3v-1.82l.48-.3c.1333333-.08.2-.15.2-.21s-.0666667-.1166667-.2-.17l-1.78-.62c.0533333.6933333.08 1.2933333.08 1.8v1.32h-1.16c-.5733333 0-1.0733333-.04-1.5-.12l.62.86c.3333333-.1333333.7466667-.2 1.24-.2-.56 1.24-1.09 2.2233333-1.59 2.95s-1.1966667 1.51-2.09 2.35zm-3.38 1.62c.3066667-.1333333.7266667-.2 1.26-.2h9c.2533333 0 .38-.0533333.38-.16s-.0533333-.22-.16-.34l-1.18-1.24-1 1.18h-7.44c-.56 0-1.06-.0333333-1.5-.1zm4.31 7.94c.0866667 0 .3366667-.1133333.75-.34s.67-.4333333.77-.62.15-.48.15-.88v-3.88h7.46c.1866667 0 .28-.03.28-.09s-.06-.1633333-.18-.31l-1.26-1.58-1.2 1.44h-13.1c-.56 0-1.0666667-.0333333-1.52-.1l.62.86c.3066667-.1466667.7266667-.22 1.26-.22h6.24v3.22c0 .28-.07.4566667-.21.53s-.3733333.11-.7.11-.9033333-.0733333-1.73-.22l-.06.38c.84.2133333 1.4033333.41 1.69.59s.4633333.4433333.53.79c.0533333.2133333.1233333.32.21.32zm-7.89-.24c1.0533333-.4666667 1.94-.9033333 2.66-1.31s1.58-1.0233333 2.58-1.85c.4533333-.36.79-.55 1.01-.57s.33-.0633333.33-.13-.0466667-.1533333-.14-.26l-1.06-1c-1.88 2.2533333-3.74 3.84-5.58 4.76zm15.11-.6c.1266667 0 .2333333-.1133333.32-.34s.13-.54.13-.94-.1133333-.7433333-.34-1.03-.65-.5766667-1.27-.87-1.5433333-.6333333-2.77-1.02l-.2.3c1.3733333.8133333 2.48 1.8466667 3.32 3.1.2266667.3466667.3866667.5666667.48.66s.2033333.14.33.14zm4.4733333-10.48c1.32-.92 2.7533333-2.3 4.3-4.14h12.46c.2 0 .3-.04.3-.12s-.06-.18-.18-.3l-1.58-1.7-1.08 1.5h-9.42c.3466667-.44.5766667-.72.69-.84s.2833333-.2066667.51-.26.34-.12.34-.2-.0666667-.16-.2-.24l-1.58-1c-1.3466667 2.7466667-2.9733333 5.1-4.88 7.06zm-.08 11.52c3.9466667-.1333333 7.1133333-.9066667 9.5-2.32.44.28 1.01.5366667 1.71.77s1.6533333.4966667 2.86.79 1.8766667.44 2.01.44c.0933333 0 .1533333-.0733333.18-.22.1066667-.6933333.5933333-1.1266667 1.46-1.3v-.28c-.4533333.0266667-.9133333.04-1.38.04-2.24 0-4.1666667-.3333333-5.78-1 .7333333-.5866667 1.4866667-1.34 2.26-2.26.2666667-.3066667.4766667-.5033333.63-.59s.3333333-.1466667.54-.18l.0947222-.0197222c.1435185-.037963.2152778-.1013889.2152778-.1902778 0-.1066667-.08-.2266667-.24-.36l-1.36-1.16-.56.74h-5.5c.3733333-.4933333.7266667-1.02 1.06-1.58h5.4v.48c0 .1866667.0566667.28.17.28s.3633333-.11.75-.33.58-.4366667.58-.65l-.08-.96c-.0266667-.3733333-.04-.78-.04-1.22v-1.92l.5-.28c.1466667-.0933333.22-.1733333.22-.24s-.0733333-.1466667-.22-.24l-1.4-1.04-.72.88h-7.9l-1.4-.74c.04.7066667.06 1.3266667.06 1.86l-.0003704 2.4907407c-.0019753.8039507-.0118518 1.4103704-.0296296 1.8192593-.02.46-.03.7233333-.03.79 0 .2933333.0633333.44.19.44s.34-.0733333.64-.22.4866667-.2666667.56-.36.11-.22.11-.38v-.46h1.16c-1.3333333 2.4266667-3.3733333 4.4266667-6.12 6l.12.3c2.4533333-1.12 4.3133333-2.36 5.58-3.72.4933333 1.0133333 1.4 2.04 2.72 3.08-2.12 1.2666667-4.9933333 2.1666667-8.62 2.7zm13.1-11.58h-8.04v-1.78h8.04zm0 2.32h-8.04v-1.76h8.04zm-3.72 5.6c-1.5866667-.8933333-2.6666667-1.8333333-3.24-2.82l.06-.04h5.8c-.7866667 1.1333333-1.66 2.0866667-2.62 2.86zm15.6833333 3.18c.16 0 .41-.0866667.75-.26s.51-.3866667.51-.64c0-.0666667-.01-.3666667-.03-.9s-.03-1.44-.03-2.72v-3.12h2.36v4.26c0 .2133333-.0666667.3533333-.2.42s-.3333333.1-.6.1-.6066667-.0266667-1.02-.08l-.04.24c.9333333.36 1.4333333.7866667 1.5 1.28.04.1866667.1.28.18.28s.3433333-.21.79-.63.67-.9166667.67-1.49v-4.22l.34-.16c.16-.0933333.24-.1766667.24-.25s-.0466667-.1433333-.14-.21l-1.24-1.04-.72.98h-2.12v-2.4h4.6c.2266667 0 .34-.0333333.34-.1s-.0466667-.1466667-.14-.24l-1.2-1.32-.92 1.16h-2.68v-2.72h3.8c.1866667 0 .28-.03.28-.09s-.04-.1366667-.12-.23l-1.08-1.28-1 1.1h-1.88v-2.54l.56-.36c.16-.08.24-.1566667.24-.23s-.08-.1366667-.24-.19l-1.94-.78c.0352.1877333.054912 1.268608.059136 3.242624l.000864.857376h-2.36c.08-.1333333.1966667-.36.35-.68s.27-.54.35-.66.19-.2066667.33-.26.21-.1133333.21-.18-.1-.1466667-.3-.24l-1.36-.68c-.2 1.7733333-.8133333 3.6-1.84 5.48l.28.08c.6666667-.8266667 1.2266667-1.6133333 1.68-2.36h2.66v2.72h-3.62c-.6 0-1.1466667-.0333333-1.64-.1l.72.82c.3333333-.1466667.78-.22 1.34-.22h3.2v2.4h-2.38l-1.3-.64c.0266667.44.04 1.22.04 2.34v1.38c0 1.4-.0466667 2.4866667-.14 3.26-.04.44.0066667.66.14.66s.3333333-.06.6-.18.4466667-.2233333.54-.31.14-.2366667.14-.45v-5.54h2.36l-.0008163 3.1228571c-.0032653.8685715-.0163266 1.6342858-.0391837 2.2971429l-.08 1.74c0 .32.08.48.24.48zm9.4.22c.12 0 .3866667-.1566667.8-.47s.6766667-.6266667.79-.94.17-.8233333.17-1.53v-13.94l.52-.3c.1466667-.08.22-.1533333.22-.22s-.1133333-.1466667-.34-.24l-1.82-.8c.0533333.88.08 1.9333333.08 3.16v12.44c0 .36-.07.6033333-.21.73s-.4433333.19-.91.19-1.1333333-.04-2-.12l-.04.26c.7333333.16 1.3.34 1.7.54s.6533333.5066667.76.92c.0666667.2133333.16.32.28.32zm-2.53-4.72c.1266667 0 .35-.0933333.67-.28s.48-.36.48-.52l-.04-2.34v-6.12l.44-.26c.16-.1066667.24-.19.24-.25s-.08-.1366667-.24-.23l-1.74-.86c.04.7466667.06 1.38.06 1.9l-.0003 6.0324c-.0018.7944-.0117 1.3836-.0297 1.7676-.02.4266667-.03.6733333-.03.74 0 .28.0633333.42.19.42z" fill="#000" fill-opacity=".26" fill-rule="nonzero" transform="matrix(.70710678 -.70710678 .70710678 .70710678 -23.91439 45.805554)"/><path d="m1 12 11-11h23l-34 34z" fill="#f9c563"/><path d="m13.1923882 8.19238816c.5522847 0 1 .44771525 1 1v6.00000004c0 .5522847-.4477153 1-1 1-.5522848 0-1-.4477153-1-1v-6.00000004c0-.55228475.4477152-1 1-1zm6 0c1.6568542 0 3 1.34314575 3 3.00000004 0 1.6568542-1.3431458 3-3 3h-1v1c0 .5522847-.4477153 1-1 1-.5522848 0-1-.4477153-1-1v-7.00000004zm-10.00000004 0c.55228475 0 1.00000004.44771525 1.00000004 1v4.00000004c0 .0898558-.0118514.1769436-.0340763.2597856-.0417112.1726014-.1304741.3359205-.2657835.4700316l-1.97951546 1.961984c-.18047275.1788744-.41200932.2748925-.64730401.2881597h-.13693799c-.2352947-.0132672-.46683126-.1092853-.64730402-.2881597l-1.97951545-1.961984c-.04044955-.0400913-.07673943-.0827928-.10886726-.1275677-.1256883-.1676574-.20069605-.376194-.20069605-.6022495v-4.00000004c0-.55228475.44771525-1 1-1s1 .44771525 1 1v3.58900004l1.005.996.995-.987v-3.59800004c0-.55228475.44771525-1 1-1zm10.00000004 2.00000004h-1v2h1c.5522847 0 1-.4477153 1-1 0-.5522848-.4477153-1-1-1z" fill="#fff" transform="matrix(.70710678 -.70710678 .70710678 .70710678 -4.757199 12.899107)"/></g></svg>