<svg id="图层_1" data-name="图层 1" 
    xmlns="http://www.w3.org/2000/svg" viewBox="0 0 86 102">
    <defs>
        <style>.cls-1{fill:#fff;}.cls-2{fill-opacity:0.2;}.cls-3{fill-opacity:0.26;}.cls-4{fill:#f9c563;}</style>
    </defs>
    <title>PDF-优化添加3</title>
    <rect class="cls-1" x="1" y="1" width="84" height="100" rx="2" ry="2"/>
    <path class="cls-2" d="M83,0H3A3,3,0,0,0,0,3V99a3,3,0,0,0,3,3H83a3,3,0,0,0,3-3V3A3,3,0,0,0,83,0Zm0,1a2,2,0,0,1,2,2V99a2,2,0,0,1-2,2H3a2,2,0,0,1-2-2V3A2,2,0,0,1,3,1Z"/>
    <path class="cls-3" d="M2.209,55.794a.444.444,0,0,0,.1-.42.892.892,0,0,0-.255-.475,1.273,1.273,0,0,0-.921-.284c-.042,0-.088.013-.131.014v.761a3.411,3.411,0,0,1,.712.323Q2.06,55.943,2.209,55.794Z"/>
    <path class="cls-3" d="M3.588,55.162,2.332,56.418l-1.069.356q.483.434.925.874l.628.628A11.122,11.122,0,0,1,4.6,60.419,4.921,4.921,0,0,1,5.141,62.5l.144.008a5.355,5.355,0,0,0-.115-2.355,7.346,7.346,0,0,0-2.007-2.838l-.628-.628,6.033-6.033c.1-.1.137-.168.106-.2a.473.473,0,0,0-.25-.064L7.279,50.3l.093,1.078L5.709,53.04,3.2,50.528l2.359-2.359c.079-.079.105-.133.076-.161a.289.289,0,0,0-.161-.059l-1.171-.1.085,1L1,52.234v.492l.076-.076ZM2.62,51.106l2.512,2.512-.967.967L1.653,52.073Z"/>
    <path class="cls-3" d="M9.622,50.145l.17.051a6.992,6.992,0,0,0-.238-4.056l.747.747q.56.56.815.832l.416.45c.1.1.173.133.212.093a1.386,1.386,0,0,0,.174-.4q.114-.344.021-.437c-.011-.011-.1-.092-.276-.242s-.448-.414-.827-.793l-.45-.45a2.744,2.744,0,0,1,1.188.1q.365.111.471,0a.281.281,0,0,0,.042-.305.957.957,0,0,0-.242-.378.57.57,0,0,0-.526-.119,5.04,5.04,0,0,0-1.163.467L9.8,45.351l1.129-1.129c.073-.074.1-.123.072-.148a.385.385,0,0,0-.182-.064l-.967-.1.059.874-.339.339-.782-.78.059-.348c.011-.091.008-.144-.008-.161s-.059-.008-.127.025l-1.044.45q.475.425.806.755l.577.577L7.8,46.9a5.142,5.142,0,0,1-.7.594l.636.11a1.876,1.876,0,0,1,.441-.628l.7-.7a9.124,9.124,0,0,1,.74,3.878Z"/>
    <path class="cls-3" d="M4.776,49.46a14.038,14.038,0,0,1,.967,3.089L5.93,52.5V49.969a1.135,1.135,0,0,1,.081-.428c.043-.082.048-.139.017-.17s-.1-.041-.2-.03Z"/>
    <path class="cls-3" d="M30.121,25.429c-.025-.025-.092-.024-.2,0l-1.1.373q.5.45.832.781L32.1,29.031q.594.594.853.878c.172.19.273.3.3.327.119.119.205.151.259.1a1.01,1.01,0,0,0,.165-.4c.056-.215.051-.356-.017-.424l-1.01-.976-2.6-2.6.076-.3C30.148,25.524,30.146,25.455,30.121,25.429Z"/>
    <path class="cls-3" d="M36.082,29.269l-5.914-5.914.093-.348c.028-.1.028-.158,0-.187s-.11-.014-.246.042L28.9,23.3q.594.526,1.375,1.307l5.278,5.278a.588.588,0,0,1,.221.4.88.88,0,0,1-.305.467q-.3.3-.9.8l.093.127a4.547,4.547,0,0,1,.95-.492.828.828,0,0,1,.713.068c.119.062.2.068.255.017a1.272,1.272,0,0,0,.14-.539,1.324,1.324,0,0,0-.064-.734A2.965,2.965,0,0,0,36.082,29.269Z"/>
    <path class="cls-3" d="M11.659,51.571a1.785,1.785,0,0,1,.441-.628L14.747,48.3l1.366,1.366c.119.119.164.223.136.314a.971.971,0,0,1-.25.344,7.05,7.05,0,0,1-.827.641l.136.187a4.084,4.084,0,0,1,.967-.467.691.691,0,0,1,.56.11c.113.068.188.083.225.047a1.655,1.655,0,0,0,.174-.462.8.8,0,0,0-.246-1.027L15.342,47.7l3.165-3.165c.079-.079.106-.132.081-.157a.4.4,0,0,0-.208-.055l-1.2-.136.1,1.12-5.558,5.558a6.343,6.343,0,0,1-.687.6Z"/>
    <path class="cls-3" d="M13.61,54.083q.373-.968.573-1.684a11.224,11.224,0,0,0,.31-1.879,1.418,1.418,0,0,1,.187-.67c.085-.1.113-.167.085-.195a.276.276,0,0,0-.17-.051l-.874.025a10.919,10.919,0,0,1-.348,4.387Z"/>
    <path class="cls-3" d="M11.226,49.2l.636.093a1.928,1.928,0,0,1,.45-.619L16.13,44.86c.107-.107.139-.184.093-.229a.315.315,0,0,0-.212-.076l-1.027-.025.076.925L11.9,48.612A6.2,6.2,0,0,1,11.226,49.2Z"/>
    <path class="cls-3" d="M21.554,33.954l.068.679L18.27,37.985l-.908.28q.475.425.815.764l.925.925q.61.611.891.916t.322.348c.124.124.214.16.267.106a1.055,1.055,0,0,0,.178-.365,1.1,1.1,0,0,0,.085-.39.357.357,0,0,0-.115-.208l-.195-.195.492-.492a9.354,9.354,0,0,1-.051,5.142l.178.076a10.472,10.472,0,0,0,.789-3.946A5.625,5.625,0,0,0,24.4,41.1a14.165,14.165,0,0,1-2.512,4.8l.178.093a11.936,11.936,0,0,0,3.046-5.015,4.707,4.707,0,0,0,1.052-.4q.594-.3,1.549-.878t1.039-.666c.04-.04.034-.1-.017-.17a.951.951,0,0,1,.068-1.171l-.119-.119c-.181.2-.371.4-.569.6a9.062,9.062,0,0,1-2.877,2.028,9.874,9.874,0,0,0,0-1.918,1.742,1.742,0,0,1,.017-.518.94.94,0,0,1,.153-.305c.074-.1.088-.175.042-.221a.321.321,0,0,0-.255-.051l-1.069.085.076.552-2.333,2.333a10.109,10.109,0,0,0-.221-1.12l2.291-2.291.2.2c.079.079.143.1.191.047a1.353,1.353,0,0,0,.178-.458q.106-.385-.03-.522l-.441-.373q-.255-.22-.535-.5l-.815-.815L22.788,34c.023-.1.02-.167-.008-.195s-.093-.031-.195-.008Zm.382,6.644L24.4,38.137a8.157,8.157,0,0,1,.1,2.325,5.02,5.02,0,0,1-2.571.178Zm1.765-4.09L20.29,39.919l-.747-.747,3.411-3.411Zm-.985-.984-3.411,3.411-.755-.755,3.411-3.411Z"/>
    <path class="cls-3" d="M19.758,47.137a1.622,1.622,0,0,0-.344-.454.967.967,0,0,0-.581-.293,2.159,2.159,0,0,0-.908.17,14.079,14.079,0,0,0-1.608.742l.042.212a6.081,6.081,0,0,1,2.724-.093,2.98,2.98,0,0,0,.484.076.268.268,0,0,0,.2-.081C19.82,47.364,19.817,47.27,19.758,47.137Z"/>
    <path class="cls-3" d="M25.161,28.87c-.028-.028-.1-.02-.229.025l-.866.289A8.962,8.962,0,0,1,25.61,32.29l.153-.085a12.907,12.907,0,0,0-.288-1.714L26.6,29.362l1.154,1.154-1.536,1.536a7.433,7.433,0,0,1-.738.653l.653.042a2.035,2.035,0,0,1,.475-.662l1.358-1.358,1.018,1.018-1.01,1.01-.823.28q.3.262,1.01.976l.586.586a17.6,17.6,0,0,1,1.324,1.442c.17.2.283.277.339.221a.989.989,0,0,0,.178-.331,1.319,1.319,0,0,0,.1-.361.355.355,0,0,0-.132-.25l-2.35-2.35,1-1L30.346,33.1q.671.67,1.146,1.18l.7.772q.2.2.305.1a1.181,1.181,0,0,0,.208-.429.454.454,0,0,0-.055-.488q-.042-.042-.4-.369c-.183-.169-.458-.437-.828-.8l-1.663-1.662,1-1,1.807,1.807a.251.251,0,0,1,.093.263.831.831,0,0,1-.212.3,5.013,5.013,0,0,1-.467.4l.085.119q.823-.365,1.179-.093.144.093.195.042a1.711,1.711,0,0,0,.068-.6,1.188,1.188,0,0,0-.348-.916l-1.79-1.79.076-.212c.028-.107.027-.177,0-.208a.164.164,0,0,0-.148-.03l-.967.085.11.721-.9.9-1.018-1.018,1.952-1.952c.1-.1.13-.158.1-.187a.231.231,0,0,0-.161-.042l-1.069-.051.1.882-1.137,1.137L27.164,28.8l1.612-1.612c.079-.079.106-.132.081-.157a.244.244,0,0,0-.148-.047l-1-.085.042.891-.8.8-1.078-1.078.085-.39c.034-.1.035-.168,0-.2s-.092-.024-.182.021l-1.154.492q.161.111,1.765,1.714l-1,1c-.023-.091-.069-.236-.14-.437a3.669,3.669,0,0,1-.132-.429.4.4,0,0,1,.03-.25C25.185,28.953,25.19,28.9,25.161,28.87Z"/>
    <path class="cls-3" d="M17.218,41.073a14.018,14.018,0,0,0,.068-3.581l5.286-5.286c.085-.085.11-.144.076-.178a.3.3,0,0,0-.2-.051l-1.392-.051.178,1.1-4,4q-.06-.5-.064-.649a.6.6,0,0,1,.106-.327c.074-.119.093-.195.059-.229s-.1-.04-.187-.017l-1.095.246a16.325,16.325,0,0,1,.925,5.066Z"/>
    <path class="cls-3" d="M11.879,42.78l-.492.492a5.009,5.009,0,0,1-.687.586l.628.1a2.016,2.016,0,0,1,.441-.611,11.617,11.617,0,0,1,.577,1.926,9,9,0,0,1,.11,1.884l.153.017a5.913,5.913,0,0,0-.238-3.9l.7.7q.6.6.844.878t.365.4c.082.082.143.1.182.064a1.432,1.432,0,0,0,.178-.4q.119-.339.042-.416c-.011-.011-.1-.091-.263-.238s-.436-.41-.815-.789l-.976-.976.085-.085a5.8,5.8,0,0,0,1.18.526,5.168,5.168,0,0,0,1.252.182c.489.02.808.027.955.021a.618.618,0,0,0,.246-.034c.028-.028.025-.082-.008-.161q-.144-.313.322-1.018l-.1-.1a6.328,6.328,0,0,1-1.858.552,5.006,5.006,0,0,1-1.8-.153L14.518,40.6c.068-.068.089-.115.064-.14a.312.312,0,0,0-.182-.047l-1.1-.136.076,1.01-.976.976-.772-.772.076-.331c.023-.091.021-.148,0-.174s-.078-.021-.157.013l-1.018.492q.476.408.8.73Z"/>
    <path class="cls-3" d="M41.642,13.084l1.434-1.434,2.512,2.512-1.256,1.256-1.069.356q.483.434.925.874l.628.628A11.122,11.122,0,0,1,46.6,19.419a4.921,4.921,0,0,1,.539,2.083l.144.008a5.355,5.355,0,0,0-.115-2.355,7.346,7.346,0,0,0-2.007-2.838l-.628-.628,6.033-6.033c.1-.1.137-.168.106-.2a.473.473,0,0,0-.25-.064L49.279,9.3l.093,1.078-1.663,1.663L45.2,9.529,47.556,7.17c.079-.079.1-.133.076-.161a.281.281,0,0,0-.161-.06l-1.171-.1.085,1-5.168,5.168a6.24,6.24,0,0,1-.755.653l.7.085A2.186,2.186,0,0,1,41.642,13.084Zm2.978-2.978,2.512,2.512-.967.967-2.512-2.512Z"/>
    <path class="cls-3" d="M49.1,6.49l.636.11a1.876,1.876,0,0,1,.441-.628l.7-.7a9.15,9.15,0,0,1,.738,3.878l.17.051a6.992,6.992,0,0,0-.238-4.056l.747.747q.56.56.815.832l.416.45c.1.1.173.133.212.093a1.386,1.386,0,0,0,.174-.4q.114-.344.021-.437c-.011-.013-.1-.093-.275-.243s-.448-.414-.827-.793l-.45-.45a2.744,2.744,0,0,1,1.188.1q.365.111.471,0a.281.281,0,0,0,.042-.3.957.957,0,0,0-.242-.378.57.57,0,0,0-.526-.119,5.04,5.04,0,0,0-1.163.467L51.8,4.351l1.129-1.129c.073-.074.1-.123.072-.148a.385.385,0,0,0-.182-.064l-.967-.1.059.874-.339.339-.782-.78.059-.348c.011-.091.008-.144-.008-.161s-.059-.008-.127.025l-1.044.45q.476.424.806.755l.577.577L49.8,5.9A5.08,5.08,0,0,1,49.1,6.49Z"/>
    <path class="cls-3" d="M47.743,11.548l.187-.051V8.969a1.134,1.134,0,0,1,.081-.428c.043-.082.048-.139.017-.17s-.1-.041-.2-.03l-1.053.119A14.081,14.081,0,0,1,47.743,11.548Z"/>
    <path class="cls-3" d="M53.031,10.469l.628.1a1.785,1.785,0,0,1,.441-.628L56.747,7.3l1.366,1.366c.119.119.164.223.136.314A.971.971,0,0,1,58,9.32a7.051,7.051,0,0,1-.827.641l.136.187a4.084,4.084,0,0,1,.967-.467.691.691,0,0,1,.56.11c.113.068.188.083.225.047a1.655,1.655,0,0,0,.174-.462,1.166,1.166,0,0,0,.064-.59,1.17,1.17,0,0,0-.31-.437L57.342,6.7l3.165-3.165c.079-.079.106-.132.081-.157a.4.4,0,0,0-.208-.055L59.175,3.19l.1,1.12L53.719,9.868A6.657,6.657,0,0,1,53.031,10.469Z"/>
    <path class="cls-3" d="M63.893,4.9l.178.093A13.288,13.288,0,0,0,66.764,1h-.653A15.861,15.861,0,0,1,63.893,4.9Z"/>
    <path class="cls-3" d="M58.317,6.3l.042.212a6.081,6.081,0,0,1,2.724-.093,2.98,2.98,0,0,0,.484.076.268.268,0,0,0,.2-.081c.054-.054.051-.147-.008-.28a1.622,1.622,0,0,0-.344-.454.967.967,0,0,0-.581-.293,2.159,2.159,0,0,0-.908.17A13.869,13.869,0,0,0,58.317,6.3Z"/>
    <path class="cls-3" d="M63.155,3.892A12.305,12.305,0,0,0,63.89,1h-.537a10.35,10.35,0,0,1-.377,2.815Z"/>
    <path class="cls-3" d="M53.879,1.78l-.492.492a5.01,5.01,0,0,1-.687.586l.628.1a2.016,2.016,0,0,1,.441-.611,11.617,11.617,0,0,1,.577,1.926,9,9,0,0,1,.11,1.884l.153.017a5.913,5.913,0,0,0-.238-3.9l.7.7q.6.6.844.878t.365.4c.082.082.143.1.182.064a1.448,1.448,0,0,0,.178-.4q.119-.339.042-.416c-.011-.011-.1-.091-.263-.238s-.436-.41-.815-.789l-.976-.976.085-.085a5.815,5.815,0,0,0,1.179.526,5.168,5.168,0,0,0,1.252.182c.489.02.808.027.955.021a.618.618,0,0,0,.246-.034c.028-.028.025-.082-.008-.161-.09-.2.007-.513.278-.941h-.53a5.9,5.9,0,0,1-1.384.373,5.006,5.006,0,0,1-1.8-.153L55.117,1h-.458l-.263.263L54.134,1H53.088c.079.075.162.151.231.22Z"/>
    <path class="cls-3" d="M44.209,14.794a.444.444,0,0,0,.1-.42.892.892,0,0,0-.255-.475,1.273,1.273,0,0,0-.921-.284,3.367,3.367,0,0,0-1.438.335l.008.161a4.224,4.224,0,0,1,2.011.6Q44.06,14.942,44.209,14.794Z"/>
    <path class="cls-3" d="M53.226,8.2l.636.093a1.928,1.928,0,0,1,.45-.619L58.13,3.86c.107-.107.139-.184.093-.229a.315.315,0,0,0-.212-.076L56.984,3.53l.076.925L53.905,7.61A6.215,6.215,0,0,1,53.226,8.2Z"/>
    <path class="cls-3" d="M55.61,13.083q.374-.968.573-1.684a11.224,11.224,0,0,0,.31-1.879,1.418,1.418,0,0,1,.187-.67c.085-.1.113-.167.085-.195A.276.276,0,0,0,56.6,8.6l-.875.024a10.919,10.919,0,0,1-.348,4.387Z"/>
    <path class="cls-3" d="M41.574,101.039q.365.111.471,0c.012-.012.012-.029.021-.043H41.39C41.449,101.015,41.52,101.019,41.574,101.039Z"/>
    <path class="cls-3" d="M48.587,99.38a.4.4,0,0,0-.208-.055l-1.205-.136.1,1.12-.691.691h.458l1.463-1.463C48.585,99.457,48.612,99.4,48.587,99.38Z"/>
    <path class="cls-3" d="M42.371,98.272l.7.7q.6.6.844.878t.365.4c.082.082.143.1.182.064a1.448,1.448,0,0,0,.178-.4q.119-.339.042-.416c-.011-.011-.1-.09-.263-.238s-.436-.41-.815-.789l-.976-.976.085-.085a5.8,5.8,0,0,0,1.18.526,5.168,5.168,0,0,0,1.252.182c.489.02.808.027.955.021a.618.618,0,0,0,.246-.034c.028-.028.025-.082-.008-.161q-.144-.313.322-1.018l-.1-.1a6.328,6.328,0,0,1-1.858.552,5.006,5.006,0,0,1-1.8-.153L44.518,95.6c.068-.068.089-.115.064-.14a.312.312,0,0,0-.182-.047l-1.1-.136.076,1.01-.976.976-.772-.772.076-.331c.023-.091.021-.148,0-.174s-.078-.021-.157.013l-1.018.492q.476.408.8.73l.56.56-.492.492a5.009,5.009,0,0,1-.687.586l.628.1a2.016,2.016,0,0,1,.441-.611,11.617,11.617,0,0,1,.577,1.926,7.032,7.032,0,0,1,.084.725H42.8A5.853,5.853,0,0,0,42.371,98.272Z"/>
    <path class="cls-3" d="M46.224,99.63a.315.315,0,0,0-.212-.076l-1.027-.025.076.925-.547.546h.475l1.141-1.141C46.238,99.752,46.269,99.675,46.224,99.63Z"/>
    <path class="cls-3" d="M66.082,84.269l-5.914-5.914.093-.348c.028-.1.028-.158,0-.187s-.11-.014-.246.042l-1.112.433q.594.526,1.375,1.307l5.278,5.278a.588.588,0,0,1,.221.4.881.881,0,0,1-.305.467q-.3.3-.9.8l.093.127a4.547,4.547,0,0,1,.95-.492.828.828,0,0,1,.713.068c.119.062.2.068.255.017a1.272,1.272,0,0,0,.14-.539,1.324,1.324,0,0,0-.064-.734,2.966,2.966,0,0,0-.578-.722Z"/>
    <path class="cls-3" d="M42.087,100.737a.939.939,0,0,0-.242-.378.57.57,0,0,0-.526-.119,5.04,5.04,0,0,0-1.163.467l-.356-.356,1.129-1.129c.073-.074.1-.123.072-.148a.385.385,0,0,0-.182-.064l-.967-.1.059.874-.339.339-.781-.781.059-.348c.011-.091.008-.144-.008-.161s-.059-.008-.127.025l-1.044.45q.476.424.806.755l.577.577-.36.36H40.45l-.063-.063a2.946,2.946,0,0,1,1,.063h.676A.3.3,0,0,0,42.087,100.737Z"/>
    <path class="cls-3" d="M58.69,92.577c-.181.2-.37.4-.568.6a9.062,9.062,0,0,1-2.877,2.028,9.874,9.874,0,0,0,0-1.918,1.742,1.742,0,0,1,.017-.518.94.94,0,0,1,.153-.305c.074-.1.088-.175.042-.221a.321.321,0,0,0-.255-.051l-1.069.085.076.552-2.333,2.333a10.109,10.109,0,0,0-.221-1.12l2.291-2.291.2.2c.079.079.143.1.191.047a1.353,1.353,0,0,0,.178-.458q.107-.386-.03-.522l-.441-.373q-.255-.221-.535-.5l-.815-.815L52.791,89c.023-.1.02-.167-.008-.195s-.093-.031-.195-.008l-1.035.153.068.679-3.352,3.352-.908.28q.476.424.815.764l.925.925q.611.61.891.916t.322.348c.124.125.214.16.267.106a1.055,1.055,0,0,0,.178-.365,1.094,1.094,0,0,0,.085-.39.357.357,0,0,0-.115-.208l-.195-.195.492-.492a9.354,9.354,0,0,1-.051,5.142l.178.076a10.472,10.472,0,0,0,.789-3.946A5.609,5.609,0,0,0,54.4,96.1a14.165,14.165,0,0,1-2.512,4.8l.178.093a11.936,11.936,0,0,0,3.046-5.015,4.707,4.707,0,0,0,1.052-.4q.594-.3,1.549-.878t1.039-.666c.04-.04.034-.1-.017-.17a.951.951,0,0,1,.068-1.171Zm-10.14.6,3.411-3.411.755.755-3.411,3.411Zm1.739,1.739-.747-.747,3.411-3.411.747.747Zm4.209.543a5.02,5.02,0,0,1-2.571.178l.008-.042L54.4,93.137A8.157,8.157,0,0,1,54.5,95.462Z"/>
    <path class="cls-3" d="M52.572,87.206c.085-.085.11-.144.076-.178a.3.3,0,0,0-.2-.051l-1.392-.051.178,1.1-4,4q-.06-.5-.064-.649a.6.6,0,0,1,.106-.327c.074-.119.093-.195.059-.229s-.1-.04-.187-.017l-1.1.246a16.325,16.325,0,0,1,.925,5.066l.238-.034a14.018,14.018,0,0,0,.068-3.581Z"/>
    <path class="cls-3" d="M62.645,83.531l-2.6-2.6.076-.3c.023-.113.021-.182,0-.208s-.092-.024-.2,0l-1.1.373q.5.45.832.781l2.444,2.444q.594.594.853.878c.172.19.273.3.3.327.119.119.205.151.259.1a1.01,1.01,0,0,0,.165-.4c.056-.215.051-.356-.017-.424Z"/>
    <path class="cls-3" d="M61.381,84.931l.076-.212c.028-.107.027-.177,0-.208a.164.164,0,0,0-.148-.03l-.967.085.11.721-.9.9-1.018-1.018,1.952-1.952c.1-.1.13-.158.1-.187a.231.231,0,0,0-.161-.042l-1.069-.051.1.882L58.32,84.955,57.166,83.8l1.612-1.612c.079-.079.106-.132.081-.157a.244.244,0,0,0-.148-.047l-1-.085.042.891-.8.8-1.078-1.078.085-.39c.034-.1.035-.168,0-.2s-.092-.024-.182.021l-1.154.492q.16.111,1.765,1.714l-1,1c-.023-.091-.069-.236-.14-.437a3.669,3.669,0,0,1-.132-.429.4.4,0,0,1,.03-.25c.037-.082.041-.137.013-.165s-.1-.02-.229.025l-.866.289a8.962,8.962,0,0,1,1.544,3.106l.153-.085a13.4,13.4,0,0,0-.291-1.713L56.6,84.362l1.154,1.154-1.536,1.536a7.434,7.434,0,0,1-.738.653l.653.042a2.035,2.035,0,0,1,.475-.662l1.358-1.358,1.018,1.018-1.01,1.01-.823.28q.3.263,1.01.976l.586.586a17.6,17.6,0,0,1,1.324,1.442c.17.2.283.277.339.221a1,1,0,0,0,.178-.331,1.318,1.318,0,0,0,.1-.361.355.355,0,0,0-.132-.25l-2.35-2.35,1-1L60.346,88.1q.67.67,1.146,1.18l.7.772q.2.2.305.1a1.181,1.181,0,0,0,.208-.429.454.454,0,0,0-.055-.488q-.042-.042-.4-.369c-.183-.169-.458-.437-.828-.8l-1.663-1.662,1-1,1.807,1.807a.251.251,0,0,1,.093.263.831.831,0,0,1-.212.3,5.014,5.014,0,0,1-.467.4l.085.119q.823-.364,1.179-.093.144.093.195.042a1.711,1.711,0,0,0,.068-.6,1.188,1.188,0,0,0-.348-.916Z"/>
    <path class="cls-3" d="M84.8,54.351l.2-.2V52.924l-.149-.016.059.874-.339.339-.781-.781.059-.348c.011-.091.008-.144-.008-.161s-.059-.008-.127.025l-1.044.45q.476.425.806.755l.577.577L82.8,55.894a5.142,5.142,0,0,1-.7.594l.636.11a1.876,1.876,0,0,1,.441-.628l.7-.7a9.15,9.15,0,0,1,.738,3.878l.17.051a6.992,6.992,0,0,0-.238-4.056l.448.447V54.551Z"/>
    <path class="cls-3" d="M77.209,64.794a.444.444,0,0,0,.1-.42.892.892,0,0,0-.255-.475,1.273,1.273,0,0,0-.921-.284,3.364,3.364,0,0,0-1.438.335l.008.161a4.224,4.224,0,0,1,2.011.6Q77.06,64.942,77.209,64.794Z"/>
    <path class="cls-3" d="M80.743,61.548l.187-.051V58.968a1.145,1.145,0,0,1,.081-.429c.043-.083.048-.139.017-.17s-.1-.041-.2-.03l-1.052.119A14.194,14.194,0,0,1,80.743,61.548Z"/>
    <path class="cls-3" d="M82.279,59.3l.093,1.078-1.663,1.663L78.2,59.529l2.359-2.359c.079-.079.105-.133.076-.161a.289.289,0,0,0-.161-.059l-1.171-.1.085,1-5.168,5.168a6.241,6.241,0,0,1-.755.653l.7.085a2.186,2.186,0,0,1,.484-.67l1.434-1.434,2.512,2.512-1.256,1.256-1.069.356q.483.434.925.874l.628.628A11.122,11.122,0,0,1,79.6,69.419a4.921,4.921,0,0,1,.539,2.083l.144.008a5.355,5.355,0,0,0-.115-2.355,7.346,7.346,0,0,0-2.007-2.838l-.628-.628,6.033-6.033c.1-.1.137-.168.106-.2a.473.473,0,0,0-.25-.064Zm-3.114,4.285-2.512-2.512.967-.967,2.512,2.512Z"/>
    <path class="cls-3" d="M8.226,93.7l.636.093a1.928,1.928,0,0,1,.45-.619L13.13,89.36c.107-.107.139-.184.093-.229a.315.315,0,0,0-.212-.076l-1.027-.025.076.925L8.9,93.11A6.215,6.215,0,0,1,8.226,93.7Z"/>
    <path class="cls-3" d="M25.69,82.077c-.181.2-.37.4-.568.6a9.062,9.062,0,0,1-2.877,2.028,9.874,9.874,0,0,0,0-1.918,1.742,1.742,0,0,1,.017-.518.94.94,0,0,1,.153-.305c.074-.1.088-.175.042-.221a.321.321,0,0,0-.255-.051l-1.069.085.076.552-2.333,2.333a10.11,10.11,0,0,0-.221-1.12l2.291-2.291.2.2c.079.079.143.1.191.047a1.353,1.353,0,0,0,.178-.458q.106-.386-.03-.522l-.441-.373q-.255-.221-.535-.5l-.815-.815.093-.331c.023-.1.02-.167-.008-.195s-.093-.031-.195-.008l-1.035.153.068.679-3.352,3.352-.908.28q.476.424.815.764l.925.925q.61.61.891.916t.322.348c.124.125.214.16.267.106a1.055,1.055,0,0,0,.178-.365,1.094,1.094,0,0,0,.085-.39.357.357,0,0,0-.115-.208l-.195-.195.492-.492a9.354,9.354,0,0,1-.051,5.142l.178.076a10.472,10.472,0,0,0,.789-3.946A5.609,5.609,0,0,0,21.4,85.6a14.165,14.165,0,0,1-2.512,4.8l.178.093a11.936,11.936,0,0,0,3.046-5.015,4.707,4.707,0,0,0,1.052-.4q.594-.3,1.549-.878t1.039-.666c.04-.04.034-.1-.017-.17a.951.951,0,0,1,.068-1.171Zm-10.14.6,3.411-3.411.755.755-3.411,3.411Zm1.739,1.739-.747-.747,3.411-3.411.747.747Zm4.209.543a5.02,5.02,0,0,1-2.571.178l.008-.042L21.4,82.637A8.157,8.157,0,0,1,21.5,84.962Z"/>
    <path class="cls-3" d="M2.556,92.67c.079-.079.105-.133.076-.161a.281.281,0,0,0-.161-.06l-1.171-.1.085,1L1,93.734v.492Z"/>
    <path class="cls-3" d="M28.381,74.431l.076-.212c.028-.107.027-.177,0-.208a.164.164,0,0,0-.148-.03l-.967.085.11.721-.9.9-1.018-1.018,1.952-1.952c.1-.1.13-.158.1-.187a.231.231,0,0,0-.161-.042l-1.069-.051.1.882L25.32,74.455,24.166,73.3l1.612-1.612c.079-.079.106-.132.081-.157a.244.244,0,0,0-.148-.047l-1-.085.042.891-.8.8-1.078-1.078.085-.39c.034-.1.035-.168,0-.2s-.092-.024-.182.021l-1.154.492q.161.111,1.765,1.714l-1,1c-.023-.091-.069-.236-.14-.437a3.669,3.669,0,0,1-.132-.429.4.4,0,0,1,.03-.25c.037-.082.041-.137.013-.165s-.1-.02-.229.025l-.865.289a8.962,8.962,0,0,1,1.544,3.106l.153-.085a13.064,13.064,0,0,0-.289-1.714l1.129-1.129,1.154,1.154-1.536,1.536a7.434,7.434,0,0,1-.738.653l.653.042a2.035,2.035,0,0,1,.475-.662l1.358-1.358,1.018,1.018-1.01,1.01-.823.28q.3.263,1.01.976l.586.586a17.6,17.6,0,0,1,1.324,1.442c.17.2.283.277.339.221a1,1,0,0,0,.178-.331,1.319,1.319,0,0,0,.1-.361.357.357,0,0,0-.131-.25l-2.35-2.35,1-1L27.35,77.6q.671.67,1.146,1.179l.7.772q.2.2.305.1a1.181,1.181,0,0,0,.208-.429.454.454,0,0,0-.055-.488q-.042-.042-.4-.369c-.183-.169-.458-.437-.828-.8l-1.663-1.662,1-1,1.807,1.807a.251.251,0,0,1,.093.263.831.831,0,0,1-.212.3,5.013,5.013,0,0,1-.467.4l.085.119q.823-.364,1.179-.093.144.093.195.042a1.711,1.711,0,0,0,.068-.6,1.188,1.188,0,0,0-.348-.916Z"/>
    <path class="cls-3" d="M13.987,93.848,12.341,92.2l3.165-3.165c.079-.079.106-.132.081-.157a.4.4,0,0,0-.208-.055l-1.2-.136.1,1.12L8.718,95.367a6.342,6.342,0,0,1-.687.6l.628.1a1.785,1.785,0,0,1,.441-.628L11.747,92.8l1.366,1.366c.119.119.164.223.136.314a.971.971,0,0,1-.25.344,7.051,7.051,0,0,1-.827.641l.136.187a4.085,4.085,0,0,1,.967-.467.691.691,0,0,1,.56.11c.113.068.188.083.225.047a1.655,1.655,0,0,0,.174-.462,1.166,1.166,0,0,0,.064-.59,1.181,1.181,0,0,0-.311-.438Z"/>
    <path class="cls-3" d="M33.082,73.769l-5.914-5.914.093-.348c.028-.1.028-.158,0-.187s-.11-.014-.246.042l-1.112.433q.594.526,1.375,1.307l5.278,5.278a.588.588,0,0,1,.221.4.881.881,0,0,1-.305.467q-.3.3-.9.8l.093.127a4.547,4.547,0,0,1,.95-.492.828.828,0,0,1,.713.068c.119.062.2.068.255.017a1.272,1.272,0,0,0,.14-.539,1.324,1.324,0,0,0-.064-.734A2.966,2.966,0,0,0,33.082,73.769Z"/>
    <path class="cls-3" d="M29.645,73.031l-2.6-2.6.076-.3c.023-.113.021-.182,0-.208s-.092-.024-.2,0l-1.1.373q.5.45.832.781L29.1,73.532q.594.594.853.878c.172.19.273.3.3.327.119.119.2.151.259.1a1.01,1.01,0,0,0,.165-.4c.056-.215.051-.356-.017-.424Z"/>
    <path class="cls-3" d="M16.414,91.183a.967.967,0,0,0-.581-.293,2.159,2.159,0,0,0-.908.17,14,14,0,0,0-1.608.742l.042.212a6.081,6.081,0,0,1,2.724-.093,2.98,2.98,0,0,0,.484.076.268.268,0,0,0,.2-.081c.054-.054.051-.147-.008-.28a1.62,1.62,0,0,0-.344-.453Z"/>
    <path class="cls-3" d="M19.648,76.528a.3.3,0,0,0-.2-.051l-1.392-.051.178,1.1-4,4q-.06-.5-.064-.649a.6.6,0,0,1,.106-.327c.074-.119.093-.195.059-.229s-.1-.04-.187-.017l-1.1.246a16.325,16.325,0,0,1,.925,5.066l.238-.034a14.018,14.018,0,0,0,.068-3.581l5.286-5.286C19.657,76.621,19.682,76.562,19.648,76.528Z"/>
    <path class="cls-3" d="M8.879,87.28l-.492.492a5.01,5.01,0,0,1-.687.586l.628.1a2.016,2.016,0,0,1,.441-.611,11.715,11.715,0,0,1,.577,1.926,9,9,0,0,1,.11,1.884l.153.017a5.913,5.913,0,0,0-.238-3.9l.7.7q.6.6.844.878t.365.4c.082.082.143.1.182.064a1.448,1.448,0,0,0,.178-.4q.119-.339.042-.416c-.011-.011-.1-.09-.263-.238s-.436-.41-.815-.789l-.976-.976.085-.085a5.815,5.815,0,0,0,1.179.526,5.168,5.168,0,0,0,1.252.182c.489.02.808.027.955.021a.618.618,0,0,0,.246-.034c.028-.028.025-.082-.008-.161q-.144-.313.322-1.018l-.1-.1a6.328,6.328,0,0,1-1.858.552,5.006,5.006,0,0,1-1.8-.153L11.517,85.1c.068-.068.089-.115.064-.14a.312.312,0,0,0-.182-.047l-1.1-.136.076,1.01-.976.976-.771-.772.076-.331c.023-.091.021-.148,0-.174s-.078-.021-.157.013l-1.019.492q.475.408.8.73Z"/>
    <path class="cls-3" d="M10.72,94.128a10.919,10.919,0,0,1-.348,4.387l.238.068q.373-.967.573-1.684a11.224,11.224,0,0,0,.31-1.879,1.418,1.418,0,0,1,.187-.67c.085-.1.113-.167.085-.195a.276.276,0,0,0-.17-.051Z"/>
    <path class="cls-3" d="M5.674,94.957a.473.473,0,0,0-.25-.064L4.279,94.8l.093,1.078L2.709,97.54,1,95.831v1.154l1.132,1.132-.967.967L1,98.92V99a1.968,1.968,0,0,0,.107.617l4.461-4.461C5.67,95.054,5.706,94.988,5.674,94.957Z"/>
    <path class="cls-3" d="M1.776,93.96a14.038,14.038,0,0,1,.967,3.089L2.93,97V94.469a1.134,1.134,0,0,1,.081-.428c.042-.082.048-.139.017-.17s-.1-.041-.2-.03Z"/>
    <path class="cls-3" d="M8.115,92.219l.416.45c.1.1.173.133.212.093a1.386,1.386,0,0,0,.174-.4q.114-.343.021-.437c-.011-.012-.1-.092-.275-.242s-.448-.414-.827-.793l-.45-.45a2.744,2.744,0,0,1,1.188.1q.365.111.471,0a.281.281,0,0,0,.042-.305.957.957,0,0,0-.242-.378.57.57,0,0,0-.526-.119,5.02,5.02,0,0,0-1.162.467L6.8,89.851l1.129-1.129c.074-.074.1-.123.072-.148a.385.385,0,0,0-.182-.064l-.967-.1.059.874-.339.339-.782-.78.059-.348c.011-.091.008-.144-.008-.161s-.059-.008-.127.025l-1.044.45q.475.424.806.755l.577.577L4.8,91.395a5.142,5.142,0,0,1-.7.594l.636.11a1.876,1.876,0,0,1,.441-.628l.7-.7a9.15,9.15,0,0,1,.738,3.878l.17.051a6.992,6.992,0,0,0-.238-4.056l.747.747Q7.862,91.947,8.115,92.219Z"/>
    <path class="cls-3" d="M53.7,40.486c-.025-.025-.078-.021-.157.013l-1.018.492q.476.408.8.73l.56.56-.492.492a5.009,5.009,0,0,1-.687.586l.628.1a2.016,2.016,0,0,1,.441-.611,11.617,11.617,0,0,1,.577,1.926,9,9,0,0,1,.11,1.884l.153.017a5.913,5.913,0,0,0-.238-3.9l.7.7q.6.6.844.878t.365.4c.082.082.143.1.182.064a1.448,1.448,0,0,0,.178-.4q.119-.339.042-.416c-.011-.011-.1-.091-.263-.238s-.436-.41-.815-.789l-.976-.976.085-.085a5.815,5.815,0,0,0,1.179.526,5.168,5.168,0,0,0,1.252.182c.489.02.808.027.955.021a.618.618,0,0,0,.246-.034c.028-.028.025-.082-.008-.161q-.144-.313.322-1.018l-.1-.1a6.328,6.328,0,0,1-1.858.552,5.006,5.006,0,0,1-1.8-.153L56.518,40.1c.068-.068.089-.115.064-.14a.312.312,0,0,0-.182-.047l-1.1-.136.076,1.01-.976.976-.772-.772.076-.331c.023-.091.021-.149,0-.174Z"/>
    <path class="cls-3" d="M44.209,55.294a.444.444,0,0,0,.1-.42.892.892,0,0,0-.255-.475,1.273,1.273,0,0,0-.921-.284,3.367,3.367,0,0,0-1.438.335l.008.161a4.224,4.224,0,0,1,2.011.6Q44.06,55.443,44.209,55.294Z"/>
    <path class="cls-3" d="M53.226,48.7l.636.093a1.928,1.928,0,0,1,.45-.619L58.13,44.36c.107-.107.139-.184.093-.229a.315.315,0,0,0-.212-.076l-1.027-.025.076.925L53.9,48.112A6.2,6.2,0,0,1,53.226,48.7Z"/>
    <path class="cls-3" d="M47.743,52.048,47.93,52V49.468a1.134,1.134,0,0,1,.081-.428c.042-.082.048-.139.017-.17s-.1-.041-.2-.03l-1.052.119A14.166,14.166,0,0,1,47.743,52.048Z"/>
    <path class="cls-3" d="M70.208,32.468l1-1L72.346,32.6q.67.67,1.146,1.179l.7.772q.2.2.305.1a1.181,1.181,0,0,0,.208-.429.454.454,0,0,0-.055-.488q-.042-.042-.395-.369c-.183-.169-.458-.437-.828-.8l-1.663-1.662,1-1,1.807,1.807a.251.251,0,0,1,.093.263.831.831,0,0,1-.212.3,5.013,5.013,0,0,1-.467.4l.085.119q.824-.365,1.179-.093.144.093.195.042a1.712,1.712,0,0,0,.068-.6,1.188,1.188,0,0,0-.348-.916l-1.79-1.79.076-.212c.028-.107.027-.177,0-.208a.164.164,0,0,0-.148-.03l-.967.085.11.721-.9.9-1.018-1.018,1.952-1.952c.1-.1.13-.158.1-.187a.231.231,0,0,0-.161-.042l-1.069-.051.1.882-1.137,1.137L69.164,28.3l1.612-1.612c.079-.079.106-.132.081-.157a.246.246,0,0,0-.148-.047l-1-.085.042.891-.8.8-1.078-1.078.085-.39c.034-.1.035-.168,0-.2s-.092-.024-.182.021l-1.154.492q.161.111,1.765,1.714l-1,1c-.023-.091-.069-.236-.14-.437a3.671,3.671,0,0,1-.132-.429.4.4,0,0,1,.03-.25c.037-.082.041-.137.013-.165s-.105-.02-.229.025l-.866.289a8.962,8.962,0,0,1,1.544,3.106l.153-.085a13.064,13.064,0,0,0-.289-1.714L68.6,28.861l1.154,1.154-1.536,1.536a7.434,7.434,0,0,1-.738.653l.653.042a2.035,2.035,0,0,1,.475-.662l1.358-1.358,1.018,1.018-1.01,1.01-.823.28q.3.262,1.01.976l.586.586a17.6,17.6,0,0,1,1.324,1.442c.17.2.283.277.339.221a1,1,0,0,0,.178-.331,1.318,1.318,0,0,0,.1-.361.357.357,0,0,0-.131-.25Z"/>
    <path class="cls-3" d="M70.69,37.077c-.181.2-.37.4-.568.6a9.061,9.061,0,0,1-2.877,2.028,9.875,9.875,0,0,0,0-1.918,1.742,1.742,0,0,1,.017-.518.94.94,0,0,1,.153-.305c.074-.1.088-.175.042-.221a.321.321,0,0,0-.255-.051l-1.069.085.076.552-2.333,2.333a10.108,10.108,0,0,0-.221-1.12l2.291-2.291.2.2c.079.079.143.1.191.047a1.353,1.353,0,0,0,.178-.458q.106-.385-.03-.522l-.441-.373q-.255-.22-.535-.5l-.815-.815.093-.331c.023-.1.02-.167-.008-.195s-.093-.031-.195-.008l-1.035.153.068.679-3.352,3.352-.908.28q.476.425.815.764l.925.925q.611.611.891.916t.322.348c.124.124.214.16.267.106a1.055,1.055,0,0,0,.178-.365,1.094,1.094,0,0,0,.085-.39.357.357,0,0,0-.115-.208l-.195-.195.492-.492a9.354,9.354,0,0,1-.051,5.142l.178.076a10.472,10.472,0,0,0,.789-3.946A5.609,5.609,0,0,0,66.4,40.6a14.165,14.165,0,0,1-2.512,4.8l.178.093a11.936,11.936,0,0,0,3.046-5.015,4.707,4.707,0,0,0,1.052-.4q.594-.3,1.549-.878c.636-.388.983-.609,1.039-.666.04-.04.034-.1-.017-.17a.951.951,0,0,1,.068-1.171Zm-10.14.6,3.411-3.411.755.755-3.411,3.411Zm1.739,1.739-.747-.747,3.411-3.411.747.747Zm4.209.543a5.02,5.02,0,0,1-2.571.178l.008-.042L66.4,37.637A8.157,8.157,0,0,1,66.5,39.962Z"/>
    <path class="cls-3" d="M47.14,62l.144.008a5.355,5.355,0,0,0-.115-2.355,7.346,7.346,0,0,0-2.007-2.838l-.628-.628,6.033-6.033c.1-.1.137-.168.106-.2a.473.473,0,0,0-.25-.064L49.279,49.8l.093,1.078-1.663,1.663L45.2,50.029l2.359-2.359c.079-.079.1-.133.076-.161a.289.289,0,0,0-.161-.059l-1.171-.1.085,1-5.168,5.168a6.24,6.24,0,0,1-.755.653l.7.085a2.169,2.169,0,0,1,.484-.67l1.434-1.434,2.512,2.512-1.256,1.256-1.069.356q.483.434.925.874l.628.628A11.084,11.084,0,0,1,46.6,59.919,4.912,4.912,0,0,1,47.14,62ZM43.653,51.573l.967-.967,2.512,2.512-.967.967Z"/>
    <path class="cls-3" d="M55.61,53.583q.374-.968.573-1.684a11.224,11.224,0,0,0,.31-1.879,1.418,1.418,0,0,1,.187-.67c.085-.1.113-.167.085-.195a.276.276,0,0,0-.17-.051l-.874.025a10.919,10.919,0,0,1-.348,4.387Z"/>
    <path class="cls-3" d="M74.094,28.531q.594.594.853.878c.172.19.273.3.3.327.119.119.205.151.259.1a1.01,1.01,0,0,0,.165-.4c.056-.215.051-.356-.017-.424l-1.01-.976-2.6-2.6.076-.3c.023-.113.021-.182,0-.208s-.092-.024-.2,0l-1.1.373q.5.45.832.781Z"/>
    <path class="cls-3" d="M77.556,29.38a.588.588,0,0,1,.221.4.88.88,0,0,1-.305.467q-.3.3-.9.8l.093.127a4.547,4.547,0,0,1,.95-.492.828.828,0,0,1,.713.068c.119.062.2.068.255.017a1.272,1.272,0,0,0,.14-.539,1.324,1.324,0,0,0-.064-.734,2.955,2.955,0,0,0-.577-.721l-5.914-5.914.093-.348c.028-.1.028-.158,0-.187s-.11-.014-.246.042L70.9,22.8q.594.526,1.375,1.307Z"/>
    <path class="cls-3" d="M59.171,35.868a.6.6,0,0,1,.106-.327c.074-.119.093-.195.059-.229s-.1-.04-.187-.017l-1.1.246a16.325,16.325,0,0,1,.925,5.066l.238-.034a14.018,14.018,0,0,0,.068-3.581l5.286-5.286c.085-.085.11-.144.076-.178a.3.3,0,0,0-.2-.051l-1.392-.051.178,1.095-4,4C59.195,36.184,59.174,35.967,59.171,35.868Z"/>
    <path class="cls-3" d="M58.317,46.8l.042.212a6.081,6.081,0,0,1,2.724-.093,2.98,2.98,0,0,0,.484.076.268.268,0,0,0,.2-.081c.054-.054.051-.147-.008-.28a1.622,1.622,0,0,0-.344-.454.967.967,0,0,0-.581-.293,2.143,2.143,0,0,0-.908.17A13.869,13.869,0,0,0,58.317,46.8Z"/>
    <path class="cls-3" d="M53.115,47.219l.416.45c.1.1.173.133.212.093a1.386,1.386,0,0,0,.174-.4q.114-.344.021-.437c-.011-.011-.1-.092-.276-.242s-.448-.414-.827-.793l-.45-.45a2.744,2.744,0,0,1,1.188.1q.365.111.471,0a.281.281,0,0,0,.042-.305.957.957,0,0,0-.242-.378.57.57,0,0,0-.526-.119,5.04,5.04,0,0,0-1.163.467l-.355-.357,1.129-1.129c.074-.074.1-.123.072-.148a.385.385,0,0,0-.182-.064l-.967-.1.059.874-.339.339-.781-.781.059-.348c.011-.091.008-.144-.008-.161s-.059-.008-.127.025l-1.044.45q.476.425.806.755l.577.577L49.8,46.394a5.142,5.142,0,0,1-.7.594l.636.11a1.876,1.876,0,0,1,.441-.628l.7-.7a9.15,9.15,0,0,1,.738,3.878l.17.051a6.992,6.992,0,0,0-.238-4.056l.747.747q.561.561.815.833Z"/>
    <path class="cls-3" d="M59.174,43.689l.1,1.12-5.558,5.558a6.343,6.343,0,0,1-.687.6l.628.1a1.785,1.785,0,0,1,.441-.628L56.747,47.8l1.366,1.366c.119.119.164.223.136.314a.971.971,0,0,1-.25.344,7.051,7.051,0,0,1-.827.641l.136.187a4.084,4.084,0,0,1,.967-.467.691.691,0,0,1,.56.11c.113.068.188.083.225.047a1.655,1.655,0,0,0,.174-.462.8.8,0,0,0-.246-1.027L57.342,47.2l3.165-3.165c.079-.079.106-.132.081-.157a.405.405,0,0,0-.208-.055Z"/>
    <path class="cls-4" d="M1,12,12,1H35L1,35Z"/>
    <path class="cls-1" d="M10.364,9.364a1,1,0,0,1,1.414,0l4.243,4.243a1,1,0,0,1-1.414,1.414l-4.243-4.243A1,1,0,0,1,10.364,9.364Zm4.243-4.243A3,3,0,1,1,18.85,9.364l-.707.707.707.707a1,1,0,0,1-1.414,1.414l-4.95-4.95ZM7.536,12.192a1,1,0,0,1,1.414,0l2.828,2.828a1.049,1.049,0,0,1,.3.728l-.012,2.787a.993.993,0,0,1-.254.661l-.1.1a1,1,0,0,1-.661.254l-2.787.013a1.017,1.017,0,0,1-.167-.013,1,1,0,0,1-.568-.284L4.708,16.435a1,1,0,1,1,1.414-1.414L8.66,17.559l1.415-.006.006-1.4L7.537,13.608A1,1,0,0,1,7.536,12.192Zm8.485-5.657-.707.707,1.414,1.414.707-.707a1,1,0,0,0-1.414-1.414Z"/>
</svg>