<svg viewBox="0 0 86 102" xmlns="http://www.w3.org/2000/svg"><g fill="none" fill-rule="evenodd"><path d="m83 0h-80c-1.65685425 0-3 1.34314575-3 3v96c0 1.656854 1.34314575 3 3 3h80c1.6568542 0 3-1.343146 3-3v-96c0-1.65685425-1.3431458-3-3-3zm0 1c1.1045695 0 2 .8954305 2 2v96c0 1.104569-.8954305 2-2 2h-80c-1.1045695 0-2-.895431-2-2v-96c0-1.1045695.8954305-2 2-2z" fill="#000" fill-opacity=".2" fill-rule="nonzero"/><rect fill="#fff" height="100" rx="2" width="84" x="1" y="1"/><path d="m32.9127982 66.0491949c1.4928926-.0026446 2.741157-.0185124 3.7447934-.0476033 1.104-.032 1.812-.104 2.124-.216s.62-.356.924-.732.456-.64.456-.792-.112-.304-.336-.456-.384-.46-.48-.924-.16-1.376-.192-2.736l-.408.024c-.16 2.448-.428 3.808-.804 4.08s-2.052.408-5.028.408l-.2979654-.0004152c-1.5519446-.0044291-2.5086228-.0442907-2.8700346-.1195848-.384-.08-.576-.296-.576-.648v-5.472h7.344v.984c0 .208.064.312.192.312s.404-.104.828-.312.636-.472.636-.792l-.096-1.056c-.032-.432-.048-.896-.048-1.392v-2.592l.432-.24c.192-.128.288-.236.288-.324s-.08-.204-.24-.348l-1.44-1.056-.792.984h-2.76l2.376-2.688c.448-.496.844-.764 1.188-.804s.516-.12.516-.24-.08-.26-.24-.42l-1.416-1.32-1.104 1.128h-3.792l.84-1.44c.144-.24.336-.432.576-.576s.36-.272.36-.384-.112-.232-.336-.36l-1.728-1.104c-1.424 4.24-3.376 7.96-5.856 11.16l.384.192c.88-.88 1.656-1.72 2.328-2.52v11.136c0 .496.128.872.384 1.128s.64.416 1.152.48 1.616.096 3.312.096zm-13.3672066-5.9036033c.096 0 .216-.048.36-.144.528-.352 2.832-.976 6.912-1.872l-.024-.384-5.712.504 3.36-4.632c1.008-1.36 1.624-2.172 1.848-2.436s.432-.436.624-.516.288-.172.288-.276-.088-.22-.264-.348l-1.536-1.248c-.704 1.616-1.368 2.96-1.992 4.032l-3.648.072c1.536-2.448 2.592-4.06 3.168-4.836s1.008-1.204 1.296-1.284c.336-.112.504-.22.504-.324s-.088-.22-.264-.348l-1.776-1.488c-.432 1.264-1.028 2.668-1.788 4.212s-1.328 2.56-1.704 3.048-.796.828-1.26 1.02l.528 1.272c.064.144.144.216.24.216s.224-.032.384-.096c.848-.352 2.184-.656 4.008-.912-.416.72-.916 1.524-1.5 2.412s-.968 1.452-1.152 1.692-.452.472-.804.696-.688.36-1.008.408l.624 1.296c.096.176.192.264.288.264zm13.224-7.56h-3.24l-.936-.6c.816-1.12 1.512-2.16 2.088-3.12h4.176zm-.6 5.232h-3v-4.656h3zm4.344 0h-2.976v-4.656h2.976zm-17.628 7.272c.104 0 .272-.072.504-.216s.708-.352 1.428-.624l6.144-2.352-.096-.36-9.216 1.776.936 1.56c.096.144.196.216.3.216zm39.524-17.688c.368 0 .66-.12.876-.36s.324-.552.324-.936c0-.192-.036-.36-.108-.504s-.212-.28-.42-.408-.504-.256-.888-.384-.896-.272-1.536-.432l-.168.288c.288.224.544.524.768.9s.376.82.456 1.332c.064.336.296.504.696.504zm-9.864 4.2c.288.224.58.288.876.192s.564-.336.804-.72c.176-.304.316-.688.42-1.152s.14-1 .108-1.608h15.312l-1.152 2.328.288.192c.768-.768 1.4-1.296 1.896-1.584s.976-.424 1.44-.408c.32.016.496-.04.528-.168s-.072-.304-.312-.528l-1.944-1.752-.96 1.2h-15.144c-.016-.176-.04-.344-.072-.504s-.064-.328-.096-.504l-.36.024c-.032.608-.168 1.192-.408 1.752s-.616 1.128-1.128 1.704c-.224.272-.336.564-.336.876s.08.532.24.66zm9.504.432c.128 0 .26-.044.396-.132s.26-.204.372-.348.204-.308.276-.492.108-.372.108-.564c0-.32-.18-.62-.54-.9s-1.012-.58-1.956-.9l-.216.288c.576.576.936 1.392 1.08 2.448.064.4.224.6.48.6zm-10.68 7.488c1.056-.256 2.096-.572 3.12-.948s2.136-.868 3.336-1.476c.128.224.336.384.624.48s.664.152 1.128.168c1.072.032 2.112.028 3.12-.012s2.088-.108 3.24-.204c.88-.064 1.656-.448 2.328-1.152.16-.16.232-.288.216-.384s-.112-.2-.288-.312-.328-.228-.456-.348-.232-.272-.312-.456-.14-.416-.18-.696-.068-.652-.084-1.116l-.36.024c-.08.704-.16 1.256-.24 1.656s-.172.704-.276.912-.24.344-.408.408-.388.12-.66.168c-.32.048-.684.088-1.092.12s-.836.064-1.284.096-.896.056-1.344.072-.856.024-1.224.024c-.464 0-.736-.08-.816-.24 1.024-.56 2.036-1.156 3.036-1.788s1.98-1.308 2.94-2.028c.336-.256.668-.464.996-.624s.58-.256.756-.288c.224-.032.348-.092.372-.18s-.06-.22-.252-.396l-1.152-1.08c-.848.864-1.824 1.708-2.928 2.532s-2.384 1.676-3.84 2.556v-2.832l.384-.24c.32-.176.312-.336-.024-.48l-2.16-.936c.016.144.028.312.036.504s.016.392.024.6.016.42.024.636.012.404.012.564v3.144c-1.392.8-2.588 1.448-3.588 1.944s-1.948.912-2.844 1.248zm2.4602449-3.3634286.1197551-.0085714c.28-.04.58-.292.9-.756.256-.32.412-.8.468-1.44s.02-1.536-.108-2.688l-.312.072c-.064.656-.212 1.212-.444 1.668s-.588.892-1.068 1.308c-.304.272-.472.552-.504.84s.048.52.24.696c.272.24.548.34.828.3zm17.3397551.1474286c.24 0 .448-.16.624-.48s.264-.712.264-1.176c0-.176-.04-.356-.12-.54s-.264-.392-.552-.624-.7-.492-1.236-.78-1.26-.632-2.172-1.032l-.192.264c.64.512 1.184 1.08 1.632 1.704s.832 1.32 1.152 2.088c.08.224.172.376.276.456s.212.12.324.12zm-3.168 10.38c.064.056.232.028.504-.084.288-.096.512-.18.672-.252s.276-.14.348-.204.108-.128.108-.192v-.216c-.032-.288-.056-.664-.072-1.128s-.024-1.048-.024-1.752v-2.376l.552-.36c.304-.224.296-.408-.024-.552l-2.256-.984c.032.416.056.804.072 1.164s.024.7.024 1.02v3.6h-4.968v-4.896l.432-.48c.144-.144.208-.252.192-.324s-.12-.14-.312-.204l-2.16-.576c.048.848.072 1.576.072 2.184v4.296h-4.464v-3.744l.456-.336c.128-.08.2-.164.216-.252s-.048-.172-.192-.252l-2.232-.96c.032.416.052.776.06 1.08s.012.616.012.936v2.304c0 .192-.004.412-.012.66s-.016.5-.024.756-.02.5-.036.732-.032.428-.048.588c-.032.368-.012.592.06.672s.268.056.588-.072c.256-.096.46-.184.612-.264s.268-.164.348-.252.132-.192.156-.312.036-.268.036-.444v-.168h11.208v1.152c0 .272.032.436.096.492z" fill="#000" fill-opacity=".26" fill-rule="nonzero" transform="matrix(.70710678 -.70710678 .70710678 .70710678 -26.577103 46.929197)"/><path d="m1 12 11-11h23l-34 34z" fill="#f9c563"/><path d="m13.1923882 8.19238816c.5522847 0 1 .44771525 1 1v6.00000004c0 .5522847-.4477153 1-1 1-.5522848 0-1-.4477153-1-1v-6.00000004c0-.55228475.4477152-1 1-1zm6 0c1.6568542 0 3 1.34314575 3 3.00000004 0 1.6568542-1.3431458 3-3 3h-1v1c0 .5522847-.4477153 1-1 1-.5522848 0-1-.4477153-1-1v-7.00000004zm-10.00000004 0c.55228475 0 1.00000004.44771525 1.00000004 1v4.00000004c0 .0898558-.0118514.1769436-.0340763.2597856-.0417112.1726014-.1304741.3359205-.2657835.4700316l-1.97951546 1.961984c-.18047275.1788744-.41200932.2748925-.64730401.2881597h-.13693799c-.2352947-.0132672-.46683126-.1092853-.64730402-.2881597l-1.97951545-1.961984c-.04044955-.0400913-.07673943-.0827928-.10886726-.1275677-.1256883-.1676574-.20069605-.376194-.20069605-.6022495v-4.00000004c0-.55228475.44771525-1 1-1s1 .44771525 1 1v3.58900004l1.005.996.995-.987v-3.59800004c0-.55228475.44771525-1 1-1zm10.00000004 2.00000004h-1v2h1c.5522847 0 1-.4477153 1-1 0-.5522848-.4477153-1-1-1z" fill="#fff" transform="matrix(.70710678 -.70710678 .70710678 .70710678 -4.757199 12.899107)"/></g></svg>