<svg viewBox="0 0 86 102" xmlns="http://www.w3.org/2000/svg"><g fill="none"><path d="m83 0h-80c-1.65685425 0-3 1.34314575-3 3v96c0 1.656854 1.34314575 3 3 3h80c1.6568542 0 3-1.343146 3-3v-96c0-1.65685425-1.3431458-3-3-3zm0 1c1.1045695 0 2 .8954305 2 2v96c0 1.104569-.8954305 2-2 2h-80c-1.1045695 0-2-.895431-2-2v-96c0-1.1045695.8954305-2 2-2z" fill="#000" fill-opacity=".2"/><rect fill="#fff" height="100" rx="2" width="84" x="1" y="1"/><path d="m18.7255916 61.0902128c.16 0 .4633333-.13.91-.39s.7433333-.5533333.89-.88.22-.93.22-1.81v-10.04l.62-.42c.1066667-.08.16-.1566667.16-.23s-.06-.1566667-.18-.25l-1.4-1.06-.92 1.14h-4.9c.08-.7066667.1366667-1.3166667.17-1.83s.0966667-.8733333.19-1.08.2266667-.36.4-.46.26-.1866667.26-.26-.1133333-.15-.34-.23l-1.98-.88c.0266667 2.0666667.0066667 3.6466667-.06 4.74h-4.54000001l-1.86-1.04c.04.72.06 1.4266667.06 2.12v8.92c0 1.08-.04 2.1266667-.12 3.14-.02666667.3466667.03.52.17.52s.36333333-.06.67-.18.49333333-.2166667.56-.29.1-.1833333.1-.33v-12.3h4.94000001c-.16 2.0266667-.5866667 3.69-1.28 4.99s-1.84000001 2.5433333-3.44000001 3.73l.18.28c1.56-.8933333 2.72666671-1.7933333 3.50000001-2.7s1.3533333-2 1.74-3.28c.6666667.5733333 1.3066667 1.23 1.92 1.97s1.0233333 1.3233333 1.23 1.75.36.7033333.46.83.21.19.33.19c.2266667 0 .4166667-.1366667.57-.41s.23-.5633333.23-.87c0-.9866667-1.5333333-2.2733333-4.6-3.86.2133333-.7066667.38-1.58.5-2.62h5.28v10.32c0 .3466667-.0566667.5833333-.17.71s-.39.19-.83.19-1.28-.0733333-2.52-.22l-.06.34c1.0133333.24 1.7033333.49 2.07.75s.57.5966667.61 1.01c.0133333.1866667.1.28.26.28zm11.6333333-15.9c.1666667 0 .3633333-.1333333.59-.4s.34-.5533333.34-.86c0-.7733333-.7733333-1.3066667-2.32-1.6l-.2.24c.52.56.8733333 1.26 1.06 2.1.04.2.0966667.3366667.17.41s.1933333.11.36.11zm5.94 16.32c.1133333 0 .3333333-.0666667.66-.2s.52-.2466667.58-.34.09-.2066667.09-.34-.0133333-.4733333-.04-1.02-.04-1.52-.04-2.92v-11.72h2.82l-1.86 5.78c.84.52 1.5033333 1.2066667 1.99 2.06s.73 1.6333333.73 2.34c0 .4133333-.1.6733333-.3.78s-.5066667.16-.92.16-1.0533333-.0666667-1.92-.2l-.06.28c.88.32 1.4433333.5766667 1.69.77s.45.5366667.61 1.03c.0666667.2133333.1566667.32.27.32s.3833333-.1433333.81-.43.7533333-.62.98-1 .34-.93.34-1.65c0-1.8666667-1.1466667-3.4533333-3.44-4.76l1.96-4.18c.2933333-.6266667.68-1.0133333 1.16-1.16.2133333-.0533333.32-.1133333.32-.18s-.08-.1666667-.24-.3l-1.34-1.26-1 1.08h-2.24l-1.78-1.18c.0533333 1.16.08 2.2733333.08 3.34v9.62c0 .6-.0166667 1.4-.05 2.4s-.0666667 1.68-.1 2.04-.03.59.01.69.1166667.15.23.15zm-10.51-15.32c.3466667-.1333333.8-.2 1.36-.2h8.02c.1866667 0 .28-.0266667.28-.08s-.0466667-.14-.14-.26l-1.22-1.46-1.06 1.26h-6.32c-.6 0-1.16-.04-1.68-.12zm2.87 4.26c.2066667 0 .3933333-.1433333.56-.43s.25-.6433333.25-1.07-.1966667-.8933333-.59-1.4-.9633333-.9866667-1.71-1.44l-.16.2c.2933333.4.5233333.8466667.69 1.34s.2766667 1.0266667.33 1.6.12.9166667.2 1.03.2233333.17.43.17zm-3.69.98c.4-.1466667.86-.22 1.38-.22h9.26c.1733333 0 .26-.0266667.26-.08s-.0333333-.1266667-.1-.22l-1.24-1.5-1.06 1.28h-2.16c.8266667-1.3333333 1.38-2.1966667 1.66-2.59s.5066667-.6233333.68-.69.26-.13.26-.19-.0866667-.1366667-.26-.23l-1.52-.76c-.28 1.1866667-.78 2.6733333-1.5 4.46h-4.72c-.6133333 0-1.1733333-.0333333-1.68-.1zm1.86 9.06c.1333333 0 .3366667-.0533333.61-.16s.4433333-.21.51-.31.1-.25.1-.45v-1.28h3.96v1.46c0 .1866667.0533333.28.16.28s.3533333-.1133333.74-.34.58-.4466667.58-.66l-.06-.98c-.0266667-.3866667-.04-.7933333-.04-1.22v-2.5l.5-.4c.0533333-.04.08-.0933333.08-.16s-.04-.1333333-.12-.2l-1.34-1.16-.72.94h-3.52l-1.64-1.1c.04.7733333.06 1.6.06 2.48v2.46c0 .6266667-.0533333 1.52-.16 2.68-.0533333.4133333.0466667.62.3.62zm5.18-2.74h-3.96v-3.86h3.96zm17.3433333-8.92c1.44-1.1333333 2.4733333-2.1666667 3.1-3.1h6.24l-.88 2 .28.16c.7333333-.84 1.2233333-1.35 1.47-1.53s.56-.2766667.94-.29.57-.0633333.57-.15-.0866667-.2033333-.26-.35l-1.5-1.3-.74.94h-5.78c.3466667-.52.59-.8633333.73-1.03s.2933333-.2833333.46-.35.25-.1333333.25-.2-.0933333-.1466667-.28-.24l-1.48-.6c-.3733333 1.2133333-.7833333 2.19-1.23 2.93s-1.1766667 1.7233333-2.19 2.95zm-2.59-2.8c.2866667 0 .5266667-.1233333.72-.37s.29-.5233333.29-.83c0-.8-.8333333-1.34-2.5-1.62l-.14.24c.7066667.6 1.0866667 1.22 1.14 1.86.04.48.2033333.72.49.72zm-.79 6.46c.3333333 0 .5566667-.11.67-.33s.17-.6233333.17-1.21.0733333-1.0533333.22-1.4.4-.7533333.76-1.22l2.64-3.32-.22-.18-3.4 3.3c-.32.2933333-.64.44-.96.44s-.7466667-.0733333-1.28-.22l-.06.38c.4266667.16.73.3266667.91.5s.27.3933333.27.66-.0633333.59-.19.97-.19.6766667-.19.89c0 .4933333.22.74.66.74zm14.3-.78c.08 0 .1333333-.06.16-.18.0933333-.5466667.5266667-.94 1.3-1.18v-.24c-3.32 0-5.5-1.0533333-6.54-3.16.0933333-.08.2233333-.1433333.39-.19s.25-.1066667.25-.18-.0866667-.1433333-.26-.21l-1.58-.54c-.3733333 1.72-.94 2.9433333-1.7 3.67s-1.9466667 1.3633333-3.56 1.91l.12.3c1.8933333-.4 3.2266667-.87 4-1.41s1.4733333-1.5366667 2.1-2.99c.3333333.96.78 1.7166667 1.34 2.27s1.32 1.0466667 2.28 1.48 1.5266667.65 1.7.65zm-12.55 6.24c.1133333 0 .3233333-.07.63-.21s.49-.2466667.55-.32.09-.19.09-.35v-4.48h7.3v4.8c0 .16.0466667.24.14.24s.3466667-.0866667.76-.26.62-.3466667.62-.52l-.08-.78c-.04-.3333333-.06-.66-.06-.98v-2l.7-.44c.1333333-.0666667.2-.1333333.2-.2s-.06-.1333333-.18-.2l-1.58-1.04-.6.84h-7l-1.66-.86c.04.6933333.06 1.2933333.06 1.8v2.66c0 .4-.0066667.7733333-.02 1.12l-.04.84c0 .2266667.0566667.34.17.34zm-3.21 2.94c1.4933333-.12 2.8433333-.3533333 4.05-.7s2.1966667-.9033333 2.97-1.67 1.3533333-1.9833333 1.74-3.65c.12-.5066667.2566667-.79.41-.85s.23-.1333333.23-.22-.0933333-.1633333-.28-.23l-1.54-.66c-.12 2.5466667-.72 4.3266667-1.8 5.34s-3.0466667 1.8-5.9 2.36zm14.44 0c.1466667 0 .2766667-.0966667.39-.29s.17-.4566667.17-.79c0-.44-.4966667-.8666667-1.49-1.28s-2.5233333-.7533333-4.59-1.02l-.18.34c2.5466667.9333333 4.1466667 1.7866667 4.8 2.56.2666667.32.5666667.48.9.48zm8.5233333.1c.08 0 .3266667-.1.74-.3s.62-.4466667.62-.74c0-.0533333-.0133333-.37-.04-.95s-.04-1.53-.04-2.85v-4.28c.3333333.3066667.6566667.6633333.97 1.07s.5233333.7333333.63.98.3333333.37.68.37.52-.3666667.52-1.1-.9333333-1.3133333-2.8-1.74v-1.1h3.46c.1866667 0 .28-.0366667.28-.11s-.0466667-.1766667-.14-.31l-1.12-1.32-1 1.2h-1.48v-5.84l.62-.22c.2-.0666667.3-.14.3-.22s-.0866667-.1533333-.26-.22l-2.06-.92c.0666667.8533333.1 1.96.1 3.32v4.1h-2.54c-.6 0-1.1533333-.04-1.66-.12l.72.88c.3466667-.1466667.8-.22 1.36-.22h1.78c-.9733333 2.6533333-2.32 5.0466667-4.04 7.18l.24.2c.76-.68 1.5433333-1.5366667 2.35-2.57s1.4033333-1.9566667 1.79-2.77v3.32c0 .9466667-.0266667 1.8733333-.08 2.78l-.1 2.1c0 .2666667.0666667.4.2.4zm9.85.3c.14 0 .42-.12.84-.36s.63-.4733333.63-.7c0-.04-.0133333-.3533333-.04-.94s-.04-1.54-.04-2.86v-2.3l2.74-.5c.2533333-.04.38-.1.38-.18s-.1-.2-.3-.36l-1.26-1.02-.74 1.3-.82.16v-9.4l.48-.28c.1866667-.12.28-.2166667.28-.29s-.0866667-.1433333-.26-.21l-2-.9c.0533333 1.1466667.08 2.2466667.08 3.3v8.04l-5.46.96c-.44.08-.98.16-1.62.24l.88.72c.2933333-.2.7266667-.36 1.3-.48l4.9-.86v1.62c0 .8533333-.02 1.7466667-.06 2.68l-.12 2.1c0 .3466667.07.52.21.52zm-8.07-12.18c1.6533333-2.0133333 2.6266667-3.0733333 2.92-3.18.1733333-.0533333.26-.1066667.26-.16s-.06-.1266667-.18-.22l-1.26-.94c-.64 1.7333333-1.3 3.1933333-1.98 4.38zm6.06-.96c.2133333 0 .4033333-.1133333.57-.34s.25-.4933333.25-.8-.09-.5766667-.27-.81-.4933333-.4966667-.94-.79-.97-.5533333-1.57-.78l-.12.18c.84.7866667 1.3266667 1.6733333 1.46 2.66.08.4533333.2866667.68.62.68zm-9.64 1.06c.1866667 0 .3666667-.1066667.54-.32s.26-.4933333.26-.84-.1966667-.8133333-.59-1.4-.9633333-1.2-1.71-1.84l-.2.18c.6266667 1.1466667 1 2.2666667 1.12 3.36.04.5733333.2333333.86.58.86zm9.02 3.6c.1733333 0 .3633333-.09.57-.27s.31-.4233333.31-.73c0-.8133333-.86-1.64-2.58-2.48l-.08.22c.3333333.4.5933333.77.78 1.11s.33.7833333.43 1.33.29.82.57.82z" fill="#000" fill-opacity=".26" transform="matrix(.70710678 -.70710678 .70710678 .70710678 -23.806059 46.36709)"/><path d="m1 12 11-11h23l-34 34z" fill="#f9c563"/><path d="m13.192549 8.19199999c.5522847 0 1 .44771525 1 1v6.00000001c0 .5522847-.4477153 1-1 1-.5522848 0-1-.4477153-1-1v-6.00000001c0-.55228475.4477152-1 1-1zm6 0c1.6568542 0 3 1.34314575 3 3.00000001 0 1.6568542-1.3431458 3-3 3h-1v1c0 .5522847-.4477153 1-1 1-.5522848 0-1-.4477153-1-1v-7.00000001zm-10.00000006 0c.55228475 0 .99999996.44771525.99999996 1v4.00000001c0 .0898558-.0118513.1769436-.0340762.2597856-.0417112.1726014-.1304741.3359205-.26578352.4700316l-1.97951546 1.961984c-.18047275.1788744-.41200932.2748925-.64730401.2881597h-.13693799c-.2352947-.0132672-.46683126-.1092853-.64730402-.2881597l-1.97951545-1.961984c-.04044955-.0400913-.07673943-.0827928-.10886726-.1275677-.1256883-.1676574-.20069605-.376194-.20069605-.6022495v-4.00000001c0-.55228475.44771525-1 1-1s1 .44771525 1 1v3.58900001l1.005.996.995-.987v-3.59800001c0-.55228475.44771525-1 1-1zm10.00000006 2.00000001h-1v2h1c.5522847 0 1-.4477153 1-1 0-.5522848-.4477153-1-1-1z" fill="#fff" transform="matrix(.70710678 -.70710678 .70710678 .70710678 -4.756906 12.899814)"/></g></svg>