<svg viewBox="0 0 16 16" fill="none" xmlns="http://www.w3.org/2000/svg">
<g clip-path="url(#clip0_2461_29716)">
<path opacity="0.2" d="M0 6.5C0 6.36739 0.0526784 6.24022 0.146447 6.14645C0.240215 6.05268 0.367392 6 0.5 6H15.5C15.6326 6 15.7598 6.05268 15.8536 6.14645C15.9473 6.24022 16 6.36739 16 6.5V9.5C16 9.63261 15.9473 9.75979 15.8536 9.85355C15.7598 9.94732 15.6326 10 15.5 10H0.5C0.367392 10 0.240215 9.94732 0.146447 9.85355C0.0526784 9.75979 0 9.63261 0 9.5V6.5ZM8 4C7.60444 4 7.21776 3.8827 6.88886 3.66294C6.55996 3.44318 6.30362 3.13082 6.15224 2.76537C6.00087 2.39992 5.96126 1.99778 6.03843 1.60982C6.1156 1.22186 6.30608 0.865492 6.58579 0.585787C6.86549 0.306082 7.22186 0.115601 7.60982 0.0384303C7.99778 -0.0387401 8.39991 0.000866562 8.76537 0.152242C9.13082 0.303617 9.44318 0.559962 9.66294 0.88886C9.8827 1.21776 10 1.60444 10 2C10 2.53043 9.78929 3.03914 9.41421 3.41421C9.03914 3.78929 8.53043 4 8 4ZM8 16C7.60444 16 7.21776 15.8827 6.88886 15.6629C6.55996 15.4432 6.30362 15.1308 6.15224 14.7654C6.00087 14.3999 5.96126 13.9978 6.03843 13.6098C6.1156 13.2219 6.30608 12.8655 6.58579 12.5858C6.86549 12.3061 7.22186 12.1156 7.60982 12.0384C7.99778 11.9613 8.39991 12.0009 8.76537 12.1522C9.13082 12.3036 9.44318 12.56 9.66294 12.8889C9.8827 13.2178 10 13.6044 10 14C10 14.5304 9.78929 15.0391 9.41421 15.4142C9.03914 15.7893 8.53043 16 8 16Z" fill="#4F87FE"/>
<path fill-rule="evenodd" clip-rule="evenodd" d="M1 7V9H15V7H1ZM7.44443 2.83147C7.60888 2.94135 7.80222 3 8 3C8.26522 3 8.51957 2.89464 8.70711 2.70711C8.89464 2.51957 9 2.26522 9 2C9 1.80222 8.94135 1.60888 8.83147 1.44443C8.72159 1.27998 8.56541 1.15181 8.38268 1.07612C8.19996 1.00043 7.99889 0.98063 7.80491 1.01922C7.61093 1.0578 7.43275 1.15304 7.29289 1.29289C7.15304 1.43275 7.0578 1.61093 7.01921 1.80491C6.98063 1.99889 7.00043 2.19996 7.07612 2.38268C7.15181 2.56541 7.27998 2.72159 7.44443 2.83147ZM7.44443 14.8315C7.60888 14.9414 7.80222 15 8 15C8.26522 15 8.51957 14.8946 8.70711 14.7071C8.89464 14.5196 9 14.2652 9 14C9 13.8022 8.94135 13.6089 8.83147 13.4444C8.72159 13.28 8.56541 13.1518 8.38268 13.0761C8.19996 13.0004 7.99889 12.9806 7.80491 13.0192C7.61093 13.0578 7.43275 13.153 7.29289 13.2929C7.15304 13.4327 7.0578 13.6109 7.01921 13.8049C6.98063 13.9989 7.00043 14.2 7.07612 14.3827C7.15181 14.5654 7.27998 14.7216 7.44443 14.8315ZM0.146447 6.14645C0.0526784 6.24022 0 6.36739 0 6.5V9.5C0 9.63261 0.0526784 9.75979 0.146447 9.85355C0.240215 9.94732 0.367392 10 0.5 10H15.5C15.6326 10 15.7598 9.94732 15.8536 9.85355C15.9473 9.75979 16 9.63261 16 9.5V6.5C16 6.36739 15.9473 6.24022 15.8536 6.14645C15.7598 6.05268 15.6326 6 15.5 6H0.5C0.367392 6 0.240215 6.05268 0.146447 6.14645ZM6.88886 3.66294C7.21776 3.8827 7.60444 4 8 4C8.53043 4 9.03914 3.78929 9.41421 3.41421C9.78929 3.03914 10 2.53043 10 2C10 1.60444 9.8827 1.21776 9.66294 0.88886C9.44318 0.559962 9.13082 0.303617 8.76537 0.152242C8.39991 0.000866562 7.99778 -0.0387401 7.60982 0.0384303C7.22186 0.115601 6.86549 0.306082 6.58579 0.585787C6.30608 0.865492 6.1156 1.22186 6.03843 1.60982C5.96126 1.99778 6.00087 2.39992 6.15224 2.76537C6.30362 3.13082 6.55996 3.44318 6.88886 3.66294ZM6.88886 15.6629C7.21776 15.8827 7.60444 16 8 16C8.53043 16 9.03914 15.7893 9.41421 15.4142C9.78929 15.0391 10 14.5304 10 14C10 13.6044 9.8827 13.2178 9.66294 12.8889C9.44318 12.56 9.13082 12.3036 8.76537 12.1522C8.39991 12.0009 7.99778 11.9613 7.60982 12.0384C7.22186 12.1156 6.86549 12.3061 6.58579 12.5858C6.30608 12.8655 6.1156 13.2219 6.03843 13.6098C5.96126 13.9978 6.00087 14.3999 6.15224 14.7654C6.30362 15.1308 6.55996 15.4432 6.88886 15.6629Z" fill="#3B64FC"/>
</g>
<defs>
<clipPath id="clip0_2461_29716">
<rect width="16" height="16" fill="white"/>
</clipPath>
</defs>
</svg>
