<svg viewBox="0 0 16 16" fill="none" xmlns="http://www.w3.org/2000/svg">
<g clip-path="url(#clip0_2461_29470)">
<path opacity="0.2" d="M6.00002 11.0002L6.00001 5.00021L4.25001 5.00021C4.15247 5.00026 4.05704 4.97178 3.97549 4.91827C3.89393 4.86477 3.8298 4.78857 3.791 4.69908C3.75221 4.60958 3.74044 4.51069 3.75714 4.41459C3.77385 4.31849 3.8183 4.22937 3.88501 4.15821L7.63501 0.158212C7.68178 0.108256 7.73831 0.0684332 7.80109 0.0412081C7.86388 0.013983 7.93158 -6.50326e-05 8.00001 -6.50356e-05C8.06845 -6.50386e-05 8.13615 0.013983 8.19893 0.0412081C8.26172 0.0684332 8.31824 0.108256 8.36501 0.158212L12.115 4.15821C12.1817 4.22937 12.2262 4.31849 12.2429 4.41459C12.2596 4.51069 12.2478 4.60958 12.209 4.69908C12.1702 4.78857 12.1061 4.86477 12.0245 4.91827C11.943 4.97178 11.8476 5.00026 11.75 5.00021L10 5.00021L10 11.0002L11.75 11.0002C11.8476 11.0002 11.943 11.0286 12.0245 11.0821C12.1061 11.1357 12.1702 11.2119 12.209 11.3013C12.2478 11.3908 12.2596 11.4897 12.2429 11.5858C12.2262 11.6819 12.1817 11.7711 12.115 11.8422L8.36502 15.8422C8.31825 15.8922 8.26172 15.932 8.19894 15.9592C8.13615 15.9864 8.06845 16.0005 8.00002 16.0005C7.93158 16.0005 7.86388 15.9864 7.8011 15.9592C7.73831 15.932 7.68179 15.8922 7.63502 15.8422L3.88502 11.8422C3.8183 11.7711 3.77385 11.6819 3.75714 11.5858C3.74044 11.4897 3.75221 11.3908 3.791 11.3013C3.8298 11.2119 3.89393 11.1357 3.97549 11.0821C4.05704 11.0286 4.15247 11.0002 4.25002 11.0002L6.00002 11.0002Z" fill="#4F87FE"/>
<path d="M4.25002 10.9998C4.15247 10.9997 4.05704 11.0282 3.97549 11.0817C3.89393 11.1352 3.8298 11.2114 3.791 11.3009C3.75221 11.3904 3.74044 11.4893 3.75714 11.5854C3.77385 11.6815 3.8183 11.7706 3.88502 11.8418L7.63502 15.8418C7.68179 15.8917 7.73831 15.9316 7.8011 15.9588C7.86388 15.986 7.93158 16.0001 8.00002 16.0001C8.06845 16.0001 8.13615 15.986 8.19894 15.9588C8.26172 15.9316 8.31825 15.8917 8.36502 15.8418L12.115 11.8418C12.1817 11.7706 12.2262 11.6815 12.2429 11.5854C12.2596 11.4893 12.2478 11.3904 12.209 11.3009C12.1702 11.2114 12.1061 11.1352 12.0245 11.0817C11.943 11.0282 11.8476 10.9997 11.75 10.9998H10V4.99979H11.75C11.8476 4.99984 11.943 4.97136 12.0245 4.91785C12.1061 4.86434 12.1702 4.78815 12.209 4.69865C12.2478 4.60916 12.2596 4.51027 12.2429 4.41416C12.2262 4.31806 12.1817 4.22894 12.115 4.15779L8.36502 0.157788C8.31825 0.107833 8.26172 0.0680093 8.19894 0.0407842C8.13615 0.0135591 8.06845 -0.000488281 8.00002 -0.000488281C7.93158 -0.000488281 7.86388 0.0135591 7.8011 0.0407842C7.73831 0.0680093 7.68179 0.107833 7.63502 0.157788L3.88502 4.15779C3.8183 4.22894 3.77385 4.31806 3.75714 4.41416C3.74044 4.51027 3.75221 4.60916 3.791 4.69865C3.8298 4.78815 3.89393 4.86434 3.97549 4.91785C4.05704 4.97136 4.15247 4.99984 4.25002 4.99979H6.00002V10.9998H4.25002ZM5.40002 3.99979L8.00002 1.23079L10.6 3.99979H9.50002C9.36741 3.99979 9.24023 4.05247 9.14646 4.14623C9.05269 4.24 9.00002 4.36718 9.00002 4.49979V11.4998C9.00002 11.6324 9.05269 11.7596 9.14646 11.8533C9.24023 11.9471 9.36741 11.9998 9.50002 11.9998H10.6L8.00002 14.7688L5.40002 11.9998H6.50002C6.63262 11.9998 6.7598 11.9471 6.85357 11.8533C6.94734 11.7596 7.00002 11.6324 7.00002 11.4998V4.49979C7.00002 4.36718 6.94734 4.24 6.85357 4.14623C6.7598 4.05247 6.63262 3.99979 6.50002 3.99979H5.40002Z" fill="#3B64FC"/>
</g>
<defs>
<clipPath id="clip0_2461_29470">
<rect width="16" height="16" fill="white"/>
</clipPath>
</defs>
</svg>
