<svg viewBox="0 0 16 16" fill="none" xmlns="http://www.w3.org/2000/svg">
<g clip-path="url(#clip0_2461_29484)">
<path opacity="0.2" d="M2 9V5C2 3.67392 2.52678 2.40215 3.46447 1.46447C4.40215 0.526784 5.67392 0 7 0L10.5 0C10.6326 0 10.7598 0.0526784 10.8536 0.146447C10.9473 0.240215 11 0.367392 11 0.5V4.5C11 4.63261 10.9473 4.75979 10.8536 4.85355C10.7598 4.94732 10.6326 5 10.5 5H7C6.2977 4.99984 5.60774 5.18459 4.99949 5.53567C4.39124 5.88675 3.88615 6.39179 3.535 7C3.88615 7.60821 4.39124 8.11324 4.99949 8.46433C5.60774 8.81541 6.2977 9.00016 7 9H9V7.5C9.00013 7.40592 9.02681 7.31378 9.07697 7.23417C9.12712 7.15457 9.19872 7.09074 9.28353 7.05C9.36834 7.00927 9.46292 6.99329 9.5564 7.0039C9.64989 7.01452 9.73848 7.05129 9.812 7.11L14.812 11.11C14.8706 11.1568 14.9179 11.2163 14.9504 11.2839C14.9829 11.3515 14.9997 11.4255 14.9997 11.5005C14.9997 11.5755 14.9829 11.6495 14.9504 11.7171C14.9179 11.7847 14.8706 11.8442 14.812 11.891L9.812 15.891C9.73841 15.9498 9.64973 15.9865 9.55615 15.9971C9.46258 16.0077 9.36792 15.9916 9.28308 15.9508C9.19823 15.9099 9.12665 15.8459 9.07657 15.7662C9.02649 15.6864 8.99995 15.5942 9 15.5V14H7C5.67392 14 4.40215 13.4732 3.46447 12.5355C2.52678 11.5979 2 10.3261 2 9Z" fill="#4F87FE"/>
<path d="M2 9V5C2 3.67392 2.52678 2.40215 3.46447 1.46447C4.40215 0.526784 5.67392 0 7 0L10.5 0C10.6326 0 10.7598 0.0526784 10.8536 0.146447C10.9473 0.240215 11 0.367392 11 0.5V4.5C11 4.63261 10.9473 4.75979 10.8536 4.85355C10.7598 4.94732 10.6326 5 10.5 5H7C6.2977 4.99984 5.60774 5.18459 4.99949 5.53567C4.39124 5.88675 3.88615 6.39179 3.535 7C3.88615 7.60821 4.39124 8.11324 4.99949 8.46433C5.60774 8.81541 6.2977 9.00016 7 9H9V7.5C9.00013 7.40592 9.02681 7.31378 9.07697 7.23417C9.12712 7.15457 9.19872 7.09074 9.28353 7.05C9.36834 7.00927 9.46292 6.99329 9.5564 7.0039C9.64989 7.01452 9.73848 7.05129 9.812 7.11L14.812 11.11C14.8706 11.1568 14.9179 11.2163 14.9504 11.2839C14.9829 11.3515 14.9997 11.4255 14.9997 11.5005C14.9997 11.5755 14.9829 11.6495 14.9504 11.7171C14.9179 11.7847 14.8706 11.8442 14.812 11.891L9.812 15.891C9.73841 15.9498 9.64973 15.9865 9.55615 15.9971C9.46258 16.0077 9.36792 15.9916 9.28308 15.9508C9.19823 15.9099 9.12665 15.8459 9.07657 15.7662C9.02649 15.6864 8.99995 15.5942 9 15.5V14H7C5.67392 14 4.40215 13.4732 3.46447 12.5355C2.52678 11.5979 2 10.3261 2 9ZM3.1 8.125C2.96889 8.70984 2.97088 9.31666 3.10583 9.90063C3.24078 10.4846 3.50523 11.0308 3.87965 11.4988C4.25406 11.9668 4.72886 12.3447 5.26896 12.6045C5.80906 12.8644 6.40065 12.9995 7 13H9.5C9.63261 13 9.75979 13.0527 9.85355 13.1464C9.94732 13.2402 10 13.3674 10 13.5V14.46L13.7 11.5L10 8.54V9.5C10 9.63261 9.94732 9.75979 9.85355 9.85355C9.75979 9.94732 9.63261 10 9.5 10H7C6.25101 9.99953 5.51169 9.8308 4.83665 9.50626C4.16162 9.18173 3.56812 8.70968 3.1 8.125ZM7 4H10V1H7C6.40065 1.00047 5.80906 1.13562 5.26896 1.39546C4.72886 1.65531 4.25406 2.0332 3.87965 2.50122C3.50523 2.96924 3.24078 3.51541 3.10583 4.09937C2.97088 4.68334 2.96889 5.29016 3.1 5.875C3.56812 5.29032 4.16162 4.81827 4.83665 4.49374C5.51169 4.1692 6.25101 4.00047 7 4Z" fill="#3B64FC"/>
</g>
<defs>
<clipPath id="clip0_2461_29484">
<rect width="16" height="16" fill="white"/>
</clipPath>
</defs>
</svg>
