<svg viewBox="0 0 16 16" fill="none" xmlns="http://www.w3.org/2000/svg">
<g clip-path="url(#clip0_2461_29502)">
<path opacity="0.2" d="M8.00003 6H5.00003V4.25C5.00008 4.15246 4.9716 4.05703 4.91809 3.97547C4.86459 3.89391 4.78839 3.82979 4.6989 3.79099C4.6094 3.75219 4.51051 3.74042 4.41441 3.75713C4.31831 3.77383 4.22919 3.81828 4.15803 3.885L0.158032 7.635C0.108077 7.68177 0.0682535 7.7383 0.0410284 7.80108C0.0138033 7.86386 -0.000244141 7.93157 -0.000244141 8C-0.000244141 8.06843 0.0138033 8.13614 0.0410284 8.19892C0.0682535 8.2617 0.108077 8.31823 0.158032 8.365L4.15803 12.115C4.22919 12.1817 4.31831 12.2262 4.41441 12.2429C4.51051 12.2596 4.6094 12.2478 4.6989 12.209C4.78839 12.1702 4.86459 12.1061 4.91809 12.0245C4.9716 11.943 5.00008 11.8475 5.00003 11.75V10H8.00003V14.5C8.00003 14.6326 8.05271 14.7598 8.14648 14.8536C8.24025 14.9473 8.36742 15 8.50003 15H15.5C15.6326 15 15.7598 14.9473 15.8536 14.8536C15.9474 14.7598 16 14.6326 16 14.5V1.5C16 1.36739 15.9474 1.24021 15.8536 1.14645C15.7598 1.05268 15.6326 1 15.5 1H8.50003C8.36742 1 8.24025 1.05268 8.14648 1.14645C8.05271 1.24021 8.00003 1.36739 8.00003 1.5V6Z" fill="#4F87FE"/>
<path d="M8.00003 6H5.00003V4.25C5.00008 4.15246 4.9716 4.05703 4.91809 3.97547C4.86459 3.89391 4.78839 3.82979 4.6989 3.79099C4.6094 3.75219 4.51051 3.74042 4.41441 3.75713C4.31831 3.77383 4.22919 3.81828 4.15803 3.885L0.158032 7.635C0.108077 7.68177 0.0682535 7.7383 0.0410284 7.80108C0.0138033 7.86386 -0.000244141 7.93157 -0.000244141 8C-0.000244141 8.06843 0.0138033 8.13614 0.0410284 8.19892C0.0682535 8.2617 0.108077 8.31823 0.158032 8.365L4.15803 12.115C4.22919 12.1817 4.31831 12.2262 4.41441 12.2429C4.51051 12.2596 4.6094 12.2478 4.6989 12.209C4.78839 12.1702 4.86459 12.1061 4.91809 12.0245C4.9716 11.943 5.00008 11.8475 5.00003 11.75V10H8.00003V14.5C8.00003 14.6326 8.05271 14.7598 8.14648 14.8536C8.24025 14.9473 8.36742 15 8.50003 15H15.5C15.6326 15 15.7598 14.9473 15.8536 14.8536C15.9474 14.7598 16 14.6326 16 14.5V1.5C16 1.36739 15.9474 1.24021 15.8536 1.14645C15.7598 1.05268 15.6326 1 15.5 1H8.50003C8.36742 1 8.24025 1.05268 8.14648 1.14645C8.05271 1.24021 8.00003 1.36739 8.00003 1.5V6ZM9.00003 2H15V14H9.00003V9.5C9.00003 9.36739 8.94735 9.24021 8.85359 9.14645C8.75982 9.05268 8.63264 9 8.50003 9H4.50003C4.36742 9 4.24025 9.05268 4.14648 9.14645C4.05271 9.24021 4.00003 9.36739 4.00003 9.5V10.6L1.23103 8L4.00003 5.4V6.5C4.00003 6.63261 4.05271 6.75979 4.14648 6.85355C4.24025 6.94732 4.36742 7 4.50003 7H8.50003C8.63264 7 8.75982 6.94732 8.85359 6.85355C8.94735 6.75979 9.00003 6.63261 9.00003 6.5V2Z" fill="#3B64FC"/>
</g>
<defs>
<clipPath id="clip0_2461_29502">
<rect width="16" height="16" fill="white"/>
</clipPath>
</defs>
</svg>
