<svg viewBox="0 0 16 16" fill="none" xmlns="http://www.w3.org/2000/svg">
<g clip-path="url(#clip0_2461_29496)">
<path opacity="0.2" d="M0 3.5C0 3.36739 0.0526784 3.24022 0.146447 3.14645C0.240215 3.05268 0.367392 3 0.5 3H10.5C10.5657 2.99988 10.6308 3.01272 10.6915 3.03777C10.7523 3.06282 10.8075 3.0996 10.854 3.146L15.854 8.146C15.9477 8.23976 16.0004 8.36692 16.0004 8.4995C16.0004 8.63208 15.9477 8.75924 15.854 8.853L10.854 13.853C10.8076 13.8996 10.7524 13.9365 10.6916 13.9618C10.6309 13.987 10.5658 14 10.5 14H0.5C0.367392 14 0.240215 13.9473 0.146447 13.8536C0.0526784 13.7598 0 13.6326 0 13.5V3.5Z" fill="#4F87FE"/>
<path d="M0 3.5C0 3.36739 0.0526784 3.24022 0.146447 3.14645C0.240215 3.05268 0.367392 3 0.5 3H10.5C10.5657 2.99988 10.6308 3.01272 10.6915 3.03777C10.7523 3.06282 10.8075 3.0996 10.854 3.146L15.854 8.146C15.9477 8.23976 16.0004 8.36692 16.0004 8.4995C16.0004 8.63208 15.9477 8.75924 15.854 8.853L10.854 13.853C10.8076 13.8996 10.7524 13.9365 10.6916 13.9618C10.6309 13.987 10.5658 14 10.5 14H0.5C0.367392 14 0.240215 13.9473 0.146447 13.8536C0.0526784 13.7598 0 13.6326 0 13.5V3.5ZM1 4V13H10.293L14.793 8.5L10.293 4H1Z" fill="#3B64FC"/>
</g>
<defs>
<clipPath id="clip0_2461_29496">
<rect width="16" height="16" fill="white"/>
</clipPath>
</defs>
</svg>
