<svg viewBox="0 0 16 16" fill="none" xmlns="http://www.w3.org/2000/svg">
<g clip-path="url(#clip0_2461_29506)">
<path opacity="0.2" d="M6 8V11H4.25C4.15246 10.9999 4.05703 11.0284 3.97547 11.0819C3.89391 11.1354 3.82979 11.2116 3.79099 11.3011C3.75219 11.3906 3.74042 11.4895 3.75713 11.5856C3.77383 11.6817 3.81828 11.7708 3.885 11.842L7.635 15.842C7.6808 15.8909 7.73596 15.93 7.79719 15.9572C7.85843 15.9843 7.92449 15.9989 7.99146 16C8.05843 16.0011 8.12494 15.9888 8.18705 15.9637C8.24916 15.9386 8.30559 15.9013 8.353 15.854L12.353 11.854C12.423 11.7841 12.4708 11.6951 12.4902 11.598C12.5096 11.501 12.4998 11.4004 12.462 11.309C12.4242 11.2176 12.3601 11.1394 12.2779 11.0844C12.1956 11.0294 12.0989 11 12 11H10V8H14.5C14.6326 8 14.7598 7.94732 14.8536 7.85355C14.9473 7.75979 15 7.63261 15 7.5V0.5C15 0.367392 14.9473 0.240215 14.8536 0.146447C14.7598 0.0526784 14.6326 0 14.5 0L1.5 0C1.36739 0 1.24021 0.0526784 1.14645 0.146447C1.05268 0.240215 1 0.367392 1 0.5V7.5C1 7.63261 1.05268 7.75979 1.14645 7.85355C1.24021 7.94732 1.36739 8 1.5 8H6Z" fill="#4F87FE"/>
<path d="M6 8V11H4.25C4.15246 10.9999 4.05703 11.0284 3.97547 11.0819C3.89391 11.1354 3.82979 11.2116 3.79099 11.3011C3.75219 11.3906 3.74042 11.4895 3.75713 11.5856C3.77383 11.6817 3.81828 11.7708 3.885 11.842L7.635 15.842C7.6808 15.8909 7.73596 15.93 7.79719 15.9572C7.85843 15.9843 7.92449 15.9989 7.99146 16C8.05843 16.0011 8.12494 15.9888 8.18705 15.9637C8.24916 15.9386 8.30559 15.9013 8.353 15.854L12.353 11.854C12.423 11.7841 12.4708 11.6951 12.4902 11.598C12.5096 11.501 12.4998 11.4004 12.462 11.309C12.4242 11.2176 12.3601 11.1394 12.2779 11.0844C12.1956 11.0294 12.0989 11 12 11H10V8H14.5C14.6326 8 14.7598 7.94732 14.8536 7.85355C14.9473 7.75979 15 7.63261 15 7.5V0.5C15 0.367392 14.9473 0.240215 14.8536 0.146447C14.7598 0.0526784 14.6326 0 14.5 0L1.5 0C1.36739 0 1.24021 0.0526784 1.14645 0.146447C1.05268 0.240215 1 0.367392 1 0.5V7.5C1 7.63261 1.05268 7.75979 1.14645 7.85355C1.24021 7.94732 1.36739 8 1.5 8H6ZM2 7V1H14V7H9.5C9.36739 7 9.24021 7.05268 9.14645 7.14645C9.05268 7.24021 9 7.36739 9 7.5V11.5C9 11.6326 9.05268 11.7598 9.14645 11.8536C9.24021 11.9473 9.36739 12 9.5 12H10.793L8.012 14.781L5.4 12H6.5C6.63261 12 6.75979 11.9473 6.85355 11.8536C6.94732 11.7598 7 11.6326 7 11.5V7.5C7 7.36739 6.94732 7.24021 6.85355 7.14645C6.75979 7.05268 6.63261 7 6.5 7H2Z" fill="#3B64FC"/>
</g>
<defs>
<clipPath id="clip0_2461_29506">
<rect width="16" height="16" fill="white"/>
</clipPath>
</defs>
</svg>
