<svg viewBox="0 0 16 16" fill="none" xmlns="http://www.w3.org/2000/svg">
<g clip-path="url(#clip0_2461_29510)">
<path opacity="0.2" d="M3.99996 5.99996V4.49996C3.99996 4.36736 4.05264 4.24018 4.14641 4.14641C4.24018 4.05264 4.36736 3.99996 4.49996 3.99996H5.99996V2.99996H5.24996C5.14553 2.99872 5.04411 2.96481 4.95994 2.90299C4.87577 2.84116 4.81306 2.75453 4.78063 2.65526C4.7482 2.55598 4.74767 2.44905 4.77912 2.34945C4.81056 2.24986 4.87241 2.16262 4.95596 2.09996L7.70596 0.0999641C7.79141 0.0378507 7.89433 0.00439453 7.99996 0.00439453C8.1056 0.00439453 8.20852 0.0378507 8.29396 0.0999641L11.044 2.09996C11.1275 2.16262 11.1894 2.24986 11.2208 2.34945C11.2523 2.44905 11.2517 2.55598 11.2193 2.65526C11.1869 2.75453 11.1242 2.84116 11.04 2.90299C10.9558 2.96481 10.8544 2.99872 10.75 2.99996H9.99996V3.99996H11.5C11.6326 3.99996 11.7597 4.05264 11.8535 4.14641C11.9473 4.24018 12 4.36736 12 4.49996V5.99996H13V5.24996C13.0012 5.14553 13.0351 5.04411 13.0969 4.95994C13.1588 4.87577 13.2454 4.81306 13.3447 4.78063C13.4439 4.7482 13.5509 4.74767 13.6505 4.77912C13.7501 4.81056 13.8373 4.87241 13.9 4.95596L15.9 7.70596C15.9621 7.79141 15.9955 7.89433 15.9955 7.99996C15.9955 8.1056 15.9621 8.20852 15.9 8.29396L13.9 11.044C13.8373 11.1275 13.7501 11.1894 13.6505 11.2208C13.5509 11.2523 13.4439 11.2517 13.3447 11.2193C13.2454 11.1869 13.1588 11.1242 13.0969 11.04C13.0351 10.9558 13.0012 10.8544 13 10.75V9.99996H12V11.5C12 11.6326 11.9473 11.7597 11.8535 11.8535C11.7597 11.9473 11.6326 12 11.5 12H9.99996V13H10.75C10.8544 13.0012 10.9558 13.0351 11.04 13.0969C11.1242 13.1588 11.1869 13.2454 11.2193 13.3447C11.2517 13.4439 11.2523 13.5509 11.2208 13.6505C11.1894 13.7501 11.1275 13.8373 11.044 13.9L8.29396 15.9C8.20852 15.9621 8.1056 15.9955 7.99996 15.9955C7.89433 15.9955 7.79141 15.9621 7.70596 15.9L4.95596 13.9C4.87241 13.8373 4.81056 13.7501 4.77912 13.6505C4.74767 13.5509 4.7482 13.4439 4.78063 13.3447C4.81306 13.2454 4.87577 13.1588 4.95994 13.0969C5.04411 13.0351 5.14553 13.0012 5.24996 13H5.99996V12H4.49996C4.36736 12 4.24018 11.9473 4.14641 11.8535C4.05264 11.7597 3.99996 11.6326 3.99996 11.5V9.99996H2.99996V10.75C2.99872 10.8544 2.96481 10.9558 2.90299 11.04C2.84116 11.1242 2.75453 11.1869 2.65526 11.2193C2.55598 11.2517 2.44905 11.2523 2.34945 11.2208C2.24986 11.1894 2.16262 11.1275 2.09996 11.044L0.0999641 8.29396C0.0378507 8.20852 0.00439453 8.1056 0.00439453 7.99996C0.00439453 7.89433 0.0378507 7.79141 0.0999641 7.70596L2.09996 4.95596C2.16262 4.87241 2.24986 4.81056 2.34945 4.77912C2.44905 4.74767 2.55598 4.7482 2.65526 4.78063C2.75453 4.81306 2.84116 4.87577 2.90299 4.95994C2.96481 5.04411 2.99872 5.14553 2.99996 5.24996V5.99996H3.99996Z" fill="#4F87FE"/>
<path d="M3.99996 5.99996V4.49996C3.99996 4.36736 4.05264 4.24018 4.14641 4.14641C4.24018 4.05264 4.36736 3.99996 4.49996 3.99996H5.99996V2.99996H5.24996C5.14553 2.99872 5.04411 2.96481 4.95994 2.90299C4.87577 2.84116 4.81306 2.75453 4.78063 2.65526C4.7482 2.55598 4.74767 2.44905 4.77912 2.34945C4.81056 2.24986 4.87241 2.16262 4.95596 2.09996L7.70596 0.0999641C7.79141 0.0378507 7.89433 0.00439453 7.99996 0.00439453C8.1056 0.00439453 8.20852 0.0378507 8.29396 0.0999641L11.044 2.09996C11.1275 2.16262 11.1894 2.24986 11.2208 2.34945C11.2523 2.44905 11.2517 2.55598 11.2193 2.65526C11.1869 2.75453 11.1242 2.84116 11.04 2.90299C10.9558 2.96481 10.8544 2.99872 10.75 2.99996H9.99996V3.99996H11.5C11.6326 3.99996 11.7597 4.05264 11.8535 4.14641C11.9473 4.24018 12 4.36736 12 4.49996V5.99996H13V5.24996C13.0012 5.14553 13.0351 5.04411 13.0969 4.95994C13.1588 4.87577 13.2454 4.81306 13.3447 4.78063C13.4439 4.7482 13.5509 4.74767 13.6505 4.77912C13.7501 4.81056 13.8373 4.87241 13.9 4.95596L15.9 7.70596C15.9621 7.79141 15.9955 7.89433 15.9955 7.99996C15.9955 8.1056 15.9621 8.20852 15.9 8.29396L13.9 11.044C13.8373 11.1275 13.7501 11.1894 13.6505 11.2208C13.5509 11.2523 13.4439 11.2517 13.3447 11.2193C13.2454 11.1869 13.1588 11.1242 13.0969 11.04C13.0351 10.9558 13.0012 10.8544 13 10.75V9.99996H12V11.5C12 11.6326 11.9473 11.7597 11.8535 11.8535C11.7597 11.9473 11.6326 12 11.5 12H9.99996V13H10.75C10.8544 13.0012 10.9558 13.0351 11.04 13.0969C11.1242 13.1588 11.1869 13.2454 11.2193 13.3447C11.2517 13.4439 11.2523 13.5509 11.2208 13.6505C11.1894 13.7501 11.1275 13.8373 11.044 13.9L8.29396 15.9C8.20852 15.9621 8.1056 15.9955 7.99996 15.9955C7.89433 15.9955 7.79141 15.9621 7.70596 15.9L4.95596 13.9C4.87241 13.8373 4.81056 13.7501 4.77912 13.6505C4.74767 13.5509 4.7482 13.4439 4.78063 13.3447C4.81306 13.2454 4.87577 13.1588 4.95994 13.0969C5.04411 13.0351 5.14553 13.0012 5.24996 13H5.99996V12H4.49996C4.36736 12 4.24018 11.9473 4.14641 11.8535C4.05264 11.7597 3.99996 11.6326 3.99996 11.5V9.99996H2.99996V10.75C2.99872 10.8544 2.96481 10.9558 2.90299 11.04C2.84116 11.1242 2.75453 11.1869 2.65526 11.2193C2.55598 11.2517 2.44905 11.2523 2.34945 11.2208C2.24986 11.1894 2.16262 11.1275 2.09996 11.044L0.0999641 8.29396C0.0378507 8.20852 0.00439453 8.1056 0.00439453 7.99996C0.00439453 7.89433 0.0378507 7.79141 0.0999641 7.70596L2.09996 4.95596C2.16262 4.87241 2.24986 4.81056 2.34945 4.77912C2.44905 4.74767 2.55598 4.7482 2.65526 4.78063C2.75453 4.81306 2.84116 4.87577 2.90299 4.95994C2.96481 5.04411 2.99872 5.14553 2.99996 5.24996V5.99996H3.99996ZM4.99996 4.99996V6.49996C4.99996 6.63257 4.94729 6.75975 4.85352 6.85352C4.75975 6.94729 4.63257 6.99996 4.49996 6.99996H2.49996C2.40615 7.00006 2.3142 6.97376 2.23462 6.92407C2.15505 6.87438 2.09106 6.8033 2.04996 6.71896L1.11796 7.99996L2.04996 9.28096C2.09106 9.19663 2.15505 9.12555 2.23462 9.07586C2.3142 9.02617 2.40615 8.99987 2.49996 8.99996H4.49996C4.63257 8.99996 4.75975 9.05264 4.85352 9.14641C4.94729 9.24018 4.99996 9.36736 4.99996 9.49996V11H6.49996C6.63257 11 6.75975 11.0526 6.85352 11.1464C6.94729 11.2402 6.99996 11.3674 6.99996 11.5V13.5C7.00006 13.5938 6.97376 13.6857 6.92407 13.7653C6.87438 13.8449 6.8033 13.9089 6.71896 13.95L7.99996 14.882L9.28096 13.95C9.19663 13.9089 9.12555 13.8449 9.07586 13.7653C9.02617 13.6857 8.99987 13.5938 8.99996 13.5V11.5C8.99996 11.3674 9.05264 11.2402 9.14641 11.1464C9.24018 11.0526 9.36736 11 9.49996 11H11V9.49996C11 9.36736 11.0526 9.24018 11.1464 9.14641C11.2402 9.05264 11.3674 8.99996 11.5 8.99996H13.5C13.5938 8.99987 13.6857 9.02617 13.7653 9.07586C13.8449 9.12555 13.9089 9.19663 13.95 9.28096L14.882 7.99996L13.95 6.71896C13.9089 6.8033 13.8449 6.87438 13.7653 6.92407C13.6857 6.97376 13.5938 7.00006 13.5 6.99996H11.5C11.3674 6.99996 11.2402 6.94729 11.1464 6.85352C11.0526 6.75975 11 6.63257 11 6.49996V4.99996H9.49996C9.36736 4.99996 9.24018 4.94729 9.14641 4.85352C9.05264 4.75975 8.99996 4.63257 8.99996 4.49996V2.49996C8.99987 2.40615 9.02617 2.3142 9.07586 2.23462C9.12555 2.15505 9.19663 2.09106 9.28096 2.04996L7.99996 1.11796L6.71896 2.04996C6.8033 2.09106 6.87438 2.15505 6.92407 2.23462C6.97376 2.3142 7.00006 2.40615 6.99996 2.49996V4.49996C6.99996 4.63257 6.94729 4.75975 6.85352 4.85352C6.75975 4.94729 6.63257 4.99996 6.49996 4.99996H4.99996Z" fill="#3B64FC"/>
</g>
<defs>
<clipPath id="clip0_2461_29510">
<rect width="16" height="16" fill="white"/>
</clipPath>
</defs>
</svg>
