<svg viewBox="0 0 16 16" fill="none" xmlns="http://www.w3.org/2000/svg">
<g clip-path="url(#clip0_2461_29468)">
<path opacity="0.2" d="M5.00003 5.99977H11V4.24977C11 4.15223 11.0285 4.0568 11.082 3.97524C11.1355 3.89368 11.2117 3.82956 11.3012 3.79076C11.3907 3.75196 11.4896 3.74019 11.5857 3.7569C11.6818 3.7736 11.7709 3.81805 11.842 3.88477L15.842 7.63477C15.892 7.68154 15.9318 7.73807 15.959 7.80085C15.9863 7.86363 16.0003 7.93134 16.0003 7.99977C16.0003 8.0682 15.9863 8.13591 15.959 8.19869C15.9318 8.26147 15.892 8.318 15.842 8.36477L11.842 12.1148C11.7709 12.1815 11.6818 12.2259 11.5857 12.2426C11.4896 12.2593 11.3907 12.2476 11.3012 12.2088C11.2117 12.17 11.1355 12.1059 11.082 12.0243C11.0285 11.9427 11 11.8473 11 11.7498V9.99977H5.00003V11.7498C5.00008 11.8473 4.9716 11.9427 4.91809 12.0243C4.86459 12.1059 4.78839 12.17 4.6989 12.2088C4.6094 12.2476 4.51051 12.2593 4.41441 12.2426C4.31831 12.2259 4.22919 12.1815 4.15803 12.1148L0.158032 8.36477C0.108077 8.318 0.0682535 8.26147 0.0410284 8.19869C0.0138033 8.13591 -0.000244141 8.0682 -0.000244141 7.99977C-0.000244141 7.93134 0.0138033 7.86363 0.0410284 7.80085C0.0682535 7.73807 0.108077 7.68154 0.158032 7.63477L4.15803 3.88477C4.22919 3.81805 4.31831 3.7736 4.41441 3.7569C4.51051 3.74019 4.6094 3.75196 4.6989 3.79076C4.78839 3.82956 4.86459 3.89368 4.91809 3.97524C4.9716 4.0568 5.00008 4.15223 5.00003 4.24977V5.99977Z" fill="#4F87FE"/>
<path d="M5.00003 5.99977H11V4.24977C11 4.15223 11.0285 4.0568 11.082 3.97524C11.1355 3.89368 11.2117 3.82956 11.3012 3.79076C11.3907 3.75196 11.4896 3.74019 11.5857 3.7569C11.6818 3.7736 11.7709 3.81805 11.842 3.88477L15.842 7.63477C15.892 7.68154 15.9318 7.73807 15.959 7.80085C15.9863 7.86363 16.0003 7.93134 16.0003 7.99977C16.0003 8.0682 15.9863 8.13591 15.959 8.19869C15.9318 8.26147 15.892 8.318 15.842 8.36477L11.842 12.1148C11.7709 12.1815 11.6818 12.2259 11.5857 12.2426C11.4896 12.2593 11.3907 12.2476 11.3012 12.2088C11.2117 12.17 11.1355 12.1059 11.082 12.0243C11.0285 11.9427 11 11.8473 11 11.7498V9.99977H5.00003V11.7498C5.00008 11.8473 4.9716 11.9427 4.91809 12.0243C4.86459 12.1059 4.78839 12.17 4.6989 12.2088C4.6094 12.2476 4.51051 12.2593 4.41441 12.2426C4.31831 12.2259 4.22919 12.1815 4.15803 12.1148L0.158032 8.36477C0.108077 8.318 0.0682535 8.26147 0.0410284 8.19869C0.0138033 8.13591 -0.000244141 8.0682 -0.000244141 7.99977C-0.000244141 7.93134 0.0138033 7.86363 0.0410284 7.80085C0.0682535 7.73807 0.108077 7.68154 0.158032 7.63477L4.15803 3.88477C4.22919 3.81805 4.31831 3.7736 4.41441 3.7569C4.51051 3.74019 4.6094 3.75196 4.6989 3.79076C4.78839 3.82956 4.86459 3.89368 4.91809 3.97524C4.9716 4.0568 5.00008 4.15223 5.00003 4.24977V5.99977ZM12 5.39977V6.49977C12 6.63238 11.9474 6.75956 11.8536 6.85332C11.7598 6.94709 11.6326 6.99977 11.5 6.99977H4.50003C4.36742 6.99977 4.24025 6.94709 4.14648 6.85332C4.05271 6.75956 4.00003 6.63238 4.00003 6.49977V5.39977L1.23103 7.99977L4.00003 10.5998V9.49977C4.00003 9.36716 4.05271 9.23999 4.14648 9.14622C4.24025 9.05245 4.36742 8.99977 4.50003 8.99977H11.5C11.6326 8.99977 11.7598 9.05245 11.8536 9.14622C11.9474 9.23999 12 9.36716 12 9.49977V10.5998L14.769 7.99977L12 5.39977Z" fill="#3B64FC"/>
</g>
<defs>
<clipPath id="clip0_2461_29468">
<rect width="16" height="16" fill="white"/>
</clipPath>
</defs>
</svg>
