<svg viewBox="0 0 16 16" fill="none" xmlns="http://www.w3.org/2000/svg">
<g clip-path="url(#clip0_2461_29494)">
<path opacity="0.2" d="M0.145918 5.85413C0.0758114 5.7842 0.0280469 5.69503 0.00868009 5.59792C-0.0106867 5.50081 -0.000783589 5.40014 0.0371339 5.30867C0.0750515 5.21719 0.139276 5.13904 0.221665 5.08411C0.304054 5.02918 0.400898 4.99995 0.499918 5.00013H7.99992V3.37013C7.99993 3.19798 8.04932 3.02945 8.14222 2.88452C8.23512 2.73959 8.36764 2.62435 8.52406 2.55246C8.68047 2.48056 8.85423 2.45504 9.02471 2.47891C9.1952 2.50278 9.35526 2.57504 9.48592 2.68713L15.8259 8.12113C15.8806 8.16807 15.9246 8.22629 15.9547 8.29179C15.9848 8.3573 16.0004 8.42854 16.0004 8.50063C16.0004 8.57272 15.9848 8.64397 15.9547 8.70947C15.9246 8.77497 15.8806 8.83319 15.8259 8.88013L9.48592 14.3141C9.3552 14.4263 9.19504 14.4986 9.02447 14.5224C8.85389 14.5462 8.68006 14.5206 8.5236 14.4486C8.36715 14.3766 8.23464 14.2612 8.14182 14.1161C8.04899 13.971 7.99974 13.8024 7.99992 13.6301V12.0001H0.499918C0.400898 12.0003 0.304054 11.9711 0.221665 11.9162C0.139276 11.8612 0.0750515 11.7831 0.0371339 11.6916C-0.000783589 11.6001 -0.0106867 11.4994 0.00868009 11.4023C0.0280469 11.3052 0.0758114 11.2161 0.145918 11.1461L2.79292 8.50013L0.145918 5.85413Z" fill="#4F87FE"/>
<path d="M0.145918 5.85413C0.0758114 5.7842 0.0280469 5.69503 0.00868009 5.59792C-0.0106867 5.50081 -0.000783589 5.40014 0.0371339 5.30867C0.0750515 5.21719 0.139276 5.13904 0.221665 5.08411C0.304054 5.02918 0.400898 4.99995 0.499918 5.00013H7.99992V3.37013C7.99993 3.19798 8.04932 3.02945 8.14222 2.88452C8.23512 2.73959 8.36764 2.62435 8.52406 2.55246C8.68047 2.48056 8.85423 2.45504 9.02471 2.47891C9.1952 2.50278 9.35526 2.57504 9.48592 2.68713L15.8259 8.12113C15.8806 8.16807 15.9246 8.22629 15.9547 8.29179C15.9848 8.3573 16.0004 8.42854 16.0004 8.50063C16.0004 8.57272 15.9848 8.64397 15.9547 8.70947C15.9246 8.77497 15.8806 8.83319 15.8259 8.88013L9.48592 14.3141C9.3552 14.4263 9.19504 14.4986 9.02447 14.5224C8.85389 14.5462 8.68006 14.5206 8.5236 14.4486C8.36715 14.3766 8.23464 14.2612 8.14182 14.1161C8.04899 13.971 7.99974 13.8024 7.99992 13.6301V12.0001H0.499918C0.400898 12.0003 0.304054 11.9711 0.221665 11.9162C0.139276 11.8612 0.0750515 11.7831 0.0371339 11.6916C-0.000783589 11.6001 -0.0106867 11.4994 0.00868009 11.4023C0.0280469 11.3052 0.0758114 11.2161 0.145918 11.1461L2.79292 8.50013L0.145918 5.85413ZM1.70692 6.00013L3.85392 8.14613C3.94765 8.23989 4.00031 8.36705 4.00031 8.49963C4.00031 8.63221 3.94765 8.75937 3.85392 8.85313L1.70692 11.0001H8.49992C8.63253 11.0001 8.7597 11.0528 8.85347 11.1466C8.94724 11.2403 8.99992 11.3675 8.99992 11.5001V13.4131L14.7319 8.50013L8.99992 3.58713V5.50013C8.99992 5.63274 8.94724 5.75992 8.85347 5.85368C8.7597 5.94745 8.63253 6.00013 8.49992 6.00013H1.70692Z" fill="#3B64FC"/>
</g>
<defs>
<clipPath id="clip0_2461_29494">
<rect width="16" height="16" fill="white"/>
</clipPath>
</defs>
</svg>
