<svg viewBox="0 0 16 16" fill="none" xmlns="http://www.w3.org/2000/svg">
<path opacity="0.2" d="M13 9C13 9.65661 12.8707 10.3068 12.6194 10.9134C12.3681 11.52 11.9998 12.0712 11.5355 12.5355C11.0712 12.9998 10.52 13.3681 9.9134 13.6194C9.30677 13.8707 8.65659 14 7.99998 14H5.99998V15.5C5.99984 15.5941 5.97317 15.6862 5.92301 15.7658C5.87286 15.8454 5.80126 15.9093 5.71645 15.95C5.63164 15.9907 5.53706 16.0067 5.44358 15.9961C5.35009 15.9855 5.2615 15.9487 5.18798 15.89L0.187979 11.89C0.129401 11.8432 0.0821128 11.7837 0.0496153 11.7161C0.0171178 11.6485 0.000244141 11.5745 0.000244141 11.4995C0.000244141 11.4245 0.0171178 11.3505 0.0496153 11.2829C0.0821128 11.2153 0.129401 11.1558 0.187979 11.109L5.18798 7.109C5.26157 7.05024 5.35025 7.01345 5.44382 7.00288C5.5374 6.9923 5.63206 7.00836 5.7169 7.04922C5.80175 7.09007 5.87333 7.15406 5.92341 7.23381C5.97349 7.31356 6.00003 7.40583 5.99998 7.5V9H7.99998C8.70228 9.00016 9.39224 8.81541 10.0005 8.46433C10.6087 8.11324 11.1138 7.60821 11.465 7C11.1138 6.39179 10.6087 5.88675 10.0005 5.53567C9.39224 5.18459 8.70228 4.99984 7.99998 5H4.49998C4.36737 5 4.24019 4.94732 4.14643 4.85355C4.05266 4.75979 3.99998 4.63261 3.99998 4.5V0.5C3.99998 0.367392 4.05266 0.240215 4.14643 0.146447C4.24019 0.0526784 4.36737 0 4.49998 0L7.99998 0C9.32606 0 10.5978 0.526784 11.5355 1.46447C12.4732 2.40215 13 3.67392 13 5V9Z" fill="#4F87FE"/>
<path d="M13 9C13 9.65661 12.8707 10.3068 12.6194 10.9134C12.3681 11.52 11.9998 12.0712 11.5355 12.5355C11.0712 12.9998 10.52 13.3681 9.9134 13.6194C9.30677 13.8707 8.65659 14 7.99998 14H5.99998V15.5C5.99984 15.5941 5.97317 15.6862 5.92301 15.7658C5.87286 15.8454 5.80126 15.9093 5.71645 15.95C5.63164 15.9907 5.53706 16.0067 5.44358 15.9961C5.35009 15.9855 5.2615 15.9487 5.18798 15.89L0.187979 11.89C0.129401 11.8432 0.0821128 11.7837 0.0496153 11.7161C0.0171178 11.6485 0.000244141 11.5745 0.000244141 11.4995C0.000244141 11.4245 0.0171178 11.3505 0.0496153 11.2829C0.0821128 11.2153 0.129401 11.1558 0.187979 11.109L5.18798 7.109C5.26157 7.05024 5.35025 7.01345 5.44382 7.00288C5.5374 6.9923 5.63206 7.00836 5.7169 7.04922C5.80175 7.09007 5.87333 7.15406 5.92341 7.23381C5.97349 7.31356 6.00003 7.40583 5.99998 7.5V9H7.99998C8.70228 9.00016 9.39224 8.81541 10.0005 8.46433C10.6087 8.11324 11.1138 7.60821 11.465 7C11.1138 6.39179 10.6087 5.88675 10.0005 5.53567C9.39224 5.18459 8.70228 4.99984 7.99998 5H4.49998C4.36737 5 4.24019 4.94732 4.14643 4.85355C4.05266 4.75979 3.99998 4.63261 3.99998 4.5V0.5C3.99998 0.367392 4.05266 0.240215 4.14643 0.146447C4.24019 0.0526784 4.36737 0 4.49998 0L7.99998 0C9.32606 0 10.5978 0.526784 11.5355 1.46447C12.4732 2.40215 13 3.67392 13 5V9ZM7.99998 10H5.49998C5.36737 10 5.24019 9.94732 5.14643 9.85355C5.05266 9.75979 4.99998 9.63261 4.99998 9.5V8.54L1.29998 11.5L4.99998 14.46V13.5C4.99998 13.3674 5.05266 13.2402 5.14643 13.1464C5.24019 13.0527 5.36737 13 5.49998 13H7.99998C8.59933 12.9995 9.19092 12.8644 9.73102 12.6045C10.2711 12.3447 10.7459 11.9668 11.1203 11.4988C11.4947 11.0308 11.7592 10.4846 11.8941 9.90063C12.0291 9.31666 12.0311 8.70984 11.9 8.125C11.4319 8.70968 10.8384 9.18173 10.1633 9.50626C9.48829 9.8308 8.74897 9.99953 7.99998 10ZM12 5C12 3.93913 11.5786 2.92172 10.8284 2.17157C10.0783 1.42143 9.06084 1 7.99998 1H4.99998V4H7.99998C8.74897 4.00047 9.48829 4.1692 10.1633 4.49374C10.8384 4.81827 11.4319 5.29032 11.9 5.875C11.9653 5.58788 11.9988 5.29445 12 5Z" fill="#3B64FC"/>
</svg>
