<svg viewBox="0 0 16 16" fill="none" xmlns="http://www.w3.org/2000/svg">
<g clip-path="url(#clip0_2461_29480)">
<path opacity="0.2" d="M14 6.00022H15.5C15.5941 6.00009 15.6862 5.97341 15.7658 5.92326C15.8454 5.8731 15.9092 5.80151 15.95 5.7167C15.9907 5.63189 16.0067 5.5373 15.9961 5.44382C15.9855 5.35034 15.9487 5.26174 15.89 5.18822L11.89 0.188223C11.8431 0.129646 11.7837 0.0823569 11.7161 0.0498594C11.6485 0.0173619 11.5745 0.000488281 11.4995 0.000488281C11.4245 0.000488281 11.3504 0.0173619 11.2828 0.0498594C11.2152 0.0823569 11.1558 0.129646 11.109 0.188223L7.10898 5.18822C7.05022 5.26181 7.01343 5.35049 7.00285 5.44407C6.99228 5.53764 7.00834 5.6323 7.0492 5.71715C7.09005 5.80199 7.15404 5.87358 7.23379 5.92366C7.31354 5.97374 7.40581 6.00028 7.49998 6.00022H8.99998V9.00022H5.99998V7.50022C5.99984 7.40614 5.97317 7.314 5.92301 7.2344C5.87286 7.1548 5.80126 7.09096 5.71645 7.05022C5.63164 7.00949 5.53706 6.99351 5.44358 7.00413C5.35009 7.01474 5.2615 7.05151 5.18798 7.11022L0.187979 11.1102C0.129401 11.1571 0.0821128 11.2165 0.0496153 11.2841C0.0171178 11.3517 0.000244141 11.4257 0.000244141 11.5007C0.000244141 11.5757 0.0171178 11.6498 0.0496153 11.7174C0.0821128 11.785 0.129401 11.8444 0.187979 11.8912L5.18798 15.8912C5.26157 15.95 5.35025 15.9868 5.44382 15.9973C5.5374 16.0079 5.63206 15.9919 5.7169 15.951C5.80175 15.9101 5.87333 15.8462 5.92341 15.7664C5.97349 15.6867 6.00003 15.5944 5.99998 15.5002V14.0002H13.5C13.6326 14.0002 13.7598 13.9475 13.8535 13.8538C13.9473 13.76 14 13.6328 14 13.5002V6.00022Z" fill="#4F87FE"/>
<path d="M14 6.00022H15.5C15.5941 6.00009 15.6862 5.97341 15.7658 5.92326C15.8454 5.8731 15.9092 5.80151 15.95 5.7167C15.9907 5.63189 16.0067 5.5373 15.9961 5.44382C15.9855 5.35034 15.9487 5.26174 15.89 5.18822L11.89 0.188223C11.8431 0.129646 11.7837 0.0823569 11.7161 0.0498594C11.6485 0.0173619 11.5745 0.000488281 11.4995 0.000488281C11.4245 0.000488281 11.3504 0.0173619 11.2828 0.0498594C11.2152 0.0823569 11.1558 0.129646 11.109 0.188223L7.10898 5.18822C7.05022 5.26181 7.01343 5.35049 7.00285 5.44407C6.99228 5.53764 7.00834 5.6323 7.0492 5.71715C7.09005 5.80199 7.15404 5.87358 7.23379 5.92366C7.31354 5.97374 7.40581 6.00028 7.49998 6.00022H8.99998V9.00022H5.99998V7.50022C5.99984 7.40614 5.97317 7.314 5.92301 7.2344C5.87286 7.1548 5.80126 7.09096 5.71645 7.05022C5.63164 7.00949 5.53706 6.99351 5.44358 7.00413C5.35009 7.01474 5.2615 7.05151 5.18798 7.11022L0.187979 11.1102C0.129401 11.1571 0.0821128 11.2165 0.0496153 11.2841C0.0171178 11.3517 0.000244141 11.4257 0.000244141 11.5007C0.000244141 11.5757 0.0171178 11.6498 0.0496153 11.7174C0.0821128 11.785 0.129401 11.8444 0.187979 11.8912L5.18798 15.8912C5.26157 15.95 5.35025 15.9868 5.44382 15.9973C5.5374 16.0079 5.63206 15.9919 5.7169 15.951C5.80175 15.9101 5.87333 15.8462 5.92341 15.7664C5.97349 15.6867 6.00003 15.5944 5.99998 15.5002V14.0002H13.5C13.6326 14.0002 13.7598 13.9475 13.8535 13.8538C13.9473 13.76 14 13.6328 14 13.5002V6.00022ZM13 13.0002H5.49998C5.36737 13.0002 5.24019 13.0529 5.14643 13.1467C5.05266 13.2404 4.99998 13.3676 4.99998 13.5002V14.4602L1.29998 11.5002L4.99998 8.54022V9.50022C4.99998 9.63283 5.05266 9.76001 5.14643 9.85378C5.24019 9.94755 5.36737 10.0002 5.49998 10.0002H9.49998C9.63259 10.0002 9.75976 9.94755 9.85353 9.85378C9.9473 9.76001 9.99998 9.63283 9.99998 9.50022V5.50022C9.99998 5.36761 9.9473 5.24044 9.85353 5.14667C9.75976 5.0529 9.63259 5.00022 9.49998 5.00022H8.53998L11.5 1.30022L14.46 5.00022H13.5C13.3674 5.00022 13.2402 5.0529 13.1464 5.14667C13.0527 5.24044 13 5.36761 13 5.50022V13.0002Z" fill="#3B64FC"/>
</g>
<defs>
<clipPath id="clip0_2461_29480">
<rect width="16" height="16" fill="white"/>
</clipPath>
</defs>
</svg>
