<svg viewBox="0 0 16 16" fill="none" xmlns="http://www.w3.org/2000/svg">
<path opacity="0.2" d="M13 6.00022H14.5C14.5941 6.00009 14.6862 5.97341 14.7658 5.92326C14.8454 5.8731 14.9093 5.80151 14.95 5.7167C14.9907 5.63189 15.0067 5.5373 14.9961 5.44382C14.9855 5.35034 14.9487 5.26174 14.89 5.18822L10.89 0.188223C10.8432 0.129646 10.7837 0.0823569 10.7161 0.0498594C10.6485 0.0173619 10.5745 0.000488281 10.4995 0.000488281C10.4245 0.000488281 10.3505 0.0173619 10.2829 0.0498594C10.2153 0.0823569 10.1558 0.129646 10.109 0.188223L6.109 5.18822C6.05024 5.26181 6.01345 5.35049 6.00288 5.44407C5.9923 5.53764 6.00836 5.6323 6.04922 5.71715C6.09007 5.80199 6.15406 5.87358 6.23381 5.92366C6.31356 5.97374 6.40583 6.00028 6.5 6.00022H8V10.0002H2.5C2.36739 10.0002 2.24021 10.0529 2.14645 10.1467C2.05268 10.2404 2 10.3676 2 10.5002V14.5002C2 14.6328 2.05268 14.76 2.14645 14.8538C2.24021 14.9475 2.36739 15.0002 2.5 15.0002H12.5C12.6326 15.0002 12.7598 14.9475 12.8536 14.8538C12.9473 14.76 13 14.6328 13 14.5002V6.00022Z" fill="#4F87FE"/>
<path d="M13 6.00022H14.5C14.5941 6.00009 14.6862 5.97341 14.7658 5.92326C14.8454 5.8731 14.9093 5.80151 14.95 5.7167C14.9907 5.63189 15.0067 5.5373 14.9961 5.44382C14.9855 5.35034 14.9487 5.26174 14.89 5.18822L10.89 0.188223C10.8432 0.129646 10.7837 0.0823569 10.7161 0.0498594C10.6485 0.0173619 10.5745 0.000488281 10.4995 0.000488281C10.4245 0.000488281 10.3505 0.0173619 10.2829 0.0498594C10.2153 0.0823569 10.1558 0.129646 10.109 0.188223L6.109 5.18822C6.05024 5.26181 6.01345 5.35049 6.00288 5.44407C5.9923 5.53764 6.00836 5.6323 6.04922 5.71715C6.09007 5.80199 6.15406 5.87358 6.23381 5.92366C6.31356 5.97374 6.40583 6.00028 6.5 6.00022H8V10.0002H2.5C2.36739 10.0002 2.24021 10.0529 2.14645 10.1467C2.05268 10.2404 2 10.3676 2 10.5002V14.5002C2 14.6328 2.05268 14.76 2.14645 14.8538C2.24021 14.9475 2.36739 15.0002 2.5 15.0002H12.5C12.6326 15.0002 12.7598 14.9475 12.8536 14.8538C12.9473 14.76 13 14.6328 13 14.5002V6.00022ZM12 14.0002H3V11.0002H8.5C8.63261 11.0002 8.75979 10.9475 8.85355 10.8538C8.94732 10.76 9 10.6328 9 10.5002V5.50022C9 5.36761 8.94732 5.24044 8.85355 5.14667C8.75979 5.0529 8.63261 5.00022 8.5 5.00022H7.54L10.5 1.30022L13.46 5.00022H12.5C12.3674 5.00022 12.2402 5.0529 12.1464 5.14667C12.0527 5.24044 12 5.36761 12 5.50022V14.0002Z" fill="#3B64FC"/>
</svg>
