<svg viewBox="0 0 16 16" fill="none" xmlns="http://www.w3.org/2000/svg">
<g clip-path="url(#clip0_2461_29488)">
<path opacity="0.2" d="M9 14.0002H5C3.67392 14.0002 2.40215 13.4734 1.46447 12.5358C0.526784 11.5981 0 10.3263 0 9.00022L0 5.50022C0 5.36761 0.0526784 5.24044 0.146447 5.14667C0.240215 5.0529 0.367392 5.00022 0.5 5.00022H4.5C4.63261 5.00022 4.75979 5.0529 4.85355 5.14667C4.94732 5.24044 5 5.36761 5 5.50022V9.00022C4.99984 9.70252 5.18459 10.3925 5.53567 11.0007C5.88675 11.609 6.39179 12.1141 7 12.4652C7.60821 12.1141 8.11324 11.609 8.46433 11.0007C8.81541 10.3925 9.00016 9.70252 9 9.00022V7.00022H7.5C7.40592 7.00009 7.31378 6.97341 7.23417 6.92326C7.15457 6.8731 7.09074 6.80151 7.05 6.7167C7.00927 6.63189 6.99329 6.5373 7.0039 6.44382C7.01452 6.35034 7.05129 6.26174 7.11 6.18822L11.11 1.18822C11.1568 1.12965 11.2163 1.08236 11.2839 1.04986C11.3515 1.01736 11.4255 1.00049 11.5005 1.00049C11.5755 1.00049 11.6495 1.01736 11.7171 1.04986C11.7847 1.08236 11.8442 1.12965 11.891 1.18822L15.891 6.18822C15.9498 6.26181 15.9865 6.35049 15.9971 6.44407C16.0077 6.53764 15.9916 6.6323 15.9508 6.71715C15.9099 6.80199 15.8459 6.87358 15.7662 6.92366C15.6864 6.97374 15.5942 7.00028 15.5 7.00022H14V9.00022C14 9.65683 13.8707 10.307 13.6194 10.9136C13.3681 11.5203 12.9998 12.0715 12.5355 12.5358C12.0712 13 11.52 13.3683 10.9134 13.6196C10.3068 13.8709 9.65661 14.0002 9 14.0002Z" fill="#4F87FE"/>
<path d="M9 14.0002H5C3.67392 14.0002 2.40215 13.4734 1.46447 12.5358C0.526784 11.5981 0 10.3263 0 9.00022L0 5.50022C0 5.36761 0.0526784 5.24044 0.146447 5.14667C0.240215 5.0529 0.367392 5.00022 0.5 5.00022H4.5C4.63261 5.00022 4.75979 5.0529 4.85355 5.14667C4.94732 5.24044 5 5.36761 5 5.50022V9.00022C4.99984 9.70252 5.18459 10.3925 5.53567 11.0007C5.88675 11.609 6.39179 12.1141 7 12.4652C7.60821 12.1141 8.11324 11.609 8.46433 11.0007C8.81541 10.3925 9.00016 9.70252 9 9.00022V7.00022H7.5C7.40592 7.00009 7.31378 6.97341 7.23417 6.92326C7.15457 6.8731 7.09074 6.80151 7.05 6.7167C7.00927 6.63189 6.99329 6.5373 7.0039 6.44382C7.01452 6.35034 7.05129 6.26174 7.11 6.18822L11.11 1.18822C11.1568 1.12965 11.2163 1.08236 11.2839 1.04986C11.3515 1.01736 11.4255 1.00049 11.5005 1.00049C11.5755 1.00049 11.6495 1.01736 11.7171 1.04986C11.7847 1.08236 11.8442 1.12965 11.891 1.18822L15.891 6.18822C15.9498 6.26181 15.9865 6.35049 15.9971 6.44407C16.0077 6.53764 15.9916 6.6323 15.9508 6.71715C15.9099 6.80199 15.8459 6.87358 15.7662 6.92366C15.6864 6.97374 15.5942 7.00028 15.5 7.00022H14V9.00022C14 9.65683 13.8707 10.307 13.6194 10.9136C13.3681 11.5203 12.9998 12.0715 12.5355 12.5358C12.0712 13 11.52 13.3683 10.9134 13.6196C10.3068 13.8709 9.65661 14.0002 9 14.0002ZM9 13.0002C10.0609 13.0002 11.0783 12.5788 11.8284 11.8287C12.5786 11.0785 13 10.0611 13 9.00022V6.50022C13 6.36761 13.0527 6.24044 13.1464 6.14667C13.2402 6.0529 13.3674 6.00022 13.5 6.00022H14.46L11.5 2.30022L8.54 6.00022H9.5C9.63261 6.00022 9.75979 6.0529 9.85355 6.14667C9.94732 6.24044 10 6.36761 10 6.50022V9.00022C9.99953 9.74922 9.8308 10.4885 9.50626 11.1636C9.18173 11.8386 8.70968 12.4321 8.125 12.9002C8.41212 12.9655 8.70555 12.9991 9 13.0002ZM4 9.00022V6.00022H1V9.00022C1.00047 9.59958 1.13562 10.1912 1.39546 10.7313C1.65531 11.2714 2.0332 11.7462 2.50122 12.1206C2.96924 12.495 3.51541 12.7594 4.09937 12.8944C4.68334 13.0293 5.29016 13.0313 5.875 12.9002C5.29032 12.4321 4.81827 11.8386 4.49374 11.1636C4.1692 10.4885 4.00047 9.74922 4 9.00022Z" fill="#3B64FC"/>
</g>
<defs>
<clipPath id="clip0_2461_29488">
<rect width="16" height="16" fill="white"/>
</clipPath>
</defs>
</svg>
