<svg viewBox="0 0 16 16" fill="none" xmlns="http://www.w3.org/2000/svg">
<path opacity="0.2" d="M8 11.0001H14.5C14.6326 11.0001 14.7598 10.9474 14.8536 10.8536C14.9473 10.7598 15 10.6327 15 10.5001V5.50006C15 5.36745 14.9473 5.24028 14.8536 5.14651C14.7598 5.05274 14.6326 5.00006 14.5 5.00006H8V3.36206C7.99993 3.19049 7.95083 3.02252 7.85848 2.87793C7.76612 2.73334 7.63436 2.61816 7.47872 2.54597C7.32309 2.47377 7.15006 2.44756 6.98002 2.47044C6.80998 2.49331 6.65003 2.5643 6.519 2.67506L0.677 7.61806C0.621596 7.665 0.57708 7.72344 0.546548 7.78932C0.516016 7.85521 0.500199 7.92695 0.500199 7.99956C0.500199 8.07217 0.516016 8.14392 0.546548 8.2098C0.57708 8.27568 0.621596 8.33412 0.677 8.38106L6.519 13.3251C6.65003 13.4358 6.80998 13.5068 6.98002 13.5297C7.15006 13.5526 7.32309 13.5264 7.47872 13.4542C7.63436 13.382 7.76612 13.2668 7.85848 13.1222C7.95083 12.9776 7.99993 12.8096 8 12.6381V11.0001Z" fill="#4F87FE"/>
<path d="M8.00004 5.00006V3.36206C7.99998 3.19049 7.95088 3.02252 7.85852 2.87793C7.76617 2.73334 7.63441 2.61816 7.47877 2.54597C7.32313 2.47377 7.1501 2.44756 6.98007 2.47044C6.81003 2.49331 6.65007 2.5643 6.51904 2.67506L0.677045 7.61806C0.621641 7.665 0.577125 7.72344 0.546592 7.78932C0.51606 7.85521 0.500244 7.92695 0.500244 7.99956C0.500244 8.07217 0.51606 8.14392 0.546592 8.2098C0.577125 8.27568 0.621641 8.33412 0.677045 8.38106L6.51904 13.3241C6.65001 13.4348 6.80987 13.5057 6.97982 13.5287C7.14976 13.5516 7.32272 13.5254 7.47832 13.4534C7.63392 13.3813 7.76569 13.2663 7.85812 13.1218C7.95055 12.9774 7.99979 12.8095 8.00004 12.6381V11.0001H14.5C14.6327 11.0001 14.7598 10.9474 14.8536 10.8536C14.9474 10.7598 15 10.6327 15 10.5001V5.50006C15 5.36745 14.9474 5.24028 14.8536 5.14651C14.7598 5.05274 14.6327 5.00006 14.5 5.00006H8.00004ZM14 10.0001H7.50004C7.36744 10.0001 7.24026 10.0527 7.14649 10.1465C7.05272 10.2403 7.00004 10.3675 7.00004 10.5001V12.4221L1.77404 8.00006L7.00004 3.57806V5.50006C7.00004 5.63267 7.05272 5.75985 7.14649 5.85361C7.24026 5.94738 7.36744 6.00006 7.50004 6.00006H14V10.0001Z" fill="#3B64FC"/>
</svg>
