<svg viewBox="0 0 16 16" fill="none" xmlns="http://www.w3.org/2000/svg">
<g clip-path="url(#clip0_2461_29474)">
<path opacity="0.2" d="M6.00005 9.00005V5.00005H5.25005C5.15295 5.00016 5.05792 4.97199 4.97656 4.91898C4.8952 4.86597 4.83104 4.79042 4.7919 4.70155C4.75277 4.61268 4.74036 4.51434 4.75619 4.41854C4.77203 4.32273 4.81541 4.23361 4.88105 4.16205L7.63105 1.16205C7.67789 1.11098 7.73484 1.0702 7.79827 1.0423C7.86171 1.01441 7.93025 1 7.99955 1C8.06885 1 8.1374 1.01441 8.20083 1.0423C8.26427 1.0702 8.32121 1.11098 8.36805 1.16205L11.1181 4.16205C11.1836 4.23355 11.227 4.32258 11.2429 4.41829C11.2587 4.514 11.2464 4.61226 11.2074 4.70109C11.1684 4.78992 11.1044 4.86549 11.0232 4.91857C10.942 4.97165 10.8471 4.99997 10.7501 5.00005H10.0001V9.00005H12.0001V8.25005C11.9999 8.15295 12.0281 8.05792 12.0811 7.97656C12.1341 7.8952 12.2097 7.83104 12.2986 7.7919C12.3874 7.75277 12.4858 7.74036 12.5816 7.75619C12.6774 7.77203 12.7665 7.81541 12.8381 7.88105L15.8381 10.6311C15.8891 10.6779 15.9299 10.7348 15.9578 10.7983C15.9857 10.8617 16.0001 10.9303 16.0001 10.9996C16.0001 11.0689 15.9857 11.1374 15.9578 11.2008C15.9299 11.2643 15.8891 11.3212 15.8381 11.3681L12.8381 14.1181C12.7666 14.1836 12.6775 14.227 12.5818 14.2429C12.4861 14.2587 12.3878 14.2464 12.299 14.2074C12.2102 14.1684 12.1346 14.1044 12.0815 14.0232C12.0285 13.942 12.0001 13.8471 12.0001 13.7501V13.0001H4.00005V13.7501C4.00016 13.8472 3.97199 13.9422 3.91898 14.0236C3.86597 14.1049 3.79042 14.1691 3.70155 14.2082C3.61268 14.2473 3.51434 14.2597 3.41854 14.2439C3.32273 14.2281 3.23361 14.1847 3.16205 14.1191L0.162054 11.3691C0.11098 11.3222 0.0702002 11.2653 0.0423029 11.2018C0.0144057 11.1384 0 11.0699 0 11.0006C0 10.9313 0.0144057 10.8627 0.0423029 10.7993C0.0702002 10.7358 0.11098 10.6789 0.162054 10.6321L3.16205 7.88205C3.23355 7.81647 3.32258 7.7731 3.41829 7.75724C3.514 7.74137 3.61226 7.75369 3.70109 7.7927C3.78992 7.83171 3.86549 7.89572 3.91857 7.97693C3.97165 8.05814 3.99997 8.15303 4.00005 8.25005V9.00005H6.00005Z" fill="#4F87FE"/>
<path d="M6.00005 9.00005V5.00005H5.25005C5.15295 5.00016 5.05792 4.97199 4.97656 4.91898C4.8952 4.86597 4.83104 4.79042 4.7919 4.70155C4.75277 4.61268 4.74036 4.51434 4.75619 4.41854C4.77203 4.32273 4.81541 4.23361 4.88105 4.16205L7.63105 1.16205C7.67789 1.11098 7.73484 1.0702 7.79827 1.0423C7.86171 1.01441 7.93025 1 7.99955 1C8.06885 1 8.1374 1.01441 8.20083 1.0423C8.26427 1.0702 8.32121 1.11098 8.36805 1.16205L11.1181 4.16205C11.1836 4.23355 11.227 4.32258 11.2429 4.41829C11.2587 4.514 11.2464 4.61226 11.2074 4.70109C11.1684 4.78992 11.1044 4.86549 11.0232 4.91857C10.942 4.97165 10.8471 4.99997 10.7501 5.00005H10.0001V9.00005H12.0001V8.25005C11.9999 8.15295 12.0281 8.05792 12.0811 7.97656C12.1341 7.8952 12.2097 7.83104 12.2986 7.7919C12.3874 7.75277 12.4858 7.74036 12.5816 7.75619C12.6774 7.77203 12.7665 7.81541 12.8381 7.88105L15.8381 10.6311C15.8891 10.6779 15.9299 10.7348 15.9578 10.7983C15.9857 10.8617 16.0001 10.9303 16.0001 10.9996C16.0001 11.0689 15.9857 11.1374 15.9578 11.2008C15.9299 11.2643 15.8891 11.3212 15.8381 11.3681L12.8381 14.1181C12.7666 14.1836 12.6775 14.227 12.5818 14.2429C12.4861 14.2587 12.3878 14.2464 12.299 14.2074C12.2102 14.1684 12.1346 14.1044 12.0815 14.0232C12.0285 13.942 12.0001 13.8471 12.0001 13.7501V13.0001H4.00005V13.7501C4.00016 13.8472 3.97199 13.9422 3.91898 14.0236C3.86597 14.1049 3.79042 14.1691 3.70155 14.2082C3.61268 14.2473 3.51434 14.2597 3.41854 14.2439C3.32273 14.2281 3.23361 14.1847 3.16205 14.1191L0.162054 11.3691C0.11098 11.3222 0.0702002 11.2653 0.0423029 11.2018C0.0144057 11.1384 0 11.0699 0 11.0006C0 10.9313 0.0144057 10.8627 0.0423029 10.7993C0.0702002 10.7358 0.11098 10.6789 0.162054 10.6321L3.16205 7.88205C3.23355 7.81647 3.32258 7.7731 3.41829 7.75724C3.514 7.74137 3.61226 7.75369 3.70109 7.7927C3.78992 7.83171 3.86549 7.89572 3.91857 7.97693C3.97165 8.05814 3.99997 8.15303 4.00005 8.25005V9.00005H6.00005ZM6.38705 4.00005H6.50005C6.63266 4.00005 6.75984 4.05273 6.85361 4.1465C6.94737 4.24027 7.00005 4.36745 7.00005 4.50005V9.50005C7.00005 9.63266 6.94737 9.75984 6.85361 9.85361C6.75984 9.94738 6.63266 10.0001 6.50005 10.0001H3.50005C3.36745 10.0001 3.24027 9.94738 3.1465 9.85361C3.05273 9.75984 3.00005 9.63266 3.00005 9.50005V9.38705L1.24005 11.0001L3.00005 12.6131V12.5001C3.00005 12.3674 3.05273 12.2403 3.1465 12.1465C3.24027 12.0527 3.36745 12.0001 3.50005 12.0001H12.5001C12.6327 12.0001 12.7598 12.0527 12.8536 12.1465C12.9474 12.2403 13.0001 12.3674 13.0001 12.5001V12.6131L14.7601 11.0001L13.0001 9.38705V9.50005C13.0001 9.63266 12.9474 9.75984 12.8536 9.85361C12.7598 9.94738 12.6327 10.0001 12.5001 10.0001H9.50005C9.36745 10.0001 9.24027 9.94738 9.1465 9.85361C9.05273 9.75984 9.00005 9.63266 9.00005 9.50005V4.50005C9.00005 4.36745 9.05273 4.24027 9.1465 4.1465C9.24027 4.05273 9.36745 4.00005 9.50005 4.00005H9.61305L8.00005 2.24005L6.38705 4.00005Z" fill="#3B64FC"/>
</g>
<defs>
<clipPath id="clip0_2461_29474">
<rect width="16" height="16" fill="white"/>
</clipPath>
</defs>
</svg>
