<svg viewBox="0 0 16 16" fill="none" xmlns="http://www.w3.org/2000/svg">
<path opacity="0.2" d="M7.5 8.00005C7.10218 8.00005 6.72064 8.15809 6.43934 8.43939C6.15804 8.7207 6 9.10223 6 9.50005V14.5001C6 14.6327 5.94732 14.7598 5.85355 14.8536C5.75979 14.9474 5.63261 15.0001 5.5 15.0001H1.5C1.36739 15.0001 1.24021 14.9474 1.14645 14.8536C1.05268 14.7598 1 14.6327 1 14.5001V9.50005C1 7.77615 1.68482 6.12285 2.90381 4.90386C4.12279 3.68487 5.77609 3.00005 7.5 3.00005H9V1.35405C9.0001 1.18306 9.04892 1.01563 9.14073 0.87137C9.23253 0.727112 9.36354 0.611993 9.51841 0.539492C9.67327 0.466991 9.84559 0.440108 10.0152 0.46199C10.1848 0.483873 10.3446 0.553616 10.476 0.663053L15.82 5.11605C15.8763 5.16298 15.9215 5.2217 15.9526 5.28805C15.9837 5.35441 15.9998 5.42678 15.9998 5.50005C15.9998 5.57332 15.9837 5.6457 15.9526 5.71205C15.9215 5.77841 15.8763 5.83713 15.82 5.88405L10.476 10.3371C10.3446 10.4465 10.1848 10.5162 10.0152 10.5381C9.84559 10.56 9.67327 10.5331 9.51841 10.4606C9.36354 10.3881 9.23253 10.273 9.14073 10.1287C9.04892 9.98448 9.0001 9.81705 9 9.64605V8.00005H7.5Z" fill="#4F87FE"/>
<path d="M7.5 8.00005C7.10218 8.00005 6.72064 8.15809 6.43934 8.43939C6.15804 8.7207 6 9.10223 6 9.50005V14.5001C6 14.6327 5.94732 14.7598 5.85355 14.8536C5.75979 14.9474 5.63261 15.0001 5.5 15.0001H1.5C1.36739 15.0001 1.24021 14.9474 1.14645 14.8536C1.05268 14.7598 1 14.6327 1 14.5001V9.50005C1 7.77615 1.68482 6.12285 2.90381 4.90386C4.12279 3.68487 5.77609 3.00005 7.5 3.00005H9V1.35405C9.0001 1.18306 9.04892 1.01563 9.14073 0.87137C9.23253 0.727112 9.36354 0.611993 9.51841 0.539492C9.67327 0.466991 9.84559 0.440108 10.0152 0.46199C10.1848 0.483873 10.3446 0.553616 10.476 0.663053L15.82 5.11605C15.8763 5.16298 15.9215 5.2217 15.9526 5.28805C15.9837 5.35441 15.9998 5.42678 15.9998 5.50005C15.9998 5.57332 15.9837 5.6457 15.9526 5.71205C15.9215 5.77841 15.8763 5.83713 15.82 5.88405L10.476 10.3371C10.3446 10.4465 10.1848 10.5162 10.0152 10.5381C9.84559 10.56 9.67327 10.5331 9.51841 10.4606C9.36354 10.3881 9.23253 10.273 9.14073 10.1287C9.04892 9.98448 9.0001 9.81705 9 9.64605V8.00005H7.5ZM10 3.50005C10 3.63266 9.94732 3.75984 9.85355 3.85361C9.75979 3.94737 9.63261 4.00005 9.5 4.00005H7.5C6.04131 4.00005 4.64236 4.57952 3.61091 5.61097C2.57946 6.64242 2 8.04136 2 9.50005V14.0001H5V9.50005C5 8.83701 5.26339 8.20113 5.73223 7.73229C6.20107 7.26345 6.83696 7.00005 7.5 7.00005H9.5C9.63261 7.00005 9.75979 7.05273 9.85355 7.1465C9.94732 7.24027 10 7.36744 10 7.50005V9.43205L14.719 5.50005L10 1.56805V3.50005Z" fill="#3B64FC"/>
</svg>
