<svg viewBox="0 0 16 16" fill="none" xmlns="http://www.w3.org/2000/svg">
<g clip-path="url(#clip0_2461_29498)">
<path opacity="0.2" d="M4.79292 8.5L0.145918 3.854C0.0758114 3.78407 0.0280469 3.6949 0.00868009 3.59779C-0.0106867 3.50068 -0.000783589 3.40001 0.0371339 3.30854C0.0750515 3.21706 0.139276 3.13891 0.221665 3.08398C0.304054 3.02905 0.400898 2.99982 0.499918 3H10.4999C10.5656 2.99988 10.6307 3.01272 10.6914 3.03777C10.7522 3.06282 10.8074 3.0996 10.8539 3.146L15.8539 8.146C15.9477 8.23976 16.0003 8.36692 16.0003 8.4995C16.0003 8.63208 15.9477 8.75924 15.8539 8.853L10.8539 13.853C10.8075 13.8996 10.7523 13.9365 10.6916 13.9618C10.6308 13.987 10.5657 14 10.4999 14H0.499918C0.400898 14.0002 0.304054 13.9709 0.221665 13.916C0.139276 13.8611 0.0750515 13.7829 0.0371339 13.6915C-0.000783589 13.6 -0.0106867 13.4993 0.00868009 13.4022C0.0280469 13.3051 0.0758114 13.2159 0.145918 13.146L4.79292 8.5Z" fill="#4F87FE"/>
<path d="M4.79292 8.5L0.145918 3.854C0.0758114 3.78407 0.0280469 3.6949 0.00868009 3.59779C-0.0106867 3.50068 -0.000783589 3.40001 0.0371339 3.30854C0.0750515 3.21706 0.139276 3.13891 0.221665 3.08398C0.304054 3.02905 0.400898 2.99982 0.499918 3H10.4999C10.5656 2.99988 10.6307 3.01272 10.6914 3.03777C10.7522 3.06282 10.8074 3.0996 10.8539 3.146L15.8539 8.146C15.9477 8.23976 16.0003 8.36692 16.0003 8.4995C16.0003 8.63208 15.9477 8.75924 15.8539 8.853L10.8539 13.853C10.8075 13.8996 10.7523 13.9365 10.6916 13.9618C10.6308 13.987 10.5657 14 10.4999 14H0.499918C0.400898 14.0002 0.304054 13.9709 0.221665 13.916C0.139276 13.8611 0.0750515 13.7829 0.0371339 13.6915C-0.000783589 13.6 -0.0106867 13.4993 0.00868009 13.4022C0.0280469 13.3051 0.0758114 13.2159 0.145918 13.146L4.79292 8.5ZM1.70692 4L5.85392 8.146C5.94765 8.23976 6.00031 8.36692 6.00031 8.4995C6.00031 8.63208 5.94765 8.75924 5.85392 8.853L1.70692 13H10.2929L14.7929 8.5L10.2929 4H1.70692Z" fill="#3B64FC"/>
</g>
<defs>
<clipPath id="clip0_2461_29498">
<rect width="16" height="16" fill="white"/>
</clipPath>
</defs>
</svg>
