<svg viewBox="0 0 16 16" fill="none" xmlns="http://www.w3.org/2000/svg">
<g clip-path="url(#clip0_2461_29621)">
<path opacity="0.2" d="M6 9L0.900002 15.8C0.820437 15.9061 0.701988 15.9762 0.570713 15.995C0.439437 16.0137 0.306089 15.9796 0.200002 15.9C0.0939154 15.8204 0.0237809 15.702 0.0050273 15.5707C-0.0137263 15.4394 0.0204371 15.3061 0.100002 15.2L6 7.333V1.5C6 1.36739 6.05268 1.24021 6.14645 1.14645C6.24022 1.05268 6.36739 1 6.5 1H15.5C15.6326 1 15.7598 1.05268 15.8536 1.14645C15.9473 1.24021 16 1.36739 16 1.5V13.5C16 13.6326 15.9473 13.7598 15.8536 13.8536C15.7598 13.9473 15.6326 14 15.5 14H6.5C6.36739 14 6.24022 13.9473 6.14645 13.8536C6.05268 13.7598 6 13.6326 6 13.5V9Z" fill="#4F87FE"/>
<path fill-rule="evenodd" clip-rule="evenodd" d="M7 13H15V2H7V13ZM0.100002 15.2C0.0204371 15.3061 -0.0137263 15.4394 0.0050273 15.5707C0.0237809 15.702 0.0939154 15.8204 0.200002 15.9C0.306089 15.9796 0.439437 16.0137 0.570713 15.995C0.701988 15.9762 0.820437 15.9061 0.900002 15.8L6 9V13.5C6 13.6326 6.05268 13.7598 6.14645 13.8536C6.24022 13.9473 6.36739 14 6.5 14H15.5C15.6326 14 15.7598 13.9473 15.8536 13.8536C15.9473 13.7598 16 13.6326 16 13.5V1.5C16 1.36739 15.9473 1.24021 15.8536 1.14645C15.7598 1.05268 15.6326 1 15.5 1H6.5C6.36739 1 6.24022 1.05268 6.14645 1.14645C6.05268 1.24021 6 1.36739 6 1.5V7.333L0.100002 15.2C0.0999732 15.2 0.100031 15.2 0.100002 15.2Z" fill="#3B64FC"/>
</g>
<defs>
<clipPath id="clip0_2461_29621">
<rect width="16" height="16" fill="white"/>
</clipPath>
</defs>
</svg>
