<svg viewBox="0 0 16 16" fill="none" xmlns="http://www.w3.org/2000/svg">
<path opacity="0.2" d="M5.99998 8H3.84698L0.967984 15.676C0.919009 15.7968 0.824824 15.8936 0.705487 15.946C0.586151 15.9983 0.451093 16.002 0.329077 15.9563C0.207062 15.9105 0.107731 15.8189 0.0522388 15.701C-0.003253 15.5831 -0.0105205 15.4482 0.031984 15.325L3.03198 7.325C3.06762 7.22962 3.13153 7.14739 3.21516 7.08931C3.29879 7.03124 3.39816 7.00008 3.49998 7H5.99998V1.5C5.99998 1.36739 6.05266 1.24021 6.14643 1.14645C6.2402 1.05268 6.36738 1 6.49998 1H15.5C15.6326 1 15.7598 1.05268 15.8535 1.14645C15.9473 1.24021 16 1.36739 16 1.5V13.5C16 13.6326 15.9473 13.7598 15.8535 13.8536C15.7598 13.9473 15.6326 14 15.5 14H6.49998C6.36738 14 6.2402 13.9473 6.14643 13.8536C6.05266 13.7598 5.99998 13.6326 5.99998 13.5V8Z" fill="#4F87FE"/>
<path fill-rule="evenodd" clip-rule="evenodd" d="M6.99998 13H15V2H6.99998V13ZM3.03643 7.31351C3.0349 7.31732 3.03341 7.32115 3.03197 7.325L0.0319921 15.3249C-0.0105125 15.4481 -0.00326521 15.5831 0.0522267 15.701C0.107719 15.8189 0.20705 15.9105 0.329065 15.9563C0.451081 16.002 0.586139 15.9983 0.705476 15.946C0.824812 15.8936 0.918998 15.7968 0.967973 15.676L3.84697 8H5.99998V13.5C5.99998 13.6326 6.05266 13.7598 6.14642 13.8536C6.24019 13.9473 6.36737 14 6.49998 14H15.5C15.6326 14 15.7598 13.9473 15.8535 13.8536C15.9473 13.7598 16 13.6326 16 13.5V1.5C16 1.36739 15.9473 1.24021 15.8535 1.14645C15.7598 1.05268 15.6326 1 15.5 1H6.49998C6.36737 1 6.24019 1.05268 6.14642 1.14645C6.05266 1.24021 5.99998 1.36739 5.99998 1.5V7H3.49997C3.39815 7.00008 3.29878 7.03124 3.21515 7.08931C3.1349 7.14505 3.07281 7.22302 3.03643 7.31351Z" fill="#3B64FC"/>
</svg>
