<svg viewBox="0 0 16 16" fill="none" xmlns="http://www.w3.org/2000/svg">
<g clip-path="url(#clip0_2461_29627)">
<path opacity="0.45" d="M15.5 1H9.5C9.22386 1 9 1.22386 9 1.5V13.5C9 13.7761 9.22386 14 9.5 14H15.5C15.7761 14 16 13.7761 16 13.5V1.5C16 1.22386 15.7761 1 15.5 1Z" fill="#4F87FE"/>
<path d="M0.5 16C0.407144 16 0.316123 15.9741 0.237135 15.9253C0.158147 15.8765 0.0943131 15.8067 0.0527866 15.7236C0.0112602 15.6406 -0.00631841 15.5476 0.00202058 15.4551C0.0103596 15.3626 0.0442867 15.2743 0.1 15.2L6 7.333V1.5C6 1.36739 6.05268 1.24021 6.14645 1.14645C6.24021 1.05268 6.36739 1 6.5 1C6.63261 1 6.75979 1.05268 6.85355 1.14645C6.94732 1.24021 7 1.36739 7 1.5V13.5C7 13.6326 6.94732 13.7598 6.85355 13.8536C6.75979 13.9473 6.63261 14 6.5 14C6.36739 14 6.24021 13.9473 6.14645 13.8536C6.05268 13.7598 6 13.6326 6 13.5V9L0.9 15.8C0.853427 15.8621 0.793035 15.9125 0.723607 15.9472C0.654179 15.9819 0.577623 16 0.5 16Z" fill="#3B64FC"/>
</g>
<defs>
<clipPath id="clip0_2461_29627">
<rect width="16" height="16" fill="white"/>
</clipPath>
</defs>
</svg>
