<svg viewBox="0 0 16 16" fill="none" xmlns="http://www.w3.org/2000/svg">
<g clip-path="url(#clip0_2461_29642)">
<path opacity="0.45" d="M15.5 0H6.5C6.22386 0 6 0.223858 6 0.5V12.5C6 12.7761 6.22386 13 6.5 13H15.5C15.7761 13 16 12.7761 16 12.5V0.5C16 0.223858 15.7761 0 15.5 0Z" fill="#4F87FE"/>
<path d="M1 6H6.5C6.63261 6 6.75979 5.94732 6.85355 5.85355C6.94732 5.75979 7 5.63261 7 5.5C7 5.36739 6.94732 5.24021 6.85355 5.14645C6.75979 5.05268 6.63261 5 6.5 5H0.500001C0.367393 5 0.240216 5.05268 0.146447 5.14645C0.0526792 5.24021 7.97493e-07 5.36739 7.97493e-07 5.5V11.5C-0.00011655 11.5657 0.0127175 11.6308 0.0377692 11.6915C0.0628209 11.7523 0.099599 11.8075 0.146001 11.854L4.146 15.854C4.2403 15.9451 4.3666 15.9955 4.4977 15.9943C4.6288 15.9932 4.75421 15.9406 4.84691 15.8479C4.93961 15.7552 4.9922 15.6298 4.99334 15.4987C4.99448 15.3676 4.94408 15.2413 4.853 15.147L1 11.293V6Z" fill="#3B64FC"/>
</g>
<defs>
<clipPath id="clip0_2461_29642">
<rect width="16" height="16" fill="white"/>
</clipPath>
</defs>
</svg>
