<svg viewBox="0 0 16 16" fill="none" xmlns="http://www.w3.org/2000/svg">
<g clip-path="url(#clip0_2461_29619)">
<path opacity="0.2" d="M5.31468 15.1303C5.06655 15.156 4.88002 15.151 4.67898 15.0677C4.47793 14.9844 4.30611 14.8434 4.18524 14.6624C4.06438 14.4815 3.99991 14.2687 3.99998 14.0511V12.9731C3.15873 12.8792 2.36102 12.5499 1.69847 12.0231C1.03592 11.4963 0.535388 10.7933 0.254369 9.99482C-0.0266494 9.19635 -0.0767627 8.33482 0.109785 7.50915C0.296332 6.68349 0.711975 5.92719 1.30898 5.3271C1.01386 4.72923 0.92633 4.05008 1.0602 3.39691C1.19407 2.74374 1.54171 2.15378 2.04822 1.7202C2.55473 1.28662 3.19125 1.03413 3.85725 1.0026C4.52325 0.971075 5.18077 1.16231 5.72598 1.5461C6.80143 0.996877 8.03931 0.855422 9.21094 1.14787C10.3826 1.44032 11.4088 2.14691 12.1 3.1371C12.727 2.93957 13.4016 2.95349 14.02 3.17671C14.6384 3.39994 15.1663 3.82011 15.5226 4.37262C15.8789 4.92514 16.0438 5.57939 15.992 6.23478C15.9403 6.89017 15.6746 7.5104 15.236 8.0001C15.71 8.52969 15.9805 9.21036 15.9995 9.92084C16.0184 10.6313 15.7845 11.3254 15.3394 11.8795C14.8944 12.4336 14.267 12.8117 13.5692 12.9464C12.8713 13.0812 12.1483 12.9637 11.529 12.6151C11.1562 13.2007 10.5918 13.639 9.93203 13.855C9.27228 14.0711 8.55801 14.0517 7.91098 13.8001L5.99915 14.8944C5.99915 14.8944 5.5959 15.1012 5.31468 15.1303Z" fill="#4F87FE"/>
<path fill-rule="evenodd" clip-rule="evenodd" d="M4.99998 14.0514C4.99997 14.0712 5.00583 14.0906 5.01682 14.107C5.02748 14.123 5.04249 14.1355 5.06006 14.1432C5.06039 14.1432 5.06074 14.1432 5.06112 14.1432C5.07582 14.1445 5.11529 14.1456 5.21165 14.1356C5.20966 14.1358 5.21142 14.1354 5.21682 14.1339C5.23466 14.129 5.29223 14.1131 5.38543 14.0752C5.43339 14.0557 5.47603 14.0364 5.50628 14.0222C5.51489 14.0182 5.52226 14.0146 5.52821 14.0117L7.8285 12.6951L8.2734 12.8681C8.70476 13.0358 9.18094 13.0488 9.62077 12.9047C10.0606 12.7607 10.4369 12.4685 10.6854 12.0781L11.1941 11.279L12.0195 11.7437C12.4324 11.9761 12.9144 12.0544 13.3796 11.9646C13.8449 11.8748 14.2631 11.6227 14.5598 11.2533C14.8565 10.8839 15.0125 10.4211 14.9998 9.9475C14.9872 9.47385 14.8068 9.02007 14.4908 8.66701L13.8937 7.99983L14.4911 7.3329C14.7835 7.00643 14.9606 6.59294 14.9951 6.15601C15.0297 5.71909 14.9197 5.28292 14.6822 4.91458C14.4446 4.54624 14.0927 4.26612 13.6804 4.1173C13.2682 3.96849 12.8185 3.95921 12.4004 4.0909L11.7002 4.31148L11.28 3.70949C10.727 2.91733 9.90607 2.35206 8.96876 2.1181C8.03146 1.88414 7.04115 1.99731 6.18079 2.43669L5.6436 2.71103L5.15035 2.36382C4.78688 2.10795 4.34853 1.98047 3.90454 2.00148C3.46054 2.0225 3.03619 2.19083 2.69852 2.47988C2.36084 2.76894 2.12908 3.16224 2.03983 3.59769C1.95059 4.03313 2.00895 4.4859 2.20569 4.88448L2.52212 5.52556L2.0179 6.03238C1.55357 6.49912 1.23029 7.08736 1.0852 7.72954C0.940106 8.37172 0.979083 9.0418 1.19765 9.66283C1.41622 10.2839 1.80552 10.8306 2.32084 11.2404C2.83616 11.6501 3.4566 11.9062 4.1109 11.9793L4.99998 12.0785V14.0514ZM3.99998 14.0511C3.99991 14.2687 4.06438 14.4815 4.18524 14.6624C4.30611 14.8434 4.47793 14.9844 4.67898 15.0677C4.88002 15.151 5.06655 15.156 5.31468 15.1303C5.5959 15.1012 5.99915 14.8944 5.99915 14.8944L7.91098 13.8001C8.55801 14.0517 9.27228 14.0711 9.93203 13.855C10.5918 13.639 11.1562 13.2007 11.529 12.6151C12.1483 12.9637 12.8713 13.0812 13.5692 12.9464C14.267 12.8117 14.8944 12.4336 15.3394 11.8795C15.7845 11.3254 16.0184 10.6313 15.9995 9.92084C15.9805 9.21036 15.71 8.52969 15.236 8.0001C15.6746 7.5104 15.9403 6.89017 15.992 6.23478C16.0438 5.57939 15.8789 4.92514 15.5226 4.37262C15.1663 3.82011 14.6384 3.39994 14.02 3.17671C13.4016 2.95349 12.727 2.93957 12.1 3.1371C11.4088 2.14691 10.3826 1.44032 9.21094 1.14787C8.03931 0.855422 6.80143 0.996877 5.72598 1.5461C5.18077 1.16231 4.52325 0.971075 3.85725 1.0026C3.19125 1.03413 2.55473 1.28662 2.04822 1.7202C1.54171 2.15378 1.19407 2.74374 1.0602 3.39691C0.92633 4.05008 1.01386 4.72923 1.30898 5.3271C0.711975 5.92719 0.296332 6.68349 0.109785 7.50915C-0.0767627 8.33482 -0.0266494 9.19635 0.254369 9.99482C0.535388 10.7933 1.03592 11.4963 1.69847 12.0231C2.36102 12.5499 3.15873 12.8792 3.99998 12.9731V14.0511Z" fill="#3B64FC"/>
</g>
<defs>
<clipPath id="clip0_2461_29619">
<rect width="16" height="16" fill="white"/>
</clipPath>
</defs>
</svg>
