<svg viewBox="0 0 16 16" fill="none" xmlns="http://www.w3.org/2000/svg">
<g clip-path="url(#clip0_2461_29636)">
<path opacity="0.45" d="M15.5 1H6.5C6.22386 1 6 1.22386 6 1.5V13.5C6 13.7761 6.22386 14 6.5 14H15.5C15.7761 14 16 13.7761 16 13.5V1.5C16 1.22386 15.7761 1 15.5 1Z" fill="#4F87FE"/>
<path d="M6.1 7.2L0.100002 15.2C0.0204371 15.3061 -0.0137263 15.4394 0.0050273 15.5707C0.0237809 15.702 0.0939154 15.8204 0.200002 15.9C0.306089 15.9796 0.439437 16.0137 0.570713 15.995C0.701988 15.9762 0.820437 15.9061 0.900002 15.8L6.9 7.8C6.97957 7.69392 7.01373 7.56057 6.99498 7.42929C6.97622 7.29802 6.90609 7.17957 6.8 7.1C6.69392 7.02044 6.56057 6.98627 6.42929 7.00503C6.29802 7.02378 6.17957 7.09392 6.1 7.2Z" fill="#3B64FC"/>
</g>
<defs>
<clipPath id="clip0_2461_29636">
<rect width="16" height="16" fill="white"/>
</clipPath>
</defs>
</svg>
