<svg viewBox="0 0 16 16" fill="none" xmlns="http://www.w3.org/2000/svg">
<path opacity="0.2" d="M8.707 13L5.878 14.829C5.72416 14.9829 5.52813 15.0877 5.3147 15.1302C5.10127 15.1727 4.88004 15.1509 4.679 15.0676C4.47796 14.9843 4.30613 14.8433 4.18527 14.6623C4.0644 14.4814 3.99993 14.2686 4 14.051V13H3.5C2.57174 13 1.6815 12.6313 1.02513 11.9749C0.368749 11.3185 0 10.4283 0 9.5L0 5.5C0 4.57174 0.368749 3.6815 1.02513 3.02513C1.6815 2.36875 2.57174 2 3.5 2H12.5C13.4283 2 14.3185 2.36875 14.9749 3.02513C15.6313 3.6815 16 4.57174 16 5.5V9.5C16 10.4283 15.6313 11.3185 14.9749 11.9749C14.3185 12.6313 13.4283 13 12.5 13H8.707Z" fill="#4F87FE"/>
<path fill-rule="evenodd" clip-rule="evenodd" d="M8.41189 12H12.5C13.163 12 13.7989 11.7366 14.2678 11.2678C14.7366 10.7989 15 10.163 15 9.5V5.5C15 4.83696 14.7366 4.20107 14.2678 3.73223C13.7989 3.26339 13.163 3 12.5 3H3.5C2.83696 3 2.20107 3.26339 1.73223 3.73223C1.26339 4.20107 1 4.83696 1 5.5V9.5C1 10.163 1.26339 10.7989 1.73223 11.2678C2.20107 11.7366 2.83696 12 3.5 12H5V14.051C4.99999 14.0708 5.00586 14.0905 5.01684 14.1069C5.02783 14.1234 5.04345 14.1362 5.06173 14.1438C5.08001 14.1513 5.10012 14.1533 5.11952 14.1494C5.13892 14.1456 5.15674 14.1361 5.17073 14.1221L5.24584 14.0469L8.41189 12ZM4 14.051C3.99993 14.2686 4.0644 14.4814 4.18527 14.6623C4.30613 14.8433 4.47796 14.9843 4.679 15.0676C4.88004 15.1509 5.10127 15.1727 5.3147 15.1302C5.52813 15.0877 5.72416 14.9829 5.878 14.829L8.707 13H12.5C13.4283 13 14.3185 12.6313 14.9749 11.9749C15.6313 11.3185 16 10.4283 16 9.5V5.5C16 4.57174 15.6313 3.6815 14.9749 3.02513C14.3185 2.36875 13.4283 2 12.5 2H3.5C2.57174 2 1.6815 2.36875 1.02513 3.02513C0.368749 3.6815 0 4.57174 0 5.5V9.5C0 10.4283 0.368749 11.3185 1.02513 11.9749C1.6815 12.6313 2.57174 13 3.5 13H4V14.051Z" fill="#3B64FC"/>
</svg>
