<svg viewBox="0 0 16 16" fill="none" xmlns="http://www.w3.org/2000/svg">
<path opacity="0.2" d="M1.5 1H14.5C14.8978 1 15.2794 1.15804 15.5607 1.43934C15.842 1.72064 16 2.10218 16 2.5V13.5C16 13.8978 15.842 14.2794 15.5607 14.5607C15.2794 14.842 14.8978 15 14.5 15H1.5C1.10218 15 0.720644 14.842 0.43934 14.5607C0.158035 14.2794 0 13.8978 0 13.5L0 2.5C0 2.10218 0.158035 1.72064 0.43934 1.43934C0.720644 1.15804 1.10218 1 1.5 1Z" fill="#4F87FE"/>
<path d="M6.3 7L5.5 4.9L4.7 7H6.3ZM4.321 8L3.967 8.928C3.94506 8.99123 3.91064 9.04941 3.8658 9.0991C3.82095 9.14878 3.76659 9.18895 3.70593 9.21724C3.64527 9.24552 3.57955 9.26134 3.51267 9.26375C3.44578 9.26617 3.37909 9.25513 3.31655 9.23129C3.25401 9.20745 3.1969 9.1713 3.14859 9.12498C3.10028 9.07866 3.06176 9.02311 3.03531 8.96163C3.00887 8.90014 2.99504 8.83398 2.99464 8.76705C2.99425 8.70012 3.00729 8.63379 3.033 8.572L4.659 4.3C4.72395 4.12957 4.83915 3.98289 4.98934 3.8794C5.13953 3.77591 5.31761 3.7205 5.5 3.7205C5.68239 3.7205 5.86047 3.77591 6.01066 3.8794C6.16085 3.98289 6.27605 4.12957 6.341 4.3L7.967 8.572C7.99271 8.63379 8.00576 8.70012 8.00536 8.76705C8.00496 8.83398 7.99113 8.90014 7.96469 8.96163C7.93824 9.02311 7.89972 9.07866 7.85141 9.12498C7.8031 9.1713 7.74599 9.20745 7.68345 9.23129C7.62091 9.25513 7.55422 9.26617 7.48733 9.26375C7.42045 9.26134 7.35473 9.24552 7.29407 9.21724C7.23341 9.18895 7.17905 9.14878 7.1342 9.0991C7.08936 9.04941 7.05494 8.99123 7.033 8.928L6.679 8H4.321ZM1.5 1H14.5C14.8978 1 15.2794 1.15804 15.5607 1.43934C15.842 1.72064 16 2.10218 16 2.5V13.5C16 13.8978 15.842 14.2794 15.5607 14.5607C15.2794 14.842 14.8978 15 14.5 15H1.5C1.10218 15 0.720644 14.842 0.43934 14.5607C0.158035 14.2794 0 13.8978 0 13.5L0 2.5C0 2.10218 0.158035 1.72064 0.43934 1.43934C0.720644 1.15804 1.10218 1 1.5 1ZM1.5 2C1.36739 2 1.24021 2.05268 1.14645 2.14645C1.05268 2.24021 1 2.36739 1 2.5V13.5C1 13.6326 1.05268 13.7598 1.14645 13.8536C1.24021 13.9473 1.36739 14 1.5 14H14.5C14.6326 14 14.7598 13.9473 14.8536 13.8536C14.9473 13.7598 15 13.6326 15 13.5V2.5C15 2.36739 14.9473 2.24021 14.8536 2.14645C14.7598 2.05268 14.6326 2 14.5 2H1.5ZM3.5 11H12.5C12.6326 11 12.7598 11.0527 12.8536 11.1464C12.9473 11.2402 13 11.3674 13 11.5C13 11.6326 12.9473 11.7598 12.8536 11.8536C12.7598 11.9473 12.6326 12 12.5 12H3.5C3.36739 12 3.24021 11.9473 3.14645 11.8536C3.05268 11.7598 3 11.6326 3 11.5C3 11.3674 3.05268 11.2402 3.14645 11.1464C3.24021 11.0527 3.36739 11 3.5 11ZM9.5 8H12.5C12.6326 8 12.7598 8.05268 12.8536 8.14645C12.9473 8.24021 13 8.36739 13 8.5C13 8.63261 12.9473 8.75979 12.8536 8.85355C12.7598 8.94732 12.6326 9 12.5 9H9.5C9.36739 9 9.24021 8.94732 9.14645 8.85355C9.05268 8.75979 9 8.63261 9 8.5C9 8.36739 9.05268 8.24021 9.14645 8.14645C9.24021 8.05268 9.36739 8 9.5 8ZM9.5 6C9.36739 6 9.24021 5.94732 9.14645 5.85355C9.05268 5.75979 9 5.63261 9 5.5C9 5.36739 9.05268 5.24021 9.14645 5.14645C9.24021 5.05268 9.36739 5 9.5 5H12.5C12.6326 5 12.7598 5.05268 12.8536 5.14645C12.9473 5.24021 13 5.36739 13 5.5C13 5.63261 12.9473 5.75979 12.8536 5.85355C12.7598 5.94732 12.6326 6 12.5 6H9.5Z" fill="#3B64FC"/>
</svg>
