<svg viewBox="0 0 16 16" fill="none" xmlns="http://www.w3.org/2000/svg">
<path opacity="0.2" fill-rule="evenodd" clip-rule="evenodd" d="M0 8C0 8.08973 0.0238508 8.17781 0.0690504 8.255L3.87156 14.755C3.91527 14.8296 3.97741 14.8915 4.05187 14.9344C4.12633 14.9774 4.21056 15 4.29626 15H11.7037C11.7894 15 11.8737 14.9774 11.9481 14.9344C12.0226 14.8915 12.0847 14.8296 12.1284 14.755L15.931 8.255C15.9762 8.17781 16 8.08973 16 8C16 7.91027 15.9762 7.82219 15.931 7.745L12.1284 1.245C12.0847 1.17036 12.0226 1.10852 11.9481 1.06557C11.8737 1.02261 11.7894 1.00002 11.7037 1H4.29626C4.21056 1.00002 4.12633 1.02261 4.05187 1.06557C3.97741 1.10852 3.91527 1.17036 3.87156 1.245L0.0690504 7.745C0.0238508 7.82219 0 7.91027 0 8Z" fill="#4F87FE"/>
<path fill-rule="evenodd" clip-rule="evenodd" d="M0.0690504 8.255L3.87156 14.755C3.91527 14.8296 3.97741 14.8915 4.05187 14.9344C4.12633 14.9774 4.21056 15 4.29626 15H11.7037C11.7894 15 11.8737 14.9774 11.9481 14.9344C12.0226 14.8915 12.0847 14.8296 12.1284 14.755L15.931 8.255C15.9762 8.17781 16 8.08973 16 8C16 7.91027 15.9762 7.82219 15.931 7.745L12.1284 1.245C12.0847 1.17036 12.0226 1.10852 11.9481 1.06557C11.8737 1.02261 11.7894 1.00002 11.7037 1H4.29626C4.21056 1.00002 4.12633 1.02261 4.05187 1.06557C3.97741 1.10852 3.91527 1.17036 3.87156 1.245L0.0690504 7.745C0.0238508 7.82219 0 7.91027 0 8C0 8.08973 0.0238508 8.17781 0.0690504 8.255ZM4.58843 2L1.07842 8L4.58843 14H11.4116L14.9216 8L11.4116 2H4.58843Z" fill="#3B64FC"/>
<path d="M7 6.5C7 6.63261 6.94732 6.75979 6.85355 6.85355C6.75979 6.94732 6.63261 7 6.5 7C6.36739 7 6.24021 6.94732 6.14645 6.85355C6.05268 6.75979 6 6.63261 6 6.5V5.5C6 5.36739 6.05268 5.24021 6.14645 5.14645C6.24021 5.05268 6.36739 5 6.5 5H9.5C9.63261 5 9.75979 5.05268 9.85355 5.14645C9.94732 5.24021 10 5.36739 10 5.5V6.5C9.99999 6.57777 9.98185 6.65447 9.947 6.724L7.947 10.724C7.88533 10.8384 7.78156 10.9242 7.65767 10.9634C7.53379 11.0026 7.39952 10.992 7.2833 10.9339C7.16709 10.8758 7.07806 10.7747 7.03507 10.6521C6.99208 10.5295 6.99851 10.395 7.053 10.277L9 6.382V6H7V6.5Z" fill="#2453DE"/>
</svg>
