<svg viewBox="0 0 16 16" fill="none" xmlns="http://www.w3.org/2000/svg">
<g clip-path="url(#clip0_2461_29548)">
<path opacity="0.2" d="M8.00012 8.0002H15.4841C15.5527 8.00005 15.6205 8.01399 15.6834 8.04116C15.7463 8.06832 15.803 8.10813 15.8499 8.15812C15.8968 8.2081 15.9329 8.26719 15.956 8.33171C15.9791 8.39624 15.9886 8.46482 15.9841 8.5332C15.8816 10.0665 15.3396 11.5378 14.4229 12.7712C13.5063 14.0047 12.2538 14.948 10.8152 15.4884C9.37659 16.0287 7.8128 16.1434 6.31079 15.8185C4.80879 15.4937 3.43213 14.7431 2.34543 13.6565C1.25873 12.5699 0.507983 11.1934 0.182948 9.69139C-0.142086 8.18942 -0.0276486 6.62562 0.512578 5.18697C1.0528 3.74832 1.99596 2.49571 3.22926 1.57892C4.46256 0.662122 5.93382 0.119941 7.46712 0.0172035C7.53542 0.0126859 7.60392 0.0222398 7.66837 0.0452734C7.73283 0.0683069 7.79187 0.10433 7.84184 0.15111C7.89181 0.19789 7.93164 0.254432 7.95886 0.317233C7.98609 0.380033 8.00013 0.447755 8.00012 0.516203V8.0002Z" fill="#4F87FE"/>
<path d="M8.00012 8.0002H15.4841C15.5527 8.00005 15.6205 8.01399 15.6834 8.04116C15.7463 8.06832 15.803 8.10813 15.8499 8.15812C15.8968 8.2081 15.9329 8.26719 15.956 8.33171C15.9791 8.39624 15.9886 8.46482 15.9841 8.5332C15.8816 10.0665 15.3396 11.5378 14.4229 12.7712C13.5063 14.0047 12.2538 14.948 10.8152 15.4884C9.37659 16.0287 7.8128 16.1434 6.31079 15.8185C4.80879 15.4937 3.43213 14.7431 2.34543 13.6565C1.25873 12.5699 0.507983 11.1934 0.182948 9.69139C-0.142086 8.18942 -0.0276486 6.62562 0.512578 5.18697C1.0528 3.74832 1.99596 2.49571 3.22926 1.57892C4.46256 0.662122 5.93382 0.119941 7.46712 0.0172035C7.53542 0.0126859 7.60392 0.0222398 7.66837 0.0452734C7.73283 0.0683069 7.79187 0.10433 7.84184 0.15111C7.89181 0.19789 7.93164 0.254432 7.95886 0.317233C7.98609 0.380033 8.00013 0.447755 8.00012 0.516203V8.0002ZM1.00012 8.0002C0.998716 9.77091 1.66842 11.4763 2.87432 12.773C4.08022 14.0696 5.7327 14.861 7.49886 14.9878C9.26502 15.1146 11.0136 14.5673 12.3924 13.4563C13.7711 12.3452 14.6776 10.7529 14.9291 9.0002H7.50012C7.36751 9.0002 7.24033 8.94753 7.14657 8.85376C7.0528 8.75999 7.00012 8.63281 7.00012 8.5002V1.0712C5.33399 1.31169 3.81032 2.14454 2.70836 3.41713C1.60639 4.68972 0.999928 6.31681 1.00012 8.0002Z" fill="#3B64FC"/>
</g>
<defs>
<clipPath id="clip0_2461_29548">
<rect width="16" height="16" fill="white"/>
</clipPath>
</defs>
</svg>
