<svg viewBox="0 0 16 16" fill="none" xmlns="http://www.w3.org/2000/svg">
<path opacity="0.2" d="M5 5V11.5C5.00012 11.5657 4.98728 11.6308 4.96223 11.6915C4.93718 11.7523 4.9004 11.8075 4.854 11.854L1.854 14.854C1.78407 14.9241 1.6949 14.9719 1.59779 14.9912C1.50068 15.0106 1.40001 15.0007 1.30854 14.9628C1.21706 14.9249 1.13891 14.8606 1.08398 14.7783C1.02905 14.6959 0.999824 14.599 1 14.5V2.5C1 2.10218 1.15804 1.72065 1.43934 1.43934C1.72065 1.15804 2.10218 1 2.5 1H14.5C14.599 0.999824 14.6959 1.02905 14.7783 1.08398C14.8606 1.13891 14.9249 1.21706 14.9628 1.30854C15.0007 1.40001 15.0106 1.50068 14.9912 1.59779C14.9719 1.6949 14.9241 1.78407 14.854 1.854L11.854 4.854C11.8075 4.9004 11.7523 4.93718 11.6915 4.96223C11.6308 4.98728 11.5657 5.00012 11.5 5H5Z" fill="#4F87FE"/>
<path d="M5 5V11.5C5.00012 11.5657 4.98728 11.6308 4.96223 11.6915C4.93718 11.7523 4.9004 11.8075 4.854 11.854L1.854 14.854C1.78407 14.9241 1.6949 14.9719 1.59779 14.9912C1.50068 15.0106 1.40001 15.0007 1.30854 14.9628C1.21706 14.9249 1.13891 14.8606 1.08398 14.7783C1.02905 14.6959 0.999824 14.599 1 14.5V2.5C1 2.10218 1.15804 1.72065 1.43934 1.43934C1.72065 1.15804 2.10218 1 2.5 1H14.5C14.599 0.999824 14.6959 1.02905 14.7783 1.08398C14.8606 1.13891 14.9249 1.21706 14.9628 1.30854C15.0007 1.40001 15.0106 1.50068 14.9912 1.59779C14.9719 1.6949 14.9241 1.78407 14.854 1.854L11.854 4.854C11.8075 4.9004 11.7523 4.93718 11.6915 4.96223C11.6308 4.98728 11.5657 5.00012 11.5 5H5ZM13.293 2H2.5C2.36739 2 2.24022 2.05268 2.14645 2.14645C2.05268 2.24022 2 2.36739 2 2.5V13.293L4 11.293V4.5C4 4.36739 4.05268 4.24022 4.14645 4.14645C4.24022 4.05268 4.36739 4 4.5 4H11.293L13.293 2Z" fill="#3B64FC"/>
</svg>
