<svg viewBox="0 0 16 16" fill="none" xmlns="http://www.w3.org/2000/svg">
<path opacity="0.2" fill-rule="evenodd" clip-rule="evenodd" d="M0 8C0 8.08973 0.0238508 8.17781 0.0690504 8.255L3.87156 14.755C3.91527 14.8296 3.97741 14.8915 4.05187 14.9344C4.12633 14.9774 4.21056 15 4.29626 15H11.7037C11.7894 15 11.8737 14.9774 11.9481 14.9344C12.0226 14.8915 12.0847 14.8296 12.1284 14.755L15.931 8.255C15.9762 8.17781 16 8.08973 16 8C16 7.91027 15.9762 7.82219 15.931 7.745L12.1284 1.245C12.0847 1.17036 12.0226 1.10852 11.9481 1.06557C11.8737 1.02261 11.7894 1.00002 11.7037 1H4.29626C4.21056 1.00002 4.12633 1.02261 4.05187 1.06557C3.97741 1.10852 3.91527 1.17036 3.87156 1.245L0.0690504 7.745C0.0238508 7.82219 0 7.91027 0 8Z" fill="#4F87FE"/>
<path fill-rule="evenodd" clip-rule="evenodd" d="M0.0690504 8.255L3.87156 14.755C3.91527 14.8296 3.97741 14.8915 4.05187 14.9344C4.12633 14.9774 4.21056 15 4.29626 15H11.7037C11.7894 15 11.8737 14.9774 11.9481 14.9344C12.0226 14.8915 12.0847 14.8296 12.1284 14.755L15.931 8.255C15.9762 8.17781 16 8.08973 16 8C16 7.91027 15.9762 7.82219 15.931 7.745L12.1284 1.245C12.0847 1.17036 12.0226 1.10852 11.9481 1.06557C11.8737 1.02261 11.7894 1.00002 11.7037 1H4.29626C4.21056 1.00002 4.12633 1.02261 4.05187 1.06557C3.97741 1.10852 3.91527 1.17036 3.87156 1.245L0.0690504 7.745C0.0238508 7.82219 0 7.91027 0 8C0 8.08973 0.0238508 8.17781 0.0690504 8.255ZM4.58843 2L1.07842 8L4.58843 14H11.4116L14.9216 8L11.4116 2H4.58843ZM0.931981 8.25032L0.932202 8.24994Z" fill="#3B64FC"/>
<path d="M8.55005 7.5C9.01418 7.5 9.4593 7.68437 9.78749 8.01256C10.1157 8.34075 10.3 8.78587 10.3 9.25C10.3 9.71413 10.1157 10.1592 9.78749 10.4874C9.4593 10.8156 9.01418 11 8.55005 11H7.55005C7.08592 11 6.6408 10.8156 6.31261 10.4874C5.98442 10.1592 5.80005 9.71413 5.80005 9.25C5.80005 8.78587 5.98442 8.34075 6.31261 8.01256C6.6408 7.68437 7.08592 7.5 7.55005 7.5H8.55005ZM8.30005 7.5C8.49896 7.5 8.68973 7.42098 8.83038 7.28033C8.97103 7.13968 9.05005 6.94891 9.05005 6.75C9.05005 6.55109 8.97103 6.36032 8.83038 6.21967C8.68973 6.07902 8.49896 6 8.30005 6H7.80005C7.60114 6 7.41037 6.07902 7.26972 6.21967C7.12907 6.36032 7.05005 6.55109 7.05005 6.75C7.05005 6.94891 7.12907 7.13968 7.26972 7.28033C7.41037 7.42098 7.60114 7.5 7.80005 7.5H8.30005ZM8.04205 8.5H7.55005C7.35114 8.5 7.16037 8.57902 7.01972 8.71967C6.87907 8.86032 6.80005 9.05109 6.80005 9.25C6.80005 9.44891 6.87907 9.63968 7.01972 9.78033C7.16037 9.92098 7.35114 10 7.55005 10H8.55005C8.74896 10 8.93973 9.92098 9.08038 9.78033C9.22103 9.63968 9.30005 9.44891 9.30005 9.25C9.30005 9.05109 9.22103 8.86032 9.08038 8.71967C8.93973 8.57902 8.74896 8.5 8.55005 8.5H8.04205ZM7.80005 8.5C7.33592 8.5 6.8908 8.31563 6.56261 7.98744C6.23442 7.65925 6.05005 7.21413 6.05005 6.75C6.05005 6.28587 6.23442 5.84075 6.56261 5.51256C6.8908 5.18437 7.33592 5 7.80005 5H8.30005C8.76418 5 9.2093 5.18437 9.53749 5.51256C9.86567 5.84075 10.05 6.28587 10.05 6.75C10.05 7.21413 9.86567 7.65925 9.53749 7.98744C9.2093 8.31563 8.76418 8.5 8.30005 8.5H7.80005Z" fill="#2453DE"/>
</svg>
