<svg viewBox="0 0 16 16" fill="none" xmlns="http://www.w3.org/2000/svg">
<g clip-path="url(#clip0_2461_29550)">
<path opacity="0.2" d="M7.89995 4.45383e-05C8.00059 -0.00129857 8.0993 0.0277638 8.18315 0.0834303C8.26701 0.139097 8.33211 0.218775 8.36995 0.312045L13.627 13.251C13.6648 13.3442 13.6737 13.4466 13.6525 13.5449C13.6313 13.6432 13.5809 13.7328 13.508 13.802C12.5632 14.6987 11.4138 15.3511 10.1596 15.7026C8.90544 16.0541 7.5844 16.094 6.31126 15.819C5.03813 15.5439 3.85142 14.9621 2.85421 14.1242C1.85701 13.2863 1.07948 12.2176 0.589177 11.0109C0.0988723 9.80416 -0.0893795 8.49599 0.0407759 7.2C0.170931 5.90401 0.615557 4.6594 1.33603 3.57429C2.0565 2.48919 3.03102 1.59641 4.17493 0.973513C5.31884 0.35062 6.59754 0.0164535 7.89995 4.45383e-05Z" fill="#4F87FE"/>
<path d="M7.89995 4.45383e-05C8.00059 -0.00129857 8.0993 0.0277638 8.18315 0.0834303C8.26701 0.139097 8.33211 0.218775 8.36995 0.312045L13.627 13.251C13.6648 13.3442 13.6737 13.4466 13.6525 13.5449C13.6313 13.6432 13.5809 13.7328 13.508 13.802C12.5632 14.6987 11.4138 15.3511 10.1596 15.7026C8.90544 16.0541 7.5844 16.094 6.31126 15.819C5.03813 15.5439 3.85142 14.9621 2.85421 14.1242C1.85701 13.2863 1.07948 12.2176 0.589177 11.0109C0.0988723 9.80416 -0.0893795 8.49599 0.0407759 7.2C0.170931 5.90401 0.615557 4.6594 1.33603 3.57429C2.0565 2.48919 3.03102 1.59641 4.17493 0.973513C5.31884 0.35062 6.59754 0.0164535 7.89995 4.45383e-05ZM0.99995 8.00004C1.00073 9.33983 1.38599 10.6512 2.10997 11.7786C2.83395 12.9059 3.86625 13.8018 5.08428 14.3598C6.3023 14.9179 7.6549 15.1147 8.98144 14.9268C10.308 14.7389 11.5528 14.1743 12.568 13.3L7.57495 1.01304C5.79531 1.12129 4.12404 1.90454 2.90219 3.20296C1.68033 4.50139 0.999972 6.21712 0.99995 8.00004Z" fill="#3B64FC"/>
</g>
<defs>
<clipPath id="clip0_2461_29550">
<rect width="16" height="16" fill="white"/>
</clipPath>
</defs>
</svg>
