<svg viewBox="0 0 16 16" fill="none" xmlns="http://www.w3.org/2000/svg">
<path opacity="0.2" d="M0.5 12C0.367392 12 0.240215 11.9473 0.146447 11.8536C0.0526784 11.7598 0 11.6326 0 11.5V10C0 7.87827 0.842855 5.84344 2.34315 4.34315C3.84344 2.84285 5.87827 2 8 2C10.1217 2 12.1566 2.84285 13.6569 4.34315C15.1571 5.84344 16 7.87827 16 10V11.5C16 11.6326 15.9473 11.7598 15.8536 11.8536C15.7598 11.9473 15.6326 12 15.5 12H11.5C11.3674 12 11.2402 11.9473 11.1464 11.8536C11.0527 11.7598 11 11.6326 11 11.5V10C11 9.20435 10.6839 8.44129 10.1213 7.87868C9.55871 7.31607 8.79565 7 8 7C7.20435 7 6.44129 7.31607 5.87868 7.87868C5.31607 8.44129 5 9.20435 5 10V11.5C5 11.6326 4.94732 11.7598 4.85355 11.8536C4.75979 11.9473 4.63261 12 4.5 12H0.5Z" fill="#4F87FE"/>
<path d="M0.5 12C0.367392 12 0.240215 11.9473 0.146447 11.8536C0.0526784 11.7598 0 11.6326 0 11.5V10C0 7.87827 0.842855 5.84344 2.34315 4.34315C3.84344 2.84285 5.87827 2 8 2C10.1217 2 12.1566 2.84285 13.6569 4.34315C15.1571 5.84344 16 7.87827 16 10V11.5C16 11.6326 15.9473 11.7598 15.8536 11.8536C15.7598 11.9473 15.6326 12 15.5 12H11.5C11.3674 12 11.2402 11.9473 11.1464 11.8536C11.0527 11.7598 11 11.6326 11 11.5V10C11 9.20435 10.6839 8.44129 10.1213 7.87868C9.55871 7.31607 8.79565 7 8 7C7.20435 7 6.44129 7.31607 5.87868 7.87868C5.31607 8.44129 5 9.20435 5 10V11.5C5 11.6326 4.94732 11.7598 4.85355 11.8536C4.75979 11.9473 4.63261 12 4.5 12H0.5ZM1 11H4V10C4 8.93913 4.42143 7.92172 5.17157 7.17157C5.92172 6.42143 6.93913 6 8 6C9.06087 6 10.0783 6.42143 10.8284 7.17157C11.5786 7.92172 12 8.93913 12 10V11H15V10C15 8.14348 14.2625 6.36301 12.9497 5.05025C11.637 3.7375 9.85652 3 8 3C6.14348 3 4.36301 3.7375 3.05025 5.05025C1.7375 6.36301 1 8.14348 1 10V11Z" fill="#3B64FC"/>
</svg>
