<svg viewBox="0 0 16 16" fill="none" xmlns="http://www.w3.org/2000/svg">
<g clip-path="url(#clip0_2461_29575)">
<path opacity="0.2" fill-rule="evenodd" clip-rule="evenodd" d="M8 16C12.4183 16 16 12.4183 16 8C16 3.58172 12.4183 0 8 0C3.58172 0 0 3.58172 0 8C0 12.4183 3.58172 16 8 16ZM8 12C10.2091 12 12 10.2091 12 8C12 5.79086 10.2091 4 8 4C5.79086 4 4 5.79086 4 8C4 10.2091 5.79086 12 8 12Z" fill="#4F87FE"/>
<path d="M8 16C6.41775 16 4.87103 15.5308 3.55544 14.6518C2.23985 13.7727 1.21447 12.5233 0.608967 11.0615C0.00346625 9.59966 -0.15496 7.99113 0.153721 6.43928C0.462403 4.88743 1.22433 3.46197 2.34315 2.34315C3.46197 1.22433 4.88743 0.462403 6.43928 0.153721C7.99113 -0.15496 9.59966 0.00346625 11.0615 0.608967C12.5233 1.21447 13.7727 2.23985 14.6518 3.55544C15.5308 4.87103 16 6.41775 16 8C16 10.1217 15.1571 12.1566 13.6569 13.6569C12.1566 15.1571 10.1217 16 8 16ZM8 15C9.38447 15 10.7379 14.5895 11.889 13.8203C13.0401 13.0511 13.9373 11.9579 14.4672 10.6788C14.997 9.39971 15.1356 7.99224 14.8655 6.63437C14.5954 5.2765 13.9287 4.02922 12.9498 3.05026C11.9708 2.07129 10.7235 1.4046 9.36564 1.13451C8.00777 0.86441 6.6003 1.00303 5.32122 1.53285C4.04214 2.06266 2.94889 2.95987 2.17972 4.11101C1.41055 5.26216 1 6.61553 1 8C1 9.85652 1.7375 11.637 3.05026 12.9498C4.36301 14.2625 6.14349 15 8 15ZM8 12C7.20888 12 6.43552 11.7654 5.77772 11.3259C5.11993 10.8864 4.60724 10.2616 4.30449 9.53074C4.00174 8.79983 3.92252 7.99557 4.07686 7.21964C4.2312 6.44372 4.61217 5.73099 5.17158 5.17158C5.73099 4.61217 6.44372 4.2312 7.21964 4.07686C7.99557 3.92252 8.79983 4.00174 9.53074 4.30449C10.2616 4.60724 10.8864 5.11993 11.3259 5.77772C11.7654 6.43552 12 7.20888 12 8C12 9.06087 11.5786 10.0783 10.8284 10.8284C10.0783 11.5786 9.06087 12 8 12ZM8 11C8.59335 11 9.17337 10.8241 9.66671 10.4944C10.1601 10.1648 10.5446 9.69623 10.7716 9.14805C10.9987 8.59988 11.0581 7.99668 10.9424 7.41473C10.8266 6.83279 10.5409 6.29824 10.1213 5.87868C9.70177 5.45913 9.16722 5.1734 8.58527 5.05765C8.00333 4.94189 7.40013 5.0013 6.85195 5.22837C6.30378 5.45543 5.83524 5.83995 5.5056 6.33329C5.17595 6.82664 5 7.40666 5 8C5 8.79565 5.31607 9.55872 5.87868 10.1213C6.44129 10.6839 7.20435 11 8 11Z" fill="#3B64FC"/>
</g>
<defs>
<clipPath id="clip0_2461_29575">
<rect width="16" height="16" fill="white"/>
</clipPath>
</defs>
</svg>
