<svg viewBox="0 0 16 16" fill="none" xmlns="http://www.w3.org/2000/svg">
<g clip-path="url(#clip0_2461_29577)">
<path opacity="0.2" fill-rule="evenodd" clip-rule="evenodd" d="M16 8C16 12.4183 12.4183 16 8 16C3.58172 16 0 12.4183 0 8C0 3.58172 3.58172 0 8 0C12.4183 0 16 3.58172 16 8ZM10.3128 12.4341C9.62115 12.7956 8.83445 13 8 13C5.23858 13 3 10.7614 3 8C3 7.16555 3.20441 6.37885 3.56589 5.68723L10.3128 12.4341ZM12.4341 10.3128L5.6872 3.5659C6.37883 3.20442 7.16554 3 8 3C10.7614 3 13 5.23858 13 8C13 8.83446 12.7956 9.62117 12.4341 10.3128Z" fill="#4F87FE"/>
<path d="M3.532 5.754C3.56756 5.68335 3.61936 5.62214 3.68317 5.5754C3.74698 5.52866 3.82096 5.49772 3.89905 5.48513C3.97713 5.47254 4.05709 5.47865 4.13236 5.50297C4.20762 5.52728 4.27604 5.56911 4.332 5.625L10.375 11.668C10.4309 11.724 10.4727 11.7924 10.497 11.8676C10.5214 11.9429 10.5275 12.0229 10.5149 12.101C10.5023 12.179 10.4714 12.253 10.4246 12.3168C10.3779 12.3806 10.3167 12.4325 10.246 12.468C9.30662 12.9408 8.24209 13.1053 7.20382 12.9382C6.16554 12.7711 5.20639 12.2809 4.46277 11.5372C3.71915 10.7936 3.22893 9.83446 3.06183 8.79619C2.89473 7.75792 3.05925 6.69339 3.532 5.754ZM4.162 6.869C3.9583 7.55888 3.9444 8.29092 4.12177 8.98803C4.29913 9.68515 4.6612 10.3215 5.16984 10.8302C5.67848 11.3388 6.31486 11.7009 7.01197 11.8782C7.70909 12.0556 8.44113 12.0417 9.131 11.838L4.162 6.869ZM5.625 4.332C5.56911 4.27604 5.52728 4.20762 5.50297 4.13236C5.47865 4.05709 5.47254 3.97713 5.48513 3.89905C5.49772 3.82096 5.52866 3.74698 5.5754 3.68317C5.62214 3.61936 5.68335 3.56756 5.754 3.532C6.69339 3.05925 7.75792 2.89473 8.79619 3.06183C9.83446 3.22893 10.7936 3.71915 11.5372 4.46277C12.2809 5.20639 12.7711 6.16554 12.9382 7.20382C13.1053 8.24209 12.9408 9.30662 12.468 10.246C12.4325 10.3167 12.3806 10.3779 12.3168 10.4246C12.253 10.4714 12.179 10.5023 12.101 10.5149C12.0229 10.5275 11.9429 10.5214 11.8676 10.497C11.7924 10.4727 11.724 10.4309 11.668 10.375L5.625 4.332ZM11.838 9.132C12.0419 8.44206 12.056 7.70989 11.8788 7.01263C11.7015 6.31536 11.3395 5.6788 10.8308 5.17003C10.3221 4.66125 9.68562 4.29908 8.98839 4.12168C8.29116 3.94428 7.55898 3.95821 6.869 4.162L11.838 9.132ZM8 16C6.41775 16 4.87103 15.5308 3.55544 14.6518C2.23985 13.7727 1.21447 12.5233 0.608967 11.0615C0.00346625 9.59966 -0.15496 7.99113 0.153721 6.43928C0.462403 4.88743 1.22433 3.46197 2.34315 2.34315C3.46197 1.22433 4.88743 0.462403 6.43928 0.153721C7.99113 -0.15496 9.59966 0.00346625 11.0615 0.608967C12.5233 1.21447 13.7727 2.23985 14.6518 3.55544C15.5308 4.87103 16 6.41775 16 8C16 10.1217 15.1571 12.1566 13.6569 13.6569C12.1566 15.1571 10.1217 16 8 16ZM8 15C9.38447 15 10.7379 14.5895 11.889 13.8203C13.0401 13.0511 13.9373 11.9579 14.4672 10.6788C14.997 9.39971 15.1356 7.99224 14.8655 6.63437C14.5954 5.2765 13.9287 4.02922 12.9498 3.05026C11.9708 2.07129 10.7235 1.4046 9.36564 1.13451C8.00777 0.86441 6.6003 1.00303 5.32122 1.53285C4.04214 2.06266 2.94889 2.95987 2.17972 4.11101C1.41055 5.26216 1 6.61553 1 8C1 9.85652 1.7375 11.637 3.05026 12.9498C4.36301 14.2625 6.14349 15 8 15Z" fill="#3B64FC"/>
</g>
<defs>
<clipPath id="clip0_2461_29577">
<rect width="16" height="16" fill="white"/>
</clipPath>
</defs>
</svg>
