<svg viewBox="0 0 16 16" fill="none" xmlns="http://www.w3.org/2000/svg">
<path opacity="0.2" d="M1 6.5C0.999883 6.4343 1.01272 6.36921 1.03777 6.30847C1.06282 6.24773 1.0996 6.19252 1.146 6.146L6.146 1.146C6.19252 1.0996 6.24773 1.06282 6.30847 1.03777C6.36921 1.01272 6.4343 0.999883 6.5 1H14.5C14.599 0.999824 14.6959 1.02905 14.7783 1.08398C14.8606 1.13891 14.9249 1.21706 14.9628 1.30854C15.0007 1.40001 15.0106 1.50068 14.9912 1.59779C14.9719 1.6949 14.9241 1.78407 14.854 1.854L1.854 14.854C1.78407 14.9241 1.6949 14.9719 1.59779 14.9912C1.50068 15.0106 1.40001 15.0007 1.30854 14.9628C1.21706 14.9249 1.13891 14.8606 1.08398 14.7783C1.02905 14.6959 0.999824 14.599 1 14.5V6.5Z" fill="#4F87FE"/>
<path d="M1 6.5C0.999883 6.4343 1.01272 6.36921 1.03777 6.30847C1.06282 6.24773 1.0996 6.19252 1.146 6.146L6.146 1.146C6.19252 1.0996 6.24773 1.06282 6.30847 1.03777C6.36921 1.01272 6.4343 0.999883 6.5 1H14.5C14.599 0.999824 14.6959 1.02905 14.7783 1.08398C14.8606 1.13891 14.9249 1.21706 14.9628 1.30854C15.0007 1.40001 15.0106 1.50068 14.9912 1.59779C14.9719 1.6949 14.9241 1.78407 14.854 1.854L1.854 14.854C1.78407 14.9241 1.6949 14.9719 1.59779 14.9912C1.50068 15.0106 1.40001 15.0007 1.30854 14.9628C1.21706 14.9249 1.13891 14.8606 1.08398 14.7783C1.02905 14.6959 0.999824 14.599 1 14.5V6.5ZM2 6.707V13.293L13.293 2H6.707L2 6.707Z" fill="#3B64FC"/>
</svg>
