<svg viewBox="0 0 16 16" fill="none" xmlns="http://www.w3.org/2000/svg">
<g clip-path="url(#clip0_2461_29568)">
<path opacity="0.2" fill-rule="evenodd" clip-rule="evenodd" d="M15.2929 0H5.5C5.4343 -0.000115763 5.36921 0.0127183 5.30847 0.03777C5.24773 0.0628217 5.19252 0.0995998 5.146 0.146002L1.292 4H11.2929L15.2929 0ZM1 5V14.5C1 14.6326 1.05268 14.7598 1.14645 14.8536C1.24021 14.9473 1.36739 15 1.5 15H11V5H1ZM12 14.708L15.854 10.854C15.9004 10.8075 15.9372 10.7523 15.9622 10.6915C15.9873 10.6308 16.0001 10.5657 16 10.5V0.707107L12 4.70711V14.708Z" fill="#4F87FE"/>
<path d="M2.707 4H11.317C11.3393 3.96338 11.3662 3.92977 11.397 3.9L14.297 1H5.707L2.707 4ZM12 13.293L15 10.293V1.707L12.1 4.6C12.0702 4.63084 12.0366 4.65773 12 4.68V13.293ZM5.146 0.146001C5.19252 0.099599 5.24773 0.0628209 5.30847 0.0377692C5.36921 0.0127175 5.4343 -0.00011655 5.5 7.97493e-07H15.5C15.6326 7.97493e-07 15.7598 0.0526792 15.8536 0.146447C15.9473 0.240216 16 0.367393 16 0.500001V10.5C16.0001 10.5657 15.9873 10.6308 15.9622 10.6915C15.9372 10.7523 15.9004 10.8075 15.854 10.854L11.854 14.854C11.8075 14.9004 11.7523 14.9372 11.6915 14.9622C11.6308 14.9873 11.5657 15.0001 11.5 15H1.5C1.36739 15 1.24022 14.9473 1.14645 14.8536C1.05268 14.7598 1 14.6326 1 14.5V4.5C0.999883 4.4343 1.01272 4.36921 1.03777 4.30847C1.06282 4.24773 1.0996 4.19252 1.146 4.146L5.146 0.146001ZM2 5V14H11V5H2Z" fill="#3B64FC"/>
</g>
<defs>
<clipPath id="clip0_2461_29568">
<rect width="16" height="16" fill="white"/>
</clipPath>
</defs>
</svg>
