<svg viewBox="0 0 16 16" fill="none" xmlns="http://www.w3.org/2000/svg">
<path opacity="0.2" d="M7 9H14.5C14.6326 9 14.7598 9.05268 14.8536 9.14645C14.9473 9.24021 15 9.36739 15 9.5V13.5C15 13.6326 14.9473 13.7598 14.8536 13.8536C14.7598 13.9473 14.6326 14 14.5 14H2.5C2.36739 14 2.24021 13.9473 2.14645 13.8536C2.05268 13.7598 2 13.6326 2 13.5V1.5C2 1.36739 2.05268 1.24021 2.14645 1.14645C2.24021 1.05268 2.36739 1 2.5 1H6.5C6.63261 1 6.75979 1.05268 6.85355 1.14645C6.94732 1.24021 7 1.36739 7 1.5V9Z" fill="#4F87FE"/>
<path d="M7 9H14.5C14.6326 9 14.7598 9.05268 14.8536 9.14645C14.9473 9.24021 15 9.36739 15 9.5V13.5C15 13.6326 14.9473 13.7598 14.8536 13.8536C14.7598 13.9473 14.6326 14 14.5 14H2.5C2.36739 14 2.24021 13.9473 2.14645 13.8536C2.05268 13.7598 2 13.6326 2 13.5V1.5C2 1.36739 2.05268 1.24021 2.14645 1.14645C2.24021 1.05268 2.36739 1 2.5 1H6.5C6.63261 1 6.75979 1.05268 6.85355 1.14645C6.94732 1.24021 7 1.36739 7 1.5V9ZM3 2V13H14V10H6.5C6.36739 10 6.24021 9.94732 6.14645 9.85355C6.05268 9.75979 6 9.63261 6 9.5V2H3Z" fill="#3B64FC"/>
</svg>
