<svg viewBox="0 0 16 16" fill="none" xmlns="http://www.w3.org/2000/svg">
<g clip-path="url(#clip0_2461_29591)">
<path opacity="0.2" d="M8.84077 10.407L2.92077 6.94699C2.82947 6.90145 2.75429 6.82906 2.70532 6.73955C2.65635 6.65004 2.63594 6.54768 2.64682 6.44624C2.65771 6.34479 2.69937 6.2491 2.76621 6.17201C2.83306 6.09493 2.92189 6.04013 3.02077 6.01499L4.94677 5.28299L0.216 1.912C0.12803 1.85151 0.0617314 1.76445 0.0268062 1.66357C-0.00811892 1.56268 -0.00983629 1.45327 0.0219054 1.35134C0.0536471 1.24941 0.117181 1.16031 0.203209 1.09709C0.289237 1.03387 0.393241 0.999849 0.5 1H8.75C8.8157 0.999883 8.88079 1.01272 8.94153 1.03777C9.00227 1.06282 9.05748 1.0996 9.104 1.146L13.4948 5.14599C13.5574 5.20853 13.6024 5.28659 13.625 5.37218C13.6476 5.45777 13.6471 5.54784 13.6235 5.63316C13.5999 5.71849 13.5541 5.79603 13.4907 5.85784C13.4273 5.91966 13.3487 5.96354 13.2628 5.98499L10.2408 6.73999L14.4528 10.109C14.523 10.1651 14.5769 10.2392 14.6086 10.3234C14.6403 10.4076 14.6487 10.4987 14.6329 10.5873C14.6172 10.6758 14.5778 10.7585 14.519 10.8266C14.4602 10.8946 14.3841 10.9456 14.2988 10.974L11.9568 11.755L14.5408 15.2C14.6097 15.292 14.6448 15.405 14.6402 15.5198C14.6355 15.6347 14.5915 15.7444 14.5154 15.8306C14.4393 15.9168 14.3359 15.9741 14.2224 15.993C14.109 16.0118 13.9926 15.991 13.8928 15.934L7.89277 11.934C7.8091 11.886 7.74108 11.8149 7.69691 11.7292C7.65273 11.6435 7.63429 11.5468 7.6438 11.4509C7.65332 11.3549 7.69038 11.2637 7.75052 11.1883C7.81066 11.113 7.89131 11.0566 7.98277 11.026L8.84077 10.407Z" fill="#4F87FE"/>
<path fill-rule="evenodd" clip-rule="evenodd" d="M10.0086 9.93131C10.3208 10.1137 10.3421 10.5569 10.0489 10.7685L9.03954 11.4967L11.9866 13.4614L10.7406 11.8001C10.5358 11.5271 10.6586 11.1337 10.9824 11.0258L13.1107 10.3161L8.82752 6.89014C8.50435 6.63165 8.61715 6.11489 9.01864 6.01459L12.1143 5.24117L8.55652 2H2.06269L6.28836 5.01107C6.61368 5.24288 6.54924 5.74374 6.17584 5.88565L4.30389 6.59711L10.0086 9.93131ZM13.4948 5.14599L9.10399 1.146C9.05747 1.0996 9.00226 1.06282 8.94152 1.03777C8.88078 1.01272 8.81569 0.999883 8.74999 1H0.499974C0.393215 0.99985 0.289211 1.03387 0.203183 1.09709C0.117155 1.16031 0.0536206 1.24941 0.0218789 1.35134C-0.00986289 1.45327 -0.00814552 1.56269 0.0267797 1.66357C0.0617049 1.76445 0.128004 1.85151 0.215974 1.912L4.94675 5.28299L3.02075 6.01499C2.92186 6.04014 2.83304 6.09493 2.76619 6.17201C2.69935 6.2491 2.65769 6.34479 2.6468 6.44624C2.63592 6.54769 2.65633 6.65004 2.7053 6.73955C2.75427 6.82906 2.82945 6.90145 2.92075 6.94699L8.84076 10.407L7.98276 11.026C7.96948 11.0304 7.95642 11.0354 7.94363 11.0409C7.86831 11.0734 7.80191 11.1239 7.7505 11.1883C7.69036 11.2637 7.6533 11.3549 7.64379 11.4509C7.63428 11.5468 7.65272 11.6435 7.69689 11.7292C7.74107 11.8149 7.80909 11.886 7.89276 11.934L13.8928 15.934C13.9926 15.991 14.109 16.0118 14.2224 15.993C14.3359 15.9741 14.4393 15.9168 14.5154 15.8306C14.5915 15.7444 14.6355 15.6347 14.6402 15.5198C14.6448 15.405 14.6097 15.292 14.5408 15.2L11.9568 11.755L14.2988 10.974C14.3841 10.9456 14.4602 10.8946 14.519 10.8266C14.5778 10.7585 14.6172 10.6758 14.6329 10.5873C14.6487 10.4987 14.6403 10.4076 14.6086 10.3234C14.5769 10.2392 14.523 10.1651 14.4528 10.109L10.2408 6.73999L13.2628 5.985C13.3487 5.96354 13.4273 5.91966 13.4907 5.85784C13.5541 5.79603 13.5999 5.71849 13.6235 5.63316C13.6471 5.54784 13.6476 5.45777 13.625 5.37218C13.6024 5.28659 13.5574 5.20853 13.4948 5.14599Z" fill="#3B64FC"/>
</g>
<defs>
<clipPath id="clip0_2461_29591">
<rect width="16" height="16" fill="white"/>
</clipPath>
</defs>
</svg>
