<svg viewBox="0 0 16 16" fill="none" xmlns="http://www.w3.org/2000/svg">
<g clip-path="url(#clip0_2461_29587)">
<g opacity="0.2">
<path d="M4.77776 6.91574C4.69553 6.97068 4.59886 7 4.49997 7C4.36737 7 4.24019 6.94732 4.14642 6.85355C4.05265 6.75979 3.99997 6.63261 3.99997 6.5C3.99997 6.40111 4.0293 6.30444 4.08424 6.22222C4.13918 6.13999 4.21727 6.0759 4.30863 6.03806C4.4 6.00022 4.50053 5.99032 4.59752 6.00961C4.69451 6.0289 4.7836 6.07652 4.85353 6.14645C4.92345 6.21637 4.97107 6.30547 4.99037 6.40246C5.00966 6.49945 4.99976 6.59998 4.96191 6.69134C4.92407 6.78271 4.85998 6.8608 4.77776 6.91574Z" fill="#4F87FE"/>
<path d="M11.7778 6.91574C11.6955 6.97068 11.5989 7 11.5 7C11.3674 7 11.2402 6.94732 11.1464 6.85355C11.0527 6.75979 11 6.63261 11 6.5C11 6.40111 11.0293 6.30444 11.0842 6.22222C11.1392 6.13999 11.2173 6.0759 11.3086 6.03806C11.4 6.00022 11.5005 5.99032 11.5975 6.00961C11.6945 6.0289 11.7836 6.07652 11.8535 6.14645C11.9235 6.21637 11.9711 6.30547 11.9904 6.40246C12.0097 6.49945 11.9998 6.59998 11.9619 6.69134C11.9241 6.78271 11.86 6.8608 11.7778 6.91574Z" fill="#4F87FE"/>
<path fill-rule="evenodd" clip-rule="evenodd" d="M8 16C12.4183 16 16 12.4183 16 8C16 3.58172 12.4183 0 8 0C3.58172 0 0 3.58172 0 8C0 12.4183 3.58172 16 8 16ZM3.66662 7.7472C3.91329 7.91203 4.2033 8 4.49997 8C4.8978 8 5.27933 7.84197 5.56063 7.56066C5.84194 7.27936 5.99997 6.89783 5.99997 6.5C5.99997 6.20333 5.912 5.91332 5.74718 5.66665C5.58236 5.41997 5.34809 5.22771 5.074 5.11418C4.79991 5.00065 4.49831 4.97094 4.20734 5.02882C3.91637 5.0867 3.64909 5.22956 3.43931 5.43934C3.22954 5.64912 3.08667 5.91639 3.0288 6.20737C2.97092 6.49834 3.00062 6.79994 3.11415 7.07403C3.22769 7.34811 3.41994 7.58238 3.66662 7.7472ZM10.6666 7.7472C10.9133 7.91203 11.2033 8 11.5 8C11.8978 8 12.2793 7.84197 12.5606 7.56066C12.8419 7.27936 13 6.89783 13 6.5C13 6.20333 12.912 5.91332 12.7472 5.66665C12.5824 5.41997 12.3481 5.22771 12.074 5.11418C11.7999 5.00065 11.4983 4.97094 11.2073 5.02882C10.9164 5.0867 10.6491 5.22956 10.4393 5.43934C10.2295 5.64912 10.0867 5.91639 10.0288 6.20737C9.97092 6.49834 10.0006 6.79994 10.1142 7.07403C10.2277 7.34811 10.4199 7.58238 10.6666 7.7472ZM2.9997 9.49739C2.99942 9.56309 3.01209 9.6282 3.03697 9.689C3.43996 10.6744 4.12716 11.5175 5.01101 12.1109C5.89487 12.7044 6.93537 13.0213 7.99997 13.0213C9.06458 13.0213 10.1051 12.7044 10.9889 12.1109C11.8728 11.5175 12.56 10.6744 12.963 9.689C12.9879 9.6282 13.0005 9.56309 13.0002 9.49739C13 9.4317 12.9868 9.3667 12.9614 9.30611C12.936 9.24552 12.8989 9.19052 12.8522 9.14426C12.8056 9.098 12.7503 9.06139 12.6895 9.0365C12.6287 9.01162 12.5636 8.99895 12.4979 8.99923C12.4322 8.9995 12.3672 9.01272 12.3066 9.03811C12.246 9.06351 12.191 9.10059 12.1447 9.14724C12.0985 9.19389 12.0619 9.2492 12.037 9.31C11.709 10.1114 11.15 10.797 10.4311 11.2796C9.71213 11.7621 8.86584 12.0198 7.99997 12.0198C7.1341 12.0198 6.28782 11.7621 5.5689 11.2796C4.84997 10.797 4.29094 10.1114 3.96297 9.31C3.93809 9.2492 3.90147 9.19389 3.85521 9.14724C3.80895 9.10059 3.75396 9.06351 3.69337 9.03811C3.63278 9.01272 3.56778 8.9995 3.50208 8.99923C3.43638 8.99895 3.37128 9.01162 3.31047 9.0365C3.24967 9.06139 3.19437 9.098 3.14772 9.14426C3.10107 9.19052 3.06398 9.24552 3.03859 9.30611C3.01319 9.3667 2.99998 9.4317 2.9997 9.49739Z" fill="#4F87FE"/>
</g>
<path d="M8 16C6.41775 16 4.87103 15.5308 3.55544 14.6518C2.23985 13.7727 1.21447 12.5233 0.608967 11.0615C0.00346625 9.59966 -0.15496 7.99113 0.153721 6.43928C0.462403 4.88743 1.22433 3.46197 2.34315 2.34315C3.46197 1.22433 4.88743 0.462403 6.43928 0.153721C7.99113 -0.15496 9.59966 0.00346625 11.0615 0.608967C12.5233 1.21447 13.7727 2.23985 14.6518 3.55544C15.5308 4.87103 16 6.41775 16 8C16 10.1217 15.1571 12.1566 13.6569 13.6569C12.1566 15.1571 10.1217 16 8 16ZM8 15C9.38447 15 10.7379 14.5895 11.889 13.8203C13.0401 13.0511 13.9373 11.9579 14.4672 10.6788C14.997 9.39971 15.1356 7.99224 14.8655 6.63437C14.5954 5.2765 13.9287 4.02922 12.9498 3.05026C11.9708 2.07129 10.7235 1.4046 9.36564 1.13451C8.00777 0.86441 6.6003 1.00303 5.32122 1.53285C4.04214 2.06266 2.94889 2.95987 2.17972 4.11101C1.41055 5.26216 1 6.61553 1 8C1 9.85652 1.7375 11.637 3.05026 12.9498C4.36301 14.2625 6.14349 15 8 15ZM4.5 8C4.20333 8 3.91332 7.91203 3.66665 7.74721C3.41997 7.58239 3.22772 7.34812 3.11418 7.07403C3.00065 6.79994 2.97095 6.49834 3.02883 6.20737C3.0867 5.9164 3.22956 5.64912 3.43934 5.43934C3.64912 5.22956 3.9164 5.0867 4.20737 5.02883C4.49834 4.97095 4.79994 5.00065 5.07403 5.11418C5.34812 5.22772 5.58239 5.41997 5.74721 5.66665C5.91203 5.91332 6 6.20333 6 6.5C6 6.89783 5.84197 7.27936 5.56066 7.56066C5.27936 7.84197 4.89783 8 4.5 8ZM4.5 7C4.59889 7 4.69556 6.97068 4.77779 6.91574C4.86001 6.8608 4.9241 6.78271 4.96194 6.69135C4.99979 6.59998 5.00969 6.49945 4.9904 6.40246C4.9711 6.30547 4.92348 6.21638 4.85356 6.14645C4.78363 6.07652 4.69454 6.0289 4.59755 6.00961C4.50056 5.99032 4.40002 6.00022 4.30866 6.03806C4.2173 6.07591 4.13921 6.13999 4.08427 6.22222C4.02933 6.30444 4 6.40111 4 6.5C4 6.63261 4.05268 6.75979 4.14645 6.85356C4.24022 6.94733 4.3674 7 4.5 7ZM11.5 8C11.2033 8 10.9133 7.91203 10.6666 7.74721C10.42 7.58239 10.2277 7.34812 10.1142 7.07403C10.0007 6.79994 9.97095 6.49834 10.0288 6.20737C10.0867 5.9164 10.2296 5.64912 10.4393 5.43934C10.6491 5.22956 10.9164 5.0867 11.2074 5.02883C11.4983 4.97095 11.7999 5.00065 12.074 5.11418C12.3481 5.22772 12.5824 5.41997 12.7472 5.66665C12.912 5.91332 13 6.20333 13 6.5C13 6.89783 12.842 7.27936 12.5607 7.56066C12.2794 7.84197 11.8978 8 11.5 8ZM11.5 7C11.5989 7 11.6956 6.97068 11.7778 6.91574C11.86 6.8608 11.9241 6.78271 11.9619 6.69135C11.9998 6.59998 12.0097 6.49945 11.9904 6.40246C11.9711 6.30547 11.9235 6.21638 11.8536 6.14645C11.7836 6.07652 11.6945 6.0289 11.5975 6.00961C11.5006 5.99032 11.4 6.00022 11.3087 6.03806C11.2173 6.07591 11.1392 6.13999 11.0843 6.22222C11.0293 6.30444 11 6.40111 11 6.5C11 6.63261 11.0527 6.75979 11.1465 6.85356C11.2402 6.94733 11.3674 7 11.5 7ZM3.037 9.689C3.01212 9.6282 2.99945 9.56309 2.99973 9.4974C3.00001 9.4317 3.01322 9.3667 3.03862 9.30611C3.06401 9.24552 3.1011 9.19053 3.14775 9.14427C3.1944 9.09801 3.2497 9.06139 3.3105 9.0365C3.37131 9.01162 3.43641 8.99895 3.50211 8.99923C3.56781 8.99951 3.63281 9.01272 3.6934 9.03812C3.75399 9.06351 3.80898 9.1006 3.85524 9.14725C3.9015 9.1939 3.93812 9.2492 3.963 9.31C4.29097 10.1114 4.85 10.797 5.56893 11.2796C6.28785 11.7621 7.13413 12.0198 8 12.0198C8.86587 12.0198 9.71216 11.7621 10.4311 11.2796C11.15 10.797 11.709 10.1114 12.037 9.31C12.0619 9.2492 12.0985 9.1939 12.1448 9.14725C12.191 9.1006 12.246 9.06351 12.3066 9.03812C12.3672 9.01272 12.4322 8.99951 12.4979 8.99923C12.5636 8.99895 12.6287 9.01162 12.6895 9.0365C12.7503 9.06139 12.8056 9.09801 12.8523 9.14427C12.8989 9.19053 12.936 9.24552 12.9614 9.30611C12.9868 9.3667 13 9.4317 13.0003 9.4974C13.0006 9.56309 12.9879 9.6282 12.963 9.689C12.56 10.6744 11.8728 11.5175 10.989 12.111C10.1051 12.7044 9.06461 13.0213 8 13.0213C6.9354 13.0213 5.8949 12.7044 5.01104 12.111C4.12719 11.5175 3.43999 10.6744 3.037 9.689Z" fill="#3B64FC"/>
</g>
<defs>
<clipPath id="clip0_2461_29587">
<rect width="16" height="16" fill="white"/>
</clipPath>
</defs>
</svg>
