<svg viewBox="0 0 16 16" fill="none" xmlns="http://www.w3.org/2000/svg">
<g opacity="0.2">
<path d="M1.14645 1.14645C1.05268 1.24021 1 1.36739 1 1.5V14.5C1 14.6326 1.05268 14.7598 1.14645 14.8536C1.24021 14.9473 1.36739 15 1.5 15H9V10.5C9 10.2239 9.22386 10 9.5 10H14V1.5C14 1.36739 13.9473 1.24021 13.8536 1.14645C13.7598 1.05268 13.6326 1 13.5 1H1.5C1.36739 1 1.24021 1.05268 1.14645 1.14645Z" fill="#4F87FE"/>
<path d="M13.708 11H10V14.708L13.708 11Z" fill="#4F87FE"/>
</g>
<path d="M13 2H2V14H9V10.5C9 10.3674 9.05268 10.2402 9.14645 10.1464C9.24021 10.0527 9.36739 10 9.5 10H13V2ZM10 11V13.293L12.293 11H10ZM1 1.5C1 1.36739 1.05268 1.24021 1.14645 1.14645C1.24021 1.05268 1.36739 1 1.5 1H13.5C13.6326 1 13.7598 1.05268 13.8536 1.14645C13.9473 1.24021 14 1.36739 14 1.5V10.5C14.0001 10.5657 13.9873 10.6308 13.9622 10.6915C13.9372 10.7523 13.9004 10.8075 13.854 10.854L9.854 14.854C9.80748 14.9004 9.75227 14.9372 9.69153 14.9622C9.63079 14.9873 9.5657 15.0001 9.5 15H1.5C1.36739 15 1.24021 14.9473 1.14645 14.8536C1.05268 14.7598 1 14.6326 1 14.5V1.5Z" fill="#3B64FC"/>
</svg>
