<svg viewBox="0 0 16 16" fill="none" xmlns="http://www.w3.org/2000/svg">
<g clip-path="url(#clip0_2461_29593)">
<path opacity="0.2" d="M7.9999 12.9999C7.011 12.9999 6.0443 12.7067 5.22205 12.1573C4.39981 11.6078 3.75895 10.827 3.38051 9.91332C3.00207 8.99969 2.90305 7.99436 3.09598 7.02445C3.2889 6.05455 3.76511 5.16363 4.46437 4.46437C5.16363 3.76511 6.05455 3.2889 7.02445 3.09598C7.99436 2.90305 8.99969 3.00207 9.91332 3.38051C10.827 3.75895 11.6078 4.39981 12.1573 5.22205C12.7067 6.0443 12.9999 7.011 12.9999 7.9999C12.9999 9.32599 12.4731 10.5978 11.5354 11.5354C10.5978 12.4731 9.32599 12.9999 7.9999 12.9999ZM1.14591 6.64591C1.21583 6.5758 1.30501 6.52803 1.40211 6.50867C1.49922 6.4893 1.59989 6.4992 1.69137 6.53712C1.78284 6.57504 1.861 6.63926 1.91593 6.72165C1.97085 6.80404 2.00008 6.90088 1.9999 6.99991V8.9999C2.00008 9.09893 1.97085 9.19577 1.91593 9.27816C1.861 9.36055 1.78284 9.42477 1.69137 9.46269C1.59989 9.50061 1.49922 9.51051 1.40211 9.49114C1.30501 9.47178 1.21583 9.42401 1.14591 9.3539L0.145905 8.3539C0.0521694 8.26014 -0.000488281 8.13299 -0.000488281 8.0004C-0.000488281 7.86782 0.0521694 7.74067 0.145905 7.6469L1.14591 6.64591ZM7.64591 0.145905C7.73967 0.0521694 7.86682 -0.000488281 7.9994 -0.000488281C8.13199 -0.000488281 8.25914 0.0521694 8.3529 0.145905L9.3529 1.14591C9.42295 1.21577 9.47069 1.30485 9.49009 1.40187C9.50949 1.49888 9.49967 1.59947 9.46188 1.69091C9.42409 1.78234 9.36002 1.8605 9.27778 1.91551C9.19555 1.97051 9.09884 1.99988 8.9999 1.9999H6.99991C6.90088 2.00008 6.80404 1.97085 6.72165 1.91593C6.63926 1.861 6.57504 1.78284 6.53712 1.69137C6.4992 1.59989 6.4893 1.49922 6.50867 1.40211C6.52803 1.30501 6.5758 1.21583 6.64591 1.14591L7.64591 0.145905ZM13.9999 6.99991C13.9997 6.90088 14.029 6.80404 14.0839 6.72165C14.1388 6.63926 14.217 6.57504 14.3084 6.53712C14.3999 6.4992 14.5006 6.4893 14.5977 6.50867C14.6948 6.52803 14.784 6.5758 14.8539 6.64591L15.8539 7.64591C15.9476 7.73967 16.0003 7.86682 16.0003 7.9994C16.0003 8.13199 15.9476 8.25914 15.8539 8.3529L14.8539 9.3529C14.784 9.42295 14.695 9.47069 14.5979 9.49009C14.5009 9.50949 14.4003 9.49967 14.3089 9.46188C14.2175 9.42409 14.1393 9.36002 14.0843 9.27778C14.0293 9.19555 13.9999 9.09884 13.9999 8.9999V6.99991ZM8.3539 15.8539C8.26014 15.9476 8.13299 16.0003 8.0004 16.0003C7.86782 16.0003 7.74067 15.9476 7.6469 15.8539L6.6469 14.8539C6.57686 14.784 6.52911 14.695 6.50972 14.5979C6.49032 14.5009 6.50014 14.4003 6.53793 14.3089C6.57572 14.2175 6.63979 14.1393 6.72203 14.0843C6.80426 14.0293 6.90097 13.9999 6.99991 13.9999H8.9999C9.09893 13.9997 9.19577 14.029 9.27816 14.0839C9.36055 14.1388 9.42477 14.217 9.46269 14.3084C9.50061 14.3999 9.51051 14.5006 9.49114 14.5977C9.47178 14.6948 9.42401 14.784 9.3539 14.8539L8.3539 15.8539ZM4.11091 2.1999C4.20993 2.19973 4.30677 2.22896 4.38916 2.28388C4.47155 2.33881 4.53577 2.41697 4.57369 2.50844C4.61161 2.59992 4.62151 2.70059 4.60214 2.7977C4.58278 2.8948 4.53501 2.98398 4.46491 3.0539L3.0499 4.46391C2.97984 4.53259 2.8911 4.57915 2.79477 4.59777C2.69843 4.61638 2.59874 4.60625 2.50812 4.56861C2.4175 4.53098 2.33996 4.46752 2.28515 4.38613C2.23035 4.30474 2.2007 4.20902 2.1999 4.11091V2.6999C2.1999 2.5673 2.25258 2.44012 2.34635 2.34635C2.44012 2.25258 2.5673 2.1999 2.6999 2.1999H4.11091ZM13.2999 2.1999C13.4325 2.1999 13.5597 2.25258 13.6535 2.34635C13.7472 2.44012 13.7999 2.5673 13.7999 2.6999V4.11091C13.8001 4.20993 13.7709 4.30677 13.7159 4.38916C13.661 4.47155 13.5828 4.53577 13.4914 4.57369C13.3999 4.61161 13.2992 4.62151 13.2021 4.60214C13.105 4.58278 13.0158 4.53501 12.9459 4.46491L11.5359 3.0499C11.4658 2.97998 11.418 2.8908 11.3987 2.7937C11.3793 2.69659 11.3892 2.59591 11.4271 2.50444C11.465 2.41297 11.5293 2.33481 11.6117 2.27988C11.694 2.22496 11.7909 2.19573 11.8899 2.1959L13.2999 2.1999ZM12.9459 11.5389C13.0158 11.4688 13.105 11.421 13.2021 11.4017C13.2992 11.3823 13.3999 11.3922 13.4914 11.4301C13.5828 11.468 13.661 11.5323 13.7159 11.6147C13.7709 11.697 13.8001 11.7939 13.7999 11.8929V13.2999C13.7999 13.4325 13.7472 13.5597 13.6535 13.6535C13.5597 13.7472 13.4325 13.7999 13.2999 13.7999H11.8889C11.7899 13.8001 11.693 13.7709 11.6107 13.7159C11.5283 13.661 11.464 13.5828 11.4261 13.4914C11.3882 13.3999 11.3783 13.2992 11.3977 13.2021C11.417 13.105 11.4648 13.0158 11.5349 12.9459L12.9459 11.5389ZM2.6999 13.7999C2.5673 13.7999 2.44012 13.7472 2.34635 13.6535C2.25258 13.5597 2.1999 13.4325 2.1999 13.2999V11.8889C2.19973 11.7899 2.22896 11.693 2.28388 11.6107C2.33881 11.5283 2.41697 11.464 2.50844 11.4261C2.59992 11.3882 2.70059 11.3783 2.7977 11.3977C2.8948 11.417 2.98398 11.4648 3.0539 11.5349L4.46391 12.9499C4.53401 13.0198 4.58178 13.109 4.60114 13.2061C4.62051 13.3032 4.61061 13.4039 4.57269 13.4954C4.53477 13.5868 4.47055 13.665 4.38816 13.7199C4.30577 13.7749 4.20893 13.8041 4.10991 13.8039L2.6999 13.7999Z" fill="#4F87FE"/>
<path d="M7.9999 12.9999C7.011 12.9999 6.0443 12.7067 5.22205 12.1573C4.39981 11.6078 3.75895 10.827 3.38051 9.91332C3.00207 8.99969 2.90305 7.99436 3.09598 7.02445C3.2889 6.05455 3.76511 5.16363 4.46437 4.46437C5.16363 3.76511 6.05455 3.2889 7.02445 3.09598C7.99436 2.90305 8.99969 3.00207 9.91332 3.38051C10.827 3.75895 11.6078 4.39981 12.1573 5.22205C12.7067 6.0443 12.9999 7.011 12.9999 7.9999C12.9999 9.32599 12.4731 10.5978 11.5354 11.5354C10.5978 12.4731 9.32599 12.9999 7.9999 12.9999ZM7.9999 11.9999C8.79103 11.9999 9.56439 11.7653 10.2222 11.3258C10.88 10.8863 11.3927 10.2615 11.6954 9.53064C11.9982 8.79973 12.0774 7.99547 11.923 7.21954C11.7687 6.44362 11.3877 5.73089 10.8283 5.17148C10.2689 4.61207 9.55619 4.2311 8.78027 4.07676C8.00434 3.92242 7.20008 4.00164 6.46917 4.30439C5.73827 4.60714 5.11355 5.11983 4.67403 5.77762C4.2345 6.43542 3.99991 7.20878 3.99991 7.9999C3.99991 9.06077 4.42133 10.0782 5.17148 10.8283C5.92162 11.5785 6.93904 11.9999 7.9999 11.9999ZM1.14591 6.64591C1.21583 6.5758 1.30501 6.52803 1.40211 6.50867C1.49922 6.4893 1.59989 6.4992 1.69137 6.53712C1.78284 6.57504 1.861 6.63926 1.91593 6.72165C1.97085 6.80404 2.00008 6.90088 1.9999 6.99991V8.9999C2.00008 9.09893 1.97085 9.19577 1.91593 9.27816C1.861 9.36055 1.78284 9.42477 1.69137 9.46269C1.59989 9.50061 1.49922 9.51051 1.40211 9.49114C1.30501 9.47178 1.21583 9.42401 1.14591 9.3539L0.145905 8.3539C0.0521694 8.26014 -0.000488281 8.13299 -0.000488281 8.0004C-0.000488281 7.86782 0.0521694 7.74067 0.145905 7.6469L1.14591 6.64591ZM0.999905 8.2069L1.20691 7.9999L0.999905 7.79291V8.2069ZM7.64591 0.145905C7.73967 0.0521694 7.86682 -0.000488281 7.9994 -0.000488281C8.13199 -0.000488281 8.25914 0.0521694 8.3529 0.145905L9.3529 1.14591C9.42295 1.21577 9.47069 1.30485 9.49009 1.40187C9.50949 1.49888 9.49967 1.59947 9.46188 1.69091C9.42409 1.78234 9.36002 1.8605 9.27778 1.91551C9.19555 1.97051 9.09884 1.99988 8.9999 1.9999H6.99991C6.90088 2.00008 6.80404 1.97085 6.72165 1.91593C6.63926 1.861 6.57504 1.78284 6.53712 1.69137C6.4992 1.59989 6.4893 1.49922 6.50867 1.40211C6.52803 1.30501 6.5758 1.21583 6.64591 1.14591L7.64591 0.145905ZM7.9999 1.20691L8.2069 0.999905H7.79291L7.9999 1.20691ZM13.9999 6.99991C13.9997 6.90088 14.029 6.80404 14.0839 6.72165C14.1388 6.63926 14.217 6.57504 14.3084 6.53712C14.3999 6.4992 14.5006 6.4893 14.5977 6.50867C14.6948 6.52803 14.784 6.5758 14.8539 6.64591L15.8539 7.64591C15.9476 7.73967 16.0003 7.86682 16.0003 7.9994C16.0003 8.13199 15.9476 8.25914 15.8539 8.3529L14.8539 9.3529C14.784 9.42295 14.695 9.47069 14.5979 9.49009C14.5009 9.50949 14.4003 9.49967 14.3089 9.46188C14.2175 9.42409 14.1393 9.36002 14.0843 9.27778C14.0293 9.19555 13.9999 9.09884 13.9999 8.9999V6.99991ZM14.9999 8.2069V7.79291L14.7929 7.9999L14.9999 8.2069ZM8.3539 15.8539C8.26014 15.9476 8.13299 16.0003 8.0004 16.0003C7.86782 16.0003 7.74067 15.9476 7.6469 15.8539L6.6469 14.8539C6.57686 14.784 6.52911 14.695 6.50972 14.5979C6.49032 14.5009 6.50014 14.4003 6.53793 14.3089C6.57572 14.2175 6.63979 14.1393 6.72203 14.0843C6.80426 14.0293 6.90097 13.9999 6.99991 13.9999H8.9999C9.09893 13.9997 9.19577 14.029 9.27816 14.0839C9.36055 14.1388 9.42477 14.217 9.46269 14.3084C9.50061 14.3999 9.51051 14.5006 9.49114 14.5977C9.47178 14.6948 9.42401 14.784 9.3539 14.8539L8.3539 15.8539ZM7.9999 14.7929L7.79291 14.9999H8.2069L7.9999 14.7929ZM4.11091 2.1999C4.20993 2.19973 4.30677 2.22896 4.38916 2.28388C4.47155 2.33881 4.53577 2.41697 4.57369 2.50844C4.61161 2.59992 4.62151 2.70059 4.60214 2.7977C4.58278 2.8948 4.53501 2.98398 4.46491 3.0539L3.0499 4.46391C2.97984 4.53259 2.8911 4.57915 2.79477 4.59777C2.69843 4.61638 2.59874 4.60625 2.50812 4.56861C2.4175 4.53098 2.33996 4.46752 2.28515 4.38613C2.23035 4.30474 2.2007 4.20902 2.1999 4.11091V2.6999C2.1999 2.5673 2.25258 2.44012 2.34635 2.34635C2.44012 2.25258 2.5673 2.1999 2.6999 2.1999H4.11091ZM2.8999 3.1999H3.1999V2.8999L2.8999 3.1999ZM13.2999 2.1999C13.4325 2.1999 13.5597 2.25258 13.6535 2.34635C13.7472 2.44012 13.7999 2.5673 13.7999 2.6999V4.11091C13.8001 4.20993 13.7709 4.30677 13.7159 4.38916C13.661 4.47155 13.5828 4.53577 13.4914 4.57369C13.3999 4.61161 13.2992 4.62151 13.2021 4.60214C13.105 4.58278 13.0158 4.53501 12.9459 4.46491L11.5359 3.0499C11.4658 2.97998 11.418 2.8908 11.3987 2.7937C11.3793 2.69659 11.3892 2.59591 11.4271 2.50444C11.465 2.41297 11.5293 2.33481 11.6117 2.27988C11.694 2.22496 11.7909 2.19573 11.8899 2.1959L13.2999 2.1999ZM12.7999 3.1999H13.0999L12.7999 2.8999V3.1999ZM12.9459 11.5389C13.0158 11.4688 13.105 11.421 13.2021 11.4017C13.2992 11.3823 13.3999 11.3922 13.4914 11.4301C13.5828 11.468 13.661 11.5323 13.7159 11.6147C13.7709 11.697 13.8001 11.7939 13.7999 11.8929V13.2999C13.7999 13.4325 13.7472 13.5597 13.6535 13.6535C13.5597 13.7472 13.4325 13.7999 13.2999 13.7999H11.8889C11.7899 13.8001 11.693 13.7709 11.6107 13.7159C11.5283 13.661 11.464 13.5828 11.4261 13.4914C11.3882 13.3999 11.3783 13.2992 11.3977 13.2021C11.417 13.105 11.4648 13.0158 11.5349 12.9459L12.9459 11.5389ZM12.7999 13.0999L13.0999 12.7999H12.7999V13.0999ZM2.6999 13.7999C2.5673 13.7999 2.44012 13.7472 2.34635 13.6535C2.25258 13.5597 2.1999 13.4325 2.1999 13.2999V11.8889C2.19973 11.7899 2.22896 11.693 2.28388 11.6107C2.33881 11.5283 2.41697 11.464 2.50844 11.4261C2.59992 11.3882 2.70059 11.3783 2.7977 11.3977C2.8948 11.417 2.98398 11.4648 3.0539 11.5349L4.46391 12.9499C4.53401 13.0198 4.58178 13.109 4.60114 13.2061C4.62051 13.3032 4.61061 13.4039 4.57269 13.4954C4.53477 13.5868 4.47055 13.665 4.38816 13.7199C4.30577 13.7749 4.20893 13.8041 4.10991 13.8039L2.6999 13.7999ZM3.1999 12.7999H2.8999L3.1999 13.0999V12.7999Z" fill="#3B64FC"/>
</g>
<defs>
<clipPath id="clip0_2461_29593">
<rect width="16" height="16" fill="white"/>
</clipPath>
</defs>
</svg>
