<svg viewBox="0 0 16 16" fill="none" xmlns="http://www.w3.org/2000/svg">
<path opacity="0.2" d="M8.2767 15.1497C8.10667 15.2574 7.89334 15.2574 7.7233 15.1497C5.49952 13.7416 0 10.8082 0 6.5C0 4.01472 2.01472 2 4.5 2C5.91363 2 7.17502 2.65183 8 3.67134C8.82498 2.65183 10.0864 2 11.5 2C13.9853 2 16 4.01472 16 6.5C16 10.8082 10.5005 13.7416 8.2767 15.1497Z" fill="#4F87FE"/>
<path fill-rule="evenodd" clip-rule="evenodd" d="M8.38869 4.78071C8.18857 5.02802 7.81143 5.02802 7.61132 4.78071L7.22263 4.30038C6.57936 3.50543 5.59907 3 4.5 3C2.567 3 1 4.567 1 6.5C1 8.2121 2.09891 9.76934 3.68666 11.1602C4.96287 12.2781 6.40237 13.1615 7.52519 13.8506C7.69087 13.9523 7.84966 14.0497 8 14.1431C8.15035 14.0497 8.30913 13.9523 8.47481 13.8506C9.59763 13.1615 11.0371 12.2781 12.3133 11.1602C13.9011 9.76934 15 8.2121 15 6.5C15 4.567 13.433 3 11.5 3C10.4009 3 9.42064 3.50543 8.77737 4.30038L8.38869 4.78071ZM7.28575 2.96571C6.51953 2.36093 5.55191 2 4.5 2C2.01472 2 0 4.01472 0 6.5C0 10.4102 4.5302 13.1878 7.02992 14.7205C7.28439 14.8765 7.51783 15.0196 7.7233 15.1497C7.89334 15.2574 8.10667 15.2574 8.2767 15.1497C8.48217 15.0196 8.71561 14.8765 8.97009 14.7204C11.4698 13.1878 16 10.4102 16 6.5C16 4.01472 13.9853 2 11.5 2C10.4481 2 9.48048 2.36093 8.71425 2.9657C8.45077 3.17367 8.2111 3.41047 8 3.67134C7.78891 3.41047 7.54924 3.17367 7.28575 2.96571Z" fill="#3B64FC"/>
</svg>
