<svg viewBox="0 0 16 16" fill="none" xmlns="http://www.w3.org/2000/svg">
<path d="M2 8C2.31049 8.23287 2.5625 8.53483 2.73607 8.88197C2.90964 9.2291 3 9.61189 3 10V12C3 12.5304 3.21071 13.0391 3.58579 13.4142C3.96086 13.7893 4.46957 14 5 14H5.5C5.63261 14 5.75979 14.0527 5.85355 14.1464C5.94732 14.2402 6 14.3674 6 14.5C6 14.6326 5.94732 14.7598 5.85355 14.8536C5.75979 14.9473 5.63261 15 5.5 15H5C4.20435 15 3.44129 14.6839 2.87868 14.1213C2.31607 13.5587 2 12.7956 2 12V10C2 9.76713 1.94578 9.53746 1.84164 9.32918C1.7375 9.1209 1.58629 8.93972 1.4 8.8L0.2 7.9C0.137902 7.85343 0.0875003 7.79303 0.0527864 7.72361C0.0180725 7.65418 0 7.57762 0 7.5C0 7.42238 0.0180725 7.34582 0.0527864 7.27639C0.0875003 7.20697 0.137902 7.14657 0.2 7.1L1.4 6.2C1.58629 6.06028 1.7375 5.8791 1.84164 5.67082C1.94578 5.46254 2 5.23287 2 5V3.75C2 3.02065 2.28973 2.32118 2.80546 1.80546C3.32118 1.28973 4.02065 1 4.75 1H5.5C5.63261 1 5.75979 1.05268 5.85355 1.14645C5.94732 1.24021 6 1.36739 6 1.5C6 1.63261 5.94732 1.75979 5.85355 1.85355C5.75979 1.94732 5.63261 2 5.5 2H4.75C4.28587 2 3.84075 2.18437 3.51256 2.51256C3.18437 2.84075 3 3.28587 3 3.75V5C3 5.38811 2.90964 5.7709 2.73607 6.11803C2.5625 6.46517 2.31049 6.76713 2 7L1.333 7.5L2 8ZM14 7C13.6895 6.76713 13.4375 6.46517 13.2639 6.11803C13.0904 5.7709 13 5.38811 13 5V3.75C13 3.28587 12.8156 2.84075 12.4874 2.51256C12.1592 2.18437 11.7141 2 11.25 2H10.5C10.3674 2 10.2402 1.94732 10.1464 1.85355C10.0527 1.75979 10 1.63261 10 1.5C10 1.36739 10.0527 1.24021 10.1464 1.14645C10.2402 1.05268 10.3674 1 10.5 1H11.25C11.9793 1 12.6788 1.28973 13.1945 1.80546C13.7103 2.32118 14 3.02065 14 3.75V5C14 5.23287 14.0542 5.46254 14.1584 5.67082C14.2625 5.8791 14.4137 6.06028 14.6 6.2L15.8 7.1C15.8621 7.14657 15.9125 7.20697 15.9472 7.27639C15.9819 7.34582 16 7.42238 16 7.5C16 7.57762 15.9819 7.65418 15.9472 7.72361C15.9125 7.79303 15.8621 7.85343 15.8 7.9L14.6 8.8C14.4137 8.93972 14.2625 9.1209 14.1584 9.32918C14.0542 9.53746 14 9.76713 14 10V12C14 12.7956 13.6839 13.5587 13.1213 14.1213C12.5587 14.6839 11.7956 15 11 15H10.5C10.3674 15 10.2402 14.9473 10.1464 14.8536C10.0527 14.7598 10 14.6326 10 14.5C10 14.3674 10.0527 14.2402 10.1464 14.1464C10.2402 14.0527 10.3674 14 10.5 14H11C11.5304 14 12.0391 13.7893 12.4142 13.4142C12.7893 13.0391 13 12.5304 13 12V10C13 9.61189 13.0904 9.2291 13.2639 8.88197C13.4375 8.53483 13.6895 8.23287 14 8L14.667 7.5L14 7Z" fill="#3B64FC"/>
</svg>
