<svg viewBox="0 0 16 16" fill="none" xmlns="http://www.w3.org/2000/svg">
<g clip-path="url(#clip0_2461_29522)">
<path opacity="0.2" d="M8 16C9.58225 16 11.129 15.5308 12.4446 14.6518C13.7602 13.7727 14.7855 12.5233 15.391 11.0615C15.9965 9.59966 16.155 7.99113 15.8463 6.43928C15.5376 4.88743 14.7757 3.46197 13.6569 2.34315C12.538 1.22433 11.1126 0.462403 9.56072 0.153721C8.00887 -0.15496 6.40034 0.00346625 4.93853 0.608967C3.47672 1.21447 2.22729 2.23985 1.34824 3.55544C0.469192 4.87103 0 6.41775 0 8C0 10.1217 0.842855 12.1566 2.34315 13.6569C3.84344 15.1571 5.87827 16 8 16Z" fill="#4F87FE"/>
<g clip-path="url(#clip1_2461_29522)">
<path d="M8 16C9.58225 16 11.129 15.5308 12.4446 14.6518C13.7602 13.7727 14.7855 12.5233 15.391 11.0615C15.9965 9.59966 16.155 7.99113 15.8463 6.43928C15.5376 4.88743 14.7757 3.46197 13.6569 2.34315C12.538 1.22433 11.1126 0.462403 9.56072 0.153721C8.00887 -0.15496 6.40034 0.00346625 4.93853 0.608967C3.47672 1.21447 2.22729 2.23985 1.34824 3.55544C0.469192 4.87103 0 6.41775 0 8C0 10.1217 0.842855 12.1566 2.34315 13.6569C3.84344 15.1571 5.87827 16 8 16ZM8 15C6.61553 15 5.26215 14.5895 4.11101 13.8203C2.95986 13.0511 2.06266 11.9579 1.53284 10.6788C1.00303 9.39971 0.864406 7.99224 1.1345 6.63437C1.4046 5.2765 2.07128 4.02922 3.05025 3.05026C4.02922 2.07129 5.2765 1.4046 6.63437 1.13451C7.99223 0.86441 9.3997 1.00303 10.6788 1.53285C11.9579 2.06266 13.0511 2.95987 13.8203 4.11101C14.5895 5.26216 15 6.61553 15 8C15 9.85652 14.2625 11.637 12.9497 12.9498C11.637 14.2625 9.85652 15 8 15Z" fill="#3B64FC"/>
</g>
</g>
<defs>
<clipPath id="clip0_2461_29522">
<rect width="16" height="16" fill="white"/>
</clipPath>
<clipPath id="clip1_2461_29522">
<rect width="16" height="16" fill="white"/>
</clipPath>
</defs>
</svg>
