<svg viewBox="0 0 16 16" fill="none" xmlns="http://www.w3.org/2000/svg">
<g clip-path="url(#clip0_2461_29597)">
<path opacity="0.2" d="M10.5001 14.9998C9.88818 15.0005 9.29737 14.7763 8.84006 14.3698C8.4648 14.6617 8.02556 14.8602 7.55852 14.949C7.09149 15.0378 6.61004 15.0143 6.15385 14.8805C5.69767 14.7467 5.27981 14.5064 4.93473 14.1794C4.58964 13.8524 4.32721 13.4481 4.16906 12.9998C4.11306 12.9998 4.05672 12.9998 4.00006 12.9998C3.02579 13.0007 2.08467 12.6461 1.35333 12.0024C0.621992 11.3587 0.150723 10.4702 0.0279766 9.50373C-0.0947694 8.53723 0.139447 7.55915 0.686666 6.75309C1.23388 5.94702 2.05648 5.36838 3.00006 5.12577C3.00006 5.08377 3.00006 5.04177 3.00006 4.99977C2.99889 3.73921 3.4739 2.52471 4.33 1.59944C5.18609 0.674171 6.36009 0.106409 7.61696 0.00982431C8.87382 -0.0867602 10.1208 0.294961 11.1082 1.07857C12.0956 1.86217 12.7506 2.98983 12.9421 4.23577C13.8304 4.53547 14.603 5.10514 15.1518 5.86522C15.7007 6.6253 15.9985 7.53783 16.0035 8.47535C16.0086 9.41288 15.7207 10.3286 15.1801 11.0945C14.6395 11.8605 13.8731 12.4385 12.9881 12.7478C12.9265 13.3649 12.6378 13.9371 12.1781 14.3533C11.7183 14.7694 11.1202 14.9999 10.5001 14.9998Z" fill="#4F87FE"/>
<path d="M10.5001 14.9998C9.88818 15.0005 9.29737 14.7763 8.84006 14.3698C8.4648 14.6617 8.02556 14.8602 7.55852 14.949C7.09149 15.0378 6.61004 15.0143 6.15385 14.8805C5.69767 14.7467 5.27981 14.5064 4.93473 14.1794C4.58964 13.8524 4.32721 13.4481 4.16906 12.9998C4.11306 12.9998 4.05672 12.9998 4.00006 12.9998C3.02579 13.0007 2.08467 12.6461 1.35333 12.0024C0.621992 11.3587 0.150723 10.4702 0.0279766 9.50373C-0.0947694 8.53723 0.139447 7.55915 0.686666 6.75309C1.23388 5.94702 2.05648 5.36838 3.00006 5.12577C3.00006 5.08377 3.00006 5.04177 3.00006 4.99977C2.99889 3.73921 3.4739 2.52471 4.33 1.59944C5.18609 0.674171 6.36009 0.106409 7.61696 0.00982431C8.87382 -0.0867602 10.1208 0.294961 11.1082 1.07857C12.0956 1.86217 12.7506 2.98983 12.9421 4.23577C13.8304 4.53547 14.603 5.10514 15.1518 5.86522C15.7007 6.6253 15.9985 7.53783 16.0035 8.47535C16.0086 9.41288 15.7207 10.3286 15.1801 11.0945C14.6395 11.8605 13.8731 12.4385 12.9881 12.7478C12.9265 13.3649 12.6378 13.9371 12.1781 14.3533C11.7183 14.7694 11.1202 14.9999 10.5001 14.9998ZM12.3721 11.8908C13.1259 11.6979 13.7939 11.2593 14.2706 10.6443C14.7473 10.0293 15.0055 9.27299 15.0043 8.49489C15.0032 7.71678 14.7428 6.96125 14.2643 6.34767C13.7858 5.73409 13.1164 5.29746 12.3621 5.10677C12.261 5.0813 12.1705 5.02492 12.1031 4.9455C12.0357 4.86608 11.9948 4.76758 11.9861 4.66377C11.8998 3.63535 11.4194 2.68007 10.6452 1.9976C9.87102 1.31513 8.86304 0.958294 7.83191 1.00168C6.80079 1.04506 5.82633 1.4853 5.11223 2.23039C4.39812 2.97548 3.99964 3.96774 4.00006 4.99977C4.00014 5.15785 4.00949 5.31579 4.02806 5.47277C4.04339 5.60307 4.00691 5.73417 3.92647 5.8378C3.84603 5.94144 3.72808 6.00931 3.59806 6.02677C2.81063 6.14188 2.10118 6.56507 1.62577 7.20326C1.15037 7.84145 0.947953 8.64235 1.06306 9.42978C1.17816 10.2172 1.60136 10.9267 2.23954 11.4021C2.87773 11.8775 3.67863 12.0799 4.46606 11.9648C4.59411 11.9448 4.72491 11.9754 4.83087 12.05C4.93683 12.1246 5.00968 12.2375 5.03406 12.3648C5.10267 12.7329 5.27325 13.0744 5.52639 13.3503C5.77953 13.6263 6.10506 13.8256 6.46592 13.9257C6.82678 14.0257 7.20848 14.0224 7.56756 13.9162C7.92665 13.8099 8.2487 13.605 8.49706 13.3248C8.54698 13.2686 8.60892 13.2244 8.67828 13.1954C8.74764 13.1665 8.82263 13.1536 8.89768 13.1576C8.97272 13.1616 9.0459 13.1825 9.11175 13.2188C9.17761 13.255 9.23445 13.3056 9.27806 13.3668C9.46234 13.6256 9.72406 13.8193 10.0255 13.9198C10.3269 14.0204 10.6525 14.0226 10.9553 13.9261C11.2581 13.8297 11.5224 13.6396 11.7102 13.3832C11.8979 13.1269 11.9994 12.8175 12.0001 12.4998C12.0001 12.4684 12.0001 12.4371 12.0001 12.4058C11.9928 12.2901 12.0259 12.1755 12.0938 12.0816C12.1616 11.9877 12.26 11.9202 12.3721 11.8908Z" fill="#3B64FC"/>
</g>
<defs>
<clipPath id="clip0_2461_29597">
<rect width="16" height="16" fill="white"/>
</clipPath>
</defs>
</svg>
