<svg viewBox="0 0 16 16" fill="none" xmlns="http://www.w3.org/2000/svg">
<path d="M9.5 1H8C7.20435 1 6.44129 1.31607 5.87868 1.87868C5.31607 2.44129 5 3.20435 5 4V12C5 12.7956 5.31607 13.5587 5.87868 14.1213C6.44129 14.6839 7.20435 15 8 15H9.5C9.63261 15 9.75979 14.9473 9.85355 14.8536C9.94732 14.7598 10 14.6326 10 14.5C10 14.3674 9.94732 14.2402 9.85355 14.1464C9.75979 14.0527 9.63261 14 9.5 14H8C7.46957 14 6.96086 13.7893 6.58579 13.4142C6.21071 13.0391 6 12.5304 6 12V4C6 3.46957 6.21071 2.96086 6.58579 2.58579C6.96086 2.21071 7.46957 2 8 2H9.5C9.63261 2 9.75979 1.94732 9.85355 1.85355C9.94732 1.75979 10 1.63261 10 1.5C10 1.36739 9.94732 1.24021 9.85355 1.14645C9.75979 1.05268 9.63261 1 9.5 1Z" fill="#3B64FC"/>
</svg>
