<svg viewBox="0 0 16 16" fill="none" xmlns="http://www.w3.org/2000/svg">
<path opacity="0.2" d="M7.56699 1.24998C7.61087 1.17397 7.67399 1.11086 7.75 1.06698C7.82601 1.0231 7.91222 1 7.99999 1C8.08775 1 8.17397 1.0231 8.24998 1.06698C8.32598 1.11086 8.3891 1.17397 8.43299 1.24998L15.933 14.25C15.9769 14.326 16 14.4122 16 14.5C16 14.5877 15.9769 14.674 15.933 14.75C15.8891 14.826 15.826 14.8891 15.75 14.933C15.674 14.9769 15.5878 15 15.5 15H0.499987C0.41222 15 0.326 14.9769 0.249992 14.933C0.173984 14.8891 0.110867 14.826 0.0669841 14.75C0.0231015 14.674 -5.57415e-07 14.5877 0 14.5C5.57436e-07 14.4122 0.0231037 14.326 0.0669873 14.25L7.56699 1.24998Z" fill="#4F87FE"/>
<path d="M7.56699 1.24998C7.61087 1.17397 7.67399 1.11086 7.75 1.06698C7.82601 1.0231 7.91222 1 7.99999 1C8.08775 1 8.17397 1.0231 8.24998 1.06698C8.32598 1.11086 8.3891 1.17397 8.43299 1.24998L15.933 14.25C15.9769 14.326 16 14.4122 16 14.5C16 14.5877 15.9769 14.674 15.933 14.75C15.8891 14.826 15.826 14.8891 15.75 14.933C15.674 14.9769 15.5878 15 15.5 15H0.499987C0.41222 15 0.326 14.9769 0.249992 14.933C0.173984 14.8891 0.110867 14.826 0.0669841 14.75C0.0231015 14.674 -5.57415e-07 14.5877 0 14.5C5.57436e-07 14.4122 0.0231037 14.326 0.0669873 14.25L7.56699 1.24998ZM7.99999 2.49998L1.36599 14H14.634L7.99999 2.49998Z" fill="#3B64FC"/>
</svg>
