<svg viewBox="0 0 16 16" fill="none" xmlns="http://www.w3.org/2000/svg">
<path d="M4.61794 7.5L5.61794 7C6.0332 6.79238 6.38245 6.47322 6.62654 6.0783C6.87063 5.68337 6.99993 5.22827 6.99994 4.764V3.75C6.99994 3.28587 7.18432 2.84075 7.51251 2.51256C7.8407 2.18437 8.28581 2 8.74994 2H10.4999C10.6326 2 10.7597 1.94732 10.8535 1.85355C10.9473 1.75979 10.9999 1.63261 10.9999 1.5C10.9999 1.36739 10.9473 1.24021 10.8535 1.14645C10.7597 1.05268 10.6326 1 10.4999 1H8.74994C8.0206 1 7.32112 1.28973 6.8054 1.80546C6.28967 2.32118 5.99994 3.02065 5.99994 3.75V4.764C6.00003 5.04261 5.92251 5.31574 5.77609 5.55277C5.62967 5.7898 5.42012 5.98137 5.17094 6.106L3.27694 7.053C3.194 7.09457 3.12426 7.1584 3.07553 7.23734C3.02679 7.31628 3.00098 7.40723 3.00098 7.5C3.00098 7.59277 3.02679 7.68372 3.07553 7.76266C3.12426 7.8416 3.194 7.90543 3.27694 7.947L5.17094 8.894C5.42012 9.01863 5.62967 9.2102 5.77609 9.44723C5.92251 9.68426 6.00003 9.95739 5.99994 10.236V12C5.99994 12.7956 6.31601 13.5587 6.87862 14.1213C7.44123 14.6839 8.20429 15 8.99994 15H10.4999C10.6326 15 10.7597 14.9473 10.8535 14.8536C10.9473 14.7598 10.9999 14.6326 10.9999 14.5C10.9999 14.3674 10.9473 14.2402 10.8535 14.1464C10.7597 14.0527 10.6326 14 10.4999 14H8.99994C8.46951 14 7.9608 13.7893 7.58573 13.4142C7.21066 13.0391 6.99994 12.5304 6.99994 12V10.236C6.99993 9.77173 6.87063 9.31663 6.62654 8.92171C6.38245 8.52678 6.0332 8.20762 5.61794 8L4.61794 7.5Z" fill="#3B64FC"/>
</svg>
