<svg viewBox="0 0 16 16" fill="none" xmlns="http://www.w3.org/2000/svg">
<path d="M10.382 8C9.96674 8.20762 9.6175 8.52678 9.37341 8.92171C9.12931 9.31663 9.00002 9.77173 9 10.236V12C9 12.5304 8.78929 13.0391 8.41421 13.4142C8.03914 13.7893 7.53043 14 7 14H5.5C5.36739 14 5.24021 14.0527 5.14645 14.1464C5.05268 14.2402 5 14.3674 5 14.5C5 14.6326 5.05268 14.7598 5.14645 14.8536C5.24021 14.9473 5.36739 15 5.5 15H7C7.79565 15 8.55871 14.6839 9.12132 14.1213C9.68393 13.5587 10 12.7956 10 12V10.236C9.99992 9.95739 10.0774 9.68426 10.2239 9.44723C10.3703 9.2102 10.5798 9.01863 10.829 8.894L12.723 7.947C12.8059 7.90543 12.8757 7.8416 12.9244 7.76266C12.9732 7.68372 12.999 7.59277 12.999 7.5C12.999 7.40723 12.9732 7.31628 12.9244 7.23734C12.8757 7.1584 12.8059 7.09457 12.723 7.053L10.829 6.106C10.5798 5.98137 10.3703 5.7898 10.2239 5.55277C10.0774 5.31574 9.99992 5.04261 10 4.764V3.75C10 3.38886 9.92887 3.03127 9.79067 2.69762C9.65247 2.36398 9.4499 2.06082 9.19454 1.80546C8.93918 1.5501 8.63602 1.34753 8.30238 1.20933C7.96873 1.07113 7.61114 1 7.25 1H5.5C5.36739 1 5.24021 1.05268 5.14645 1.14645C5.05268 1.24021 5 1.36739 5 1.5C5 1.63261 5.05268 1.75979 5.14645 1.85355C5.24021 1.94732 5.36739 2 5.5 2H7.25C7.71413 2 8.15925 2.18437 8.48744 2.51256C8.81563 2.84075 9 3.28587 9 3.75V4.764C9.00002 5.22827 9.12931 5.68337 9.37341 6.0783C9.6175 6.47322 9.96674 6.79238 10.382 7L11.382 7.5L10.382 8Z" fill="#3B64FC"/>
</svg>
