<svg viewBox="0 0 16 16" fill="none" xmlns="http://www.w3.org/2000/svg">
<path opacity="0.2" d="M3.01798 2.368C3.04691 2.26232 3.10974 2.16907 3.19683 2.10259C3.28391 2.0361 3.39042 2.00006 3.49998 2H12.5C12.6095 2.00006 12.7161 2.0361 12.8031 2.10259C12.8902 2.16907 12.9531 2.26232 12.982 2.368L15.982 13.368C16.0023 13.4422 16.0052 13.52 15.9905 13.5955C15.9758 13.671 15.9439 13.7421 15.8973 13.8032C15.8507 13.8644 15.7906 13.9139 15.7216 13.9481C15.6527 13.9822 15.5769 14 15.5 14H0.499983C0.423084 14 0.347232 13.9822 0.278323 13.9481C0.209414 13.9139 0.149306 13.8644 0.102673 13.8032C0.0560399 13.7421 0.0241388 13.671 0.00945031 13.5955C-0.00523821 13.52 -0.00231835 13.4422 0.0179828 13.368L3.01798 2.368Z" fill="#4F87FE"/>
<path d="M3.01798 2.368C3.04691 2.26232 3.10974 2.16907 3.19683 2.10259C3.28391 2.0361 3.39042 2.00006 3.49998 2H12.5C12.6095 2.00006 12.7161 2.0361 12.8031 2.10259C12.8902 2.16907 12.9531 2.26232 12.982 2.368L15.982 13.368C16.0023 13.4422 16.0052 13.52 15.9905 13.5955C15.9758 13.671 15.9439 13.7421 15.8973 13.8032C15.8507 13.8644 15.7906 13.9139 15.7216 13.9481C15.6527 13.9822 15.5769 14 15.5 14H0.499983C0.423084 14 0.347232 13.9822 0.278323 13.9481C0.209414 13.9139 0.149306 13.8644 0.102673 13.8032C0.0560399 13.7421 0.0241388 13.671 0.00945031 13.5955C-0.00523821 13.52 -0.00231835 13.4422 0.0179828 13.368L3.01798 2.368ZM3.88198 3L1.15498 13H14.845L12.118 3H3.88198Z" fill="#3B64FC"/>
</svg>
