<svg viewBox="0 0 16 16" fill="none" xmlns="http://www.w3.org/2000/svg">
<g clip-path="url(#clip0_2461_29534)">
<path opacity="0.2" d="M0.0299986 6.421C-0.00596068 6.32057 -0.0088592 6.21128 0.0217266 6.10908C0.0523123 6.00689 0.114779 5.91716 0.199999 5.853L7.7 0.1C7.78655 0.0350889 7.89181 0 8 0C8.10818 0 8.21345 0.0350889 8.3 0.1L15.8 5.85C15.8845 5.91468 15.9462 6.00465 15.976 6.10681C16.0059 6.20896 16.0024 6.31798 15.966 6.418L12.966 14.668C12.9316 14.7644 12.8685 14.8479 12.7852 14.9072C12.7018 14.9666 12.6023 14.999 12.5 15H3.5C3.39736 15 3.2972 14.9685 3.21312 14.9096C3.12903 14.8508 3.0651 14.7674 3.03 14.671L0.0299986 6.421Z" fill="#4F87FE"/>
<path d="M0.0299986 6.421C-0.00596068 6.32057 -0.0088592 6.21128 0.0217266 6.10908C0.0523123 6.00689 0.114779 5.91716 0.199999 5.853L7.7 0.1C7.78655 0.0350889 7.89181 0 8 0C8.10818 0 8.21345 0.0350889 8.3 0.1L15.8 5.85C15.8845 5.91468 15.9462 6.00465 15.976 6.10681C16.0059 6.20896 16.0024 6.31798 15.966 6.418L12.966 14.668C12.9316 14.7644 12.8685 14.8479 12.7852 14.9072C12.7018 14.9666 12.6023 14.999 12.5 15H3.5C3.39736 15 3.2972 14.9685 3.21312 14.9096C3.12903 14.8508 3.0651 14.7674 3.03 14.671L0.0299986 6.421ZM1.095 6.421L3.85 14H12.15L14.9 6.424L8 1.13L1.095 6.421Z" fill="#3B64FC"/>
</g>
<defs>
<clipPath id="clip0_2461_29534">
<rect width="16" height="16" fill="white"/>
</clipPath>
</defs>
</svg>
