<svg width="84" height="100" xmlns="http://www.w3.org/2000/svg"><g transform="translate(-.001)" fill-rule="nonzero" fill="none"><rect fill="#FFF" width="84" height="100" rx="2"/><path d="M34.476 78.453c.102-.102.238-.43.408-.984.17-.555.147-.94-.068-1.154a98.101 98.101 0 0 0-.874-.806 84.334 84.334 0 0 1-2.385-2.317l-5.922-5.922.101-.34c.046-.203.04-.334-.017-.39-.056-.057-.198-.028-.424.085l-.882.44a30.383 30.383 0 0 0-1.443-4.462c-.305-.69-.35-1.267-.136-1.731.136-.272.17-.442.102-.51-.068-.067-.232-.084-.492-.05l-2.46.356c2.42 4.163 4.129 8.508 5.125 13.033l.356-.05c-.09-1.471-.306-3.067-.645-4.786l5.142 5.142a94.78 94.78 0 0 1 2.452 2.57 985.079 985.079 0 0 0 1.485 1.605c.283.282.475.373.577.271Zm7.01-7.009c.078-.079.217-.376.415-.89.198-.515.235-.835.11-.96a46.196 46.196 0 0 0-.543-.492c-.34-.305-.888-.837-1.646-1.595l-4.344-4.344.186-.187c1.448.86 2.789 1.443 4.022 1.748 1.233.305 2.438.402 3.615.288 1.177-.113 1.838-.243 1.986-.39.056-.056.073-.141.05-.254-.294-.657-.164-1.375.39-2.156l-.203-.203c-2.794 1.73-5.974 1.946-9.537.645l4.7-4.701c.17-.17.218-.292.145-.365-.074-.074-.207-.116-.4-.127l-2.392-.221.204 2.24-3.225 3.224-2.528-2.528 1.917-1.918.934.934c.158.158.291.183.399.076.107-.108.223-.416.347-.925.125-.51.097-.854-.084-1.035l-.883-.747c-.35-.305-.707-.64-1.069-1.001l-1.85-1.85.085-.865c.034-.17.02-.286-.042-.348-.063-.063-.207-.082-.433-.06l-2.02.187.238 1.425-4.786 4.786-2.07.475c.69.6 1.403 1.268 2.138 2.003l1.51 1.51a22.087 22.087 0 0 1 1.952 2.257c.136.159.269.303.399.433s.243.147.34.051c.096-.096.245-.393.45-.89.203-.499.163-.89-.12-1.172l-.34-.34 1.8-1.798 2.528 2.528-3.801 3.802c-.51.509-1.013.945-1.51 1.307l1.34.118c.193-.418.52-.86.985-1.323l2.257-2.257c1.255 3.201 1.878 6.595 1.866 10.182l.374.034c.622-4.13.243-7.903-1.137-11.32l.085-.084 4.293 4.293c.736.736 1.279 1.29 1.63 1.663l.83.934c.216.215.363.283.442.203Zm-7.57-13.678-4.904 4.905-3.326-3.327 4.904-4.904 3.326 3.326Zm13.362-19.674c.26-.26.382-.552.365-.874-.017-.323-.162-.62-.433-.891a1.113 1.113 0 0 0-.433-.28c-.153-.051-.348-.049-.585.008-.238.057-.538.175-.9.356a21.73 21.73 0 0 0-1.391.781l.084.323a3.187 3.187 0 0 1 1.18.093c.424.107.846.314 1.264.62.283.192.566.146.849-.136Zm-4.005 9.944c.362-.045.613-.206.755-.483.141-.278.161-.637.06-1.078-.091-.34-.264-.71-.518-1.112-.255-.401-.608-.806-1.061-1.213l10.827-10.827.832 2.46.34-.067c0-1.086.073-1.907.22-2.461.147-.554.39-.99.73-1.307.237-.215.322-.379.254-.492-.068-.113-.266-.164-.594-.153l-2.613.136.17 1.527-10.71 10.709a4.774 4.774 0 0 0-.406-.306c-.136-.09-.278-.186-.425-.288l-.237.271c.407.453.724.962.95 1.528.226.565.362 1.233.407 2.002.034.351.162.637.382.857.22.22.433.32.637.297Zm7.025-6.415a.73.73 0 0 0 .187-.373 1.52 1.52 0 0 0 .017-.51 1.957 1.957 0 0 0-.153-.542 1.535 1.535 0 0 0-.322-.475c-.226-.227-.566-.311-1.018-.255-.453.057-1.126.306-2.02.747l.051.356c.815 0 1.646.323 2.495.968.328.237.582.265.763.084Zm-2.257 12.847a28.58 28.58 0 0 0 1.536-2.876c.458-.99.897-2.125 1.315-3.403.25.068.51.034.781-.102.272-.136.577-.362.917-.679a44.917 44.917 0 0 0 2.197-2.214c.685-.741 1.4-1.553 2.147-2.436.577-.667.854-1.487.832-2.46 0-.227-.04-.368-.12-.425-.078-.056-.22-.062-.424-.017-.203.046-.393.071-.568.077a1.356 1.356 0 0 1-.543-.102 2.736 2.736 0 0 1-.62-.365c-.226-.17-.509-.413-.848-.73l-.238.272c.442.554.775 1.001 1.002 1.34.226.34.376.62.45.84.073.221.073.414 0 .578-.074.164-.19.359-.349.585-.192.26-.421.546-.687.857a185.2 185.2 0 0 1-.84.976 37.797 37.797 0 0 1-1.748 1.884c-.328.328-.577.464-.747.407.329-1.12.623-2.257.883-3.411s.475-2.325.645-3.513c.056-.419.144-.8.263-1.146.119-.345.229-.59.33-.738.137-.18.182-.31.137-.39-.046-.08-.198-.113-.459-.102l-1.578.051a25.274 25.274 0 0 1-.28 3.86c-.198 1.364-.5 2.872-.908 4.523l-2.002-2.002.101-.441c.102-.351-.017-.458-.356-.323l-2.19.866c.114.09.241.2.383.33a187.875 187.875 0 0 1 .908.84c.158.148.294.278.407.391l2.223 2.223a68.372 68.372 0 0 1-1.162 3.912 30.677 30.677 0 0 1-1.129 2.893l.34.17Zm-.638-4.118.078-.09c.17-.227.204-.617.102-1.172-.045-.407-.274-.857-.687-1.349-.413-.492-1.072-1.1-1.977-1.824l-.17.271c.419.51.707 1.007.866 1.494.158.486.215 1.046.17 1.68-.023.407.056.724.237.95.18.227.402.334.662.323.362-.023.628-.147.797-.374l-.078.091Zm12.365-12.157c.17-.17.204-.43.102-.78-.102-.351-.317-.69-.645-1.019a1.349 1.349 0 0 0-.467-.297c-.186-.073-.464-.09-.831-.05-.368.04-.843.147-1.426.322-.582.175-1.338.444-2.265.806l.05.323c.815-.091 1.601-.074 2.36.05.757.125 1.521.346 2.29.662.215.102.388.145.518.128a.525.525 0 0 0 .314-.145Zm5.1 9.58c.085-.005.184-.144.297-.416.135-.271.234-.489.297-.653.062-.164.096-.294.102-.39.005-.096-.015-.167-.06-.212l-.153-.153c-.226-.181-.509-.43-.848-.747-.34-.317-.758-.724-1.256-1.222l-1.68-1.68.136-.645c.056-.373-.08-.497-.408-.373l-2.29.9c.316.27.607.528.873.772.266.243.512.478.739.704l2.545 2.545-3.513 3.513-3.462-3.462-.034-.645c0-.203-.03-.325-.093-.364-.062-.04-.184-.015-.365.076l-1.935 1.12a39.461 39.461 0 0 1 1.596 1.493l3.037 3.038-3.156 3.157-2.647-2.648.084-.56c.034-.147.026-.257-.025-.33-.051-.074-.156-.088-.314-.043l-2.257.9c.317.27.585.511.806.72.22.21.444.428.67.654l1.63 1.63c.135.135.288.293.458.474l.517.552a19.516 19.516 0 0 1 .874.993c.238.282.41.427.518.432.107.006.229-.15.365-.466a5.52 5.52 0 0 0 .246-.62c.05-.164.073-.305.068-.424a.642.642 0 0 0-.11-.33 2.311 2.311 0 0 0-.29-.34l-.118-.12 7.925-7.924.815.814c.192.193.33.286.416.28Z" fill-opacity=".26" fill="#000"/></g></svg>