<svg width="84" height="100" xmlns="http://www.w3.org/2000/svg"><g fill-rule="nonzero" fill="none"><rect fill="#FFF" width="84" height="100" rx="2"/><path d="M21.925 84.135a8.949 8.949 0 0 0-.191-3.925c-.354-1.277-1.469-2.854-3.345-4.73l-1.046-1.047 10.055-10.055c.17-.17.228-.28.176-.332-.051-.052-.19-.087-.417-.106l-1.909-.156.156 1.796-2.772 2.772-4.186-4.186 3.931-3.931c.132-.132.175-.222.127-.27-.047-.046-.136-.08-.268-.098l-1.952-.17.142 1.669-8.613 8.613c-.434.433-.853.796-1.259 1.088l1.16.142c.15-.358.42-.73.806-1.117l2.39-2.39 4.186 4.186-2.093 2.093-1.782.594c.538.48 1.052.966 1.542 1.456l1.046 1.047c1.48 1.48 2.473 2.67 2.977 3.57.505.901.804 2.058.898 3.473l.24.014Zm-.255-14.821-1.612 1.612-4.186-4.186 1.612-1.612 4.186 4.186ZM23 67.447v-4.214c.018-.34.063-.578.134-.714.07-.137.08-.231.028-.283-.052-.052-.163-.069-.332-.05l-1.754.198c.65 1.386 1.188 3.102 1.612 5.148l.311-.085Zm-6.202 5.494c.165-.165.22-.398.163-.7a1.487 1.487 0 0 0-.424-.792c-.283-.301-.795-.46-1.535-.473-.74-.015-1.539.172-2.397.558l.014.269c1.367.104 2.484.438 3.352 1.004.386.255.662.3.827.134ZM32.69 60.388c.066-.066.163-.29.29-.672.127-.382.14-.625.035-.728a28.95 28.95 0 0 0-.46-.403c-.287-.25-.746-.69-1.378-1.323l-.75-.75c.811-.075 1.471-.018 1.98.17.406.123.667.126.785.008s.142-.288.07-.51a1.572 1.572 0 0 0-.402-.629c-.198-.198-.49-.264-.877-.198-.386.066-1.032.325-1.937.778l-.594-.594 1.88-1.88c.123-.123.163-.206.12-.248-.042-.043-.143-.078-.303-.106l-1.613-.17.1 1.457-.566.565-1.301-1.3.099-.58c.019-.152.014-.241-.014-.27-.029-.028-.1-.014-.213.043l-1.739.75c.528.471.976.89 1.343 1.258l.962.962-2.093 2.093a8.57 8.57 0 0 1-1.16.99l1.061.184c.132-.34.377-.689.735-1.047l1.174-1.174a15.248 15.248 0 0 1 1.23 6.463l.283.085a11.65 11.65 0 0 0-.395-6.76l1.445 1.446c.52.522.905.917 1.157 1.185l.693.75c.17.169.287.22.353.155Zm1.443-1.81c.603-2.244.471-4.413-.396-6.506l1.16 1.16c.669.67 1.138 1.157 1.407 1.464.268.306.47.528.608.664.136.137.238.172.304.106.066-.066.165-.287.297-.664.132-.377.155-.608.07-.693-.018-.02-.165-.151-.438-.396a40.176 40.176 0 0 1-1.358-1.315L34.16 50.77l.141-.141c.736.415 1.391.707 1.966.877.575.17 1.27.27 2.086.304.816.033 1.346.044 1.591.035.245-.01.382-.028.41-.057.047-.047.043-.136-.014-.268-.16-.35.019-.915.537-1.697l-.17-.17c-1.13.51-2.163.815-3.096.92-.934.103-1.933.018-2.998-.255l2.7-2.702c.114-.113.15-.19.107-.233-.043-.042-.144-.068-.304-.078l-1.839-.226.127 1.683-1.626 1.626-1.287-1.287.127-.551c.038-.151.036-.248-.007-.29-.042-.042-.13-.035-.261.021l-1.697.82c.528.453.97.858 1.33 1.217l.932.933-.82.82c-.405.406-.787.73-1.145.976l1.046.17c.142-.33.387-.67.736-1.018.48 1.272.801 2.342.961 3.21.16.867.222 1.914.184 3.14l.255.028Zm-1.245 3.535c.123-.311.373-.655.75-1.032L40 54.717c.179-.18.23-.307.155-.382-.075-.075-.193-.118-.353-.127l-1.712-.043.128 1.542-5.261 5.26c-.396.397-.773.727-1.131.99l1.06.156Zm8.662 2.567c.062-.061.158-.318.29-.77.132-.453.167-.781.106-.984-.061-.202-.233-.445-.516-.728l-2.744-2.744 5.275-5.275c.132-.132.177-.219.135-.261-.043-.043-.158-.073-.347-.092L41.74 53.6l.17 1.866-9.263 9.263c-.396.396-.778.731-1.146 1.005l1.047.17c.113-.321.358-.67.735-1.047l4.413-4.413 2.276 2.277c.198.198.274.373.227.524-.047.15-.187.341-.418.572-.23.231-.69.587-1.378 1.068l.226.311c.745-.443 1.282-.702 1.612-.778.33-.075.641-.014.933.184.189.113.314.14.375.078ZM35.8 70.09c.415-1.075.733-2.011.955-2.808.222-.797.394-1.84.516-3.132.066-.575.17-.948.311-1.118.142-.17.189-.278.142-.325-.047-.047-.142-.075-.283-.085l-1.457.043c.264 2.922.071 5.36-.58 7.311l.396.113Zm10.26-11.11c.09-.089.085-.244-.014-.466-.099-.222-.29-.474-.572-.757a1.61 1.61 0 0 0-.97-.488c-.362-.042-.866.052-1.512.283-.646.231-1.54.644-2.68 1.238l.07.353c1.547-.396 3.06-.448 4.54-.155.406.085.674.127.806.127a.451.451 0 0 0 .333-.134Zm-4.247-10.573c.283-1.584.32-3.573.113-5.968l8.81-8.81c.142-.142.185-.24.128-.297-.056-.057-.17-.085-.34-.085l-2.319-.085.297 1.824-6.66 6.661a15.986 15.986 0 0 1-.107-1.082c-.004-.165.055-.346.177-.544.123-.198.156-.325.1-.382-.057-.057-.161-.066-.312-.028l-1.824.41c.99 2.894 1.504 5.709 1.541 8.443l.396-.057Zm8.09 8.203c2.696-2.885 4.388-5.671 5.077-8.358.509-.114 1.093-.335 1.753-.665.66-.33 1.52-.818 2.581-1.464 1.06-.646 1.638-1.016 1.733-1.11.066-.066.056-.16-.029-.283-.415-.566-.377-1.216.113-1.951l-.198-.198c-.301.339-.617.674-.947 1.004-1.584 1.584-3.182 2.71-4.794 3.38.103-.934.103-2 0-3.197-.029-.405-.02-.693.028-.862.047-.17.132-.34.255-.51l.053-.08c.074-.129.08-.224.017-.287-.075-.075-.217-.104-.424-.085l-1.782.142.127.919-3.889 3.889a17.16 17.16 0 0 0-.367-1.867l3.818-3.818.34.34c.131.131.237.157.318.077.08-.08.179-.335.297-.764.117-.429.1-.719-.05-.87l-.735-.622a17.2 17.2 0 0 1-.891-.834l-1.358-1.358.156-.551c.037-.17.033-.278-.015-.326-.047-.047-.155-.051-.325-.014l-1.725.255.113 1.131-5.586 5.586-1.513.467c.528.471.98.896 1.357 1.273l1.761 1.761c.567.57.99 1.006 1.266 1.308.31.34.49.532.537.58.208.207.356.266.446.176.09-.09.188-.292.297-.608.108-.316.155-.533.141-.65a.6.6 0 0 0-.19-.347l-.326-.325.82-.82c.773 2.658.745 5.515-.085 8.57l.297.127c.943-2.527 1.381-4.719 1.315-6.576 1.066.368 2.433.453 4.102.255-.604 2.394-2 5.062-4.186 8.004l.297.156Zm1.074-17.452-5.685 5.685-1.258-1.258 5.685-5.686 1.258 1.26Zm1.64 1.64-5.684 5.686-1.245-1.245 5.685-5.685 1.245 1.245Zm1.33 6.59c-1.753.491-3.182.59-4.285.298l.014-.07 4.101-4.102c.246 1.358.302 2.65.17 3.875Zm13.339-8.84c.113-.113.228-.352.346-.715.118-.363.087-.634-.092-.813a51.644 51.644 0 0 0-.657-.615 83.664 83.664 0 0 1-1.945-1.902l-2.206-2.206 1.669-1.669 3.012 3.012c.15.151.203.297.155.439-.047.141-.165.306-.353.495-.189.188-.448.41-.778.664l.141.198c.915-.405 1.57-.457 1.966-.155.16.104.269.127.325.07.057-.056.095-.39.114-1.004.018-.612-.175-1.121-.58-1.527l-2.984-2.984.127-.353c.047-.18.045-.295-.007-.347-.052-.052-.134-.068-.247-.05l-1.613.142.184 1.202-1.499 1.5-1.697-1.698 3.253-3.253c.16-.16.217-.264.17-.31-.048-.048-.137-.071-.27-.071l-1.781-.085.17 1.47-1.896 1.896-1.923-1.924 2.687-2.687c.132-.132.177-.219.135-.261-.043-.043-.125-.069-.248-.078l-1.669-.142.071 1.485-1.33 1.33-1.795-1.796.141-.65c.057-.17.059-.281.007-.333-.052-.052-.153-.04-.304.035l-1.923.82c.157.108.936.859 2.334 2.251l.607.606-1.669 1.669a9.276 9.276 0 0 0-.233-.729 6.151 6.151 0 0 1-.22-.714.674.674 0 0 1 .05-.417c.062-.137.069-.229.022-.276-.048-.047-.175-.033-.382.043l-1.443.48c1.113 1.396 1.97 3.121 2.574 5.177l.255-.142a21.928 21.928 0 0 0-.481-2.857l1.88-1.88 1.924 1.923-2.56 2.56c-.424.424-.834.787-1.23 1.089l1.089.07c.132-.34.396-.707.792-1.103l2.263-2.263 1.697 1.698-1.683 1.682-1.372.467c.33.292.891.835 1.683 1.626l.976.976c.99.99 1.725 1.792 2.206 2.404.283.34.471.462.566.368.094-.094.193-.278.297-.551.103-.274.158-.474.162-.601.005-.128-.068-.267-.219-.418L60.13 34.9l1.668-1.669 2.208 2.209a75.838 75.838 0 0 1 1.597 1.652l1.173 1.287c.227.226.396.283.51.17Zm6.802-6.492c.085-.084.163-.384.233-.898.071-.513.036-.921-.106-1.223-.141-.302-.462-.702-.961-1.202l-9.858-9.857.156-.58c.047-.16.047-.264 0-.311-.047-.047-.184-.024-.41.07l-1.853.722c.66.584 1.424 1.31 2.291 2.178l8.797 8.796c.254.255.377.476.367.665-.009.188-.179.448-.509.778s-.83.773-1.499 1.33l.156.211c.631-.405 1.16-.679 1.584-.82.424-.141.82-.104 1.188.113.198.104.34.113.424.028Zm-5.127-1.548c.09-.09.182-.314.276-.672.094-.358.085-.594-.028-.707l-1.683-1.626-4.328-4.328.128-.495c.037-.188.035-.304-.007-.346-.043-.043-.154-.04-.333.007l-1.838.622c.556.5 1.018.933 1.386 1.301l4.265 4.266c.56.563.97.986 1.229 1.27.288.317.455.498.502.545.198.198.342.252.431.163Z" fill-opacity=".26" fill="#000"/></g></svg>