<svg width="84" height="100" xmlns="http://www.w3.org/2000/svg"><g transform="translate(-1 -1)" fill-rule="nonzero" fill="none"><path d="M83 0H3a3 3 0 0 0-3 3v96a3 3 0 0 0 3 3h80a3 3 0 0 0 3-3V3a3 3 0 0 0-3-3Zm0 1a2 2 0 0 1 2 2v96a2 2 0 0 1-2 2H3a2 2 0 0 1-2-2V3a2 2 0 0 1 2-2h80Z"/><rect fill="#FFF" x="1" y="1" width="84" height="100" rx="2"/><path d="M17.686 30.908c.229.062.443.167.632.31a.3.3 0 0 0 .424-.068.558.558 0 0 0 .182-.437.671.671 0 0 0-.216-.445.553.553 0 0 0-.216-.14.539.539 0 0 0-.293 0 2.212 2.212 0 0 0-.45.178c-.181.09-.413.221-.7.39l.042.161c.2-.02.402-.004.595.051ZM20.94 36.147c.168-.091.322-.205.458-.339.39-.368.757-.737 1.1-1.107.343-.37.701-.776 1.073-1.218.291-.341.44-.782.416-1.23 0-.113-.02-.184-.059-.212a.28.28 0 0 0-.212-.008 1.535 1.535 0 0 1-.284.038.667.667 0 0 1-.271-.051 1.412 1.412 0 0 1-.31-.182 5.262 5.262 0 0 1-.424-.365l-.119.136c.221.277.387.5.5.67.092.13.168.271.225.42a.388.388 0 0 1 0 .289c-.05.103-.107.2-.174.293-.096.133-.21.276-.344.429l-.42.488a21.821 21.821 0 0 1-.874.941c-.164.164-.289.232-.373.2.164-.56.311-1.129.441-1.706s.237-1.163.322-1.756c.025-.195.069-.387.132-.573.04-.13.095-.253.165-.369.068-.091.091-.156.068-.195-.023-.039-.1-.057-.229-.051l-.789.025c.003.646-.044 1.291-.14 1.93-.099.68-.25 1.434-.454 2.261l-1-1 .051-.221c.051-.175-.008-.228-.178-.161l-1.095.433c.057.045.12.1.191.165l.221.2.233.216c.08.074.146.139.2.195l1.11 1.11a33.196 33.196 0 0 1-.581 1.956c-.163.492-.352.975-.564 1.447l.17.085c.283-.464.54-.944.768-1.438.252-.554.471-1.121.658-1.7a.539.539 0 0 0 .392-.045Z" fill-opacity=".26" fill="#000"/><path d="M27.33 35.85c.1.1.165.143.208.14.043-.003.092-.072.148-.208.056-.136.117-.245.148-.327a.72.72 0 0 0 .051-.195.132.132 0 0 0-.03-.106l-.076-.076a7.88 7.88 0 0 1-.424-.373 26.83 26.83 0 0 1-.628-.611l-.84-.84.068-.322c.028-.187-.039-.25-.2-.187l-1.146.45c.158.136.3.264.437.386s.256.239.369.352l1.273 1.273-1.756 1.756-1.732-1.731-.017-.322c0-.1-.016-.163-.047-.182-.031-.019-.092-.007-.182.038l-.967.56c.317.283.583.532.8.747L24.3 37.59l-1.578 1.578-1.322-1.324.042-.28a.2.2 0 0 0-.013-.165c-.026-.036-.078-.044-.157-.021l-1.129.45c.158.136.293.256.4.361.107.105.222.214.335.327l.815.815c.068.068.144.147.229.238l.259.276a9.197 9.197 0 0 1 .437.496c.119.141.2.214.259.216.059.002.115-.075.182-.233.048-.1.089-.204.123-.31a.639.639 0 0 0 .034-.212.319.319 0 0 0-.055-.165 1.208 1.208 0 0 0-.144-.17l-.059-.059 3.963-3.963.409.405ZM7.836 48.929a18.28 18.28 0 0 0-.322-2.393l2.571 2.571c.328.328.737.757 1.226 1.286l.742.8c.141.141.238.187.289.136a1.56 1.56 0 0 0 .2-.492c.085-.277.074-.47-.034-.577-.017-.017-.163-.15-.437-.4s-.67-.637-1.188-1.16l-2.961-2.96.051-.17c.023-.1.02-.167-.008-.195-.028-.028-.1-.014-.212.042l-.443.22a15.183 15.183 0 0 0-.721-2.232 1.037 1.037 0 0 1-.068-.865c.067-.133.084-.218.051-.255-.034-.034-.116-.042-.246-.025l-1.23.178a22.534 22.534 0 0 1 2.563 6.517l.177-.026ZM22.247 30.852a4.328 4.328 0 0 1 1.179.025c.393.066.778.178 1.146.331a.5.5 0 0 0 .259.064.264.264 0 0 0 .157-.072c.09-.11.11-.26.051-.39a1.207 1.207 0 0 0-.322-.509.665.665 0 0 0-.233-.148.918.918 0 0 0-.416-.025c-.242.032-.48.086-.713.161-.291.088-.669.221-1.133.4l.025.163ZM18.9 36.648a1.33 1.33 0 0 0-.344-.675 7.2 7.2 0 0 0-.989-.912l-.085.136c.19.22.336.473.433.747.082.272.11.557.085.84a.677.677 0 0 0 .119.475c.076.106.2.167.331.161a.509.509 0 0 0 .4-.187.769.769 0 0 0 .05-.585Z" fill-opacity=".26" fill="#000"/><path d="M16.231 35.545c.01.16.078.313.191.428a.4.4 0 0 0 .318.148c.16-.009.303-.1.378-.242a.785.785 0 0 0 .03-.539 2.047 2.047 0 0 0-.259-.556 2.983 2.983 0 0 0-.53-.607l5.414-5.414.416 1.23.17-.034a5.162 5.162 0 0 1 .11-1.23c.057-.248.184-.474.365-.653.119-.107.161-.189.127-.246-.034-.057-.133-.082-.3-.076l-1.307.068.085.764-5.351 5.354a2.464 2.464 0 0 0-.2-.153 10.16 10.16 0 0 1-.212-.144l-.119.136c.203.224.364.483.475.764.119.321.186.66.199 1.002ZM8.515 43.515c.35.354.676.731.976 1.129.068.079.134.151.2.216s.122.073.17.025a1.8 1.8 0 0 0 .225-.445.5.5 0 0 0-.059-.586l-.17-.17.9-.9 1.264 1.264-1.9 1.9a6.381 6.381 0 0 1-.755.653l.67.059c.123-.247.289-.47.489-.66l1.129-1.129c.632 1.622.949 3.35.933 5.091l.187.017c.328-1.903.131-3.86-.569-5.66l.042-.042 2.147 2.147c.368.368.64.645.815.832l.416.467c.107.107.181.141.221.1a1.84 1.84 0 0 0 .208-.445c.099-.257.117-.416.055-.479a21.945 21.945 0 0 1-1.095-1.046l-2.172-2.172.093-.093a7.583 7.583 0 0 0 2.011.874c.59.15 1.2.2 1.807.144.34 0 .678-.065.993-.195a.132.132 0 0 0 .025-.127 1.054 1.054 0 0 1 .195-1.078l-.1-.1c-1.445.87-3.22.99-4.769.322l2.35-2.35c.085-.085.109-.146.072-.182a.307.307 0 0 0-.2-.064l-1.2-.11.1 1.12-1.612 1.612-1.264-1.264.959-.959.467.467c.079.079.146.092.2.038a1.2 1.2 0 0 0 .174-.462c.062-.255.048-.427-.042-.518l-.441-.373c-.175-.153-.354-.32-.535-.5l-.925-.925.042-.433c.017-.085.01-.143-.021-.174s-.103-.041-.216-.03L10 38.416l.119.713-2.393 2.393-1.036.237c.345.3.701.633 1.069 1l.756.756Zm1.885-4.191 1.663 1.663-2.453 2.452-1.663-1.663 2.453-2.452Z" fill-opacity=".26" fill="#000"/><path d="M19.608 31.837a3.617 3.617 0 0 0-1.01.373l.025.178c.458.019.896.189 1.247.484.164.119.291.133.382.042a.364.364 0 0 0 .093-.187.745.745 0 0 0 .008-.255.975.975 0 0 0-.076-.271.764.764 0 0 0-.161-.238.581.581 0 0 0-.508-.126ZM53 5.784a.677.677 0 0 0 .119.475c.076.106.2.167.331.161a.509.509 0 0 0 .4-.187.769.769 0 0 0 .051-.585 1.33 1.33 0 0 0-.344-.675 7.2 7.2 0 0 0-.989-.912l-.085.136c.19.22.336.473.433.747.082.272.11.557.084.84ZM55.881 7.515l.815.815c.068.068.144.147.229.238l.259.276a9.197 9.197 0 0 1 .437.496c.119.141.205.214.259.216.054.002.115-.075.182-.233.048-.1.089-.204.123-.31a.64.64 0 0 0 .033-.213.319.319 0 0 0-.055-.165 1.208 1.208 0 0 0-.144-.17l-.059-.059 3.963-3.963.407.407c.1.1.165.143.208.14.043-.003.092-.072.148-.208.056-.136.117-.245.148-.327a.72.72 0 0 0 .051-.2.132.132 0 0 0-.03-.106l-.076-.076a7.88 7.88 0 0 1-.424-.373 26.83 26.83 0 0 1-.628-.611l-.84-.84.068-.322c.028-.187-.039-.25-.2-.187l-1.146.45c.158.136.3.264.437.386s.256.239.369.352l1.273 1.273-1.76 1.761L58.2 4.231l-.017-.323c0-.1-.016-.163-.047-.182-.031-.019-.092-.007-.182.038l-.967.56c.317.283.584.532.8.747L59.3 6.59l-1.578 1.578L56.4 6.844l.042-.28a.2.2 0 0 0-.013-.165c-.026-.036-.078-.044-.157-.021l-1.129.45c.158.136.293.256.4.361.107.105.225.211.338.326ZM50.883 2.788a10.16 10.16 0 0 1-.212-.144l-.119.136c.203.224.364.483.475.764.12.32.187.658.2 1 .01.16.078.313.191.428a.4.4 0 0 0 .318.148c.16-.009.303-.1.378-.242a.785.785 0 0 0 .03-.539 2.047 2.047 0 0 0-.259-.556 2.983 2.983 0 0 0-.53-.607L53.537 1h-.509l-1.941 1.941a2.71 2.71 0 0 0-.204-.153ZM42.836 17.929a18.28 18.28 0 0 0-.322-2.393l2.571 2.571c.328.328.737.757 1.226 1.286l.742.8c.141.141.238.187.289.136a1.56 1.56 0 0 0 .2-.492c.085-.277.073-.47-.034-.577a33.129 33.129 0 0 1-1.625-1.56l-2.961-2.96.051-.17c.023-.1.02-.167-.008-.195-.028-.028-.1-.014-.212.042l-.441.221a15.184 15.184 0 0 0-.721-2.232 1.037 1.037 0 0 1-.068-.865c.067-.133.084-.218.051-.255-.034-.034-.116-.042-.246-.025l-1.23.178a22.534 22.534 0 0 1 2.563 6.517l.175-.027Z" fill-opacity=".26" fill="#000"/><path d="m55.363 3.908-1-1 .051-.221c.05-.175-.009-.228-.178-.161l-1.1.433c.057.045.12.1.191.165l.221.2.233.216c.079.074.145.139.2.195L55.1 4.85a33.196 33.196 0 0 1-.581 1.956c-.163.492-.352.975-.564 1.447l.17.085c.283-.464.54-.944.768-1.438.252-.554.471-1.121.658-1.7a.535.535 0 0 0 .39-.051c.168-.091.322-.205.458-.339.39-.368.757-.737 1.1-1.107.343-.37.701-.776 1.073-1.218.291-.341.44-.782.416-1.23 0-.113-.02-.184-.059-.212a.28.28 0 0 0-.212-.008 1.535 1.535 0 0 1-.284.038.667.667 0 0 1-.271-.051c-.013-.007-.026-.022-.036-.022h-.518c.077.1.145.2.2.278.092.13.168.271.225.42a.388.388 0 0 1 0 .289c-.05.103-.107.2-.174.293-.096.133-.21.276-.344.429l-.42.488a21.821 21.821 0 0 1-.873.94c-.164.164-.289.232-.373.2.164-.56.311-1.129.441-1.706.121-.537.218-1.084.3-1.636h-.7c-.021.214-.039.425-.071.647-.1.685-.253 1.44-.456 2.266Z" fill-opacity=".26" fill="#000"/><path d="M53.624 1.388c.458.019.896.189 1.247.484.164.119.291.133.382.042a.364.364 0 0 0 .093-.187.745.745 0 0 0 .008-.255.975.975 0 0 0-.076-.271.769.769 0 0 0-.137-.2h-1.066c-.145.058-.3.121-.477.21l.026.177ZM43.515 12.515c.35.354.676.731.976 1.129.068.079.134.151.2.216s.122.074.17.026a1.8 1.8 0 0 0 .225-.445.5.5 0 0 0-.059-.586l-.17-.17.9-.9 1.264 1.264-1.9 1.9a6.382 6.382 0 0 1-.755.653l.67.059c.123-.247.289-.47.489-.661l1.129-1.129c.632 1.622.949 3.35.933 5.091l.187.017c.328-1.903.131-3.86-.569-5.66l.042-.042 2.147 2.147c.368.368.64.645.815.832l.416.467c.107.107.181.141.221.1a1.84 1.84 0 0 0 .208-.445c.099-.257.117-.416.055-.479a21.945 21.945 0 0 1-1.095-1.046l-2.172-2.172.093-.093a7.583 7.583 0 0 0 2.011.874c.59.15 1.2.2 1.807.144.34 0 .678-.065.993-.195a.132.132 0 0 0 .025-.127 1.054 1.054 0 0 1 .195-1.078l-.1-.1c-1.445.87-3.22.99-4.769.322l2.35-2.35c.085-.085.109-.146.072-.182a.307.307 0 0 0-.2-.064l-1.2-.11.1 1.12-1.612 1.612-1.264-1.264.959-.959.467.467c.079.079.146.092.2.038a1.2 1.2 0 0 0 .174-.462c.062-.255.048-.427-.042-.518l-.441-.373c-.175-.153-.354-.32-.535-.5L46.2 7.96l.042-.433c.017-.085.01-.143-.021-.174-.03-.03-.103-.04-.216-.03L45 7.416l.119.713-2.393 2.393-1.035.238c.345.3.702.633 1.069 1l.755.755ZM45.4 8.324l1.663 1.663-2.453 2.452-1.663-1.663L45.4 8.324ZM50.883 83.788a10.16 10.16 0 0 1-.212-.144l-.119.136c.203.224.364.483.475.764.12.32.187.658.2 1 .01.16.078.313.191.428a.4.4 0 0 0 .318.148c.16-.009.303-.1.378-.242a.785.785 0 0 0 .03-.539 2.047 2.047 0 0 0-.259-.556 2.984 2.984 0 0 0-.53-.607l5.414-5.414.416 1.23.17-.034a5.162 5.162 0 0 1 .11-1.23c.057-.248.184-.474.365-.653.119-.107.161-.189.127-.246-.034-.057-.133-.082-.3-.076l-1.307.068.085.764-5.347 5.355a3.273 3.273 0 0 0-.205-.152ZM57.247 80.852c.393-.045.79-.037 1.18.025.393.066.778.177 1.146.331a.5.5 0 0 0 .259.064.264.264 0 0 0 .157-.072c.09-.11.11-.26.051-.39a1.207 1.207 0 0 0-.322-.509.665.665 0 0 0-.233-.148.918.918 0 0 0-.416-.025c-.242.033-.48.087-.713.161-.291.088-.669.221-1.133.4l.024.163ZM47.511 100.261a35.76 35.76 0 0 1-1.629-1.561l-2.961-2.961.051-.17c.023-.1.02-.167-.008-.195-.028-.028-.1-.014-.212.042l-.441.221a15.184 15.184 0 0 0-.721-2.232 1.037 1.037 0 0 1-.068-.865c.067-.133.084-.218.051-.255-.034-.034-.116-.042-.246-.025l-1.23.178a22.534 22.534 0 0 1 2.563 6.517l.178-.025a18.28 18.28 0 0 0-.322-2.393l2.571 2.571c.328.328.737.757 1.226 1.286l.562.607h.617c.019-.054.035-.094.056-.162.082-.278.071-.47-.037-.578Z" fill-opacity=".26" fill="#000"/><path d="M52.866 93.108c-1.445.87-3.22.99-4.769.322l2.35-2.35c.085-.085.109-.146.072-.182a.307.307 0 0 0-.2-.064l-1.2-.11.1 1.12-1.612 1.612-1.257-1.264.959-.959.467.467c.079.079.146.092.2.038a1.2 1.2 0 0 0 .174-.462c.062-.255.048-.427-.042-.518l-.441-.373c-.175-.153-.354-.32-.535-.5l-.925-.925.042-.433c.017-.085.01-.143-.021-.174-.03-.031-.103-.041-.216-.03L45 88.416l.119.713-2.393 2.393-1.035.238c.345.3.702.633 1.069 1l.755.755c.35.354.676.731.976 1.129.068.079.134.151.2.216s.122.074.17.026a1.8 1.8 0 0 0 .225-.445.5.5 0 0 0-.059-.586l-.17-.17.9-.9 1.264 1.264-1.9 1.9a6.382 6.382 0 0 1-.755.653l.67.059c.123-.247.289-.47.489-.661l1.129-1.129c.632 1.622.949 3.35.933 5.091l.187.017c.328-1.903.131-3.86-.569-5.66l.042-.042 2.147 2.147c.368.368.64.645.815.832l.416.467c.107.107.181.141.221.1a1.84 1.84 0 0 0 .208-.445c.099-.257.117-.416.055-.479a21.945 21.945 0 0 1-1.095-1.046l-2.172-2.172.093-.093a7.583 7.583 0 0 0 2.011.874c.59.15 1.2.2 1.807.144.34 0 .678-.065.993-.195a.132.132 0 0 0 .025-.127 1.054 1.054 0 0 1 .195-1.078l-.1-.098Zm-8.257.331-1.663-1.663 2.454-2.452 1.663 1.663-2.454 2.452ZM62.779 85.078a7.88 7.88 0 0 1-.424-.373 26.83 26.83 0 0 1-.628-.611l-.84-.84.068-.322c.028-.187-.039-.249-.2-.187l-1.146.45c.158.136.3.264.437.386s.256.239.369.352l1.273 1.273-1.756 1.756-1.732-1.731-.017-.322c0-.1-.016-.163-.047-.182-.031-.019-.092-.007-.182.038l-.967.56c.317.283.584.532.8.747L59.3 87.59l-1.578 1.578-1.322-1.324.042-.28a.2.2 0 0 0-.013-.165c-.026-.036-.078-.044-.157-.021l-1.129.45c.158.136.293.256.4.361.107.105.222.214.335.327l.815.815c.068.068.144.147.229.238l.259.276a9.197 9.197 0 0 1 .437.496c.119.141.205.214.259.216.054.002.115-.075.182-.233.048-.1.089-.204.123-.31a.614.614 0 0 0 .034-.212.319.319 0 0 0-.055-.165 1.208 1.208 0 0 0-.144-.17l-.059-.059 3.963-3.963.407.407c.1.1.165.143.208.14.043-.003.092-.072.148-.208.056-.136.117-.245.148-.327a.72.72 0 0 0 .051-.195.132.132 0 0 0-.03-.106l-.074-.078ZM53.492 80.127a.549.549 0 0 0-.293 0 2.212 2.212 0 0 0-.45.178c-.18.091-.414.221-.7.39l.042.161c.198-.022.398-.006.59.047.229.062.443.167.632.31a.3.3 0 0 0 .424-.068.558.558 0 0 0 .182-.437.676.676 0 0 0-.216-.445.536.536 0 0 0-.211-.136ZM54.608 81.837a3.617 3.617 0 0 0-1.01.373l.025.178c.458.019.896.189 1.247.484.164.12.291.133.382.042a.364.364 0 0 0 .093-.187.744.744 0 0 0 .008-.255.991.991 0 0 0-.076-.272.782.782 0 0 0-.161-.238.584.584 0 0 0-.508-.125Z" fill-opacity=".26" fill="#000"/><path d="M55.94 86.147c.168-.091.322-.205.458-.339.39-.368.757-.737 1.1-1.107.343-.37.701-.776 1.073-1.218.291-.341.44-.782.416-1.23 0-.113-.02-.184-.059-.212a.279.279 0 0 0-.212-.008 1.535 1.535 0 0 1-.284.038.674.674 0 0 1-.272-.051 1.412 1.412 0 0 1-.31-.182 5.263 5.263 0 0 1-.424-.365l-.119.136c.221.277.387.5.5.67.092.13.168.271.225.42a.388.388 0 0 1 0 .289c-.049.103-.107.2-.174.293-.096.13-.21.273-.344.429l-.42.488a21.821 21.821 0 0 1-.874.941c-.164.164-.289.232-.373.2.164-.56.311-1.129.441-1.706s.237-1.163.322-1.756c.025-.195.069-.387.132-.573.04-.13.095-.253.165-.369.068-.091.09-.156.068-.195-.022-.039-.1-.057-.229-.051l-.789.025c.003.646-.044 1.291-.14 1.93-.099.68-.25 1.434-.454 2.261l-1-1 .051-.221c.05-.175-.009-.229-.178-.161l-1.1.433c.057.045.12.1.191.165l.221.2.233.216c.079.074.145.139.2.195L55.1 85.85a33.196 33.196 0 0 1-.581 1.956c-.163.492-.352.975-.564 1.447l.17.085c.283-.464.54-.944.768-1.438.252-.554.471-1.121.658-1.7.132.032.27.013.389-.053Z" fill-opacity=".26" fill="#000"/><path d="M53.552 85.973a7.2 7.2 0 0 0-.989-.912l-.085.136c.19.22.336.473.433.747.082.272.11.557.085.84a.677.677 0 0 0 .119.475c.076.106.2.167.331.161a.509.509 0 0 0 .4-.187.771.771 0 0 0 .051-.586 1.339 1.339 0 0 0-.345-.674ZM84.955 58.253l.045.023v-.131l-.045.108ZM84.331 53.124l.221.2.233.216c.08.074.146.139.2.195l.015.015v-1.132l-.86.34c.06.042.12.1.191.166ZM78.074 68.858a44.028 44.028 0 0 1-1.192-1.158l-2.961-2.961.051-.17c.023-.1.02-.167-.008-.195-.028-.028-.1-.014-.212.042l-.441.221a15.183 15.183 0 0 0-.721-2.232 1.037 1.037 0 0 1-.068-.865c.067-.133.084-.218.051-.255-.034-.034-.116-.042-.246-.025l-1.23.178a22.534 22.534 0 0 1 2.563 6.517l.178-.025a18.28 18.28 0 0 0-.322-2.393l2.571 2.571c.328.328.737.757 1.226 1.286l.742.8c.141.141.238.187.289.136a1.56 1.56 0 0 0 .2-.492c.085-.277.074-.47-.034-.577-.02-.019-.165-.153-.44-.4l.004-.003ZM84.624 51.388c.127.002.253.019.376.05v-.406c-.127.053-.249.1-.4.177l.024.179ZM84.552 54.973a7.2 7.2 0 0 0-.989-.912l-.085.136c.19.22.336.473.433.747.082.272.11.557.085.84a.677.677 0 0 0 .119.475c.076.106.2.167.331.161a.509.509 0 0 0 .4-.187.769.769 0 0 0 .051-.585 1.338 1.338 0 0 0-.345-.675Z" fill-opacity=".26" fill="#000"/><path d="M81.883 52.788a10.16 10.16 0 0 1-.212-.144l-.119.136c.203.224.364.483.475.764.12.32.187.658.2 1 .01.16.078.313.191.428a.4.4 0 0 0 .318.148c.16-.009.303-.1.378-.242a.785.785 0 0 0 .03-.539 2.047 2.047 0 0 0-.259-.556 2.983 2.983 0 0 0-.53-.607L85 50.537v-.509l-2.913 2.913a2.71 2.71 0 0 0-.204-.153ZM83.686 49.908c.229.062.443.167.632.31a.3.3 0 0 0 .424-.068.558.558 0 0 0 .182-.437.676.676 0 0 0-.216-.445.552.552 0 0 0-.216-.14.539.539 0 0 0-.293 0 2.212 2.212 0 0 0-.45.178c-.181.09-.413.221-.7.39l.042.161c.2-.02.402-.004.595.051ZM83.866 62.108c-1.445.87-3.22.99-4.769.322l2.35-2.35c.085-.085.109-.146.072-.182a.307.307 0 0 0-.2-.064l-1.2-.11.1 1.12-1.612 1.612-1.257-1.264.959-.959.467.467c.079.079.146.092.2.038a1.2 1.2 0 0 0 .174-.462c.062-.255.048-.427-.042-.518l-.441-.373c-.175-.153-.354-.32-.535-.5l-.925-.925.042-.433c.017-.085.01-.143-.021-.174-.03-.031-.103-.041-.216-.03L76 57.416l.119.713-2.393 2.393-1.035.238c.345.3.702.633 1.069 1l.755.755c.35.354.676.731.976 1.129.068.079.134.151.2.216s.122.073.17.025a1.8 1.8 0 0 0 .225-.445.5.5 0 0 0-.059-.586l-.17-.17.9-.9 1.264 1.264-1.9 1.9a6.382 6.382 0 0 1-.755.653l.67.059c.123-.247.289-.47.489-.66l1.129-1.129c.632 1.622.949 3.35.933 5.091l.187.017c.328-1.903.131-3.86-.569-5.66l.042-.042 2.147 2.147c.368.368.64.645.815.832l.416.467c.107.107.181.141.221.1a1.84 1.84 0 0 0 .208-.445c.099-.257.117-.416.055-.479a21.945 21.945 0 0 1-1.095-1.046l-2.172-2.172.093-.093a7.583 7.583 0 0 0 2.011.874c.59.15 1.2.2 1.807.144.34 0 .678-.065.993-.195a.132.132 0 0 0 .025-.127 1.054 1.054 0 0 1 .195-1.078l-.1-.098Zm-8.257.331-1.663-1.663 2.454-2.452 1.663 1.663-2.454 2.452ZM3.31 96.449l.742.8c.141.141.238.187.289.136a1.56 1.56 0 0 0 .2-.492c.085-.277.073-.469-.034-.577-.017-.017-.163-.15-.437-.4s-.67-.636-1.188-1.159L1 92.875v1.205l1.084 1.084c.328.328.737.756 1.226 1.285ZM1.69 90.917c.065.065.122.074.17.025.095-.137.17-.287.225-.445a.5.5 0 0 0-.059-.585l-.17-.17.9-.9 1.264 1.264-1.9 1.9a6.382 6.382 0 0 1-.755.653l.67.059c.124-.248.29-.472.492-.662l1.129-1.129c.632 1.622.949 3.35.933 5.091l.187.017c.328-1.903.132-3.86-.568-5.66l.042-.042 2.147 2.147c.368.368.64.645.815.832l.416.467c.107.107.181.141.221.1.089-.138.159-.288.208-.445.099-.257.117-.416.055-.479a21.945 21.945 0 0 1-1.095-1.046l-2.174-2.166.093-.093a7.583 7.583 0 0 0 2.011.874c.59.15 1.2.2 1.807.144.34 0 .678-.065.993-.195a.132.132 0 0 0 .025-.127 1.054 1.054 0 0 1 .195-1.078l-.1-.1a5.23 5.23 0 0 1-4.769.322l2.35-2.35c.085-.085.109-.146.072-.182a.307.307 0 0 0-.2-.064l-1.2-.11.1 1.12-1.607 1.61-1.264-1.264.959-.959.467.467c.079.079.146.092.2.038a1.2 1.2 0 0 0 .174-.462c.062-.255.048-.427-.042-.518l-.441-.373c-.175-.153-.354-.32-.535-.5l-.931-.926.042-.433c.017-.085.01-.143-.021-.174-.03-.031-.103-.041-.216-.03L2 84.473l.119.713L1 86.3v.475l1.4-1.4 1.663 1.663L1.609 89.5 1 88.887V90.1c.164.19.328.391.49.605.068.079.135.151.2.216v-.004ZM16.482 76.209a.918.918 0 0 0-.416-.025c-.242.033-.48.087-.713.161-.291.088-.669.221-1.133.4l.025.161a4.328 4.328 0 0 1 1.179.025c.393.066.778.178 1.146.331a.5.5 0 0 0 .259.064.264.264 0 0 0 .157-.072c.09-.11.11-.26.051-.39a1.207 1.207 0 0 0-.322-.509.658.658 0 0 0-.233-.146ZM8.888 80.842a2.984 2.984 0 0 0-.53-.607l5.414-5.414.416 1.23.17-.034a5.162 5.162 0 0 1 .11-1.23c.057-.248.184-.474.365-.653.119-.107.161-.19.127-.246-.034-.056-.133-.082-.3-.076l-1.307.068.085.764L8.087 80a2.463 2.463 0 0 0-.2-.153L7.67 79.7l-.119.136c.203.224.364.483.475.764.12.32.187.658.2 1 .01.161.079.313.191.429a.4.4 0 0 0 .318.148c.16-.009.303-.1.378-.242a.785.785 0 0 0 .03-.539 2.047 2.047 0 0 0-.255-.554Z" fill-opacity=".26" fill="#000"/><path d="M10.2 76.188a2.212 2.212 0 0 0-.45.178c-.181.09-.413.221-.7.39l.042.161c.198-.022.398-.006.59.047.229.062.443.167.632.31a.3.3 0 0 0 .424-.068.558.558 0 0 0 .182-.437.671.671 0 0 0-.216-.445.553.553 0 0 0-.216-.14.526.526 0 0 0-.288.004ZM11.607 77.893a3.617 3.617 0 0 0-1.01.373l.025.178c.458.019.896.189 1.247.484.164.12.291.133.382.042a.364.364 0 0 0 .093-.187.744.744 0 0 0 .008-.255 1.027 1.027 0 0 0-.076-.272.753.753 0 0 0-.161-.238.586.586 0 0 0-.508-.125Z" fill-opacity=".26" fill="#000"/><path d="M12.94 82.2c.168-.091.322-.205.458-.339.39-.368.757-.737 1.1-1.107.343-.37.7-.775 1.072-1.214.29-.342.44-.782.416-1.23 0-.113-.02-.184-.059-.212a.28.28 0 0 0-.212-.008 1.535 1.535 0 0 1-.284.038.674.674 0 0 1-.272-.051 1.39 1.39 0 0 1-.31-.182 5.263 5.263 0 0 1-.424-.365l-.119.136c.221.277.388.5.5.67.092.13.168.271.225.42a.388.388 0 0 1 0 .289c-.05.103-.107.2-.174.293-.096.13-.21.273-.344.429l-.42.488a21.821 21.821 0 0 1-.874.941c-.164.164-.288.23-.373.2.164-.56.311-1.129.441-1.706s.237-1.163.322-1.756c.025-.195.069-.387.132-.573.04-.127.097-.248.166-.361.068-.091.091-.156.068-.195-.023-.039-.1-.057-.229-.051l-.789.025c.003.646-.044 1.291-.14 1.93-.099.68-.25 1.434-.454 2.261l-1-1 .051-.221c.05-.175-.009-.229-.178-.161l-1.1.433c.057.045.12.1.191.165l.221.2.233.216c.08.074.146.139.2.195l1.119 1.112a33.196 33.196 0 0 1-.581 1.956c-.163.492-.352.975-.564 1.447l.17.085c.283-.464.54-.944.768-1.438.252-.554.471-1.121.658-1.7.133.03.271.008.389-.059Z" fill-opacity=".26" fill="#000"/><path d="M10.551 82.03a7.2 7.2 0 0 0-.989-.912l-.085.136c.19.22.337.472.433.746.082.272.11.557.085.84a.677.677 0 0 0 .119.475c.076.106.2.167.331.161a.509.509 0 0 0 .4-.187.769.769 0 0 0 .051-.585 1.331 1.331 0 0 0-.345-.674ZM19.779 81.135a7.88 7.88 0 0 1-.424-.373 26.83 26.83 0 0 1-.628-.611l-.84-.84.068-.322c.028-.187-.039-.249-.2-.187l-1.146.45c.158.136.3.264.437.386s.256.239.369.352l1.273 1.273-1.756 1.756-1.732-1.731-.017-.322c0-.1-.016-.163-.047-.182-.031-.019-.092-.007-.182.038l-.967.56c.317.283.584.532.8.747l1.513 1.519-1.578 1.578L13.4 83.9l.042-.28a.2.2 0 0 0-.013-.165c-.025-.037-.078-.044-.157-.021l-1.129.45c.158.136.293.256.4.361.107.105.222.214.335.327l.815.815c.068.068.144.147.229.238l.259.276a12.895 12.895 0 0 1 .437.497c.119.141.2.214.259.216.059.002.115-.075.182-.233.048-.1.089-.204.123-.31a.639.639 0 0 0 .034-.212.319.319 0 0 0-.055-.165 1.208 1.208 0 0 0-.144-.17l-.059-.059 3.965-3.965.407.407c.1.1.165.143.208.14.043-.003.092-.072.148-.208.056-.136.117-.245.148-.327a.72.72 0 0 0 .051-.195.132.132 0 0 0-.03-.106l-.076-.076ZM39.865 62.165a5.23 5.23 0 0 1-4.769.322l2.35-2.35c.085-.085.109-.146.072-.182a.307.307 0 0 0-.2-.064l-1.2-.11.1 1.12-1.612 1.612-1.264-1.264.959-.959.467.467c.079.079.146.092.2.038a1.2 1.2 0 0 0 .174-.462c.062-.255.048-.427-.042-.518l-.441-.373c-.175-.153-.354-.32-.535-.5l-.925-.925.042-.433c.017-.085.01-.143-.021-.174-.03-.031-.103-.041-.216-.03L32 57.472l.119.713-2.393 2.393-1.035.238c.345.3.701.633 1.069 1l.755.755c.35.354.676.731.976 1.129.068.079.134.151.2.216s.122.074.17.025c.095-.137.17-.287.225-.445a.5.5 0 0 0-.059-.585l-.17-.17.9-.9 1.264 1.264-1.9 1.9a6.382 6.382 0 0 1-.755.653l.67.059c.124-.248.29-.472.492-.662l1.129-1.129c.632 1.622.949 3.35.933 5.091l.187.017c.328-1.903.132-3.86-.568-5.66l.042-.042 2.149 2.15c.368.368.64.645.815.832l.416.467c.107.107.181.141.221.1.089-.138.159-.288.208-.445.099-.257.117-.416.055-.479a21.945 21.945 0 0 1-1.095-1.046l-2.172-2.172.093-.093a7.583 7.583 0 0 0 2.011.874c.59.15 1.2.2 1.807.144.34 0 .678-.065.993-.195a.132.132 0 0 0 .025-.127 1.054 1.054 0 0 1 .195-1.078l-.107-.099Zm-8.256.331-1.663-1.663 2.454-2.452 1.663 1.663-2.454 2.452ZM49.329 54.907c.1.1.165.143.208.14.043-.003.092-.072.148-.208.056-.136.117-.245.148-.327a.72.72 0 0 0 .051-.195.132.132 0 0 0-.03-.106l-.076-.076a7.88 7.88 0 0 1-.424-.373 26.83 26.83 0 0 1-.628-.611l-.84-.84.068-.322c.028-.187-.039-.25-.2-.187l-1.146.45c.158.136.3.264.437.386s.256.239.369.352l1.273 1.273-1.756 1.756-1.731-1.731-.017-.322c0-.1-.016-.163-.047-.182-.031-.019-.092-.007-.182.038l-.967.56c.317.283.584.532.8.747l1.513 1.519-1.578 1.578L43.4 56.9l.042-.28a.2.2 0 0 0-.013-.165c-.025-.037-.078-.044-.157-.021l-1.129.45c.158.136.293.256.4.361.107.105.222.214.335.327l.815.815c.068.068.144.147.229.238l.259.276a12.895 12.895 0 0 1 .437.497c.119.141.205.214.259.216.054.002.115-.075.182-.233.048-.1.089-.204.123-.31a.639.639 0 0 0 .034-.212.319.319 0 0 0-.055-.165 1.208 1.208 0 0 0-.144-.17l-.059-.059 3.964-3.965.407.407ZM40.551 55.03a7.2 7.2 0 0 0-.989-.912l-.085.136c.19.22.336.473.433.746.082.272.11.557.085.84a.677.677 0 0 0 .119.475c.076.106.2.167.331.161a.509.509 0 0 0 .4-.187.771.771 0 0 0 .051-.586 1.331 1.331 0 0 0-.345-.673Z" fill-opacity=".26" fill="#000"/><path d="M42.549 55.255a.535.535 0 0 0 .39-.051c.168-.091.322-.205.458-.339.39-.368.757-.737 1.1-1.107.343-.37.701-.776 1.073-1.218.29-.342.44-.782.416-1.23 0-.113-.02-.184-.059-.212a.28.28 0 0 0-.212-.008 1.535 1.535 0 0 1-.284.038.674.674 0 0 1-.272-.051 1.39 1.39 0 0 1-.31-.182 5.262 5.262 0 0 1-.424-.365l-.119.136c.221.277.388.5.5.67.092.13.168.271.225.42a.388.388 0 0 1 0 .289c-.05.103-.107.2-.174.293-.096.133-.21.276-.344.429l-.42.488a21.821 21.821 0 0 1-.874.941c-.164.164-.288.23-.373.2.164-.56.311-1.129.441-1.706s.237-1.163.322-1.756c.025-.195.069-.387.132-.573.04-.126.096-.248.165-.361.068-.091.091-.156.068-.195-.023-.039-.1-.057-.229-.051l-.789.025c.003.646-.044 1.291-.14 1.93-.099.682-.25 1.436-.454 2.261l-1-1 .051-.221c.05-.175-.009-.228-.178-.161l-1.1.433c.057.045.12.1.191.165l.221.2.233.216c.079.074.145.139.2.195l1.12 1.112a33.196 33.196 0 0 1-.581 1.956c-.163.492-.352.975-.564 1.447l.17.085c.283-.464.54-.944.768-1.438.25-.555.47-1.124.656-1.704ZM34.074 68.915a44.028 44.028 0 0 1-1.192-1.158L29.921 64.8l.051-.17c.023-.1.02-.167-.008-.195-.028-.028-.1-.014-.212.042l-.441.221a15.183 15.183 0 0 0-.721-2.232 1.037 1.037 0 0 1-.068-.865c.067-.133.084-.218.051-.255-.034-.034-.116-.042-.246-.025L27.1 61.5a22.5 22.5 0 0 1 2.562 6.517l.178-.025a18.28 18.28 0 0 0-.322-2.393l2.571 2.571c.328.328.737.757 1.226 1.286l.742.8c.141.141.238.187.289.136a1.56 1.56 0 0 0 .2-.492c.085-.277.073-.469-.034-.577l-.439-.4.001-.008Z" fill-opacity=".26" fill="#000"/><path d="M41.607 50.893a3.617 3.617 0 0 0-1.01.373l.025.178c.458.019.896.189 1.247.484.164.119.291.133.382.042a.364.364 0 0 0 .093-.187.744.744 0 0 0 .008-.255 1.027 1.027 0 0 0-.076-.272.753.753 0 0 0-.161-.238.586.586 0 0 0-.508-.125ZM46.987 50.257c.09-.11.11-.26.051-.39a1.207 1.207 0 0 0-.322-.509.665.665 0 0 0-.233-.148.918.918 0 0 0-.416-.025c-.242.033-.48.087-.713.161-.291.088-.669.221-1.133.4l.025.161a4.328 4.328 0 0 1 1.179.025c.393.066.778.178 1.146.331a.5.5 0 0 0 .259.064.263.263 0 0 0 .157-.07ZM39.686 49.964c.229.062.443.167.632.31a.3.3 0 0 0 .424-.068.558.558 0 0 0 .182-.437.671.671 0 0 0-.216-.445.474.474 0 0 0-.509-.136 2.212 2.212 0 0 0-.45.178c-.181.09-.413.221-.7.39l.042.161c.2-.022.401-.006.595.047Z" fill-opacity=".26" fill="#000"/><path d="M38.23 54.6c.01.161.079.313.191.429a.4.4 0 0 0 .318.148c.16-.009.303-.1.378-.242a.785.785 0 0 0 .03-.539 2.047 2.047 0 0 0-.259-.556 2.983 2.983 0 0 0-.53-.607l5.414-5.414.416 1.23.17-.034a5.162 5.162 0 0 1 .11-1.23c.057-.248.184-.474.365-.653.119-.107.161-.19.127-.246-.034-.056-.133-.082-.3-.076l-1.307.068.085.764L38.087 53a2.465 2.465 0 0 0-.2-.153 10.16 10.16 0 0 1-.212-.144l-.119.136c.203.224.364.483.475.764.12.32.186.656.199.997ZM68.947 32.466c.59.15 1.2.2 1.807.144.34 0 .678-.065.993-.195a.132.132 0 0 0 .025-.127 1.054 1.054 0 0 1 .195-1.078l-.1-.1c-1.445.87-3.22.99-4.769.322l2.35-2.35c.085-.085.109-.146.072-.182a.307.307 0 0 0-.2-.064l-1.2-.11.1 1.12-1.612 1.612-1.264-1.264.959-.959.467.467c.079.079.146.092.2.038a1.2 1.2 0 0 0 .174-.462c.062-.255.048-.427-.042-.518l-.441-.373c-.175-.153-.354-.32-.535-.5l-.925-.925.042-.433c.017-.085.01-.143-.021-.174-.03-.031-.103-.041-.216-.03L64 26.416l.119.713-2.393 2.393-1.035.238c.345.3.702.633 1.069 1l.755.755c.35.354.676.731.976 1.129.068.079.134.151.2.216s.122.074.17.025a1.8 1.8 0 0 0 .225-.445.5.5 0 0 0-.059-.586l-.17-.17.9-.9 1.264 1.264-1.9 1.9a6.382 6.382 0 0 1-.755.653l.67.059c.123-.247.289-.47.489-.66l1.129-1.129c.632 1.622.949 3.35.933 5.091l.187.017c.328-1.903.131-3.86-.569-5.66l.042-.042 2.147 2.147c.368.368.64.645.815.832l.416.467c.107.107.181.141.221.1a1.84 1.84 0 0 0 .208-.445c.099-.257.117-.416.055-.479a21.945 21.945 0 0 1-1.095-1.046l-2.172-2.172.093-.093a7.629 7.629 0 0 0 2.012.878Zm-5.338-1.027-1.663-1.663 2.454-2.452 1.663 1.663-2.454 2.452Z" fill-opacity=".26" fill="#000"/><path d="M66.074 37.858a44.028 44.028 0 0 1-1.192-1.158l-2.961-2.961.051-.17c.023-.1.02-.167-.008-.195-.028-.028-.1-.014-.212.042l-.441.221a15.183 15.183 0 0 0-.721-2.232 1.037 1.037 0 0 1-.068-.865c.067-.133.084-.218.051-.255-.034-.034-.116-.042-.246-.025l-1.23.178a22.534 22.534 0 0 1 2.563 6.517l.178-.025a18.28 18.28 0 0 0-.322-2.393l2.571 2.571c.328.328.737.756 1.226 1.285l.742.8c.141.141.238.187.289.136a1.56 1.56 0 0 0 .2-.492c.085-.277.073-.47-.034-.577l-.436-.402ZM79.043 21.581c.133.122.256.24.369.352l1.273 1.273-1.756 1.756-1.729-1.731-.017-.322c0-.1-.016-.163-.047-.182-.031-.019-.092-.007-.182.038l-.967.56c.317.283.584.532.8.747L78.3 25.59l-1.578 1.578-1.322-1.324.042-.28a.2.2 0 0 0-.013-.165c-.025-.037-.078-.044-.157-.021l-1.129.45c.158.136.293.256.4.361.107.105.222.214.335.327l.815.815c.068.068.144.147.229.238l.259.276a12.895 12.895 0 0 1 .437.497c.119.141.205.214.259.216.054.002.115-.075.182-.233.048-.1.089-.204.123-.31a.639.639 0 0 0 .034-.212.319.319 0 0 0-.055-.165 1.267 1.267 0 0 0-.144-.17l-.059-.059 3.963-3.963.407.407c.1.1.165.143.208.14.043-.003.092-.072.148-.208.056-.136.117-.245.148-.327a.72.72 0 0 0 .051-.195.132.132 0 0 0-.03-.106l-.076-.076a7.459 7.459 0 0 1-.424-.373 26.83 26.83 0 0 1-.628-.611l-.84-.84.068-.322c.028-.187-.039-.25-.2-.187L78.6 21.2c.16.132.306.261.439.383l.004-.002ZM72.895 24.648a1.33 1.33 0 0 0-.344-.675 7.2 7.2 0 0 0-.989-.912l-.085.136c.19.22.336.473.433.747.082.272.11.557.085.84a.677.677 0 0 0 .119.475c.076.106.2.167.331.161a.509.509 0 0 0 .4-.187.769.769 0 0 0 .05-.585Z" fill-opacity=".26" fill="#000"/><path d="M70.231 23.545c.01.16.078.313.191.428a.4.4 0 0 0 .318.148c.16-.009.303-.1.378-.242a.785.785 0 0 0 .03-.539 2.047 2.047 0 0 0-.259-.556 2.983 2.983 0 0 0-.53-.607l5.414-5.414.416 1.23.17-.034a5.162 5.162 0 0 1 .11-1.23c.057-.248.184-.474.365-.653.119-.107.161-.19.127-.246-.034-.056-.133-.082-.3-.076l-1.307.068.085.764-5.351 5.354a2.464 2.464 0 0 0-.2-.153 10.16 10.16 0 0 1-.212-.144l-.119.136c.203.224.364.483.475.764.119.321.186.66.199 1.002Z" fill-opacity=".26" fill="#000"/><path d="M74.253 20.914a.364.364 0 0 0 .093-.187.744.744 0 0 0 .008-.255.975.975 0 0 0-.076-.271.764.764 0 0 0-.161-.238.581.581 0 0 0-.509-.127 3.617 3.617 0 0 0-1.01.373l.025.178c.458.019.896.189 1.247.484.165.12.292.129.383.043Z" fill-opacity=".26" fill="#000"/><path d="m72.955 27.253.17.085c.283-.464.54-.944.768-1.438.252-.554.471-1.121.658-1.7a.535.535 0 0 0 .39-.051c.168-.091.322-.205.458-.339.39-.368.757-.737 1.1-1.107.343-.37.701-.776 1.073-1.218.291-.341.44-.782.416-1.23 0-.113-.02-.184-.059-.212a.28.28 0 0 0-.212-.008 1.535 1.535 0 0 1-.284.038.667.667 0 0 1-.271-.051 1.412 1.412 0 0 1-.31-.182 5.263 5.263 0 0 1-.424-.365l-.119.136c.221.277.387.5.5.67.092.13.168.271.225.42a.386.386 0 0 1 0 .288c-.05.103-.107.2-.174.293-.096.13-.21.273-.344.428l-.42.488a21.821 21.821 0 0 1-.874.941c-.164.164-.289.232-.373.2.164-.56.311-1.129.441-1.706s.237-1.163.322-1.756c.025-.195.069-.387.132-.573.04-.13.095-.253.165-.369.068-.091.091-.156.068-.195-.023-.039-.1-.057-.229-.051l-.789.025c.003.646-.044 1.291-.14 1.93-.099.682-.25 1.436-.454 2.261l-1-1 .051-.221c.051-.175-.008-.228-.178-.161l-1.1.433c.057.045.12.1.191.165l.221.2.233.216c.08.074.146.139.2.195L74.1 23.85a33.506 33.506 0 0 1-.581 1.956c-.163.492-.352.975-.564 1.447ZM71.686 18.908c.229.062.443.167.632.31a.3.3 0 0 0 .424-.068.558.558 0 0 0 .182-.437.671.671 0 0 0-.216-.445.474.474 0 0 0-.509-.136 2.212 2.212 0 0 0-.45.178c-.18.09-.414.22-.7.39l.042.161c.2-.022.401-.006.595.047ZM76.247 18.852a4.328 4.328 0 0 1 1.179.025c.393.066.778.178 1.146.331a.5.5 0 0 0 .259.064.264.264 0 0 0 .157-.072c.09-.11.11-.26.051-.39a1.207 1.207 0 0 0-.322-.509.665.665 0 0 0-.233-.148.918.918 0 0 0-.416-.025c-.242.032-.48.086-.713.161-.292.088-.67.221-1.133.4l.025.163Z" fill-opacity=".26" fill="#000"/></g></svg>