<svg viewBox="0 0 16 16" fill="none" xmlns="http://www.w3.org/2000/svg">
<g clip-path="url(#clip0_2461_29720)">
<path opacity="0.2" d="M7.076 2.99968L8.029 0.331682C8.07302 0.208562 8.16351 0.107582 8.28108 0.0503828C8.39866 -0.00681636 8.53396 -0.0156835 8.658 0.0256817L11.658 1.02568C11.7212 1.0467 11.7796 1.08014 11.8297 1.12404C11.8798 1.16794 11.9207 1.22141 11.9498 1.28131C11.979 1.34121 11.9959 1.40633 11.9995 1.47286C12.0032 1.53938 11.9935 1.60596 11.971 1.66868L11.5 2.99968H15.5C15.6326 2.99968 15.7598 3.05236 15.8536 3.14613C15.9473 3.2399 16 3.36707 16 3.49968V6.49968C16 6.63229 15.9473 6.75947 15.8536 6.85323C15.7598 6.947 15.6326 6.99968 15.5 6.99968H10.067L9.352 8.99968H15.5C15.6326 8.99968 15.7598 9.05236 15.8536 9.14613C15.9473 9.2399 16 9.36707 16 9.49968V12.4997C16 12.6323 15.9473 12.7595 15.8536 12.8532C15.7598 12.947 15.6326 12.9997 15.5 12.9997H7.924L6.971 15.6677C6.92698 15.7908 6.83649 15.8918 6.71892 15.949C6.60134 16.0062 6.46604 16.015 6.342 15.9737L3.342 14.9737C3.27878 14.9527 3.2204 14.9192 3.17028 14.8753C3.12017 14.8314 3.07933 14.778 3.05017 14.7181C3.02102 14.6582 3.00412 14.593 3.00049 14.5265C2.99685 14.46 3.00654 14.3934 3.029 14.3307L3.5 12.9997H0.5C0.367392 12.9997 0.240215 12.947 0.146447 12.8532C0.0526784 12.7595 0 12.6323 0 12.4997V9.49968C0 9.36707 0.0526784 9.2399 0.146447 9.14613C0.240215 9.05236 0.367392 8.99968 0.5 8.99968H4.933L5.647 6.99968H0.5C0.367392 6.99968 0.240215 6.947 0.146447 6.85323C0.0526784 6.75947 0 6.63229 0 6.49968V3.49968C0 3.36707 0.0526784 3.2399 0.146447 3.14613C0.240215 3.05236 0.367392 2.99968 0.5 2.99968H7.076Z" fill="#4F87FE"/>
<path fill-rule="evenodd" clip-rule="evenodd" d="M7.78068 3.99968H1V5.99968H7.06581L5.63781 9.99968H1V11.9997H4.91463L4.14099 14.1859L6.19396 14.8702L7.21932 11.9997H15V9.99968H7.93252L9.36252 5.99968H15V3.99968H10.0854L10.859 1.81344L8.80604 1.12912L7.78068 3.99968ZM8.658 0.0256817C8.53396 -0.0156835 8.39866 -0.00681636 8.28108 0.0503828C8.16351 0.107582 8.07302 0.208562 8.029 0.331682L7.076 2.99968H0.5C0.367392 2.99968 0.240215 3.05236 0.146447 3.14613C0.0526784 3.2399 0 3.36707 0 3.49968V6.49968C0 6.63229 0.0526784 6.75947 0.146447 6.85323C0.240215 6.947 0.367392 6.99968 0.5 6.99968H5.647L4.933 8.99968H0.5C0.367392 8.99968 0.240215 9.05236 0.146447 9.14613C0.0526784 9.2399 0 9.36707 0 9.49968V12.4997C0 12.6323 0.0526784 12.7595 0.146447 12.8532C0.240215 12.947 0.367392 12.9997 0.5 12.9997H3.5L3.029 14.3307C3.00654 14.3934 2.99685 14.46 3.00049 14.5265C3.00412 14.593 3.02102 14.6582 3.05017 14.7181C3.07933 14.778 3.12017 14.8314 3.17028 14.8753C3.2204 14.9192 3.27878 14.9527 3.342 14.9737L6.342 15.9737C6.46604 16.015 6.60134 16.0062 6.71892 15.949C6.83649 15.8918 6.92698 15.7908 6.971 15.6677L7.924 12.9997H15.5C15.6326 12.9997 15.7598 12.947 15.8536 12.8532C15.9473 12.7595 16 12.6323 16 12.4997V9.49968C16 9.36707 15.9473 9.2399 15.8536 9.14613C15.7598 9.05236 15.6326 8.99968 15.5 8.99968H9.352L10.067 6.99968H15.5C15.6326 6.99968 15.7598 6.947 15.8536 6.85323C15.9473 6.75947 16 6.63229 16 6.49968V3.49968C16 3.36707 15.9473 3.2399 15.8536 3.14613C15.7598 3.05236 15.6326 2.99968 15.5 2.99968H11.5L11.971 1.66868C11.9935 1.60596 12.0032 1.53938 11.9995 1.47286C11.9959 1.40633 11.979 1.34121 11.9498 1.28131C11.9207 1.22141 11.8798 1.16794 11.8297 1.12404C11.7796 1.08014 11.7212 1.0467 11.658 1.02568L8.658 0.0256817Z" fill="#3B64FC"/>
</g>
<defs>
<clipPath id="clip0_2461_29720">
<rect width="16" height="16" fill="white"/>
</clipPath>
</defs>
</svg>
