<svg viewBox="0 0 16 16" fill="none" xmlns="http://www.w3.org/2000/svg">
<path opacity="0.2" d="M5.29291 7.99988L1.1459 3.85388C1.05217 3.76012 0.999512 3.63296 0.999512 3.50038C0.999512 3.3678 1.05217 3.24065 1.1459 3.14688L3.1459 1.14688C3.23967 1.05315 3.36682 1.00049 3.4994 1.00049C3.63199 1.00049 3.75914 1.05315 3.8529 1.14688L7.99991 5.29288L12.1459 1.14688C12.2397 1.05315 12.3668 1.00049 12.4994 1.00049C12.632 1.00049 12.7591 1.05315 12.8529 1.14688L14.8529 3.14688C14.9466 3.24065 14.9993 3.3678 14.9993 3.50038C14.9993 3.63296 14.9466 3.76012 14.8529 3.85388L10.7069 7.99988L14.8529 12.1459C14.9466 12.2396 14.9993 12.3668 14.9993 12.4994C14.9993 12.632 14.9466 12.7591 14.8529 12.8529L12.8529 14.8529C12.7591 14.9466 12.632 14.9993 12.4994 14.9993C12.3668 14.9993 12.2397 14.9466 12.1459 14.8529L7.99991 10.7069L3.8539 14.8539C3.76014 14.9476 3.63299 15.0003 3.5004 15.0003C3.36782 15.0003 3.24067 14.9476 3.1469 14.8539L1.1469 12.8539C1.05317 12.7601 1.00051 12.633 1.00051 12.5004C1.00051 12.3678 1.05317 12.2406 1.1469 12.1469L5.29291 7.99988Z" fill="#4F87FE"/>
<path fill-rule="evenodd" clip-rule="evenodd" d="M6.70712 7.99971L2.20758 12.5003L3.50036 13.7931L7.99982 9.29258L12.4994 13.7922L13.7922 12.4994L9.29269 7.99988L13.7922 3.50038L12.4994 2.20759L7.99999 6.70701L3.49945 2.20755L2.20666 3.50034L6.70712 7.99971ZM1.1459 3.14688L3.1459 1.14688C3.23967 1.05315 3.36682 1.00049 3.4994 1.00049C3.63199 1.00049 3.75914 1.05315 3.8529 1.14688L7.99991 5.29288L12.1459 1.14688C12.2397 1.05315 12.3668 1.00049 12.4994 1.00049C12.632 1.00049 12.7591 1.05315 12.8529 1.14688L14.8529 3.14688C14.9466 3.24065 14.9993 3.3678 14.9993 3.50038C14.9993 3.63296 14.9466 3.76012 14.8529 3.85388L10.7069 7.99988L14.8529 12.1459C14.9466 12.2396 14.9993 12.3668 14.9993 12.4994C14.9993 12.632 14.9466 12.7591 14.8529 12.8529L12.8529 14.8529C12.7591 14.9466 12.632 14.9993 12.4994 14.9993C12.3668 14.9993 12.2397 14.9466 12.1459 14.8529L7.99991 10.7069L3.8539 14.8539C3.76014 14.9476 3.63299 15.0003 3.5004 15.0003C3.36782 15.0003 3.24067 14.9476 3.1469 14.8539L1.1469 12.8539C1.05317 12.7601 1.00051 12.633 1.00051 12.5004C1.00051 12.3678 1.05317 12.2406 1.1469 12.1469L5.29291 7.99988L1.1459 3.85388C1.05217 3.76012 0.999512 3.63296 0.999512 3.50038C0.999512 3.3678 1.05217 3.24065 1.1459 3.14688Z" fill="#3B64FC"/>
</svg>
