<svg viewBox="0 0 16 16" fill="none" xmlns="http://www.w3.org/2000/svg">
<path opacity="0.2" d="M0 6.5C0 6.36739 0.0526784 6.24021 0.146447 6.14645C0.240215 6.05268 0.367392 6 0.5 6H15.5C15.6326 6 15.7598 6.05268 15.8536 6.14645C15.9473 6.24021 16 6.36739 16 6.5V9.5C16 9.63261 15.9473 9.75979 15.8536 9.85355C15.7598 9.94732 15.6326 10 15.5 10H0.5C0.367392 10 0.240215 9.94732 0.146447 9.85355C0.0526784 9.75979 0 9.63261 0 9.5V6.5Z" fill="#4F87FE"/>
<path fill-rule="evenodd" clip-rule="evenodd" d="M1 7V9H15V7H1ZM0.146447 6.14645C0.0526784 6.24021 0 6.36739 0 6.5V9.5C0 9.63261 0.0526784 9.75979 0.146447 9.85355C0.240215 9.94732 0.367392 10 0.5 10H15.5C15.6326 10 15.7598 9.94732 15.8536 9.85355C15.9473 9.75979 16 9.63261 16 9.5V6.5C16 6.36739 15.9473 6.24021 15.8536 6.14645C15.7598 6.05268 15.6326 6 15.5 6H0.5C0.367392 6 0.240215 6.05268 0.146447 6.14645Z" fill="#3B64FC"/>
</svg>
