<svg viewBox="0 0 16 16" fill="none" xmlns="http://www.w3.org/2000/svg">
<path opacity="0.2" d="M1.5 1H14.5C14.8978 1 15.2794 1.15804 15.5607 1.43934C15.842 1.72064 16 2.10218 16 2.5V13.5C16 13.8978 15.842 14.2794 15.5607 14.5607C15.2794 14.842 14.8978 15 14.5 15H1.5C1.10218 15 0.720644 14.842 0.43934 14.5607C0.158035 14.2794 0 13.8978 0 13.5V2.5C0 2.10218 0.158035 1.72064 0.43934 1.43934C0.720644 1.15804 1.10218 1 1.5 1Z" fill="#4F87FE"/>
<path fill-rule="evenodd" clip-rule="evenodd" d="M14.5 2H1.5C1.36739 2 1.24021 2.05268 1.14645 2.14645C1.05268 2.24021 1 2.36739 1 2.5V13.5C1 13.6326 1.05268 13.7598 1.14645 13.8536C1.24021 13.9473 1.36739 14 1.5 14H14.5C14.6326 14 14.7598 13.9473 14.8536 13.8536C14.9473 13.7598 15 13.6326 15 13.5V2.5C15 2.36739 14.9473 2.24021 14.8536 2.14645C14.7598 2.05268 14.6326 2 14.5 2ZM14.5 1H1.5C1.10218 1 0.720644 1.15804 0.43934 1.43934C0.158035 1.72064 0 2.10218 0 2.5V13.5C0 13.8978 0.158035 14.2794 0.43934 14.5607C0.720644 14.842 1.10218 15 1.5 15H14.5C14.8978 15 15.2794 14.842 15.5607 14.5607C15.842 14.2794 16 13.8978 16 13.5V2.5C16 2.10218 15.842 1.72064 15.5607 1.43934C15.2794 1.15804 14.8978 1 14.5 1Z" fill="#3B64FC"/>
<path d="M9.063 7.43C9.15362 7.49477 9.22748 7.58023 9.27844 7.67928C9.32939 7.77833 9.35597 7.88811 9.35597 7.9995C9.35597 8.11089 9.32939 8.22067 9.27844 8.31972C9.22748 8.41877 9.15362 8.50423 9.063 8.569L6.107 10.681C6.00231 10.7558 5.87903 10.8003 5.7507 10.8096C5.62237 10.819 5.49395 10.7927 5.37955 10.7338C5.26516 10.6749 5.16921 10.5856 5.10225 10.4758C5.03529 10.3659 4.99991 10.2397 5 10.111V5.889C4.99991 5.76033 5.03529 5.63412 5.10225 5.52425C5.16921 5.41437 5.26516 5.32508 5.37955 5.26617C5.49395 5.20727 5.62237 5.18104 5.7507 5.19036C5.87903 5.19968 6.00231 5.24419 6.107 5.319L9.063 7.43ZM11 10.5C11 10.6326 10.9473 10.7598 10.8536 10.8536C10.7598 10.9473 10.6326 11 10.5 11C10.3674 11 10.2402 10.9473 10.1464 10.8536C10.0527 10.7598 10 10.6326 10 10.5V5.5C10 5.36739 10.0527 5.24021 10.1464 5.14645C10.2402 5.05268 10.3674 5 10.5 5C10.6326 5 10.7598 5.05268 10.8536 5.14645C10.9473 5.24021 11 5.36739 11 5.5V10.5Z" fill="#3B64FC"/>
</svg>
