<svg viewBox="0 0 16 16" fill="none" xmlns="http://www.w3.org/2000/svg">
<path opacity="0.2" d="M1.5 1H14.5C14.8978 1 15.2794 1.15804 15.5607 1.43934C15.842 1.72064 16 2.10218 16 2.5V13.5C16 13.8978 15.842 14.2794 15.5607 14.5607C15.2794 14.842 14.8978 15 14.5 15H1.5C1.10218 15 0.720644 14.842 0.43934 14.5607C0.158035 14.2794 0 13.8978 0 13.5V2.5C0 2.10218 0.158035 1.72064 0.43934 1.43934C0.720644 1.15804 1.10218 1 1.5 1Z" fill="#4F87FE"/>
<path d="M6.25 8C6.11739 8 5.99021 7.94732 5.89645 7.85355C5.80268 7.75979 5.75 7.63261 5.75 7.5C5.75 7.36739 5.80268 7.24021 5.89645 7.14645C5.99021 7.05268 6.11739 7 6.25 7H7.75C7.88261 7 8.00979 7.05268 8.10355 7.14645C8.19732 7.24021 8.25 7.36739 8.25 7.5C8.25 7.63261 8.19732 7.75979 8.10355 7.85355C8.00979 7.94732 7.88261 8 7.75 8H6.25Z" fill="#D8E6FF"/>
<path d="M1.5 1H14.5C14.8978 1 15.2794 1.15804 15.5607 1.43934C15.842 1.72064 16 2.10218 16 2.5V13.5C16 13.8978 15.842 14.2794 15.5607 14.5607C15.2794 14.842 14.8978 15 14.5 15H1.5C1.10218 15 0.720644 14.842 0.43934 14.5607C0.158035 14.2794 0 13.8978 0 13.5L0 2.5C0 2.10218 0.158035 1.72064 0.43934 1.43934C0.720644 1.15804 1.10218 1 1.5 1ZM1.5 2C1.36739 2 1.24021 2.05268 1.14645 2.14645C1.05268 2.24021 1 2.36739 1 2.5V13.5C1 13.6326 1.05268 13.7598 1.14645 13.8536C1.24021 13.9473 1.36739 14 1.5 14H14.5C14.6326 14 14.7598 13.9473 14.8536 13.8536C14.9473 13.7598 15 13.6326 15 13.5V2.5C15 2.36739 14.9473 2.24021 14.8536 2.14645C14.7598 2.05268 14.6326 2 14.5 2H1.5ZM12.2 5.1C12.2743 5.04429 12.3626 5.01036 12.4551 5.00202C12.5476 4.99368 12.6406 5.01126 12.7236 5.05279C12.8067 5.09431 12.8765 5.15815 12.9253 5.23713C12.9741 5.31612 13 5.40714 13 5.5V10.5C13 10.5929 12.9741 10.6839 12.9253 10.7629C12.8765 10.8419 12.8067 10.9057 12.7236 10.9472C12.6406 10.9887 12.5476 11.0063 12.4551 10.998C12.3626 10.9896 12.2743 10.9557 12.2 10.9L10 9.208V10C10 10.2652 9.89464 10.5196 9.70711 10.7071C9.51957 10.8946 9.26522 11 9 11H4C3.73478 11 3.48043 10.8946 3.29289 10.7071C3.10536 10.5196 3 10.2652 3 10V6C3 5.73478 3.10536 5.48043 3.29289 5.29289C3.48043 5.10536 3.73478 5 4 5H9C9.26522 5 9.51957 5.10536 9.70711 5.29289C9.89464 5.48043 10 5.73478 10 6V6.792L12.2 5.1ZM12 9.485V6.515L10.07 8L12 9.485ZM9 7.808V6H4V10H9V8.192C8.99958 8.12619 9.01215 8.06094 9.037 8C9.01215 7.93906 8.99958 7.87381 9 7.808ZM6.25 8C6.11739 8 5.99021 7.94732 5.89645 7.85355C5.80268 7.75979 5.75 7.63261 5.75 7.5C5.75 7.36739 5.80268 7.24021 5.89645 7.14645C5.99021 7.05268 6.11739 7 6.25 7H7.75C7.88261 7 8.00979 7.05268 8.10355 7.14645C8.19732 7.24021 8.25 7.36739 8.25 7.5C8.25 7.63261 8.19732 7.75979 8.10355 7.85355C8.00979 7.94732 7.88261 8 7.75 8H6.25Z" fill="#3B64FC"/>
</svg>
