<svg viewBox="0 0 16 16" fill="none" xmlns="http://www.w3.org/2000/svg">
<g clip-path="url(#clip0_2461_29811)">
<path opacity="0.2" d="M3 3.00009H11.268C11.1146 2.73441 11.0244 2.43701 11.0043 2.13088C10.9842 1.82476 11.0348 1.51812 11.1522 1.23468C11.2696 0.951249 11.4506 0.69862 11.6813 0.496341C11.9119 0.294061 12.186 0.147553 12.4824 0.0681502C12.7787 -0.0112522 13.0893 -0.0214202 13.3902 0.0384328C13.6911 0.0982858 13.9742 0.226555 14.2176 0.413318C14.4609 0.600081 14.6581 0.84033 14.7938 1.11548C14.9295 1.39063 15 1.6933 15 2.00009V11.5001C15 12.1631 14.7366 12.799 14.2678 13.2679C13.7989 13.7367 13.163 14.0001 12.5 14.0001H5C5 14.5305 4.78929 15.0392 4.41421 15.4143C4.03914 15.7894 3.53043 16.0001 3 16.0001C2.46957 16.0001 1.96086 15.7894 1.58579 15.4143C1.21071 15.0392 1 14.5305 1 14.0001V5.00009C1 4.46966 1.21071 3.96095 1.58579 3.58587C1.96086 3.2108 2.46957 3.00009 3 3.00009Z" fill="#4F87FE"/>
<path d="M3 3.00009H11.268C11.1146 2.73441 11.0244 2.43701 11.0043 2.13088C10.9842 1.82476 11.0348 1.51812 11.1522 1.23468C11.2696 0.951249 11.4506 0.69862 11.6813 0.496341C11.9119 0.294061 12.186 0.147553 12.4824 0.0681502C12.7787 -0.0112522 13.0893 -0.0214202 13.3902 0.0384328C13.6911 0.0982858 13.9742 0.226555 14.2176 0.413318C14.4609 0.600081 14.6581 0.84033 14.7938 1.11548C14.9295 1.39063 15 1.6933 15 2.00009V11.5001C15 12.1631 14.7366 12.799 14.2678 13.2679C13.7989 13.7367 13.163 14.0001 12.5 14.0001H5C5 14.5305 4.78929 15.0392 4.41421 15.4143C4.03914 15.7894 3.53043 16.0001 3 16.0001C2.46957 16.0001 1.96086 15.7894 1.58579 15.4143C1.21071 15.0392 1 14.5305 1 14.0001V5.00009C1 4.46966 1.21071 3.96095 1.58579 3.58587C1.96086 3.2108 2.46957 3.00009 3 3.00009ZM5 5.00009V13.0001H12.5C12.8978 13.0001 13.2794 12.8421 13.5607 12.5607C13.842 12.2794 14 11.8979 14 11.5001V3.73209C13.6961 3.90804 13.3511 4.0005 13 4.00009H4.732C4.90795 4.30396 5.00041 4.64895 5 5.00009ZM4 5.00009C4 4.80231 3.94135 4.60897 3.83147 4.44452C3.72159 4.28007 3.56541 4.1519 3.38268 4.07621C3.19996 4.00052 2.99889 3.98072 2.80491 4.0193C2.61093 4.05789 2.43275 4.15313 2.29289 4.29298C2.15304 4.43283 2.0578 4.61102 2.01921 4.805C1.98063 4.99898 2.00043 5.20005 2.07612 5.38277C2.15181 5.5655 2.27998 5.72168 2.44443 5.83156C2.60888 5.94144 2.80222 6.00009 3 6.00009C3.26522 6.00009 3.51957 5.89473 3.70711 5.70719C3.89464 5.51966 4 5.2653 4 5.00009ZM14 2.00009C14 1.80231 13.9414 1.60897 13.8315 1.44452C13.7216 1.28007 13.5654 1.1519 13.3827 1.07621C13.2 1.00052 12.9989 0.980718 12.8049 1.0193C12.6109 1.05789 12.4327 1.15313 12.2929 1.29298C12.153 1.43283 12.0578 1.61102 12.0192 1.805C11.9806 1.99898 12.0004 2.20005 12.0761 2.38277C12.1518 2.5655 12.28 2.72168 12.4444 2.83156C12.6089 2.94144 12.8022 3.00009 13 3.00009C13.2652 3.00009 13.5196 2.89473 13.7071 2.70719C13.8946 2.51966 14 2.2653 14 2.00009ZM3 7.00009C2.64887 7.0005 2.30387 6.90804 2 6.73209V14.0001C2 14.2653 2.10536 14.5197 2.29289 14.7072C2.48043 14.8947 2.73478 15.0001 3 15.0001C3.26522 15.0001 3.51957 14.8947 3.70711 14.7072C3.89464 14.5197 4 14.2653 4 14.0001V6.73209C3.69613 6.90804 3.35113 7.0005 3 7.00009Z" fill="#3B64FC"/>
</g>
<defs>
<clipPath id="clip0_2461_29811">
<rect width="16" height="16" fill="white"/>
</clipPath>
</defs>
</svg>
