<svg viewBox="0 0 16 16" fill="none" xmlns="http://www.w3.org/2000/svg">
<path opacity="0.2" d="M0 4.5C0 4.39181 0.0350889 4.28655 0.1 4.2C0.52326 3.54483 1.09935 3.0023 1.77871 2.61907C2.45807 2.23584 3.22036 2.02339 4 2C5.47827 1.9538 6.94041 2.31829 8.224 3.053C9.36884 3.71681 10.6774 4.04499 12 4C12.6242 3.97508 13.2329 3.79808 13.7732 3.48438C14.3134 3.17068 14.7689 2.72978 15.1 2.2C15.163 2.11605 15.2507 2.05403 15.3509 2.02274C15.4511 1.99145 15.5586 1.99247 15.6581 2.02566C15.7577 2.05884 15.8443 2.12251 15.9056 2.20764C15.967 2.29278 16 2.39506 16 2.5V11.5C16 11.6082 15.9649 11.7135 15.9 11.8C15.4767 12.4552 14.9007 12.9977 14.2213 13.3809C13.5419 13.7642 12.7796 13.9766 12 14C10.5217 14.0462 9.05959 13.6817 7.776 12.947C6.63116 12.2832 5.3226 11.955 4 12C3.37577 12.0249 2.76707 12.2019 2.22681 12.5156C1.68655 12.8293 1.23108 13.2702 0.9 13.8C0.837035 13.884 0.749252 13.946 0.649084 13.9773C0.548916 14.0085 0.441442 14.0075 0.341886 13.9743C0.24233 13.9412 0.155739 13.8775 0.0943789 13.7924C0.0330187 13.7072 0 13.6049 0 13.5L0 4.5Z" fill="#4F87FE"/>
<path fill-rule="evenodd" clip-rule="evenodd" d="M1 4.65254V12.1661C1.22444 11.9731 1.4669 11.8005 1.72467 11.6508C2.40577 11.2554 3.17315 11.0322 3.96011 11.0008L3.966 11.0006L3.966 11.0006C5.47527 10.9492 6.96853 11.3235 8.27517 12.0805C9.39774 12.7224 10.6762 13.0409 11.9688 13.0005L11.97 13.0004C12.5877 12.9819 13.1917 12.8136 13.73 12.5099C14.2368 12.2241 14.671 11.8263 15 11.3475V3.83386C14.7756 4.02685 14.5331 4.1995 14.2753 4.34917C13.5942 4.74465 12.8268 4.96779 12.0399 4.9992L12.034 4.99944L12.034 4.99942C10.5248 5.05076 9.03157 4.67655 7.72496 3.91958C6.60236 3.27759 5.32385 2.95911 4.03124 2.99951L4.02999 2.99955C3.41227 3.01809 2.8083 3.18641 2.27003 3.49005C1.76322 3.77594 1.32896 4.17373 1 4.65254ZM15.1 2.2C15.163 2.11605 15.2507 2.05403 15.3509 2.02274C15.4511 1.99145 15.5586 1.99247 15.6581 2.02566C15.7577 2.05884 15.8443 2.12251 15.9056 2.20764C15.967 2.29278 16 2.39506 16 2.5V11.5C16 11.6082 15.9649 11.7135 15.9 11.8C15.4767 12.4552 14.9007 12.9977 14.2213 13.3809C13.5419 13.7642 12.7796 13.9766 12 14C10.5217 14.0462 9.0596 13.6817 7.776 12.947C6.63116 12.2832 5.3226 11.955 4 12C3.37577 12.0249 2.76707 12.2019 2.22681 12.5156C1.68655 12.8293 1.23108 13.2702 0.9 13.8C0.837035 13.884 0.749252 13.946 0.649084 13.9773C0.548916 14.0085 0.441442 14.0075 0.341886 13.9743C0.24233 13.9412 0.155739 13.8775 0.0943789 13.7924C0.0330187 13.7072 0 13.6049 0 13.5V4.5C0 4.39181 0.0350889 4.28655 0.1 4.2C0.52326 3.54483 1.09935 3.0023 1.77871 2.61907C2.45807 2.23584 3.22036 2.02339 4 2C5.47827 1.9538 6.9404 2.31829 8.224 3.053C9.36884 3.71681 10.6774 4.04499 12 4C12.6242 3.97508 13.2329 3.79808 13.7732 3.48438C14.3134 3.17068 14.7689 2.72978 15.1 2.2Z" fill="#3B64FC"/>
</svg>
