<svg viewBox="0 0 16 16" fill="none" xmlns="http://www.w3.org/2000/svg">
<path opacity="0.2" d="M15.0271 7.5L15.9741 4.658C15.9991 4.58287 16.006 4.50288 15.994 4.4246C15.9821 4.34632 15.9517 4.272 15.9054 4.20775C15.8591 4.1435 15.7983 4.09116 15.7278 4.05504C15.6573 4.01893 15.5793 4.00006 15.5001 4H10.5001C10.4105 4.00227 10.3233 4.02926 10.2481 4.078C10.2281 4.08953 10.2091 4.10257 10.1911 4.117C10.1252 4.16692 10.073 4.2326 10.0391 4.308V4.315C10.0145 4.37363 10.0012 4.43641 10.0001 4.5V6H6.00011V4.5C5.99963 4.43654 5.98707 4.37376 5.96311 4.315V4.308C5.92922 4.23262 5.87696 4.16695 5.81111 4.117C5.79314 4.10256 5.77408 4.08952 5.75411 4.078C5.67833 4.02891 5.59038 4.0019 5.50011 4H0.500109C0.420925 4.00006 0.342888 4.01893 0.272421 4.05504C0.201955 4.09116 0.141074 4.1435 0.0947914 4.20775C0.0485085 4.272 0.0181469 4.34632 0.00620611 4.4246C-0.0057347 4.50288 0.00108672 4.58287 0.0261088 4.658L0.973109 7.5L0.0261088 10.342C0.00108672 10.4171 -0.0057347 10.4971 0.00620611 10.5754C0.0181469 10.6537 0.0485085 10.728 0.0947914 10.7922C0.141074 10.8565 0.201955 10.9088 0.272421 10.945C0.342888 10.9811 0.420925 10.9999 0.500109 11H3.00011V12.5C3.00011 12.6326 3.05279 12.7598 3.14656 12.8536C3.24032 12.9473 3.3675 13 3.50011 13H12.5001C12.6327 13 12.7599 12.9473 12.8537 12.8536C12.9474 12.7598 13.0001 12.6326 13.0001 12.5V11H15.5001C15.5793 10.9999 15.6573 10.9811 15.7278 10.945C15.7983 10.9088 15.8591 10.8565 15.9054 10.7922C15.9517 10.728 15.9821 10.6537 15.994 10.5754C16.006 10.4971 15.9991 10.4171 15.9741 10.342L15.0271 7.5Z" fill="#4F87FE"/>
<path d="M15.0271 7.5L15.9741 4.658C15.9991 4.58287 16.006 4.50288 15.994 4.4246C15.9821 4.34632 15.9517 4.272 15.9054 4.20775C15.8591 4.1435 15.7983 4.09116 15.7278 4.05504C15.6573 4.01893 15.5793 4.00006 15.5001 4H10.5001C10.4105 4.00227 10.3233 4.02926 10.2481 4.078C10.2281 4.08953 10.2091 4.10257 10.1911 4.117C10.1252 4.16692 10.073 4.2326 10.0391 4.308V4.315C10.0145 4.37363 10.0012 4.43641 10.0001 4.5V6H6.00011V4.5C5.99963 4.43654 5.98707 4.37376 5.96311 4.315V4.308C5.92922 4.23262 5.87696 4.16695 5.81111 4.117C5.79314 4.10256 5.77408 4.08952 5.75411 4.078C5.67833 4.02891 5.59038 4.0019 5.50011 4H0.500109C0.420925 4.00006 0.342888 4.01893 0.272421 4.05504C0.201955 4.09116 0.141074 4.1435 0.0947914 4.20775C0.0485085 4.272 0.0181469 4.34632 0.00620611 4.4246C-0.0057347 4.50288 0.00108672 4.58287 0.0261088 4.658L0.973109 7.5L0.0261088 10.342C0.00108672 10.4171 -0.0057347 10.4971 0.00620611 10.5754C0.0181469 10.6537 0.0485085 10.728 0.0947914 10.7922C0.141074 10.8565 0.201955 10.9088 0.272421 10.945C0.342888 10.9811 0.420925 10.9999 0.500109 11H3.00011V12.5C3.00011 12.6326 3.05279 12.7598 3.14656 12.8536C3.24032 12.9473 3.3675 13 3.50011 13H12.5001C12.6327 13 12.7599 12.9473 12.8537 12.8536C12.9474 12.7598 13.0001 12.6326 13.0001 12.5V11H15.5001C15.5793 10.9999 15.6573 10.9811 15.7278 10.945C15.7983 10.9088 15.8591 10.8565 15.9054 10.7922C15.9517 10.728 15.9821 10.6537 15.994 10.5754C16.006 10.4971 15.9991 10.4171 15.9741 10.342L15.0271 7.5ZM11.0001 5.707L11.2931 6H11.0001V5.707ZM5.00011 5.707V6H4.70711L5.00011 5.707ZM1.19411 10L1.97511 7.658C2.00927 7.55544 2.00927 7.44456 1.97511 7.342L1.19411 5H4.29411L3.14611 6.146C3.08621 6.21066 3.04446 6.29001 3.02511 6.376C3.01853 6.39959 3.01385 6.42366 3.01111 6.448C3.00645 6.46511 3.00278 6.48247 3.00011 6.5V10H1.19411ZM12.0001 12H4.00011V7H12.0001V12ZM14.8061 10H13.0001V6.5C12.9977 6.48283 12.9944 6.4658 12.9901 6.449C12.9874 6.42466 12.9827 6.40059 12.9761 6.377C12.9566 6.29055 12.9145 6.21083 12.8541 6.146L11.7071 5H14.8071L14.0261 7.342C13.9919 7.44456 13.9919 7.55544 14.0261 7.658L14.8061 10Z" fill="#3B64FC"/>
</svg>
