<svg viewBox="0 0 16 16" fill="none" xmlns="http://www.w3.org/2000/svg">
<g clip-path="url(#clip0_2461_29765)">
<path opacity="0.2" d="M2.6001 7.49992L0.223101 5.91592C0.133848 5.85641 0.0661018 5.76977 0.0298699 5.66879C-0.00636206 5.56782 -0.00915882 5.45788 0.0218927 5.35519C0.0529442 5.25251 0.116197 5.16254 0.202309 5.09856C0.288421 5.03459 0.392825 5 0.500101 4.99992H3.7611L2.0361 0.685921C1.99536 0.583499 1.9896 0.470484 2.01972 0.364452C2.04985 0.25842 2.11417 0.165315 2.20268 0.0996163C2.29119 0.0339181 2.39893 -0.00069058 2.50914 0.00117292C2.61935 0.00303642 2.72586 0.0412676 2.8121 0.109921L7.2001 3.62292L8.0151 0.378921C8.04256 0.268909 8.10659 0.171496 8.1967 0.102666C8.2868 0.0338354 8.39763 -0.00232559 8.51099 0.000116012C8.62435 0.00255762 8.73351 0.0434568 8.82057 0.116103C8.90763 0.188749 8.96741 0.288829 8.9901 0.399921L9.8791 4.84492L15.3421 3.02392C15.449 2.98812 15.5649 2.9895 15.6709 3.02783C15.7769 3.06616 15.8668 3.13919 15.9261 3.23508C15.9854 3.33096 16.0106 3.44407 15.9975 3.55604C15.9844 3.66801 15.9339 3.77228 15.8541 3.85192L12.4781 7.22892L15.6211 8.01492C15.7292 8.04202 15.8252 8.10446 15.8937 8.19233C15.9623 8.2802 15.9995 8.38846 15.9995 8.49992C15.9995 8.61138 15.9623 8.71964 15.8937 8.80751C15.8252 8.89538 15.7292 8.95782 15.6211 8.98492L12.3091 9.81292L15.9151 15.2229C15.9773 15.3166 16.0061 15.4286 15.9968 15.5407C15.9875 15.6528 15.9407 15.7585 15.8639 15.8407C15.7872 15.9229 15.6849 15.9768 15.5737 15.9937C15.4625 16.0107 15.3488 15.9896 15.2511 15.9339L8.6351 12.1529L5.9001 15.7999C5.83714 15.8839 5.74935 15.9459 5.64918 15.9772C5.54902 16.0085 5.44154 16.0074 5.34199 15.9743C5.24243 15.9411 5.15584 15.8774 5.09448 15.7923C5.03312 15.7071 5.0001 15.6049 5.0001 15.4999V12.1399L1.6211 12.9849C1.52328 13.0092 1.42039 13.0034 1.32594 12.9682C1.23149 12.933 1.14988 12.8701 1.09181 12.7877C1.03375 12.7053 1.00194 12.6073 1.00057 12.5065C0.999191 12.4057 1.02831 12.3069 1.0841 12.2229L2.5661 9.99992H0.500101C0.392825 9.99984 0.288421 9.96525 0.202309 9.90128C0.116197 9.83731 0.0529442 9.74733 0.0218927 9.64465C-0.00915882 9.54197 -0.00636206 9.43202 0.0298699 9.33105C0.0661018 9.23008 0.133848 9.14343 0.223101 9.08392L2.6001 7.49992Z" fill="#4F87FE"/>
<path fill-rule="evenodd" clip-rule="evenodd" d="M4.4034 7.49992L2.15245 8.99992H4.43462L2.63402 11.7008L6.0001 10.8591V13.9998L8.36476 10.8466L13.9078 14.0145L10.6901 9.18691L13.4383 8.49984L10.5225 7.77066L13.6503 4.64194L9.12068 6.15182L8.44482 2.77254L7.79058 5.37665L3.66944 2.07729L5.23794 5.99992H2.15245L4.4034 7.49992ZM0.223101 5.91592C0.133848 5.85641 0.0661018 5.76977 0.0298699 5.66879C-0.00636206 5.56782 -0.00915882 5.45788 0.0218927 5.35519C0.0529442 5.25251 0.116197 5.16254 0.202309 5.09856C0.288421 5.03459 0.392825 5 0.500101 4.99992H3.7611L2.0361 0.685921C1.99536 0.583499 1.9896 0.470484 2.01972 0.364452C2.04985 0.25842 2.11417 0.165315 2.20268 0.0996163C2.29119 0.0339181 2.39893 -0.00069058 2.50914 0.00117292C2.61935 0.00303642 2.72586 0.0412676 2.8121 0.109921L7.2001 3.62292L8.0151 0.378921C8.04256 0.268909 8.10659 0.171496 8.1967 0.102666C8.2868 0.0338354 8.39763 -0.00232559 8.51099 0.000116012C8.62435 0.00255762 8.73351 0.0434568 8.82057 0.116103C8.90763 0.188749 8.96741 0.288829 8.9901 0.399921L9.8791 4.84492L15.3421 3.02392C15.449 2.98812 15.5649 2.9895 15.6709 3.02783C15.7769 3.06616 15.8668 3.13919 15.9261 3.23508C15.9854 3.33096 16.0106 3.44407 15.9975 3.55604C15.9844 3.66801 15.9339 3.77228 15.8541 3.85192L12.4781 7.22892L15.6211 8.01492C15.7292 8.04202 15.8252 8.10446 15.8937 8.19233C15.9623 8.2802 15.9995 8.38846 15.9995 8.49992C15.9995 8.61138 15.9623 8.71964 15.8937 8.80751C15.8252 8.89538 15.7292 8.95782 15.6211 8.98492L12.3091 9.81292L15.9151 15.2229C15.9773 15.3166 16.0061 15.4286 15.9968 15.5407C15.9875 15.6528 15.9407 15.7585 15.8639 15.8407C15.7872 15.9229 15.6849 15.9768 15.5737 15.9937C15.4625 16.0107 15.3488 15.9896 15.2511 15.9339L8.6351 12.1529L5.9001 15.7999C5.83714 15.8839 5.74935 15.9459 5.64918 15.9772C5.54902 16.0085 5.44154 16.0074 5.34199 15.9743C5.24243 15.9411 5.15584 15.8774 5.09448 15.7923C5.03312 15.7071 5.0001 15.6049 5.0001 15.4999V12.1399L1.6211 12.9849C1.52328 13.0092 1.42039 13.0034 1.32594 12.9682C1.23149 12.933 1.14988 12.8701 1.09181 12.7877C1.03375 12.7053 1.00194 12.6073 1.00057 12.5065C0.999191 12.4057 1.02831 12.3069 1.0841 12.2229L2.5661 9.99992H0.500101C0.392825 9.99984 0.288421 9.96525 0.202309 9.90128C0.116197 9.83731 0.0529442 9.74733 0.0218927 9.64465C-0.00915882 9.54197 -0.00636206 9.43202 0.0298699 9.33105C0.0661018 9.23008 0.133848 9.14343 0.223101 9.08392L2.6001 7.49992L0.223101 5.91592Z" fill="#3B64FC"/>
</g>
<defs>
<clipPath id="clip0_2461_29765">
<rect width="16" height="16" fill="white"/>
</clipPath>
</defs>
</svg>
