<svg viewBox="0 0 16 16" fill="none" xmlns="http://www.w3.org/2000/svg">
<g clip-path="url(#clip0_2461_29767)">
<path opacity="0.2" d="M1.85991 8.55197L0.0873755 5.93401C0.0372836 5.85988 0.00854714 5.77375 0.00422667 5.68481C-9.37954e-05 5.59586 0.0201636 5.50743 0.0628412 5.42893C0.105519 5.35042 0.169019 5.28479 0.246577 5.23902C0.324136 5.19325 0.412848 5.16905 0.503267 5.169H4.15731L6.03482 0.31706C6.0671 0.233592 6.12184 0.160347 6.19315 0.10517C6.26447 0.0499931 6.34969 0.0149643 6.43968 0.00383608C6.52966 -0.00729212 6.62103 0.00589967 6.70398 0.0419982C6.78694 0.0780967 6.85836 0.135742 6.91059 0.208757L9.72786 4.14013L15.4164 3.20676C15.5105 3.19136 15.6071 3.2028 15.6948 3.23974C15.7825 3.27667 15.8577 3.33756 15.9114 3.4152C15.9651 3.49284 15.9952 3.584 15.998 3.67792C16.0008 3.77183 15.9762 3.86457 15.9272 3.94519L13.06 8.6524L15.9592 15.313C15.9988 15.4035 16.0099 15.5036 15.9911 15.6004C15.9722 15.6972 15.9243 15.7861 15.8536 15.8558C15.7828 15.9255 15.6925 15.9727 15.5942 15.9912C15.496 16.0097 15.3943 15.9988 15.3024 15.9598L8.53917 13.1046L3.75942 15.9293C3.68355 15.9741 3.59698 15.9982 3.50855 15.9993C3.42011 16.0004 3.33297 15.9783 3.25603 15.9353C3.17908 15.8924 3.11508 15.8301 3.07056 15.7549C3.02604 15.6796 3.0026 15.594 3.00261 15.5069V11.9231L0.345308 11.0508C0.264099 11.0248 0.191009 10.9787 0.133006 10.917C0.0750037 10.8553 0.0340236 10.78 0.0139737 10.6982C-0.00607611 10.6165 -0.00452707 10.531 0.0184731 10.45C0.0414733 10.3691 0.0851577 10.2952 0.14536 10.2356L1.85991 8.55197Z" fill="#4F87FE"/>
<path fill-rule="evenodd" clip-rule="evenodd" d="M3.15527 8.68151L1.44623 10.3597L4.00261 11.1989V14.624L8.46405 11.9874L14.537 14.5513L11.9359 8.57553L14.497 4.37099L9.27683 5.22751L6.63402 1.53958L4.84261 6.169H1.45413L3.15527 8.68151ZM0.0873755 5.93401C0.0372836 5.85988 0.00854714 5.77375 0.00422667 5.68481C-9.37949e-05 5.59586 0.0201636 5.50743 0.0628412 5.42893C0.105519 5.35042 0.169019 5.28479 0.246577 5.23902C0.324136 5.19325 0.412848 5.16905 0.503267 5.169H4.15731L6.03482 0.31706C6.0671 0.233592 6.12184 0.160347 6.19315 0.10517C6.26447 0.0499931 6.34969 0.0149643 6.43968 0.00383608C6.52966 -0.00729212 6.62103 0.00589967 6.70398 0.0419982C6.78694 0.0780967 6.85836 0.135742 6.91059 0.208757L9.72786 4.14013L15.4164 3.20676C15.5105 3.19136 15.6071 3.2028 15.6948 3.23974C15.7825 3.27667 15.8577 3.33756 15.9114 3.4152C15.9651 3.49284 15.9952 3.584 15.998 3.67792C16.0008 3.77183 15.9762 3.86457 15.9272 3.94519L13.06 8.6524L15.9592 15.313C15.9988 15.4035 16.0099 15.5036 15.9911 15.6004C15.9722 15.6972 15.9243 15.7861 15.8536 15.8558C15.7828 15.9255 15.6925 15.9727 15.5942 15.9912C15.496 16.0097 15.3943 15.9988 15.3024 15.9598L8.53917 13.1046L3.75942 15.9293C3.68355 15.9741 3.59698 15.9982 3.50855 15.9993C3.42011 16.0004 3.33297 15.9783 3.25603 15.9353C3.17908 15.8924 3.11508 15.8301 3.07056 15.7549C3.02604 15.6796 3.0026 15.594 3.00261 15.5069V11.9231L0.345308 11.0508C0.264099 11.0248 0.191009 10.9787 0.133006 10.917C0.0750037 10.8553 0.0340236 10.78 0.0139737 10.6982C-0.00607611 10.6165 -0.00452707 10.531 0.0184731 10.45C0.0414733 10.3691 0.0851577 10.2952 0.14536 10.2356L1.85991 8.55197L0.0873755 5.93401Z" fill="#3B64FC"/>
</g>
<defs>
<clipPath id="clip0_2461_29767">
<rect width="16" height="16" fill="white"/>
</clipPath>
</defs>
</svg>
