<svg viewBox="0 0 16 16" fill="none" xmlns="http://www.w3.org/2000/svg">
<g clip-path="url(#clip0_2461_29769)">
<path opacity="0.2" d="M5.08698 8.8732L0.313977 6.9642C0.214155 6.92419 0.129893 6.85306 0.0736963 6.76137C0.0175 6.66968 -0.00763563 6.56231 0.00201981 6.4552C0.0116753 6.34809 0.0556071 6.24695 0.127296 6.16679C0.198984 6.08662 0.294608 6.03171 0.399977 6.0102L5.13398 5.0632L7.03598 0.314198C7.07317 0.221565 7.13723 0.142184 7.21993 0.0862751C7.30262 0.0303661 7.40016 0.000488281 7.49998 0.000488281C7.5998 0.000488281 7.69733 0.0303661 7.78003 0.0862751C7.86272 0.142184 7.92679 0.221565 7.96398 0.314198L9.86398 5.0632L14.6 6.0102C14.7058 6.03114 14.8021 6.08575 14.8743 6.16588C14.9466 6.24602 14.9909 6.34737 15.0008 6.45481C15.0107 6.56226 14.9856 6.67001 14.9292 6.762C14.8728 6.85399 14.7882 6.92527 14.688 6.9652L9.91298 8.8732L7.98098 15.6372C7.95127 15.7419 7.88823 15.834 7.80142 15.8996C7.71461 15.9652 7.60878 16.0007 7.49998 16.0007C7.39117 16.0007 7.28534 15.9652 7.19853 15.8996C7.11173 15.834 7.04869 15.7419 7.01898 15.6372L5.08698 8.8732Z" fill="#4F87FE"/>
<path fill-rule="evenodd" clip-rule="evenodd" d="M5.9138 8.12687L7.49998 13.6801L9.08621 8.12668L12.7544 6.66095L9.13674 5.93758L7.49973 1.84592L5.861 5.93757L2.24736 6.66046L5.9138 8.12687ZM0.313977 6.9642L5.08698 8.8732L7.01898 15.6372C7.04869 15.7419 7.11173 15.834 7.19853 15.8996C7.28534 15.9652 7.39117 16.0007 7.49998 16.0007C7.60878 16.0007 7.71461 15.9652 7.80142 15.8996C7.88823 15.834 7.95127 15.7419 7.98098 15.6372L9.91298 8.8732L14.688 6.9652C14.7882 6.92527 14.8728 6.85399 14.9292 6.762C14.9856 6.67001 15.0107 6.56225 15.0008 6.45481C14.9909 6.34737 14.9466 6.24602 14.8743 6.16588C14.8021 6.08575 14.7058 6.03114 14.6 6.0102L9.86398 5.0632L7.96398 0.314198C7.92679 0.221565 7.86272 0.142184 7.78003 0.0862751C7.69733 0.0303661 7.5998 0.000488281 7.49998 0.000488281C7.40016 0.000488281 7.30262 0.0303661 7.21993 0.0862751C7.13723 0.142184 7.07317 0.221565 7.03598 0.314198L5.13398 5.0632L0.399977 6.0102C0.294608 6.03171 0.198984 6.08663 0.127296 6.16679C0.0556071 6.24695 0.0116753 6.34809 0.00201981 6.4552C-0.00763563 6.56231 0.0175 6.66968 0.0736963 6.76137C0.129893 6.85306 0.214155 6.92419 0.313977 6.9642Z" fill="#3B64FC"/>
</g>
<defs>
<clipPath id="clip0_2461_29769">
<rect width="16" height="16" fill="white"/>
</clipPath>
</defs>
</svg>
